<?xml version="1.0" encoding="UTF-8"?>
<svg width="154px" height="22px" viewBox="0 0 154 22" version="1.1" xmlns="http://www.w3.org/2000/svg" xmlns:xlink="http://www.w3.org/1999/xlink">
    <!-- Generator: Sketch 47.1 (45422) - http://www.bohemiancoding.com/sketch -->
    <title>Group 14 Copy 2</title>
    <desc>Created with Sketch.</desc>
    <defs></defs>
    <g id="News-Headline-Phase-1" stroke="none" stroke-width="1" fill="none" fill-rule="evenodd">
        <g id="375px" transform="translate(-8.000000, -5639.000000)" fill="#FFFFFF">
            <g id="Group-4-Copy" transform="translate(0.000000, 5610.000000)">
                <g id="Group-14-Copy-2" transform="translate(8.000000, 29.000000)">
                    <path d="M72.882,14.678 L72.51,14.905 C70.712,16.003 68.756,16.592 66.98,16.591 C63.178,16.577 60.674,14.324 60.664,11.043 C60.668,7.836 63.283,5.462 66.884,5.453 C68.718,5.455 70.379,5.929 72.353,7.01 L72.716,7.21 L72.716,4.281 L72.56,4.221 C70.334,3.341 68.61,2.95 66.908,2.951 C64.276,2.95 61.992,3.819 60.365,5.295 C58.738,6.77 57.771,8.853 57.772,11.245 C57.773,12.912 58.461,14.865 59.934,16.415 C61.402,17.965 63.663,19.096 66.766,19.094 C66.769,19.094 66.772,19.094 66.776,19.094 C69.349,19.094 71.133,18.52 72.746,17.727 L72.882,17.66 L72.882,14.678 Z M54.275,21.939 L77.494,21.939 L77.494,0.089 L54.275,0.089 L54.275,21.939 Z" id="Fill-2"></path>
                    <path d="M45.223,14.576 C45.23,12.59 43.908,11.082 41.792,10.502 C42.363,10.21 42.814,9.853 43.146,9.418 C43.588,8.835 43.799,8.12 43.797,7.288 C43.799,6.263 43.396,5.22 42.532,4.439 C41.666,3.659 40.353,3.152 38.562,3.152 L33.612,3.152 L33.612,18.889 L39.421,18.889 C41.493,18.889 42.948,18.328 43.885,17.496 C44.821,16.666 45.224,15.579 45.223,14.576 Z M27.52,21.939 L50.739,21.939 L50.739,0.089 L27.52,0.089 L27.52,21.939 Z" id="Fill-3"></path>
                    <path d="M42.334,14.262 C42.332,14.782 42.172,15.305 41.706,15.713 C41.242,16.122 40.439,16.432 39.109,16.432 L36.431,16.432 L36.431,12.137 L38.99,12.137 C40.184,12.137 41.03,12.378 41.56,12.756 C42.09,13.137 42.33,13.636 42.334,14.262" id="Fill-4"></path>
                    <path d="M40.164,9.119 C40.663,8.758 40.903,8.251 40.907,7.489 C40.904,6.965 40.755,6.517 40.378,6.183 C40.001,5.848 39.359,5.61 38.325,5.61 L36.431,5.61 L36.431,9.68 L37.731,9.68 C38.856,9.681 39.663,9.48 40.164,9.119" id="Fill-5"></path>
                    <path d="M18.47,14.576 C18.477,12.59 17.153,11.082 15.039,10.502 C15.609,10.21 16.06,9.853 16.391,9.418 C16.834,8.835 17.045,8.12 17.044,7.288 C17.045,6.263 16.643,5.22 15.778,4.439 C14.914,3.659 13.601,3.152 11.809,3.152 L6.858,3.152 L6.858,18.889 L12.664,18.889 C12.666,18.889 12.667,18.889 12.667,18.889 C14.74,18.889 16.194,18.328 17.13,17.496 C18.067,16.666 18.471,15.579 18.47,14.576 Z M0.768,21.939 L23.986,21.939 L23.986,0.089 L0.768,0.089 L0.768,21.939 Z" id="Fill-6"></path>
                    <path d="M13.41,9.119 C13.908,8.758 14.15,8.251 14.154,7.489 C14.152,6.965 14.002,6.517 13.625,6.183 C13.247,5.848 12.606,5.61 11.571,5.61 L9.678,5.61 L9.678,9.68 L10.977,9.68 C12.102,9.681 12.909,9.48 13.41,9.119" id="Fill-7"></path>
                    <path d="M14.808,12.756 C14.276,12.378 13.429,12.137 12.237,12.137 L9.678,12.137 L9.678,16.432 L12.355,16.432 C13.686,16.432 14.488,16.122 14.954,15.713 C15.418,15.305 15.578,14.782 15.581,14.262 C15.575,13.636 15.337,13.137 14.808,12.756" id="Fill-8"></path>
                    <polyline id="Fill-9" points="101.81 3.149 103.956 3.149 103.956 18.934 102.013 18.934 91.46 6.777 91.46 18.934 89.335 18.934 89.335 3.149 91.166 3.149 101.81 15.409 101.81 3.149"></polyline>
                    <polyline id="Fill-10" points="108.029 3.149 116.978 3.149 116.978 5.16 110.289 5.16 110.289 9.974 116.751 9.974 116.751 11.997 110.289 11.997 110.289 16.9 117.192 16.9 117.192 18.911 108.029 18.911 108.029 3.149"></polyline>
                    <polyline id="Fill-11" points="141.094 3.149 143.348 3.149 136.966 19.001 136.47 19.001 131.309 6.166 126.094 19.001 125.609 19.001 119.247 3.149 121.524 3.149 125.874 14.03 130.253 3.149 132.389 3.149 136.789 14.03 141.094 3.149"></polyline>
                    <path d="M149.471,12.32 L147.753,11.277 C146.676,10.619 145.91,9.972 145.454,9.335 C144.999,8.699 144.771,7.966 144.771,7.138 C144.771,5.894 145.202,4.885 146.064,4.11 C146.927,3.334 148.047,2.946 149.425,2.946 C150.744,2.946 151.953,3.316 153.053,4.056 L153.053,6.621 C151.916,5.527 150.691,4.979 149.38,4.979 C148.642,4.979 148.036,5.15 147.561,5.492 C147.087,5.833 146.849,6.27 146.849,6.803 C146.849,7.275 147.024,7.718 147.374,8.131 C147.723,8.544 148.286,8.977 149.06,9.431 L150.786,10.452 C152.711,11.602 153.674,13.066 153.674,14.843 C153.674,16.109 153.25,17.137 152.403,17.928 C151.556,18.719 150.454,19.114 149.098,19.114 C147.539,19.114 146.119,18.635 144.838,17.676 L144.838,14.807 C146.059,16.353 147.471,17.125 149.075,17.125 C149.784,17.125 150.373,16.929 150.844,16.535 C151.314,16.141 151.55,15.647 151.55,15.054 C151.55,14.093 150.856,13.182 149.471,12.32" id="Fill-12"></path>
                </g>
            </g>
        </g>
    </g>
</svg>