<svg height="143.42" viewBox="0 0 427.049 567.943" width="107.46" xmlns="http://www.w3.org/2000/svg"><path d="m311.682 172.372c-.573-.107-1.124-.204-1.693-.31-.739-9.56-8.71-17.088-18.458-17.088-7.56 0-14.05 4.533-16.93 11.025-15.247-2.31-29.675-3.963-43.339-4.715-2.297-7.626-9.365-13.186-17.74-13.186s-15.445 5.56-17.739 13.186c-13.664.752-28.093 2.406-43.336 4.715-2.88-6.492-9.373-11.025-16.933-11.025-9.747 0-17.717 7.529-18.457 17.086-.57.107-1.123.204-1.696.31-44.869 11.456-86.34 23.399-113.375 30.878 19.562 167.998 133.12 298.469 211.535 363.604 78.416-65.135 191.973-195.606 211.535-363.604-27.035-7.48-68.506-19.422-113.374-30.876z" fill="#ad8f1f"/><path d="m401.496 208.765c-25.792-7.226-57.87-16.211-92.327-25.012-.657-.124-1.325-.242-1.984-.364a18.547 18.547 0 0 1 -9.83 7.697v48.183c7.377 2.442 12.707 9.385 12.707 17.584 0 8.198-5.329 15.14-12.707 17.582v13.237c0 15.618-2.273 30.079-6.06 43.33a18.472 18.472 0 0 1 5.391 13.066c0 10.124-8.122 18.337-18.203 18.513-13.602 25.368-32.104 43.842-47.007 54.285.361 1.445.575 2.95.575 4.508 0 10.233-8.295 18.529-18.529 18.529v111.669c49.072-42.38 174.284-165.99 198.616-339.837z" fill="#0a346f"/><path d="m194.992 421.373c0-1.558.213-3.062.574-4.508-14.904-10.443-33.404-28.917-47.004-54.285-10.083-.176-18.205-8.39-18.205-18.513 0-5.1 2.062-9.715 5.393-13.065a157.034 157.034 0 0 1 -6.06-43.33v-13.238c-7.378-2.443-12.707-9.385-12.707-17.582 0-8.2 5.33-15.141 12.706-17.584v-48.183a18.555 18.555 0 0 1 -9.83-7.697c-.66.122-1.328.24-1.986.364-34.455 8.8-66.534 17.786-92.327 25.012l-10.64 2.97c24.331 173.848 149.544 297.458 198.615 339.838v-111.67c-10.234 0-18.529-8.296-18.529-18.53z" fill="#d91a21"/><path d="m141.336 191.085v48.183c7.378 2.443 12.706 9.385 12.706 17.584 0 8.197-5.328 15.139-12.706 17.582v13.238c0 13.535 1.92 26.249 5.152 38.037a18.757 18.757 0 0 1 2.398-.172c10.233 0 18.531 8.296 18.531 18.53 0 6.058-2.92 11.422-7.418 14.802 12.24 22.173 28.38 38.747 41.762 48.186a18.447 18.447 0 0 1 11.76-4.211 18.45 18.45 0 0 1 11.756 4.209c13.382-9.438 29.525-26.011 41.767-48.184-4.498-3.38-7.42-8.744-7.42-14.802 0-10.234 8.298-18.53 18.531-18.53.815 0 1.612.07 2.4.172 3.23-11.79 5.151-24.503 5.151-38.038v-13.237c-7.376-2.443-12.705-9.385-12.705-17.582 0-8.198 5.33-15.14 12.705-17.584v-48.183a18.545 18.545 0 0 1 -12.234-13.481c-14.452-2.2-28.8-3.93-42.533-4.707-2.57 7.146-9.388 12.263-17.418 12.263-8.034 0-14.853-5.123-17.422-12.271-13.696.773-28.05 2.508-42.527 4.713a18.544 18.544 0 0 1 -12.236 13.483z" fill="#fff"/><path d="m172.578 291.442c-2.68.06-4.518 1.668-5.063 3.019l-3.577 10.276s-1.94 8.035 6.148 9.859c0 0 1.417-4.62 2.696-8.487 0 0 .604-3.69 3.69-3.69l8.09.083s1.927.287 2.477-1.051l.006-10.34c.001-.002-11.52.268-14.467.33zm87.312-36.694c-4.084-4.043-9.002-8.412-15.386-8.317-5.087.075-7.318 2.075-8.785 4.852-1.362 2.57-2.062 6.38 2.298 10.739 3.748 3.748 10.15 6.929 10.15 12.474 0 3.81-2.825 3.58-2.825 3.58l-29.532-.626 4.372 8.394-12.382.178-.16 12.732-10.334-7.743-8.678 9.652-1.75 20.799s.132 1.479-2.28 1.479h-4.687s-2.414 3.312-2.414 7.453l15.004-.21s.657-.414 2.678-4.141c2.711-5 10.066-17.88 10.066-17.88s-.079-5.876-.019-6.155c0 0 2.148 1.648 2.553 1.69v2.839s10.62-7.124 20.542-3.561c0 0 13.532 3.627 15.788 13.127l1.113 6.56s-5.836-.483-6.854 1.81c0 0-1.463 3.287-1.463 5.653h16.23l3.278-7.461-2.962-16.755s-9.342-8.815-8.948-17.612c0 0 9.837-.808 9.837-11.952s-9.71-15.81-12.809-18.106c-2.4-2.401-2.23-4.632-.685-6.176 2.382-2.382 6.9-.028 6.9 1.299 0 0 .683 5.254 7.274 9.067l1.518-1.792s1.151 1.963 6.698 1.963c.002-.001.733-3.811-3.347-7.853z" fill="#ad8f1f"/><path d="m218.887 304.235 1.942 6.249c0 5.392-3.615 12.178-3.615 12.178h-7.483s-3.213 2.284-3.213 7.46h15.353l10.446-11.604s2.257-1.868 2.59-3.573c.484-2.5 1.294-6.07 1.294-6.07-9.063-6.07-17.314-4.64-17.314-4.64zm1.009-27.752-4.979-7.453v-9.341c0-3.552-1.524-4.737-1.524-4.737s-7.508-8.03-9.032-9.712c-1.41-1.557-3.67-1.352-3.996-1.313.047-.09.102-.415.102-1.488 0-1.868-1.69-1.493-1.69-1.493s-7.788.186-7.788-.748c0 0-.339-2.802-3.046-1.493-2.708 1.304-9.878 10.27-13.264 13.82-3.385 3.549-1.86 4.669-1.86 4.669l2.707 4.55 4.378-3.311s1.723-1.23 3.712.57l-6.586 5.146c.845 1.68 2.051 1.518 2.051 1.518h5.755l2.092 4.399h4.254v-7.844h2.368v-7.831h1.332v9.593h-2.369v7.847h-5.754l-10.423 9.749 7.49-.163-3.799 8.46 8.362.246-.062 8.892 8.944-10.036 8.887 6.638v-11.39l11.53-.036-4.585-7.67z" fill="#ad8f1f"/><path d="m184.295 248.83c-.956.272-1.58.802-1.742.965-.776.776.805 1.985 1.8 1.985.992 0 1.798-.888 1.798-1.985.001-1.097.18-1.535-1.856-.964z" fill="#fff"/><path d="m287.317 340.331-1.305-1.182-1.306 1.182 1.306 1.182z" fill="#d91a21" transform="translate(-92.979 -113.148)"/><circle cx="201.284" cy="227.847" fill="#ad8f1f" r=".97"/><circle cx="184.782" cy="227.847" fill="#ad8f1f" r=".97"/><path d="m301.328 343.964.73-2.246.276 1.263zm-30.635 0-.73-2.246-.276 1.263z" fill="#d91a21" transform="translate(-92.979 -113.148)"/><path d="m193.036 228.693c-2.335.06-10.33.415-15.346 2.435l-.06.024.014.063c.41 1.779.418 1.783.461 1.804l.03.015.031-.012c5.755-2.195 13.391-2.49 14.868-2.527 1.476.037 9.11.332 14.866 2.527l.03.01.03-.013c.044-.021.05-.024.46-1.805l.014-.063-.06-.024c-5.013-2.02-13.007-2.374-15.338-2.434zm16.44-2.275c-5.34-2.15-14.469-2.55-16.443-2.532-1.972-.017-11.103.382-16.444 2.533-.07.03-.07.03.34 1.762l.02.084.08-.031c5.595-2.136 13.631-2.566 16.005-2.548h.002c2.374-.018 10.41.412 16.001 2.548l.081.03.02-.083c.41-1.734.41-1.734.338-1.763z" fill="#ad8f1f"/><path d="m211.198 219.488a2.026 2.026 0 0 0 -1.67-.888 1.977 1.977 0 0 0 -1.98 1.978c0 .65.313 1.197.796 1.555 0 0 .554.345.668.576.167.347.011.583-.342.64-.354.057-3.7-1.073-5.394-1.254-.387-.038-.35-.688.468-.515a1.516 1.516 0 0 0 .629-2.963c.075-.133.167-.275.202-.431a1.624 1.624 0 0 0 -1.248-1.926 1.626 1.626 0 0 0 -1.924 1.25c-.032.159-.04.315-.028.469-.817-.175-1.586.356-1.76 1.176-.173.818.365 1.556 1.166 1.796.69.205.426.708.044.685-.275-.021-4.64-.39-5.874-.424-.644-.056-.918-1.216.316-1.216a2.234 2.234 0 0 0 2.231-2.236 2.233 2.233 0 0 0 -2.23-2.233c.062-.217.158-.447.158-.685a2.392 2.392 0 0 0 -4.784 0c0 .237.092.468.16.685a2.235 2.235 0 0 0 0 4.469c1.232 0 .957 1.16.313 1.216-1.235.035-5.599.403-5.875.424-.38.023-.644-.48.045-.685.802-.24 1.341-.978 1.167-1.796-.174-.82-.944-1.351-1.762-1.176a1.62 1.62 0 0 0 -.026-.47 1.625 1.625 0 0 0 -1.924-1.25 1.626 1.626 0 0 0 -1.25 1.927c.034.156.128.298.203.43a1.516 1.516 0 0 0 -1.167 1.797c.173.82.98 1.34 1.795 1.167.818-.172.854.478.468.515-1.694.18-5.04 1.31-5.394 1.255-.353-.058-.51-.293-.34-.641.113-.23.667-.576.667-.576.483-.358.795-.905.795-1.555a1.977 1.977 0 0 0 -1.979-1.978c-.689 0-1.306.352-1.67.888-.895-3.508-4.487-1.72-4.487-1.72l1.85 2.996c.42-.303 1.065-.254 1.464.145a1.16 1.16 0 0 1 -.248 1.83l1.563 2.53s.453 1.183 2.442.426c5.04-1.917 13.351-2.261 15.58-2.243 2.23-.02 10.54.326 15.58 2.243 1.988.757 2.44-.426 2.44-.426l1.563-2.53a1.195 1.195 0 0 1 -.247-.19 1.158 1.158 0 0 1 0-1.64c.398-.398 1.043-.447 1.463-.145l1.85-2.995c.001 0-3.59-1.79-4.483 1.719zm-27.795.882a.977.977 0 1 1 .003-1.954.977.977 0 0 1 -.003 1.954zm9.63-1.61a1.313 1.313 0 1 1 0-2.625 1.313 1.313 0 0 1 0 2.626zm8.654.632a.975.975 0 1 1 1.95 0 .976.976 0 1 1 -1.949 0z" fill="#ad8f1f"/><path d="m315.303 213.365-8.803-7.966-8.804 7.966 8.804 7.967z" fill="#d91a21" transform="translate(-92.979 -113.148)"/><circle cx="269.157" cy="104.695" fill="#ad8f1f" r="6.538"/><circle cx="157.885" cy="104.695" fill="#ad8f1f" r="6.54"/><path d="m414.71 222.713-4.921 15.153 6.782-6.629zm-211.5 15.153-4.923-15.153-1.858 8.524z" fill="#d91a21" transform="translate(-92.979 -113.148)"/><g fill="#ad8f1f"><path d="m213.547 110.31c-15.755.404-69.684 2.779-103.523 16.41l-.48.193.116.505c2.771 12.058 2.8 12.072 3.158 12.246l.236.114.247-.093c38.72-14.771 90.257-16.79 100.231-17.044 9.97.255 61.49 2.273 100.212 17.044l.243.092.238-.112c.358-.171.386-.186 3.16-12.247l.116-.505-.48-.193c-33.844-13.631-87.758-16.007-103.474-16.41zm110.919-15.333c-36.022-14.511-97.623-17.206-110.94-17.095-13.313-.111-74.927 2.584-110.935 17.088-.554.242-.555.244 2.23 11.986l.16.674.646-.247c37.814-14.424 91.924-17.293 107.898-17.16h.01c15.97-.133 70.065 2.736 107.878 17.16l.648.247.158-.674c2.786-11.743 2.786-11.743 2.247-11.98z"/><path d="m336.006 48.319c-2.457-3.605-6.62-5.985-11.27-5.985-7.364 0-13.338 5.97-13.338 13.338 0 4.374 2.105 8.066 5.356 10.497 0 0 3.745 2.322 4.51 3.882 1.14 2.327.08 3.917-2.305 4.302-2.382.384-24.946-7.23-36.373-8.457-2.608-.247-2.362-4.642 3.156-3.468 5.517 1.17 10.94-2.35 12.111-7.867 1.173-5.517-2.348-10.94-7.866-12.114.5-.906 1.134-1.852 1.361-2.916 1.257-5.91-2.516-11.715-8.422-12.972-5.909-1.253-11.715 2.518-12.973 8.424-.223 1.062-.256 2.124-.175 3.153-5.517-1.17-10.708 2.413-11.882 7.93-1.172 5.518 2.46 10.507 7.865 12.114 4.656 1.384 2.874 4.784.31 4.61-1.863-.122-31.292-2.605-39.614-2.854-4.344-.373-6.2-8.198 2.12-8.198 8.321 0 15.063-6.745 15.063-15.064 0-8.32-6.742-15.064-15.064-15.064.443-1.462 1.07-3.021 1.07-4.625 0-8.911-7.216-16.133-16.126-16.133-8.909 0-16.124 7.222-16.124 16.133 0 1.604.624 3.163 1.067 4.625-8.32 0-15.066 6.745-15.066 15.064s6.745 15.064 15.066 15.064c8.318 0 6.465 7.826 2.116 8.198-8.319.249-37.75 2.732-39.61 2.855-2.564.173-4.347-3.228.307-4.611 5.406-1.607 9.038-6.595 7.866-12.113-1.173-5.518-6.364-9.1-11.88-7.931.082-1.03.048-2.091-.176-3.153-1.257-5.906-7.064-9.677-12.972-8.424-5.907 1.257-9.679 7.064-8.423 12.972.227 1.064.861 2.01 1.36 2.916-5.517 1.174-9.038 6.596-7.865 12.114 1.172 5.517 6.594 9.038 12.112 7.867 5.517-1.174 5.763 3.22 3.155 3.468-11.426 1.228-33.99 8.84-36.374 8.457-2.382-.384-3.442-1.975-2.302-4.302.765-1.56 4.507-3.882 4.507-3.882 3.254-2.431 5.36-6.123 5.36-10.497 0-7.366-5.974-13.338-13.34-13.338-4.649 0-8.813 2.38-11.27 5.985-6.029-23.65-30.256-11.594-30.256-11.594l12.48 20.195c2.826-2.028 7.184-1.702 9.867.98a7.825 7.825 0 0 1 -1.67 12.338l10.537 17.064s3.058 7.98 16.471 2.876c33.98-12.936 90.034-15.25 105.063-15.127 15.027-.124 71.07 2.19 105.05 15.127 13.413 5.105 16.471-2.876 16.471-2.876l10.54-17.064a7.827 7.827 0 0 1 -1.672-12.337c2.682-2.683 7.04-3.01 9.867-.981l12.48-20.195s-24.226-12.054-30.256 11.594zm-187.422 5.944a6.583 6.583 0 0 1 0-13.164 6.582 6.582 0 1 1 0 13.164zm64.937-10.844a8.848 8.848 0 1 1 0-17.696c4.886 0 8.85 3.962 8.85 8.848s-3.964 8.848-8.85 8.848zm58.355 4.262a6.584 6.584 0 0 1 6.582-6.582 6.582 6.582 0 1 1 -6.582 6.582z"/><path d="m56.558 257.409c0-10.751 8.714-19.466 19.465-19.466l13.814.012v-7.928l-13.814-.017c-15.132 0-27.397 12.267-27.397 27.399 0 15.13 12.26 27.404 27.391 27.404h14.055l.05-7.948h-14.15c-10.75 0-19.414-8.706-19.414-19.456zm300.102-30.091c-9.596 0-20.398 8.557-21.302 22.964l-.135 32.962 7.406-.063v-11.475l27.738.06v11.2h7.733v-32.475c-.9-14.405-11.284-23.173-21.44-23.173zm13.638 36.607h-27.668l-.023-13.54c.023-10.657 7.582-15.161 13.9-15.033 7.844.159 13.792 6.603 13.792 14.929v13.644zm-156.777 198.669c-15.133 0-27.398 12.267-27.398 27.398 0 15.132 12.265 27.397 27.398 27.397 15.13 0 27.398-12.265 27.398-27.397 0-15.131-12.268-27.398-27.398-27.398zm0 46.862c-10.75 0-19.465-8.712-19.465-19.463 0-10.75 8.715-19.465 19.465-19.465s19.465 8.715 19.465 19.465-8.715 19.463-19.465 19.463z"/></g><g fill="#fff"><circle cx="213.521" cy="421.373" r="10.595"/><circle cx="291.531" cy="256.851" r="10.596"/><circle cx="135.513" cy="256.852" r="10.596"/><circle cx="148.888" cy="344.066" r="10.596"/><circle cx="291.531" cy="173.502" r="10.596"/><circle cx="135.513" cy="173.502" r="10.596"/><circle cx="213.521" cy="166.63" r="10.596"/><circle cx="278.155" cy="344.066" r="10.596"/></g></svg>