<svg viewBox="0 0 1282.03 1641.94" xmlns="http://www.w3.org/2000/svg"><g fill-rule="evenodd"><path d="m533.35 0 25.72 58.21 63.8 6.79-47.41 42.45 13.22 62.79-55-32-55.63 32 13.4-62.21-47.62-43.03 63.3-6.48z" fill="#c97b0f"/><path d="m748.68 0 25.72 58.21 63.8 6.79-47.41 42.45 13.21 62.83-55-32-55.63 32 13.4-62.21-47.61-43.07 63.3-6.48z" fill="#c97b0f"/><path d="m1277.93 410.71c-377.8 67.89-600.78-190.96-636.93-236.71-36.09 45.75-259.09 304.6-636.91 236.71 0 0-95.54 802.88 636.93 1231.23 732.49-428.35 636.91-1231.23 636.91-1231.23" fill="#c97b0f"/><path d="m32 444c-.8 14.78-1.53 34.4-1.53 58.65 0 81.23 8 210.94 47.36 357.83 86.47 322.83 276.1 573.83 563.23 746.74 287.14-172.91 476.77-423.93 563.22-746.74a1404.22 1404.22 0 0 0 47.35-357.83c0-24.25-.71-43.87-1.51-58.65-325.6 43.8-534.35-141.68-609.12-224-74.7 82.32-283.46 267.8-609 224" fill="#1c1b4e"/><path d="m62.18 486.91a1414.42 1414.42 0 0 0 47.76 355.64c83.21 310.7 262 555.21 531.08 727.77 269.11-172.56 447.87-417.07 531.1-727.77a1414.71 1414.71 0 0 0 47.73-355.64c-280.74 14-476.48-119.3-578.83-214.29-102.36 95-298 228.27-578.84 214.29" fill="#fff"/><path d="m641 629.46c-155.74 0-282 126.93-282 283.5s126.25 283.5 282 283.5 282-126.92 282-283.46-126.23-283.5-282-283.5zm0 554.34c-148.79 0-269.41-121.25-269.41-270.84s120.65-270.85 269.41-270.85 269.42 121.27 269.42 270.89-120.62 270.8-269.42 270.8" fill="#1c1b4e"/><path d="m640.15 1345.47 5.48 11.14 12.25 1.79-8.87 8.67 2.09 12.25-11-5.8-10.95 5.8 2.1-12.25-8.85-8.67 12.24-1.79zm207.58-81.28-13.73-10.5.88-17.29-14.18 9.82-16.09-6.16 4.92 16.58-10.82 13.49 17.23.42 9.4 14.52 5.73-16.33zm-102.65 51-13.69-10.51.86-17.29-14.17 9.83-16.1-6.18 4.93 16.58-10.82 13.52 17.22.42 9.4 14.51 5.72-16.35zm-74.19-79.45-3.81 19.34-18 7.8 17.12 9.64 1.83 19.63 14.38-13.41 19.14 4.35-8.23-17.91 10-17-19.44 2.33zm97.64-7.09-18 12.25-20.28-8 6 21.07-13.85 16.9 21.8.76 11.71 18.47 7.45-20.58 21.11-5.5-17.19-13.47zm58.33 4.13-6.35-19.24 12.18-16.18-20.19.12-11.5-16.64-6.11 19.35-19.29 5.88 16.39 11.84-.39 20.26 16.24-12zm83.29-2.84-17.15-10.65-1-20.29-15.41 13.13-19.47-5.35 7.68 18.79-11.06 17 20.1-1.52 12.65 15.83 4.78-19.73zm-23.69-75-21.77.64-12.89-17.69-6.14 21-20.7 6.84 18 12.34.04 21.93 17.26-13.38 20.74 6.69-7.32-20.62zm47.82-55-22.56 8.76-20-13.75 1.31 24.33-19.2 14.86 23.42 6.25 8.14 22.93 13.12-20.45 24.22-.69-15.25-18.86zm-278.22 199.9v14.15l-11.53 8 13.36 4.29 4.06 13.51 8.18-11.46 14 .31-8.26-11.4 4.58-13.29-13.32 4.43zm-223.46-35.65 13.71-10.5-.85-17.29 14.17 9.82 16.08-6.16-4.92 16.58 10.82 13.49-17.23.42-9.38 14.52-5.72-16.33zm102.66 51 13.74-10.5-.88-17.29 14.17 9.83 16.1-6.18-4.93 16.58 10.82 13.52-17.23.42-9.4 14.51-5.71-16.35zm74.19-79.45 3.8 19.34 18 7.8-17.12 9.64-1.82 19.63-14.31-13.4-19.15 4.35 8.23-17.91-10-17 19.46 2.33zm-97.64-7.09 18 12.25 20.3-8-6 21.07 13.86 16.9-21.79.76-11.7 18.47-7.48-20.59-21-5.51 17.18-13.47zm-58.34 4.13 6.34-19.24-12.17-16.18 20.2.12 11.54-16.65 6.1 19.35 19.3 5.88-16.38 11.84.38 20.26-16.23-12zm-83.28-1.66 17.16-10.65 1-20.27 15.4 13.12 19.48-5.34-7.67 18.78 11.06 17-20.13-1.49-12.64 15.79-4.78-19.69zm23.7-76.19 21.77.64 12.87-17.69 6.12 21 20.73 6.84-18 12.34-.08 21.91-17.3-13.33-20.75 6.69 7.33-20.62zm-47.83-55 22.56 8.76 20-13.75-1.3 24.33 19.19 14.86-23.4 6.25-8.11 22.98-13.17-20.45-24.2-.69 15.26-18.86zm278.23 199.9v14.15l11.52 8-13.36 4.29-4.06 13.51-8.19-11.46-14 .31 8.25-11.4-4.65-13.23 13.33 4.43z" fill="#c97b0f"/><path d="m702.75 522.52c-15.09 0-17.7-21.09-17.7-21.09s-1.32 24.39-21.67 24.39c-18.82 0-19.65-24.87-19.67-28.53 0 3.66-.84 28.53-19.68 28.53-20.34 0-21.65-24.39-21.65-24.39s-2.62 21.09-17.71 21.09-22.33-13.18-22.33-13.18l21.67 63.33h119.4l21.66-63.33s-7.21 13.18-22.32 13.18" fill="#c97b0f"/><path d="m655.08 478a11.33 11.33 0 1 1 -11.33-11.4 11.35 11.35 0 0 1 11.33 11.4" fill="#c97b0f"/><path d="m613.08 485.1a11.32 11.32 0 1 1 -11.32-11.38 11.33 11.33 0 0 1 11.32 11.38" fill="#c97b0f"/><path d="m571.26 494.5a11.32 11.32 0 1 1 -11.32-11.38 11.36 11.36 0 0 1 11.32 11.38" fill="#c97b0f"/><path d="m674.42 485.1a11.31 11.31 0 1 0 11.31-11.38 11.35 11.35 0 0 0 -11.31 11.38" fill="#c97b0f"/><path d="m716.25 494.5a11.32 11.32 0 1 0 11.3-11.38 11.34 11.34 0 0 0 -11.3 11.38" fill="#c97b0f"/><path d="m641 642.11c-148.79 0-269.41 121.27-269.41 270.85s120.65 270.84 269.41 270.84 269.42-121.25 269.42-270.8-120.62-270.89-269.42-270.89zm0 470.89c-109.87 0-198.94-89.53-198.94-200s89.1-200 198.94-200 198.92 89.54 198.92 200-89.03 200-198.92 200" fill="#c97b0f"/><path d="m641 655c-141.66 0-256.52 115.51-256.52 258s114.86 257.87 256.52 257.87 256.56-115.47 256.56-257.87-114.86-258-256.56-258z" fill="#c97b0f"/><path d="m641 713c-109.87 0-198.94 89.54-198.94 200s89.1 200 198.94 200 198.92-89.53 198.92-200-89.03-200-198.92-200zm0 385.44c-101.89 0-184.47-83-184.47-185.45s82.61-185.49 184.47-185.49 184.46 83 184.46 185.46-82.56 185.45-184.46 185.45" fill="#1c1b4e"/><path d="m1002.72 697.79c.06.17.12.33.17.52-.09-.12-.15-.24-.23-.34a1 1 0 0 1 .06-.18" fill="#9e3715"/><path d="m641 1098.41c-101.89 0-184.47-83-184.47-185.45s82.61-185.46 184.47-185.46 184.46 83 184.46 185.46-82.56 185.45-184.46 185.45" fill="#f6f5e0"/><path d="m819 913c0 98.79-79.67 178.9-177.93 178.9s-177.97-80.14-177.97-178.9 79.66-178.92 177.9-178.92 178 80.09 178 178.92" fill="#1c1b4e"/><g fill="#f6f5e0"><path d="m636.66 765.13a129.28 129.28 0 0 0 -35 5.13l-29.74 49.74 33.08 40.62s30.51-6.26 71.8 0l33-40.65-29.68-49.71a129.19 129.19 0 0 0 -35.05-5.13z"/><path d="m509.39 928.23s28.26 6.26 54.54 6.26c0 0 11 35.51 37.32 63.1 0 0-11.31 34.09-17.53 40.34 0 0-51.44 8-75.75-34.1s-7.07-50.31 1.42-75.6"/><path d="m486.2 962.29c2-11.64 16-38.94 16-38.94l-.19-1.12c-3.68-25 1.69-64.51.85-66.5s-15.86-12.49-15.86-12.49a20 20 0 0 0 -3.5 4.18 165.29 165.29 0 0 0 -6.84 111c4.63 5.44 9.51 3.92 9.51 3.92"/><path d="m509 846.36s22-24.16 50.6-28.41c0 0 22.9-35 30.52-48.6 0 0-9.74-11.23-14.26-14.46a163.92 163.92 0 0 0 -79.51 67.76 98.66 98.66 0 0 0 -4.59 8.93s7.35 10.24 17.24 14.78"/><path d="m676.51 871.9s29.4 46.9 31.94 58.26c0 0-8.19 31-36.46 60.82 0 0-10.94.9-23.74 1.4v.29c-2.41 0-4.89 0-7.35-.09s-4.92.09-7.34.09v-.29c-12.83-.5-23.76-1.4-23.76-1.4-28.25-29.84-36.46-60.82-36.46-60.82 2.55-11.36 31.94-58.26 31.94-58.26s22-3.35 39.5-3.35a154.75 154.75 0 0 1 31.73 3.35"/><path d="m772.4 928.23s-28.25 6.26-54.53 6.26c0 0-11 35.51-37.32 63.1 0 0 11.31 34.09 17.53 40.34 0 0 51.43 8 75.77-34.1s7-50.31-1.45-75.6"/><path d="m795.6 962.29c-2-11.64-16-39-16-39l.21-1c3.68-25-1.7-64.51-.84-66.5s15.82-12.49 15.82-12.49a19.8 19.8 0 0 1 3.53 4.18 165.36 165.36 0 0 1 6.83 111c-4.63 5.44-9.51 3.92-9.51 3.92"/><path d="m771.23 844.07s-21-22.94-48.08-27c0 0-21.76-33.21-29-46.16 0 0 9.26-10.67 13.56-13.74a155.73 155.73 0 0 1 75.52 64.36 92.93 92.93 0 0 1 4.38 8.49s-7 9.73-16.38 14"/><path d="m587.53 1048.38c-21.47-.28-52.29-9.09-52.29-9.09l.28 7.52a161.15 161.15 0 0 0 100 36.76v-11.1c-21.48-1.69-48-24.09-48-24.09"/><path d="m746.58 1039.29s-30.81 8.81-52.31 9.09c0 0-26.4 22.31-47.87 24.08v11.11a161.22 161.22 0 0 0 99.87-36.76z"/></g><path d="m1008.22 938.57a144.92 144.92 0 0 0 -2.11-20.73c-7.22-42.17-41.75-65-41.75-65-2.42-6.63 2.1-18.47 3.1-27.95 1.26-6.77-1.24-11.48-4.68-15.41a80.27 80.27 0 0 0 -6.49-6.44c-5.69-5.5-7.17-11.59-4.54-15.2s14.07 7.73 28.48 12.16c12.42 3.82 18.41-3.62 18.41-3.62-12.36 5.31-38.45-17.37-20.27-23.23 19.09-6.15 18.28 15.18 18.28 15.18 6.81-16.91-5.67-18.82-10.83-22.45s-.16-16.3 12.26-10.76 17.51 4.14 17.51 4.14c9.5-.44 7.39-.65 14.6-1.33 6-.58 5.33 6.38 5.33 6.38 12.27-19.53-16.55-14-16.55-14-11 .19-7.9-9.54-7.9-9.54.61-4.55 1.9-6 1.9-6 2.69-4.7 8.23 1.79 24.44-3.82 9.3-3.22 10-8.5 10-8.5-27.7 12.93-26.64-9.66-26.43-11.92s2.75-5.36 8.73-7.53 12.46-10 12.46-10c3-3.66 5.49 2.55 2.45 7.61s-3.81 18.78 8.68 17.77c11.69-.94 13.23-21.61 13.42-26.37-.42 5-4.75 22.38-12.18 20-8-2.63-.67-12.6-.67-12.6 5.51-9.35 5.55-16.82 1.27-22.11s-13.43-4.82-18.49 1-7.91 7.54-11.26 4.8 1.94-6.48 4.35-6.7 4.34-7.7 4.86-10.86 1.6-5.63 4.43-7.57 9-14.09 14.27-6.73a32.61 32.61 0 0 1 6.06 14c3.67-33.46-25.8-24.41-25.8-24.41 7.71-14.71-4-22.07-4-22.07 2.35-21.82-16.32-28.6-16.32-28.6 3.84 2.14 19.15 15.8 12.18 22.62s-18.58-.5-18.58-.5c1.19-13.67-5.9-19.38-5.9-19.38-10.16-2.32-27.78 14.43-27.78 14.43s-6.16-3.2-23.83.62-38.53 8.64-44.16 9.36-14.47-2.28-17.53-1.7-8.95 2.92-9.91 9.33-3.18 18.44 4.75 25.46 12.73 4 16.88 3.27c0 0 7.29-3.11 10-1.87s23.92 10.9 27.68 15.9.81 7.18-5.84 11-21.37 11.3-32.72 14.78-24.1 5.44-28.31 9.95a19.85 19.85 0 0 0 -4.49 5 15.74 15.74 0 0 1 -6.44 5.9c-6.61-8.75-12.23-17.27-15.64-21.7-4.33-5.6-7.9-8-15.24-5.69a14.73 14.73 0 0 0 -7.66.95c-4 1.41-7.11 8.05-12.53 8.22-1.23.34-9 7.81-12 17.61s-7.4 18.73-10.8 26.64-3.36 23.26-3.36 23.26c-3.19 8.35 7.47 26.86 7.47 26.86s2.83-1.8 5.2-3.72c.95 1.85 1.61 3 1.61 3s5.89-3.7 7.8-6.19 3.16-5.11 7.75-7.34 7.14-7 7-8.32-6.94-7.31-6.94-7.31c-9.3-11.78-6.5-21.79-5.18-27.58s7.22-20.88 7.22-20.88a17.69 17.69 0 0 1 5-5.69c.08.07.19.09.27.21 5.69 6.07 7.5 15.9 9.9 28.14.46 8.45 3.24 21.9 8.74 30.69 6 9.57 2.85 23.32 2.85 23.32-12.37 61.33 36.9 96.22 51.21 116s-.33 28.53-13.11 50.92c-12 21 6.45 56 13 73.35 1.76 6.6 3.58 13.43 4.82 17.39 3.76 12 5.15 13.25 2 19.43s-39.36 23.53-49.52 28.31a36.14 36.14 0 0 0 -14.93 12.84c-13.39 13.24-14.81 39.37-14.81 39.37 11.81-8.74 26.26-11.31 26.26-11.31 5.77-5.55 3.49-19.69 3.49-19.69 6.59-1.8 19.57-15.44 33.5-23.94s36.28-9 42.1-9.7 6.81-3.75 4.94-14.08c-1.14-6.13-.57-22 .09-31.55 6.27 8.69 9.19 20.68 16.46 31.86 11.9 18.33 12.28 30.58 11.9 39.28s-11 42.79-13.05 49.23-12.54 12.29-12.54 12.29c-12.35 4.49-16 18-16 18 3.38 4 24.6.7 24.6.7 3.61.67 8.82-3.22 8.82-3.22 1-9.09 6.8-17.73 15.55-25.37s1.8-21.59 3.56-43.2 8.48-27.18 11.52-31 4.44-9.91-.77-15.27-11.22-13.15-16.27-32.32 9.64-19.53 10.86-27.46 24.37-9 28.37-36.42c0 0 2.37-4.28 4-13 4.26-.11 6.24 2.11 5.75 13.28-.53 12.45 2.2 15.36 5.56 16.95s7.41 2 13.76 5.83.49 14.16-3.67 17.62-11.16 2.62-16.45 7.85 3 14.5 6.63 18.88 2.73 6.07.88 9.48-7.25 6.06-6.84 14.26c.73 15.23 14.53 17.78 25.39 18.9 8.58.89 9.09 6.5 8.94 8.82 1.91-13.86-7-16.64-10.71-17.56s-12.64-.41-13.47-7.64c-1.16-9.79 7.22-12.92 10.65-14.08s6.2-3.09 3.48-8.13-1.3-7.65.52-9.12 2.15-.28 2.15-.28 1.13-1.43 1.21-5.42a6.1 6.1 0 0 1 6.17-6.21c3 0 5.54 2.08 6.69-.94 0 0-1.55-10.47 5.49-11.47 9.58-1.35 2.7 9.15 2.7 9.15s7.23-2.88 3.43-9.26c-5.26-8.82-4.83-15.41-1.2-18.05s9.47-4.59 11.8-14.82-8.78-12-12.19-17.65 6.28-9.27 6.28-9.27c-6.57-9.66-20.29-5.28-26.34-2.71s-16.15.71-12.34-5 12.19-3.86 12.19-3.86c-8.51-8.41-19.72-3.74-25.95-1.28-4.27 1.68-6.26 4.16-9 5.22z" fill="#1c1b4e"/><path d="m275.38 960.2c1.67 8.76 4 13 4 13 4 27.38 27.14 28.47 28.37 36.42s15.87 8.29 10.85 27.46-11 26.94-16.26 32.32-3.8 11.44-.76 15.27 9.72 9.37 11.51 31-5.22 35.58 3.56 43.2 14.52 16.29 15.54 25.37c0 0 5.23 3.89 8.84 3.22 0 0 21.21 3.33 24.59-.7 0 0-3.66-13.49-16-18 0 0-10.49-5.83-12.53-12.29s-12.63-40.51-13-49.23 0-21 11.89-39.28c7.27-11.19 10.19-23.17 16.44-31.86.68 9.53 1.24 25.42.12 31.55-1.89 10.33-.94 13.35 4.91 14.08s28.18 1.19 42.1 9.7 26.94 22.14 33.51 23.94c0 0-2.28 14.14 3.49 19.69 0 0 14.45 2.58 26.26 11.31 0 0-1.43-26.13-14.8-39.38a36.24 36.24 0 0 0 -14.93-12.83c-10.17-4.78-46.36-22.15-49.52-28.31s-1.8-7.44 2-19.43c1.23-4 3.07-10.79 4.81-17.39 6.59-17.35 25-52.36 13-73.35-12.79-22.4-27.41-31.16-13.11-50.92s63.59-54.66 51.2-116c0 0-3.14-13.75 2.85-23.32 5.52-8.79 8.29-22.24 8.76-30.69 2.4-12.25 4.2-22.07 9.9-28.14.06-.12.18-.14.26-.21a17.57 17.57 0 0 1 5 5.69s5.89 15.08 7.22 20.88 4.12 15.8-5.18 27.58c0 0-6.77 6-6.94 7.31s2.42 6.11 7 8.32 5.85 4.86 7.75 7.34 7.8 6.19 7.8 6.19.67-1.14 1.61-3c2.38 1.92 5.2 3.72 5.2 3.72s10.66-18.51 7.47-26.86c0 0 0-15.35-3.36-23.26s-7.81-16.84-10.8-26.64-10.79-17.27-12-17.61c-5.43-.17-8.54-6.81-12.53-8.22a14.7 14.7 0 0 0 -7.65-.95c-7.35-2.32-10.93.09-15.24 5.69-3.4 4.43-9 13-15.65 21.7a15.65 15.65 0 0 1 -6.43-5.9 19.89 19.89 0 0 0 -4.5-5c-4.22-4.51-16.95-6.47-28.32-9.95s-26.11-11.09-32.77-14.85-9.58-6-5.82-11 24.93-14.66 27.66-15.9 10 1.87 10 1.87c4.15.74 9 3.74 16.88-3.27s5.73-19 4.75-25.46-6.81-8.75-9.9-9.33-11.9 2.42-17.54 1.7-26.47-5.55-44.17-9.36-23.81-.62-23.81-.62-17.63-16.75-27.79-14.43c0 0-7.1 5.71-5.9 19.38 0 0-11.6 7.33-18.58.5s8.33-20.48 12.19-22.62c0 0-18.67 6.78-16.32 28.6 0 0-11.68 7.36-4 22.07 0 0-29.47-9-25.79 24.41a32.66 32.66 0 0 1 6-14c5.23-7.31 11.41 4.88 14.23 6.78s3.94 4.41 4.43 7.57 2.47 10.65 4.87 10.86 7.66 4 4.33 6.7-6.19.94-11.25-4.8-14.21-6.23-18.49-1-4.23 12.76 1.25 22.11c0 0 7.41 10-.64 12.6-7.45 2.42-11.77-14.93-12.19-20 .2 4.76 1.72 25.43 13.42 26.37 12.49 1 11.73-12.72 8.68-17.77s-.57-11.27 2.46-7.61c0 0 6.5 7.76 12.46 10s8.51 5.27 8.73 7.53 1.27 24.85-26.43 11.92c0 0 .68 5.28 10 8.5 16.2 5.61 21.72-.88 24.43 3.82 0 0 1.29 1.41 1.89 6 0 0 3.08 9.73-7.89 9.54 0 0-28.83-5.49-16.56 14 0 0-.66-7 5.33-6.38 7.23.68 5.09.89 14.61 1.33 0 0 5.06 1.41 17.5-4.14s17.47 7.12 12.27 10.76-17.65 5.54-10.85 22.45c0 0-.8-21.33 18.28-15.18 18.18 5.86-7.88 28.54-20.28 23.23 0 0 6 7.44 18.43 3.62 14.41-4.43 25.85-15.76 28.47-12.16s1.16 9.7-4.53 15.2a78.67 78.67 0 0 0 -6.49 6.44c-3.45 3.93-5.92 8.64-4.69 15.41 1 9.48 5.54 21.32 3.1 27.95 0 0-34.51 22.87-41.74 65a146.38 146.38 0 0 0 -2.11 20.73l.05 5.07c-2.75-1.06-4.74-3.54-9-5.21-6.23-2.46-17.45-7.13-26 1.28 0 0 8.43-1.9 12.22 3.86s-6.3 7.59-12.36 5-19.75-7-26.35 2.71c0 0 9.68 3.67 6.28 9.27s-14.51 7.4-12.19 17.65 8.17 12.21 11.81 14.82 4.06 9.23-1.18 18.05c-3.82 6.38 3.4 9.26 3.4 9.26s-6.86-10.5 2.72-9.15c7 1 5.48 11.47 5.48 11.47 1.17 3 3.72 1 6.71.94a6.11 6.11 0 0 1 6.16 6.21c.07 4 1.2 5.42 1.2 5.42s.37-1.2 2.16.28 3.23 4.09.5 9.12.05 7 3.49 8.13 11.82 4.29 10.66 14.08c-.85 7.23-9.72 6.66-13.48 7.64s-12.63 3.7-10.69 17.56c-.17-2.32.35-7.93 8.92-8.82 10.87-1.12 24.67-3.67 25.41-18.9.4-8.2-5-10.85-6.87-14.26s-2.77-5.12.89-9.48 11.92-13.63 6.63-18.88-12.28-4.39-16.44-7.85-10-13.73-3.7-17.62 10.42-4.24 13.78-5.83 6.09-4.5 5.55-16.95c-.48-11.18 1.51-13.39 5.76-13.28" fill="#1c1b4e"/></g><g fill="#fff"><path d="m476.8 1102.16-5.74 5.45-9.33-9.84-2-2.16-.75-.78-.6-.63-.49-.53-.4-.42-.33-.35-.28-.28-.21-.23c-.25-.26-.45-.51-.64-.75a2.32 2.32 0 0 1 -.39-.72 7.5 7.5 0 0 1 -1-1.32c-.3-.49-.7-1.21-1.18-2.16q-3-5.58 0-12.34a27.06 27.06 0 0 1 3-5.09 37.67 37.67 0 0 1 4.51-5q9.17-8.7 16.63-8.7 6.38 0 12.1 6a19.14 19.14 0 0 1 4.91 8.48 13 13 0 0 1 .42 2.75 11.36 11.36 0 0 1 -.16 2.73 18.08 18.08 0 0 1 -2.21 5.71 37.78 37.78 0 0 1 -6.74 8.58 26 26 0 0 1 -13.38 7.12zm7.55-34.67a7.88 7.88 0 0 0 -7.43-2.71q-4.14.73-9.46 5.78a29 29 0 0 0 -6.36 8.11q-2.36 5 1.7 9.3 3.78 4 8.68 2.31 3.78-1.3 8.75-6a22.56 22.56 0 0 0 6-8.42 7.62 7.62 0 0 0 -1.88-8.37zm-3.35 47.43 38-27.45 7.22 5.16-13.67 44.85-7.35-5.25 3.16-10.42-11.19-8-8.84 6.36zm35.47-16.19-13.26 9.66 8.39 6zm23.41 32.68-7 15.38-7-3.19 18.38-40.45 16.06 7.3q6.88 3.12 8.68 6.55a10.38 10.38 0 0 1 1.13 5.13 14.39 14.39 0 0 1 -1.36 5.75c-1.75 3.84-3.88 6.45-6.41 7.8a11 11 0 0 1 -5.23 1.13 15.36 15.36 0 0 1 1.31 1.58 6.87 6.87 0 0 1 .81 1.49 10 10 0 0 1 .51 3.61 17.93 17.93 0 0 1 -.42 3.17c-.14.59-.32 1.27-.54 2a17 17 0 0 1 -.82 2.18 25.08 25.08 0 0 0 -1.42 3.83 16.67 16.67 0 0 0 -.57 2.64l-7.85-3.57a43.38 43.38 0 0 1 1.76-5.7 21.94 21.94 0 0 0 1.53-6.29 6.91 6.91 0 0 0 -.94-4 11 11 0 0 0 -5-3.76zm3.27-7.21 9.82 4.46a6 6 0 0 0 3.89.7c1.45-.42 2.68-1.75 3.69-4 1.11-2.46 1.05-4.39-.2-5.82a8.27 8.27 0 0 0 -2.54-1.58l-9.81-4.46zm25.17 36.55 24.63-39.9 8.64 2 4.53 46.67-8.8-2-1.07-10.83-13.39-3.11-5.74 9.25zm26.58-28.52-8.55 14 10 2.33zm26.19 37.88 1.13-44.42 20.41.52c3.21.08 5.52.58 7 1.51a9.76 9.76 0 0 1 3.71 5.26 14.8 14.8 0 0 1 .79 5.17 14.19 14.19 0 0 1 -1.64 6.35 8.7 8.7 0 0 1 -3.87 4.06q5.17 3.07 5 10.6a14.72 14.72 0 0 1 -1.85 7.26 7.76 7.76 0 0 1 -3.82 3.41 18.56 18.56 0 0 1 -6.8.79zm8.36-26 10.48.26a9.36 9.36 0 0 0 2.36-.14 3.4 3.4 0 0 0 1.5-.82 5.78 5.78 0 0 0 1.8-4.34 4.88 4.88 0 0 0 -1.48-4 6.08 6.08 0 0 0 -3.76-1l-10.63-.27zm-.46 18.28 10.47.27a10.15 10.15 0 0 0 2.39-.14 2.91 2.91 0 0 0 1.47-.84 5.72 5.72 0 0 0 1.8-4.37 4.91 4.91 0 0 0 -1.48-4 6.27 6.27 0 0 0 -3.76-1l-10.63-.27zm36.34 8.25 6.89-46.38 8.73-1.56 22.57 41.09-8.89 1.59-5.25-9.53-13.54 2.43-1.62 10.77zm13.17-36.64-2.34 16.23 10.15-1.82zm40.21-2.71 16.54-6.55 9.73 24.54-15 6a22.93 22.93 0 0 1 -6.55 1.76 11.65 11.65 0 0 1 -5.07-.86q-7.27-2.89-12.14-15.19c-2.12-5.35-3-10.12-2.78-14.34a13.1 13.1 0 0 1 2.84-7.68 18.26 18.26 0 0 1 7.67-5.13l14.67-5.82 2.92 7.36-13.88 5.5q-4.47 1.77-5.57 5c-.83 2.53-.29 6.23 1.66 11.14a36.42 36.42 0 0 0 3.31 6.56 13.12 13.12 0 0 0 3.52 3.86 6 6 0 0 0 3.44.94 13 13 0 0 0 4.43-1l6.47-2.57-3.9-9.83-9.38 3.72zm63.29-34.22 4.28 6.65-18.08 11.66 9.94 15.43-6.44 4.19-12.58-19.51a71.72 71.72 0 0 1 -4.12-7.13 17.12 17.12 0 0 1 -1.69-4.77 12 12 0 0 1 1.11-8.07q1.92-3.48 7.27-6.93l10.5-6.77 4.29 6.66-9.67 6.23a27.07 27.07 0 0 0 -3.49 2.58 7.09 7.09 0 0 0 -1.73 2.06 5 5 0 0 0 -.6 3.33 10.21 10.21 0 0 0 1.66 4.07l1.29 2zm1.4-25.57 30.75 32.08-5.56 5.33-30.75-32.08zm15.34 15.69-5.17-25.44 7.31-7 4.28 26.28 25.95 6.29-7.33 7z"/><path d="m592.34 702.24-6.23 1.44-6.24-26.9-5.19 8.8-2.55-8.27 5.64-9.57 6.23-1.44zm32.72-20.24-10.06.8a23.84 23.84 0 0 1 -5.1 0 5.49 5.49 0 0 1 -2.9-1.37c-2.1-1.8-3.28-4.48-3.55-8q-.48-6.21 3.7-9.88 2.61-2.25 8.29-2.68a20.2 20.2 0 0 1 6.58.36 9.86 9.86 0 0 1 4.51 2.6 17.19 17.19 0 0 1 3.84 6.64 32.91 32.91 0 0 1 1.6 7.89 28.6 28.6 0 0 1 -1.23 11.28q-1.68 5.14-5.83 6.89a23.4 23.4 0 0 1 -6.85 1.31l-11 .84-.49-6.5 9.14-.7q6.11-.47 7.68-2a6.3 6.3 0 0 0 1.45-3 14.47 14.47 0 0 0 .28-4.4zm-.5-6.5a13 13 0 0 0 -1.78-6.25 4.65 4.65 0 0 0 -2.48-2 11.46 11.46 0 0 0 -4.36-.31c-2.17.17-3.61.58-4.33 1.25a5.37 5.37 0 0 0 .51 7.4 5.18 5.18 0 0 0 3.44.58zm27 2.83a9.89 9.89 0 0 1 -3.8-9.23q.49-6.5 5.52-8.38 2.12-.78 8.7-.28c1.42.11 2.7.23 3.83.35s2.14.25 3.05.34a6.42 6.42 0 0 1 1.67.34 8.52 8.52 0 0 1 1.48.69 8 8 0 0 1 3.47 4.51 12.86 12.86 0 0 1 .59 5q-.45 5.89-5.26 8.09a9 9 0 0 1 3.78 8.81 11.39 11.39 0 0 1 -3.07 7 6.44 6.44 0 0 1 -3.79 2 18.1 18.1 0 0 1 -3 .2c-1.23 0-2.64 0-4.22-.15-.94-.07-1.7-.14-2.28-.2l-3.6-.39a8.93 8.93 0 0 1 -3.55-1 8.07 8.07 0 0 1 -2.58-2.18 11.17 11.17 0 0 1 -.13-13 11 11 0 0 1 3.16-2.66zm10.61-11.67a16.64 16.64 0 0 0 -5.08.1c-1.44.48-2.24 1.8-2.4 3.94-.18 2.35.46 3.83 1.91 4.46a9.3 9.3 0 0 0 1.57.34c.81.13 1.92.25 3.32.36l2.37.15c.76 0 1.36.05 1.76 0a4.47 4.47 0 0 0 1.2-.23c1.3-.49 2-1.78 2.18-3.85.18-2.34-.55-3.87-2.17-4.56a18.28 18.28 0 0 0 -4.66-.74zm-1.23 15.25c-2.63-.2-4.33-.14-5.09.16-1.39.52-2.18 1.87-2.34 4.07q-.29 3.63 1.85 4.6a9.3 9.3 0 0 0 1.57.34c.81.13 1.91.25 3.29.36l2.32.15a15.46 15.46 0 0 0 1.77 0 3.14 3.14 0 0 0 1.17-.26c1.28-.49 2-1.84 2.17-4 .18-2.39-.53-4-2.12-4.69a18 18 0 0 0 -4.59-.73zm60-9.44-1.8 6.29-25.91 24.24-7.51-2.14 26.48-24-18.29-5.23 1.79-6.26z"/><path d="m705.44 1106.54 3.83-1.3a4.18 4.18 0 0 0 7.72-2.62l3.84-1.3a10.56 10.56 0 0 1 .25 4.84 7.43 7.43 0 0 1 -5.33 5.66 7.7 7.7 0 0 1 -6.09-.24 8.33 8.33 0 0 1 -2.51-2 8.75 8.75 0 0 1 -1.71-3.07"/></g></svg>