<svg viewBox="0 0 700 700" xmlns="http://www.w3.org/2000/svg"><circle cx="350" cy="350" fill="#fff" r="341.86"/><path d="m350 700a350 350 0 0 1 -247.49-597.49 350 350 0 0 1 495 495 347.74 347.74 0 0 1 -247.51 102.49zm0-683.72a333.73 333.73 0 0 0 -236 569.72 333.73 333.73 0 1 0 472-472 331.54 331.54 0 0 0 -236-97.72z"/><circle cx="350" cy="350" fill="#0042fa" r="234.21"/><path d="m350 592.35c-133.63 0-242.35-108.72-242.35-242.35s108.72-242.35 242.35-242.35 242.35 108.72 242.35 242.35-108.72 242.35-242.35 242.35zm0-468.42c-124.66 0-226.07 101.41-226.07 226.07s101.41 226.07 226.07 226.07 226.07-101.41 226.07-226.07-101.41-226.07-226.07-226.07z"/><path d="m350 144.75a78.31 78.31 0 0 0 5 7.6c10.55 12.88 43.11 36.29 142.84 48.37v179.42s5.74 104.78-146.4 163.63l-1.23.54-1.61-.54c-152.18-58.85-146.44-163.63-146.44-163.63v-179.42c101.35-12.28 133.34-36.25 143.35-49a81 81 0 0 0 4.49-6.97z" fill="#0042fa"/><path d="m248.57 352.87s-14.83-11.48-19.14-25.87c0 0 54.07 5.27 85.64 5.27h23v12.92z"/><path d="m332.78 334.21c1-.48 32.53 0 32.53 0v6.22l-33 .48z"/><path d="m448.56 354.79h3.35l10.05-13.4 8.13-1.44 12.44-14.83-13.4 11.01-5.74 1.43-.47-3.83 29.18-17.7-.48-1.91-33.49 17.22-4.78-2.87-89.95 3.35-1.92 8.13h93.78z"/><g fill="#fff"><path d="m290.52 518.13c-2.47 0 1.32.25-2.72-.67l-1.23-4.35c.21 0 21.26 1.67 28.49-7.67l2.16-2.81 1.85 3c.15.24 3.95 6.11 13.45 7 9.18.81 16.5-7.68 16.58-7.77l2-2.35 1.83 2.49c.06.07 6 8 13.7 7.62 10-.53 14.17-6.76 14.34-7l1.7-2.59 2.13 2.24c.07.07 7.76 7.84 24.06 7.84v4.89c-13.64 0-22-4.87-25.55-7.6a24.06 24.06 0 0 1 -16.42 7.11c-7.37.41-13.21-4.5-16-7.45-3.25 3-10.21 8.24-18.76 7.45a23.79 23.79 0 0 1 -15.2-6.87c-7.26 6.54-19.78 7.49-26.41 7.49z"/><path d="m440.51 485.93c-20.51 0-32.33-7.78-37.15-11.9-3.86 3.91-12.69 10.75-27.79 11.55-12.88.67-23.47-8-28-12.37-4.76 4.55-16.32 13.72-31.23 12.36-13.93-1.27-22.09-7.49-25.86-11.3-6.69 6.79-16.58 10.36-28.86 10.36a72.34 72.34 0 0 1 -18.74-2.52l1.74-5.85c.31.08 30.24 8.72 43.46-8.51l2.61-3.39 2.36 3.57c.27.39 7 10 23.85 11.56 16.2 1.51 28.26-12.49 28.38-12.66l2.33-2.76 2.33 2.76c.11.13 11.53 13.39 25.31 12.65 17.69-.93 25.1-11.18 25.41-11.61l2.28-3.23 2.56 3c.5.59 12.87 14.53 42.31 11.85l.55 6.08c-2.74.25-5.36.36-7.85.36z"/><path d="m244 447.08a34 34 0 0 1 -3.91-.22c-19.77-2.16-31.35-20-31.83-20.79l6-3.82-3 1.91 3-1.92c.1.16 10.31 15.79 26.65 17.55 11.12 1.21 22.75-4.2 34.58-16l3.08-3.09 2.4 3.64c.34.5 8.75 12.57 29.84 14.48 20.17 1.83 34.37-15.58 34.51-15.76l2.62-3.28 2.81 3.13c.15.17 15.33 16.8 32.62 15.9 22.32-1.17 31.68-14.39 31.77-14.53l2.93-4.25 2.93 4.25c5.21 7.57 18.27 15.63 32.22 15.67h.11c12.82 0 24.22-6.65 33-19.23l5.84 4.07c-12.84 18.37-28.17 22.21-38.85 22.21h-.13a50.36 50.36 0 0 1 -35.19-15.2c-4.86 4.86-15.75 13.12-34.21 14.09-16.08.88-29.86-10.14-35.54-15.48-5.58 5.63-19.43 17.18-38.05 15.47-17.8-1.61-28-9.76-32.43-14.4-11.27 10.36-22.59 15.6-33.77 15.6z"/><path d="m246.76 409.34c-25 0-44.57-23.66-45.4-24.67l6.31-5.15c.3.37 18.11 21.68 39.1 21.68h.33c10.8-.12 20.84-6 29.85-17.45l3.72-4.75 3 5.23c.33.56 8.52 14 30.34 16 20.69 1.89 32.54-17 32.66-17.18l3.09-5 3.6 4.68c.14.18 14.49 18.47 32.31 17.52 23.33-1.25 34.53-16.25 34.64-16.39l3.39-4.64 3.3 4.78c5.42 7.87 19 16.26 33.56 16.3h.1c13.35 0 25.23-6.92 34.37-20l6.68 4.65c-13.54 19.43-29.77 23.53-41.05 23.53h-.12a53.22 53.22 0 0 1 -37-15.89c-5.53 5.45-17.79 14.82-37.35 15.85-16.41.85-29.67-10.44-35.7-16.7-5.55 6.65-18.19 18.4-37.13 16.69-18-1.64-28.42-10.18-33.27-15.58-9.8 10.89-20.84 16.46-32.86 16.57zm-42.24-27.25 3.14-2.58-2.66-3.19z"/><path d="m384 229.43c4.07 0 12.61.55 20.75.72 8.79.18 25.66-.24 25.66-.24s6.7 14.83 5.26 22c0 0-18.31-3.29-28.41-3.29a81.61 81.61 0 0 0 -27.57 4.72s-1.46-14.82 4.31-23.91z"/></g><path d="m379 254.38-.09-1c-.06-.61-1.39-15.18 4.41-24.37l.22-.34h.46c2 0 5.12.14 8.72.29s7.92.35 12.05.43c8.69.18 25.48-.24 25.62-.24h.48l.19.43c.28.62 6.78 15.13 5.32 22.45l-.14.69-.69-.13c-.19 0-18.37-3.27-28.29-3.27a81.38 81.38 0 0 0 -27.3 4.67zm5.33-24.23c-4.51 7.5-4.25 18.89-4.06 22.2a84.86 84.86 0 0 1 26.92-4.44c8.91 0 24.32 2.57 27.82 3.18.76-6.4-4.1-18.06-5.13-20.45-2.83.06-17.33.38-25.21.23-4.14-.09-8.36-.27-12.09-.43-3.3-.15-6.22-.27-8.21-.29z"/><path d="m439.35 260.83s42.88 42.7 45.93 49.34c0 0-4.48-2.69-4.48 2.69 0 0-7.54-3.05-11.31-1.26-1.26.61.36 4.85.36 4.85s-7.71-1.44-9.51-.36.9 7.36.9 7.36-9.69-6.1-15.25-5.39l-2.51-3.06s-4.67-42.7-6.46-49.34l-1.26-3.94z" fill="#fff"/><path d="m462.81 325.28-1.95-1.23c-.09-.05-9.52-6-14.78-5.27l-.39.05-2.9-3.53v-.21c0-.42-4.67-42.72-6.43-49.23l-1.48-4.64 4.72-1.19.29.29c1.75 1.75 43 42.87 46.07 49.55l1 2.09-2-1.17a4.25 4.25 0 0 0 -1.87-.58c-.42 0-1.53 0-1.53 2.65v1.06l-1-.39a26 26 0 0 0 -8-1.77 6.38 6.38 0 0 0 -2.71.49c-.27.32.07 2.24.72 3.94l.46 1.2-1.26-.24a48.71 48.71 0 0 0 -6.87-.74 4.6 4.6 0 0 0 -2.14.3c-.72.43 0 3.76 1.19 6.45zm-15.86-8c4.26 0 10 2.89 12.89 4.5-.76-2.24-1.45-5.36.13-6.32a5.87 5.87 0 0 1 2.88-.5 41.88 41.88 0 0 1 5.93.57c-.51-1.66-.92-4 .4-4.58a7.81 7.81 0 0 1 3.33-.64 25.4 25.4 0 0 1 7.63 1.53c.32-2.64 1.91-3.07 2.9-3.07a5.46 5.46 0 0 1 .57 0c-6.84-9.54-41-43.7-44.48-47.2l-2.45.62 1 3.22c1.75 6.47 6.07 45.63 6.47 49.26l2.13 2.59c.23.03.45.03.72.03z"/><path d="m486.21 309.81h1.02v6.1h-1.02z" transform="matrix(.88237337 -.47054994 .47054994 .88237337 -89.97 265.85)"/><path d="m481.63 312.52h1.02v5.7h-1.02z" transform="matrix(.88146835 -.4722431 .4722431 .88146835 -91.78 265.06)"/><path d="m471.68 315.21h1.02v8.04h-1.02z" transform="matrix(.78086672 -.62469766 .62469766 .78086672 -95.95 364.92)"/><path d="m461.69 321.4h1.44v7.15h-1.44z" transform="matrix(.7784623 -.62769136 .62769136 .7784623 -101.54 362.29)"/><path d="m479.7 312.49c-.27-.31-27.89-30.3-41.79-35.76l.37-.94c14.12 5.54 41 34.77 42.17 36z"/><path d="m469.26 315.35-1-.32.49.16-.5.09c-.54-1.74-15.48-24.76-28-29.57l.36-.95c7 2.67 14.37 10.62 19.37 16.81 4.19 5.21 9.55 12.98 9.28 13.78z"/><path d="m459.76 322.13-1-.24.5.12h-.51c-.17-1.26-11.69-28.28-18.07-32.42l.55-.85c6.5 4.26 18.82 32.26 18.53 33.39z"/><path d="m384.45 259.57s53.47-.53 54.06-.48c-.47 0 4.31 10.05 2.4 18.19 0 0-22-2.87-35.41-2.4s-23.44 1.92-23.44 1.92-3.35-14.36 2.39-17.23z" fill="#fff"/><path d="m441.45 278.07-.64-.08c-.2 0-22.07-2.86-35.28-2.39s-23.27 1.89-23.37 1.91l-.65.09-.15-.64c-.14-.61-3.41-14.94 2.77-18l.15-.07h.16c.48 0 48.07-.49 53.56-.49h.59v.73h.65a13.12 13.12 0 0 0 .41 1.36c1.05 3.18 3.49 10.61 2 16.95zm-32.72-4c11.9 0 28.16 1.94 31.61 2.37 1.1-5.82-1.12-12.59-2.09-15.54-.16-.48-.28-.85-.36-1.13-5.8 0-50.1.45-53.26.48-3.91 2.18-2.89 11.51-2 15.71 2.45-.32 11.51-1.43 22.86-1.83 1.02 0 2.11-.02 3.24-.02z"/><path d="m406.46 282.54s28.7-1.44 35.88-.48c0 0 3.35 11.48 2.39 16.27 0 0-38.75-3.35-52.63-1z" fill="#fff"/><path d="m445.31 299.1-.64-.06c-.21 0-21.2-1.81-37.6-1.81a94.71 94.71 0 0 0 -14.84.85l-2.17.37 16.08-16.61h.28c.16 0 16.3-.81 27.29-.81a77.25 77.25 0 0 1 8.73.34l.46.06.13.45c.14.47 3.39 11.71 2.41 16.61zm-38.24-3.31c14.81 0 33.33 1.46 37.06 1.77.47-4.3-1.78-12.79-2.35-14.84-1.67-.18-4.38-.27-8.07-.27-10.16 0-24.73.69-26.93.79l-12.7 13.13a114.42 114.42 0 0 1 12.99-.58z"/><path d="m356.1 230.15s9.15 5.2 12.2 9 37.32 45 37.32 45l2 34.81s-30.32 3.59-39.65 6.64l-.89-2.33-13.82-21.89s2.87-56.16 1.08-65.13 2.12-5.92 1.76-6.1z" fill="#fff"/><path d="m367.52 326.49-1.14-3-13.88-21.92v-.23c0-.56 2.85-56.17 1.09-64.95-.7-3.54-.64-5.66.19-6.68a1.7 1.7 0 0 1 1.34-.64 2.52 2.52 0 0 1 1.42.51c1 .59 9.34 5.42 12.31 9.09s37 44.61 37.31 45l.15.18v.23l2 35.48-.67.08c-.3 0-30.36 3.62-39.51 6.61zm-13.52-25.3 13.69 21.69.72 1.83c9.2-2.77 34-5.84 38.47-6.38l-1.92-33.9c-2.48-3-34.26-41.26-37.18-44.86s-11.9-8.75-12-8.8l.25-.48-.35.4c-.09-.07-.53-.33-.75-.07s-.73 1.3.11 5.49c1.72 8.76-.86 60.64-1.04 65.08z"/><path d="m278.23 250.96.48 12.92 2.39 2.39 2.4 65.07-21.53-1.44 12.91-64.59 2.4-1.43z"/><path d="m350.38 548.67-3.28-1.1c-44-17-102.75-49.21-132.4-105.79-17.47-33.35-16.7-59.48-16.61-61.78v-182.88l3.58-.44c34.34-4.16 116.79-17.12 140.64-47.46a75 75 0 0 0 4.13-6.49l3.5-6.13 3.55 6.1a74.84 74.84 0 0 0 4.62 7.08c10.17 12.4 41.89 35 140.19 46.9l3.58.44v182.88c.1 2.27.86 28.4-16.61 61.74-29.63 56.58-88.27 88.76-132.27 105.79zm-.44-8.73h.05c42.56-16.47 99.26-47.44 127.82-101.49 17.05-32.25 15.95-57.86 15.94-58.11v-176c-43.91-5.56-117.13-19.12-141.92-49.39-.57-.69-1.2-1.57-1.82-2.48-.45.66-.89 1.28-1.3 1.8-24.14 30.73-98.07 44.43-142.48 50.05v176.05c0 .24-1.11 25.85 15.94 58.1 28.54 54.03 85.22 85 127.77 101.47z" fill="#f9bf06"/><path d="m206.94 347.61s20.58 24.4 40.19 22 23.45-12.44 36.37-12.92 12 13.4 33 13.4 23-12.92 36.36-12.92 18.18 12.92 34.45 12.92 22.49-12.44 36.36-12.44 14.33 12.45 38.33 12.45 31.1-22 31.1-22-15.79 7.65-25.84 8.61a50.38 50.38 0 0 1 -18.66-1.92s8.61-11.48 12-15.78l-2.39-3.83s-173.2 6.22-220.57-.48c0 0 10.53 14.83 15.32 16.27 0 0-9.1 5.74-16.75 5.26s-23.52-10.54-29.27-8.62z" fill="#fff"/><path d="m274.4 215.08-17.7 45.45 12.44 15.79z" fill="#fff"/><path d="m269.7 278.19-13.82-17.54 19.67-50.48zm-12.18-17.78 11.06 14 4.68-54.41z"/><path d="m253.83 263.4-6.22 29.19 22.01 11.48 3.83-22.97z" fill="#fff"/><path d="m270.17 305.16-23.37-12.16 6.59-31 20.83 18.8zm-21.74-13 20.65 10.84 3.6-21.61-18.41-16.6z"/><path d="m264.84 325.6c-1.44-1-24.4-1.91-24.4-1.91l5.26-30.63 22 11.49z" fill="#fff"/><path d="m265.39 326.83-.94-.62c-1.17-.57-13.25-1.36-24-1.81h-.81l5.57-32.4 23.33 12.17zm-24.11-3.83c5.52.24 19 .89 23 1.69l2.65-19.69-20.69-10.79z"/><path d="m313.16 206s-5.26 15.79-6.22 20.09a126.44 126.44 0 0 1 25.36-2.39 131.87 131.87 0 0 1 22 1.91s-4.79-17.22-7.66-20.57c.01-.04-28.22.47-33.48.96z" fill="#fff"/><path d="m306 227 .25-1.1c.95-4.3 6-19.52 6.24-20.17l.15-.45h.46c5.23-.47 32.4-.94 33.55-1h.35l.22.25c2.94 3.43 7.6 20.14 7.8 20.85l.31 1.11-1.14-.21a131.93 131.93 0 0 0 -21.87-1.9 127.28 127.28 0 0 0 -25.2 2.37zm7.7-20.37c-.79 2.4-4.53 13.72-5.78 18.49a133.85 133.85 0 0 1 24.38-2.12 136 136 0 0 1 21 1.73c-1.07-3.71-4.65-15.77-7-18.95-3.18.03-26.8.45-32.61.88z"/><path d="m306.94 230.39 48.8-1s5.74 16.75 5.26 22.49c0 0-16.74-2.87-28.7-2.87s-27.75 2.87-27.75 2.87.45-17.66 2.39-21.49z" fill="#fff"/><path d="m303.81 252.78v-.88c0-.73.51-17.91 2.47-21.83l.19-.39 49.76-1 .17.5c.24.69 5.79 17 5.3 22.78l-.06.78-.78-.13c-.16 0-16.82-2.87-28.58-2.87s-27.47 2.84-27.62 2.86zm28.49-4.45c10.39 0 24.51 2.18 28 2.75-.05-5.52-4.2-18.25-5.09-20.92l-47.82.94c-1.28 3.31-1.92 13.92-2.12 20 3.51-.63 16.73-2.77 27.03-2.77z"/><path d="m309.81 258.62s42.1-1 52.63.95c0 0 3.83 12.92 3.83 17.71 0 0-49.76-3.83-61.24-1-.03.04-.03-14.79 4.78-17.66z" fill="#fff"/><path d="m367 278.05-.77-.06c-.26 0-26.51-2-45-2-7.82 0-13.19.35-16 1l-.89.23v-.92c0-.62.06-15.27 5.13-18.32l.16-.1h.19c.11 0 10.68-.24 22.39-.24 15.76 0 26 .41 30.39 1.21l.43.08.13.42c.16.53 3.85 13.07 3.85 17.91zm-45.81-3.52c16.76 0 39.79 1.63 44.35 2-.31-4.56-3-14.16-3.64-16.3-4.51-.72-14.75-1.11-29.7-1.11-10.81 0-20.64.21-22.15.24-3.27 2.23-4.17 11.63-4.28 16.09 3.05-.62 8.23-.92 15.4-.92z"/><path d="m307.42 280.63s50.24.47 59.8 1.43c0 0 1 12.92 1 15.79 0 0-25.83-2.39-39.23-1.91s-33 2.39-32.06 2.39 1.88-14.33 1.88-14.33z" fill="#fff"/><path d="m294 299.46 2.1-1.45v-.3l.43-.06c.5-1.34 1.18-7.85 1.57-13.72v-.46l9.17-3.56h.14c.5 0 50.37.49 59.87 1.44l.6.06v.6c0 .53 1 13 1 15.84v.79l-.78-.08c-.24 0-25.93-2.38-39.15-1.91-12.31.44-29.47 2.06-31.74 2.34h-.05-.33zm5.47-15c-.53 7.78-1.05 11.31-1.45 12.94l1.86-.27-.21.14c5.82-.56 19.16-1.71 29.23-2.07 12-.43 34.05 1.45 38.53 1.84-.1-3.34-.72-12-.9-14.34-10.47-.88-56.13-1.35-59-1.38z"/><path d="m297.37 301.68s56.46-1 70.33 0c0 0 0 21.05-.95 23 0 0-24.4-1.91-45-1.91h-20.55z" fill="#fff"/><path d="m367.17 325.4h-.48c-.24 0-24.61-1.91-44.92-1.91h-21.17l-4.09-22.49h.85c.25 0 25.34-.43 45.94-.43 12.12 0 20.34.15 24.45.43l.67.05v.67c0 3.54-.05 21.32-1 23.28zm-65.37-3.4h20c18.63 0 40.66 1.59 44.46 1.87.48-2.38.74-12.36.75-21.53-4.26-.25-12.22-.38-23.68-.38-18.46 0-40.52.34-45.07.41z"/><path d="m388.75 205s28.23-.48 32.54.48c0 0 7.18 13.87 7.18 20.09 0 0-31.58-4.3-44.5.48.03.03.48-16.24 4.78-21.05z" fill="#fff"/><path d="m383.22 227.12v-1.06c0-.67.54-16.59 5-21.51l.21-.23h.31c.07 0 7.15-.12 14.67-.12 10.13 0 16.2.21 18 .62l.32.07.16.3c.29.57 7.25 14.1 7.25 20.42v.83l-.81-.12a223.15 223.15 0 0 0 -25.71-1.77c-8.27 0-14.47.75-18.44 2.21zm5.87-21.38c-3.31 4.09-4.17 15.77-4.36 19.32 4.13-1.3 10.15-1.95 17.93-1.95a221.28 221.28 0 0 1 25 1.67c-.51-5.76-5.9-16.66-6.9-18.63-1.53-.25-5.86-.52-17.4-.52-6.54 0-12.8.09-14.27.11z"/><path d="m283.71 209.32h1.02v29.22h-1.02z" transform="matrix(.76951103 -.63863352 .63863352 .76951103 -77.5 233.09)"/><path d="m289.26 254.54c-2.33-4.66-17-19.34-17.13-19.49l.72-.72c.61.61 14.92 14.95 17.32 19.75z"/><path d="m285.62 274.07h1.02v25.07h-1.02z" transform="matrix(.74419498 -.66796245 .66796245 .74419498 -118.25 264.41)"/><path d="m314.12 336.13 15.31-87.56 7.17.48 1.44 83.25z"/><path d="m329.9 199.65-5.26 2.03 4.91 2.99z"/><path d="m292.59 294s26.79 30.62 27.75 33l-23.93-.47z" fill="#fff"/><path d="m321.41 327.77-25.64-.51-4.17-35.45 1.53 1.74c2.75 3.14 26.9 30.78 27.87 33.22zm-24.36-1.92 22 .44c-3.07-4.18-15.89-19.11-25.44-30.05z"/><path d="m241.3 246.74h61.31v1.44h-61.31z" transform="matrix(.06435814 -.99792687 .99792687 .06435814 7.48 502.9)"/><path d="m263.37 325.25c-2.77-10.21.6-21.49 1-22.89-.87-17.84 3.15-25.41 3.33-25.73l1.25.69c0 .07-4 7.63-3.14 25.1v.13.13c0 .12-3.85 11.95-1.07 22.19z"/><path d="m293.06 235.17s27.28 32.54 30.63 38.28h-23s-4.75-32.54-7.63-38.28z" fill="#fff"/><path d="m324.93 274.17h-24.83l-.09-.62c-.05-.32-4.8-32.48-7.59-38.06l-2.73-5.49 3.93 4.68c1.11 1.33 27.34 32.65 30.69 38.38zm-23.59-1.44h21c-4.29-6.3-21-26.47-27.37-34.12 2.62 9.39 5.78 30.17 6.37 34.12z"/><path d="m289.24 253.35s27.27 32.06 31.57 40.67c0 0-22.48-4.3-25.35-3.83 0 0-.96-24.88-6.22-36.84z" fill="#fff"/><path d="m322.11 295-1.43-.27c-.2 0-20.17-3.86-24.61-3.86a3.34 3.34 0 0 0 -.5 0l-.8.14v-.82c0-.25-1-24.88-6.16-36.58l-2-4.49 3.18 3.74c1.12 1.31 27.38 32.22 31.68 40.81zm-26-5.56c4 0 18.54 2.7 23.31 3.59-4.76-8-21.55-28.26-28.11-36.07 3.69 11.45 4.69 28.68 4.83 32.48z"/><path d="m317.94 315.07 9.57-113.87 1.44-11.48 1.91 10.53 2.87.95-2.75 2.04 3.23 78.34-4.84-80.5-.42-.83-9.57 121.04z"/><path d="m408.31 252.09-4.66-52.26 1.07-8.61 5.03 60.76z"/><path d="m394.86 295.64c-.9-18.69 9.4-100.14 9.51-101l.89 2.64c-.09.71-7.37 60.05-8.8 88.24-.21 4.18 4.74.29 4.85 2.69z"/><path d="m397.73 288.82c-4.6-6.54-39.33-48.3-39.67-48.7l1.1-.92c1.38 1.63 34.65 40.16 39.28 46.75z"/><path d="m395.21 297.61c-4.74-8.6-34.35-44.66-35.64-45.94l.43-.43.37-.74c1 .51 32.29 38.72 36.82 46.93z"/><path d="m391.89 317.83c-4.68-1.91-23.64-3-24.49-3v-1.43c.9 0 20.07 1.08 25 3.1z"/><path d="m372.49 307.42s-.48 14.35.48 17.22c0 0 28.22-4.3 43.53-4.3a117.5 117.5 0 0 1 28.71 3.82s1.44-15.78-.48-21.53c0 0-33-.95-44.49-.47s-27.75 5.26-27.75 5.26z" fill="#fff"/><path d="m372.48 325.44-.2-.57c-1-3-.53-16.88-.51-17.48v-.51l.5-.15c.16-.05 16.48-4.82 27.92-5.29 2.14-.09 5.19-.14 9.06-.14 14.18 0 35.27.61 35.48.62h.51l.15.48c1.94 5.81.58 21.17.52 21.82l-.08.86-.84-.24a118 118 0 0 0 -28.51-3.8c-15.08 0-43.14 4.26-43.43 4.3zm.71-17.48c-.12 4-.25 12.89.31 15.88 4.32-.64 29.1-4.22 43-4.22a119.77 119.77 0 0 1 28.07 3.63c.25-3.24 1-14.84-.37-19.91-3.33-.1-22-.6-34.93-.6-3.85 0-6.88 0-9 .13-10.15.43-24.27 4.3-27.08 5.13z"/><path d="m404.36 249.17c.54 0 4.85-.36 5.75.18l1.61 80.38-13.81.71 3.76-41.8-8.07 42.36-5.38-.18z"/><path d="m437 259c-.72-.18-7-8.26-7-8.26"/><path d="m436.87 259.63c-.23-.06-.92-.23-7.33-8.47l1-.75a90.67 90.67 0 0 0 6.76 8.07z"/><path d="m418.36 259.21c-1.44-.89-10.23-10.58-10.23-10.58"/><path d="m418 259.73c-1.47-.91-9.45-9.69-10.36-10.69l.9-.82c3.51 3.87 9.1 9.85 10.1 10.48z"/><path d="m401.13 201.44 3.41-1.07 3.77.89-3.59 2.15z"/><path d="m324.34 201.43 4.52-1.42 4.99 1.18-4.75 2.86z"/><path d="m341.68 339.53c-4.28 0-9.3 0-14.86 0-16.49-.1-41.57-.45-67.35-1.6-3.53-.15-8.77-.6-13.84-1-3.72-.32-7.22-.63-9.77-.78l.06-.86c2.55.16 6.06.46 9.78.78 5.06.43 10.29.88 13.8 1 25.78 1.15 50.84 1.5 67.33 1.6 18.16.1 30.49 0 30.62 0v.87c-.08-.06-6.05-.01-15.77-.01z"/><path d="m238.92 341.24-1.73-.12.38-5.16 1.71.13z"/><path d="m244.39 341.58-1.72-.1.31-5.16 1.72.11z"/><path d="m249.85 341.88-1.72-.08.28-5.16 1.72.09z"/><path d="m251.99 338.68h5.17v1.72h-5.17z" transform="matrix(.0478038 -.99885675 .99885675 .0478038 -96.76 577.58)"/><path d="m257.44 338.93h5.17v1.72h-5.17z" transform="matrix(.04483992 -.99899418 .99899418 .04483992 -91.09 584.31)"/><path d="m266.24 342.63-1.73-.06.21-5.17 1.72.07z"/><path d="m268.34 339.36h5.17v1.72h-5.17z" transform="matrix(.03769018 -.99928947 .99928947 .03769018 -79.26 598.14)"/><path d="m277.16 343.02-1.73-.05.17-5.16 1.72.05z"/><path d="m279.25 339.72h5.17v1.72h-5.17z" transform="matrix(.03036406 -.99953891 .99953891 .03036406 -67.14 611.95)"/><path d="m288.08 343.34-1.73-.04.14-5.17 1.72.05z"/><path d="m290.15 340h5.17v1.72h-5.17z" transform="matrix(.02268733 -.99974261 .99974261 .02268733 -54.67 625.8)"/><path d="m299 343.59-1.73-.04.11-5.17 1.72.04z"/><path d="m304.46 343.69-1.72-.03.09-5.16 1.72.02z"/><path d="m306.51 340.31h5.17v1.72h-5.17z" transform="matrix(.01 -1 1 .01 -36.61 645.19)"/><path d="m315.38 343.85-1.72-.03.06-5.16 1.72.02z"/><path d="m320.84 343.9-1.72-.01.05-5.17 1.72.01z"/><path d="m322.88 340.49h5.17v1.72h-5.17z" transform="matrix(.0066322 -.99997801 .99997801 .0066322 -18.05 664.53)"/><path d="m331.76 343.97-1.72-.01.02-5.17 1.73.02z"/><path d="m337.23 343.99h-1.73l.01-5.16 1.72-.01z"/><path d="m340.96 338.81h1.72v5.17h-1.72z" transform="matrix(.99999848 -.00174533 .00174533 .99999848 -.59 .59)"/><path d="m346.42 338.81h1.72v5.17h-1.72z" transform="matrix(.99999848 -.00174533 .00174533 .99999848 -.59 .6)"/><path d="m353.61 343.96h-1.73l-.02-5.16 1.72-.01z"/><path d="m351.86 339.51v-.86l8.43-.06c1.6 0 3.41 0 5.4-.06 4.61 0 10.36-.1 16.8-.24 17.64-.26 50.82-1.53 76.61-2.64l-9.24 1.35c-25.79 1.11-49.72 1.87-67.37 2.12-6.44.14-12.18.2-16.8.24l-5.4.06z"/><path d="m358.78 343.91-1.72.02-.04-5.17 1.72-.01z"/><path d="m362.49 338.7h1.72v5.17h-1.72z" transform="matrix(.99994698 -.01029726 .01029726 .99994698 -3.52 3.78)"/><path d="m369.7 343.8-1.72.02-.06-5.17 1.72-.02z"/><path d="m375.16 343.74-1.72.02-.08-5.17 1.72-.02z"/><path d="m380.62 343.63-1.72.04-.09-5.17 1.72-.03z"/><path d="m384.31 338.38h1.72v5.17h-1.72z" transform="matrix(.99981571 -.01919744 .01919744 .99981571 -6.49 7.48)"/><path d="m391.54 343.42-1.73.04-.1-5.17 1.72-.03z"/><path d="m397 343.32-1.73.03-.12-5.16 1.72-.04z"/><path d="m402.46 343.16-1.73.05-.13-5.16 1.72-.05z"/><path d="m406.12 337.86h1.72v5.17h-1.72z" transform="matrix(.99959536 -.02844503 .02844503 .99959536 -9.54 11.74)"/><path d="m413.37 342.85-1.72.05-.16-5.17 1.72-.04z"/><path d="m418.83 342.69-1.72.05-.17-5.16 1.72-.05z"/><path d="m424.29 342.5-1.73.07-.17-5.17 1.72-.06z"/><path d="m429.74 342.3-1.72.06-.19-5.16 1.72-.07z"/><path d="m433.38 336.95h1.72v5.17h-1.72z" transform="matrix(.99927626 -.038039 .038039 .99927626 -12.59 16.75)"/><path d="m440.65 341.88-1.72.06-.21-5.16 1.72-.06z"/><path d="m444.28 336.54h1.72v5.17h-1.72z" transform="matrix(1 -.04 .04 1 -14.04 19.26)"/><path d="m451.56 341.4-1.72.09-.23-5.17 1.72-.08z"/><path d="m455.17 336.02h1.72v5.17h-1.72z" transform="matrix(.99885675 -.0478038 .0478038 .99885675 -15.68 22.22)"/><path d="m72.87 384.81-1.55-18.7a14.31 14.31 0 0 0 6.9-2.62q3.81-3.12 3.69-8.77a9.61 9.61 0 0 0 -2.11-6.45 5.89 5.89 0 0 0 -4.63-2.19 5.83 5.83 0 0 0 -4.38 2.26q-1.92 2.22-3.49 10.15-2.65 13-7.36 18.62a15.55 15.55 0 0 1 -12.19 5.81 16.66 16.66 0 0 1 -9.33-2.66 18.86 18.86 0 0 1 -7-8.42q-2.61-5.65-2.81-15.61-.24-12.19 4.16-18.7t14.23-7.92l1.46 18.53q-4.29.83-6.2 3.23a10 10 0 0 0 -1.79 6.63 7.93 7.93 0 0 0 1.53 5.09 4.45 4.45 0 0 0 3.58 1.66 3.5 3.5 0 0 0 2.7-1.48c.83-.95 1.56-3.16 2.22-6.65q2.52-13 5.25-18.6a19.4 19.4 0 0 1 6.9-8.27 17.89 17.89 0 0 1 9.4-2.75 20.18 20.18 0 0 1 11.36 3.16 21.14 21.14 0 0 1 8 9.31q2.79 6 3 15.28.33 16.26-5.8 22.63a24.67 24.67 0 0 1 -15.74 7.43z"/><path d="m32 300.26 14.7-58 15.3 3.86-5 19.46 46.51 11.78-4.81 19.09-46.5-11.79-4.93 19.46z"/><path d="m114.19 244.67-55-32.15 16.56-28.32q4.6-7.87 8.38-11.26a14.89 14.89 0 0 1 8.94-3.78 18 18 0 0 1 19.4 17.74 23.82 23.82 0 0 1 -1.31 7.24 19.73 19.73 0 0 1 4.61-3.24 19.76 19.76 0 0 1 4.48-1 25.16 25.16 0 0 1 4.81-.38l20.75 1.08-11.23 19.2-22.11-.8q-4.27-.18-6 .6a8.28 8.28 0 0 0 -3.71 3.42l-.88 1.5 22.32 13zm-22.74-36.19 4.19-7.17a29.63 29.63 0 0 0 1.88-4.94 5.19 5.19 0 0 0 -.11-3.76 5.93 5.93 0 0 0 -2.57-2.94 5.86 5.86 0 0 0 -5.07-.7q-2.42.85-5.14 5.51l-4.36 7.46z"/><path d="m175.14 147.64-16.29 15.3 4.93 9.79-14.64 13.76-26.14-62.82 15.62-14.67 61.06 30-15 14.12zm-12.41-7.24-20.8-11.88 10.6 21.48z"/><path d="m181.49 75.76 16.51-8.11 37.08 21-15.57-31.58 16.65-8.19 28.11 57.17-16.66 8.18-36.84-20.86 15.44 31.39-16.62 8.17z"/><path d="m282 100.83-10-62.91 32.41-5.14q9-1.43 14-.64a14.88 14.88 0 0 1 8.59 4.51 17.58 17.58 0 0 1 4.53 9.73 17 17 0 0 1 -6 16.52 23.49 23.49 0 0 1 -6.44 3.57 19.9 19.9 0 0 1 5.54 1.53 19.59 19.59 0 0 1 3.64 2.82 25.16 25.16 0 0 1 3.34 3.47l12.3 16.71-21.91 3.5-13.49-17.58q-2.56-3.42-4.29-4.29a8.28 8.28 0 0 0 -5-.7l-1.71.27 4.05 25.54zm13.59-40.52 8.2-1.3a29.74 29.74 0 0 0 5-1.67 5.21 5.21 0 0 0 2.85-2.48 5.9 5.9 0 0 0 .64-3.84 5.84 5.84 0 0 0 -2.67-4.37c-1.46-.88-4-1-7.51-.48l-8.54 1.35z"/><path d="m395.68 86.45-22.16-2.87-4.43 10-19.93-2.58 31.94-60.07 21.29 2.76 15.54 66.25-20.44-2.65zm-2.27-14.18-4-23.62-9.85 21.82z"/><path d="m454 45.79 48.38 21-5.38 12.49-30.3-13.16-4 9.29 28.1 12.2-5.17 11.92-28.1-12.2-5 11.52 31.16 13.53-5.74 13.23-49.27-21.39z"/><path d="m491.63 134.08 40.51-49.17 25.32 20.86q7 5.81 9.77 10.08a14.81 14.81 0 0 1 2.31 9.42 17.54 17.54 0 0 1 -4.28 9.85 17 17 0 0 1 -16.32 6.48 23.74 23.74 0 0 1 -6.94-2.45 19.52 19.52 0 0 1 2.46 5.07 19.46 19.46 0 0 1 .3 4.59 25.63 25.63 0 0 1 -.39 4.81l-4.37 20.3-17.16-14.14 4.25-21.72a14.85 14.85 0 0 0 .38-6.05 8.26 8.26 0 0 0 -2.79-4.21l-1.34-1.1-16.44 20zm39.37-16.67 6.41 5.27a29.27 29.27 0 0 0 4.58 2.65 5.19 5.19 0 0 0 3.73.49 6.46 6.46 0 0 0 4.81-7q-.46-2.5-4.62-5.94l-6.67-5.5z"/><path d="m624.52 183.12 22.26 43.28-12.18 6.26-13.21-25.66-9.9 5.09 11.29 21.91-11.44 5.89-11.28-21.95-23.15 11.9-9-17.58z"/><path d="m606.52 251.86 6.15 17.87-16.77 5.77-6.14-17.88z"/><path d="m632.51 331-3.17 17.74a31.79 31.79 0 0 1 -12.68-4 23.88 23.88 0 0 1 -8.38-8.36q-3.09-5.22-4.09-13.72-1.22-10.31 1-17.2t9.25-12.46q7-5.64 18.76-7 15.7-1.85 25.11 5.53t11.2 22.64q1.4 12-2.64 19.36t-13.65 11.9l-5.86-16.81a14.76 14.76 0 0 0 4-2.4 11.31 11.31 0 0 0 3-4.42 12.44 12.44 0 0 0 -6-15q-4.29-2.22-12.77-1.22-10.53 1.23-14 4.88a11 11 0 0 0 -2.85 9.43q.66 5.61 4.14 8.11t9.63 3z"/><path d="m624 368.37-1.89 18.81-17.64-1.78 1.89-18.8z"/><path d="m263.94 589v64.79h-17.94v-42.43a54.58 54.58 0 0 1 -8.41 5.35 66.13 66.13 0 0 1 -10.19 3.91v-14.52q9-2.91 14-7a28.47 28.47 0 0 0 7.9-10.1z"/><path d="m300.6 631.06a16.84 16.84 0 0 1 -6.08-5 14.63 14.63 0 0 1 -2.61-8.6q0-8 7.52-13.08 5.86-3.92 15.51-3.91 12.78 0 18.88 4.87a15 15 0 0 1 6.11 12.25 14.48 14.48 0 0 1 -2.44 8 20 20 0 0 1 -5.73 5.39 17.85 17.85 0 0 1 7.71 6.56 16.78 16.78 0 0 1 2.54 9 18.88 18.88 0 0 1 -2.19 8.93 18.06 18.06 0 0 1 -5.39 6.41 22 22 0 0 1 -7.95 3.32 46.41 46.41 0 0 1 -10.15 1.06q-10.12 0-15.47-2.39a17.42 17.42 0 0 1 -8.12-7 19.81 19.81 0 0 1 -2.74-10.3 15.33 15.33 0 0 1 10.64-15.51zm7 14.9a9.54 9.54 0 0 0 2.56 6.89 7.94 7.94 0 0 0 5.87 2.67 7.61 7.61 0 0 0 5.69-2.71 10.67 10.67 0 0 0 0-13.8 7.87 7.87 0 0 0 -5.89-2.69 7.67 7.67 0 0 0 -5.76 2.6 9.89 9.89 0 0 0 -2.47 7.08zm.95-27.42a7.11 7.11 0 0 0 2.07 5.33 7.54 7.54 0 0 0 5.49 2 6.7 6.7 0 0 0 5-2 7.1 7.1 0 0 0 2-5.17 7.29 7.29 0 0 0 -2.05-5.37 7 7 0 0 0 -5.21-2.06 6.92 6.92 0 0 0 -7.26 7.25z"/><path d="m353.51 601.6h51.66v11.95a64.3 64.3 0 0 0 -11.25 13.16 76.75 76.75 0 0 0 -8.65 19.17 90.49 90.49 0 0 0 -3.39 19.42h-17.64q2.08-15.6 6.56-26.16t14.2-22.6h-31.49z"/><path d="m422.2 621.7q0-18.15 6.54-25.42t19.92-7.28a30 30 0 0 1 10.56 1.58 19.66 19.66 0 0 1 6.73 4.13 22.08 22.08 0 0 1 4.11 5.35 27.78 27.78 0 0 1 2.41 6.54 60.91 60.91 0 0 1 1.78 14.86q0 17.34-5.86 25.37t-20.21 8q-8 0-13-2.56a21.13 21.13 0 0 1 -8.13-7.52 28.34 28.34 0 0 1 -3.58-9.62 65.45 65.45 0 0 1 -1.27-13.43zm17.55 0q0 12.16 2.15 16.62c1.44 3 3.51 4.45 6.24 4.45a6.55 6.55 0 0 0 4.67-1.89 11.68 11.68 0 0 0 2.91-6 62.9 62.9 0 0 0 .93-12.73q0-12.69-2.15-17.06t-6.45-4.37q-4.4 0-6.34 4.46t-1.96 16.57z"/></svg>