<svg width="32" height="32" viewBox="0 0 32 32" fill="none" xmlns="http://www.w3.org/2000/svg">
<path fill-rule="evenodd" clip-rule="evenodd" d="M17.792 7.84452H20.082V3.10352H17.792V7.84452ZM17.792 28.8965H20.082V24.1545H17.792V28.8965ZM27.144 17.1375H31.916V14.8615H27.144V17.1375ZM24.434 27.7375L22.048 23.6315L24.032 22.4935L26.419 26.5995L24.434 27.7375ZM26.618 12.9075L25.472 10.9365L29.604 8.56552L30.749 10.5365L26.618 12.9075ZM29.604 23.4325L25.472 21.0635L26.617 19.0915L30.749 21.4625L29.604 23.4325ZM24.033 9.50552L22.049 8.36852L24.434 4.26152L26.418 5.39952L24.033 9.50552Z" fill="#FDC400" />
<path fill-rule="evenodd" clip-rule="evenodd" d="M18.942 18.5595H4.90898C4.46045 18.5565 4.02058 18.4357 3.63342 18.2092C3.24626 17.9827 2.92542 17.6584 2.70301 17.2689C2.4806 16.8794 2.36444 16.4383 2.36617 15.9897C2.36789 15.5412 2.48744 15.101 2.71283 14.7132C2.93822 14.3254 3.26155 14.0036 3.65044 13.7801C4.03932 13.5566 4.48011 13.4391 4.92866 13.4396C5.3772 13.44 5.81776 13.5583 6.20621 13.7826C6.59465 14.0069 6.91735 14.3293 7.14198 14.7175L9.12298 13.5755C8.7598 12.9559 8.26309 12.425 7.66898 12.0215C7.88657 10.969 8.48649 10.0346 9.35285 9.3986C10.2192 8.76263 11.2905 8.47031 12.3598 8.57811C13.4291 8.68591 14.4205 9.18618 15.1425 9.98228C15.8645 10.7784 16.2658 11.8138 16.269 12.8885C16.2703 13.7759 15.9952 14.6416 15.482 15.3655H18.075C18.3205 14.761 18.4748 14.1234 18.533 13.4735C18.6683 13.4521 18.805 13.4417 18.942 13.4425C19.6209 13.4425 20.2721 13.7122 20.7522 14.1923C21.2323 14.6724 21.502 15.3236 21.502 16.0025C21.502 16.6815 21.2323 17.3326 20.7522 17.8127C20.2721 18.2928 19.6209 18.5625 18.942 18.5625M18.942 11.1625C18.7414 11.1631 18.541 11.1761 18.342 11.2015C17.9599 9.79382 17.125 8.55102 15.9664 7.66494C14.8077 6.77887 13.3896 6.29878 11.931 6.29878C10.4723 6.29878 9.05425 6.77887 7.89559 7.66494C6.73692 8.55102 5.9021 9.79382 5.51998 11.2015C5.32104 11.1756 5.12062 11.1626 4.91998 11.1625C4.28491 11.1625 3.65606 11.2876 3.06933 11.5306C2.4826 11.7737 1.94948 12.1299 1.50042 12.5789C1.05135 13.028 0.695135 13.5611 0.452103 14.1479C0.209071 14.7346 0.0839844 15.3634 0.0839844 15.9985C0.0839844 16.6336 0.209071 17.2624 0.452103 17.8492C0.695135 18.4359 1.05135 18.969 1.50042 19.4181C1.94948 19.8671 2.4826 20.2234 3.06933 20.4664C3.65606 20.7094 4.28491 20.8345 4.91998 20.8345H18.942C19.5771 20.8345 20.2059 20.7094 20.7926 20.4664C21.3794 20.2234 21.9125 19.8671 22.3616 19.4181C22.8106 18.969 23.1668 18.4359 23.4099 17.8492C23.6529 17.2624 23.778 16.6336 23.778 15.9985C23.778 15.3634 23.6529 14.7346 23.4099 14.1479C23.1668 13.5611 22.8106 13.028 22.3616 12.5789C21.9125 12.1299 21.3794 11.7737 20.7926 11.5306C20.2059 11.2876 19.5771 11.1625 18.942 11.1625Z" fill="#969696" />
</svg>
