{
	"asset":{
		"generator":"Khronos glTF Blender I/O v4.4.56",
		"version":"2.0"
	},
	"extensionsUsed":[
		"KHR_materials_specular"
	],
	"scene":0,
	"scenes":[
		{
			"name":"Scene",
			"nodes":[
				0
			]
		}
	],
	"nodes":[
		{
			"mesh":0,
			"name":"India_Map.001",
			"rotation":[
				0.7071068286895752,
				0,
				0,
				0.7071068286895752
			],
			"scale":[
				0.009999999776482582,
				0.009999999776482582,
				0.009999999776482582
			],
			"translation":[
				0.9224210381507874,
				1.0080615282058716,
				0
			]
		}
	],
	"materials":[
		{
			"doubleSided":true,
			"extensions":{
				"KHR_materials_specular":{
					"specularColorFactor":[
						2.0,
						2.0,
						2.0
					]
				}
			},
			"name":"India_Map1",
			"pbrMetallicRoughness":{
				"metallicFactor":0.5,
				"roughnessFactor":0.7487671971321106
			}
		},
		{
			"doubleSided":true,
			"extensions":{
				"KHR_materials_specular":{
					"specularColorFactor":[
						2.0,
						2.0,
						2.0
					]
				}
			},
			"name":"India_Map_Border",
			"pbrMetallicRoughness":{
				"baseColorFactor":[
					1,
					0.6177999973297119,
					0,
					1
				],
				"metallicFactor":0.5,
				"roughnessFactor":0.7868038415908813
			}
		}
	],
	"meshes":[
		{
			"name":"Mesh.002",
			"primitives":[
				{
					"attributes":{
						"POSITION":0,
						"NORMAL":1,
						"TEXCOORD_0":2
					},
					"indices":3,
					"material":0
				},
				{
					"attributes":{
						"POSITION":4,
						"NORMAL":5,
						"TEXCOORD_0":6
					},
					"indices":7,
					"material":1
				}
			]
		}
	],
	"accessors":[
		{
			"bufferView":0,
			"componentType":5126,
			"count":2286,
			"max":[
				98.87260437011719,
				4.9155144691467285,
				98.46048736572266
			],
			"min":[
				-79.34709167480469,
				-4.915512561798096,
				-96.50106048583984
			],
			"type":"VEC3"
		},
		{
			"bufferView":1,
			"componentType":5126,
			"count":2286,
			"type":"VEC3"
		},
		{
			"bufferView":2,
			"componentType":5126,
			"count":2286,
			"type":"VEC2"
		},
		{
			"bufferView":3,
			"componentType":5123,
			"count":8724,
			"type":"SCALAR"
		},
		{
			"bufferView":4,
			"componentType":5126,
			"count":2562,
			"max":[
				100.29975891113281,
				6.768683910369873,
				100.38368225097656
			],
			"min":[
				-81.07213592529297,
				-6.768682956695557,
				-98.25411224365234
			],
			"type":"VEC3"
		},
		{
			"bufferView":5,
			"componentType":5126,
			"count":2562,
			"type":"VEC3"
		},
		{
			"bufferView":6,
			"componentType":5126,
			"count":2562,
			"type":"VEC2"
		},
		{
			"bufferView":7,
			"componentType":5123,
			"count":5280,
			"type":"SCALAR"
		}
	],
	"bufferViews":[
		{
			"buffer":0,
			"byteLength":27432,
			"byteOffset":0,
			"target":34962
		},
		{
			"buffer":0,
			"byteLength":27432,
			"byteOffset":27432,
			"target":34962
		},
		{
			"buffer":0,
			"byteLength":18288,
			"byteOffset":54864,
			"target":34962
		},
		{
			"buffer":0,
			"byteLength":17448,
			"byteOffset":73152,
			"target":34963
		},
		{
			"buffer":0,
			"byteLength":30744,
			"byteOffset":90600,
			"target":34962
		},
		{
			"buffer":0,
			"byteLength":30744,
			"byteOffset":121344,
			"target":34962
		},
		{
			"buffer":0,
			"byteLength":20496,
			"byteOffset":152088,
			"target":34962
		},
		{
			"buffer":0,
			"byteLength":10560,
			"byteOffset":172584,
			"target":34963
		}
	],
	"buffers":[
		{
			"byteLength":183144,
			"uri":"India_outline.bin"
		}
	]
}
