<svg clip-rule="evenodd" fill-rule="evenodd" image-rendering="optimizeQuality" shape-rendering="geometricPrecision" text-rendering="geometricPrecision" viewBox="0 0 2560 1707" xmlns="http://www.w3.org/2000/svg"><path d="m-.5-.5h2560v1707c-853.33 0-1706.667 0-2560 0 0-569 0-1138 0-1707z" fill="#ee1c24"/><path d="m884.5 93.5c.658 1.2933.992 2.7933 1 4.5-2.095 18.785-3.429 37.619-4 56.5 18.949 7.15 37.616 14.983 56 23.5-20.306 3.911-40.306 8.744-60 14.5-2.087 19.951-3.92 39.951-5.5 60-10.625-17.083-21.125-34.25-31.5-51.5-20.072 3.685-40.072 7.685-60 12 13.333-15.333 26.667-30.667 40-46-10.416-17.501-21.083-34.834-32-52 19.024 7.087 37.857 14.92 56.5 23.5 13.645-14.657 26.812-29.657 39.5-45z" fill="#fefd00"/><path d="m184.5 348.5c61.333-.667 122.667-1.333 184-2 19.031-58.262 38.198-116.595 57.5-175 19.871 58.446 39.037 117.112 57.5 176 61.668-.167 123.334 0 185 .5-49.875 36.099-99.541 72.432-149 109 19.079 58.724 37.746 117.224 56 175.5-49.704-36.208-99.538-72.208-149.5-108-49.936 35.598-99.602 71.598-149 108 17.031-55.43 34.698-110.763 53-166 1.323-3.608 1.989-7.275 2-11-49.108-35.798-98.274-71.465-147.5-107z" fill="#fefe00"/><path d="m986.5 265.5c13.95 14.619 28.29 28.952 43 43 17.79-8.395 35.46-17.061 53-26 .33.333.67.667 1 1-8.95 17.738-18.28 35.238-28 52.5 13.97 14.971 28.3 29.638 43 44-20.31-3.16-40.64-6.16-61-9-9.37 17.913-18.87 35.746-28.5 53.5-2.79-20.35-5.62-40.683-8.5-61-20.348-3.336-40.681-6.836-61-10.5 17.877-9.105 35.877-17.939 54-26.5.333-1.333.667-2.667 1-4-2.668-19.01-5.335-38.01-8-57z" fill="#fefd00"/><path d="m368.5 346.5c-61.333.667-122.667 1.333-184 2-.543-.06-.876-.393-1-1 61.663-1 123.33-1.333 185-1z" fill="#f57715"/><path d="m1087.5 568.5c4.86-.319 9.53.014 14 1-13.84 11.001-27.84 21.834-42 32.5-1.9 1.265-3.23 2.931-4 5 6.93 18.792 13.43 37.625 19.5 56.5-16.7-11.529-33.53-22.863-50.5-34-15.49 12.574-31.152 24.908-47 37-.333-.5-.667-1-1-1.5 5.811-19.083 10.977-38.25 15.5-57.5-16.5-11.167-33-22.333-49.5-33.5 20.311-1.397 40.644-2.23 61-2.5 5.05-19.522 10.71-38.856 17-58 7.19 18.222 14.19 36.555 21 55 15.33 1.011 30.66 1.011 46 0z" fill="#fefd00"/><path d="m1087.5 568.5c5.15-1.151 10.48-1.317 16-.5-.54.717-1.21 1.217-2 1.5-4.47-.986-9.14-1.319-14-1z" fill="#f89f11"/><path d="m881.5 689.5c.663 1.973.996 4.139 1 6.5-1.024 18.154-1.691 36.321-2 54.5 18.566 6.41 36.899 13.41 55 21-19.191 5.589-38.358 11.256-57.5 17-.626 20.351-1.626 40.685-3 61-10.774-17.105-21.941-33.938-33.5-50.5-20.096 4.691-40.096 9.691-60 15 13.379-15.71 26.379-31.71 39-48-11.333-17-22.667-34-34-51 19.236 6.689 38.403 13.856 57.5 21.5 12.508-15.697 25.008-31.364 37.5-47z" fill="#fefd00"/></svg>