<?xml  version="1.0" encoding="UTF-8"?>
<!DOCTYPE svg PUBLIC "-//W3C//DTD SVG 1.0//EN" "http://www.w3.org/TR/2001/REC-SVG-20010904/DTD/svg10.dtd" >
<svg xmlns="http://www.w3.org/2000/svg" >
<metadata>
<version>1.0</version>
<id><![CDATA[Iskoola Pota for BBC Bold]]></id>
<vendor>Monotype Imaging Inc.</vendor>
<credits>
<name>Fonts.com WebFonts</name>
<URL>http://webfonts.fonts.com</URL>
<role>Home of the Web fonts</role>
</credits>
<license>
<URL>http://webfonts.fonts.com/Legal</URL>
</license>
<copyright><![CDATA[© 2008, 2012 Microsoft Corporation. All rights reserved.]]></copyright>
<trademark></trademark>
<licensee>
<name></name>
</licensee>
</metadata>
<defs >
<font horiz-adv-x="1437" id="64f0fe2a-b6dc-4e86-92f2-bd139033703d">
<font-face font-family="Iskoola Pota for BBC" panose-1="2 11 8 2 4 2 4 2 2 3" ascent="1825" descent="-500" units-per-em="2048" alphabetic="0">
</font-face>
<missing-glyph horiz-adv-x="1008" d="M50 0V1511H957V0H50ZM176 126H831V1385H176V126Z"  />

<glyph unicode="&#xA;" />
<glyph unicode="&#xD;" />
<glyph unicode=" " glyph-name="space" horiz-adv-x="534" />
<glyph unicode="!" glyph-name="exclam" horiz-adv-x="588" d="M317 400H260L167 1017Q145 1172 145 1205Q145 1288 183 1334T290 1381Q337 1381 369 1361T418 1301T435 1209Q435 1161 407 981L317 400ZM294 277Q359 277 405 231T452 119Q452 54 406 8T294 -38Q229 -38 183 8T137 119Q137 184 183 230T294 277Z"  />
<glyph unicode="&quot;" glyph-name="quotedbl" horiz-adv-x="1119" d="M778 814H740L648 1140Q633 1195 633 1254Q633 1289 649 1318T695 1364T760 1381Q814 1381 852 1345T891 1258Q891 1206 871 1140L778 814ZM371 814H333L242 1140Q225 1194 225 1254Q225 1306 261 1343T352 1381Q407 1381 445 1345T484 1258Q484 1210 463 1140L371 814Z"  />
<glyph unicode="#" glyph-name="numbersign" horiz-adv-x="1346" d="M393 985L473 1371H637L556 985H925L1006 1371H1169L1088 985H1263V823H1054L988 502H1263V338H953L873 -44H709L790 338H421L340 -44H177L258 338H81V502H292L359 823H81V985H393ZM891 823H522L456 502H825L891 823Z"  />
<glyph unicode="$" glyph-name="dollar" horiz-adv-x="1070" d="M581 1292V816Q797 695 880 586T963 346Q963 277 938 212T864 93T744 5T581 -36V-200H479V-36Q389 -36 283 -15T125 34V337H161Q190 233 234 173T337 84T479 42V569Q359 639 289 694T177 803T118 911T100 1019Q100 1094 127 1154T202 1257T320 1325T479 1356V1519H581V1356Q675 1350 762 1325T898 1261V994H863Q839 1118 765 1196T581 1292ZM479 873V1290Q397 1272 348 1218T298 1088Q298 1028 339 977T479 873ZM581 506V44Q664 58 716 117T768 260Q768 327 725 383T581 506Z"  />
<glyph unicode="%" glyph-name="percent" horiz-adv-x="1590" d="M1142 346Q1142 198 1169 121T1248 44Q1299 44 1326 122T1354 346Q1354 449 1342 516T1306 617T1248 651Q1196 651 1169 574T1142 346ZM442 -20H342L1150 1381H1248L442 -20ZM238 1012Q238 709 342 709Q394 709 422 787T450 1012Q450 1159 423 1237T342 1316Q238 1316 238 1012ZM948 346Q948 419 971 486T1036 606T1133 686T1248 715Q1310 715 1364 686T1460 607T1524 488T1548 346Q1548 275 1525 207T1459 88T1362 9T1248 -20Q1189 -20 1134 8T1036 90T971 210T948 346ZM42 1012Q42 1084 66 1151T131 1271T228 1352T342 1381Q404 1381 459 1352T554 1272T619 1153T643 1012Q643 941 619 871T553 752T456 674T342 645Q263 645 194 695T83 829T42 1012Z"  />
<glyph unicode="&amp;" glyph-name="ampersand" horiz-adv-x="1661" d="M1453 863V798Q1377 788 1324 736Q1294 706 1258 642T1170 482T1073 323Q1138 242 1218 193T1367 143Q1450 143 1489 215H1552Q1537 143 1492 86T1382 -5T1242 -38Q1147 -38 1053 5T894 121Q724 -38 490 -38Q380 -38 293 3T158 119T109 286Q109 372 153 459T282 623T481 760Q442 843 422 922T401 1064Q401 1155 445 1227T568 1340T748 1381Q833 1381 900 1351T1006 1268T1046 1148Q1046 979 750 812Q795 726 866 612T1004 397Q1070 493 1099 562T1129 685Q1129 778 1038 798V863H1453ZM711 896Q900 1008 900 1137Q900 1201 863 1242T766 1284Q727 1284 699 1268T656 1221T641 1146Q641 1055 711 896ZM522 677Q448 645 400 577T352 435Q352 351 393 280T501 165T645 121Q756 121 825 196Q758 278 667 423T522 677Z"  />
<glyph unicode="&apos;" glyph-name="quotesingle" horiz-adv-x="560" d="M296 814H258L167 1140Q152 1195 152 1254Q152 1289 168 1318T214 1364T278 1381Q333 1381 371 1345T409 1258Q409 1205 389 1140L296 814Z"  />
<glyph unicode="(" glyph-name="parenleft" horiz-adv-x="713" d="M673 -375V-439Q551 -414 442 -332T247 -122T115 158T69 465Q69 619 112 766T240 1043T436 1258T673 1371V1308Q530 1246 455 1114T355 822T331 467Q331 295 350 156T410 -90T516 -268T673 -375Z"  />
<glyph unicode=")" glyph-name="parenright" horiz-adv-x="713" d="M40 -375Q133 -339 198 -268T304 -92T363 154T383 467Q383 661 359 821T259 1114T40 1308V1371Q167 1344 279 1259T473 1046T600 769T645 465Q645 305 598 154T468 -123T275 -331T40 -439V-375Z"  />
<glyph unicode="*" glyph-name="asterisk" horiz-adv-x="1070" d="M437 556Q437 583 449 625T477 718T504 810T514 887Q461 857 392 777T291 669T212 641Q174 641 146 670T117 740Q117 805 171 828T339 873T494 923Q458 953 381 968T247 996T151 1032T113 1108Q113 1150 142 1180T212 1211Q251 1211 289 1184T381 1095T456 1009T514 967Q514 1020 478 1138T442 1300Q442 1346 467 1373T534 1400Q578 1400 602 1373T627 1300Q627 1249 609 1191T574 1075T556 967Q609 998 681 1078T781 1185T860 1211Q901 1211 929 1181T957 1108Q957 1056 920 1032T792 990T659 963T579 923Q614 899 679 886T810 859T915 819T953 740Q953 699 927 670T863 641Q813 641 779 672T673 783T556 887Q556 842 593 718T631 556Q631 513 605 486T534 458Q491 458 464 486T437 556Z"  />
<glyph unicode="+" glyph-name="plus" horiz-adv-x="1344" d="M129 762H581V1213H762V762H1213V581H762V129H581V581H129V762Z"  />
<glyph unicode="&#x2c;" glyph-name="comma" horiz-adv-x="588" d="M113 -337V-270Q216 -264 276 -211T337 -69Q337 -35 325 -27T266 -18Q191 -18 152 17T113 115Q113 185 160 231T278 277Q338 277 382 243T451 149T477 12Q477 -90 433 -166T305 -288T113 -337Z"  />
<glyph unicode="-" glyph-name="hyphen" horiz-adv-x="713" d="M54 356V571H661V356H54Z"  />
<glyph unicode="." glyph-name="period" horiz-adv-x="588" d="M294 277Q359 277 405 231T452 119Q452 54 406 8T294 -38Q229 -38 183 8T137 119Q137 184 183 230T294 277Z"  />
<glyph unicode="/" glyph-name="slash" horiz-adv-x="566" d="M371 1381H566L194 -38H0L371 1381Z"  />
<glyph unicode="0" glyph-name="zero" horiz-adv-x="1068" d="M46 671Q46 790 80 916T179 1147T334 1317T536 1381Q633 1381 721 1325T878 1170T985 942T1023 671Q1023 483 957 320T777 59T536 -38Q429 -38 339 24T183 190T82 421T46 671ZM337 671Q337 25 536 25Q733 25 733 671Q733 997 685 1157T536 1318Q337 1318 337 671Z"  />
<glyph unicode="1" glyph-name="one" horiz-adv-x="1068" d="M696 1381V275Q696 190 712 145T770 83T885 65V0H232V65Q310 65 352 81T414 143T433 275V988Q433 1073 417 1105T361 1137Q308 1137 232 1092L202 1148L639 1381H696Z"  />
<glyph unicode="2" glyph-name="two" horiz-adv-x="1068" d="M152 967H83Q106 1093 170 1185T330 1329T542 1381Q620 1381 689 1353T808 1275T887 1154T915 1006Q915 916 871 812T712 564T405 240H854Q886 240 901 254T943 319H1014L907 0H38V52L256 244Q414 383 505 496T632 699T667 877Q667 1004 595 1086T407 1169Q319 1169 250 1115T152 967Z"  />
<glyph unicode="3" glyph-name="three" horiz-adv-x="1068" d="M229 1064H165Q195 1162 251 1233T385 1343T554 1381Q639 1381 711 1347T823 1252T863 1115Q863 937 637 788Q927 689 927 421Q927 326 888 242T778 95T616 -3T421 -38Q314 -38 236 5T157 109Q157 148 187 175T260 202Q292 202 322 187T400 141T474 99T532 87Q608 87 655 145T702 300Q702 393 656 468T524 593T321 663V721Q414 744 483 788T590 894T629 1021Q629 1074 606 1117T541 1184T448 1209Q315 1209 229 1064Z"  />
<glyph unicode="4" glyph-name="four" horiz-adv-x="1068" d="M829 0H575V344H46V536L671 1381H829V523H1017V344H829V0ZM575 523V1040H571L190 523H575Z"  />
<glyph unicode="5" glyph-name="five" horiz-adv-x="1068" d="M950 1356L877 1110H405L363 996Q491 976 600 925T788 801T909 634T952 437Q952 339 909 251T787 98T607 -2T385 -38Q302 -38 240 -17T143 42T109 127Q109 170 137 195T210 221Q250 221 280 205T354 157T432 109T516 92Q582 92 640 128T733 226T768 359Q768 466 696 549T480 688T131 766L371 1356H950Z"  />
<glyph unicode="6" glyph-name="six" horiz-adv-x="1068" d="M983 1381V1320Q858 1310 749 1257T555 1126T416 955T344 775Q405 813 469 830T596 848Q685 848 761 817T895 730T985 596T1017 433Q1017 309 954 200T783 26T550 -38Q408 -38 293 30T111 224T44 508Q44 701 122 862T335 1140T639 1319T983 1381ZM333 646Q325 530 325 463Q325 340 346 243T418 85T556 25Q650 25 703 101T756 319Q756 430 734 523T663 671T538 725Q510 725 472 716T398 688T333 646Z"  />
<glyph unicode="7" glyph-name="seven" horiz-adv-x="1068" d="M115 996H50L175 1356H1017L516 -38L350 0L756 1110H327Q260 1110 225 1102T170 1072T115 996Z"  />
<glyph unicode="8" glyph-name="eight" horiz-adv-x="1068" d="M727 760Q828 697 889 639T978 515T1006 371Q1006 257 945 163T777 16T540 -38Q344 -38 213 62T81 317Q81 421 155 512T371 673Q272 735 213 799T130 921T107 1036Q107 1132 164 1211T324 1335T546 1381Q660 1381 754 1339T901 1220T955 1054Q955 967 904 900T727 760ZM633 821Q752 898 752 1054Q752 1175 694 1246T534 1318Q450 1318 396 1266T342 1131Q342 1048 403 983T633 821ZM477 611Q434 572 404 524T358 422T342 312Q342 183 402 104T562 25Q655 25 713 91T771 266Q771 332 748 381T664 482T477 611Z"  />
<glyph unicode="9" glyph-name="nine" horiz-adv-x="1068" d="M85 -38V23Q246 35 383 118T608 321T723 566Q603 494 471 494Q386 494 308 525T173 614T83 748T50 909Q50 1034 114 1143T286 1317T518 1381Q649 1381 766 1317T953 1131T1023 842Q1023 635 941 468T722 189T419 20T85 -38ZM736 696Q744 773 744 879Q744 1123 678 1220T512 1318Q417 1318 365 1240T312 1023Q312 864 362 741T532 617Q579 617 635 638T736 696Z"  />
<glyph unicode=":" glyph-name="colon" horiz-adv-x="588" d="M294 963Q359 963 405 917T452 806Q452 741 406 695T294 648Q229 648 183 694T137 806Q137 871 183 917T294 963ZM294 277Q359 277 405 231T452 119Q452 54 406 8T294 -38Q229 -38 183 8T137 119Q137 184 183 230T294 277Z"  />
<glyph unicode=";" glyph-name="semicolon" horiz-adv-x="588" d="M113 -337V-270Q216 -264 276 -211T337 -69Q337 -35 325 -27T266 -18Q191 -18 152 17T113 115Q113 185 160 231T278 277Q338 277 382 243T451 149T477 12Q477 -90 433 -166T305 -288T113 -337ZM294 963Q359 963 405 917T452 806Q452 741 406 695T294 648Q229 648 183 694T137 806Q137 871 183 917T294 963Z"  />
<glyph unicode="&lt;" glyph-name="less" horiz-adv-x="1344" d="M1213 135L129 588V754L1213 1207V1012L377 671L1213 331V135Z"  />
<glyph unicode="=" glyph-name="equal" horiz-adv-x="1344" d="M129 996H1213V814H129V996ZM129 528H1213V346H129V528Z"  />
<glyph unicode="&gt;" glyph-name="greater" horiz-adv-x="1344" d="M129 135V331L967 671L129 1012V1207L1213 754V588L129 135Z"  />
<glyph unicode="?" glyph-name="question" horiz-adv-x="840" d="M123 1381H175Q175 1352 198 1330Q213 1316 312 1310T491 1284T637 1199Q742 1092 742 903Q742 828 723 769T669 675Q634 640 558 604T457 553T427 498L415 401H352V615Q352 703 373 723Q383 733 481 764T611 829Q643 860 643 915Q643 963 611 996Q525 1080 221 1080Q163 1080 143 1097T123 1157V1381ZM383 277Q448 277 494 231T540 119Q540 54 494 8T383 -38Q318 -38 272 8T225 119Q225 184 271 230T383 277Z"  />
<glyph unicode="@" glyph-name="at" horiz-adv-x="1875" d="M1400 923L1286 530L1225 319Q1193 196 1193 155Q1193 125 1214 103T1265 81Q1322 81 1390 119T1511 221Q1592 318 1637 451T1683 721Q1683 894 1602 1033T1375 1250T1046 1328Q700 1328 461 1073Q378 982 321 873T233 639T202 391Q202 164 299 -15T572 -295T971 -395Q1149 -395 1302 -332T1573 -145T1763 150H1819Q1790 55 1752 -12T1652 -152Q1565 -252 1457 -319T1223 -421T967 -456Q725 -456 529 -343T221 -29T109 417Q109 616 180 792T379 1101T678 1308T1040 1381Q1198 1381 1326 1333T1549 1194T1694 979T1744 706Q1744 600 1718 497T1643 305T1527 148Q1488 107 1433 75T1319 26T1201 10Q1050 10 1050 145Q1050 197 1066 286L1062 290Q977 180 907 117Q850 66 790 38T679 10Q630 10 589 40T524 123T500 238Q500 339 550 464T685 698Q769 802 866 865T1042 929Q1123 929 1169 883Q1199 852 1211 792H1215L1246 900L1400 923ZM1056 883Q953 883 834 717Q761 614 709 483T657 268Q657 210 691 170T771 129Q863 129 963 238Q1080 368 1119 475Q1177 637 1177 742Q1177 803 1144 843T1056 883Z"  />
<glyph unicode="A" glyph-name="A" horiz-adv-x="1661" d="M427 363L389 280Q354 204 354 173Q354 68 522 65V0H34V65Q106 67 162 117T270 280L778 1381H836L1441 179Q1464 134 1488 111T1542 78T1625 65V0H1008V65Q1091 66 1121 81T1152 135Q1152 175 1115 246L1052 363H427ZM996 471L725 1008L477 471H996Z"  />
<glyph unicode="B" glyph-name="B" horiz-adv-x="1429" d="M42 1356H830Q971 1356 1081 1309T1250 1180T1310 1002Q1310 924 1270 860T1158 752T998 698V694Q1107 684 1192 638T1325 520T1373 361Q1373 272 1323 190T1163 54T883 0H42V65H87Q163 65 204 83T262 146T280 275V1094Q280 1196 244 1244T104 1292H42V1356ZM558 1248V758Q602 748 689 748Q790 748 865 778T980 865T1019 998Q1019 1079 980 1138T866 1228T691 1260Q631 1260 558 1248ZM558 637V129Q649 102 740 102Q841 102 914 134T1026 226T1066 367Q1066 451 1019 516T884 616T681 651Q610 651 558 637Z"  />
<glyph unicode="C" glyph-name="C" horiz-adv-x="1556" d="M1446 387L1509 342Q1303 -38 869 -38Q687 -38 540 20T289 179T134 407T81 665Q81 859 187 1023T479 1284T883 1381Q971 1381 1041 1367T1193 1328T1296 1304Q1325 1304 1343 1324T1362 1381H1427L1461 929H1394Q1364 1010 1312 1076T1198 1187T1061 1258T909 1284Q761 1284 643 1207T460 988T395 671Q395 502 463 369T657 162T941 87Q1256 87 1446 387Z"  />
<glyph unicode="D" glyph-name="D" horiz-adv-x="1786" d="M48 1356H943Q1137 1356 1284 1297T1526 1139T1668 921T1715 679Q1715 514 1627 358T1352 101T887 0H48V65H111Q188 65 228 83T286 146T304 275V1082Q304 1200 264 1246T123 1292H48V1356ZM583 1223V141Q621 127 701 116T856 104Q996 104 1100 149T1271 273T1368 454T1400 673Q1400 849 1330 979T1129 1181T823 1252Q700 1252 583 1223Z"  />
<glyph unicode="E" glyph-name="E" horiz-adv-x="1429" d="M1240 1356V1042H1179Q1137 1165 1082 1206T929 1248H512V768H873Q970 768 1011 808T1052 955H1119V463H1052Q1052 578 1015 618T873 659H512V240Q512 182 520 156T551 119T627 109H933Q1037 109 1104 138T1219 227T1318 391H1383L1269 0H29V65Q113 65 156 81T216 141T234 275V1082Q234 1170 217 1215T157 1276T29 1292V1356H1240Z"  />
<glyph unicode="F" glyph-name="F" horiz-adv-x="1429" d="M1340 1356L1358 1025H1290Q1273 1093 1248 1139T1190 1209T1116 1240T1014 1248H556V768H907Q973 768 1011 783T1069 840T1088 961H1157V475H1088Q1088 582 1048 620T921 659H556V275Q556 192 573 147T631 83T750 65H829V0H32V65H87Q163 65 203 83T261 146T278 275V1084Q278 1166 261 1211T204 1274T87 1292H32V1356H1340Z"  />
<glyph unicode="G" glyph-name="G" horiz-adv-x="1786" d="M1433 1379H1496L1523 917H1457Q1408 1043 1323 1125T1136 1246T927 1284Q814 1284 718 1244T549 1125T435 936T395 691Q395 549 439 432T564 231T752 103T983 58Q1070 58 1153 81T1292 145V435Q1292 525 1270 571T1205 631T1082 645V709H1744V645Q1640 642 1605 595T1569 435V117Q1504 75 1399 39T1173 -17T941 -38Q706 -38 509 42T196 281T81 661Q81 814 143 945T318 1175T575 1327T885 1381Q1011 1381 1246 1316Q1285 1300 1334 1300Q1403 1300 1433 1379Z"  />
<glyph unicode="H" glyph-name="H" horiz-adv-x="1786" d="M552 635V275Q552 192 569 147T628 83T750 65H794V0H42V65H81Q158 65 199 83T257 146T275 275V1100Q275 1197 236 1244T98 1292H42V1356H794V1292H750Q671 1292 629 1274T569 1211T552 1084V758H1233V1102Q1233 1205 1191 1248T1062 1292H994V1356H1744V1292H1683Q1586 1292 1549 1247T1511 1084V275Q1511 194 1528 148T1585 83T1703 65H1744V0H994V65H1040Q1117 65 1158 83T1216 146T1233 275V635H552Z"  />
<glyph unicode="I" glyph-name="I" horiz-adv-x="840" d="M798 0H40V65H92Q210 65 248 109T286 275V1082Q286 1166 270 1210T214 1273T92 1292H40V1356H798V1292H756Q679 1292 639 1274T581 1211T564 1082V275Q564 192 581 147T638 83T756 65H798V0Z"  />
<glyph unicode="J" glyph-name="J" horiz-adv-x="946" d="M900 1356V1292Q829 1290 790 1272T734 1208T717 1082V379Q717 290 690 216T610 84T481 -6T314 -38Q194 -38 113 19T31 161Q31 215 66 251T154 288Q225 288 245 256T299 141T373 58Q439 58 439 173V1082Q439 1160 422 1205T369 1271T268 1292H232V1356H900Z"  />
<glyph unicode="K" glyph-name="K" horiz-adv-x="1786" d="M40 1356H771V1292H742Q664 1292 622 1274T562 1211T544 1082V696L983 1078Q1045 1133 1068 1165T1092 1227Q1092 1263 1067 1277T979 1292H952V1356H1527V1292Q1477 1290 1429 1274T1324 1221T1207 1131L804 784L1338 284Q1463 168 1550 118T1721 65V0H965V65Q1048 65 1076 76T1104 115Q1104 132 1088 152T1014 225L544 661V275Q544 192 561 147T621 83T742 65H771V0H40V65H73Q150 65 190 83T248 146T266 275V1082Q266 1166 248 1211T188 1274T73 1292H40V1356Z"  />
<glyph unicode="L" glyph-name="L" horiz-adv-x="1429" d="M1322 367H1388L1265 0H36V65H83Q159 65 199 82T257 145T275 272V1082Q275 1200 237 1246T83 1292H48V1356H792V1292H746Q669 1292 628 1274T570 1211T552 1082V248Q552 181 560 154T593 118T677 109H923Q1025 109 1090 128T1208 201T1322 367Z"  />
<glyph unicode="M" glyph-name="M" horiz-adv-x="2144" d="M1538 1356H2065V1292H2027Q1949 1292 1909 1274T1850 1211T1832 1082V275Q1832 192 1849 147T1907 83T2027 65H2065V0H1322V65H1362Q1439 65 1479 83T1536 146T1554 275V1150H1550L1012 0H950L407 1131H403V275Q403 195 419 150T476 84T594 64Q601 64 607 64T623 65V0H79V65H104Q187 65 229 83T287 146T302 275V1082Q302 1162 288 1206T233 1271T111 1292H79V1356H604L1075 371L1538 1356Z"  />
<glyph unicode="N" glyph-name="N" horiz-adv-x="1786" d="M1150 1356H1733V1292H1669Q1604 1292 1568 1272T1516 1205T1500 1082V-12H1461L400 1050V275Q400 192 417 147T475 83T592 65H653V0H50V65H127Q215 65 256 108T298 252V1148Q249 1212 185 1249T50 1292V1356H484L1398 431V1104Q1398 1202 1359 1247T1229 1292H1150V1356Z"  />
<glyph unicode="O" glyph-name="O" horiz-adv-x="1661" d="M73 671Q73 865 173 1028T447 1286T829 1381Q1037 1381 1210 1287T1485 1029T1586 671Q1586 477 1485 314T1211 57T829 -38Q621 -38 448 56T174 314T73 671ZM387 671Q387 525 416 413T502 220T641 99T829 58Q936 58 1017 98T1155 218T1241 411T1271 671Q1271 865 1220 1002T1068 1211T829 1284Q689 1284 590 1212T439 1002T387 671Z"  />
<glyph unicode="P" glyph-name="P" horiz-adv-x="1304" d="M25 1356H727Q826 1356 917 1333T1082 1261T1198 1139T1242 969Q1242 860 1182 771T1018 631T788 579Q631 579 516 651V275Q516 183 534 140T599 81T731 65V0H25V65Q113 65 158 81T220 143T238 275V1100Q238 1203 199 1248T52 1293Q43 1293 37 1293T25 1292V1356ZM516 1227V740Q597 704 669 704Q740 704 799 740T893 839T927 983Q927 1065 892 1125T793 1219T645 1252Q575 1252 516 1227Z"  />
<glyph unicode="Q" glyph-name="Q" horiz-adv-x="1661" d="M1517 -387V-452H1407Q1260 -452 1135 -425T909 -343T728 -203T590 -4Q474 31 380 96T217 253T110 450T73 671Q73 865 173 1028T447 1286T829 1381Q1037 1381 1210 1287T1485 1029T1586 671Q1586 555 1547 445T1434 243T1257 84T1025 -16Q1080 -201 1203 -291T1517 -387ZM387 671Q387 525 416 413T502 220T641 99T829 58Q936 58 1017 98T1155 218T1241 411T1271 671Q1271 865 1220 1002T1068 1211T829 1284Q689 1284 590 1212T439 1002T387 671Z"  />
<glyph unicode="R" glyph-name="R" horiz-adv-x="1661" d="M979 639L1384 161Q1425 113 1475 92T1612 65V0H1181L671 604H538V275Q538 186 557 142T622 81T766 65V0H36V65Q133 65 178 81T242 142T260 275V1106Q260 1214 214 1253T68 1293Q58 1293 51 1293T36 1292V1356H832Q937 1356 1026 1337T1184 1276T1290 1168T1328 1010Q1328 877 1231 774T979 639ZM538 709H702Q851 709 932 789T1014 988Q1014 1050 993 1098T931 1180T835 1233T706 1252Q599 1252 538 1225V709Z"  />
<glyph unicode="S" glyph-name="S" horiz-adv-x="1199" d="M107 435H171Q215 324 287 240T446 112T627 67Q695 67 747 93T829 164T858 266Q858 357 786 429Q754 463 694 498T508 603T323 710T215 792Q111 896 111 1034Q111 1107 143 1171T231 1282T364 1355T530 1381Q595 1381 645 1372T752 1346T843 1321T898 1312Q953 1312 973 1381H1040V939H977Q935 1043 869 1121T722 1241T556 1284Q465 1284 411 1240T356 1121Q356 1053 411 998Q442 969 532 921T704 830T867 738T998 639Q1067 570 1095 499T1123 346Q1123 239 1066 151T908 12T687 -38Q605 -38 540 -21T391 24T280 52Q240 52 210 28T171 -36H107V435Z"  />
<glyph unicode="T" glyph-name="T" horiz-adv-x="1429" d="M1369 1034H1304Q1292 1153 1232 1202T1040 1252H852V275Q852 190 868 146T925 83T1046 65H1086V0H340V65H391Q487 65 531 108T575 275V1252H419Q279 1252 211 1207T123 1034H58L67 1356H1360L1369 1034Z"  />
<glyph unicode="U" glyph-name="U" horiz-adv-x="1786" d="M38 1356H792V1292H746Q668 1292 626 1274T567 1211T550 1082V481Q550 354 607 266T758 135T965 92Q1160 92 1291 203T1423 500V1104Q1423 1207 1380 1249T1252 1292H1198V1356H1746V1292H1715Q1638 1292 1598 1274T1541 1211T1523 1082V512Q1523 328 1439 204T1213 21T907 -38Q734 -38 588 17T357 185T272 452V1106Q272 1204 231 1248T92 1292H38V1356Z"  />
<glyph unicode="V" glyph-name="V" horiz-adv-x="1556" d="M865 -38H798L248 1084Q204 1175 175 1218T116 1276T40 1292V1356H643V1292Q514 1292 514 1207Q514 1183 524 1157T577 1044L915 356L1191 1036Q1237 1149 1237 1195Q1237 1247 1206 1269T1104 1292V1356H1513V1292Q1458 1284 1429 1264T1370 1187T1290 1008L865 -38Z"  />
<glyph unicode="W" glyph-name="W" horiz-adv-x="2144" d="M1506 -38H1449L1094 800L762 -38H707L260 1027Q205 1158 178 1208T122 1274T42 1292V1356H625V1292Q553 1290 523 1273T492 1215Q492 1184 536 1076L821 391L1036 931L969 1084Q933 1169 902 1214T834 1276T736 1292V1356H1346V1292Q1338 1293 1323 1293Q1219 1293 1219 1217Q1219 1183 1237 1142L1277 1052L1560 401L1777 979Q1818 1086 1831 1131T1844 1205Q1844 1257 1811 1274T1691 1292V1356H2100V1292Q2051 1283 2024 1264T1974 1203T1906 1038L1506 -38Z"  />
<glyph unicode="X" glyph-name="X" horiz-adv-x="1661" d="M38 0V65Q133 75 215 128T393 292L691 633L340 1066Q268 1155 220 1201T131 1268T38 1292V1356H719V1292Q590 1292 590 1229Q590 1196 655 1119L875 846L1086 1082Q1156 1162 1173 1186T1191 1235Q1191 1265 1165 1278T1060 1292V1356H1558V1292Q1495 1290 1451 1274T1359 1217T1242 1098L946 766L1369 238Q1431 159 1501 113T1621 65V0H946V65Q1018 65 1045 79T1073 127Q1073 147 1058 173T994 260L756 550L530 292Q471 225 449 193T427 135Q427 96 458 81T562 65V0H38Z"  />
<glyph unicode="Y" glyph-name="Y" horiz-adv-x="1661" d="M1183 0H425V65H490Q587 65 625 111T663 275V577L258 1117Q191 1205 162 1238T108 1282T36 1292V1356H675V1292Q546 1292 546 1233Q546 1213 566 1179T643 1070L905 713L1163 1048Q1261 1178 1261 1223Q1261 1261 1229 1276T1127 1292H1084V1356H1625V1292Q1534 1292 1471 1249T1332 1108L941 590V275Q941 192 958 147T1017 83T1137 65H1183V0Z"  />
<glyph unicode="Z" glyph-name="Z" horiz-adv-x="1429" d="M1320 369H1388L1320 0H40V65L963 1261H514Q409 1261 343 1234T245 1155T210 1023H143L175 1356H1352V1322L419 102H923Q1053 102 1128 128T1246 212T1320 369Z"  />
<glyph unicode="[" glyph-name="bracketleft" horiz-adv-x="588" d="M548 1356V1292H429Q383 1292 363 1285T336 1255T329 1183V-234Q329 -279 336 -303T360 -335T411 -344H548V-409H85V1356H548Z"  />
<glyph unicode="\" glyph-name="backslash" horiz-adv-x="566" d="M0 1381H196L566 -38H373L0 1381Z"  />
<glyph unicode="]" glyph-name="bracketright" horiz-adv-x="588" d="M40 1356H504V-409H40V-344H177Q225 -344 242 -323T260 -234V1183Q260 1256 243 1274T159 1292H40V1356Z"  />
<glyph unicode="^" glyph-name="asciicircum" horiz-adv-x="1171" d="M145 651L544 1356H629L1025 651H867L588 1144L308 651H145Z"  />
<glyph unicode="_" glyph-name="underscore" horiz-adv-x="1008" d="M-12 -152H1019V-252H-12V-152Z"  />
<glyph unicode="`" glyph-name="grave" horiz-adv-x="671" d="M456 1096H383L96 1439H348L456 1096Z"  />
<glyph unicode="a" glyph-name="a" horiz-adv-x="1070" d="M1002 185L1036 139Q988 60 914 11T769 -38Q704 -38 659 -1T613 104Q613 113 615 131Q421 -38 292 -38Q226 -38 175 -7T94 80T65 208Q65 291 102 350T214 454T413 540L615 606V736Q615 817 583 850T473 883Q332 883 332 778Q332 770 332 765T333 750Q333 697 307 665T229 633Q185 633 155 661T125 733Q125 800 172 852T304 934T494 963Q600 963 682 938T811 860T858 733V200Q858 115 903 115Q948 115 1002 185ZM615 522Q449 474 372 420T294 286Q294 225 332 180T421 135Q461 135 519 164T615 232V522Z"  />
<glyph unicode="b" glyph-name="b" horiz-adv-x="1199" d="M433 1381V814Q499 886 582 924T746 963Q852 963 939 904T1076 739T1127 508Q1127 359 1054 234T855 35T581 -38Q476 -38 364 -4T190 81V1119Q190 1202 168 1233T102 1265Q68 1265 52 1258L40 1324L350 1381H433ZM433 706V242Q433 180 447 141T505 80T629 58Q703 58 762 102T854 226T887 405Q887 510 851 598T755 737T621 788Q529 788 433 706Z"  />
<glyph unicode="c" glyph-name="c" horiz-adv-x="946" d="M860 308L900 270Q865 178 801 108T656 0T488 -38Q396 -38 317 -3T177 99T84 255T52 444Q52 592 115 711T289 897T542 963Q612 963 672 948T774 908T840 846T865 766Q865 713 828 680T731 646Q671 646 647 675T607 761T570 846T490 875Q423 875 374 838T298 732T270 575Q270 461 313 369T433 224T604 171Q749 171 860 308Z"  />
<glyph unicode="d" glyph-name="d" horiz-adv-x="1199" d="M1012 1381V248Q1012 113 1082 113Q1117 113 1159 129V65L854 -38H768V73Q719 25 641 -6T492 -38Q375 -38 281 23T134 191T81 431Q81 522 108 614T194 787T344 915T560 963Q613 963 672 948T768 909V1121Q768 1199 748 1233T679 1267Q644 1267 600 1256L588 1320L937 1381H1012ZM768 169V633Q768 747 720 811T569 875Q492 875 436 831T351 705T321 516Q321 407 361 316T470 173T623 121Q704 121 768 169Z"  />
<glyph unicode="e" glyph-name="e" horiz-adv-x="946" d="M852 342L903 314Q852 159 741 61T481 -38Q358 -38 261 26T110 204T56 463Q56 715 188 839T498 963Q608 963 698 916T839 785T891 600V540H275Q284 377 371 276T588 175Q668 175 740 222T852 342ZM275 643H629Q632 663 632 682Q632 764 584 819T463 875Q412 875 372 846T305 764T275 643Z"  />
<glyph unicode="f" glyph-name="f" horiz-adv-x="713" d="M633 0H58V65H98Q145 65 168 77T202 121T212 210V808H58V923H212Q211 934 211 953Q211 1083 275 1181T443 1330T661 1381Q724 1381 774 1362T852 1309T879 1231Q879 1181 846 1150T764 1119Q725 1119 701 1138T654 1194T611 1250T554 1269Q456 1269 456 1108V923H633V808H456V210Q456 152 465 122T498 78T569 65H633V0Z"  />
<glyph unicode="g" glyph-name="g" horiz-adv-x="1070" d="M1000 775Q994 775 860 806Q907 740 907 651Q907 559 856 486T712 371T504 329Q432 329 356 348Q288 283 288 248Q288 212 328 193T461 167L713 150Q839 142 919 80T1000 -102Q1000 -203 936 -281T760 -405T504 -450Q363 -450 261 -418T107 -335T56 -229Q56 -122 221 14Q171 34 142 70T113 150Q113 254 270 375Q179 416 132 486T85 645Q85 741 137 816T286 933T506 975Q641 975 742 923Q788 925 879 946Q965 963 992 963Q1016 963 1023 953T1030 911V836Q1030 802 1024 789T1000 775ZM671 613Q671 728 629 814T488 900Q412 900 367 842T321 689Q321 601 345 536T412 436T512 401Q588 401 629 456T671 613ZM715 -50L300 -12Q271 -35 252 -76T232 -154Q232 -204 273 -241T389 -300T571 -321Q712 -321 795 -278T879 -161Q879 -64 715 -50Z"  />
<glyph unicode="h" glyph-name="h" horiz-adv-x="1199" d="M427 1381V812Q590 952 748 952Q822 952 886 922T991 825T1032 648V210Q1032 147 1043 116T1079 75T1159 65V0H663V65Q739 65 763 91T788 210V613Q788 695 756 743T651 792Q598 792 544 770T427 702V210Q427 152 437 121T472 77T542 64Q563 64 575 65V0H46V65Q106 65 134 76T172 117T183 210V1121Q183 1195 165 1229T94 1263Q70 1263 46 1258L36 1324L344 1381H427Z"  />
<glyph unicode="i" glyph-name="i" horiz-adv-x="588" d="M548 0H25V65Q36 64 56 64Q101 64 126 77T161 121T171 210V673Q171 834 81 834Q59 834 38 827L25 891L329 963H415V210Q415 146 426 116T465 76T548 65V0ZM300 1381Q361 1381 403 1339T446 1235Q446 1175 403 1133T300 1090Q240 1090 198 1132T155 1235Q155 1296 196 1338T300 1381Z"  />
<glyph unicode="j" glyph-name="j" horiz-adv-x="588" d="M444 963V-54Q444 -164 395 -255T263 -398T89 -450Q31 -450 -13 -433T-83 -387T-109 -321Q-109 -282 -82 -257T-18 -232Q16 -232 37 -249T80 -296T114 -339T148 -352Q179 -352 189 -321T200 -190V665Q200 834 111 834Q97 834 71 827L56 891L356 963H444ZM300 1381Q361 1381 403 1339T446 1235Q446 1175 403 1133T300 1090Q240 1090 198 1132T155 1235Q155 1296 196 1338T300 1381Z"  />
<glyph unicode="k" glyph-name="k" horiz-adv-x="1199" d="M425 1381V210Q425 118 450 92T548 65V0H38V65Q47 65 52 65T64 64Q112 64 137 77T172 120T181 210V1142Q181 1181 171 1208T143 1249T98 1263Q67 1263 52 1258L38 1322L342 1381H425ZM435 516L669 725Q717 768 732 787T748 821Q748 839 732 848T679 858V923H1086V858Q1043 858 997 839T885 768L646 581L1004 154Q1064 79 1157 65V0H646V65Q694 67 708 73T723 98Q723 118 679 179L435 516Z"  />
<glyph unicode="l" glyph-name="l" horiz-adv-x="588" d="M415 1381V210Q415 153 425 122T458 79T528 65V0H56V65Q103 65 127 77T161 121T171 210V1096Q171 1193 149 1229T56 1265L42 1328L340 1381H415Z"  />
<glyph unicode="m" glyph-name="m" horiz-adv-x="1786" d="M415 963V823Q568 963 733 963Q825 963 888 924T994 800Q1164 963 1338 963Q1420 963 1485 927T1585 824T1621 663V210Q1621 152 1630 121T1665 78T1741 65V0H1252V65Q1303 65 1328 76T1365 117T1377 210V617Q1377 710 1345 757T1233 804Q1143 804 1017 711V210Q1017 149 1027 119T1063 77T1140 65H1161V0H648V65Q703 65 728 77T763 119T773 210V592Q773 667 762 711T720 780T629 804Q529 804 415 711V210Q415 153 424 123T458 78T528 64Q549 64 560 65V0H44V65Q118 65 144 91T171 210V657Q171 750 149 787T79 825Q72 825 54 823V891L331 963H415Z"  />
<glyph unicode="n" glyph-name="n" horiz-adv-x="1199" d="M419 963V823Q575 963 738 963Q808 963 873 933T979 832T1021 646V210Q1021 118 1047 92T1150 65V0H653V65Q704 65 729 75T766 116T778 210V619Q778 804 633 804Q585 804 528 781T419 713V210Q419 143 431 113T473 74T562 65V0H48V65Q102 65 128 76T165 117T175 210V659Q175 763 151 795T71 828Q63 828 59 828T48 827V891L335 963H419Z"  />
<glyph unicode="o" glyph-name="o" horiz-adv-x="1199" d="M1121 469Q1121 328 1050 212T854 29T579 -38Q363 -38 221 102T79 454Q79 564 118 656T232 818T404 926T613 963Q723 963 815 927T976 824T1083 666T1121 469ZM858 369Q858 526 824 640T725 815T569 875Q458 875 399 787T340 538Q340 342 412 196T635 50Q746 50 802 132T858 369Z"  />
<glyph unicode="p" glyph-name="p" horiz-adv-x="1199" d="M427 963V800Q566 963 738 963Q818 963 887 928T1008 831T1088 685T1117 502Q1117 398 1079 298T976 122T827 5T651 -38Q519 -38 427 65V-219Q427 -280 437 -310T475 -353T560 -366Q583 -366 594 -365V-429H42V-365Q105 -365 133 -355T172 -314T183 -219V667Q183 834 92 834Q81 834 58 829V892L340 963H427ZM427 694V266Q427 217 456 166T534 83T643 50Q749 50 813 144T877 400Q877 508 845 593T755 727T621 775Q575 775 520 752T427 694Z"  />
<glyph unicode="q" glyph-name="q" horiz-adv-x="1199" d="M1042 963V-219Q1042 -285 1054 -314T1096 -354T1189 -365V-429H645V-365Q656 -366 677 -366Q728 -366 753 -354T788 -311T798 -219V104Q664 -38 484 -38Q320 -38 215 87T109 407Q109 536 164 664T332 878T606 963Q742 963 838 894L957 963H1042ZM798 219V691Q798 875 617 875Q521 875 461 822T374 686T348 508Q348 398 382 312T477 179T617 131Q725 131 798 219Z"  />
<glyph unicode="r" glyph-name="r" horiz-adv-x="840" d="M429 963V754H433Q478 857 540 910T673 963Q715 963 745 948T793 905T810 838Q810 783 783 750T707 717Q674 717 661 726T615 760T558 784Q530 784 490 732T429 633V210Q429 145 440 115T478 75T557 65H590V0H44V65Q103 65 132 74T173 113T185 210V671Q185 834 96 834Q84 834 69 829V892L346 963H429Z"  />
<glyph unicode="s" glyph-name="s" horiz-adv-x="840" d="M707 941V641H641Q610 752 539 816T373 881Q310 881 272 856T234 788Q234 756 260 727Q277 710 308 692T436 620T598 525T691 456Q748 399 767 353T786 246Q786 165 746 100T633 -2T467 -38Q416 -38 369 -30T260 -7T179 8Q152 8 115 -12H69V321H135Q163 203 252 127T454 50Q511 50 547 81T583 163Q583 214 544 252Q512 284 465 312T352 376T238 442T150 512Q67 592 67 698Q67 774 106 834T215 928T369 963Q437 963 522 948Q601 931 639 931Q658 931 671 941H707Z"  />
<glyph unicode="t" glyph-name="t" horiz-adv-x="713" d="M665 931V810H391V246Q391 187 420 151T506 115Q604 115 639 219H685Q667 102 588 32T391 -38Q287 -38 218 24T148 212V810H77V875Q152 921 217 1010T331 1219H391V931H665Z"  />
<glyph unicode="u" glyph-name="u" horiz-adv-x="1199" d="M1030 923V234Q1030 115 1096 115Q1118 115 1163 127V62L867 -38H786V102Q710 35 627 -1T467 -38Q345 -38 264 40T183 260V715Q183 795 162 826T87 858V923H427V308Q427 217 461 169T577 121Q622 121 680 145T786 210V715Q786 802 762 830T668 859Q645 859 631 858V923H1030Z"  />
<glyph unicode="v" glyph-name="v" horiz-adv-x="1070" d="M510 -38L150 758Q124 814 103 834T44 858V923H496V858Q447 856 425 843T403 802Q403 777 417 750L611 319L742 643Q794 769 794 804Q794 858 702 858V923H1025V858Q986 846 962 824T913 755T848 604L594 -38H510Z"  />
<glyph unicode="w" glyph-name="w" horiz-adv-x="1556" d="M566 -38H481L148 756Q122 819 105 837T50 858V923H456V858Q395 855 395 810Q395 792 415 744L594 306L738 646L715 704Q680 795 645 826T554 858V923H1042V858Q986 856 964 843T941 800Q941 777 981 679L1125 335L1256 704Q1284 787 1284 806Q1284 858 1193 858V923H1507V858Q1455 851 1421 807T1346 646L1102 -38H1017L794 504L566 -38Z"  />
<glyph unicode="x" glyph-name="x" horiz-adv-x="1070" d="M36 0V65Q86 71 128 102T229 208L407 431L167 775Q136 822 111 840T48 858V923H518V858Q454 855 454 814Q454 786 490 738L564 633L651 758Q681 800 681 818Q681 858 625 858V923H969V858Q912 858 865 827T762 721L625 540L825 250Q874 179 907 140T967 85T1032 65V0H564V65Q627 65 627 102Q627 127 588 177L471 340L335 163Q302 117 302 102Q302 65 387 65V0H36Z"  />
<glyph unicode="y" glyph-name="y" horiz-adv-x="1070" d="M526 923V858Q470 858 447 844T423 798Q423 772 456 698L629 298L762 637Q818 780 818 810Q818 859 737 859Q723 859 715 858V923H1034V858Q996 850 975 836T934 786T889 679L575 -179Q545 -258 495 -320T376 -416T229 -450Q143 -450 89 -411T34 -308Q34 -262 65 -230T143 -198Q189 -198 255 -234T361 -270Q401 -270 425 -247T473 -155L526 -18L167 762Q128 849 69 858V923H526Z"  />
<glyph unicode="z" glyph-name="z" horiz-adv-x="946" d="M911 923L385 117H641Q712 117 747 129T801 176T836 288H896V0H32L571 814H317Q262 814 235 804T193 768T167 685H100L111 923H911Z"  />
<glyph unicode="{" glyph-name="braceleft" horiz-adv-x="794" d="M242 488V486Q356 463 427 410T530 293T562 169Q562 102 539 -12T516 -167Q516 -230 570 -285T707 -350V-395Q584 -395 491 -347T350 -226T302 -81Q302 -44 311 0T331 85T347 165T354 250Q354 302 331 348T264 425T161 460V516Q221 522 265 552T331 628T354 725Q354 772 347 810T331 890T312 975T302 1056Q302 1111 327 1165T407 1268T537 1344T707 1371V1326Q625 1318 571 1263T516 1142Q516 1102 539 988T562 806Q562 765 545 717T491 623T393 543T242 488Z"  />
<glyph unicode="|" glyph-name="bar" horiz-adv-x="400" d="M109 1381H292V-429H109V1381Z"  />
<glyph unicode="}" glyph-name="braceright" horiz-adv-x="794" d="M552 488V490Q388 522 310 616T232 806Q232 847 240 900T260 1006T274 1085T278 1142Q278 1209 224 1263T87 1326V1371Q182 1371 258 1344T387 1269T466 1166T492 1056Q492 1020 486 988T465 893T445 799T439 725Q439 646 490 585T633 516V460Q574 456 530 426T463 349T439 250Q439 210 445 177T465 81T486 -12T492 -81Q492 -133 465 -190T387 -292T260 -366T87 -395V-350Q168 -342 223 -287T278 -167Q278 -137 273 -101T258 -18T240 80T232 169Q232 228 263 292T365 410T552 488Z"  />
<glyph unicode="~" glyph-name="asciitilde" horiz-adv-x="1344" d="M1142 840H1209Q1209 680 1135 583Q1059 486 931 486Q835 486 633 577Q432 665 361 665Q291 665 253 622T200 490H133Q133 668 212 754T403 840Q474 840 550 816T715 752Q832 700 884 681T983 661Q1052 661 1093 709T1142 840Z"  />
<glyph unicode="&#xA0;" glyph-name="uni00A0" horiz-adv-x="534" />
<glyph unicode="&#xA1;" glyph-name="exclamdown" horiz-adv-x="588" d="M272 526H329L421 -92Q444 -247 444 -280Q444 -361 405 -408T298 -456Q228 -456 191 -411T154 -284Q154 -236 181 -56L272 526ZM294 648Q229 648 183 694T137 806Q137 871 183 917T294 963Q359 963 405 917T452 806Q452 741 406 695T294 648Z"  />
<glyph unicode="&#xA2;" glyph-name="cent" horiz-adv-x="946" d="M177 -389L296 8Q178 68 115 180T52 444Q52 590 114 710T288 896T538 963H579L689 1342H775L661 952Q753 932 809 881T865 766Q865 713 828 680T731 646Q630 646 608 764H604L446 217Q494 191 527 181T602 171Q749 171 860 308L900 270Q865 178 801 108T656 0T488 -38Q434 -38 375 -23L266 -389H177ZM375 277L548 863Q523 875 492 875Q392 875 331 793T270 575Q270 400 375 277Z"  />
<glyph unicode="&#xA3;" glyph-name="sterling" horiz-adv-x="1070" d="M806 769V639H550Q554 619 554 584Q554 521 538 429T502 290Q541 275 591 255T695 223T812 210Q895 210 939 242T996 342H1056Q1053 263 1031 191T969 67T878 -11T766 -38Q714 -38 670 -25T574 23T437 129Q408 76 372 39T295 -18T214 -38Q149 -38 105 11T60 135Q60 227 117 284T268 342Q305 342 344 331Q341 375 334 416T309 535T288 639H113V769H272V887Q272 1031 325 1144T474 1319T687 1381Q816 1381 893 1322T971 1169Q971 1116 940 1084T858 1052Q798 1052 769 1098T740 1213Q740 1300 661 1300Q596 1300 557 1241T518 1082Q518 1043 521 1009T536 894T550 769H806ZM335 208Q287 246 242 246Q197 246 166 214T135 135Q135 96 159 70T217 44Q266 44 297 89T335 208Z"  />
<glyph unicode="&#xA4;" glyph-name="currency" horiz-adv-x="1394" d="M952 1036L1080 1165L1201 1044L1073 915Q1113 854 1131 794T1150 659Q1150 586 1132 527T1073 407L1199 280L1078 159L955 282Q832 206 694 206Q626 206 565 224T442 282L319 159L196 282L319 405Q279 467 261 529T242 661Q242 732 260 791T321 915L192 1044L312 1165L442 1036Q509 1079 568 1097T698 1115Q766 1115 824 1097T952 1036ZM696 943Q618 943 554 905T451 803T413 661Q413 584 451 519T553 415T696 377Q772 377 837 415T940 519T979 661Q979 738 941 802T838 905T696 943Z"  />
<glyph unicode="&#xA5;" glyph-name="yen" horiz-adv-x="1659" d="M1437 338H939V275Q939 193 956 148T1012 84T1123 65H1181V0H423V65H488Q582 65 621 110T661 258V338H163V439H661V581L635 613H163V713H558L256 1117Q186 1208 157 1240T105 1282T34 1292V1356H673V1292Q604 1292 574 1279T544 1233Q544 1209 584 1148L903 713L1177 1066L1203 1106Q1260 1191 1260 1223Q1260 1259 1229 1275T1109 1292H1082V1356H1623V1292Q1535 1290 1478 1258T1362 1148L1032 713H1437V613H957L939 592V439H1437V338Z"  />
<glyph unicode="&#xA6;" glyph-name="brokenbar" horiz-adv-x="400" d="M109 327H292V-429H109V327ZM109 1381H292V625H109V1381Z"  />
<glyph unicode="&#xA7;" glyph-name="section" horiz-adv-x="840" d="M379 992Q405 965 505 890T655 764Q732 687 762 605T792 458Q792 396 768 332T701 215T600 129Q715 8 715 -127Q715 -206 681 -274T574 -386T401 -429Q273 -429 193 -370T113 -215Q113 -166 144 -133T223 -100Q268 -100 296 -126T325 -194Q325 -212 317 -242T308 -284Q308 -315 339 -335T415 -356Q474 -356 512 -313T550 -202Q550 -158 537 -125T477 -46Q461 -30 416 5T314 85T230 152T167 210Q48 329 48 479Q48 583 100 672T248 821Q205 867 177 911T136 997T123 1088Q123 1150 146 1205T213 1299T316 1359T450 1381Q532 1381 596 1353T695 1276T731 1165Q731 1112 701 1079T623 1046Q578 1046 546 1075T514 1144Q514 1163 525 1197T536 1244Q536 1272 511 1289T444 1306Q378 1306 335 1266T292 1163Q292 1134 300 1107T325 1054T379 992ZM564 548Q546 566 510 596T405 681T302 764Q198 693 198 581Q198 489 286 401Q310 377 349 345T432 278T540 192Q591 226 622 273T653 369Q653 459 564 548Z"  />
<glyph unicode="&#xA8;" glyph-name="dieresis" horiz-adv-x="671" d="M111 1377Q156 1377 187 1346T219 1267Q219 1223 187 1190T111 1157Q67 1157 34 1190T0 1267Q0 1313 33 1345T111 1377ZM562 1377Q608 1377 639 1346T671 1267Q671 1223 639 1190T562 1157Q519 1157 486 1190T452 1267Q452 1313 485 1345T562 1377Z"  />
<glyph unicode="&#xA9;" glyph-name="copyright" horiz-adv-x="1506" d="M1092 1094V827H1054Q1041 892 1007 942T921 1019T804 1046Q721 1046 663 1003T573 876T542 677Q542 574 561 498T629 373Q702 300 800 300Q950 300 1064 437V367Q941 238 742 238Q618 238 520 290T368 437T314 651Q314 778 371 880T532 1039T762 1096Q808 1096 846 1089T919 1070T975 1051T1008 1044Q1048 1044 1054 1094H1092ZM754 1381Q948 1381 1113 1285T1374 1023T1471 663Q1471 467 1375 303T1113 42T754 -54Q559 -54 394 42T132 303T36 663Q36 856 132 1022T393 1284T754 1381ZM754 32Q881 32 996 81T1198 217T1334 419T1383 661Q1383 788 1334 903T1198 1105T997 1241T754 1290Q627 1290 512 1242T310 1106T174 904T125 661Q125 534 173 419T309 217T512 81T754 32Z"  />
<glyph unicode="&#xAA;" glyph-name="ordfeminine" horiz-adv-x="691" d="M643 929L675 889Q645 838 594 807T496 775Q447 775 418 797T383 860Q308 810 269 793T187 775Q118 775 75 818T31 927Q31 984 63 1023T171 1096T383 1169V1254Q383 1320 306 1320Q263 1320 244 1305T225 1256Q225 1173 148 1173Q113 1173 91 1192T69 1240Q69 1300 139 1340T317 1381Q389 1381 444 1364T531 1316T562 1240V879Q562 838 581 838Q606 838 643 929ZM383 943V1102Q310 1079 272 1062T218 1025T202 975Q202 942 222 917T270 891Q305 891 350 921L383 943Z"  />
<glyph unicode="&#xAB;" glyph-name="guillemotleft" horiz-adv-x="1070" d="M590 38H520L102 479L520 923H590L369 479L590 38ZM965 38H894L477 479L894 923H965L744 479L965 38Z"  />
<glyph unicode="&#xAC;" glyph-name="logicalnot" horiz-adv-x="1344" d="M129 996H1213V346H1032V814H129V996Z"  />
<glyph unicode="&#xAD;" glyph-name="uni00AD" horiz-adv-x="713" d="M54 356V571H661V356H54Z"  />
<glyph unicode="&#xAE;" glyph-name="registered" horiz-adv-x="1506" d="M369 1078H806Q893 1078 958 1051T1059 975T1096 856Q1096 779 1050 726T915 646L1054 393Q1083 341 1105 320T1159 292V258H915L707 633H659V431Q659 371 668 343T705 304T782 292V258H352V292Q416 292 438 320T460 431V909Q460 990 444 1014T369 1044V1078ZM659 683Q695 679 715 679Q748 679 786 696T851 755T879 860Q879 1034 698 1034H659V683ZM754 1381Q948 1381 1113 1285T1374 1023T1471 663Q1471 467 1375 303T1113 42T754 -54Q559 -54 394 42T132 303T36 663Q36 856 132 1022T393 1284T754 1381ZM754 32Q881 32 996 81T1198 217T1334 419T1383 661Q1383 788 1334 903T1198 1105T997 1241T754 1290Q627 1290 512 1242T310 1106T174 904T125 661Q125 534 173 419T309 217T512 81T754 32Z"  />
<glyph unicode="&#xAF;" glyph-name="macron" horiz-adv-x="671" d="M-10 1183V1348H683V1183H-10Z"  />
<glyph unicode="&#xB0;" glyph-name="degree" horiz-adv-x="806" d="M403 1269Q328 1269 274 1216T219 1086Q219 1011 274 957T403 903Q479 903 532 957T586 1086Q586 1137 562 1178T496 1244T403 1269ZM403 1381Q482 1381 550 1341T658 1234T698 1086Q698 1006 659 939T551 832T403 792Q324 792 256 831T149 939T109 1086Q109 1166 148 1234T256 1341T403 1381Z"  />
<glyph unicode="&#xB1;" glyph-name="plusminus" horiz-adv-x="1344" d="M129 990H581V1441H762V990H1213V808H762V356H581V808H129V990ZM129 181H1213V0H129V181Z"  />
<glyph unicode="&#xB2;" glyph-name="twosuperior" horiz-adv-x="683" d="M123 1157H60Q74 1225 113 1275T212 1353T342 1381Q409 1381 463 1356T548 1285T579 1183Q579 1106 510 1017T284 802V798H518Q552 798 569 838H637L571 663H36V698L167 800Q251 865 305 919T383 1022T407 1123Q407 1181 366 1220T264 1260Q164 1260 123 1157Z"  />
<glyph unicode="&#xB3;" glyph-name="threesuperior" horiz-adv-x="683" d="M167 1207H109Q136 1289 199 1335T350 1381Q435 1381 489 1340T544 1240Q544 1194 516 1157T419 1075Q584 1019 584 887Q584 822 543 766T431 677T275 645Q204 645 154 669T104 723Q104 747 125 761T177 775Q203 775 231 762T287 735T338 721Q379 721 403 749T427 825Q427 894 368 940T202 1002V1044Q284 1059 333 1099T383 1195Q383 1235 358 1259T288 1284Q218 1284 167 1207Z"  />
<glyph unicode="&#xB4;" glyph-name="acute" horiz-adv-x="671" d="M215 1096L323 1439H575L288 1096H215Z"  />
<glyph unicode="&#xB5;" glyph-name="uni00B5" horiz-adv-x="1121" d="M52 931H296V254Q296 100 437 100Q502 100 553 122T677 229V931H898V246Q898 176 907 150T948 123Q986 123 999 154T1021 268H1068Q1068 126 1009 48T848 -31Q777 -31 730 15T677 141H673Q625 66 551 18T348 -31Q292 -31 232 -7T145 44Q145 -31 154 -79T180 -196T198 -300Q198 -429 94 -429Q48 -429 21 -395T-6 -298Q-6 -271 11 -201T40 -52T52 145V931Z"  />
<glyph unicode="&#xB6;" glyph-name="paragraph" horiz-adv-x="1088" d="M1054 1356V1318H1012Q954 1318 930 1299T900 1241T894 1110V-429H823V1300H631V-429H556V584Q421 590 330 615T181 691Q122 745 95 821T67 973Q67 1080 118 1168T273 1306T526 1356H1054Z"  />
<glyph unicode="&#xB7;" glyph-name="middot" horiz-adv-x="588" d="M294 829Q359 829 405 783T452 671Q452 606 406 560T294 514Q229 514 183 560T137 671Q137 736 183 782T294 829Z"  />
<glyph unicode="&#xB8;" glyph-name="cedilla" horiz-adv-x="671" d="M102 -442L119 -373Q140 -375 175 -375Q342 -375 342 -280Q342 -204 190 -204L338 -27H413L371 -85Q466 -85 518 -128T571 -242Q571 -338 478 -394T221 -450Q146 -450 102 -442Z"  />
<glyph unicode="&#xB9;" glyph-name="onesuperior" horiz-adv-x="683" d="M446 1381V810Q446 753 468 731T558 709V663H152V709Q220 709 243 729T266 810V1177Q266 1244 234 1244Q214 1244 152 1217L129 1258L397 1381H446Z"  />
<glyph unicode="&#xBA;" glyph-name="ordmasculine" horiz-adv-x="771" d="M731 1084Q731 954 627 865T371 775Q277 775 203 814T85 921T42 1073Q42 1157 88 1228T215 1340T393 1381Q489 1381 566 1343T687 1236T731 1084ZM538 1023Q538 1161 493 1237T365 1314Q301 1314 265 1263T229 1121Q229 995 277 919T407 842Q538 842 538 1023Z"  />
<glyph unicode="&#xBB;" glyph-name="guillemotright" horiz-adv-x="1070" d="M479 38L702 479L479 923H550L967 479L550 38H479ZM104 38L327 479L104 923H175L592 479L175 38H104Z"  />
<glyph unicode="&#xBC;" glyph-name="onequarter" horiz-adv-x="1612" d="M1455 0H1282V175H969V284L1344 717H1455V284H1566V175H1455V0ZM1282 284V510L1084 284H1282ZM450 1381V810Q450 753 472 731T562 709V663H155V709Q224 709 247 729T270 810V1177Q270 1244 238 1244Q217 1244 155 1217L133 1258L401 1381H450ZM450 -20H350L1159 1381H1258L450 -20Z"  />
<glyph unicode="&#xBD;" glyph-name="onehalf" horiz-adv-x="1612" d="M1048 494H985Q999 562 1038 612T1137 689T1267 717Q1334 717 1388 692T1473 622T1504 520Q1504 443 1435 354T1209 139V135H1443Q1477 135 1494 175H1562L1496 0H961V34L1092 137Q1176 202 1230 256T1308 359T1332 460Q1332 518 1291 557T1189 596Q1089 596 1048 494ZM450 -20H350L1159 1381H1258L450 -20ZM450 1381V810Q450 753 472 731T562 709V663H155V709Q224 709 247 729T270 810V1177Q270 1244 238 1244Q217 1244 155 1217L133 1258L401 1381H450Z"  />
<glyph unicode="&#xBE;" glyph-name="threequarters" horiz-adv-x="1612" d="M452 -20H352L1161 1381H1260L452 -20ZM171 1207H113Q142 1290 204 1335T354 1381Q439 1381 493 1340T548 1240Q548 1194 520 1157T423 1075Q588 1019 588 887Q588 822 547 766T435 677T278 645Q209 645 159 668T109 723Q109 746 129 760T181 775Q207 775 235 762T291 735T342 721Q383 721 407 749T431 825Q431 894 372 940T206 1002V1044Q290 1059 338 1099T387 1195Q387 1235 362 1259T292 1284Q222 1284 171 1207ZM1455 0H1282V175H969V284L1344 717H1455V284H1566V175H1455V0ZM1282 284V510L1084 284H1282Z"  />
<glyph unicode="&#xBF;" glyph-name="questiondown" horiz-adv-x="840" d="M717 -456H665Q665 -427 643 -405Q628 -391 529 -385T349 -359T204 -275Q98 -167 98 23Q98 177 171 250Q207 285 282 321T383 372T413 427L425 523H488V310Q488 222 467 202Q459 193 393 171T291 136T229 96Q198 65 198 10Q198 -38 229 -71Q315 -155 619 -155Q677 -155 697 -171T717 -232V-456ZM458 648Q393 648 347 694T300 806Q300 871 346 917T458 963Q523 963 569 917T615 806Q615 741 569 695T458 648Z"  />
<glyph unicode="&#xC0;" glyph-name="Agrave" horiz-adv-x="1661" d="M427 363L389 280Q354 204 354 173Q354 68 522 65V0H34V65Q106 67 162 117T270 280L778 1381H836L1441 179Q1464 134 1488 111T1542 78T1625 65V0H1008V65Q1091 66 1121 81T1152 135Q1152 175 1115 246L1052 363H427ZM996 471L725 1008L477 471H996ZM952 1473H879L592 1816H844L952 1473Z"  />
<glyph unicode="&#xC1;" glyph-name="Aacute" horiz-adv-x="1661" d="M427 363L389 280Q354 204 354 173Q354 68 522 65V0H34V65Q106 67 162 117T270 280L778 1381H836L1441 179Q1464 134 1488 111T1542 78T1625 65V0H1008V65Q1091 66 1121 81T1152 135Q1152 175 1115 246L1052 363H427ZM996 471L725 1008L477 471H996ZM711 1473L819 1816H1071L784 1473H711Z"  />
<glyph unicode="&#xC2;" glyph-name="Acircumflex" horiz-adv-x="1661" d="M427 363L389 280Q354 204 354 173Q354 68 522 65V0H34V65Q106 67 162 117T270 280L778 1381H836L1441 179Q1464 134 1488 111T1542 78T1625 65V0H1008V65Q1091 66 1121 81T1152 135Q1152 175 1115 246L1052 363H427ZM996 471L725 1008L477 471H996ZM603 1455H542L719 1832H948L1121 1455H1069L829 1673L603 1455Z"  />
<glyph unicode="&#xC3;" glyph-name="Atilde" horiz-adv-x="1661" d="M427 363L389 280Q354 204 354 173Q354 68 522 65V0H34V65Q106 67 162 117T270 280L778 1381H836L1441 179Q1464 134 1488 111T1542 78T1625 65V0H1008V65Q1091 66 1121 81T1152 135Q1152 175 1115 246L1052 363H427ZM996 471L725 1008L477 471H996ZM546 1510H492Q495 1624 556 1700T704 1777Q743 1777 782 1762T876 1715T954 1673T1008 1663Q1049 1663 1074 1690T1115 1777H1171Q1158 1652 1101 1581T961 1510Q926 1510 896 1521T807 1563T720 1606T663 1619Q569 1619 546 1510Z"  />
<glyph unicode="&#xC4;" glyph-name="Adieresis" horiz-adv-x="1661" d="M427 363L389 280Q354 204 354 173Q354 68 522 65V0H34V65Q106 67 162 117T270 280L778 1381H836L1441 179Q1464 134 1488 111T1542 78T1625 65V0H1008V65Q1091 66 1121 81T1152 135Q1152 175 1115 246L1052 363H427ZM996 471L725 1008L477 471H996ZM607 1754Q652 1754 683 1723T715 1644Q715 1600 683 1567T607 1534Q563 1534 530 1567T496 1644Q496 1690 529 1722T607 1754ZM1058 1754Q1104 1754 1135 1723T1167 1644Q1167 1600 1135 1567T1058 1534Q1015 1534 982 1567T948 1644Q948 1690 981 1722T1058 1754Z"  />
<glyph unicode="&#xC5;" glyph-name="Aring" horiz-adv-x="1661" d="M427 363L389 280Q354 204 354 173Q354 68 522 65V0H34V65Q106 67 162 117T270 280L778 1381H836L1441 179Q1464 134 1488 111T1542 78T1625 65V0H1008V65Q1091 66 1121 81T1152 135Q1152 175 1115 246L1052 363H427ZM996 471L725 1008L477 471H996ZM833 1834Q883 1834 923 1810T989 1744T1014 1652Q1014 1576 961 1524T833 1471Q758 1471 705 1524T651 1652Q651 1728 703 1781T833 1834ZM833 1763Q787 1763 754 1731T721 1652Q721 1608 754 1575T833 1542Q861 1542 886 1557T928 1598T944 1652Q944 1682 928 1708T887 1748T833 1763Z"  />
<glyph unicode="&#xC6;" glyph-name="AE" horiz-adv-x="2144" d="M2027 383H2094L1977 0H760V65H825Q922 65 963 108T1004 250V518H552L403 278Q348 190 348 157Q348 110 391 88T520 65V0H36V65Q103 77 167 141T319 344L832 1169Q854 1204 854 1233Q854 1292 760 1292H685V1356H1950V1042H1888Q1855 1131 1824 1172T1743 1231T1604 1248H1282V768H1576Q1686 768 1722 810T1759 955H1825V463H1759Q1759 580 1723 619T1590 659H1282V232Q1282 179 1290 153T1322 118T1398 109H1594Q1690 109 1753 120T1864 161T1950 244T2027 383ZM1004 627V1248H1000L621 627H1004Z"  />
<glyph unicode="&#xC7;" glyph-name="Ccedilla" horiz-adv-x="1556" d="M1446 387L1509 342Q1303 -38 869 -38Q687 -38 540 20T289 179T134 407T81 665Q81 859 187 1023T479 1284T883 1381Q971 1381 1041 1367T1193 1328T1296 1304Q1325 1304 1343 1324T1362 1381H1427L1461 929H1394Q1364 1010 1312 1076T1198 1187T1061 1258T909 1284Q761 1284 643 1207T460 988T395 671Q395 502 463 369T657 162T941 87Q1256 87 1446 387ZM546 -442L563 -373Q584 -375 619 -375Q786 -375 786 -280Q786 -204 634 -204L782 -27H857L815 -85Q910 -85 962 -128T1015 -242Q1015 -338 922 -394T665 -450Q590 -450 546 -442Z"  />
<glyph unicode="&#xC8;" glyph-name="Egrave" horiz-adv-x="1429" d="M1240 1356V1042H1179Q1137 1165 1082 1206T929 1248H512V768H873Q970 768 1011 808T1052 955H1119V463H1052Q1052 578 1015 618T873 659H512V240Q512 182 520 156T551 119T627 109H933Q1037 109 1104 138T1219 227T1318 391H1383L1269 0H29V65Q113 65 156 81T216 141T234 275V1082Q234 1170 217 1215T157 1276T29 1292V1356H1240ZM835 1473H762L475 1816H727L835 1473Z"  />
<glyph unicode="&#xC9;" glyph-name="Eacute" horiz-adv-x="1429" d="M1240 1356V1042H1179Q1137 1165 1082 1206T929 1248H512V768H873Q970 768 1011 808T1052 955H1119V463H1052Q1052 578 1015 618T873 659H512V240Q512 182 520 156T551 119T627 109H933Q1037 109 1104 138T1219 227T1318 391H1383L1269 0H29V65Q113 65 156 81T216 141T234 275V1082Q234 1170 217 1215T157 1276T29 1292V1356H1240ZM594 1473L702 1816H954L667 1473H594Z"  />
<glyph unicode="&#xCA;" glyph-name="Ecircumflex" horiz-adv-x="1429" d="M1240 1356V1042H1179Q1137 1165 1082 1206T929 1248H512V768H873Q970 768 1011 808T1052 955H1119V463H1052Q1052 578 1015 618T873 659H512V240Q512 182 520 156T551 119T627 109H933Q1037 109 1104 138T1219 227T1318 391H1383L1269 0H29V65Q113 65 156 81T216 141T234 275V1082Q234 1170 217 1215T157 1276T29 1292V1356H1240ZM486 1455H425L602 1832H831L1004 1455H952L712 1673L486 1455Z"  />
<glyph unicode="&#xCB;" glyph-name="Edieresis" horiz-adv-x="1429" d="M1240 1356V1042H1179Q1137 1165 1082 1206T929 1248H512V768H873Q970 768 1011 808T1052 955H1119V463H1052Q1052 578 1015 618T873 659H512V240Q512 182 520 156T551 119T627 109H933Q1037 109 1104 138T1219 227T1318 391H1383L1269 0H29V65Q113 65 156 81T216 141T234 275V1082Q234 1170 217 1215T157 1276T29 1292V1356H1240ZM490 1754Q535 1754 566 1723T598 1644Q598 1600 566 1567T490 1534Q446 1534 413 1567T379 1644Q379 1690 412 1722T490 1754ZM941 1754Q987 1754 1018 1723T1050 1644Q1050 1600 1018 1567T941 1534Q898 1534 865 1567T831 1644Q831 1690 864 1722T941 1754Z"  />
<glyph unicode="&#xCC;" glyph-name="Igrave" horiz-adv-x="840" d="M798 0H40V65H92Q210 65 248 109T286 275V1082Q286 1166 270 1210T214 1273T92 1292H40V1356H798V1292H756Q679 1292 639 1274T581 1211T564 1082V275Q564 192 581 147T638 83T756 65H798V0ZM541 1473H468L181 1816H433L541 1473Z"  />
<glyph unicode="&#xCD;" glyph-name="Iacute" horiz-adv-x="840" d="M798 0H40V65H92Q210 65 248 109T286 275V1082Q286 1166 270 1210T214 1273T92 1292H40V1356H798V1292H756Q679 1292 639 1274T581 1211T564 1082V275Q564 192 581 147T638 83T756 65H798V0ZM300 1473L408 1816H660L373 1473H300Z"  />
<glyph unicode="&#xCE;" glyph-name="Icircumflex" horiz-adv-x="840" d="M798 0H40V65H92Q210 65 248 109T286 275V1082Q286 1166 270 1210T214 1273T92 1292H40V1356H798V1292H756Q679 1292 639 1274T581 1211T564 1082V275Q564 192 581 147T638 83T756 65H798V0ZM192 1455H131L308 1832H537L710 1455H658L418 1673L192 1455Z"  />
<glyph unicode="&#xCF;" glyph-name="Idieresis" horiz-adv-x="840" d="M798 0H40V65H92Q210 65 248 109T286 275V1082Q286 1166 270 1210T214 1273T92 1292H40V1356H798V1292H756Q679 1292 639 1274T581 1211T564 1082V275Q564 192 581 147T638 83T756 65H798V0ZM196 1754Q241 1754 272 1723T304 1644Q304 1600 272 1567T196 1534Q152 1534 119 1567T85 1644Q85 1690 118 1722T196 1754ZM647 1754Q693 1754 724 1723T756 1644Q756 1600 724 1567T647 1534Q604 1534 571 1567T537 1644Q537 1690 570 1722T647 1754Z"  />
<glyph unicode="&#xD0;" glyph-name="Eth" horiz-adv-x="1786" d="M48 1356H943Q1137 1356 1284 1297T1526 1139T1668 921T1715 679Q1715 514 1627 358T1352 101T887 0H48V65H111Q188 65 228 83T286 146T304 275V659H48V768H304V1082Q304 1200 264 1246T123 1292H48V1356ZM583 1223V768H985V659H583V141Q621 127 701 116T856 104Q996 104 1100 149T1271 273T1368 454T1400 673Q1400 849 1330 979T1129 1181T823 1252Q700 1252 583 1223Z"  />
<glyph unicode="&#xD1;" glyph-name="Ntilde" horiz-adv-x="1786" d="M1150 1356H1733V1292H1669Q1604 1292 1568 1272T1516 1205T1500 1082V-12H1461L400 1050V275Q400 192 417 147T475 83T592 65H653V0H50V65H127Q215 65 256 108T298 252V1148Q249 1212 185 1249T50 1292V1356H484L1398 431V1104Q1398 1202 1359 1247T1229 1292H1150V1356ZM608 1510H554Q557 1624 618 1700T766 1777Q805 1777 844 1762T938 1715T1016 1673T1070 1663Q1111 1663 1136 1690T1177 1777H1233Q1220 1652 1163 1581T1023 1510Q988 1510 958 1521T869 1563T782 1606T725 1619Q631 1619 608 1510Z"  />
<glyph unicode="&#xD2;" glyph-name="Ograve" horiz-adv-x="1661" d="M73 671Q73 865 173 1028T447 1286T829 1381Q1037 1381 1210 1287T1485 1029T1586 671Q1586 477 1485 314T1211 57T829 -38Q621 -38 448 56T174 314T73 671ZM387 671Q387 525 416 413T502 220T641 99T829 58Q936 58 1017 98T1155 218T1241 411T1271 671Q1271 865 1220 1002T1068 1211T829 1284Q689 1284 590 1212T439 1002T387 671ZM952 1473H879L592 1816H844L952 1473Z"  />
<glyph unicode="&#xD3;" glyph-name="Oacute" horiz-adv-x="1661" d="M73 671Q73 865 173 1028T447 1286T829 1381Q1037 1381 1210 1287T1485 1029T1586 671Q1586 477 1485 314T1211 57T829 -38Q621 -38 448 56T174 314T73 671ZM387 671Q387 525 416 413T502 220T641 99T829 58Q936 58 1017 98T1155 218T1241 411T1271 671Q1271 865 1220 1002T1068 1211T829 1284Q689 1284 590 1212T439 1002T387 671ZM711 1473L819 1816H1071L784 1473H711Z"  />
<glyph unicode="&#xD4;" glyph-name="Ocircumflex" horiz-adv-x="1661" d="M73 671Q73 865 173 1028T447 1286T829 1381Q1037 1381 1210 1287T1485 1029T1586 671Q1586 477 1485 314T1211 57T829 -38Q621 -38 448 56T174 314T73 671ZM387 671Q387 525 416 413T502 220T641 99T829 58Q936 58 1017 98T1155 218T1241 411T1271 671Q1271 865 1220 1002T1068 1211T829 1284Q689 1284 590 1212T439 1002T387 671ZM603 1455H542L719 1832H948L1121 1455H1069L829 1673L603 1455Z"  />
<glyph unicode="&#xD5;" glyph-name="Otilde" horiz-adv-x="1661" d="M73 671Q73 865 173 1028T447 1286T829 1381Q1037 1381 1210 1287T1485 1029T1586 671Q1586 477 1485 314T1211 57T829 -38Q621 -38 448 56T174 314T73 671ZM387 671Q387 525 416 413T502 220T641 99T829 58Q936 58 1017 98T1155 218T1241 411T1271 671Q1271 865 1220 1002T1068 1211T829 1284Q689 1284 590 1212T439 1002T387 671ZM546 1510H492Q495 1624 556 1700T704 1777Q743 1777 782 1762T876 1715T954 1673T1008 1663Q1049 1663 1074 1690T1115 1777H1171Q1158 1652 1101 1581T961 1510Q926 1510 896 1521T807 1563T720 1606T663 1619Q569 1619 546 1510Z"  />
<glyph unicode="&#xD6;" glyph-name="Odieresis" horiz-adv-x="1661" d="M73 671Q73 865 173 1028T447 1286T829 1381Q1037 1381 1210 1287T1485 1029T1586 671Q1586 477 1485 314T1211 57T829 -38Q621 -38 448 56T174 314T73 671ZM387 671Q387 525 416 413T502 220T641 99T829 58Q936 58 1017 98T1155 218T1241 411T1271 671Q1271 865 1220 1002T1068 1211T829 1284Q689 1284 590 1212T439 1002T387 671ZM607 1754Q652 1754 683 1723T715 1644Q715 1600 683 1567T607 1534Q563 1534 530 1567T496 1644Q496 1690 529 1722T607 1754ZM1058 1754Q1104 1754 1135 1723T1167 1644Q1167 1600 1135 1567T1058 1534Q1015 1534 982 1567T948 1644Q948 1690 981 1722T1058 1754Z"  />
<glyph unicode="&#xD7;" glyph-name="multiply" horiz-adv-x="1344" d="M292 1179L673 798L1052 1177L1179 1050L800 671L1181 290L1052 161L671 542L292 163L163 292L542 671L163 1050L292 1179Z"  />
<glyph unicode="&#xD8;" glyph-name="Oslash" horiz-adv-x="1661" d="M1201 1044L500 223Q616 58 829 58Q936 58 1017 98T1155 218T1241 411T1271 671Q1271 904 1201 1044ZM73 671Q73 865 173 1028T447 1286T829 1381Q945 1381 1062 1347T1261 1256L1369 1381L1439 1320L1336 1199Q1414 1137 1469 1053T1555 869T1586 671Q1586 477 1485 314T1211 57T829 -38Q747 -38 667 -22T513 24T387 92L275 -38L204 25L312 152Q195 256 134 389T73 671ZM452 312L1150 1129Q1101 1199 1019 1241T829 1284Q689 1284 590 1212T439 1002T387 671Q387 453 452 312Z"  />
<glyph unicode="&#xD9;" glyph-name="Ugrave" horiz-adv-x="1786" d="M38 1356H792V1292H746Q668 1292 626 1274T567 1211T550 1082V481Q550 354 607 266T758 135T965 92Q1160 92 1291 203T1423 500V1104Q1423 1207 1380 1249T1252 1292H1198V1356H1746V1292H1715Q1638 1292 1598 1274T1541 1211T1523 1082V512Q1523 328 1439 204T1213 21T907 -38Q734 -38 588 17T357 185T272 452V1106Q272 1204 231 1248T92 1292H38V1356ZM1096 1473H1023L736 1816H988L1096 1473Z"  />
<glyph unicode="&#xDA;" glyph-name="Uacute" horiz-adv-x="1786" d="M38 1356H792V1292H746Q668 1292 626 1274T567 1211T550 1082V481Q550 354 607 266T758 135T965 92Q1160 92 1291 203T1423 500V1104Q1423 1207 1380 1249T1252 1292H1198V1356H1746V1292H1715Q1638 1292 1598 1274T1541 1211T1523 1082V512Q1523 328 1439 204T1213 21T907 -38Q734 -38 588 17T357 185T272 452V1106Q272 1204 231 1248T92 1292H38V1356ZM813 1473L921 1816H1173L886 1473H813Z"  />
<glyph unicode="&#xDB;" glyph-name="Ucircumflex" horiz-adv-x="1786" d="M38 1356H792V1292H746Q668 1292 626 1274T567 1211T550 1082V481Q550 354 607 266T758 135T965 92Q1160 92 1291 203T1423 500V1104Q1423 1207 1380 1249T1252 1292H1198V1356H1746V1292H1715Q1638 1292 1598 1274T1541 1211T1523 1082V512Q1523 328 1439 204T1213 21T907 -38Q734 -38 588 17T357 185T272 452V1106Q272 1204 231 1248T92 1292H38V1356ZM705 1455H644L821 1832H1050L1223 1455H1171L931 1673L705 1455Z"  />
<glyph unicode="&#xDC;" glyph-name="Udieresis" horiz-adv-x="1786" d="M38 1356H792V1292H746Q668 1292 626 1274T567 1211T550 1082V481Q550 354 607 266T758 135T965 92Q1160 92 1291 203T1423 500V1104Q1423 1207 1380 1249T1252 1292H1198V1356H1746V1292H1715Q1638 1292 1598 1274T1541 1211T1523 1082V512Q1523 328 1439 204T1213 21T907 -38Q734 -38 588 17T357 185T272 452V1106Q272 1204 231 1248T92 1292H38V1356ZM709 1754Q754 1754 785 1723T817 1644Q817 1600 785 1567T709 1534Q665 1534 632 1567T598 1644Q598 1690 631 1722T709 1754ZM1160 1754Q1206 1754 1237 1723T1269 1644Q1269 1600 1237 1567T1160 1534Q1117 1534 1084 1567T1050 1644Q1050 1690 1083 1722T1160 1754Z"  />
<glyph unicode="&#xDD;" glyph-name="Yacute" horiz-adv-x="1661" d="M1183 0H425V65H490Q587 65 625 111T663 275V577L258 1117Q191 1205 162 1238T108 1282T36 1292V1356H675V1292Q546 1292 546 1233Q546 1213 566 1179T643 1070L905 713L1163 1048Q1261 1178 1261 1223Q1261 1261 1229 1276T1127 1292H1084V1356H1625V1292Q1534 1292 1471 1249T1332 1108L941 590V275Q941 192 958 147T1017 83T1137 65H1183V0ZM711 1473L819 1816H1071L784 1473H711Z"  />
<glyph unicode="&#xDE;" glyph-name="Thorn" horiz-adv-x="1304" d="M516 1070H727Q856 1070 975 1027T1168 896T1242 683Q1242 574 1182 485T1018 344T788 292Q634 292 516 365V275Q516 183 534 140T599 81T731 65V0H25V65Q113 65 158 81T220 143T238 275V1082Q238 1172 220 1216T156 1276T25 1292V1356H729V1292Q636 1292 592 1273T532 1207T516 1070ZM516 941V454Q597 417 669 417Q740 417 799 453T893 554T927 698Q927 778 892 839T793 932T645 965Q575 965 516 941Z"  />
<glyph unicode="&#xDF;" glyph-name="germandbls" horiz-adv-x="1199" d="M592 740V823Q690 830 729 878T769 1034Q769 1152 723 1218T588 1284Q502 1284 465 1234T427 1075V210Q427 161 435 129T462 83T512 65V0H62V65Q111 65 137 76T173 118T183 210V937Q183 1087 241 1187T399 1334T623 1381Q738 1381 832 1341T979 1228T1032 1068Q1032 983 979 921T818 825V821Q913 806 981 754T1084 619T1119 425Q1119 332 1094 253T1022 114T912 19T780 -16Q724 -16 674 9T595 79T566 173Q566 214 589 240T648 266Q676 266 694 255T723 222T733 169Q733 159 733 152T731 135Q731 81 782 81Q873 81 873 282Q873 712 592 740Z"  />
<glyph unicode="&#xE0;" glyph-name="agrave" horiz-adv-x="1070" d="M1002 185L1036 139Q988 60 914 11T769 -38Q704 -38 659 -1T613 104Q613 113 615 131Q421 -38 292 -38Q226 -38 175 -7T94 80T65 208Q65 291 102 350T214 454T413 540L615 606V736Q615 817 583 850T473 883Q332 883 332 778Q332 770 332 765T333 750Q333 697 307 665T229 633Q185 633 155 661T125 733Q125 800 172 852T304 934T494 963Q600 963 682 938T811 860T858 733V200Q858 115 903 115Q948 115 1002 185ZM615 522Q449 474 372 420T294 286Q294 225 332 180T421 135Q461 135 519 164T615 232V522ZM656 1093H583L296 1436H548L656 1093Z"  />
<glyph unicode="&#xE1;" glyph-name="aacute" horiz-adv-x="1070" d="M1002 185L1036 139Q988 60 914 11T769 -38Q704 -38 659 -1T613 104Q613 113 615 131Q421 -38 292 -38Q226 -38 175 -7T94 80T65 208Q65 291 102 350T214 454T413 540L615 606V736Q615 817 583 850T473 883Q332 883 332 778Q332 770 332 765T333 750Q333 697 307 665T229 633Q185 633 155 661T125 733Q125 800 172 852T304 934T494 963Q600 963 682 938T811 860T858 733V200Q858 115 903 115Q948 115 1002 185ZM615 522Q449 474 372 420T294 286Q294 225 332 180T421 135Q461 135 519 164T615 232V522ZM415 1093L523 1436H775L488 1093H415Z"  />
<glyph unicode="&#xE2;" glyph-name="acircumflex" horiz-adv-x="1070" d="M1002 185L1036 139Q988 60 914 11T769 -38Q704 -38 659 -1T613 104Q613 113 615 131Q421 -38 292 -38Q226 -38 175 -7T94 80T65 208Q65 291 102 350T214 454T413 540L615 606V736Q615 817 583 850T473 883Q332 883 332 778Q332 770 332 765T333 750Q333 697 307 665T229 633Q185 633 155 661T125 733Q125 800 172 852T304 934T494 963Q600 963 682 938T811 860T858 733V200Q858 115 903 115Q948 115 1002 185ZM615 522Q449 474 372 420T294 286Q294 225 332 180T421 135Q461 135 519 164T615 232V522ZM307 1075H246L423 1452H652L825 1075H773L533 1293L307 1075Z"  />
<glyph unicode="&#xE3;" glyph-name="atilde" horiz-adv-x="1070" d="M1002 185L1036 139Q988 60 914 11T769 -38Q704 -38 659 -1T613 104Q613 113 615 131Q421 -38 292 -38Q226 -38 175 -7T94 80T65 208Q65 291 102 350T214 454T413 540L615 606V736Q615 817 583 850T473 883Q332 883 332 778Q332 770 332 765T333 750Q333 697 307 665T229 633Q185 633 155 661T125 733Q125 800 172 852T304 934T494 963Q600 963 682 938T811 860T858 733V200Q858 115 903 115Q948 115 1002 185ZM615 522Q449 474 372 420T294 286Q294 225 332 180T421 135Q461 135 519 164T615 232V522ZM250 1130H196Q199 1244 260 1320T408 1397Q447 1397 486 1382T580 1335T658 1293T712 1283Q753 1283 778 1310T819 1397H875Q862 1272 805 1201T665 1130Q630 1130 600 1141T511 1183T424 1226T367 1239Q273 1239 250 1130Z"  />
<glyph unicode="&#xE4;" glyph-name="adieresis" horiz-adv-x="1070" d="M1002 185L1036 139Q988 60 914 11T769 -38Q704 -38 659 -1T613 104Q613 113 615 131Q421 -38 292 -38Q226 -38 175 -7T94 80T65 208Q65 291 102 350T214 454T413 540L615 606V736Q615 817 583 850T473 883Q332 883 332 778Q332 770 332 765T333 750Q333 697 307 665T229 633Q185 633 155 661T125 733Q125 800 172 852T304 934T494 963Q600 963 682 938T811 860T858 733V200Q858 115 903 115Q948 115 1002 185ZM615 522Q449 474 372 420T294 286Q294 225 332 180T421 135Q461 135 519 164T615 232V522ZM311 1374Q356 1374 387 1343T419 1264Q419 1220 387 1187T311 1154Q267 1154 234 1187T200 1264Q200 1310 233 1342T311 1374ZM762 1374Q808 1374 839 1343T871 1264Q871 1220 839 1187T762 1154Q719 1154 686 1187T652 1264Q652 1310 685 1342T762 1374Z"  />
<glyph unicode="&#xE5;" glyph-name="aring" horiz-adv-x="1070" d="M1002 185L1036 139Q988 60 914 11T769 -38Q704 -38 659 -1T613 104Q613 113 615 131Q421 -38 292 -38Q226 -38 175 -7T94 80T65 208Q65 291 102 350T214 454T413 540L615 606V736Q615 817 583 850T473 883Q332 883 332 778Q332 770 332 765T333 750Q333 697 307 665T229 633Q185 633 155 661T125 733Q125 800 172 852T304 934T494 963Q600 963 682 938T811 860T858 733V200Q858 115 903 115Q948 115 1002 185ZM615 522Q449 474 372 420T294 286Q294 225 332 180T421 135Q461 135 519 164T615 232V522ZM536 1454Q586 1454 626 1430T692 1364T717 1272Q717 1196 664 1144T536 1091Q461 1091 408 1144T354 1272Q354 1348 406 1401T536 1454ZM536 1383Q490 1383 457 1351T424 1272Q424 1228 457 1195T536 1162Q564 1162 589 1177T631 1218T647 1272Q647 1302 631 1328T590 1368T536 1383Z"  />
<glyph unicode="&#xE6;" glyph-name="ae" horiz-adv-x="1429" d="M1334 340L1383 319Q1342 203 1284 124T1151 4T990 -38Q923 -38 859 -13T743 59T653 171Q499 51 422 7T290 -38Q228 -38 177 -5T95 84T65 208Q65 277 91 329T177 427T334 515T592 608V696Q592 768 583 807T546 865T463 885Q412 885 375 860T337 788Q338 775 338 764T338 738Q338 690 309 663T229 635Q185 635 157 662T129 733Q129 832 231 897T488 963Q644 963 746 877Q811 924 866 943T988 963Q1094 963 1181 916T1322 774T1375 538H836Q840 360 901 268T1078 175Q1153 175 1213 212T1330 335L1334 340ZM619 246Q592 321 592 495V523Q434 473 365 417T296 284Q296 227 333 182T419 137Q444 137 469 146T529 179T619 246ZM1112 641V662Q1112 875 973 875Q924 875 894 850T850 772T836 641H1112Z"  />
<glyph unicode="&#xE7;" glyph-name="ccedilla" horiz-adv-x="946" d="M860 308L900 270Q865 178 801 108T656 0T488 -38Q396 -38 317 -3T177 99T84 255T52 444Q52 592 115 711T289 897T542 963Q612 963 672 948T774 908T840 846T865 766Q865 713 828 680T731 646Q671 646 647 675T607 761T570 846T490 875Q423 875 374 838T298 732T270 575Q270 461 313 369T433 224T604 171Q749 171 860 308ZM238 -445L255 -376Q276 -378 311 -378Q478 -378 478 -283Q478 -207 326 -207L474 -30H549L507 -88Q602 -88 654 -131T707 -245Q707 -341 614 -397T357 -453Q282 -453 238 -445Z"  />
<glyph unicode="&#xE8;" glyph-name="egrave" horiz-adv-x="946" d="M852 342L903 314Q852 159 741 61T481 -38Q358 -38 261 26T110 204T56 463Q56 715 188 839T498 963Q608 963 698 916T839 785T891 600V540H275Q284 377 371 276T588 175Q668 175 740 222T852 342ZM275 643H629Q632 663 632 682Q632 764 584 819T463 875Q412 875 372 846T305 764T275 643ZM623 1093H550L263 1436H515L623 1093Z"  />
<glyph unicode="&#xE9;" glyph-name="eacute" horiz-adv-x="946" d="M852 342L903 314Q852 159 741 61T481 -38Q358 -38 261 26T110 204T56 463Q56 715 188 839T498 963Q608 963 698 916T839 785T891 600V540H275Q284 377 371 276T588 175Q668 175 740 222T852 342ZM275 643H629Q632 663 632 682Q632 764 584 819T463 875Q412 875 372 846T305 764T275 643ZM352 1093L460 1436H712L425 1093H352Z"  />
<glyph unicode="&#xEA;" glyph-name="ecircumflex" horiz-adv-x="946" d="M852 342L903 314Q852 159 741 61T481 -38Q358 -38 261 26T110 204T56 463Q56 715 188 839T498 963Q608 963 698 916T839 785T891 600V540H275Q284 377 371 276T588 175Q668 175 740 222T852 342ZM275 643H629Q632 663 632 682Q632 764 584 819T463 875Q412 875 372 846T305 764T275 643ZM244 1075H183L360 1452H589L762 1075H710L470 1293L244 1075Z"  />
<glyph unicode="&#xEB;" glyph-name="edieresis" horiz-adv-x="946" d="M852 342L903 314Q852 159 741 61T481 -38Q358 -38 261 26T110 204T56 463Q56 715 188 839T498 963Q608 963 698 916T839 785T891 600V540H275Q284 377 371 276T588 175Q668 175 740 222T852 342ZM275 643H629Q632 663 632 682Q632 764 584 819T463 875Q412 875 372 846T305 764T275 643ZM248 1374Q293 1374 324 1343T356 1264Q356 1220 324 1187T248 1154Q204 1154 171 1187T137 1264Q137 1310 170 1342T248 1374ZM699 1374Q745 1374 776 1343T808 1264Q808 1220 776 1187T699 1154Q656 1154 623 1187T589 1264Q589 1310 622 1342T699 1374Z"  />
<glyph unicode="&#xEC;" glyph-name="igrave" horiz-adv-x="588" d="M548 0H25V65Q36 64 56 64Q101 64 126 77T161 121T171 210V673Q171 834 81 834Q59 834 38 827L25 891L329 963H415V210Q415 146 426 116T465 76T548 65V0ZM417 1093H344L57 1436H309L417 1093Z"  />
<glyph unicode="&#xED;" glyph-name="iacute" horiz-adv-x="588" d="M548 0H25V65Q36 64 56 64Q101 64 126 77T161 121T171 210V673Q171 834 81 834Q59 834 38 827L25 891L329 963H415V210Q415 146 426 116T465 76T548 65V0ZM176 1093L284 1436H536L249 1093H176Z"  />
<glyph unicode="&#xEE;" glyph-name="icircumflex" horiz-adv-x="588" d="M548 0H25V65Q36 64 56 64Q101 64 126 77T161 121T171 210V673Q171 834 81 834Q59 834 38 827L25 891L329 963H415V210Q415 146 426 116T465 76T548 65V0ZM68 1075H7L184 1452H413L586 1075H534L294 1293L68 1075Z"  />
<glyph unicode="&#xEF;" glyph-name="idieresis" horiz-adv-x="588" d="M548 0H25V65Q36 64 56 64Q101 64 126 77T161 121T171 210V673Q171 834 81 834Q59 834 38 827L25 891L329 963H415V210Q415 146 426 116T465 76T548 65V0ZM72 1374Q117 1374 148 1343T180 1264Q180 1220 148 1187T72 1154Q28 1154 -5 1187T-39 1264Q-39 1310 -6 1342T72 1374ZM523 1374Q569 1374 600 1343T632 1264Q632 1220 600 1187T523 1154Q480 1154 447 1187T413 1264Q413 1310 446 1342T523 1374Z"  />
<glyph unicode="&#xF0;" glyph-name="eth" horiz-adv-x="1217" d="M700 1267L917 1381L969 1308L786 1209Q891 1133 971 1025T1096 788T1142 534Q1142 408 1103 304T991 123T816 4T592 -38Q418 -38 305 40T142 232T92 452Q92 556 131 651T242 816T406 924T606 963Q670 963 707 956T782 923L786 927Q755 995 723 1038T639 1133L373 994L321 1066L571 1199Q491 1260 373 1316L419 1381Q575 1340 700 1267ZM869 371Q869 527 835 641T735 815T581 875Q507 875 455 836T375 721T348 538Q348 337 423 194T646 50Q757 50 813 132T869 371Z"  />
<glyph unicode="&#xF1;" glyph-name="ntilde" horiz-adv-x="1199" d="M419 963V823Q575 963 738 963Q808 963 873 933T979 832T1021 646V210Q1021 118 1047 92T1150 65V0H653V65Q704 65 729 75T766 116T778 210V619Q778 804 633 804Q585 804 528 781T419 713V210Q419 143 431 113T473 74T562 65V0H48V65Q102 65 128 76T165 117T175 210V659Q175 763 151 795T71 828Q63 828 59 828T48 827V891L335 963H419ZM314 1130H260Q263 1244 324 1320T472 1397Q511 1397 550 1382T644 1335T722 1293T776 1283Q817 1283 842 1310T883 1397H939Q926 1272 869 1201T729 1130Q694 1130 664 1141T575 1183T488 1226T431 1239Q337 1239 314 1130Z"  />
<glyph unicode="&#xF2;" glyph-name="ograve" horiz-adv-x="1199" d="M1121 469Q1121 328 1050 212T854 29T579 -38Q363 -38 221 102T79 454Q79 564 118 656T232 818T404 926T613 963Q723 963 815 927T976 824T1083 666T1121 469ZM858 369Q858 526 824 640T725 815T569 875Q458 875 399 787T340 538Q340 342 412 196T635 50Q746 50 802 132T858 369ZM721 1093H648L361 1436H613L721 1093Z"  />
<glyph unicode="&#xF3;" glyph-name="oacute" horiz-adv-x="1199" d="M1121 469Q1121 328 1050 212T854 29T579 -38Q363 -38 221 102T79 454Q79 564 118 656T232 818T404 926T613 963Q723 963 815 927T976 824T1083 666T1121 469ZM858 369Q858 526 824 640T725 815T569 875Q458 875 399 787T340 538Q340 342 412 196T635 50Q746 50 802 132T858 369ZM479 1093L587 1436H839L552 1093H479Z"  />
<glyph unicode="&#xF4;" glyph-name="ocircumflex" horiz-adv-x="1199" d="M1121 469Q1121 328 1050 212T854 29T579 -38Q363 -38 221 102T79 454Q79 564 118 656T232 818T404 926T613 963Q723 963 815 927T976 824T1083 666T1121 469ZM858 369Q858 526 824 640T725 815T569 875Q458 875 399 787T340 538Q340 342 412 196T635 50Q746 50 802 132T858 369ZM371 1075H310L487 1452H716L889 1075H837L597 1293L371 1075Z"  />
<glyph unicode="&#xF5;" glyph-name="otilde" horiz-adv-x="1199" d="M1121 469Q1121 328 1050 212T854 29T579 -38Q363 -38 221 102T79 454Q79 564 118 656T232 818T404 926T613 963Q723 963 815 927T976 824T1083 666T1121 469ZM858 369Q858 526 824 640T725 815T569 875Q458 875 399 787T340 538Q340 342 412 196T635 50Q746 50 802 132T858 369ZM314 1130H260Q263 1244 324 1320T472 1397Q511 1397 550 1382T644 1335T722 1293T776 1283Q817 1283 842 1310T883 1397H939Q926 1272 869 1201T729 1130Q694 1130 664 1141T575 1183T488 1226T431 1239Q337 1239 314 1130Z"  />
<glyph unicode="&#xF6;" glyph-name="odieresis" horiz-adv-x="1199" d="M1121 469Q1121 328 1050 212T854 29T579 -38Q363 -38 221 102T79 454Q79 564 118 656T232 818T404 926T613 963Q723 963 815 927T976 824T1083 666T1121 469ZM858 369Q858 526 824 640T725 815T569 875Q458 875 399 787T340 538Q340 342 412 196T635 50Q746 50 802 132T858 369ZM375 1374Q420 1374 451 1343T483 1264Q483 1220 451 1187T375 1154Q331 1154 298 1187T264 1264Q264 1310 297 1342T375 1374ZM826 1374Q872 1374 903 1343T935 1264Q935 1220 903 1187T826 1154Q783 1154 750 1187T716 1264Q716 1310 749 1342T826 1374Z"  />
<glyph unicode="&#xF7;" glyph-name="divide" horiz-adv-x="1346" d="M129 762H1215V581H129V762ZM673 379Q703 379 729 364T771 322T786 266Q786 219 753 187T673 154Q628 154 594 186T560 266Q560 314 593 346T673 379ZM673 1189Q720 1189 753 1156T786 1076Q786 1029 753 996T673 963Q628 963 594 996T560 1076Q560 1123 594 1156T673 1189Z"  />
<glyph unicode="&#xF8;" glyph-name="oslash" horiz-adv-x="1199" d="M821 653L419 181Q462 115 514 83T635 50Q746 50 802 132T858 369Q858 402 854 460T841 566T821 653ZM1121 469Q1121 328 1050 212T854 29T579 -38Q514 -38 433 -17T298 42L181 -96L119 -42L232 91Q163 157 121 252T79 454Q79 596 148 713T340 896T613 963Q693 963 776 940T905 879L1025 1021L1088 967L969 829Q1043 763 1082 670T1121 469ZM381 266L784 738Q704 875 569 875Q458 875 399 787T340 538Q340 488 346 434T362 332T381 266Z"  />
<glyph unicode="&#xF9;" glyph-name="ugrave" horiz-adv-x="1199" d="M1030 923V234Q1030 115 1096 115Q1118 115 1163 127V62L867 -38H786V102Q710 35 627 -1T467 -38Q345 -38 264 40T183 260V715Q183 795 162 826T87 858V923H427V308Q427 217 461 169T577 121Q622 121 680 145T786 210V715Q786 802 762 830T668 859Q645 859 631 858V923H1030ZM721 1093H648L361 1436H613L721 1093Z"  />
<glyph unicode="&#xFA;" glyph-name="uacute" horiz-adv-x="1199" d="M1030 923V234Q1030 115 1096 115Q1118 115 1163 127V62L867 -38H786V102Q710 35 627 -1T467 -38Q345 -38 264 40T183 260V715Q183 795 162 826T87 858V923H427V308Q427 217 461 169T577 121Q622 121 680 145T786 210V715Q786 802 762 830T668 859Q645 859 631 858V923H1030ZM479 1093L587 1436H839L552 1093H479Z"  />
<glyph unicode="&#xFB;" glyph-name="ucircumflex" horiz-adv-x="1199" d="M1030 923V234Q1030 115 1096 115Q1118 115 1163 127V62L867 -38H786V102Q710 35 627 -1T467 -38Q345 -38 264 40T183 260V715Q183 795 162 826T87 858V923H427V308Q427 217 461 169T577 121Q622 121 680 145T786 210V715Q786 802 762 830T668 859Q645 859 631 858V923H1030ZM371 1075H310L487 1452H716L889 1075H837L597 1293L371 1075Z"  />
<glyph unicode="&#xFC;" glyph-name="udieresis" horiz-adv-x="1199" d="M1030 923V234Q1030 115 1096 115Q1118 115 1163 127V62L867 -38H786V102Q710 35 627 -1T467 -38Q345 -38 264 40T183 260V715Q183 795 162 826T87 858V923H427V308Q427 217 461 169T577 121Q622 121 680 145T786 210V715Q786 802 762 830T668 859Q645 859 631 858V923H1030ZM375 1374Q420 1374 451 1343T483 1264Q483 1220 451 1187T375 1154Q331 1154 298 1187T264 1264Q264 1310 297 1342T375 1374ZM826 1374Q872 1374 903 1343T935 1264Q935 1220 903 1187T826 1154Q783 1154 750 1187T716 1264Q716 1310 749 1342T826 1374Z"  />
<glyph unicode="&#xFD;" glyph-name="yacute" horiz-adv-x="1070" d="M526 923V858Q470 858 447 844T423 798Q423 772 456 698L629 298L762 637Q818 780 818 810Q818 859 737 859Q723 859 715 858V923H1034V858Q996 850 975 836T934 786T889 679L575 -179Q545 -258 495 -320T376 -416T229 -450Q143 -450 89 -411T34 -308Q34 -262 65 -230T143 -198Q189 -198 255 -234T361 -270Q401 -270 425 -247T473 -155L526 -18L167 762Q128 849 69 858V923H526ZM415 1093L523 1436H775L488 1093H415Z"  />
<glyph unicode="&#xFE;" glyph-name="thorn" horiz-adv-x="1199" d="M427 1381V800Q566 963 738 963Q818 963 887 928T1008 831T1088 685T1117 502Q1117 398 1079 298T976 122T827 5T651 -38Q519 -38 427 65V-219Q427 -280 437 -310T475 -353T560 -366Q583 -366 594 -365V-429H42V-365Q105 -365 133 -355T172 -314T183 -219V1084Q183 1252 92 1252Q81 1252 58 1246V1310L340 1381H427ZM427 694V266Q427 217 456 166T534 83T643 50Q749 50 813 144T877 400Q877 508 845 593T755 727T621 775Q575 775 520 752T427 694Z"  />
<glyph unicode="&#xFF;" glyph-name="ydieresis" horiz-adv-x="1070" d="M526 923V858Q470 858 447 844T423 798Q423 772 456 698L629 298L762 637Q818 780 818 810Q818 859 737 859Q723 859 715 858V923H1034V858Q996 850 975 836T934 786T889 679L575 -179Q545 -258 495 -320T376 -416T229 -450Q143 -450 89 -411T34 -308Q34 -262 65 -230T143 -198Q189 -198 255 -234T361 -270Q401 -270 425 -247T473 -155L526 -18L167 762Q128 849 69 858V923H526ZM311 1374Q356 1374 387 1343T419 1264Q419 1220 387 1187T311 1154Q267 1154 234 1187T200 1264Q200 1310 233 1342T311 1374ZM762 1374Q808 1374 839 1343T871 1264Q871 1220 839 1187T762 1154Q719 1154 686 1187T652 1264Q652 1310 685 1342T762 1374Z"  />
<glyph unicode="&#x131;" glyph-name="dotlessi" horiz-adv-x="588" d="M548 0H25V65Q36 64 56 64Q101 64 126 77T161 121T171 210V673Q171 834 81 834Q59 834 38 827L25 891L329 963H415V210Q415 146 426 116T465 76T548 65V0Z"  />
<glyph unicode="&#x141;" glyph-name="Lslash" horiz-adv-x="1429" d="M1322 367H1388L1265 0H36V65H83Q159 65 199 82T257 145T275 272V496L36 363V479L275 613V1082Q275 1200 237 1246T83 1292H48V1356H792V1292H746Q669 1292 628 1274T570 1211T552 1082V771L900 969V852L552 655V248Q552 181 560 154T593 118T677 109H923Q1025 109 1090 128T1208 201T1322 367Z"  />
<glyph unicode="&#x142;" glyph-name="lslash" horiz-adv-x="588" d="M415 1381V844L579 973V860L415 729V210Q415 153 425 122T458 79T528 65V0H56V65Q103 65 127 77T161 121T171 210V544L10 417V530L171 657V1096Q171 1193 149 1229T56 1265L42 1328L340 1381H415Z"  />
<glyph unicode="&#x152;" glyph-name="OE" horiz-adv-x="2144" d="M1985 0H1165Q1131 0 1104 -1T988 -6Q948 -7 903 -9T824 -12T778 -14Q655 -14 528 35T295 175T126 396T62 681Q62 830 119 956T282 1175T531 1320T840 1371Q849 1371 971 1364Q1079 1356 1144 1356H1946L1955 1042H1894Q1862 1125 1829 1167T1742 1229T1596 1248H1336V768H1576Q1638 768 1677 780T1738 833T1761 955H1830V463H1761Q1761 574 1725 616T1592 659H1336V236Q1336 178 1343 153T1373 119T1451 109H1588Q1693 109 1756 121T1869 163T1954 244T2029 383H2096L1985 0ZM1058 292V1075Q1058 1194 990 1251T808 1308Q666 1308 569 1222T425 991T377 679Q377 537 407 422T496 222T635 93T812 48Q1058 48 1058 292Z"  />
<glyph unicode="&#x153;" glyph-name="oe" horiz-adv-x="1556" d="M1453 344L1502 319Q1466 212 1406 130T1270 5T1110 -38Q1035 -38 965 -4T846 89Q716 -38 540 -38Q402 -38 295 26T126 204T65 461Q65 604 126 718T297 898T542 963Q706 963 836 850Q894 908 960 935T1108 963Q1208 963 1294 919T1435 779T1489 542H971Q974 380 1030 280T1203 179Q1269 179 1330 219T1453 344ZM327 586Q327 373 385 212T575 50Q740 50 740 323Q740 462 719 588T645 794T506 875Q422 875 375 798T327 586ZM967 645H1227Q1228 655 1228 676Q1228 774 1196 824T1102 875Q1060 875 1030 848T983 767T967 645Z"  />
<glyph unicode="&#x160;" glyph-name="Scaron" horiz-adv-x="1199" d="M107 435H171Q215 324 287 240T446 112T627 67Q695 67 747 93T829 164T858 266Q858 357 786 429Q754 463 694 498T508 603T323 710T215 792Q111 896 111 1034Q111 1107 143 1171T231 1282T364 1355T530 1381Q595 1381 645 1372T752 1346T843 1321T898 1312Q953 1312 973 1381H1040V939H977Q935 1043 869 1121T722 1241T556 1284Q465 1284 411 1240T356 1121Q356 1053 411 998Q442 969 532 921T704 830T867 738T998 639Q1067 570 1095 499T1123 346Q1123 239 1066 151T908 12T687 -38Q605 -38 540 -21T391 24T280 52Q240 52 210 28T171 -36H107V435ZM828 1832H889L712 1455H483L310 1832H362L602 1614L828 1832Z"  />
<glyph unicode="&#x161;" glyph-name="scaron" horiz-adv-x="840" d="M707 941V641H641Q610 752 539 816T373 881Q310 881 272 856T234 788Q234 756 260 727Q277 710 308 692T436 620T598 525T691 456Q748 399 767 353T786 246Q786 165 746 100T633 -2T467 -38Q416 -38 369 -30T260 -7T179 8Q152 8 115 -12H69V321H135Q163 203 252 127T454 50Q511 50 547 81T583 163Q583 214 544 252Q512 284 465 312T352 376T238 442T150 512Q67 592 67 698Q67 774 106 834T215 928T369 963Q437 963 522 948Q601 931 639 931Q658 931 671 941H707ZM649 1452H710L533 1075H304L131 1452H183L423 1234L649 1452Z"  />
<glyph unicode="&#x178;" glyph-name="Ydieresis" horiz-adv-x="1661" d="M1183 0H425V65H490Q587 65 625 111T663 275V577L258 1117Q191 1205 162 1238T108 1282T36 1292V1356H675V1292Q546 1292 546 1233Q546 1213 566 1179T643 1070L905 713L1163 1048Q1261 1178 1261 1223Q1261 1261 1229 1276T1127 1292H1084V1356H1625V1292Q1534 1292 1471 1249T1332 1108L941 590V275Q941 192 958 147T1017 83T1137 65H1183V0ZM607 1754Q652 1754 683 1723T715 1644Q715 1600 683 1567T607 1534Q563 1534 530 1567T496 1644Q496 1690 529 1722T607 1754ZM1058 1754Q1104 1754 1135 1723T1167 1644Q1167 1600 1135 1567T1058 1534Q1015 1534 982 1567T948 1644Q948 1690 981 1722T1058 1754Z"  />
<glyph unicode="&#x17D;" glyph-name="Zcaron" horiz-adv-x="1429" d="M1320 369H1388L1320 0H40V65L963 1261H514Q409 1261 343 1234T245 1155T210 1023H143L175 1356H1352V1322L419 102H923Q1053 102 1128 128T1246 212T1320 369ZM943 1832H1004L827 1455H598L425 1832H477L717 1614L943 1832Z"  />
<glyph unicode="&#x17E;" glyph-name="zcaron" horiz-adv-x="946" d="M911 923L385 117H641Q712 117 747 129T801 176T836 288H896V0H32L571 814H317Q262 814 235 804T193 768T167 685H100L111 923H911ZM701 1452H762L585 1075H356L183 1452H235L475 1234L701 1452Z"  />
<glyph unicode="&#x192;" glyph-name="florin" horiz-adv-x="1008" d="M689 764L540 58Q512 -77 467 -173T365 -330T247 -420T121 -450Q52 -450 7 -418T-38 -331Q-38 -290 -8 -260T67 -229Q109 -229 135 -251T161 -310Q161 -323 156 -343T150 -367Q150 -376 159 -381T181 -387Q214 -387 237 -353T260 -268Q260 -264 256 -183Q252 -106 252 -50Q252 11 260 73Q267 130 292 256L400 764H254L280 889Q392 889 437 935Q477 975 507 1045T567 1185T643 1300Q725 1381 842 1381Q917 1381 962 1345T1008 1250Q1008 1199 977 1166T896 1133Q861 1133 835 1157T808 1217Q808 1238 824 1271T840 1312Q840 1320 832 1326T812 1332Q769 1332 743 1295T717 1195Q717 1161 721 1098T725 1008Q725 974 711 889H869L844 764H689Z"  />
<glyph unicode="&#x2C6;" glyph-name="circumflex" horiz-adv-x="671" d="M107 1078H46L223 1455H452L625 1078H573L333 1296L107 1078Z"  />
<glyph unicode="&#x2C7;" glyph-name="caron" horiz-adv-x="671" d="M564 1455H625L448 1078H219L46 1455H98L338 1237L564 1455Z"  />
<glyph unicode="&#x2C9;" glyph-name="uni02C9" horiz-adv-x="682" d="M17 1358H667V1197H17V1358Z"  />
<glyph unicode="&#x2D8;" glyph-name="breve" horiz-adv-x="671" d="M50 1419H111Q152 1294 335 1294Q430 1294 484 1324T560 1419H623Q620 1332 582 1263T479 1154T333 1115Q215 1115 134 1202T50 1419Z"  />
<glyph unicode="&#x2D9;" glyph-name="dotaccent" horiz-adv-x="671" d="M337 1377Q382 1377 414 1346T446 1267Q446 1222 414 1190T337 1157Q291 1157 258 1190T225 1267Q225 1314 257 1345T337 1377Z"  />
<glyph unicode="&#x2DA;" glyph-name="ring" horiz-adv-x="671" d="M337 1457Q387 1457 427 1433T493 1367T518 1275Q518 1199 465 1147T337 1094Q262 1094 209 1147T155 1275Q155 1351 207 1404T337 1457ZM337 1386Q291 1386 258 1354T225 1275Q225 1231 258 1198T337 1165Q365 1165 390 1180T432 1221T448 1275Q448 1305 432 1331T391 1371T337 1386Z"  />
<glyph unicode="&#x2DB;" glyph-name="ogonek" horiz-adv-x="671" d="M275 12H369Q266 -73 266 -152Q266 -215 303 -271T404 -361T542 -396Q560 -396 569 -395L598 -429Q512 -510 379 -510Q298 -510 228 -473T117 -374T75 -242Q75 -164 129 -95T275 12Z"  />
<glyph unicode="&#x2DC;" glyph-name="tilde" horiz-adv-x="671" d="M50 1133H-4Q-1 1247 60 1323T208 1400Q247 1400 286 1385T380 1338T458 1296T512 1286Q553 1286 578 1313T619 1400H675Q662 1275 605 1204T465 1133Q430 1133 400 1144T311 1186T224 1229T167 1242Q73 1242 50 1133Z"  />
<glyph unicode="&#x2DD;" glyph-name="hungarumlaut" horiz-adv-x="671" d="M444 1096L550 1439H802L516 1096H444ZM96 1096L204 1439H456L169 1096H96Z"  />
<glyph unicode="&#x3A9;" glyph-name="uni03A9" horiz-adv-x="1548" d="M1494 0H935L957 275Q1053 313 1113 375T1201 527T1229 742Q1229 997 1108 1140Q1045 1215 959 1255T769 1296Q669 1296 586 1257T441 1147T347 975T314 756Q314 625 351 517T456 348Q486 321 511 307T586 275L608 0H54V275H89Q92 215 119 194Q145 174 174 167T256 159H522V227Q387 267 289 344T141 531T91 775Q91 903 140 1012T280 1200T495 1321T769 1364Q921 1364 1048 1321T1266 1202T1406 1015T1457 775Q1457 641 1404 527T1252 334T1025 227L1017 159H1288Q1375 159 1411 183T1455 275H1494V0Z"  />
<glyph unicode="&#x3C0;" glyph-name="pi" horiz-adv-x="1106" d="M1032 254Q1025 194 1014 151T983 73Q959 26 918 -2T829 -31Q794 -31 760 -15T707 29Q676 72 662 134T648 300Q648 361 655 456Q658 482 660 507T669 604Q671 622 674 651T681 706L687 758H431L427 698Q410 408 388 255T331 35T238 -31Q205 -31 180 -6T155 52Q155 79 167 103T210 169Q255 227 277 280T314 421Q329 505 336 579T348 758H304Q255 758 232 752T181 725Q136 690 92 617H54Q105 774 168 837T340 900H1032V758H794Q777 650 769 539T760 327Q760 235 792 187T883 139Q978 139 998 254H1032Z"  />
<glyph unicode="&#xD82;" glyph-name="uni0D82" horiz-adv-x="678" d="M589 451Q589 401 569 357T516 279T437 226T342 206Q291 206 247 225T169 278T117 356T97 451Q97 500 116 544T169 623T247 677T342 697Q391 697 435 677T514 623T568 545T589 451ZM208 451Q208 424 218 400T247 357T289 327T342 316Q371 316 396 327T439 357T468 400T479 451Q479 479 468 504T439 547T395 576T342 587Q315 587 291 577T249 548T219 505T208 451Z"  />
<glyph unicode="&#xD83;" glyph-name="uni0D83" horiz-adv-x="618" d="M507 700Q507 661 492 626T451 564T389 522T312 506Q271 506 236 521T175 562T134 624T119 700Q119 740 134 775T175 837T236 879T312 894Q351 894 386 879T449 837T491 775T507 700ZM220 700Q220 680 227 664T246 634T276 614T312 607Q330 607 347 614T377 634T397 664T405 700Q405 719 397 735T376 764T347 784T312 792Q294 792 278 785T248 766T228 737T220 700ZM507 195Q507 157 492 122T451 61T389 18T312 2Q271 2 236 17T175 58T134 120T119 195Q119 236 134 271T175 333T237 375T312 390Q352 390 387 375T449 333T491 271T507 195ZM220 195Q220 176 227 159T246 130T276 110T312 103Q330 103 347 110T377 130T397 160T405 195Q405 214 398 230T377 260T347 280T312 288Q293 288 277 281T248 261T228 231T220 195Z"  />
<glyph unicode="&#xD85;" glyph-name="uni0D85" horiz-adv-x="1160" d="M731 -477V10Q693 5 651 3T566 0Q459 0 374 25T228 96T135 206T102 347Q102 416 127 471T204 567T332 628T511 650H610Q634 650 646 650T665 650T678 649T697 647Q684 687 664 717T623 766T582 794T548 804Q524 804 505 793T456 746Q436 722 424 709T401 690T381 682T356 680Q336 680 320 688T293 710T275 741T268 774Q268 800 281 825T321 871T387 904T476 917Q521 917 562 904T640 867T705 807T754 728Q780 807 862 925H943Q940 915 938 905T933 885T930 871L928 865Q928 845 943 826T999 772Q1085 701 1085 622Q1085 586 1070 553T1030 494T970 453T897 438Q881 438 865 440T832 445V132Q892 145 945 169T1044 224L1097 136Q1034 98 971 73T832 33V-477H731ZM872 755Q851 712 841 663T830 551Q851 538 884 538Q919 538 938 562T958 622Q958 638 947 658T920 697T891 733T872 755ZM731 546Q696 548 639 548T513 549Q401 549 350 508T299 378Q299 323 320 274T384 189T488 131T631 109Q671 109 731 118V546Z"  />
<glyph unicode="&#xD86;" glyph-name="uni0D86" horiz-adv-x="1778" d="M731 -477V10Q693 5 651 3T566 0Q459 0 374 25T228 96T135 206T102 347Q102 416 127 471T204 567T332 628T511 650H610Q634 650 646 650T665 650T678 649T697 647Q684 687 664 717T623 766T582 794T548 804Q524 804 505 793T456 746Q436 722 424 709T401 690T381 682T356 680Q336 680 320 688T293 710T275 741T268 774Q268 800 281 825T321 871T387 904T476 917Q521 917 562 904T640 867T705 807T754 728Q780 807 862 925H943Q940 915 938 905T933 885T930 871L928 865Q928 845 943 826T999 772Q1085 701 1085 622Q1085 586 1070 553T1030 494T970 453T897 438Q881 438 865 440T832 445V132Q892 145 945 169T1044 224L1097 136Q1034 98 971 73T832 33V-477H731ZM872 755Q851 712 841 663T830 551Q851 538 884 538Q919 538 938 562T958 622Q958 638 947 658T920 697T891 733T872 755ZM731 546Q696 548 639 548T513 549Q401 549 350 508T299 378Q299 323 320 274T384 189T488 131T631 109Q671 109 731 118V546ZM1168 520Q1168 572 1186 617T1238 697T1319 752T1423 772Q1721 772 1721 405Q1721 208 1644 104T1423 0Q1298 0 1233 70T1168 272H1270Q1270 206 1300 171T1386 136Q1420 136 1447 147T1492 188T1521 272T1531 412Q1531 537 1496 596T1386 655Q1363 655 1342 644T1305 613T1280 570T1270 520H1168Z"  />
<glyph unicode="&#xD87;" glyph-name="uni0D87" horiz-adv-x="1739" d="M731 -477V10Q693 5 651 3T566 0Q459 0 374 25T228 96T135 206T102 347Q102 416 127 471T204 567T332 628T511 650H610Q634 650 646 650T665 650T678 649T697 647Q684 687 664 717T623 766T582 794T548 804Q524 804 505 793T456 746Q436 722 424 709T401 690T381 682T356 680Q336 680 320 688T293 710T275 741T268 774Q268 800 281 825T321 871T387 904T476 917Q521 917 562 904T640 867T705 807T754 728Q780 807 862 925H943Q940 915 938 905T933 885T930 871L928 865Q928 845 943 826T999 772Q1085 701 1085 622Q1085 586 1070 553T1030 494T970 453T897 438Q881 438 865 440T832 445V132Q892 145 945 169T1044 224L1097 136Q1034 98 971 73T832 33V-477H731ZM872 755Q851 712 841 663T830 551Q851 538 884 538Q919 538 938 562T958 622Q958 638 947 658T920 697T891 733T872 755ZM731 546Q696 548 639 548T513 549Q401 549 350 508T299 378Q299 323 320 274T384 189T488 131T631 109Q671 109 731 118V546ZM1126 549V651H1554V578Q1480 445 1444 320T1407 91Q1407 29 1421 -24T1461 -115T1522 -175T1599 -197Q1617 -197 1642 -188T1697 -160V-265Q1613 -329 1520 -329Q1458 -329 1405 -307T1311 -244T1249 -145T1226 -12Q1226 33 1240 93T1281 226T1343 380T1425 549H1126Z"  />
<glyph unicode="&#xD88;" glyph-name="uni0D88" horiz-adv-x="1739" d="M731 -477V10Q693 5 651 3T566 0Q459 0 374 25T228 96T135 206T102 347Q102 416 127 471T204 567T332 628T511 650H610Q634 650 646 650T665 650T678 649T697 647Q684 687 664 717T623 766T582 794T548 804Q524 804 505 793T456 746Q436 722 424 709T401 690T381 682T356 680Q336 680 320 688T293 710T275 741T268 774Q268 800 281 825T321 871T387 904T476 917Q521 917 562 904T640 867T705 807T754 728Q780 807 862 925H943Q940 915 938 905T933 885T930 871L928 865Q928 845 943 826T999 772Q1085 701 1085 622Q1085 586 1070 553T1030 494T970 453T897 438Q881 438 865 440T832 445V132Q892 145 945 169T1044 224L1097 136Q1034 98 971 73T832 33V-477H731ZM872 755Q851 712 841 663T830 551Q851 538 884 538Q919 538 938 562T958 622Q958 638 947 658T920 697T891 733T872 755ZM731 546Q696 548 639 548T513 549Q401 549 350 508T299 378Q299 323 320 274T384 189T488 131T631 109Q671 109 731 118V546ZM1126 651H1517Q1501 591 1478 542T1431 445Q1444 446 1456 446T1483 447Q1539 447 1623 432Q1570 331 1488 212Q1453 161 1436 111T1419 29Q1419 -16 1433 -57T1471 -128T1531 -177T1608 -195Q1621 -195 1643 -189T1699 -169L1693 -272Q1607 -330 1513 -330Q1454 -330 1404 -310T1316 -253T1258 -166T1237 -55Q1237 -26 1242 4T1260 68T1298 140T1362 226Q1386 254 1401 273T1427 304T1444 326T1456 345H1451Q1438 345 1406 339T1337 326T1271 311T1232 301Q1277 377 1315 443T1370 549H1126V651Z"  />
<glyph unicode="&#xD89;" glyph-name="uni0D89" horiz-adv-x="1237" d="M433 127Q550 91 649 91Q731 91 799 117T916 188T991 296T1018 429Q1018 495 983 548T892 639T765 697T620 717Q542 717 470 697T344 640T256 553T223 444Q223 352 284 300T461 248Q515 248 557 263T625 298H614Q579 298 550 310T500 343T467 395T455 461Q455 492 467 521T500 571T552 606T618 619Q649 619 679 604T732 564T769 505T783 435Q783 373 764 322T704 233T605 176T464 155Q375 155 307 177T194 242T125 343T102 474Q102 572 144 653T257 793T422 884T622 917Q722 917 815 886T979 795T1094 649T1137 451Q1137 373 1114 305T1049 181T948 85T815 20Q858 -6 881 -43T905 -122Q905 -170 884 -208T825 -273T734 -314T616 -329Q485 -329 416 -280T346 -146Q346 -117 354 -94T377 -55T410 -31T447 -22Q488 -22 516 -49T545 -116Q545 -130 542 -141T536 -160T530 -177T527 -193Q527 -228 614 -228Q640 -228 662 -219T700 -193T726 -154T736 -106Q736 0 612 0Q585 0 565 1T522 6T471 18T398 40L433 127ZM556 456Q556 431 572 415T614 399Q639 399 655 415T671 456Q671 482 655 498T614 515Q589 515 573 499T556 456Z"  />
<glyph unicode="&#xD8A;" glyph-name="uni0D8A" horiz-adv-x="1130" d="M525 0Q427 0 349 32T216 122T132 255T102 420Q102 487 120 549T174 667T259 769T372 849Q414 871 517 999Q543 1031 566 1067T610 1138T646 1208T673 1272Q690 1317 700 1342T720 1380T741 1396T772 1399Q830 1399 830 1331Q830 1307 808 1259T750 1151T665 1025T565 897Q669 897 755 866T904 779T1000 643T1035 468Q1035 402 1015 342T959 230T874 136T769 63T650 17T525 0ZM220 457Q220 401 239 354T293 272T377 218T486 199Q555 199 624 222T749 288T840 391T875 527Q875 586 851 635T787 719T693 774T580 794Q514 794 450 767T334 695T252 588T220 457ZM551 1232Q551 1202 539 1174T505 1123T455 1088T393 1074Q358 1074 329 1087T279 1121T247 1171T235 1230Q235 1262 247 1291T281 1342T331 1378T393 1391Q426 1391 455 1378T505 1342T539 1292T551 1232ZM335 1230Q335 1207 353 1191T393 1174Q420 1174 435 1191T450 1234Q450 1257 432 1273T393 1289Q367 1289 351 1273T335 1230ZM1114 1042Q1114 1012 1102 984T1068 933T1018 897T956 883Q920 883 891 895T842 930T810 980T798 1040Q798 1072 810 1101T845 1152T895 1187T956 1200Q990 1200 1019 1187T1069 1152T1102 1102T1114 1042ZM899 1040Q899 1017 916 1001T956 984Q983 984 998 1001T1013 1043Q1013 1066 996 1082T956 1099Q930 1099 915 1083T899 1040Z"  />
<glyph unicode="&#xD8B;" glyph-name="uni0D8B" horiz-adv-x="1438" d="M1336 173Q1336 51 1295 -43T1178 -200T995 -297T757 -330Q608 -330 488 -288T282 -174T150 -11T104 182Q104 640 714 640Q817 640 906 636T1064 622Q1056 653 1040 683T1001 738T951 777T894 792Q869 792 854 789T828 777T805 754T778 717Q749 678 698 678Q681 678 665 685T635 705T613 735T604 772Q604 800 620 826T665 872T735 905T825 917Q903 917 967 882T1077 789T1148 657T1174 505Q1049 522 945 530T775 539Q302 539 302 213Q302 121 342 43T452 -93T615 -182T813 -215Q909 -215 987 -190T1120 -115T1206 7T1236 173H1336Z"  />
<glyph unicode="&#xD8C;" glyph-name="uni0D8C" horiz-adv-x="2148" d="M1336 173Q1336 51 1295 -43T1178 -200T995 -297T757 -330Q608 -330 488 -288T282 -174T150 -11T104 182Q104 640 714 640Q817 640 906 636T1064 622Q1056 653 1040 683T1001 738T951 777T894 792Q869 792 854 789T828 777T805 754T778 717Q749 678 698 678Q681 678 665 685T635 705T613 735T604 772Q604 800 620 826T665 872T735 905T825 917Q903 917 967 882T1077 789T1148 657T1174 505Q1049 522 945 530T775 539Q302 539 302 213Q302 121 342 43T452 -93T615 -182T813 -215Q909 -215 987 -190T1120 -115T1206 7T1236 173H1336ZM1498 539Q1498 591 1516 636T1567 716T1648 771T1753 791Q1827 791 1884 765T1980 690T2039 568T2060 405Q2060 307 2039 232T1977 105T1880 27T1753 0Q1691 0 1644 19T1564 71T1515 151T1498 253H1599Q1599 230 1607 209T1630 172T1666 146T1715 136Q1749 136 1777 147T1826 188T1858 272T1870 412Q1870 538 1830 606T1715 674Q1711 674 1707 674T1698 673Q1742 650 1765 610T1789 527Q1789 477 1774 438T1731 373T1664 332T1578 318Q1516 318 1465 341T1378 403T1323 491T1303 592Q1303 701 1408 812L1487 745Q1418 683 1418 615Q1418 591 1426 568T1451 526T1491 496T1545 484Q1568 484 1586 492T1618 514T1638 542T1645 570Q1645 597 1611 608Q1604 594 1602 578T1599 539H1498Z"  />
<glyph unicode="&#xD8D;" glyph-name="uni0D8D" horiz-adv-x="1962" d="M1319 522Q1319 582 1337 629T1388 708T1470 758T1579 776Q1721 776 1796 684T1871 420V0H1547Q1433 0 1374 52T1315 204Q1315 251 1334 290T1389 358Q1424 385 1499 415T1683 481Q1682 518 1674 549T1649 604T1604 641T1534 655Q1484 655 1454 625T1419 522H1319ZM1687 377Q1586 344 1543 312T1499 238Q1499 132 1597 132H1687V377ZM715 554Q718 639 736 706T786 820T866 892T976 917Q1065 917 1112 873T1160 759Q1160 725 1153 684T1130 608Q1188 568 1222 504T1256 364Q1256 294 1230 229T1158 112T1049 31T913 0Q878 0 849 5T792 24T739 62T687 125Q639 65 578 33T445 0Q368 0 306 29T201 108T134 221T110 354Q110 418 131 473T190 568T281 631T397 654H507Q501 715 474 750T411 786Q394 786 375 761L346 721Q312 674 262 674Q173 674 173 766Q173 792 188 819T228 867T288 903T363 917Q424 917 470 892T547 821T596 707T617 554H433Q231 554 231 392Q231 302 290 251T456 199Q499 199 532 211T589 250T624 322T637 433H739Q739 367 749 323T782 251T836 211T913 199Q962 199 1003 213T1073 253T1118 314T1135 392Q1135 554 935 554H715ZM952 736Q899 736 867 712T826 654Q907 654 958 653T1036 647Q1037 655 1037 664T1038 680Q1038 704 1013 720T952 736Z"  />
<glyph unicode="&#xD8E;" glyph-name="uni0D8E" horiz-adv-x="2597" d="M1319 522Q1319 582 1337 629T1388 708T1470 758T1579 776Q1721 776 1796 684T1871 420V0H1547Q1433 0 1374 52T1315 204Q1315 251 1334 290T1389 358Q1424 385 1499 415T1683 481Q1682 518 1674 549T1649 604T1604 641T1534 655Q1484 655 1454 625T1419 522H1319ZM1687 377Q1586 344 1543 312T1499 238Q1499 132 1597 132H1687V377ZM715 554Q718 639 736 706T786 820T866 892T976 917Q1065 917 1112 873T1160 759Q1160 725 1153 684T1130 608Q1188 568 1222 504T1256 364Q1256 294 1230 229T1158 112T1049 31T913 0Q878 0 849 5T792 24T739 62T687 125Q639 65 578 33T445 0Q368 0 306 29T201 108T134 221T110 354Q110 418 131 473T190 568T281 631T397 654H507Q501 715 474 750T411 786Q394 786 375 761L346 721Q312 674 262 674Q173 674 173 766Q173 792 188 819T228 867T288 903T363 917Q424 917 470 892T547 821T596 707T617 554H433Q231 554 231 392Q231 302 290 251T456 199Q499 199 532 211T589 250T624 322T637 433H739Q739 367 749 323T782 251T836 211T913 199Q962 199 1003 213T1073 253T1118 314T1135 392Q1135 554 935 554H715ZM952 736Q899 736 867 712T826 654Q907 654 958 653T1036 647Q1037 655 1037 664T1038 680Q1038 704 1013 720T952 736ZM1962 502Q1962 562 1980 612T2032 698T2114 755T2223 776Q2365 776 2440 684T2515 420V0H2191Q2077 0 2018 52T1958 204Q1958 251 1978 290T2033 358Q2068 385 2143 415T2327 481Q2326 518 2318 549T2293 604T2248 641T2178 655Q2128 655 2098 615T2063 502H1962ZM2331 378Q2230 344 2186 312T2142 239Q2142 132 2240 132H2331V378Z"  />
<glyph unicode="&#xD8F;" glyph-name="uni0D8F" horiz-adv-x="1524" d="M503 559Q467 559 432 546T370 510T326 456T309 388Q309 334 338 299T424 244T562 217T746 209Q852 209 938 216T1085 244T1179 299T1212 388Q1212 423 1196 454T1153 508T1092 545T1020 559H803Q803 635 822 700T876 814T961 889T1073 917Q1138 917 1198 884T1305 793T1378 657T1406 488Q1406 369 1362 278T1234 125T1026 32T746 0Q431 0 268 125T105 488Q105 579 135 657T216 794T329 884T458 917Q518 917 565 890T644 814T692 701T709 559H503ZM1004 650Q1064 650 1114 636T1203 594T1267 529T1304 444Q1305 453 1306 462T1307 482Q1307 524 1302 564T1285 641T1256 707T1214 758Q1206 723 1179 705T1118 686Q1087 686 1067 701T1032 734T1005 767T977 782Q967 782 956 772T934 745T918 703T911 650H1004ZM600 650Q600 677 595 701T582 743T563 771T544 782Q531 782 522 773T500 747Q473 712 454 699T407 686Q371 686 344 704T309 759Q283 739 264 710T232 645T213 568T206 482Q206 471 206 462T208 443Q219 491 246 529T314 594T407 635T520 650H600Z"  />
<glyph unicode="&#xD90;" glyph-name="uni0D90" horiz-adv-x="2308" d="M503 559Q467 559 432 546T370 510T326 456T309 388Q309 334 338 299T424 244T562 217T746 209Q852 209 938 216T1085 244T1179 299T1212 388Q1212 423 1196 454T1153 508T1092 545T1020 559H803Q803 635 822 700T876 814T961 889T1073 917Q1138 917 1198 884T1305 793T1378 657T1406 488Q1406 369 1362 278T1234 125T1026 32T746 0Q431 0 268 125T105 488Q105 579 135 657T216 794T329 884T458 917Q518 917 565 890T644 814T692 701T709 559H503ZM1004 650Q1064 650 1114 636T1203 594T1267 529T1304 444Q1305 453 1306 462T1307 482Q1307 524 1302 564T1285 641T1256 707T1214 758Q1206 723 1179 705T1118 686Q1087 686 1067 701T1032 734T1005 767T977 782Q967 782 956 772T934 745T918 703T911 650H1004ZM600 650Q600 677 595 701T582 743T563 771T544 782Q531 782 522 773T500 747Q473 712 454 699T407 686Q371 686 344 704T309 759Q283 739 264 710T232 645T213 568T206 482Q206 471 206 462T208 443Q219 491 246 529T314 594T407 635T520 650H600ZM1667 539Q1667 591 1685 636T1736 716T1817 771T1922 791Q1996 791 2053 765T2149 690T2208 568T2229 405Q2229 307 2208 232T2146 105T2049 27T1922 0Q1860 0 1813 19T1733 71T1684 151T1667 253H1768Q1768 230 1776 209T1799 172T1835 146T1884 136Q1918 136 1946 147T1995 188T2027 272T2039 412Q2039 538 1999 606T1884 674Q1880 674 1876 674T1867 673Q1911 650 1934 610T1958 527Q1958 477 1943 438T1900 373T1833 332T1747 318Q1685 318 1634 341T1547 403T1492 491T1472 592Q1472 701 1577 812L1656 745Q1587 683 1587 615Q1587 591 1595 568T1620 526T1660 496T1714 484Q1737 484 1755 492T1787 514T1807 542T1814 570Q1814 597 1780 608Q1773 594 1771 578T1768 539H1667Z"  />
<glyph unicode="&#xD91;" glyph-name="uni0D91" horiz-adv-x="1237" d="M1035 545Q1035 570 1030 603T1015 672T994 741T969 799Q928 770 883 756T792 741Q745 741 707 757T643 800T602 863T588 941Q588 964 591 982T601 1021T623 1071T659 1146Q667 1163 673 1184T688 1231H750Q843 1141 915 1048T1037 864T1111 690T1137 534Q1137 405 1101 306T993 138T818 35T580 0Q471 0 383 25T233 98T136 211T102 358Q102 412 116 457T160 534H78V627H509Q509 662 501 693T479 747T448 783T412 796Q400 796 388 779T358 740T318 702T264 684Q175 684 175 776Q175 802 192 827T237 872T298 904T364 917Q425 917 472 888T551 807T601 685T618 534H425Q322 534 273 495T223 390Q223 338 247 304T318 249T434 220T595 211Q813 211 924 293T1035 545ZM815 848Q843 848 869 857T917 885Q869 955 826 1008T746 1096Q725 1050 713 1019T701 963Q701 940 710 919T736 883T772 858T815 848Z"  />
<glyph unicode="&#xD92;" glyph-name="uni0D92" horiz-adv-x="1343" d="M1035 545Q1035 570 1030 603T1015 672T994 741T969 799Q928 770 883 756T792 741Q745 741 707 757T643 800T602 863T588 941Q588 964 591 982T601 1021T623 1071T659 1146Q667 1163 673 1184T688 1231H750Q804 1178 851 1125T938 1018V1404H1018Q1058 1372 1134 1330Q1215 1286 1249 1238T1284 1124Q1284 1088 1271 1057T1235 1002T1180 966T1107 952Q1092 952 1076 954T1037 963V864Q1086 773 1111 690T1137 534Q1137 405 1101 306T993 138T818 35T580 0Q471 0 383 25T233 98T136 211T102 358Q102 412 116 457T160 534H78V627H509Q509 662 501 693T479 747T448 783T412 796Q400 796 388 779T358 740T318 702T264 684Q175 684 175 776Q175 802 192 827T237 872T298 904T364 917Q425 917 472 888T551 807T601 685T618 534H425Q322 534 273 495T223 390Q223 338 247 304T318 249T434 220T595 211Q813 211 924 293T1035 545ZM815 848Q843 848 869 857T917 885Q869 955 826 1008T746 1096Q725 1050 713 1019T701 963Q701 940 710 919T736 883T772 858T815 848ZM1037 1069Q1051 1064 1064 1062T1088 1059Q1120 1059 1139 1079T1159 1130Q1159 1148 1156 1163T1141 1194T1104 1229T1037 1273V1069Z"  />
<glyph unicode="&#xD93;" glyph-name="uni0D93" horiz-adv-x="2464" d="M1129 443Q1117 533 1072 602T959 718T805 790T624 815Q547 815 474 789T344 717T253 609T218 476Q218 418 242 369T313 285T425 229T576 209Q745 209 837 261T929 414Q929 475 889 516T774 571Q779 557 782 541T786 506Q786 475 774 446T741 395T691 359T628 345Q600 345 572 355T520 386T482 434T467 500Q467 543 486 577T539 634T615 669T707 682Q783 682 845 660T951 599T1019 503T1043 378Q1043 303 1010 235T917 114T773 31T587 0Q474 0 385 35T233 131T137 272T103 443Q103 552 147 640T267 789T440 884T648 917Q714 917 781 904T910 863T1028 796T1127 703T1197 585T1232 443H1129ZM626 446Q651 446 668 462T686 504Q686 528 669 545T626 563Q602 563 586 546T569 504Q569 479 585 463T626 446ZM2262 545Q2262 570 2257 603T2242 672T2221 741T2196 799Q2155 770 2110 756T2019 741Q1972 741 1934 757T1870 800T1829 863T1815 941Q1815 964 1818 982T1828 1021T1850 1071T1886 1146Q1894 1163 1900 1184T1915 1231H1977Q2070 1141 2142 1048T2264 864T2338 690T2364 534Q2364 405 2328 306T2220 138T2045 35T1807 0Q1698 0 1610 25T1460 98T1363 211T1329 358Q1329 412 1343 457T1387 534H1305V627H1736Q1736 662 1728 693T1706 747T1675 783T1639 796Q1627 796 1615 779T1585 740T1545 702T1491 684Q1402 684 1402 776Q1402 802 1419 827T1464 872T1525 904T1591 917Q1652 917 1699 888T1778 807T1828 685T1845 534H1652Q1549 534 1500 495T1450 390Q1450 338 1474 304T1545 249T1661 220T1822 211Q2040 211 2151 293T2262 545ZM2042 848Q2070 848 2096 857T2144 885Q2096 955 2053 1008T1973 1096Q1952 1050 1940 1019T1928 963Q1928 940 1937 919T1963 883T1999 858T2042 848Z"  />
<glyph unicode="&#xD94;" glyph-name="uni0D94" horiz-adv-x="1343" d="M441 0Q366 0 304 33T198 126T129 264T104 437Q104 536 125 616T180 752T259 838T350 868Q372 868 389 862T418 841T440 797T459 725Q469 669 486 633T526 575T579 546T649 538Q688 538 720 550T774 585T809 638T821 705Q821 713 820 716Q807 665 766 633T668 600Q632 600 603 612T554 647T522 698T510 759Q510 790 521 819T554 869T604 904T668 917Q727 917 774 900T855 851T905 779T923 692Q923 633 900 586T838 506T749 455T644 437Q584 437 536 452T453 500T394 585T360 713Q357 734 354 750T344 766Q322 766 298 744T252 680T218 582T204 455Q204 404 219 359T265 281T340 229T441 209Q482 209 516 219T574 251T612 309T626 396H727Q727 297 773 253T902 209Q958 209 1003 232T1079 297T1126 399T1143 532Q1143 649 1109 756T1009 946T850 1078T640 1127Q586 1127 531 1113T424 1072T324 1006T239 916L161 973Q250 1102 375 1165T652 1229Q779 1229 887 1178T1074 1033T1198 807T1243 513Q1243 398 1220 304T1152 142T1044 37T902 0Q829 0 772 29T675 122Q583 0 441 0ZM668 701Q692 701 708 717T725 759Q725 783 709 799T668 815Q643 815 627 799T610 759Q610 734 626 718T668 701Z"  />
<glyph unicode="&#xD95;" glyph-name="uni0D95" horiz-adv-x="1343" d="M446 0Q371 0 308 33T200 126T129 264T104 437Q104 536 125 616T180 752T259 838T350 868Q373 868 390 862T419 841T441 797T459 725Q469 669 486 633T526 575T580 546T649 538Q688 538 720 550T774 585T809 638T821 705Q821 713 820 716Q807 665 766 633T668 600Q632 600 603 612T554 647T522 698T510 759Q510 790 521 819T554 869T604 904T668 917Q727 917 774 900T855 851T905 779T923 692Q923 633 900 586T838 506T749 455T644 437Q584 437 536 452T453 500T394 585T360 713Q357 734 354 750T344 766Q322 766 298 744T252 680T218 582T204 455Q204 404 220 359T268 281T344 229T446 209Q487 209 521 219T579 251T616 309T630 396H732Q732 297 778 253T906 209Q963 209 1008 230T1085 290T1134 385T1151 511Q1151 574 1131 634T1076 747T992 844T885 920T762 969T628 987Q559 987 473 967T281 903L230 991Q255 1005 283 1017T344 1041Q301 1094 301 1124Q301 1149 328 1174T400 1219T498 1251T608 1264Q758 1264 877 1205T1080 1044T1207 805T1251 511Q1251 396 1227 302T1157 141T1049 37T906 0Q834 0 777 29T679 122Q588 0 446 0ZM407 1123Q407 1119 410 1113T420 1099T433 1084T448 1070Q503 1079 545 1084T618 1089Q734 1089 824 1062T996 975Q963 1018 925 1052T840 1111T736 1149T608 1162Q577 1162 542 1158T476 1147T427 1134T407 1123ZM668 701Q692 701 708 717T725 759Q725 783 709 799T668 815Q643 815 627 799T610 759Q610 734 626 718T668 701Z"  />
<glyph unicode="&#xD96;" glyph-name="uni0D96" horiz-adv-x="2140" d="M441 0Q366 0 304 33T198 126T129 264T104 437Q104 536 125 616T180 752T259 838T350 868Q372 868 389 862T418 841T440 797T459 725Q469 669 486 633T526 575T579 546T649 538Q688 538 720 550T774 585T809 638T821 705Q821 713 820 716Q807 665 766 633T668 600Q632 600 603 612T554 647T522 698T510 759Q510 790 521 819T554 869T604 904T668 917Q727 917 774 900T855 851T905 779T923 692Q923 633 900 586T838 506T749 455T644 437Q584 437 536 452T453 500T394 585T360 713Q357 734 354 750T344 766Q322 766 298 744T252 680T218 582T204 455Q204 404 219 359T265 281T340 229T441 209Q482 209 516 219T574 251T612 309T626 396H727Q727 297 773 253T902 209Q958 209 1003 232T1079 297T1126 399T1143 532Q1143 649 1109 756T1009 946T850 1078T640 1127Q586 1127 531 1113T424 1072T324 1006T239 916L161 973Q250 1102 375 1165T652 1229Q779 1229 887 1178T1074 1033T1198 807T1243 513Q1243 398 1220 304T1152 142T1044 37T902 0Q829 0 772 29T675 122Q583 0 441 0ZM668 701Q692 701 708 717T725 759Q725 783 709 799T668 815Q643 815 627 799T610 759Q610 734 626 718T668 701ZM1509 539Q1509 591 1527 636T1578 716T1659 771T1764 791Q1838 791 1895 765T1991 690T2050 568T2071 405Q2071 307 2050 232T1988 105T1891 27T1764 0Q1702 0 1655 19T1575 71T1526 151T1509 253H1610Q1610 230 1618 209T1641 172T1677 146T1726 136Q1760 136 1788 147T1837 188T1869 272T1881 412Q1881 538 1841 606T1726 674Q1722 674 1718 674T1709 673Q1753 650 1776 610T1800 527Q1800 477 1785 438T1742 373T1675 332T1589 318Q1527 318 1476 341T1389 403T1334 491T1314 592Q1314 701 1419 812L1498 745Q1429 683 1429 615Q1429 591 1437 568T1462 526T1502 496T1556 484Q1579 484 1597 492T1629 514T1649 542T1656 570Q1656 597 1622 608Q1615 594 1613 578T1610 539H1509Z"  />
<glyph unicode="&#xD9A;" glyph-name="uni0D9A" horiz-adv-x="1665" d="M101 75Q144 189 187 277T274 436T365 562T461 667Q452 724 430 761T380 798Q360 798 342 778T308 721Q298 694 289 673T266 637T236 615T192 607Q145 607 121 636T96 714Q96 744 113 779T161 845T234 896T328 917Q415 917 468 867T544 731Q657 817 768 867T993 917Q1101 917 1202 886T1382 789T1508 626T1556 392Q1556 316 1535 245T1478 120T1395 33T1296 0Q1231 0 1141 73L1205 154Q1260 102 1293 102Q1318 102 1340 116T1378 157T1403 221T1412 302Q1412 349 1397 401T1352 505T1280 604T1183 687T1063 744T922 765Q888 765 849 756T768 730T684 692T602 644Q641 652 676 656T738 660Q829 660 900 633T1021 556T1096 438T1122 288Q1122 223 1106 170T1059 79T982 21T877 0Q746 0 670 120Q631 61 576 31T463 0Q427 0 400 19T350 61T305 103T259 122Q252 122 242 119T220 107T198 84T178 50L101 75ZM723 443Q723 382 734 340T767 270T816 231T879 219Q941 219 975 249T1009 341Q1009 386 992 425T940 495T857 542T745 560Q678 560 599 543T424 492Q401 465 380 437T340 378T301 310T264 230Q287 235 300 235Q335 235 374 227T449 219Q491 219 522 229T575 264T609 333T623 443H723Z"  />
<glyph unicode="&#xD9B;" glyph-name="uni0D9B" horiz-adv-x="1343" d="M844 43Q812 43 784 48T728 53Q686 53 645 25T570 -61L506 -15Q535 45 580 98T681 200Q746 257 776 309T806 412Q806 504 740 542T527 581Q447 581 387 564T286 518T225 449T204 362Q204 290 230 226Q249 271 285 293T368 315Q398 315 426 304T477 272T512 224T526 165Q526 132 514 103T480 50T430 14T368 0Q303 0 254 33T171 121T120 246T103 392Q103 481 131 556T213 685T346 769T527 800Q623 800 696 771T817 692T890 578T915 443Q915 360 888 296T809 183Q874 219 927 273T1017 393T1075 531T1096 673Q1096 767 1057 848T952 990T804 1084T632 1119Q573 1119 516 1104T404 1061T301 991T212 897L133 963Q180 1021 235 1068T353 1149T484 1201T626 1220Q760 1220 873 1166T1068 1021T1196 810T1242 557Q1242 434 1210 338T1122 177T995 77T844 43ZM425 163Q425 183 410 198T368 214Q345 214 328 198T310 158Q310 131 326 117T368 102Q392 102 408 118T425 163Z"  />
<glyph unicode="&#xD9C;" glyph-name="uni0D9C" horiz-adv-x="1343" d="M752 117Q784 109 808 106T852 102Q911 102 958 126T1038 193T1088 292T1106 414Q1106 487 1082 548T1019 653T931 721T830 745Q687 745 601 533Q639 532 669 516T720 471T752 405T763 325Q763 275 742 218T679 113T577 32T440 0Q366 0 302 33T188 124T111 256T83 416Q83 519 114 610T198 770T322 877T473 917Q506 917 534 914T585 905L580 803Q520 815 492 815Q428 815 377 790T290 721T235 618T215 492Q215 430 239 380T302 294T394 239T503 219Q563 219 603 250T643 347Q643 392 629 411T595 431Q557 431 533 369L452 400Q493 540 539 638T638 799T754 889T891 917Q960 917 1023 886T1134 799T1211 666T1240 496Q1240 401 1214 312T1137 154T1014 42T852 0Q820 0 789 5T728 19L752 117Z"  />
<glyph unicode="&#xD9D;" glyph-name="uni0D9D" horiz-adv-x="1343" d="M897 0Q861 0 830 8T775 30T739 66T725 113Q725 120 731 140T745 181T759 219T766 240Q766 269 739 286T663 304Q614 304 585 285T555 240Q555 231 561 215T576 180T591 143T598 113Q598 60 551 30T426 0Q349 0 289 30T188 109T125 224T103 358Q103 414 121 464T169 554H79V654H490Q487 684 478 710T456 756T427 786T393 797Q380 797 371 791T354 776T340 755T328 731Q294 685 244 685Q230 685 214 689T185 702T164 728T155 767Q155 793 170 819T210 868T270 903T345 917Q406 917 452 892T529 821T578 707T599 554H426Q325 554 274 512T222 394Q222 353 234 320T269 261T328 223T409 209Q430 209 457 212Q455 222 455 225T454 237Q454 315 507 360T663 405Q704 405 741 393T806 359T850 305T867 237Q867 228 867 225T864 211Q875 209 885 209T903 209Q948 209 987 221T1056 258T1102 317T1119 398Q1119 474 1069 514T919 554H719Q722 639 737 706T781 820T854 892T960 917Q997 917 1030 905T1089 872T1129 822T1144 759Q1144 725 1137 684T1115 608Q1172 568 1206 505T1240 364Q1240 297 1214 232T1143 115T1034 32T897 0ZM936 736Q910 736 892 730T862 712T842 685T830 654Q870 654 900 654T952 653T991 651T1020 648Q1021 655 1021 665T1022 680Q1022 704 997 720T936 736Z"  />
<glyph unicode="&#xD9E;" glyph-name="uni0D9E" horiz-adv-x="1343" d="M887 0Q814 0 757 29T660 122Q568 0 426 0Q354 0 295 29T192 109T125 224T101 362Q101 393 107 423T123 482T148 536T181 580Q155 589 135 605T100 640T79 682T71 728Q71 775 92 810T151 870T241 906T357 918Q430 918 492 896T600 840T672 762T698 677Q698 630 669 605T583 580H405Q364 580 330 564T270 522T231 464T216 400Q216 303 270 261T426 219Q509 219 560 274T611 432H712Q712 329 759 274T887 219Q943 219 989 240T1070 302T1122 401T1141 532Q1141 649 1102 756T993 947T826 1079T611 1129Q557 1129 503 1117T398 1081T302 1023T220 946L140 1003Q183 1052 235 1094T348 1166T478 1213T622 1230Q749 1230 861 1179T1058 1034T1192 808T1242 514Q1242 399 1217 304T1144 142T1032 37T887 0ZM448 680Q501 680 531 680T575 680T597 679Q597 701 580 725T531 769T458 803T364 816H360Q372 796 379 772T387 722Q387 701 378 677Q393 679 411 679T448 680ZM172 730Q172 706 185 688T229 669Q251 669 268 686T285 730Q285 752 271 769T235 786Q206 786 189 768T172 730Z"  />
<glyph unicode="&#xD9F;" glyph-name="uni0D9F" horiz-adv-x="1479" d="M882 117Q914 109 939 106T983 102Q1042 102 1089 126T1168 193T1218 292T1236 414Q1236 486 1215 547T1159 652T1077 720T979 745Q907 745 850 684T749 514Q786 513 816 497T867 452T899 386T910 306Q910 255 890 201T829 103T730 29T591 0Q489 0 400 31T246 123T143 276T105 488Q105 581 130 659T198 795T298 885T418 917Q645 917 645 584Q584 584 532 570T443 529T384 468T363 390Q363 353 385 322T445 268T530 232T632 219Q664 219 693 224T743 242T778 276T791 328Q791 373 777 392T743 412Q704 412 683 350L600 380Q642 519 688 620T787 788T903 885T1040 917Q1109 917 1170 886T1279 798T1353 665T1381 496Q1381 401 1353 312T1272 153T1147 42T983 0Q952 0 921 5T858 19L882 117ZM236 353Q236 416 257 472T317 571T413 643T541 677Q539 699 536 718T527 753T516 776T504 785Q495 785 476 749Q437 676 379 676Q338 676 316 698T288 753Q246 708 226 638T205 482Q205 440 214 395T238 309Q236 320 236 331T236 353Z"  />
<glyph unicode="&#xDA0;" glyph-name="uni0DA0" horiz-adv-x="1237" d="M425 547Q322 547 273 510T223 390Q223 350 241 318T302 264T416 231T595 219Q714 219 798 252T935 340T1013 467T1038 618Q1038 732 1000 824T897 982T748 1083T572 1119Q518 1119 465 1107T362 1071T269 1011T190 928L106 981Q147 1040 199 1084T312 1159T437 1204T569 1220Q685 1220 788 1175T970 1050T1093 859T1139 614Q1139 474 1100 361T989 167T813 44T580 0Q471 0 383 25T233 98T136 211T102 358Q102 414 120 461T168 547H78V647H519Q512 710 485 748T422 787Q410 787 398 774T357 721Q322 675 273 675Q184 675 184 767Q184 793 199 819T239 868T299 903T374 917Q435 917 481 891T558 817T607 701T628 547H425Z"  />
<glyph unicode="&#xDA1;" glyph-name="uni0DA1" horiz-adv-x="1237" d="M602 0Q482 0 390 30T233 110T136 226T103 360Q103 424 123 479T187 574T296 637T455 660Q447 714 430 749T390 785Q368 785 352 771T319 726Q295 680 272 664T217 647Q175 647 150 675T125 746Q125 779 141 810T184 864T249 902T328 917Q380 917 423 892T496 821T543 709T560 561Q502 561 460 558T386 549T332 532T294 509Q231 456 231 388Q231 307 326 263T602 219Q706 219 785 234T919 276T1000 338T1028 412Q1028 464 994 507Q959 450 909 412T803 374Q762 374 731 390T678 434T645 502T633 589Q633 653 657 729T721 881T814 1025T925 1140Q955 1164 977 1182T1018 1213T1054 1232T1090 1238Q1110 1238 1128 1232T1161 1217T1183 1197T1191 1176Q1191 1138 1172 1122T1117 1093Q1032 1065 958 1010T828 873Q862 890 895 890Q926 890 953 877T999 839T1030 778T1042 697Q1042 682 1041 664T1035 625Q1090 586 1117 523T1145 388Q1145 316 1109 247T1004 123T833 34T602 0ZM858 753Q823 753 795 736T752 689Q817 686 863 681T939 666Q940 671 940 679Q940 713 920 733T858 753ZM902 569Q876 577 842 583T765 590H732Q737 552 756 531T811 510Q837 510 861 526T902 569Z"  />
<glyph unicode="&#xDA2;" glyph-name="uni0DA2" horiz-adv-x="1237" d="M614 0Q494 0 399 25T238 97T138 210T103 360Q103 424 130 479T206 574T318 637T455 660Q447 714 430 749T390 785Q368 785 352 771T319 726Q295 680 272 664T217 647Q175 647 150 675T125 746Q125 779 141 810T184 864T249 902T329 917Q381 917 423 892T496 821T543 709T560 561Q528 561 491 560T418 552T348 535T288 505T247 458T231 388Q231 350 248 319T308 266T426 231T614 219Q715 219 794 229T927 259T1009 310T1038 382Q1038 422 1019 455T963 512T877 548T767 561H663Q670 679 714 755T822 868Q840 911 874 967T971 1085Q1107 1220 1156 1220Q1213 1220 1213 1163Q1213 1138 1192 1120T1139 1079Q1065 1028 1023 983T956 899Q989 896 1018 882T1068 846T1101 794T1114 731Q1114 690 1095 654T1041 594Q1093 558 1124 500T1156 358Q1156 274 1117 208T1007 96T836 25T614 0ZM942 799Q923 799 904 791Q901 782 899 769T897 736Q897 707 915 692T958 676Q984 676 998 693T1013 736Q1013 761 994 780T942 799ZM809 734Q796 723 784 705T766 660Q771 660 781 660T802 660T823 660T842 658Q831 672 820 690T809 734Z"  />
<glyph unicode="&#xDA3;" glyph-name="uni0DA3" horiz-adv-x="2308" d="M108 55Q154 188 194 282T276 445T364 567T468 667Q459 724 437 761T387 798Q367 798 349 778T315 721Q305 694 295 673T273 637T243 615T199 607Q152 607 128 636T103 714Q103 744 120 779T168 845T241 896T335 917Q420 917 474 865T551 729Q609 773 676 808T814 867T955 905T1090 918Q1177 918 1256 896T1396 836T1492 753T1528 657Q1528 610 1499 585T1413 560H1331Q1231 560 1180 516T1129 400Q1129 303 1178 261T1329 219Q1373 219 1412 233T1481 274T1528 339T1546 424H1646Q1646 373 1661 335T1702 271T1765 232T1842 219Q1899 219 1947 241T2031 303T2087 402T2107 532Q2107 649 2070 756T1966 947T1805 1079T1597 1129Q1541 1129 1487 1115T1383 1076T1289 1021T1208 957L1128 1014Q1171 1058 1222 1097T1333 1165T1462 1212T1608 1230Q1743 1230 1854 1175T2043 1024T2165 796T2209 514Q2209 399 2182 304T2105 142T1989 37T1842 0Q1768 0 1702 30T1594 124Q1571 96 1540 73T1474 34T1401 9T1329 0Q1252 0 1194 30T1092 123Q1028 0 884 0Q751 0 677 120Q638 61 583 31T470 0Q440 0 417 4T373 18T335 42T298 77H299Q274 102 266 102Q251 102 230 83T191 22L108 55ZM1076 786Q963 786 851 754T619 646Q654 652 687 656T745 660Q954 660 1056 522Q1093 593 1167 626T1355 660Q1381 660 1395 660T1417 660T1426 660Q1427 663 1412 683T1358 727T1251 768T1076 786ZM730 424Q730 363 741 324T774 261T823 228T886 219Q948 219 982 249T1016 341Q1016 386 999 425T947 495T864 542T752 560Q685 560 606 543T431 492Q408 465 389 437T351 378T316 310T281 230Q304 235 317 235Q337 235 354 233T387 227T421 222T456 219Q497 219 529 226T582 255T616 317T630 424H730Z"  />
<glyph unicode="&#xDA4;" glyph-name="uni0DA4" horiz-adv-x="1999" d="M1493 0Q1442 0 1392 10T1298 37T1216 79T1151 133Q1089 0 938 0Q874 0 822 31T731 120Q690 60 636 30T524 0Q494 0 471 4T427 18T389 42T352 77H353Q328 102 314 102Q295 102 282 85T269 35H172Q156 100 145 166T126 294T115 408T111 498Q111 595 129 672T183 804T267 888T379 917Q420 917 455 901T518 856T564 792T590 715Q662 761 746 798T936 862T1173 903T1469 917Q1559 917 1634 890T1764 814T1849 694T1880 539Q1828 544 1778 548T1682 554T1599 558T1534 560Q1269 560 1269 382Q1269 326 1286 280T1335 199T1414 145T1521 126Q1693 126 1844 226L1889 136L1799 81Q1722 -63 1722 -215Q1722 -358 1903 -382L1870 -475Q1795 -475 1735 -459T1631 -415T1565 -346T1542 -258Q1542 -204 1576 -135T1658 21Q1620 12 1575 6T1493 0ZM1334 813Q1238 811 1146 799T969 765T809 714T671 648Q737 660 799 660Q914 660 993 623T1123 504Q1149 548 1186 578T1274 626T1389 652T1533 660Q1564 660 1597 660T1662 658T1721 655T1769 651Q1761 681 1739 707T1690 752T1634 781T1583 792Q1552 792 1533 767Q1509 737 1493 721T1464 699T1440 691T1415 690Q1375 690 1351 714T1327 774Q1327 796 1334 813ZM234 248Q253 300 280 354T342 461T417 562T500 650Q492 704 484 737T465 770Q461 770 448 748V749Q434 725 421 710T395 688T369 678T340 675Q310 675 287 689T251 729Q231 689 221 631T211 504Q211 461 217 397T234 248ZM784 443Q784 382 795 340T828 270T877 231T939 219Q1002 219 1036 249T1070 341Q1070 386 1053 425T1003 495T920 542T806 560Q737 560 658 543T485 492Q461 464 440 436T399 377T363 309T329 231Q345 235 366 235Q406 235 439 227T510 219Q552 219 583 229T637 264T671 333T685 443H784Z"  />
<glyph unicode="&#xDA5;" glyph-name="uni0DA5" horiz-adv-x="1706" d="M1213 0Q1102 0 1011 42T868 166Q772 0 574 0Q465 0 374 33T218 128T116 281T79 488Q79 581 109 659T187 795T296 885T421 917Q477 917 518 893T585 824T625 713T638 565Q577 565 527 553T440 519T385 464T365 390Q365 353 384 322T438 268T517 232T615 219Q648 219 681 226T742 247T786 284T803 338Q803 360 798 374T784 397T766 408T746 412Q710 412 690 351L609 378Q640 515 691 616T817 784T988 884T1209 917Q1298 917 1369 889T1491 811T1573 691T1613 538Q1510 549 1430 554T1288 560Q1229 560 1181 545T1099 502T1047 436T1029 351Q1029 306 1048 264T1100 191T1178 140T1276 121Q1402 121 1568 231L1606 134Q1572 116 1546 102T1513 85Q1474 9 1456 -65T1438 -215Q1438 -361 1620 -382L1586 -475Q1511 -475 1450 -459T1347 -415T1281 -346T1258 -258Q1258 -204 1292 -134T1376 24Q1352 15 1333 10T1295 3T1257 1T1213 0ZM1243 650Q1311 650 1371 648T1487 640Q1478 663 1462 689T1426 737T1384 774T1340 789Q1295 789 1264 741Q1222 676 1166 676Q1121 676 1097 703T1072 768Q1072 789 1079 807Q1027 800 976 775T881 710T801 621T745 515H752Q779 515 801 507T843 480Q891 568 994 609T1243 650ZM239 353Q239 416 260 469T320 562T415 627T543 658Q541 682 538 704T529 745T519 774T507 785Q497 785 478 749Q438 676 381 676Q340 676 317 698T289 755Q241 710 210 640T179 482Q179 424 196 365T250 257Q244 280 242 304T239 353Z"  />
<glyph unicode="&#xDA6;" glyph-name="uni0DA6" horiz-adv-x="1368" d="M742 0Q593 0 472 31T264 123T132 276T85 488Q85 579 118 657T204 793T322 884T453 917Q576 917 642 829T708 578Q636 574 572 568T461 543T386 488T358 388Q358 332 384 296T460 238T581 208T742 199Q943 199 1046 242T1150 382Q1150 422 1131 458T1076 521T991 564T881 580H776Q789 817 916 887Q936 930 978 985T1083 1103Q1219 1238 1269 1238Q1325 1238 1325 1182Q1325 1155 1305 1137T1252 1098Q1177 1046 1127 1001T1051 918Q1084 915 1112 901T1162 865T1196 813T1208 750Q1208 708 1191 675T1136 620Q1204 578 1236 509T1269 358Q1269 275 1234 209T1130 97T964 25T742 0ZM1035 818Q1023 818 1015 817T1001 809T993 790T990 755Q990 726 1008 711T1051 695Q1077 695 1092 712T1107 755Q1107 777 1089 797T1035 818ZM397 676Q359 676 337 696T308 751Q253 710 220 640T186 482Q186 427 197 382T233 300Q230 327 230 360Q230 424 255 478T328 573T447 637T610 660Q607 686 601 708T586 748T567 774T547 784Q519 784 495 748Q469 708 448 692T397 676ZM878 652Q895 652 912 651T947 648Q906 695 906 755V769Q866 702 863 652H878Z"  />
<glyph unicode="&#xDA7;" glyph-name="uni0DA7" horiz-adv-x="1278" d="M630 650Q521 687 459 687Q408 687 362 671T280 626T224 558T203 470Q203 405 235 355T322 270T452 217T609 199Q716 199 802 229T949 313T1042 438T1075 594Q1075 663 1058 729T1009 855T932 964T831 1050T710 1106T572 1127Q484 1127 391 1078T217 924L137 983Q224 1108 341 1168T592 1229Q664 1229 735 1208T871 1146T992 1048T1088 919T1152 765T1176 588Q1176 457 1131 349T1007 164T825 43T604 0Q489 0 397 35T239 131T138 273T103 446Q103 527 128 590T200 697T313 764T459 787Q531 787 675 742L630 650Z"  />
<glyph unicode="&#xDA8;" glyph-name="uni0DA8" horiz-adv-x="1343" d="M898 0Q824 0 768 35T672 133Q626 71 562 36T426 0Q356 0 297 28T194 108T127 230T103 386Q103 474 134 549T221 680T355 768T528 804V702Q467 702 410 681T309 621T239 530T212 414Q212 371 226 334T267 269T334 225T426 209Q472 209 508 220T570 259T608 331T622 442H723Q723 376 734 332T766 260T821 221T898 209Q1010 209 1075 288T1140 529Q1140 556 1134 591T1119 663T1097 734T1071 794Q1029 764 987 751T898 737Q853 737 816 751T753 791T712 851T698 927Q698 949 700 968T710 1011T730 1065T766 1142Q774 1159 781 1180T796 1226H857Q1056 1032 1149 849T1243 476Q1243 376 1220 289T1152 138T1044 37T898 0ZM922 843Q976 843 1019 881Q971 952 931 1003T853 1091Q807 1013 807 958Q807 935 816 915T842 878T879 853T922 843Z"  />
<glyph unicode="&#xDA9;" glyph-name="uni0DA9" horiz-adv-x="1343" d="M896 0Q861 0 832 5T775 23T721 61T669 124Q620 60 562 30T428 0Q351 0 291 29T189 108T125 221T103 354Q103 414 118 456T167 534H79V635H520Q513 695 486 731T423 767Q406 767 391 751T359 716T322 681T275 665Q186 665 186 757Q186 783 200 808T240 853T300 885T375 897Q436 897 482 872T559 801T608 687T629 534H426Q323 534 274 503T224 392Q224 302 278 261T439 219Q482 219 515 229T572 264T607 333T620 442H722Q722 376 732 333T765 265T819 229T896 219Q953 219 998 241T1075 303T1123 402T1140 531Q1140 648 1104 756T1002 946T842 1078T630 1127Q575 1127 521 1112T417 1070T321 1003T239 915L158 976Q349 1229 642 1229Q769 1229 879 1178T1069 1032T1195 805T1241 511Q1241 399 1218 306T1150 144T1041 38T896 0Z"  />
<glyph unicode="&#xDAA;" glyph-name="uni0DAA" horiz-adv-x="1343" d="M1241 492Q1241 380 1217 290T1149 135T1040 35T896 0Q861 0 832 5T775 24T722 62T670 124Q622 65 561 33T428 0Q351 0 291 29T189 108T125 221T103 354Q103 412 121 458T169 544H79V644H520Q517 673 508 697T486 739T457 767T423 777Q407 777 395 760T367 721T330 683T275 665Q186 665 186 757Q186 782 200 809T240 857T300 893T375 907Q436 907 482 882T559 811T608 697T629 544H426Q323 544 274 509T224 392Q224 302 278 256T439 209Q482 209 515 220T572 259T607 331T620 442H722Q722 376 732 332T765 260T819 221T896 209Q953 209 998 229T1075 286T1123 377T1140 496Q1140 532 1134 574T1118 657T1094 735T1068 798Q1026 768 985 755T896 741Q851 741 814 755T751 795T711 855T697 931Q697 953 699 972T708 1015T728 1069T764 1146Q772 1163 779 1184T794 1231H855Q1049 1044 1145 855T1241 492ZM920 847Q949 847 972 856T1017 885Q969 957 929 1008T851 1096Q830 1054 818 1023T805 962Q805 939 814 919T840 882T877 857T920 847Z"  />
<glyph unicode="&#xDAB;" glyph-name="uni0DAB" horiz-adv-x="2044" d="M1667 0Q1636 0 1604 8T1541 31T1487 69T1446 119Q1420 103 1391 96T1334 88Q1282 88 1234 118T1160 211Q1101 110 1003 55T785 0Q717 0 665 15T571 59T492 126T418 215Q362 288 323 325T261 363Q227 363 148 296L95 377Q151 430 219 484T373 587Q372 592 372 596T372 607Q372 674 399 732T477 834T600 901T761 926Q810 926 868 914T978 873Q1099 924 1214 968T1422 1045T1581 1096T1667 1115Q1746 1115 1746 1056Q1746 1040 1739 1028T1710 1005T1653 981T1558 952Q1439 918 1319 879T1095 802Q1145 755 1175 690T1220 550Q1246 570 1278 582T1342 594Q1380 594 1415 580T1479 534Q1496 552 1519 566T1568 591T1623 607T1677 613Q1729 613 1778 591T1865 528T1926 428T1949 292Q1949 223 1927 169T1866 77T1776 20T1667 0ZM759 825Q703 825 656 812T573 774T513 716T480 643Q531 670 620 713T847 816Q824 821 800 823T759 825ZM818 692Q852 672 871 637T891 560Q891 521 873 484T821 418T743 370T645 352Q490 352 406 492Q389 479 377 469T343 442Q362 431 382 415T425 381T469 343T515 305Q586 249 656 229T799 209Q861 209 916 231T1012 292T1077 385T1101 506Q1101 539 1093 576T1069 648T1032 712T983 760L818 692ZM685 566Q685 543 700 529T738 514Q759 514 774 529T789 566Q789 589 774 604T738 620Q715 620 700 605T685 566ZM583 564Q583 572 583 578T585 592Q575 587 567 583T551 574L552 575Q534 562 521 554T489 533Q504 498 543 477T632 454Q608 477 596 506T583 564ZM1643 496Q1629 496 1612 491T1578 475T1550 451T1533 421Q1539 382 1539 339Q1539 266 1521 217Q1527 172 1558 149T1632 126Q1686 126 1721 172T1757 307Q1757 401 1727 449T1643 496ZM1338 492Q1318 492 1300 480T1267 445T1244 394T1235 331Q1235 268 1263 229T1334 190Q1355 190 1373 200T1406 231T1429 281T1438 347Q1438 416 1409 454T1338 492Z"  />
<glyph unicode="&#xDAC;" glyph-name="uni0DAC" horiz-adv-x="1343" d="M928 0Q868 0 816 32T726 123Q702 93 673 71T611 32T545 8T481 0Q393 0 323 35T204 133T129 285T103 478Q103 578 132 661T211 803T323 896T454 929Q513 929 567 898T662 816T727 696T752 554H542Q441 554 386 510T330 390Q330 349 341 314T373 254T424 214T495 199Q589 199 632 249T677 412H779Q779 336 795 294T836 230T888 204T938 199Q1033 199 1088 286T1144 532Q1144 654 1105 762T996 952T830 1080T619 1128Q566 1128 513 1115T410 1077T314 1017T229 936L150 994Q190 1047 243 1090T357 1164T488 1212T630 1229Q775 1229 889 1172T1082 1016T1202 789T1244 514Q1244 391 1220 296T1153 135T1052 35T928 0ZM641 654Q636 677 627 701T605 746T581 780T556 794Q530 794 516 779T489 744T458 710T409 694Q367 694 345 716T318 773Q292 753 273 721T239 654H641ZM206 558Q196 508 196 456Q196 348 248 254Q237 309 237 363Q237 419 251 470T300 558H206Z"  />
<glyph unicode="&#xDAD;" glyph-name="uni0DAD" horiz-adv-x="1450" d="M113 56Q217 480 422 697Q420 713 414 730T397 761T374 783T347 792Q331 792 323 778T305 726Q297 690 288 666T267 628T237 608T193 602Q172 602 154 610T123 633T103 667T96 707Q96 739 110 776T150 844T215 896T304 917Q374 917 424 876T502 769Q540 804 584 831T673 878T761 907T843 917Q940 917 1028 881T1182 779T1288 620T1327 411Q1327 336 1307 265T1253 140T1174 52T1076 19Q1011 19 923 92L986 173Q1041 121 1074 121Q1099 121 1121 135T1159 176T1184 240T1193 321Q1193 400 1162 479T1075 622T947 725T788 765Q713 765 650 738T523 653Q544 656 563 658T600 660Q680 660 747 634T862 562T938 457T965 328Q965 254 931 194T841 90T712 24T560 0Q430 0 329 71Q310 84 294 91T268 98Q235 98 204 23L113 56ZM600 560Q480 560 392 496Q378 476 360 441T323 365T287 279T258 198Q291 207 326 207Q344 207 372 206T430 203T486 200T525 199Q614 199 676 210T776 243T832 294T850 364Q850 399 831 434T779 497T700 542T600 560Z"  />
<glyph unicode="&#xDAE;" glyph-name="uni0DAE" horiz-adv-x="1343" d="M1141 541Q1141 567 1136 600T1121 669T1100 737T1072 798Q992 742 901 742Q855 742 818 756T755 796T715 855T701 931Q701 954 703 973T712 1015T732 1070T768 1147Q776 1164 783 1185T798 1231H860Q951 1143 1022 1049T1142 861T1216 681T1242 521Q1242 441 1218 372T1150 244T1049 141T925 64T786 17T642 0Q522 0 423 40T252 149T142 308T103 496Q103 573 129 643T205 766T323 851T479 883Q542 883 632 850L607 753Q535 781 479 781Q424 781 374 762T287 707T227 622T204 512Q204 441 239 387T335 295T473 238T638 219Q745 219 837 240T996 303T1102 404T1141 541ZM927 848Q979 848 1023 884Q975 956 935 1008T858 1096Q836 1053 824 1024T812 963Q812 940 821 920T847 883T883 858T927 848Z"  />
<glyph unicode="&#xDAF;" glyph-name="uni0DAF" horiz-adv-x="883" d="M452 0Q376 0 312 26T200 99T126 207T99 343Q99 410 119 467T186 568T310 635T501 660Q543 660 587 658T669 651Q663 681 652 708T627 757T598 790T570 802Q540 802 520 776Q496 746 480 729T451 704T427 693T402 690Q364 690 340 717T315 784Q315 808 328 833T365 880T423 914T499 927Q560 927 611 898T699 816T757 693T778 539Q677 550 605 555T495 560Q441 560 403 547T340 511T304 454T292 382Q292 333 308 287T353 205T424 148T518 126Q566 126 632 150T773 226L818 136L728 81Q651 -63 651 -215Q651 -358 832 -382L799 -475Q724 -475 667 -459T570 -415T511 -346T491 -258Q491 -151 585 18Q519 0 452 0Z"  />
<glyph unicode="&#xDB0;" glyph-name="uni0DB0" horiz-adv-x="1343" d="M897 0Q750 0 670 122Q622 60 560 30T426 0Q356 0 297 28T195 108T128 230T104 386Q104 474 134 549T221 680T355 768T528 804V702Q467 702 410 681T309 621T239 530T212 414Q212 371 226 332T267 264T334 217T426 199Q472 199 508 212T570 254T608 330T621 442H722Q722 310 765 255T897 199Q953 199 998 223T1075 292T1124 398T1141 531Q1141 648 1105 756T1003 946T842 1078T630 1127Q577 1127 524 1113T420 1072T323 1006T240 915L161 973Q340 1229 642 1229Q769 1229 878 1178T1068 1033T1195 807T1241 513Q1241 398 1217 304T1148 142T1040 37T897 0Z"  />
<glyph unicode="&#xDB1;" glyph-name="uni0DB1" horiz-adv-x="1665" d="M940 765Q904 765 864 757T782 735T701 702T623 659Q629 660 635 660T646 660Q711 660 771 638T877 576T950 478T978 349Q978 263 940 198T838 89T691 23T517 0Q344 0 220 62T33 244L99 289Q140 242 158 242Q174 242 201 281T274 396Q326 484 366 545T442 642Q439 676 431 706T410 759T384 795T356 808Q342 808 332 801T313 781T296 749T275 707L276 708Q271 693 263 677T242 648T211 626T168 617Q122 617 97 645T72 723Q72 754 89 789T138 855T211 906T303 927Q344 927 378 911T439 867T486 801T519 716Q574 760 634 797T758 860T886 902T1011 917Q1085 917 1153 899T1280 847T1387 765T1470 658T1524 528T1543 381Q1543 305 1522 236T1466 115T1383 31T1284 0Q1220 0 1130 73L1193 154Q1250 102 1282 102Q1307 102 1330 119T1370 167T1397 236T1408 321Q1408 368 1391 419T1342 519T1267 613T1171 691T1061 745T940 765ZM642 560Q625 560 603 557T557 549T512 538T477 527Q439 488 362 345Q338 300 317 269T280 217Q361 199 483 199Q662 199 728 217Q792 234 825 270T859 371Q859 408 843 442T797 502T729 544T642 560Z"  />
<glyph unicode="&#xDB3;" glyph-name="uni0DB3" horiz-adv-x="1087" d="M576 0Q460 0 372 35T223 132T132 275T101 451Q101 554 140 641T248 792T412 891T621 927Q711 927 782 899T905 819T986 697T1024 539Q921 550 811 555T591 560Q531 560 485 545T408 504T360 441T344 360Q344 313 366 270T428 194T522 141T638 121Q724 121 810 148T978 231L1018 134L926 86Q907 49 893 7T869 -79T855 -165T850 -245Q850 -388 1031 -412L997 -505Q922 -505 865 -489T769 -445T710 -376T690 -288Q690 -228 713 -145T787 27Q739 13 685 7T576 0ZM585 660Q681 660 760 658T900 650Q890 677 874 703T838 751T796 785T752 798Q710 798 671 746Q654 723 633 705T577 686Q531 686 508 713T484 778Q484 788 484 795T488 813Q429 799 381 771T297 704T239 615T207 512Q255 584 350 622T585 660Z"  />
<glyph unicode="&#xDB4;" glyph-name="uni0DB4" horiz-adv-x="1237" d="M603 0Q484 0 391 25T234 98T136 211T102 360Q102 424 124 479T191 574T304 637T466 660Q462 687 456 711T441 754T422 783T400 794Q380 794 363 781T329 736Q306 690 283 673T228 656Q185 656 161 685T136 756Q136 789 152 819T195 874T260 912T339 927Q391 927 434 901T507 826T554 711T571 562Q501 560 440 554T332 530T258 479T231 388Q231 332 255 299T326 248T442 225T602 219Q704 219 781 227T911 254T991 304T1018 382Q1018 422 999 455T944 512T859 549T749 562H644Q648 636 667 702T717 819T791 898T884 927Q922 927 955 914T1014 878T1053 821T1068 746Q1068 731 1066 711T1060 670T1048 626T1031 585Q1137 511 1137 358Q1137 275 1099 209T991 97T823 25T603 0ZM856 743Q817 743 794 719T758 660Q809 659 854 652T938 632Q943 648 944 664T946 688Q946 712 921 727T856 743Z"  />
<glyph unicode="&#xDB5;" glyph-name="uni0DB5" horiz-adv-x="1237" d="M567 0Q457 0 371 26T225 100T134 214T102 360Q102 424 127 479T201 574T321 637T485 660Q481 687 475 711T460 754T441 783T420 794Q398 794 382 781T349 736Q325 690 302 673T247 656Q204 656 180 685T155 756Q155 789 171 819T214 874T279 912T358 927Q410 927 453 901T526 826T573 711T590 562Q507 562 441 552T328 521T256 466T231 388Q231 332 254 299T323 248T433 225T582 219Q690 219 774 236T916 292T1004 391T1034 536Q1034 563 1028 598T1012 670T990 741T965 799Q923 770 882 756T792 742Q745 742 708 756T645 796T606 855T592 931Q592 954 594 973T603 1015T623 1070T659 1147Q667 1164 674 1185T689 1231H750Q843 1141 915 1047T1037 861T1111 683T1137 525Q1137 396 1099 298T987 133T807 34T567 0ZM815 848Q844 848 867 857T912 885Q865 956 823 1008T745 1097Q701 1012 701 963Q701 940 711 920T737 883T773 858T815 848Z"  />
<glyph unicode="&#xDB6;" glyph-name="uni0DB6" horiz-adv-x="1343" d="M825 0Q772 0 729 13T656 48T609 101T592 167Q592 190 597 208T616 241T653 272T714 304Q812 346 812 412Q812 453 794 488T739 548T650 587T527 601Q447 601 387 581T286 528T225 452T204 362Q204 290 230 226Q249 272 286 293T368 315Q398 315 426 304T477 272T512 224T526 165Q526 132 514 103T480 50T430 14T368 0Q303 0 254 33T171 121T120 246T103 392Q103 481 131 556T213 685T346 769T527 800Q620 800 693 771T817 693T894 579T921 443Q921 285 764 216Q739 205 725 198T703 185T695 175T693 167Q693 149 710 137T752 125Q805 125 851 151T935 221T1003 321T1053 439T1084 560T1095 673Q1095 768 1059 851T961 995T820 1092T652 1128Q593 1128 535 1115T423 1074T320 1008T231 916L152 982Q246 1098 372 1163T646 1229Q780 1229 890 1174T1078 1026T1199 812T1242 557Q1242 440 1218 339T1143 162T1013 43T825 0ZM310 158Q310 131 326 117T368 102Q393 102 409 118T425 163Q425 183 410 198T368 214Q345 214 328 198T310 158Z"  />
<glyph unicode="&#xDB7;" glyph-name="uni0DB7" horiz-adv-x="1343" d="M751 117Q783 109 807 106T851 102Q910 102 957 126T1037 193T1087 292T1105 414Q1105 487 1081 548T1018 653T930 721T828 746Q756 746 699 684T598 514Q636 513 666 497T718 452T750 386T761 306Q761 255 740 201T677 102T575 29T439 0Q381 0 321 24T213 93T134 203T103 353Q103 416 125 475T186 577H81V679H395Q391 707 382 732T361 775T333 804T302 815Q280 815 264 792Q246 766 232 749T206 722T180 708T151 703Q62 703 62 795Q62 821 76 848T116 896T177 932T252 946Q311 946 354 921T426 851T468 740T482 596Q417 596 370 579T292 532T246 466T231 390Q231 353 250 320T303 263T382 224T481 209Q514 209 543 216T594 237T628 274T641 328Q641 373 627 392T593 412Q555 412 531 350L460 380Q501 520 545 621T640 788T753 885T889 917Q958 917 1021 886T1133 798T1210 665T1239 496Q1239 401 1213 312T1136 154T1013 42T851 0Q819 0 788 5T727 19L751 117Z"  />
<glyph unicode="&#xDB8;" glyph-name="uni0DB8" horiz-adv-x="1343" d="M638 0Q515 0 416 40T248 150T141 312T103 506Q103 584 124 655T179 780T256 866T344 898Q380 898 402 888T437 858T456 806T466 731Q473 630 494 593Q504 575 521 561T560 537T604 522T651 517Q689 517 721 529T776 564T812 616T825 684Q825 692 824 696Q811 645 769 612T672 579Q636 579 607 592T558 626T526 677T514 738Q514 769 525 798T558 848T608 883T672 896Q731 896 778 879T859 830T909 758T927 671Q927 613 905 566T844 486T755 434T649 416Q599 416 555 429T475 468T414 527T378 604Q369 638 366 672T362 733T357 778T344 796Q319 796 294 772T249 710T217 623T204 527Q204 453 237 394T329 294T467 231T638 209Q752 209 844 238T1003 320T1105 445T1141 602Q1141 672 1124 740T1074 869T996 981T895 1070T774 1129T638 1150Q591 1150 538 1136T432 1094T330 1026T240 935L164 1002Q206 1063 261 1109T381 1186T516 1233T657 1249Q729 1249 800 1227T937 1163T1058 1062T1154 931T1218 774T1242 596Q1242 473 1201 365T1083 175T893 47T638 0ZM672 680Q696 680 712 696T729 738Q729 762 713 778T672 794Q647 794 631 778T614 738Q614 713 630 697T672 680Z"  />
<glyph unicode="&#xDB9;" glyph-name="uni0DB9" horiz-adv-x="1343" d="M887 0Q851 0 820 8T766 30T729 66T716 113Q716 124 722 143T736 181T750 218T757 241Q757 270 731 287T656 304Q607 304 582 286T556 241Q556 231 562 214T577 179T592 143T599 113Q599 60 552 30T426 0Q348 0 288 36T186 133T124 272T103 437Q103 536 123 617T178 756T257 846T350 878Q426 878 447 782Q460 726 470 689T492 630Q509 594 546 571T646 548Q684 548 716 560T771 593T808 646T821 715Q821 723 820 726Q807 675 766 642T668 609Q632 609 603 622T554 657T522 708T510 769Q510 800 521 829T554 879T604 914T668 927Q727 927 774 910T855 861T905 789T923 701Q923 643 901 596T840 516T751 465T646 447Q520 447 451 511T360 723Q356 746 353 761T344 776Q320 776 295 753T250 687T217 585T204 453Q204 407 217 362T257 280T321 222T409 199Q431 199 457 202Q455 212 455 220T454 237Q454 315 503 360T656 405Q697 405 734 393T798 359T842 305T858 237Q858 228 858 220T855 201Q865 199 875 199T894 199Q951 199 996 225T1073 297T1122 403T1139 532Q1139 664 1099 773T989 962T827 1084T630 1128Q577 1128 524 1114T420 1072T323 1006T240 916L161 974Q339 1229 642 1229Q732 1229 811 1202T957 1128T1076 1015T1165 872T1221 710T1240 538Q1240 418 1216 319T1145 149T1034 39T887 0ZM668 711Q692 711 708 727T725 769Q725 793 709 809T668 825Q643 825 627 809T610 769Q610 744 626 728T668 711Z"  />
<glyph unicode="&#xDBA;" glyph-name="uni0DBA" horiz-adv-x="1343" d="M891 0Q744 0 661 123Q615 60 556 30T426 0Q356 0 297 28T195 108T128 230T103 386Q103 475 134 550T221 680T355 769T528 805V702Q467 702 410 681T309 622T239 530T212 414Q212 371 226 336T267 274T334 234T426 219Q472 219 506 229T564 264T599 333T611 442H713Q713 376 724 333T757 265T813 229T891 219Q939 219 981 230T1053 262T1101 316T1119 392Q1119 554 919 554H699Q702 639 720 706T770 820T850 892T960 917Q997 917 1030 905T1089 872T1129 822T1144 759Q1144 725 1137 684T1114 608Q1172 568 1206 505T1240 364Q1240 294 1213 229T1139 112T1028 31T891 0ZM810 654Q893 654 943 653T1020 648Q1020 655 1020 664T1021 680Q1021 704 996 720T936 736Q882 736 851 713T810 654Z"  />
<glyph unicode="&#xDBB;" glyph-name="uni0DBB" horiz-adv-x="1130" d="M527 0Q429 0 351 32T217 122T132 255T102 420Q102 516 132 592T219 731T356 844T536 940Q626 980 697 1019T822 1095T915 1166T980 1229Q1015 1264 1035 1267Q1056 1267 1069 1260T1091 1242T1103 1221T1106 1207Q1106 1183 1071 1146T978 1066T844 979T690 898Q774 880 839 839T950 741T1018 615T1042 470Q1042 370 998 284T880 135T715 36T527 0ZM488 209Q557 209 627 232T753 297T846 398T882 532Q882 590 857 640T790 726T692 783T576 804Q507 804 443 775T330 696T251 585T221 455Q221 401 240 356T294 278T378 227T488 209Z"  />
<glyph unicode="&#xDBD;" glyph-name="uni0DBD" horiz-adv-x="1450" d="M757 -320Q617 -320 498 -278T292 -159T155 25T105 263Q105 398 155 515T298 720T522 857T817 907Q926 907 1018 882T1176 812T1279 710T1316 586Q1316 533 1293 484T1229 396T1134 334T1016 310Q964 310 923 328T851 379T803 454T779 549H603V650H1086V549H885Q899 517 932 494T1020 470Q1056 470 1087 482T1141 515T1177 563T1190 619Q1190 653 1164 687T1088 747T966 789T802 806Q700 806 608 774T445 682T334 536T293 341Q293 234 334 136T446 -38T613 -159T816 -205Q910 -205 989 -178T1127 -99T1217 27T1250 194H1351Q1351 81 1313 -13T1199 -175T1012 -282T757 -320Z"  />
<glyph unicode="&#xDC0;" glyph-name="uni0DC0" horiz-adv-x="1237" d="M485 660Q481 687 475 711T460 754T441 783T420 794Q398 794 382 781T349 736Q325 690 302 673T247 656Q205 656 180 685T155 756Q155 789 171 819T214 874T279 912T358 927Q410 927 453 901T526 826T573 711T590 562Q359 562 294 509Q231 456 231 388Q231 332 254 297T323 243T433 216T582 209Q689 209 773 234T917 306T1007 422T1038 579Q1038 693 1003 792T907 965T765 1081T592 1124Q538 1124 485 1112T383 1077T290 1018T211 936L125 989Q166 1046 218 1090T331 1164T456 1210T588 1226Q704 1226 804 1174T979 1034T1096 827T1139 575Q1139 435 1094 328T970 148T788 38T567 0Q457 0 371 26T225 100T134 214T102 360Q102 424 127 479T201 574T321 637T485 660Z"  />
<glyph unicode="&#xDC1;" glyph-name="uni0DC1" horiz-adv-x="1343" d="M1252 439Q1252 316 1232 233T1178 97T1098 23T1001 0Q959 0 923 15T860 55T818 115T803 188Q803 245 825 287T886 358T977 401T1092 416Q1098 416 1103 416T1119 414Q1116 492 1093 552T1032 653T948 715T849 736Q777 736 717 679T613 514Q651 513 681 497T732 452T764 386T775 306Q775 255 752 201T686 103T581 29T442 0Q368 0 307 33T200 124T130 256T105 416Q105 469 115 526T146 639T200 743T279 829T385 888T521 910Q542 910 564 909T609 903L590 800Q572 804 557 804T524 804Q456 804 403 775T313 699T257 598T238 492Q238 430 258 379T315 290T399 233T505 212Q535 212 562 218T610 237T643 273T655 328Q655 373 641 392T607 412Q569 412 546 350L464 380Q505 521 552 620T653 784T771 877T909 907Q973 907 1023 888T1112 835T1176 756T1220 658T1244 550T1252 439ZM1127 313Q1100 316 1076 316Q1029 316 996 304T943 272T914 228T905 181Q905 167 910 153T927 128T956 109T997 102Q1013 102 1035 110T1078 137T1113 187T1127 266V313Z"  />
<glyph unicode="&#xDC2;" glyph-name="uni0DC2" horiz-adv-x="1237" d="M370 926Q432 926 473 899T539 824T574 714T585 581Q533 581 472 573T357 542T267 483T231 388Q231 332 255 295T326 234T442 201T601 191Q805 191 912 239T1019 382Q1019 418 1005 455T961 518Q946 503 924 485T878 457Q898 426 898 390Q898 358 885 331T841 283T757 252T625 240Q488 240 417 281T346 388Q346 426 369 452T433 495T530 519T653 526Q693 526 714 525T757 523Q789 523 815 538T863 566Q810 581 750 581H653Q660 658 673 716T713 816T782 883T890 919Q944 919 978 899T1033 849T1061 789T1069 737Q1069 680 1029 605Q1055 586 1075 559T1110 499T1131 430T1138 358Q1138 276 1100 210T993 97T824 25T601 0Q483 0 390 25T233 98T136 212T102 360Q102 424 127 482T201 583T321 653T484 679Q477 733 460 768T419 804Q398 804 381 791T348 745Q325 699 302 683T247 666Q204 666 180 694T155 765Q155 785 166 813T202 866T269 908T370 926ZM857 733Q817 733 794 721T759 679Q811 678 855 672T939 651Q946 668 946 678Q946 702 922 717T857 733ZM446 390Q446 381 459 373T495 358T552 347T625 343Q711 343 754 358T797 394Q797 417 760 426T640 436Q538 436 492 426T446 390Z"  />
<glyph unicode="&#xDC3;" glyph-name="uni0DC3" horiz-adv-x="1343" d="M705 554Q708 639 726 706T776 820T856 892T966 917Q1055 917 1102 873T1150 759Q1150 725 1143 684T1120 608Q1178 568 1212 504T1246 364Q1246 294 1220 229T1148 112T1039 31T903 0Q868 0 839 5T782 24T729 62T677 125Q629 65 568 33T435 0Q358 0 296 29T191 108T124 221T100 354Q100 418 119 468T167 554H79V654H497Q491 715 464 750T401 786Q384 786 365 761L336 721Q302 674 252 674Q163 674 163 766Q163 792 178 819T218 867T278 903T353 917Q414 917 460 892T537 821T586 707T607 554H423Q221 554 221 392Q221 302 280 251T446 199Q489 199 522 211T579 250T614 322T627 433H729Q729 367 739 323T772 251T826 211T903 199Q952 199 993 213T1063 253T1108 314T1125 392Q1125 554 925 554H705ZM942 736Q889 736 857 712T816 654Q897 654 948 653T1026 647Q1027 655 1027 664T1028 680Q1028 704 1003 720T942 736Z"  />
<glyph unicode="&#xDC4;" glyph-name="uni0DC4" horiz-adv-x="1343" d="M763 117Q795 109 820 106T864 102Q922 102 967 126T1044 193T1092 292T1108 414Q1108 487 1086 547T1026 652T938 720T830 745Q795 745 764 729T706 683T656 610T611 514Q649 513 679 497T730 452T762 386T774 306Q774 255 751 201T684 102T579 29T441 0Q383 0 323 24T215 93T136 203T105 353Q105 411 124 461T179 552T268 619T389 657Q386 684 382 707T371 747T355 775T336 785Q314 785 298 771T265 726Q241 680 218 664T163 647Q121 647 96 675T71 746Q71 779 87 809T130 864T195 902T275 917Q326 917 365 892T431 821T470 709T484 563Q429 563 383 551T304 515T252 461T233 390Q233 353 252 320T305 263T384 224T482 209Q515 209 546 216T600 237T638 273T653 328Q653 373 639 392T605 412Q586 412 574 404T550 364L468 394Q509 535 552 634T646 796T756 888T891 917Q984 917 1050 883T1159 791T1222 657T1242 496Q1242 401 1217 312T1144 154T1025 42T864 0Q832 0 800 5T739 19L763 117Z"  />
<glyph unicode="&#xDC5;" glyph-name="uni0DC5" horiz-adv-x="1450" d="M1271 558H602Q556 558 511 550T422 524Q431 465 457 416T526 330T624 274T748 254Q807 254 853 262T937 289T1007 337T1069 409L1152 353Q993 94 753 94Q583 94 476 184T333 451Q309 419 301 391T293 323Q293 255 312 189T367 64T452 -47T559 -135T682 -194T816 -215Q910 -215 988 -191T1122 -119T1209 0T1240 164H1341Q1341 51 1304 -40T1194 -195T1011 -295T757 -330Q623 -330 504 -288T297 -169T157 13T105 245Q105 299 120 351T163 450T231 536T323 602Q327 670 348 727T406 827T491 893T600 917Q654 917 707 894T799 831Q837 876 889 896T1010 917Q1064 917 1111 894T1194 831T1250 739T1271 628V558ZM760 688Q754 720 738 744T701 783T653 807T600 815Q569 815 541 801T489 763T449 707T425 637Q472 648 521 653T622 658H1167Q1163 691 1150 719T1115 769T1067 803T1006 815Q978 815 952 807T903 782T864 742T842 688H760Z"  />
<glyph unicode="&#xDC6;" glyph-name="uni0DC6" horiz-adv-x="1343" d="M752 102Q842 102 912 124T1029 184T1100 273T1125 384Q1125 428 1110 467T1067 535T999 582T909 599Q864 599 830 586T771 544T733 470T719 359H623Q619 433 607 479T571 552T511 589T425 599Q377 599 337 583T269 538T226 470T210 382Q210 321 235 270T307 182T424 123T582 102V0Q468 0 379 29T229 114T135 249T103 427Q103 500 127 568T196 688T301 771T435 802Q504 802 564 768T670 667Q712 735 773 768T909 802Q977 802 1036 772T1138 689T1207 569T1232 425Q1232 328 1201 250T1109 116T959 30T752 0V102Z"  />
<glyph unicode="&#xDCA;" glyph-name="uni0DCA" horiz-adv-x="0" d="M-269 693V1395H-185Q-163 1378 -134 1359T-69 1320Q-27 1297 1 1275T48 1228T73 1175T81 1114Q81 1080 69 1049T33 995T-23 957T-95 943Q-110 943 -127 945T-168 953V693H-269ZM-168 1059Q-140 1049 -115 1049Q-83 1049 -63 1069T-43 1120Q-43 1143 -49 1161T-69 1195T-108 1227T-168 1265V1059Z"  />
<glyph unicode="&#xDCF;" glyph-name="uni0DCF" horiz-adv-x="618" d="M4 520Q4 572 22 617T74 697T155 752T259 772Q557 772 557 405Q557 208 480 104T259 0Q134 0 69 70T4 272H106Q106 206 136 171T222 136Q256 136 283 147T328 188T357 272T367 412Q367 537 332 596T222 655Q199 655 178 644T141 613T116 570T106 520H4Z"  />
<glyph unicode="&#xDD0;" glyph-name="uni0DD0" horiz-adv-x="618" d="M5 549V651H433V578Q359 445 323 320T286 91Q286 29 300 -24T340 -115T401 -175T478 -197Q496 -197 521 -188T576 -160V-265Q492 -329 399 -329Q337 -329 284 -307T190 -244T128 -145T105 -12Q105 33 119 93T160 226T222 380T304 549H5Z"  />
<glyph unicode="&#xDD1;" glyph-name="uni0DD1" horiz-adv-x="618" d="M5 651H396Q380 591 357 542T310 445Q323 446 335 446T362 447Q418 447 502 432Q449 331 367 212Q332 161 315 111T298 29Q298 -16 312 -57T350 -128T410 -177T487 -195Q500 -195 522 -189T578 -169L572 -272Q486 -330 392 -330Q333 -330 283 -310T195 -253T137 -166T116 -55Q116 -26 121 4T139 68T177 140T241 226Q265 254 280 273T306 304T323 326T335 345H330Q317 345 285 339T216 326T150 311T111 301Q156 377 194 443T249 549H5V651Z"  />
<glyph unicode="&#xDD2;" glyph-name="uni0DD2" horiz-adv-x="0" d="M-894 851Q-929 869 -958 896T-1009 954T-1043 1018T-1055 1083Q-1055 1155 -1024 1213T-932 1311T-780 1374T-566 1396Q-444 1396 -352 1374T-199 1312T-108 1213T-77 1083Q-77 1053 -88 1021T-119 957T-169 899T-236 851L-284 937Q-188 1003 -188 1066Q-188 1100 -208 1125T-273 1166T-390 1190T-566 1198Q-671 1198 -743 1190T-859 1165T-924 1123T-944 1063Q-944 1025 -918 994T-848 937L-894 851Z"  />
<glyph unicode="&#xDD3;" glyph-name="uni0DD3" horiz-adv-x="0" d="M-432 987Q-432 1010 -426 1035T-409 1086T-382 1134T-347 1177Q-392 1182 -455 1185T-599 1188Q-766 1188 -846 1155T-926 1053Q-926 1015 -900 985T-829 927L-876 841Q-912 860 -941 887T-992 945T-1024 1009T-1036 1073Q-1036 1145 -1005 1203T-913 1301T-760 1364T-548 1386Q-427 1386 -335 1364T-179 1301T-84 1206T-52 1086Q-52 1037 -68 991T-113 909T-183 851T-273 829Q-309 829 -338 841T-389 875T-421 926T-432 987ZM-175 1052Q-175 1082 -187 1108T-229 1147Q-250 1134 -268 1116T-301 1076T-323 1034T-331 995Q-331 967 -317 948T-272 929Q-251 929 -234 940T-203 970T-183 1009T-175 1052Z"  />
<glyph unicode="&#xDD4;" glyph-name="uni0DD4" horiz-adv-x="0" d="M-215 -371V305H-96V-471H-998Q-1044 -471 -1082 -457T-1147 -418T-1188 -356T-1203 -274Q-1203 -231 -1187 -193T-1143 -127T-1077 -83T-996 -66Q-924 -66 -864 -107T-769 -232L-856 -273Q-915 -168 -985 -168Q-1036 -168 -1069 -197T-1102 -272Q-1102 -320 -1074 -345T-998 -371H-215Z"  />
<glyph unicode="&#xDD6;" glyph-name="uni0DD6" horiz-adv-x="0" d="M-215 305H-96V-483H-181Q-232 -420 -288 -392T-412 -363Q-484 -363 -551 -382T-685 -425T-821 -467T-968 -487Q-1022 -487 -1065 -471T-1139 -427T-1186 -360T-1203 -276Q-1203 -236 -1188 -199T-1145 -132T-1079 -86T-996 -68Q-924 -68 -864 -109T-769 -234L-857 -276Q-910 -169 -987 -169Q-1016 -169 -1037 -178T-1073 -202T-1094 -235T-1102 -272Q-1102 -296 -1093 -317T-1068 -353T-1031 -377T-985 -386Q-921 -386 -850 -364T-708 -314T-569 -265T-439 -242Q-314 -242 -215 -308V305Z"  />
<glyph unicode="&#xDD8;" glyph-name="uni0DD8" horiz-adv-x="635" d="M0 502Q0 562 18 612T70 698T152 755T261 776Q403 776 478 684T553 420V0H229Q115 0 56 52T-4 204Q-4 251 16 290T71 358Q106 385 181 415T365 481Q364 518 356 549T331 604T286 641T216 655Q166 655 136 615T101 502H0ZM369 378Q268 344 224 312T180 239Q180 132 278 132H369V378Z"  />
<glyph unicode="&#xDD9;" glyph-name="uni0DD9" horiz-adv-x="1249" d="M1129 443Q1117 533 1075 602T969 718T821 790T644 815Q566 815 490 789T354 717T256 609T218 476Q218 418 242 369T313 285T425 229T576 209Q745 209 832 261T920 414Q920 475 879 516T765 571Q770 557 773 541T777 506Q777 475 765 446T732 395T682 359T619 345Q590 345 562 355T510 386T473 434T458 500Q458 543 477 577T529 634T605 669T697 682Q773 682 835 661T942 599T1010 504T1034 379Q1034 303 1003 235T913 114T772 31T587 0Q474 0 385 35T233 131T137 272T103 443Q103 516 124 579T185 695T277 789T392 858T525 902T668 917Q767 917 863 886T1038 795T1169 647T1232 443H1129ZM617 447Q642 447 659 463T676 504Q676 529 659 546T617 563Q592 563 576 546T559 504Q559 479 575 463T617 447Z"  />
<glyph unicode="&#xDDA;" glyph-name="uni0DDA" horiz-adv-x="1700" d="M1129 443Q1117 533 1075 602T969 718T821 790T644 815Q566 815 490 789T354 717T256 609T218 476Q218 418 242 369T313 285T425 229T576 209Q745 209 832 261T920 414Q920 475 879 516T765 571Q770 557 773 541T777 506Q777 475 765 446T732 395T682 359T619 345Q590 345 562 355T510 386T473 434T458 500Q458 543 477 577T529 634T605 669T697 682Q773 682 835 661T942 599T1010 504T1034 379Q1034 303 1003 235T913 114T772 31T587 0Q474 0 385 35T233 131T137 272T103 443Q103 516 124 579T185 695T277 789T392 858T525 902T668 917Q767 917 863 886T1038 795T1169 647T1232 443H1129ZM617 447Q642 447 659 463T676 504Q676 529 659 546T617 563Q592 563 576 546T559 504Q559 479 575 463T617 447ZM1411 693V1395H1495Q1517 1378 1546 1359T1611 1320Q1653 1297 1681 1275T1728 1228T1753 1175T1761 1114Q1761 1080 1749 1049T1713 995T1657 957T1585 943Q1570 943 1553 945T1512 953V693H1411ZM1512 1059Q1540 1049 1565 1049Q1597 1049 1617 1069T1637 1120Q1637 1143 1631 1161T1611 1195T1572 1227T1512 1265V1059Z"  />
<glyph unicode="&#xDDB;" glyph-name="uni0DDB" horiz-adv-x="2486" d="M1142 463Q1130 553 1088 619T982 728T834 793T657 815Q579 815 503 789T367 717T269 609T231 476Q231 418 255 368T326 280T438 221T589 199Q758 199 845 256T933 414Q933 475 892 516T778 571Q783 557 786 541T790 506Q790 475 778 446T745 395T695 359T632 345Q603 345 575 355T523 386T486 434T471 500Q471 543 490 577T542 634T618 669T710 682Q786 682 848 661T955 599T1023 504T1047 379Q1047 303 1016 235T926 114T785 31T600 0Q487 0 398 35T246 131T150 272T116 443Q116 516 137 579T198 695T290 789T405 858T538 902T681 917Q780 917 876 890T1051 806T1182 664T1245 463H1142ZM630 447Q655 447 672 463T689 504Q689 529 672 546T630 563Q605 563 589 546T572 504Q572 478 588 463T630 447ZM2393 463Q2381 553 2334 619T2218 728T2060 793T1878 815Q1800 815 1723 789T1583 717T1482 609T1443 476Q1443 418 1467 368T1537 280T1649 221T1800 199Q1969 199 2056 256T2144 414Q2144 475 2104 516T1989 571Q2001 544 2001 506Q2001 475 1989 446T1956 395T1906 359T1843 345Q1815 345 1787 355T1735 386T1697 434T1682 500Q1682 543 1701 577T1754 634T1830 669T1922 682Q1998 682 2060 661T2166 599T2234 504T2258 379Q2258 303 2227 235T2137 114T1996 31T1812 0Q1699 0 1610 35T1458 131T1362 272T1328 443Q1328 531 1368 616T1483 768T1664 876T1901 917Q1967 917 2035 905T2166 868T2287 806T2388 718T2461 604T2496 463H2393ZM1841 447Q1866 447 1883 463T1901 504Q1901 529 1884 546T1841 563Q1817 563 1801 546T1784 504Q1784 479 1800 463T1841 447Z"  />
<glyph unicode="&#xDDC;" glyph-name="uni0DDC" horiz-adv-x="1911" d="M1129 443Q1117 533 1075 602T969 718T821 790T644 815Q566 815 490 789T354 717T256 609T218 476Q218 418 242 369T313 285T425 229T576 209Q745 209 832 261T920 414Q920 475 879 516T765 571Q770 557 773 541T777 506Q777 475 765 446T732 395T682 359T619 345Q590 345 562 355T510 386T473 434T458 500Q458 543 477 577T529 634T605 669T697 682Q773 682 835 661T942 599T1010 504T1034 379Q1034 303 1003 235T913 114T772 31T587 0Q474 0 385 35T233 131T137 272T103 443Q103 516 124 579T185 695T277 789T392 858T525 902T668 917Q767 917 863 886T1038 795T1169 647T1232 443H1129ZM617 447Q642 447 659 463T676 504Q676 529 659 546T617 563Q592 563 576 546T559 504Q559 479 575 463T617 447ZM1296 520Q1296 572 1314 617T1366 697T1447 752T1551 772Q1849 772 1849 405Q1849 208 1772 104T1551 0Q1426 0 1361 70T1296 272H1398Q1398 206 1428 171T1514 136Q1548 136 1575 147T1620 188T1649 272T1659 412Q1659 537 1624 596T1514 655Q1491 655 1470 644T1433 613T1408 570T1398 520H1296Z"  />
<glyph unicode="&#xDDD;" glyph-name="uni0DDD" horiz-adv-x="2095" d="M1129 443Q1117 533 1075 602T969 718T821 790T644 815Q566 815 490 789T354 717T256 609T218 476Q218 418 242 369T313 285T425 229T576 209Q745 209 832 261T920 414Q920 475 879 516T765 571Q770 557 773 541T777 506Q777 475 765 446T732 395T682 359T619 345Q590 345 562 355T510 386T473 434T458 500Q458 543 477 577T529 634T605 669T697 682Q773 682 835 661T942 599T1010 504T1034 379Q1034 303 1003 235T913 114T772 31T587 0Q474 0 385 35T233 131T137 272T103 443Q103 516 124 579T185 695T277 789T392 858T525 902T668 917Q767 917 863 886T1038 795T1169 647T1232 443H1129ZM617 447Q642 447 659 463T676 504Q676 529 659 546T617 563Q592 563 576 546T559 504Q559 479 575 463T617 447ZM1409 520Q1409 572 1427 617T1479 697T1560 752T1664 772Q1762 772 1829 731V1395H1913Q1933 1379 1961 1360T2029 1320Q2108 1279 2143 1230T2178 1114Q2178 1078 2166 1047T2130 993T2075 956T2002 943Q1987 943 1970 944T1929 953V607Q1962 526 1962 405Q1962 208 1885 104T1664 0Q1539 0 1474 70T1409 272H1511Q1511 206 1541 171T1627 136Q1661 136 1688 147T1733 188T1762 272T1772 412Q1772 537 1737 596T1627 655Q1604 655 1583 644T1546 613T1521 570T1511 520H1409ZM1929 1059Q1943 1055 1957 1052T1983 1049Q2015 1049 2034 1069T2054 1120Q2054 1143 2048 1161T2027 1195T1988 1228T1929 1264V1059Z"  />
<glyph unicode="&#xDDE;" glyph-name="uni0DDE" horiz-adv-x="2173" d="M1129 443Q1117 533 1075 602T969 718T821 790T644 815Q566 815 490 789T354 717T256 609T218 476Q218 418 242 369T313 285T425 229T576 209Q745 209 832 261T920 414Q920 475 879 516T765 571Q770 557 773 541T777 506Q777 475 765 446T732 395T682 359T619 345Q590 345 562 355T510 386T473 434T458 500Q458 543 477 577T529 634T605 669T697 682Q773 682 835 661T942 599T1010 504T1034 379Q1034 303 1003 235T913 114T772 31T587 0Q474 0 385 35T233 131T137 272T103 443Q103 516 124 579T185 695T277 789T392 858T525 902T668 917Q767 917 863 886T1038 795T1169 647T1232 443H1129ZM617 447Q642 447 659 463T676 504Q676 529 659 546T617 563Q592 563 576 546T559 504Q559 479 575 463T617 447ZM1542 539Q1542 591 1560 636T1611 716T1692 771T1797 791Q1871 791 1928 765T2024 690T2083 568T2104 405Q2104 307 2083 232T2021 105T1924 27T1797 0Q1735 0 1688 19T1608 71T1559 151T1542 253H1643Q1643 230 1651 209T1674 172T1710 146T1759 136Q1793 136 1821 147T1870 188T1902 272T1914 412Q1914 538 1874 606T1759 674Q1755 674 1751 674T1742 673Q1786 650 1809 610T1833 527Q1833 477 1818 438T1775 373T1708 332T1622 318Q1560 318 1509 341T1422 403T1367 491T1347 592Q1347 701 1452 812L1531 745Q1462 683 1462 615Q1462 591 1470 568T1495 526T1535 496T1589 484Q1612 484 1630 492T1662 514T1682 542T1689 570Q1689 597 1655 608Q1648 594 1646 578T1643 539H1542Z"  />
<glyph unicode="&#xDDF;" glyph-name="uni0DDF" horiz-adv-x="831" d="M201 539Q201 591 219 636T270 716T351 771T456 791Q530 791 587 765T683 690T742 568T763 405Q763 307 742 232T680 105T583 27T456 0Q394 0 347 19T267 71T218 151T201 253H302Q302 230 310 209T333 172T369 146T418 136Q452 136 480 147T529 188T561 272T573 412Q573 538 533 606T418 674Q414 674 410 674T401 673Q445 650 468 610T492 527Q492 477 477 438T434 373T367 332T281 318Q219 318 168 341T81 403T26 491T6 592Q6 701 111 812L190 745Q121 683 121 615Q121 591 129 568T154 526T194 496T248 484Q271 484 289 492T321 514T341 542T348 570Q348 597 314 608Q307 594 305 578T302 539H201Z"  />
<glyph unicode="&#xDF2;" glyph-name="uni0DF2" horiz-adv-x="1270" d="M0 502Q0 562 18 612T70 698T152 755T261 776Q403 776 478 684T553 420V0H229Q115 0 56 52T-4 204Q-4 251 16 290T71 358Q106 385 181 415T365 481Q364 518 356 549T331 604T286 641T216 655Q166 655 136 615T101 502H0ZM369 378Q268 344 224 312T180 239Q180 132 278 132H369V378ZM635 502Q635 562 653 612T705 698T787 755T896 776Q1038 776 1113 684T1188 420V0H864Q750 0 691 52T631 204Q631 251 651 290T706 358Q741 385 816 415T1000 481Q999 518 991 549T966 604T921 641T851 655Q801 655 771 615T736 502H635ZM1004 378Q903 344 859 312T815 239Q815 132 913 132H1004V378Z"  />
<glyph unicode="&#xDF3;" glyph-name="uni0DF3" horiz-adv-x="831" d="M201 584Q201 629 222 671T279 747T360 800T456 820Q529 820 588 793T688 714T751 589T773 424Q773 326 750 248T685 115T585 30T456 0Q401 0 356 15T277 58T226 125T207 212Q207 242 216 268T243 315T282 346T332 358Q359 358 382 348T422 321T448 281T458 231Q458 203 448 179T415 136H420Q455 136 485 151T536 202T570 293T583 431Q583 494 572 544T539 630T487 685T418 704Q413 704 409 704T400 703Q440 681 461 637T483 546Q483 509 470 478T431 424T367 389T281 376Q218 376 168 393T81 442T26 516T6 611Q6 719 111 832L190 765Q121 702 121 634Q121 592 153 567T248 542Q298 542 323 560T349 595Q349 607 343 622T326 642Q318 631 311 618T303 584H201ZM300 226Q300 212 309 202T334 192Q369 192 369 224Q369 241 359 251T334 261Q319 261 310 251T300 226Z"  />
<glyph unicode="&#xDF4;" glyph-name="uni0DF4" horiz-adv-x="2564" d="M618 124Q616 156 608 192T587 271Q543 179 506 125T433 43T365 8T297 0Q257 0 225 13T169 49T132 97T119 150Q119 195 147 228T226 262Q270 262 299 236T328 165Q328 159 325 150T317 131T310 113T306 100Q306 102 311 102Q339 102 369 124T432 199T505 337T591 548H675Q675 537 678 516T686 470T697 420T709 373Q748 457 776 518T824 623T856 695T877 741T889 769T898 787H982Q982 753 995 682T1037 505Q1104 632 1167 729T1283 898H1367Q1364 841 1364 791Q1364 718 1368 655T1378 530Q1493 676 1567 754T1666 845H1741Q1727 754 1716 655T1699 455Q1735 488 1788 535T1909 643H1993Q1969 566 1956 488T1939 329Q1969 349 1998 364T2053 390T2101 406T2135 411Q2140 377 2143 332T2155 245T2177 176T2219 147Q2254 147 2254 163Q2254 172 2245 191T2235 231Q2235 269 2261 296T2329 323Q2379 323 2409 293T2440 204Q2440 172 2424 143T2379 93T2308 58T2215 45Q2121 45 2067 94T2000 253Q1959 224 1928 186T1875 104H1795Q1790 146 1789 183T1787 255Q1787 290 1788 325T1792 396Q1728 332 1679 281T1598 187H1516L1545 566Q1498 511 1443 439T1324 271H1246L1210 595Q1197 576 1179 546T1142 478T1103 401T1068 324T1042 257T1030 208H947Q929 288 919 336T902 413T891 458T880 491Q829 363 782 273T698 124H618Z"  />
<glyph unicode="&#x200B;" glyph-name="uni200B" horiz-adv-x="0" />
<glyph unicode="&#x200C;" glyph-name="uni200C" horiz-adv-x="0" d="M36 1289V-275H-36V1289H36Z"  />
<glyph unicode="&#x200D;" glyph-name="uni200D" horiz-adv-x="0" d="M36 -275H-36V1114L-170 978L-219 1027L-48 1196L-219 1364L-170 1413L0 1242L170 1413L219 1364L48 1196L219 1027L170 978L36 1114V-275Z"  />
<glyph unicode="&#x2013;" glyph-name="endash" horiz-adv-x="1008" d="M-12 566H1019V439H-12V566Z"  />
<glyph unicode="&#x2014;" glyph-name="emdash" horiz-adv-x="2015" d="M-12 566H2027V439H-12V566Z"  />
<glyph unicode="&#x2018;" glyph-name="quoteleft" horiz-adv-x="588" d="M481 1381V1314Q376 1308 317 1254T258 1112Q258 1080 270 1071T329 1062Q404 1062 442 1028T481 929Q481 859 435 814T317 768Q259 768 214 801T143 895T117 1032Q117 1185 216 1279T481 1381Z"  />
<glyph unicode="&#x2019;" glyph-name="quoteright" horiz-adv-x="588" d="M107 768V834Q211 840 271 893T331 1036Q331 1069 318 1077T260 1086Q185 1086 146 1121T107 1219Q107 1288 153 1334T272 1381Q330 1381 375 1347T445 1253T471 1117Q471 1041 446 978T372 870T256 798T107 768Z"  />
<glyph unicode="&#x201A;" glyph-name="quotesinglbase" horiz-adv-x="588" d="M123 -337V-270Q226 -264 286 -211T346 -69Q346 -35 334 -27T277 -18Q202 -18 163 17T123 115Q123 185 169 231T288 277Q346 277 391 243T462 149T488 12Q488 -90 443 -166T314 -288T123 -337Z"  />
<glyph unicode="&#x201C;" glyph-name="quotedblleft" horiz-adv-x="1070" d="M983 1381V1314Q878 1308 819 1254T760 1112Q760 1080 772 1071T830 1062Q906 1062 944 1028T983 929Q983 859 937 814T818 768Q759 768 715 801T645 895T619 1032Q619 1185 718 1279T983 1381ZM450 1381V1314Q344 1308 285 1254T225 1112Q225 1080 238 1071T296 1062Q373 1062 411 1028T450 929Q450 859 402 814T284 768Q226 768 181 801T111 895T85 1032Q85 1108 110 1169T182 1277T300 1351T450 1381Z"  />
<glyph unicode="&#x201D;" glyph-name="quotedblright" horiz-adv-x="1070" d="M621 768V834Q724 840 784 893T844 1036Q844 1069 832 1077T773 1086Q699 1086 660 1121T621 1219Q621 1289 667 1335T786 1381Q874 1381 929 1307T985 1117Q985 1041 960 978T886 870T770 798T621 768ZM87 768V834Q190 840 250 893T310 1036Q310 1069 297 1077T240 1086Q165 1086 126 1121T87 1219Q87 1289 133 1335T252 1381Q310 1381 355 1347T426 1253T452 1117Q452 1015 407 939T280 818T87 768Z"  />
<glyph unicode="&#x201E;" glyph-name="quotedblbase" horiz-adv-x="1070" d="M621 -337V-270Q724 -264 784 -211T844 -69Q844 -35 832 -27T773 -18Q699 -18 660 17T621 115Q621 185 667 231T786 277Q874 277 929 202T985 12Q985 -90 941 -166T813 -288T621 -337ZM87 -337V-270Q190 -264 250 -211T310 -69Q310 -35 298 -27T240 -18Q165 -18 126 17T87 115Q87 185 133 231T252 277Q310 277 355 243T426 149T452 12Q452 -90 407 -166T278 -288T87 -337Z"  />
<glyph unicode="&#x2020;" glyph-name="dagger" horiz-adv-x="1070" d="M504 -429V-405Q504 -188 492 -10T461 291T420 493T375 615Q490 703 496 818Q450 818 409 805T312 766T232 730T173 719Q117 719 84 755T50 852Q50 911 83 949T165 988Q198 988 230 976T311 941T404 905T496 891Q496 941 481 985T447 1066T408 1150T387 1235Q387 1303 426 1342T534 1381Q602 1381 641 1343T681 1237Q681 1198 668 1165T627 1076T586 983T573 891Q635 891 671 904T786 952T900 988Q953 988 985 950T1017 852Q1017 792 984 756T894 719Q862 719 841 727T762 763T662 804T573 818Q579 704 691 615Q668 564 647 484T608 288T577 -8T564 -405V-429H504Z"  />
<glyph unicode="&#x2021;" glyph-name="daggerdbl" horiz-adv-x="1070" d="M510 -10Q490 -8 482 -8Q444 -8 413 -19T339 -53T271 -86T217 -96Q164 -96 133 -64T102 25Q102 79 134 114T215 150Q246 150 272 139T338 108T407 77T479 67Q488 67 510 69Q498 124 474 157T403 217Q455 274 473 328T492 475Q492 570 474 625T403 736Q450 764 474 797T510 887Q502 888 488 888Q444 888 410 877T332 844T267 813T215 804Q166 804 134 838T102 929Q102 984 133 1017T217 1050Q251 1050 281 1038T344 1008Q391 986 424 975T510 963Q510 1011 497 1053T465 1130T430 1203T413 1267Q413 1317 448 1349T536 1381Q589 1381 624 1350T659 1267Q659 1234 624 1165T576 1060T562 963Q624 963 656 975T754 1019T854 1050Q908 1050 938 1018T969 929Q969 872 938 838T856 804Q826 804 791 819T729 850T667 877T584 888Q570 888 562 887Q576 830 599 797T669 736Q618 681 600 626T581 475Q581 382 599 328T669 217Q623 190 600 158T562 69Q585 67 595 67Q638 67 667 77T735 108T799 139T856 150Q907 150 938 115T969 25Q969 -31 939 -63T856 -96Q828 -96 803 -87T735 -54T660 -20T587 -8Q580 -8 562 -10Q562 -71 575 -106T624 -210T659 -314Q659 -364 624 -395T536 -427Q483 -427 448 -395T413 -314Q413 -282 422 -262T457 -193T496 -102T510 -10Z"  />
<glyph unicode="&#x2022;" glyph-name="bullet" horiz-adv-x="706" d="M352 898Q415 898 467 868T550 786T581 671Q581 608 551 556T469 473T352 442Q288 442 237 473T154 555T123 671Q123 735 154 786T237 868T352 898Z"  />
<glyph unicode="&#x2026;" glyph-name="ellipsis" horiz-adv-x="2015" d="M337 277Q401 277 447 231T494 119Q494 54 448 8T337 -38Q272 -38 226 8T179 119Q179 184 225 230T337 277ZM1008 277Q1073 277 1119 231T1165 119Q1165 54 1119 8T1008 -38Q943 -38 897 8T850 119Q850 184 896 230T1008 277ZM1679 277Q1744 277 1790 231T1836 119Q1836 54 1790 8T1679 -38Q1614 -38 1568 8T1521 119Q1521 184 1567 230T1679 277Z"  />
<glyph unicode="&#x2030;" glyph-name="perthousand" horiz-adv-x="2225" d="M1790 346Q1790 248 1802 180T1837 78T1894 44Q1945 44 1973 122T2001 346Q2001 449 1989 516T1953 617T1894 651Q1843 651 1817 574T1790 346ZM415 -20H317L1125 1381H1221L415 -20ZM238 1012Q238 709 342 709Q394 709 422 787T450 1012Q450 1159 423 1237T342 1316Q238 1316 238 1012ZM1594 346Q1594 419 1617 486T1683 606T1780 686T1894 715Q1956 715 2010 686T2106 607T2170 488T2194 346Q2194 275 2171 207T2105 88T2008 9T1894 -20Q1835 -20 1780 8T1683 90T1617 210T1594 346ZM42 1012Q42 1084 66 1151T131 1271T228 1352T342 1381Q404 1381 459 1352T554 1272T619 1153T643 1012Q643 941 619 871T553 752T456 674T342 645Q263 645 194 695T83 829T42 1012ZM898 346Q898 445 939 530T1050 665T1199 715Q1261 715 1316 686T1412 605T1476 487T1500 346Q1500 274 1477 208T1411 90T1314 9T1199 -20Q1120 -20 1051 30T940 164T898 346ZM1094 346Q1094 198 1121 121T1199 44Q1251 44 1278 122T1306 346Q1306 449 1294 516T1258 617T1199 651Q1147 651 1121 574T1094 346Z"  />
<glyph unicode="&#x2039;" glyph-name="guilsinglleft" horiz-adv-x="588" d="M538 38H467L50 479L467 923H538L317 479L538 38Z"  />
<glyph unicode="&#x203A;" glyph-name="guilsinglright" horiz-adv-x="588" d="M50 38L272 479L50 923H121L538 479L121 38H50Z"  />
<glyph unicode="&#x2044;" glyph-name="fraction" horiz-adv-x="246" d="M-232 -20H-331L477 1381H577L-232 -20Z"  />
<glyph unicode="&#x20A8;" glyph-name="uni20A8" horiz-adv-x="2501" d="M979 639L1384 161Q1425 113 1475 92T1612 65V0H1181L671 604H538V275Q538 186 557 142T622 81T766 65V0H36V65Q133 65 178 81T242 142T260 275V1106Q260 1214 214 1253T68 1293Q58 1293 51 1293T36 1292V1356H832Q937 1356 1026 1337T1184 1276T1290 1168T1328 1010Q1328 877 1231 774T979 639ZM538 709H702Q851 709 932 789T1014 988Q1014 1050 993 1098T931 1180T835 1233T706 1252Q599 1252 538 1225V709ZM2368 941V641H2302Q2271 752 2200 816T2034 881Q1971 881 1933 856T1895 788Q1895 756 1921 727Q1938 710 1969 692T2097 620T2259 525T2352 456Q2409 399 2428 353T2447 246Q2447 165 2407 100T2294 -2T2128 -38Q2077 -38 2030 -30T1921 -7T1840 8Q1813 8 1776 -12H1730V321H1796Q1824 203 1913 127T2115 50Q2172 50 2208 81T2244 163Q2244 214 2205 252Q2173 284 2126 312T2013 376T1899 442T1811 512Q1728 592 1728 698Q1728 774 1767 834T1876 928T2030 963Q2098 963 2183 948Q2262 931 2300 931Q2319 931 2332 941H2368Z"  />
<glyph unicode="&#x20AC;" glyph-name="Euro" horiz-adv-x="1068" d="M867 731H400Q397 704 397 646H846L825 571H397Q404 372 464 214T661 56Q770 56 827 110T959 290L1010 254Q927 104 840 33T602 -38Q445 -38 338 48T177 272T111 571H12L34 646H107Q107 704 109 731H12L34 810H117Q138 960 212 1092T407 1303T677 1383Q746 1383 797 1373T894 1345T1006 1294V994H941Q936 1072 910 1142T830 1256T698 1300Q562 1300 493 1143T405 810H889L867 731Z"  />
<glyph unicode="&#x2122;" glyph-name="trademark" horiz-adv-x="2015" d="M165 1356H806L816 1175H786Q777 1250 742 1279T621 1308H573V812Q573 742 589 722T661 700V669H308V700Q352 703 369 710T390 737T395 812V1308H348Q269 1308 233 1279T185 1175H157L165 1356ZM891 1356H1171L1384 900L1594 1356H1860V1324Q1802 1324 1786 1303T1769 1209V812Q1769 744 1785 724T1860 700V669H1494V700Q1559 702 1576 721T1594 812V1231H1590L1328 669H1304L1040 1231H1036V812Q1036 759 1044 736T1072 706T1140 700V669H891V700Q936 702 954 709T979 738T985 812V1209Q985 1282 969 1303T891 1324V1356Z"  />
<glyph unicode="&#x2126;" glyph-name="uni2126" horiz-adv-x="1548" d="M1494 0H935L957 275Q1053 313 1113 375T1201 527T1229 742Q1229 997 1108 1140Q1045 1215 959 1255T769 1296Q669 1296 586 1257T441 1147T347 975T314 756Q314 625 351 517T456 348Q486 321 511 307T586 275L608 0H54V275H89Q92 215 119 194Q145 174 174 167T256 159H522V227Q387 267 289 344T141 531T91 775Q91 903 140 1012T280 1200T495 1321T769 1364Q921 1364 1048 1321T1266 1202T1406 1015T1457 775Q1457 641 1404 527T1252 334T1025 227L1017 159H1288Q1375 159 1411 183T1455 275H1494V0Z"  />
<glyph unicode="&#x2202;" glyph-name="partialdiff" horiz-adv-x="996" d="M979 905Q979 768 952 629T872 370T746 154Q605 -31 397 -31Q245 -31 155 59T65 300Q65 455 140 592T340 810T606 892Q710 892 792 842Q835 816 863 786T913 706H917Q927 850 927 889Q927 1004 886 1087T768 1215T586 1260Q488 1260 418 1223T290 1102H246Q280 1175 306 1216T369 1294Q417 1344 484 1372T619 1400Q665 1400 711 1387T798 1348T867 1290Q979 1162 979 905ZM896 619Q861 722 787 781T617 840Q537 840 462 792T342 667Q310 611 284 537T243 393T229 260Q229 154 282 91T423 27Q494 27 572 75T717 210Q786 301 827 395T896 619Z"  />
<glyph unicode="&#x2206;" glyph-name="uni2206" horiz-adv-x="1233" d="M1207 0H27L645 1364L1207 0ZM975 81L583 1032L150 81H975Z"  />
<glyph unicode="&#x220F;" glyph-name="product" horiz-adv-x="1659" d="M1614 -201H1025V-164H1060Q1145 -164 1183 -128T1221 -11V1416H437V-11Q437 -89 476 -126T596 -164H633V-201H44V-164H79Q164 -164 202 -128T240 -11V1303Q240 1384 202 1420T79 1456H44V1493H1614V1456H1580Q1497 1456 1458 1420T1419 1303V-11Q1419 -91 1458 -127T1580 -164H1614V-201Z"  />
<glyph unicode="&#x2211;" glyph-name="summation" d="M1396 209L1334 -201H42V-164L702 653L42 1454V1493H1300L1326 1160H1288Q1272 1291 1213 1351T1042 1412H314L867 738L248 -28H1054Q1107 -28 1166 -11T1256 28Q1291 52 1315 97T1358 216L1396 209Z"  />
<glyph unicode="&#x2212;" glyph-name="minus" horiz-adv-x="1344" d="M129 762H1213V581H129V762Z"  />
<glyph unicode="&#x2219;" glyph-name="middot" horiz-adv-x="588" d="M294 829Q359 829 405 783T452 671Q452 606 406 560T294 514Q229 514 183 560T137 671Q137 736 183 782T294 829Z"  />
<glyph unicode="&#x221A;" glyph-name="radical" horiz-adv-x="1106" d="M1106 1840L800 -77L312 929L117 838L83 900L379 1050L775 240H780L1034 1840H1106Z"  />
<glyph unicode="&#x221E;" glyph-name="infinity" d="M1384 518Q1384 335 1271 215Q1222 163 1162 134T1040 104Q981 104 930 129T830 208T733 344L709 387Q666 305 621 255T519 181T391 157Q292 157 216 203T96 333T52 520Q52 620 92 703T201 833T354 881Q464 881 534 814Q587 761 643 657Q690 764 736 821Q830 929 1008 929Q1078 929 1133 910T1242 846Q1384 724 1384 518ZM1328 518Q1328 606 1291 684T1189 807T1050 852Q948 852 881 769Q852 734 827 679T750 486L738 458Q786 358 829 304T925 224T1044 198Q1126 198 1191 238T1292 352T1328 518ZM615 581Q578 659 542 703T458 770T352 792Q279 792 224 758T138 662T107 522Q107 444 137 377T219 272T333 234Q392 234 446 270T528 361Q567 437 604 548L615 581Z"  />
<glyph unicode="&#x222B;" glyph-name="integral'" horiz-adv-x="552" d="M552 1727Q552 1698 540 1675T506 1639T460 1627Q424 1627 385 1661Q365 1681 346 1681Q306 1681 306 1619Q306 1573 317 1475Q335 1274 343 1110T352 821L350 702L337 238Q331 51 288 -77Q267 -143 222 -179T117 -215Q64 -215 32 -183T0 -96Q0 -53 24 -27T89 0Q130 0 157 -32Q170 -46 181 -54T206 -62Q244 -62 244 -2Q244 34 234 115Q215 282 206 504Q203 606 200 729Q198 798 198 881L214 1425Q219 1613 278 1737Q297 1776 341 1805T427 1834Q458 1834 488 1820T535 1779T552 1727Z"  />
<glyph unicode="&#x2248;" glyph-name="approxequal" horiz-adv-x="1106" d="M1056 860Q1036 710 964 627T778 544Q723 544 657 570T479 659Q341 736 272 736Q201 736 155 688T96 552H50Q70 701 142 785T321 869Q368 869 442 844Q497 824 646 744Q763 683 836 683Q877 683 904 696T957 742Q996 788 1006 860H1056ZM1056 479Q1036 330 964 247T778 163Q723 163 659 188T479 277Q409 318 360 336T272 354Q201 354 155 306T96 171H50Q62 268 98 339T192 448T321 486Q368 486 442 461Q493 446 646 363Q763 302 836 302Q877 302 904 315T957 361Q996 407 1006 479H1056Z"  />
<glyph unicode="&#x2260;" glyph-name="notequal" horiz-adv-x="1106" d="M1070 284H477L317 0H208L371 284H36V379H423L579 653H36V748H631L792 1034H898L738 748H1070V653H685L532 379H1070V284Z"  />
<glyph unicode="&#x2264;" glyph-name="lessequal" horiz-adv-x="1106" d="M1048 217L58 707V758L1048 1252V1142L219 733L1048 323V217ZM1048 0H58V94H1048V0Z"  />
<glyph unicode="&#x2265;" glyph-name="greaterequal" horiz-adv-x="1106" d="M1048 711L58 217V327L887 736L58 1146V1252L1048 762V711ZM1048 0H58V94H1048V0Z"  />
<glyph unicode="&#x22C6;" glyph-name="uni22C6" horiz-adv-x="1518" d="M306 -82L468 433Q420 468 366 508T255 590T145 672T44 746H575Q594 804 615 870T659 1003T702 1135T743 1256L911 746H1443L1018 433Q1036 374 1057 308T1099 175T1140 43T1179 -81L743 230L306 -82Z"  />
<glyph unicode="&#x25CA;" glyph-name="lozenge" horiz-adv-x="996" d="M952 698L540 0H431L46 698L431 1400H540L952 698ZM840 698L488 1304L154 698L488 92L840 698Z"  />
<glyph unicode="&#x25CC;" glyph-name="uni25CC" horiz-adv-x="1217" d="M971 899Q971 832 906 832Q837 832 837 899Q837 966 906 966Q971 966 971 899ZM829 993Q829 927 764 927Q695 927 695 993Q695 1061 764 1061Q829 1061 829 993ZM1066 757Q1066 689 998 689Q932 689 932 757Q932 823 1000 823Q1066 823 1066 757ZM1100 590Q1100 523 1035 523Q966 523 966 590Q966 657 1035 657Q1100 657 1100 590ZM662 1028Q662 960 595 960Q528 960 528 1028Q528 1094 595 1094Q662 1094 662 1028ZM497 993Q497 927 429 927Q362 927 362 993Q362 1061 429 1061Q497 1061 497 993ZM1066 424Q1066 357 998 357Q932 357 932 424Q932 492 998 492Q1066 492 1066 424ZM355 899Q355 832 288 832Q221 832 221 896Q221 966 288 966Q355 966 355 899ZM971 280Q971 214 906 214Q837 214 837 280Q837 348 906 348Q971 348 971 280ZM829 186Q829 121 764 121Q695 121 695 186Q695 255 764 255Q829 255 829 186ZM260 757Q260 689 195 689Q126 689 126 757Q126 823 193 823Q260 823 260 757ZM160 657Q225 657 225 588Q225 523 160 523Q91 523 91 590Q91 657 160 657ZM662 154Q662 86 595 86Q528 86 528 154Q528 220 595 220Q662 220 662 154ZM260 424Q260 357 193 357Q126 357 126 424Q126 492 193 492Q260 492 260 424ZM497 190Q497 121 429 121Q362 121 362 186Q362 255 429 255Q497 255 497 190ZM355 280Q355 214 288 214Q221 214 221 280Q221 348 288 348Q355 348 355 280Z"  />
<glyph unicode="&#xFB01;" glyph-name="fi" horiz-adv-x="1199" d="M1025 939V210Q1025 125 1048 95T1148 65V0H639V65Q647 65 652 65T662 64Q712 64 738 77T773 120T782 210V808H421V210Q421 150 431 119T465 76T535 64Q543 64 549 64T566 65V0H44V65Q100 65 127 75T166 115T177 210V808H44V923H177Q177 1065 242 1169T414 1327T639 1381Q701 1381 763 1369T879 1332T965 1269T998 1183Q998 1137 967 1104T889 1070Q842 1070 815 1096T754 1176T692 1257T615 1284Q529 1284 475 1226T421 1064V923H729Q904 923 1025 939Z"  />
<glyph unicode="&#xFB02;" glyph-name="fl" horiz-adv-x="1199" d="M1027 1381V210Q1027 118 1053 92T1152 65V0H641V65Q649 65 654 65T666 64Q715 64 740 76T775 121T784 210V808H421V210Q421 150 430 120T467 77T546 64Q552 64 557 64T571 65V0H46V65Q102 65 129 76T167 118T177 210V808H46V923H177Q177 932 177 937T176 948Q176 1061 217 1144T322 1279T461 1356T608 1381Q726 1381 816 1322L943 1381H1027ZM784 923V1106Q761 1090 742 1090Q700 1090 666 1135T597 1226T520 1271Q473 1271 447 1220T421 1064V923H784Z"  />

</font>
</defs>
</svg>
