<?xml  version="1.0" encoding="UTF-8"?>
<!DOCTYPE svg PUBLIC "-//W3C//DTD SVG 1.0//EN" "http://www.w3.org/TR/2001/REC-SVG-20010904/DTD/svg10.dtd" >
<svg xmlns="http://www.w3.org/2000/svg" >
<metadata>
<version>1.0</version>
<id><![CDATA[Iskoola Pota for BBC]]></id>
<vendor>Monotype Imaging Inc.</vendor>
<credits>
<name>Fonts.com WebFonts</name>
<URL>http://webfonts.fonts.com</URL>
<role>Home of the Web fonts</role>
</credits>
<license>
<URL>http://webfonts.fonts.com/Legal</URL>
</license>
<copyright><![CDATA[© 2006, 2012 Microsoft Corporation.]]></copyright>
<trademark></trademark>
<licensee>
<name></name>
</licensee>
</metadata>
<defs >
<font horiz-adv-x="1409" id="17b08e6e-8e7c-4270-b64a-ed70697f9850">
<font-face font-family="Iskoola Pota for BBC" panose-1="2 11 5 2 4 2 4 2 2 3" ascent="1825" descent="-500" units-per-em="2048" alphabetic="0">
</font-face>
<missing-glyph horiz-adv-x="1593" d="M284 0V1280H1308V0H284ZM316 32H1276V1248H316V32Z"  />

<glyph unicode="&#xA;" />
<glyph unicode="&#xD;" />
<glyph unicode=" " glyph-name="space" horiz-adv-x="512" />
<glyph unicode="!" glyph-name="exclam" horiz-adv-x="682" d="M360 359H322L234 1169Q228 1222 228 1248Q228 1311 261 1349T342 1387Q389 1387 421 1349T454 1236Q454 1212 450 1169L360 359ZM340 193Q386 193 418 161T451 83Q451 37 419 5T340 -28Q294 -28 262 4T229 83Q229 128 261 160T340 193Z"  />
<glyph unicode="&quot;" glyph-name="quotedbl" horiz-adv-x="836" d="M576 803L522 1095L500 1216Q498 1241 498 1266Q498 1329 526 1358T600 1387Q643 1387 671 1358T700 1280Q700 1195 681 1096L624 803H576ZM210 803L155 1099Q133 1221 133 1265Q133 1329 159 1358T231 1387Q275 1387 304 1358T333 1279Q333 1240 307 1098L253 803H210Z"  />
<glyph unicode="#" glyph-name="numbersign" horiz-adv-x="1024" d="M115 -28L208 427H37V509H224L293 852H37V932H312L403 1387H486L395 932H732L829 1387H912L817 932H987V852H802L732 509H987V427H715L622 -28H541L632 427H293L198 -28H115ZM308 509H647L719 852H378L308 509Z"  />
<glyph unicode="$" glyph-name="dollar" horiz-adv-x="1024" d="M108 334H152Q163 197 238 124T462 37V621Q237 760 162 867Q109 943 109 1052Q109 1175 200 1267T462 1378V1470H526V1378Q608 1373 664 1359Q693 1352 856 1290V991H817Q804 1150 735 1223T526 1311V803Q778 627 849 544T921 336Q921 198 817 93T526 -28V-156H462V-28Q368 -24 287 -7T108 51V334ZM462 845V1310Q362 1298 314 1247T265 1117Q265 1044 309 981T462 845ZM526 37Q601 50 641 74Q697 109 729 165T762 286Q762 352 723 411T526 578V37Z"  />
<glyph unicode="%" glyph-name="percent" horiz-adv-x="1706" d="M1392 1387L404 -56H315L1303 1387H1392ZM364 1387Q499 1387 573 1275T648 1018Q648 844 564 749T362 654Q283 654 217 697T112 827T72 1018Q72 1123 112 1211T221 1343T364 1387ZM361 1331Q310 1331 271 1271T231 1019Q231 880 253 807Q270 752 306 722Q327 704 358 704Q406 704 440 756Q490 833 490 1013Q490 1203 441 1280Q409 1331 361 1331ZM1346 673Q1417 673 1487 628T1596 497T1635 308Q1635 131 1550 38T1349 -56Q1276 -56 1208 -11T1100 117T1060 308Q1060 413 1099 500T1207 630T1346 673ZM1347 620Q1299 620 1264 566Q1219 496 1219 301Q1219 122 1265 51Q1299 0 1347 0Q1393 0 1429 55Q1477 128 1477 306Q1477 494 1429 569Q1396 620 1347 620Z"  />
<glyph unicode="&amp;" glyph-name="ampersand" horiz-adv-x="1593" d="M1045 873H1465V836Q1378 829 1337 798T1207 607T1009 310Q1098 206 1168 165T1309 123Q1378 123 1426 160T1494 271L1531 244Q1494 103 1412 36T1221 -31Q1139 -31 1055 13T870 164Q746 54 647 12T434 -31Q269 -31 172 57T75 267Q75 388 162 508T489 758Q442 862 425 928T408 1056Q408 1227 534 1317Q632 1387 757 1387Q876 1387 951 1317T1026 1143Q1026 1037 954 957T697 782Q824 556 962 368Q1138 578 1138 722Q1138 768 1108 804Q1086 831 1045 836V873ZM663 847Q787 906 848 981T910 1148Q910 1220 866 1267T755 1314Q668 1314 624 1254T579 1135Q579 1086 596 1026T663 847ZM818 222Q686 402 635 485T523 691Q403 622 343 539T282 359Q282 252 351 171T537 90Q600 90 658 115T818 222Z"  />
<glyph unicode="&apos;" glyph-name="quotesingle" horiz-adv-x="369" d="M158 803L104 1099Q81 1222 81 1265Q81 1329 107 1358T178 1387Q223 1387 252 1358T282 1280Q282 1243 256 1098L202 803H158Z"  />
<glyph unicode="(" glyph-name="parenleft" horiz-adv-x="682" d="M636 -401V-438Q485 -362 384 -260Q240 -115 162 82T84 491Q84 801 237 1056T636 1422V1380Q513 1312 434 1194T316 895T277 517Q277 303 310 128Q336 -10 373 -93T472 -254T636 -401Z"  />
<glyph unicode=")" glyph-name="parenright" horiz-adv-x="682" d="M46 1380V1422Q198 1347 299 1245Q442 1099 520 903T598 493Q598 183 446 -72T46 -438V-401Q169 -332 248 -215T366 84T405 463Q405 676 372 852Q347 990 310 1073T210 1233T46 1380Z"  />
<glyph unicode="*" glyph-name="asterisk" horiz-adv-x="1024" d="M494 1044Q490 1113 466 1181Q432 1279 432 1316Q432 1368 456 1395T517 1422Q548 1422 571 1395T594 1318Q594 1273 568 1193T535 1044Q590 1079 634 1129Q702 1208 735 1227T802 1246Q835 1246 857 1224T880 1170Q880 1133 847 1104T682 1046Q605 1029 554 1007Q606 980 681 966Q802 944 839 911T877 839Q877 809 855 787T802 765Q772 765 736 786T637 880Q596 929 535 972Q537 915 558 848Q594 730 594 687Q594 647 570 620T519 592Q482 592 452 621Q431 642 431 688Q431 736 454 803T483 896T494 972Q435 933 391 885Q318 803 281 781Q255 765 227 765Q193 765 169 788T145 839Q145 864 165 891T227 937Q254 949 350 969Q412 982 471 1007Q417 1034 342 1049Q219 1075 190 1096Q145 1129 145 1176Q145 1203 167 1225T220 1248Q253 1248 290 1227T382 1143T494 1044Z"  />
<glyph unicode="+" glyph-name="plus" horiz-adv-x="1155" d="M535 141V640H37V722H535V1219H615V722H1115V640H615V141H535Z"  />
<glyph unicode="&#x2c;" glyph-name="comma" horiz-adv-x="512" d="M110 -341V-297Q213 -263 269 -192T326 -40Q326 -21 317 -8Q310 1 303 1Q292 1 255 -19Q237 -28 217 -28Q168 -28 139 1T110 81Q110 130 147 165T239 200Q305 200 356 143T408 -10Q408 -113 337 -201T110 -341Z"  />
<glyph unicode="-" glyph-name="hyphen" horiz-adv-x="682" d="M83 535H600V384H83V535Z"  />
<glyph unicode="." glyph-name="period" horiz-adv-x="512" d="M256 194Q303 194 335 162T367 83Q367 37 335 5T256 -28Q210 -28 178 4T145 83Q145 130 177 162T256 194Z"  />
<glyph unicode="/" glyph-name="slash" horiz-adv-x="569" d="M574 1422L83 -28H3L494 1422H574Z"  />
<glyph unicode="0" glyph-name="zero" horiz-adv-x="1024" d="M74 670Q74 902 144 1069T330 1319Q420 1384 516 1384Q672 1384 796 1225Q951 1028 951 691Q951 455 883 290T710 51T506 -24Q312 -24 183 205Q74 398 74 670ZM270 645Q270 365 339 188Q396 39 509 39Q563 39 621 87T709 250Q755 422 755 735Q755 967 707 1122Q671 1237 614 1285Q573 1318 515 1318Q447 1318 394 1257Q322 1174 296 996T270 645Z"  />
<glyph unicode="1" glyph-name="one" horiz-adv-x="1024" d="M240 1223L570 1384H603V239Q603 125 612 97T652 54T774 37V0H264V37Q360 39 388 53T427 92T438 239V971Q438 1119 428 1161Q421 1193 403 1208T358 1223Q321 1223 255 1192L240 1223Z"  />
<glyph unicode="2" glyph-name="two" horiz-adv-x="1024" d="M939 261L844 0H44V37Q397 359 541 563T685 936Q685 1065 606 1148T417 1231Q317 1231 238 1173T120 1001H83Q108 1186 211 1285T470 1384Q635 1384 745 1278T856 1028Q856 925 808 822Q734 660 568 479Q319 207 257 151H611Q719 151 762 159T841 191T902 261H939Z"  />
<glyph unicode="3" glyph-name="three" horiz-adv-x="1024" d="M104 1098Q162 1235 250 1309T471 1384Q634 1384 721 1278Q787 1199 787 1109Q787 961 601 803Q726 754 790 663T854 449Q854 273 742 144Q596 -24 319 -24Q182 -24 133 10T83 83Q83 112 106 134T163 156Q188 156 214 148Q231 143 291 112T374 74Q411 63 453 63Q555 63 630 142T706 329Q706 408 671 483Q645 539 614 568Q571 608 496 640T343 673H311V703Q390 713 469 760T585 873T621 1018Q621 1121 557 1184T396 1248Q241 1248 137 1082L104 1098Z"  />
<glyph unicode="4" glyph-name="four" horiz-adv-x="1024" d="M953 500V358H771V0H606V358H32V486L661 1384H771V500H953ZM606 500V1173L130 500H606Z"  />
<glyph unicode="5" glyph-name="five" horiz-adv-x="1024" d="M889 1356L811 1186H403L314 1004Q579 965 734 807Q867 671 867 487Q867 380 824 289T714 134T567 31Q452 -24 331 -24Q209 -24 154 17T98 109Q98 137 121 158T179 180Q205 180 224 172T291 131Q366 79 443 79Q560 79 648 167T737 383Q737 506 658 612T440 777Q331 822 143 829L403 1356H889Z"  />
<glyph unicode="6" glyph-name="six" horiz-adv-x="1024" d="M918 1384V1347Q786 1334 703 1295T538 1174T403 994T313 757Q457 856 602 856Q741 856 843 744T945 456Q945 286 842 146Q718 -24 514 -24Q375 -24 278 68Q88 247 88 532Q88 714 161 878T369 1169T629 1340T860 1384H918ZM296 684Q278 549 278 466Q278 370 313 258T419 79Q470 32 543 32Q630 32 698 114T767 348Q767 519 699 644T506 769Q468 769 425 753T296 684Z"  />
<glyph unicode="7" glyph-name="seven" horiz-adv-x="1024" d="M206 1356H933V1318L481 -28H369L774 1193H401Q288 1193 240 1166Q156 1120 105 1024L76 1035L206 1356Z"  />
<glyph unicode="8" glyph-name="eight" horiz-adv-x="1024" d="M393 683Q232 815 186 895T139 1061Q139 1193 241 1288T512 1384Q676 1384 776 1295T876 1092Q876 1016 822 937T597 751Q773 615 830 537Q906 435 906 322Q906 179 797 78T511 -24Q318 -24 210 97Q124 194 124 309Q124 399 184 487T393 683ZM550 790Q670 898 702 960T734 1102Q734 1207 675 1266T514 1326Q412 1326 348 1267T284 1129Q284 1077 310 1025T386 926L550 790ZM440 645Q357 575 317 493T277 314Q277 185 347 108T527 30Q635 30 700 91T765 239Q765 311 727 368Q656 474 440 645Z"  />
<glyph unicode="9" glyph-name="nine" horiz-adv-x="1024" d="M108 -28V9Q238 11 350 69T566 274T712 595Q555 494 428 494Q285 494 183 604T81 898Q81 1076 183 1215Q306 1384 504 1384Q671 1384 790 1246Q936 1075 936 824Q936 598 825 403T516 78Q355 -28 165 -28H108ZM728 669Q746 799 746 877Q746 974 713 1086T620 1259T482 1319Q393 1319 326 1239T259 1001Q259 790 348 671Q413 585 508 585Q554 585 617 607T728 669Z"  />
<glyph unicode=":" glyph-name="colon" horiz-adv-x="569" d="M289 944Q335 944 367 912T400 833Q400 787 368 755T289 722Q243 722 211 754T178 833Q178 879 210 911T289 944ZM287 195Q334 195 366 162T399 83Q399 37 366 5T287 -28Q241 -28 209 4T176 83Q176 129 208 162T287 195Z"  />
<glyph unicode=";" glyph-name="semicolon" horiz-adv-x="569" d="M282 945Q328 945 360 913T393 835Q393 789 361 757T282 724Q236 724 204 756T171 835Q171 881 203 913T282 945ZM142 -341V-297Q245 -263 301 -192T358 -40Q358 -21 349 -8Q342 1 335 1Q324 1 287 -19Q269 -28 249 -28Q200 -28 171 1T142 81Q142 130 179 165T271 200Q337 200 388 143T440 -10Q440 -113 369 -201T142 -341Z"  />
<glyph unicode="&lt;" glyph-name="less" horiz-adv-x="1155" d="M37 706L1113 1172V1085L187 683L1113 277V187L37 657V706Z"  />
<glyph unicode="=" glyph-name="equal" horiz-adv-x="1155" d="M37 883H1116V801H37V883ZM37 557H1116V475H37V557Z"  />
<glyph unicode="&gt;" glyph-name="greater" horiz-adv-x="1155" d="M1113 653L37 187V273L964 675L37 1081V1172L1113 702V653Z"  />
<glyph unicode="?" glyph-name="question" horiz-adv-x="909" d="M454 320H413Q420 446 444 528T546 758Q606 871 624 931T642 1054Q642 1181 575 1256T409 1331Q322 1331 272 1290T222 1201Q222 1164 252 1110T282 1028Q282 992 259 968T203 943Q161 943 127 984T92 1100Q92 1213 189 1300T452 1387Q658 1387 755 1267Q827 1179 827 1072Q827 999 795 922T671 741Q526 577 494 509T454 320ZM440 196Q487 196 519 164T552 84Q552 38 519 6T440 -27Q394 -27 362 5T329 84Q329 131 361 163T440 196Z"  />
<glyph unicode="@" glyph-name="at" horiz-adv-x="1886" d="M1408 958L1291 559Q1226 335 1212 275T1198 179Q1198 147 1219 125T1273 103Q1346 103 1448 176T1624 413T1697 755Q1697 926 1615 1071T1382 1293T1049 1371Q818 1371 620 1249T307 896T191 418Q191 188 292 0T578 -284T974 -381Q1237 -381 1449 -240T1778 172H1836Q1746 -102 1509 -272T969 -442Q731 -442 527 -330T210 -11T97 444Q97 708 221 936T568 1293T1043 1422Q1250 1422 1416 1337T1670 1087T1757 737Q1757 554 1676 375T1468 113T1205 31Q1129 31 1091 67T1052 168Q1052 224 1070 315Q922 136 833 83T676 30Q605 30 550 93T495 263Q495 408 589 588T840 881Q955 964 1046 964Q1113 964 1157 930T1218 826L1251 936L1408 958ZM1057 917Q982 917 905 838Q792 722 712 525Q653 381 653 293Q653 230 688 191T768 151Q826 151 890 195T1024 330T1126 514Q1182 673 1182 773Q1182 839 1146 878T1057 917Z"  />
<glyph unicode="A" glyph-name="A" horiz-adv-x="1479" d="M937 454H412L320 240Q286 161 286 122Q286 91 315 68T443 37V0H16V37Q101 52 126 76Q177 124 239 271L716 1387H751L1223 259Q1280 123 1326 83T1456 37V0H921V37Q1002 41 1030 64T1059 120Q1059 164 1019 259L937 454ZM909 528L679 1076L443 528H909Z"  />
<glyph unicode="B" glyph-name="B" horiz-adv-x="1366" d="M946 692Q1087 662 1157 596Q1254 504 1254 371Q1254 270 1190 178T1015 43T674 0H34V37H85Q170 37 207 91Q230 126 230 240V1116Q230 1242 201 1275Q162 1319 85 1319H34V1356H620Q784 1356 883 1332Q1033 1296 1112 1205T1191 994Q1191 892 1129 812T946 692ZM422 746Q459 739 506 736T611 732Q757 732 830 763T943 860T982 1002Q982 1121 885 1205T602 1289Q502 1289 422 1267V746ZM422 98Q538 71 651 71Q832 71 927 152T1022 354Q1022 433 979 506T839 621T599 663Q537 663 493 661T422 654V98Z"  />
<glyph unicode="C" glyph-name="C" horiz-adv-x="1366" d="M1233 1387L1264 926H1233Q1171 1133 1056 1224T780 1315Q645 1315 536 1247T365 1028T302 655Q302 471 361 336T538 129T809 57Q941 57 1042 113T1264 338L1295 318Q1193 137 1057 53T734 -31Q397 -31 212 219Q74 405 74 657Q74 860 165 1030T415 1293T764 1387Q911 1387 1054 1315Q1096 1293 1114 1293Q1141 1293 1161 1312Q1187 1339 1198 1387H1233Z"  />
<glyph unicode="D" glyph-name="D" horiz-adv-x="1479" d="M35 0V37H86Q172 37 208 92Q230 125 230 240V1116Q230 1243 202 1275Q163 1319 86 1319H35V1356H587Q891 1356 1049 1287T1304 1057T1401 685Q1401 402 1229 212Q1036 0 641 0H35ZM422 98Q549 70 635 70Q867 70 1020 233T1173 675Q1173 956 1020 1118T627 1280Q537 1280 422 1251V98Z"  />
<glyph unicode="E" glyph-name="E" horiz-adv-x="1251" d="M428 1282V746H726Q842 746 881 781Q933 827 939 943H976V471H939Q925 570 911 598Q893 633 852 653T726 673H428V226Q428 136 436 117T464 86T540 74H770Q885 74 937 90T1037 153Q1099 215 1164 340H1204L1087 0H42V37H90Q138 37 181 60Q213 76 224 108T236 239V1120Q236 1249 210 1279Q174 1319 90 1319H42V1356H1087L1102 1059H1063Q1042 1166 1017 1206T941 1267Q901 1282 800 1282H428Z"  />
<glyph unicode="F" glyph-name="F" horiz-adv-x="1139" d="M419 1282V749H666Q751 749 790 786T843 935H880V476H843Q842 555 823 592T769 647T666 666H419V240Q419 137 432 104Q442 79 474 61Q518 37 566 37H615V0H33V37H81Q165 37 203 86Q227 118 227 240V1116Q227 1219 214 1252Q204 1277 173 1295Q130 1319 81 1319H33V1356H1042L1055 1058H1020Q994 1153 960 1197T875 1262T718 1282H419Z"  />
<glyph unicode="G" glyph-name="G" horiz-adv-x="1479" d="M1257 1387L1292 959H1257Q1204 1119 1120 1200Q999 1317 809 1317Q550 1317 415 1112Q302 939 302 700Q302 506 377 346T573 112T823 37Q898 37 968 56T1103 112V504Q1103 606 1088 637T1040 685T925 702V740H1450V702H1425Q1347 702 1318 650Q1298 613 1298 504V89Q1183 27 1071 -2T822 -31Q429 -31 225 221Q72 410 72 657Q72 836 158 1000Q260 1195 438 1300Q587 1387 790 1387Q864 1387 924 1375T1096 1322Q1152 1301 1171 1301Q1190 1301 1203 1318T1220 1387H1257Z"  />
<glyph unicode="H" glyph-name="H" horiz-adv-x="1479" d="M421 727H1051V1115Q1051 1219 1038 1252Q1028 1277 996 1295Q953 1319 905 1319H857V1356H1437V1319H1389Q1341 1319 1298 1296Q1266 1280 1255 1248T1243 1115V240Q1243 137 1256 104Q1266 79 1297 61Q1341 37 1389 37H1437V0H857V37H905Q988 37 1026 86Q1051 118 1051 240V653H421V240Q421 137 434 104Q444 79 476 61Q519 37 567 37H616V0H35V37H83Q167 37 205 86Q229 118 229 240V1115Q229 1219 216 1252Q206 1277 175 1295Q131 1319 83 1319H35V1356H616V1319H567Q519 1319 476 1296Q445 1280 433 1248T421 1115V727Z"  />
<glyph unicode="I" glyph-name="I" horiz-adv-x="682" d="M632 37V0H51V37H99Q183 37 221 86Q245 118 245 240V1116Q245 1219 232 1252Q222 1277 191 1295Q147 1319 99 1319H51V1356H632V1319H583Q500 1319 462 1270Q437 1238 437 1116V240Q437 137 450 104Q460 79 492 61Q535 37 583 37H632Z"  />
<glyph unicode="J" glyph-name="J" horiz-adv-x="797" d="M204 1319V1356H785V1319H736Q653 1319 615 1270Q591 1238 591 1116V453Q591 300 558 205T442 40T244 -31Q150 -31 96 15T42 122Q42 171 67 196Q100 227 144 227Q176 227 201 206T266 94Q289 40 325 40Q352 40 375 73T399 190V1116Q399 1219 386 1252Q376 1277 344 1295Q301 1319 253 1319H204Z"  />
<glyph unicode="K" glyph-name="K" horiz-adv-x="1479" d="M612 752L1112 255Q1235 132 1322 88T1496 37V0H851V37Q909 37 934 56T960 100Q960 124 951 143T888 214L420 677V240Q420 137 433 104Q443 79 475 61Q518 37 566 37H612V0H34V37H82Q166 37 204 86Q228 118 228 240V1116Q228 1219 215 1253Q205 1277 174 1295Q130 1319 82 1319H34V1356H612V1319H566Q519 1319 475 1296Q444 1280 432 1248T420 1116V701Q440 720 557 828Q854 1100 916 1191Q943 1231 943 1261Q943 1284 922 1301T851 1319H820V1356H1318V1319Q1274 1318 1238 1307T1150 1265T1022 1163Q1000 1143 819 958L612 752Z"  />
<glyph unicode="L" glyph-name="L" horiz-adv-x="1251" d="M1174 375L1207 368L1091 0H41V37H92Q178 37 215 93Q236 125 236 241V1116Q236 1243 208 1275Q169 1319 92 1319H41V1356H655V1319Q547 1320 504 1299T444 1246T428 1093V241Q428 158 444 127Q456 106 481 96T637 86H736Q892 86 955 109T1070 190T1174 375Z"  />
<glyph unicode="M" glyph-name="M" horiz-adv-x="1821" d="M838 0L314 1141V235Q314 110 341 79Q378 37 458 37H506V0H34V37H82Q168 37 204 89Q226 121 226 235V1121Q226 1211 206 1251Q192 1280 155 1299T34 1319V1356H418L910 295L1394 1356H1778V1319H1731Q1644 1319 1608 1267Q1586 1235 1586 1121V235Q1586 110 1614 79Q1651 37 1731 37H1778V0H1202V37H1250Q1337 37 1372 89Q1394 121 1394 235V1141L871 0H838Z"  />
<glyph unicode="N" glyph-name="N" horiz-adv-x="1479" d="M-27 1356H341L1170 339V1121Q1170 1246 1142 1277Q1105 1319 1025 1319H978V1356H1450V1319H1402Q1316 1319 1280 1267Q1258 1235 1258 1121V-22H1222L328 1070V235Q328 110 355 79Q393 37 472 37H520V0H48V37H95Q182 37 218 89Q240 121 240 235V1178Q181 1247 151 1269T61 1310Q32 1319 -27 1319V1356Z"  />
<glyph unicode="O" glyph-name="O" horiz-adv-x="1479" d="M749 1387Q1013 1387 1206 1187T1400 686Q1400 377 1205 173T733 -31Q453 -31 263 168T72 683Q72 1006 292 1210Q483 1387 749 1387ZM730 1314Q548 1314 438 1179Q301 1011 301 687Q301 355 443 176Q552 40 731 40Q922 40 1046 189T1171 659Q1171 1007 1034 1178Q924 1314 730 1314Z"  />
<glyph unicode="P" glyph-name="P" horiz-adv-x="1139" d="M420 635V240Q420 112 448 81Q486 37 563 37H615V0H34V37H85Q171 37 208 93Q228 124 228 240V1116Q228 1244 201 1275Q162 1319 85 1319H34V1356H531Q713 1356 818 1319T995 1192T1067 981Q1067 815 958 711T648 607Q599 607 542 614T420 635ZM420 692Q473 682 514 677T584 672Q688 672 763 752T839 961Q839 1049 803 1124T701 1237T551 1275Q500 1275 420 1256V692Z"  />
<glyph unicode="Q" glyph-name="Q" horiz-adv-x="1479" d="M902 -15Q1004 -191 1122 -274T1392 -369V-401Q1254 -396 1097 -346T800 -206T557 -15Q413 43 329 108Q207 205 140 346T72 681Q72 985 269 1186T746 1387Q1012 1387 1206 1186T1401 677Q1401 428 1263 240T902 -15ZM734 1310Q552 1310 441 1180Q301 1017 301 681Q301 352 443 174Q553 37 734 37Q922 37 1037 174Q1172 336 1172 652Q1172 895 1098 1061Q1041 1189 947 1249T734 1310Z"  />
<glyph unicode="R" glyph-name="R" horiz-adv-x="1366" d="M1384 0H1022L563 634Q512 632 480 632Q467 632 452 632T421 634V240Q421 112 449 81Q487 37 563 37H616V0H35V37H86Q172 37 209 93Q230 124 230 240V1116Q230 1244 202 1275Q163 1319 86 1319H35V1356H529Q745 1356 847 1325T1021 1209T1093 1007Q1093 882 1012 790T759 660L1039 271Q1135 137 1204 93T1384 37V0ZM421 697Q440 697 454 697T477 696Q671 696 769 780T868 994Q868 1121 789 1200T578 1280Q520 1280 421 1261V697Z"  />
<glyph unicode="S" glyph-name="S" horiz-adv-x="1139" d="M939 1387V918H902Q884 1053 838 1133T705 1260T527 1307Q423 1307 355 1244T287 1099Q287 1037 330 986Q392 911 625 786Q815 684 884 630T991 501T1029 346Q1029 192 910 81T602 -31Q543 -31 491 -22Q460 -17 363 14T239 46Q214 46 200 31T178 -31H141V434H178Q204 288 248 216T382 95T581 47Q706 47 778 113T851 269Q851 319 824 370T738 465Q699 495 525 592T278 748T166 876T128 1030Q128 1176 240 1281T525 1387Q633 1387 754 1334Q810 1309 833 1309Q859 1309 875 1324T902 1387H939Z"  />
<glyph unicode="T" glyph-name="T" horiz-adv-x="1251" d="M1185 1356L1200 1038H1162Q1151 1122 1132 1158Q1101 1216 1050 1243T914 1271H723V235Q723 110 750 79Q788 37 867 37H914V0H339V37H387Q473 37 509 89Q531 121 531 235V1271H368Q273 1271 233 1257Q181 1238 144 1184T100 1038H62L78 1356H1185Z"  />
<glyph unicode="U" glyph-name="U" horiz-adv-x="1479" d="M977 1319V1356H1457V1319H1406Q1326 1319 1283 1252Q1262 1221 1262 1108V558Q1262 354 1222 242T1063 49T740 -32Q518 -32 403 45T240 252Q208 341 208 586V1116Q208 1241 174 1280T62 1319H11V1356H597V1319H545Q461 1319 425 1266Q400 1230 400 1116V525Q400 446 414 344T467 185T576 91T752 54Q885 54 990 112T1133 260T1172 567V1116Q1172 1243 1144 1275Q1105 1319 1028 1319H977Z"  />
<glyph unicode="V" glyph-name="V" horiz-adv-x="1479" d="M1454 1356V1319Q1382 1306 1345 1273Q1292 1224 1251 1123L778 -31H741L233 1138Q194 1228 178 1248Q153 1279 117 1296T18 1319V1356H572V1319Q478 1310 450 1287T422 1228Q422 1178 468 1072L813 277L1133 1062Q1180 1178 1180 1223Q1180 1252 1151 1278T1053 1316Q1048 1317 1036 1319V1356H1454Z"  />
<glyph unicode="W" glyph-name="W" horiz-adv-x="1933" d="M1917 1356V1319Q1864 1319 1831 1300T1768 1229Q1748 1194 1705 1062L1327 -31H1287L978 836L671 -31H635L232 1095Q187 1221 175 1244Q155 1282 121 1300T27 1319V1356H529V1319H505Q452 1319 424 1295T396 1237Q396 1202 440 1076L707 315L932 962L892 1076L860 1167Q839 1217 813 1255Q800 1274 781 1287Q756 1305 731 1313Q712 1319 671 1319V1356H1199V1319H1163Q1107 1319 1081 1295T1055 1230Q1055 1179 1100 1052L1360 315L1618 1062Q1662 1186 1662 1234Q1662 1257 1648 1277T1611 1305Q1573 1319 1512 1319V1356H1917Z"  />
<glyph unicode="X" glyph-name="X" horiz-adv-x="1479" d="M836 751L1127 317Q1248 137 1306 90T1455 37V0H873V37Q931 38 959 49Q980 58 993 76T1007 114Q1007 137 998 160Q991 177 943 248L713 596L429 232Q384 174 375 155T366 114Q366 82 393 61T496 37V0H15V37Q66 42 103 58Q165 84 221 128T349 263L669 667L402 1058Q293 1217 217 1266T42 1319V1356H669V1319Q589 1316 560 1293T530 1242Q530 1205 578 1134L786 823L1027 1128Q1069 1182 1078 1202T1088 1243Q1088 1264 1076 1280Q1061 1301 1038 1309T943 1319V1356H1424V1319Q1367 1316 1331 1301Q1277 1278 1232 1239T1105 1095L836 751Z"  />
<glyph unicode="Y" glyph-name="Y" horiz-adv-x="1479" d="M976 1356H1449V1319H1423Q1397 1319 1347 1296T1256 1230T1155 1090L828 575V235Q828 110 856 79Q894 37 976 37H1020V0H444V37H492Q578 37 614 89Q636 121 636 235V556L264 1124Q198 1224 175 1249T77 1309Q57 1319 19 1319V1356H599V1319H569Q522 1319 483 1297T443 1231Q443 1195 504 1101L787 664L1053 1082Q1113 1176 1113 1222Q1113 1250 1099 1272T1057 1306T976 1319V1356Z"  />
<glyph unicode="Z" glyph-name="Z" horiz-adv-x="1251" d="M1178 1356L287 82H843Q971 82 1039 138T1161 365L1194 359L1130 0H26V37L896 1275H462Q354 1275 306 1252T232 1184T185 1017H147L175 1356H1178Z"  />
<glyph unicode="[" glyph-name="bracketleft" horiz-adv-x="682" d="M608 -406H168V1387H608V1308H318V-328H608V-406Z"  />
<glyph unicode="\" glyph-name="backslash" horiz-adv-x="569" d="M83 1422L573 -28H493L3 1422H83Z"  />
<glyph unicode="]" glyph-name="bracketright" horiz-adv-x="682" d="M75 1387H515V-407H75V-328H365V1308H75V1387Z"  />
<glyph unicode="^" glyph-name="asciicircum" horiz-adv-x="961" d="M498 1384L923 667H831L481 1253L131 667H37L468 1384H498Z"  />
<glyph unicode="_" glyph-name="underscore" horiz-adv-x="1024" d="M1042 -442H-17V-358H1042V-442Z"  />
<glyph unicode="`" glyph-name="grave" horiz-adv-x="682" d="M118 1390H341L447 1045H412L118 1390Z"  />
<glyph unicode="a" glyph-name="a" horiz-adv-x="909" d="M583 132Q442 23 406 6Q352 -19 291 -19Q196 -19 135 46T73 217Q73 284 103 333Q144 401 245 461T583 607V643Q583 780 540 831T413 882Q350 882 313 848Q275 814 275 770L277 712Q277 666 254 641T192 616Q155 616 132 642T108 713Q108 799 196 871T443 943Q565 943 643 902Q702 871 730 805Q748 762 748 629V318Q748 187 753 158T769 118T796 108Q812 108 824 115Q845 128 905 188V132Q793 -18 691 -18Q642 -18 613 16T583 132ZM583 197V546Q432 486 388 461Q309 417 275 369T241 264Q241 192 284 145T383 97Q459 97 583 197Z"  />
<glyph unicode="b" glyph-name="b" horiz-adv-x="1024" d="M315 758Q448 943 602 943Q743 943 848 823T953 493Q953 249 791 100Q652 -28 481 -28Q401 -28 319 1T150 88V1037Q150 1193 143 1229T119 1278T79 1291Q51 1291 9 1275L-5 1310L270 1422H315V758ZM315 694V146Q366 96 420 71T532 45Q623 45 701 145T780 436Q780 612 702 706T523 801Q470 801 417 774Q377 754 315 694Z"  />
<glyph unicode="c" glyph-name="c" horiz-adv-x="909" d="M842 348Q805 167 697 70T458 -28Q302 -28 186 103T70 457Q70 673 198 808T507 943Q642 943 729 872T816 723Q816 685 792 662T723 638Q664 638 634 676Q617 697 612 756T571 846Q536 876 474 876Q374 876 313 802Q232 704 232 543Q232 379 312 254T530 128Q628 128 706 195Q761 241 813 362L842 348Z"  />
<glyph unicode="d" glyph-name="d" horiz-adv-x="1024" d="M711 103Q644 33 580 3T442 -28Q292 -28 180 97T68 420Q68 617 192 780T511 944Q632 944 711 867V1036Q711 1193 704 1229T680 1278T640 1291Q614 1291 571 1275L558 1310L831 1422H876V363Q876 202 883 167T907 117T946 103Q973 103 1018 120L1029 85L757 -28H711V103ZM711 173V645Q705 713 675 769T596 853T499 882Q411 882 342 803Q251 699 251 499Q251 297 339 190T535 82Q626 82 711 173Z"  />
<glyph unicode="e" glyph-name="e" horiz-adv-x="909" d="M218 571Q217 367 317 251Q417 135 552 135Q642 135 708 184T820 354L851 334Q830 197 729 85T476 -28Q311 -28 194 100T76 446Q76 681 196 812T499 944Q653 944 752 843T851 571H218ZM218 629H642Q637 717 621 753Q596 809 547 841T443 873Q360 873 295 809T218 629Z"  />
<glyph unicode="f" glyph-name="f" horiz-adv-x="682" d="M422 844V242Q422 114 450 80Q487 36 549 36H632V0H85V36H126Q166 36 199 56T244 110T257 242V844H79V916H257V976Q257 1113 301 1208T435 1361T639 1420Q744 1420 832 1352Q890 1307 890 1251Q890 1221 864 1195T808 1168Q785 1168 760 1184T697 1255T629 1329Q598 1348 560 1348Q514 1348 482 1324T436 1248T422 982V916H658V844H422Z"  />
<glyph unicode="g" glyph-name="g" horiz-adv-x="1024" d="M309 334Q225 375 180 448T135 611Q135 747 237 845T500 943Q631 943 727 879H921Q964 879 971 877T981 868Q987 859 987 836Q987 810 982 800Q979 795 972 792T921 789H802Q858 717 858 605Q858 477 760 386T497 295Q429 295 358 315Q314 277 299 249T283 200Q283 183 299 167T364 144Q392 140 504 137Q710 132 771 123Q864 110 919 54T975 -84Q975 -197 869 -296Q713 -442 462 -442Q269 -442 136 -355Q61 -305 61 -251Q61 -227 72 -203Q89 -166 142 -100Q149 -91 244 8Q192 39 171 63T149 119Q149 154 177 201T309 334ZM483 895Q409 895 359 836T309 655Q309 497 377 410Q429 344 509 344Q585 344 634 401T683 580Q683 739 614 829Q563 895 483 895ZM299 0Q252 -51 228 -95T204 -176Q204 -224 262 -260Q362 -322 551 -322Q731 -322 816 -259T902 -123Q902 -71 851 -49Q799 -27 645 -23Q420 -17 299 0Z"  />
<glyph unicode="h" glyph-name="h" horiz-adv-x="1024" d="M333 1422V752Q444 874 509 908T639 943Q717 943 773 900T856 765Q875 701 875 531V207Q875 120 889 88Q899 64 923 50T1011 36V0H561V36H582Q646 36 671 55T706 113Q709 129 709 207V531Q709 681 694 728T644 798T562 822Q513 822 460 796T333 691V207Q333 113 343 90T382 52T481 36V0H27V36Q88 36 123 55Q143 65 155 93T167 207V1036Q167 1193 160 1229T137 1278T95 1291Q74 1291 27 1275L13 1310L287 1422H333Z"  />
<glyph unicode="i" glyph-name="i" horiz-adv-x="569" d="M297 1422Q339 1422 368 1393T398 1321Q398 1279 369 1249T297 1219Q255 1219 225 1249T195 1321Q195 1363 224 1392T297 1422ZM380 943V207Q380 121 392 93T429 50T519 36V0H74V36Q141 36 164 49T200 92T214 207V560Q214 709 205 753Q198 785 183 797T142 810Q114 810 74 795L60 831L336 943H380Z"  />
<glyph unicode="j" glyph-name="j" horiz-adv-x="569" d="M296 1423Q339 1423 369 1393T399 1320Q399 1278 369 1248T296 1218Q254 1218 224 1248T194 1320Q194 1363 224 1393T296 1423ZM382 943V21Q382 -214 282 -328T22 -442Q-69 -442 -113 -409T-157 -341Q-157 -306 -133 -281T-75 -256Q-49 -256 -22 -269Q-5 -276 43 -319T125 -363Q149 -363 172 -345T206 -283T217 -94V558Q217 709 208 752Q201 785 186 797T145 810Q117 810 77 795L63 831L339 943H382Z"  />
<glyph unicode="k" glyph-name="k" horiz-adv-x="1024" d="M335 1422V510L568 723Q642 791 654 809Q662 821 662 833Q662 853 646 867T591 884V916H989V884Q907 882 853 859T733 777L498 560L733 263Q831 140 865 107Q913 60 949 46Q974 36 1036 36V0H591V36Q629 37 642 47T656 77Q656 100 616 151L335 510V206Q335 117 347 89T383 49T483 36V0H17V36Q87 36 122 53Q143 64 154 87Q169 120 169 201V1035Q169 1194 162 1229T139 1278T97 1292Q76 1292 34 1275L17 1310L289 1422H335Z"  />
<glyph unicode="l" glyph-name="l" horiz-adv-x="569" d="M379 1422V207Q379 121 391 93T430 51T527 36V0H78V36Q141 36 164 49T200 92T213 207V1039Q213 1194 206 1229T184 1278T144 1291Q118 1291 78 1275L61 1310L334 1422H379Z"  />
<glyph unicode="m" glyph-name="m" horiz-adv-x="1593" d="M336 748Q436 848 454 863Q499 901 551 922T654 943Q740 943 802 893T885 748Q988 868 1059 905T1205 943Q1278 943 1334 906T1424 783Q1446 725 1446 601V207Q1446 121 1459 89Q1469 67 1496 52T1584 36V0H1132V36H1151Q1210 36 1243 59Q1266 75 1276 110Q1280 127 1280 207V601Q1280 713 1253 759Q1214 823 1128 823Q1075 823 1022 797T892 698L890 687L892 644V207Q892 113 902 90T942 52T1041 36V0H578V36Q654 36 682 54T722 108Q727 125 727 207V601Q727 713 694 762Q650 826 571 826Q517 826 464 797Q381 753 336 698V207Q336 117 348 90T385 50T485 36V0H32V36Q95 36 120 49T158 92T171 207V557Q171 708 162 752Q155 785 140 797T99 810Q71 810 32 795L17 831L293 943H336V748Z"  />
<glyph unicode="n" glyph-name="n" horiz-adv-x="1024" d="M331 749Q492 943 638 943Q713 943 767 906T853 782Q875 722 875 598V207Q875 120 889 89Q900 64 924 50T1015 36V0H562V36H581Q645 36 670 55T706 113Q710 128 710 207V582Q710 707 678 763T568 820Q449 820 331 690V207Q331 114 342 92Q356 63 380 50T480 36V0H27V36H47Q117 36 141 71T166 207V547Q166 712 159 748T136 797T94 810Q66 810 27 795L12 831L288 943H331V749Z"  />
<glyph unicode="o" glyph-name="o" horiz-adv-x="1024" d="M512 943Q720 943 846 785Q953 650 953 475Q953 352 894 226T732 36T501 -28Q294 -28 172 137Q69 276 69 449Q69 575 131 699T296 883T512 943ZM481 878Q428 878 375 847T288 736T255 533Q255 333 334 188T544 43Q641 43 704 123T767 398Q767 642 662 782Q591 878 481 878Z"  />
<glyph unicode="p" glyph-name="p" horiz-adv-x="1024" d="M-2 825L280 939H318V725Q389 846 460 894T611 943Q749 943 841 835Q954 703 954 491Q954 254 818 99Q706 -28 536 -28Q462 -28 408 -7Q368 8 318 53V-226Q318 -320 329 -345T369 -386T473 -401V-438H-7V-401H18Q73 -402 112 -380Q131 -369 141 -345T152 -220V646Q152 735 144 759T119 795T71 807Q47 807 10 793L-2 825ZM318 666V324Q318 213 327 178Q341 120 395 76T533 32Q633 32 695 110Q776 212 776 397Q776 607 684 720Q620 798 532 798Q484 798 437 774Q401 756 318 666Z"  />
<glyph unicode="q" glyph-name="q" horiz-adv-x="1024" d="M875 943V-235Q875 -323 887 -348T924 -387T1024 -401V-438H562V-401H581Q637 -401 666 -385Q686 -374 698 -346T710 -235V159Q619 51 551 12T410 -28Q277 -28 173 93T68 417Q68 650 206 796T539 943Q596 943 644 927T730 879Q788 907 841 943H875ZM710 222V652Q710 727 691 770T621 843T508 873Q396 873 316 778T236 490Q236 305 317 209T514 113Q573 113 619 138T710 222Z"  />
<glyph unicode="r" glyph-name="r" horiz-adv-x="682" d="M332 943V737Q447 943 568 943Q623 943 659 910T695 832Q695 793 669 766T607 739Q572 739 529 773T464 808Q446 808 425 788Q380 747 332 653V214Q332 138 351 99Q364 72 397 54T492 36V0H23V36Q93 36 127 58Q152 74 162 109Q167 126 167 206V561Q167 721 161 751T137 796T93 810Q62 810 23 795L13 831L290 943H332Z"  />
<glyph unicode="s" glyph-name="s" horiz-adv-x="797" d="M656 943V631H623Q585 778 526 831T374 884Q304 884 261 847T218 765Q218 709 250 669Q281 628 376 582L522 511Q725 412 725 250Q725 125 631 49T419 -28Q335 -28 227 2Q194 12 173 12Q150 12 137 -14H104V313H137Q165 173 244 102T421 31Q490 31 533 71T577 169Q577 238 529 285T335 404T145 534Q100 591 100 678Q100 791 177 867T378 943Q432 943 509 920Q560 905 577 905Q593 905 602 912T623 943H656Z"  />
<glyph unicode="t" glyph-name="t" horiz-adv-x="569" d="M330 1217V916H544V846H330V252Q330 163 355 132T421 101Q454 101 485 121T533 182H572Q537 84 473 35T341 -15Q295 -15 251 10T186 83T165 230V846H20V879Q75 901 132 953T235 1078Q258 1116 299 1217H330Z"  />
<glyph unicode="u" glyph-name="u" horiz-adv-x="1024" d="M867 916V361Q867 202 874 167T898 117T937 103Q968 103 1007 120L1021 85L747 -28H702V166Q584 38 522 5T391 -28Q314 -28 258 16T179 131T157 329V738Q157 803 143 828T102 866T2 879V916H323V303Q323 175 367 135T475 95Q518 95 572 122T702 225V744Q702 822 674 849T555 879V916H867Z"  />
<glyph unicode="v" glyph-name="v" horiz-adv-x="1024" d="M17 916H448V879H420Q381 879 361 860T340 809Q340 774 361 726L574 220L788 745Q811 801 811 830Q811 844 803 853Q792 868 775 873T706 879V916H1005V879Q953 875 933 858Q898 828 870 758L545 -28H504L177 745Q155 799 135 822T84 862Q67 871 17 879V916Z"  />
<glyph unicode="w" glyph-name="w" horiz-adv-x="1479" d="M13 916H397V879Q344 875 328 860T311 817Q311 786 328 742L524 215L721 644L669 779Q645 839 606 862Q584 876 524 879V916H960V879Q888 876 858 853Q838 837 838 802Q838 782 846 761L1054 235L1247 742Q1267 796 1267 828Q1267 847 1248 862T1171 879V916H1460V879Q1373 866 1332 761L1026 -28H985L756 557L489 -28H452L158 742Q129 815 101 840T13 879V916Z"  />
<glyph unicode="x" glyph-name="x" horiz-adv-x="1024" d="M27 916H458V879Q417 879 401 865T384 828Q384 804 419 754Q430 738 452 704L517 600L592 704Q664 803 664 829Q664 850 647 864T592 879V916H902V879Q853 876 817 852Q768 818 683 704L558 537L786 209Q870 88 906 64T999 36V0H567V36Q612 36 637 56Q656 70 656 93Q656 116 592 209L458 405L311 209Q243 118 243 101Q243 77 265 58T333 36V0H34V36Q70 41 97 61Q135 90 225 209L417 464L243 716Q169 824 129 851T27 879V916Z"  />
<glyph unicode="y" glyph-name="y" horiz-adv-x="1024" d="M12 916H439V879H418Q373 879 351 860T328 811Q328 772 361 703L584 241L789 747Q806 788 806 828Q806 846 799 855Q791 866 774 872T714 879V916H1012V879Q975 875 955 863T911 818Q902 804 877 741L504 -173Q450 -306 363 -374T194 -442Q135 -442 97 -408T59 -330Q59 -288 86 -263T162 -237Q195 -237 252 -259Q292 -274 302 -274Q332 -274 367 -243T439 -123L504 36L175 727Q160 758 127 804Q102 839 86 851Q63 867 12 879V916Z"  />
<glyph unicode="z" glyph-name="z" horiz-adv-x="909" d="M860 281L849 0H41V36L649 846H349Q252 846 222 834T173 786Q146 736 142 662H102L108 916H876V879L262 67H596Q701 67 738 84T799 146Q815 178 826 281H860Z"  />
<glyph unicode="{" glyph-name="braceleft" horiz-adv-x="983" d="M841 -407V-442Q674 -419 570 -307T465 -57Q465 15 488 110T511 259Q511 331 451 393T283 470V511Q390 525 450 587T511 722Q511 775 488 870T465 1038Q465 1174 569 1287T841 1422V1387Q724 1359 670 1296T615 1156Q615 1097 637 1001T660 836Q660 735 586 640T365 493Q509 440 584 343T660 145Q660 77 638 -19T615 -175Q615 -251 669 -314T841 -407Z"  />
<glyph unicode="|" glyph-name="bar" horiz-adv-x="410" d="M244 1422V-442H161V1422H244Z"  />
<glyph unicode="}" glyph-name="braceright" horiz-adv-x="983" d="M177 1387V1422Q344 1400 448 1288T553 1037Q553 965 530 870T507 722Q507 650 567 588T735 511V470Q628 456 568 394T507 259Q507 206 530 111T553 -57Q553 -193 449 -306T177 -442V-407Q294 -378 348 -315T403 -175Q403 -116 380 -20T357 144Q357 246 431 341T653 488Q509 541 433 638T357 836Q357 904 380 1000T403 1156Q403 1232 349 1295T177 1387Z"  />
<glyph unicode="~" glyph-name="asciitilde" horiz-adv-x="1108" d="M1042 675H1087Q1083 545 1013 472T842 398Q796 398 743 413T469 519Q315 583 250 583Q180 583 132 540T64 400H20Q26 535 94 606T254 678Q298 678 344 664Q448 634 617 562T856 489Q931 489 982 537T1042 675Z"  />
<glyph unicode="&#xA0;" glyph-name="uni00A0" horiz-adv-x="512" />
<glyph unicode="&#xA1;" glyph-name="exclamdown" horiz-adv-x="682" d="M342 974Q389 974 421 942T453 863Q453 817 421 785T342 753Q296 753 264 785T232 863Q232 909 264 941T342 974ZM322 587H360L449 -223Q454 -276 454 -302Q454 -365 421 -403T341 -442Q294 -442 261 -404T228 -290Q228 -266 233 -223L322 587Z"  />
<glyph unicode="&#xA2;" glyph-name="cent" horiz-adv-x="1024" d="M900 349Q853 161 737 57Q647 -24 516 -24Q435 -24 354 11L212 -379H142L297 48Q216 124 180 202Q129 312 129 452Q129 706 286 842Q406 947 559 947Q579 947 620 943L760 1326H832L687 924Q788 879 825 837Q873 783 873 722Q873 683 849 660T779 637Q724 637 693 675Q675 697 667 757Q663 788 650 822L422 191Q478 153 516 140Q544 130 585 130Q646 130 702 155T787 215T870 362L900 349ZM370 250L593 865Q565 877 533 877Q431 877 371 803Q289 703 289 535Q289 460 306 397T370 250Z"  />
<glyph unicode="&#xA3;" glyph-name="sterling" horiz-adv-x="1024" d="M723 659H465Q466 613 466 591Q466 497 453 417T404 233Q600 170 628 164Q680 152 730 152Q813 152 865 190T941 312L977 303Q956 142 874 59T690 -24Q622 -24 567 0T364 136Q324 56 278 16T178 -24Q128 -24 95 10T61 105Q61 172 107 216T225 261Q242 261 263 259T310 253Q312 279 312 298T313 330Q313 418 292 659H98V754H292Q279 903 279 953Q279 1075 328 1176T463 1330T649 1384Q775 1384 838 1316T902 1180Q902 1148 878 1123T824 1098Q786 1098 761 1136Q750 1154 746 1213T712 1301Q681 1329 625 1329Q546 1329 495 1267T443 1049Q443 976 455 862Q462 787 465 754H723V659ZM298 172Q276 186 255 193T213 200Q168 200 143 176T118 112Q118 76 137 55T183 34Q216 34 247 65T298 172Z"  />
<glyph unicode="&#xA4;" glyph-name="currency" horiz-adv-x="1024" d="M794 1019L937 1161L995 1104L851 963Q954 831 954 682Q954 528 851 398L995 253L937 198L794 341Q660 238 524 238Q436 238 353 268T229 341L83 198L27 253L171 398Q69 515 69 680Q69 837 171 963L27 1104L83 1161L229 1019Q281 1064 361 1092T514 1121Q583 1121 659 1095T794 1019ZM512 1040Q361 1040 256 934T150 677Q150 530 256 424T511 318Q660 318 767 425T874 679Q874 770 825 858T690 993T512 1040Z"  />
<glyph unicode="&#xA5;" glyph-name="yen" horiz-adv-x="1024" d="M597 425H1023V352H597V244Q597 132 608 101Q617 79 642 63Q679 41 727 41H768V0H253V41H285Q355 41 389 67Q413 86 422 124Q426 143 426 244V352H2V425H426V569L411 605H2V678H379L166 1174Q129 1261 94 1289T2 1318V1356H444V1318Q372 1313 348 1295T323 1256Q323 1240 341 1197L555 678L768 1182Q789 1232 789 1257Q789 1278 768 1298Q754 1311 704 1315Q695 1315 677 1318V1356H1023V1318Q963 1318 936 1295Q893 1260 850 1163L636 678H1023V605H604L597 589V425Z"  />
<glyph unicode="&#xA6;" glyph-name="brokenbar" horiz-adv-x="410" d="M244 1422V680H161V1422H244ZM244 300V-442H161V300H244Z"  />
<glyph unicode="&#xA7;" glyph-name="section" horiz-adv-x="1024" d="M377 843Q310 917 282 978T253 1102Q253 1219 335 1301T537 1384Q647 1384 718 1317T790 1164Q790 1125 764 1095Q745 1074 711 1074Q677 1074 655 1097T633 1151Q633 1166 641 1204Q646 1227 646 1247Q646 1288 617 1315T537 1342Q464 1342 414 1291T363 1167Q363 1103 390 1061Q435 991 541 914Q742 769 816 654Q868 572 868 482Q868 391 815 300T647 140Q717 63 743 7T770 -114Q770 -236 688 -318T486 -400Q378 -400 307 -332T235 -175Q235 -138 258 -113T313 -87Q344 -87 366 -110T388 -174Q388 -201 380 -233T372 -283Q372 -312 397 -331Q436 -361 492 -361Q559 -361 613 -309T668 -196Q668 -134 637 -85Q589 -10 463 85Q275 225 207 332Q156 413 156 504Q156 596 210 685T377 843ZM409 812Q258 721 258 590Q258 520 295 461Q347 380 492 270Q562 217 614 169Q767 262 767 389Q767 454 723 524T542 702Q460 765 409 812Z"  />
<glyph unicode="&#xA8;" glyph-name="dieresis" horiz-adv-x="682" d="M518 1337Q563 1337 594 1305T626 1228Q626 1183 595 1152T518 1120Q473 1120 441 1151T409 1228Q409 1273 441 1305T518 1337ZM165 1337Q211 1337 242 1305T274 1228Q274 1183 242 1152T166 1120Q121 1120 89 1151T57 1228Q57 1273 88 1305T165 1337Z"  />
<glyph unicode="&#xA9;" glyph-name="copyright" horiz-adv-x="1556" d="M778 1387Q957 1387 1127 1296T1392 1034T1488 678Q1488 494 1394 325T1131 63T778 -31Q594 -31 426 62T163 325T69 678Q69 863 164 1033T430 1295T778 1387ZM778 1326Q615 1326 460 1242T218 1003T131 678Q131 510 216 356T456 116T778 30Q946 30 1100 116T1340 356T1426 678Q1426 847 1339 1002T1097 1242T778 1326ZM1129 1134L1149 854H1110Q1074 973 996 1031T807 1090Q725 1090 661 1056T556 965Q526 922 506 851T486 701Q486 489 577 389T817 288Q1012 288 1129 450L1166 431Q1027 228 783 228Q583 228 452 357T320 672Q320 864 460 999T818 1135Q864 1135 894 1129T1003 1097Q1028 1089 1040 1089Q1056 1089 1067 1097T1089 1134H1129Z"  />
<glyph unicode="&#xAA;" glyph-name="ordfeminine" horiz-adv-x="565" d="M340 1180Q340 1289 314 1322T234 1356Q186 1356 163 1335T140 1267Q140 1222 124 1202T82 1181Q59 1181 43 1198T26 1241Q26 1296 82 1340T260 1384Q352 1384 401 1353T464 1289T478 1180V962Q478 909 480 901Q483 888 491 881Q498 875 504 875Q518 875 562 905V857Q489 804 464 794T413 783Q388 783 369 803T340 878Q277 833 223 810T125 787Q72 787 33 825T-6 911Q-6 955 16 988Q46 1034 123 1081Q175 1112 340 1180ZM340 1142Q220 1102 177 1054T133 958Q133 924 158 898T222 872Q244 872 273 883T340 916V1142Z"  />
<glyph unicode="&#xAB;" glyph-name="guillemotleft" horiz-adv-x="1024" d="M508 -8H451L64 464L451 934H508L264 464L508 -8ZM960 -8H902L508 464L902 934H960L717 464L960 -8Z"  />
<glyph unicode="&#xAC;" glyph-name="logicalnot" horiz-adv-x="1155" d="M36 878H1116V472H1037V797H36V878Z"  />
<glyph unicode="&#xAD;" glyph-name="uni00AD" horiz-adv-x="682" d="M83 535H600V384H83V535Z"  />
<glyph unicode="&#xAE;" glyph-name="registered" horiz-adv-x="1556" d="M778 1387Q957 1387 1127 1296T1392 1034T1488 678Q1488 494 1394 325T1131 63T778 -31Q594 -31 426 62T163 325T69 678Q69 863 164 1033T430 1295T778 1387ZM778 1326Q615 1326 460 1242T218 1003T131 678Q131 510 216 356T456 116T778 30Q946 30 1100 116T1340 356T1426 678Q1426 847 1339 1002T1097 1242T778 1326ZM386 1114H772Q917 1114 993 1049T1069 890Q1069 814 1018 757T847 668L1056 370Q1094 317 1124 297Q1143 285 1177 282V249H993L699 654H623V345Q629 312 651 297T741 282V249H374V282Q422 282 442 293T471 327Q478 343 478 420V943Q478 1017 475 1030Q468 1053 450 1065T386 1078V1114ZM623 697Q741 697 795 720T879 784T908 879Q908 960 852 1015T707 1070Q669 1070 623 1054V697Z"  />
<glyph unicode="&#xAF;" glyph-name="macron" horiz-adv-x="1024" d="M1042 1462H-17V1546H1042V1462Z"  />
<glyph unicode="&#xB0;" glyph-name="degree" horiz-adv-x="819" d="M405 1386Q534 1386 623 1296T713 1078Q713 951 623 861T405 771Q278 771 188 861T98 1078Q98 1206 187 1296T405 1386ZM405 1302Q312 1302 247 1237T182 1079Q182 987 247 922T405 856Q497 856 562 921T628 1079Q628 1172 563 1237T405 1302Z"  />
<glyph unicode="&#xB1;" glyph-name="plusminus" horiz-adv-x="1124" d="M23 141V222H521V640H23V722H521V1219H601V722H1101V640H601V222H1102V141H23Z"  />
<glyph unicode="&#xB2;" glyph-name="twosuperior" horiz-adv-x="614" d="M575 816L514 664H20V693Q267 885 348 1006Q398 1080 398 1149Q398 1210 357 1251T252 1293Q195 1293 152 1264T87 1175H42Q56 1273 119 1328T284 1384Q390 1384 456 1326T523 1196Q523 1130 475 1055Q400 938 180 760H366Q453 760 481 772T530 816H575Z"  />
<glyph unicode="&#xB3;" glyph-name="threesuperior" horiz-adv-x="614" d="M55 1229Q91 1303 136 1337Q200 1384 285 1384Q377 1384 430 1338T483 1237Q483 1169 378 1082Q450 1056 486 1008T523 900Q523 797 438 723T191 649Q107 649 70 673Q44 690 44 712Q44 729 60 743T103 757Q131 757 184 733T275 709Q331 709 371 748T411 841Q411 886 385 927T316 984Q256 1007 209 1007H179V1035Q256 1035 308 1082T361 1190Q361 1239 328 1270T240 1301Q155 1301 93 1213L55 1229Z"  />
<glyph unicode="&#xB4;" glyph-name="acute" horiz-adv-x="682" d="M565 1390L270 1045H236L341 1390H565Z"  />
<glyph unicode="&#xB5;" glyph-name="uni00B5" horiz-adv-x="1180" d="M196 916H360V383Q360 238 378 185Q391 145 426 120T502 95Q620 95 738 229V916H903V262Q903 162 911 131Q918 107 935 94T971 80Q997 80 1015 102Q1041 133 1052 204H1094Q1085 83 1031 28T896 -28Q818 -28 776 30Q746 73 738 162Q651 60 576 16T424 -28Q371 -28 332 -7Q304 9 269 57Q268 26 268 11Q268 -68 302 -228Q315 -289 315 -332Q315 -380 287 -411T221 -442Q184 -442 159 -413T134 -333Q134 -287 163 -168Q183 -88 185 -64Q197 39 197 115Q197 120 196 190V916Z"  />
<glyph unicode="&#xB6;" glyph-name="paragraph" horiz-adv-x="928" d="M798 1301V-442H726V1301H539V-442H466V601Q275 609 181 651T36 782T-14 981Q-14 1091 29 1161Q87 1257 183 1306T436 1356H931V1301H798Z"  />
<glyph unicode="&#xB7;" glyph-name="middot" horiz-adv-x="682" d="M341 808Q385 808 415 778T446 703Q446 660 415 629T341 598Q298 598 267 629T236 703Q236 747 266 777T341 808Z"  />
<glyph unicode="&#xB8;" glyph-name="cedilla" horiz-adv-x="682" d="M361 16H421L371 -63Q434 -79 465 -117T496 -209Q496 -281 436 -335T281 -390Q244 -390 187 -383V-340Q215 -344 235 -344Q286 -344 321 -311T356 -234Q356 -204 333 -182T276 -160Q266 -160 250 -162L361 16Z"  />
<glyph unicode="&#xB9;" glyph-name="onesuperior" horiz-adv-x="614" d="M136 1297L341 1384H376V792Q376 732 382 718Q387 709 398 704Q414 696 477 696V664H152V696Q216 696 232 703Q244 708 249 719T254 792V1166Q254 1237 249 1260Q246 1276 239 1282T219 1289Q199 1289 152 1269L136 1297Z"  />
<glyph unicode="&#xBA;" glyph-name="ordmasculine" horiz-adv-x="635" d="M324 1384Q448 1384 529 1300T611 1091Q611 967 522 877T311 787Q193 787 111 868T29 1075Q29 1213 111 1298T324 1384ZM296 1341Q244 1341 207 1296T170 1153Q170 994 239 895Q278 838 341 838Q398 838 435 882T473 1023Q473 1180 402 1279Q358 1341 296 1341Z"  />
<glyph unicode="&#xBB;" glyph-name="guillemotright" horiz-adv-x="1024" d="M516 934H573L960 462L573 -8H516L760 462L516 934ZM64 934H122L516 462L122 -8H64L307 462L64 934Z"  />
<glyph unicode="&#xBC;" glyph-name="onequarter" horiz-adv-x="1536" d="M134 1297L339 1384H374V792Q374 732 380 718Q385 709 396 704Q412 696 475 696V664H150V696Q214 696 230 703Q242 708 247 719T252 792V1166Q252 1237 247 1260Q244 1276 237 1282T217 1289Q197 1289 150 1269L134 1297ZM1292 1384L358 -54H268L1203 1384H1292ZM1501 224V143H1393V-40H1276V143H933V216L1309 681H1393V224H1501ZM1276 224V540L1016 224H1276Z"  />
<glyph unicode="&#xBD;" glyph-name="onehalf" horiz-adv-x="1536" d="M134 1297L339 1384H374V792Q374 732 380 718Q385 709 396 704Q412 696 475 696V664H150V696Q214 696 230 703Q242 708 247 719T252 792V1166Q252 1237 247 1260Q244 1276 237 1282T217 1289Q197 1289 150 1269L134 1297ZM1268 1384L333 -54H244L1179 1384H1268ZM1494 113L1433 -40H939V-10Q1186 182 1267 303Q1317 377 1317 446Q1317 507 1276 548T1171 590Q1114 590 1071 561T1006 472H961Q975 569 1038 625T1203 681Q1309 681 1375 623T1442 493Q1442 427 1394 351Q1319 235 1099 57H1286Q1372 57 1400 68T1449 113H1494Z"  />
<glyph unicode="&#xBE;" glyph-name="threequarters" horiz-adv-x="1536" d="M1277 1384L346 -54H256L1191 1384H1277ZM53 1229Q89 1303 134 1337Q198 1384 283 1384Q375 1384 428 1338T481 1237Q481 1169 376 1082Q448 1056 484 1008T521 900Q521 797 436 723T189 649Q105 649 68 673Q42 690 42 712Q42 729 58 743T101 757Q129 757 182 733T273 709Q329 709 369 748T409 841Q409 913 353 961T177 1007V1035Q254 1035 306 1082T359 1190Q359 1239 326 1270T238 1301Q153 1301 91 1213L53 1229ZM1501 224V143H1393V-40H1277V143H933V216L1309 681H1393V224H1501ZM1277 224V540L1017 224H1277Z"  />
<glyph unicode="&#xBF;" glyph-name="questiondown" horiz-adv-x="909" d="M452 975Q498 975 530 943T563 864Q563 818 531 786T452 753Q406 753 374 785T341 864Q341 910 373 942T452 975ZM441 626H480Q475 502 456 430T354 183T271 -106Q271 -238 337 -310T507 -382Q594 -382 644 -341T694 -251Q694 -220 663 -167T632 -81Q632 -47 656 -24T713 0Q754 0 789 -41T824 -152Q824 -267 727 -354T460 -442Q290 -442 190 -349T89 -125Q89 -42 118 27Q161 125 268 248T405 440T441 626Z"  />
<glyph unicode="&#xC0;" glyph-name="Agrave" horiz-adv-x="1479" d="M937 454H412L320 240Q286 161 286 122Q286 91 315 68T443 37V0H16V37Q101 52 126 76Q177 124 239 271L716 1387H751L1223 259Q1280 123 1326 83T1456 37V0H921V37Q1002 41 1030 64T1059 120Q1059 164 1019 259L937 454ZM909 528L679 1076L443 528H909ZM513 1797H736L842 1452H807L513 1797Z"  />
<glyph unicode="&#xC1;" glyph-name="Aacute" horiz-adv-x="1479" d="M937 454H412L320 240Q286 161 286 122Q286 91 315 68T443 37V0H16V37Q101 52 126 76Q177 124 239 271L716 1387H751L1223 259Q1280 123 1326 83T1456 37V0H921V37Q1002 41 1030 64T1059 120Q1059 164 1019 259L937 454ZM909 528L679 1076L443 528H909ZM959 1797L664 1452H630L735 1797H959Z"  />
<glyph unicode="&#xC2;" glyph-name="Acircumflex" horiz-adv-x="1479" d="M937 454H412L320 240Q286 161 286 122Q286 91 315 68T443 37V0H16V37Q101 52 126 76Q177 124 239 271L716 1387H751L1223 259Q1280 123 1326 83T1456 37V0H921V37Q1002 41 1030 64T1059 120Q1059 164 1019 259L937 454ZM909 528L679 1076L443 528H909ZM643 1793H827L1017 1462H986L713 1675L484 1462H454L643 1793Z"  />
<glyph unicode="&#xC3;" glyph-name="Atilde" horiz-adv-x="1479" d="M937 454H412L320 240Q286 161 286 122Q286 91 315 68T443 37V0H16V37Q101 52 126 76Q177 124 239 271L716 1387H751L1223 259Q1280 123 1326 83T1456 37V0H921V37Q1002 41 1030 64T1059 120Q1059 164 1019 259L937 454ZM909 528L679 1076L443 528H909ZM449 1465H417Q421 1602 474 1663T605 1724Q646 1724 680 1711Q725 1694 807 1640T930 1585Q962 1585 986 1612T1025 1724H1056Q1057 1631 1032 1577T960 1492T866 1461Q787 1461 670 1541Q607 1584 585 1593T542 1602Q501 1602 477 1566Q466 1549 449 1465Z"  />
<glyph unicode="&#xC4;" glyph-name="Adieresis" horiz-adv-x="1479" d="M937 454H412L320 240Q286 161 286 122Q286 91 315 68T443 37V0H16V37Q101 52 126 76Q177 124 239 271L716 1387H751L1223 259Q1280 123 1326 83T1456 37V0H921V37Q1002 41 1030 64T1059 120Q1059 164 1019 259L937 454ZM909 528L679 1076L443 528H909ZM911 1708Q956 1708 987 1676T1019 1599Q1019 1554 988 1523T911 1491Q866 1491 834 1522T802 1599Q802 1644 834 1676T911 1708ZM558 1708Q604 1708 635 1676T667 1599Q667 1554 635 1523T559 1491Q514 1491 482 1522T450 1599Q450 1644 481 1676T558 1708Z"  />
<glyph unicode="&#xC5;" glyph-name="Aring" horiz-adv-x="1479" d="M937 454H412L320 240Q286 161 286 122Q286 91 315 68T443 37V0H16V37Q101 52 126 76Q177 124 239 271L716 1387H751L1223 259Q1280 123 1326 83T1456 37V0H921V37Q1002 41 1030 64T1059 120Q1059 164 1019 259L937 454ZM909 528L679 1076L443 528H909ZM731 1701Q811 1701 867 1645T923 1510Q923 1430 867 1374T731 1318Q652 1318 596 1374T540 1510Q540 1589 595 1645T731 1701ZM731 1632Q680 1632 645 1597T609 1510Q609 1460 644 1424T731 1388Q782 1388 817 1424T853 1510Q853 1561 818 1596T731 1632Z"  />
<glyph unicode="&#xC6;" glyph-name="AE" horiz-adv-x="1821" d="M1027 1282V746H1284Q1399 746 1446 789T1501 943H1537V472H1501Q1489 572 1469 606T1400 662Q1377 673 1284 673H1027V224Q1027 133 1034 116T1063 86T1142 74H1324Q1433 74 1492 92T1606 162Q1679 230 1726 341H1764L1656 0H638V37H689Q772 37 811 86Q835 118 835 239V525H439L315 292Q245 160 245 119Q245 91 275 68T402 37V0H-24V37Q20 38 51 56T120 121T214 274L626 1045Q703 1188 703 1238Q703 1270 676 1288Q642 1313 530 1319V1356H1641L1656 1058H1622Q1609 1161 1572 1215Q1545 1254 1494 1272Q1465 1282 1358 1282H1027ZM835 1282L478 598H835V1282Z"  />
<glyph unicode="&#xC7;" glyph-name="Ccedilla" horiz-adv-x="1366" d="M1233 1387L1264 926H1233Q1171 1133 1056 1224T780 1315Q645 1315 536 1247T365 1028T302 655Q302 471 361 336T538 129T809 57Q941 57 1042 113T1264 338L1295 318Q1193 137 1057 53T734 -31Q397 -31 212 219Q74 405 74 657Q74 860 165 1030T415 1293T764 1387Q911 1387 1054 1315Q1096 1293 1114 1293Q1141 1293 1161 1312Q1187 1339 1198 1387H1233ZM698 16H758L708 -63Q771 -79 802 -117T833 -209Q833 -281 773 -335T618 -390Q581 -390 524 -383V-340Q552 -344 572 -344Q623 -344 658 -311T693 -234Q693 -204 670 -182T613 -160Q603 -160 587 -162L698 16Z"  />
<glyph unicode="&#xC8;" glyph-name="Egrave" horiz-adv-x="1251" d="M428 1282V746H726Q842 746 881 781Q933 827 939 943H976V471H939Q925 570 911 598Q893 633 852 653T726 673H428V226Q428 136 436 117T464 86T540 74H770Q885 74 937 90T1037 153Q1099 215 1164 340H1204L1087 0H42V37H90Q138 37 181 60Q213 76 224 108T236 239V1120Q236 1249 210 1279Q174 1319 90 1319H42V1356H1087L1102 1059H1063Q1042 1166 1017 1206T941 1267Q901 1282 800 1282H428ZM406 1797H629L735 1452H700L406 1797Z"  />
<glyph unicode="&#xC9;" glyph-name="Eacute" horiz-adv-x="1251" d="M428 1282V746H726Q842 746 881 781Q933 827 939 943H976V471H939Q925 570 911 598Q893 633 852 653T726 673H428V226Q428 136 436 117T464 86T540 74H770Q885 74 937 90T1037 153Q1099 215 1164 340H1204L1087 0H42V37H90Q138 37 181 60Q213 76 224 108T236 239V1120Q236 1249 210 1279Q174 1319 90 1319H42V1356H1087L1102 1059H1063Q1042 1166 1017 1206T941 1267Q901 1282 800 1282H428ZM853 1797L558 1452H524L629 1797H853Z"  />
<glyph unicode="&#xCA;" glyph-name="Ecircumflex" horiz-adv-x="1251" d="M428 1282V746H726Q842 746 881 781Q933 827 939 943H976V471H939Q925 570 911 598Q893 633 852 653T726 673H428V226Q428 136 436 117T464 86T540 74H770Q885 74 937 90T1037 153Q1099 215 1164 340H1204L1087 0H42V37H90Q138 37 181 60Q213 76 224 108T236 239V1120Q236 1249 210 1279Q174 1319 90 1319H42V1356H1087L1102 1059H1063Q1042 1166 1017 1206T941 1267Q901 1282 800 1282H428ZM537 1793H721L911 1462H880L607 1675L378 1462H348L537 1793Z"  />
<glyph unicode="&#xCB;" glyph-name="Edieresis" horiz-adv-x="1251" d="M428 1282V746H726Q842 746 881 781Q933 827 939 943H976V471H939Q925 570 911 598Q893 633 852 653T726 673H428V226Q428 136 436 117T464 86T540 74H770Q885 74 937 90T1037 153Q1099 215 1164 340H1204L1087 0H42V37H90Q138 37 181 60Q213 76 224 108T236 239V1120Q236 1249 210 1279Q174 1319 90 1319H42V1356H1087L1102 1059H1063Q1042 1166 1017 1206T941 1267Q901 1282 800 1282H428ZM805 1708Q850 1708 881 1676T913 1599Q913 1554 882 1523T805 1491Q760 1491 728 1522T696 1599Q696 1644 728 1676T805 1708ZM452 1708Q498 1708 529 1676T561 1599Q561 1554 529 1523T453 1491Q408 1491 376 1522T344 1599Q344 1644 375 1676T452 1708Z"  />
<glyph unicode="&#xCC;" glyph-name="Igrave" horiz-adv-x="682" d="M632 37V0H51V37H99Q183 37 221 86Q245 118 245 240V1116Q245 1219 232 1252Q222 1277 191 1295Q147 1319 99 1319H51V1356H632V1319H583Q500 1319 462 1270Q437 1238 437 1116V240Q437 137 450 104Q460 79 492 61Q535 37 583 37H632ZM119 1797H342L448 1452H413L119 1797Z"  />
<glyph unicode="&#xCD;" glyph-name="Iacute" horiz-adv-x="682" d="M632 37V0H51V37H99Q183 37 221 86Q245 118 245 240V1116Q245 1219 232 1252Q222 1277 191 1295Q147 1319 99 1319H51V1356H632V1319H583Q500 1319 462 1270Q437 1238 437 1116V240Q437 137 450 104Q460 79 492 61Q535 37 583 37H632ZM565 1797L270 1452H236L341 1797H565Z"  />
<glyph unicode="&#xCE;" glyph-name="Icircumflex" horiz-adv-x="682" d="M632 37V0H51V37H99Q183 37 221 86Q245 118 245 240V1116Q245 1219 232 1252Q222 1277 191 1295Q147 1319 99 1319H51V1356H632V1319H583Q500 1319 462 1270Q437 1238 437 1116V240Q437 137 450 104Q460 79 492 61Q535 37 583 37H632ZM249 1793H433L623 1462H592L319 1675L90 1462H60L249 1793Z"  />
<glyph unicode="&#xCF;" glyph-name="Idieresis" horiz-adv-x="682" d="M632 37V0H51V37H99Q183 37 221 86Q245 118 245 240V1116Q245 1219 232 1252Q222 1277 191 1295Q147 1319 99 1319H51V1356H632V1319H583Q500 1319 462 1270Q437 1238 437 1116V240Q437 137 450 104Q460 79 492 61Q535 37 583 37H632ZM517 1708Q562 1708 593 1676T625 1599Q625 1554 594 1523T517 1491Q472 1491 440 1522T408 1599Q408 1644 440 1676T517 1708ZM164 1708Q210 1708 241 1676T273 1599Q273 1554 241 1523T165 1491Q120 1491 88 1522T56 1599Q56 1644 87 1676T164 1708Z"  />
<glyph unicode="&#xD0;" glyph-name="Eth" horiz-adv-x="1479" d="M35 0V37H86Q172 37 209 93Q230 125 230 240V678H35V752H230V1116Q230 1243 202 1275Q163 1319 86 1319H35V1356H587Q902 1356 1053 1285T1302 1056T1400 687Q1400 400 1217 200T640 0H35ZM423 100Q550 72 636 72Q867 72 1020 235T1173 677Q1173 958 1020 1120T628 1282Q538 1282 423 1253V752H816V678H423V100Z"  />
<glyph unicode="&#xD1;" glyph-name="Ntilde" horiz-adv-x="1479" d="M-27 1356H341L1170 339V1121Q1170 1246 1142 1277Q1105 1319 1025 1319H978V1356H1450V1319H1402Q1316 1319 1280 1267Q1258 1235 1258 1121V-22H1222L328 1070V235Q328 110 355 79Q393 37 472 37H520V0H48V37H95Q182 37 218 89Q240 121 240 235V1178Q181 1247 151 1269T61 1310Q32 1319 -27 1319V1356ZM448 1465H416Q420 1602 473 1663T604 1724Q645 1724 679 1711Q724 1694 806 1640T929 1585Q961 1585 985 1612T1024 1724H1055Q1056 1631 1031 1577T959 1492T865 1461Q786 1461 669 1541Q606 1584 584 1593T541 1602Q500 1602 476 1566Q465 1549 448 1465Z"  />
<glyph unicode="&#xD2;" glyph-name="Ograve" horiz-adv-x="1479" d="M749 1387Q1013 1387 1206 1187T1400 686Q1400 377 1205 173T733 -31Q453 -31 263 168T72 683Q72 1006 292 1210Q483 1387 749 1387ZM730 1314Q548 1314 438 1179Q301 1011 301 687Q301 355 443 176Q552 40 731 40Q922 40 1046 189T1171 659Q1171 1007 1034 1178Q924 1314 730 1314ZM511 1797H734L840 1452H805L511 1797Z"  />
<glyph unicode="&#xD3;" glyph-name="Oacute" horiz-adv-x="1479" d="M749 1387Q1013 1387 1206 1187T1400 686Q1400 377 1205 173T733 -31Q453 -31 263 168T72 683Q72 1006 292 1210Q483 1387 749 1387ZM730 1314Q548 1314 438 1179Q301 1011 301 687Q301 355 443 176Q552 40 731 40Q922 40 1046 189T1171 659Q1171 1007 1034 1178Q924 1314 730 1314ZM957 1797L662 1452H628L733 1797H957Z"  />
<glyph unicode="&#xD4;" glyph-name="Ocircumflex" horiz-adv-x="1479" d="M749 1387Q1013 1387 1206 1187T1400 686Q1400 377 1205 173T733 -31Q453 -31 263 168T72 683Q72 1006 292 1210Q483 1387 749 1387ZM730 1314Q548 1314 438 1179Q301 1011 301 687Q301 355 443 176Q552 40 731 40Q922 40 1046 189T1171 659Q1171 1007 1034 1178Q924 1314 730 1314ZM641 1793H825L1015 1462H984L711 1675L482 1462H452L641 1793Z"  />
<glyph unicode="&#xD5;" glyph-name="Otilde" horiz-adv-x="1479" d="M749 1387Q1013 1387 1206 1187T1400 686Q1400 377 1205 173T733 -31Q453 -31 263 168T72 683Q72 1006 292 1210Q483 1387 749 1387ZM730 1314Q548 1314 438 1179Q301 1011 301 687Q301 355 443 176Q552 40 731 40Q922 40 1046 189T1171 659Q1171 1007 1034 1178Q924 1314 730 1314ZM446 1465H414Q418 1602 471 1663T602 1724Q643 1724 677 1711Q722 1694 804 1640T927 1585Q959 1585 983 1612T1022 1724H1053Q1054 1631 1029 1577T957 1492T863 1461Q784 1461 667 1541Q604 1584 582 1593T539 1602Q498 1602 474 1566Q463 1549 446 1465Z"  />
<glyph unicode="&#xD6;" glyph-name="Odieresis" horiz-adv-x="1479" d="M749 1387Q1013 1387 1206 1187T1400 686Q1400 377 1205 173T733 -31Q453 -31 263 168T72 683Q72 1006 292 1210Q483 1387 749 1387ZM730 1314Q548 1314 438 1179Q301 1011 301 687Q301 355 443 176Q552 40 731 40Q922 40 1046 189T1171 659Q1171 1007 1034 1178Q924 1314 730 1314ZM909 1708Q954 1708 985 1676T1017 1599Q1017 1554 986 1523T909 1491Q864 1491 832 1522T800 1599Q800 1644 832 1676T909 1708ZM556 1708Q602 1708 633 1676T665 1599Q665 1554 633 1523T557 1491Q512 1491 480 1522T448 1599Q448 1644 479 1676T556 1708Z"  />
<glyph unicode="&#xD7;" glyph-name="multiply" horiz-adv-x="1155" d="M165 328L518 681L166 1033L224 1091L576 739L928 1091L984 1034L632 682L986 328L929 270L575 624L222 271L165 328Z"  />
<glyph unicode="&#xD8;" glyph-name="Oslash" horiz-adv-x="1479" d="M1147 1238L1278 1400L1336 1356L1203 1189Q1307 1076 1354 960T1401 687Q1401 344 1157 132Q969 -31 744 -31Q641 -31 528 6T330 112L201 -47L142 0L274 164Q73 371 73 692Q73 986 269 1186T741 1387Q968 1387 1147 1238ZM1063 1135Q947 1316 736 1316Q643 1316 589 1294Q514 1264 455 1198Q376 1110 339 983T302 697Q302 466 375 289L1063 1135ZM1101 1063L416 217Q470 135 532 97Q621 41 730 41Q835 41 902 72T1027 170T1128 356T1170 656Q1170 779 1152 884Q1138 961 1101 1063Z"  />
<glyph unicode="&#xD9;" glyph-name="Ugrave" horiz-adv-x="1479" d="M977 1319V1356H1457V1319H1406Q1326 1319 1283 1252Q1262 1221 1262 1108V558Q1262 354 1222 242T1063 49T740 -32Q518 -32 403 45T240 252Q208 341 208 586V1116Q208 1241 174 1280T62 1319H11V1356H597V1319H545Q461 1319 425 1266Q400 1230 400 1116V525Q400 446 414 344T467 185T576 91T752 54Q885 54 990 112T1133 260T1172 567V1116Q1172 1243 1144 1275Q1105 1319 1028 1319H977ZM562 1797H785L891 1452H856L562 1797Z"  />
<glyph unicode="&#xDA;" glyph-name="Uacute" horiz-adv-x="1479" d="M977 1319V1356H1457V1319H1406Q1326 1319 1283 1252Q1262 1221 1262 1108V558Q1262 354 1222 242T1063 49T740 -32Q518 -32 403 45T240 252Q208 341 208 586V1116Q208 1241 174 1280T62 1319H11V1356H597V1319H545Q461 1319 425 1266Q400 1230 400 1116V525Q400 446 414 344T467 185T576 91T752 54Q885 54 990 112T1133 260T1172 567V1116Q1172 1243 1144 1275Q1105 1319 1028 1319H977ZM960 1797L665 1452H631L736 1797H960Z"  />
<glyph unicode="&#xDB;" glyph-name="Ucircumflex" horiz-adv-x="1479" d="M977 1319V1356H1457V1319H1406Q1326 1319 1283 1252Q1262 1221 1262 1108V558Q1262 354 1222 242T1063 49T740 -32Q518 -32 403 45T240 252Q208 341 208 586V1116Q208 1241 174 1280T62 1319H11V1356H597V1319H545Q461 1319 425 1266Q400 1230 400 1116V525Q400 446 414 344T467 185T576 91T752 54Q885 54 990 112T1133 260T1172 567V1116Q1172 1243 1144 1275Q1105 1319 1028 1319H977ZM691 1793H875L1065 1462H1034L761 1675L532 1462H502L691 1793Z"  />
<glyph unicode="&#xDC;" glyph-name="Udieresis" horiz-adv-x="1479" d="M977 1319V1356H1457V1319H1406Q1326 1319 1283 1252Q1262 1221 1262 1108V558Q1262 354 1222 242T1063 49T740 -32Q518 -32 403 45T240 252Q208 341 208 586V1116Q208 1241 174 1280T62 1319H11V1356H597V1319H545Q461 1319 425 1266Q400 1230 400 1116V525Q400 446 414 344T467 185T576 91T752 54Q885 54 990 112T1133 260T1172 567V1116Q1172 1243 1144 1275Q1105 1319 1028 1319H977ZM960 1708Q1005 1708 1036 1676T1068 1599Q1068 1554 1037 1523T960 1491Q915 1491 883 1522T851 1599Q851 1644 883 1676T960 1708ZM607 1708Q653 1708 684 1676T716 1599Q716 1554 684 1523T608 1491Q563 1491 531 1522T499 1599Q499 1644 530 1676T607 1708Z"  />
<glyph unicode="&#xDD;" glyph-name="Yacute" horiz-adv-x="1479" d="M976 1356H1449V1319H1423Q1397 1319 1347 1296T1256 1230T1155 1090L828 575V235Q828 110 856 79Q894 37 976 37H1020V0H444V37H492Q578 37 614 89Q636 121 636 235V556L264 1124Q198 1224 175 1249T77 1309Q57 1319 19 1319V1356H599V1319H569Q522 1319 483 1297T443 1231Q443 1195 504 1101L787 664L1053 1082Q1113 1176 1113 1222Q1113 1250 1099 1272T1057 1306T976 1319V1356ZM996 1797L701 1452H667L772 1797H996Z"  />
<glyph unicode="&#xDE;" glyph-name="Thorn" horiz-adv-x="1139" d="M420 1048H494Q644 1048 718 1036Q826 1017 897 972T1014 850T1060 680Q1060 603 1031 538T953 425T842 350T681 309Q645 304 490 304H420V243Q420 114 454 76T573 37H614V0H36V37H74Q167 37 207 93Q227 121 227 240V1108Q227 1222 216 1248T168 1297T76 1319H36V1356H614V1319H574Q530 1319 480 1296Q450 1282 435 1247T420 1113V1048ZM420 970V375H464Q586 375 654 403Q744 441 787 512T830 677Q830 752 799 815T718 913T605 962Q565 970 468 970H420Z"  />
<glyph unicode="&#xDF;" glyph-name="germandbls" horiz-adv-x="1024" d="M35 0V36Q95 41 120 57T156 101T167 225V966Q167 1215 260 1319Q353 1422 524 1422Q686 1422 781 1331T876 1097Q876 991 822 917Q782 863 685 821Q820 781 889 682T958 422Q958 248 867 118T623 -13Q536 -13 484 35T431 149Q431 191 452 213T510 236Q549 236 570 215T592 157Q592 141 588 124Q582 100 582 89Q582 71 597 57Q612 43 638 43Q698 43 737 96Q788 166 788 312Q788 520 715 642T493 774V831Q599 831 653 893T708 1102Q708 1236 656 1296T516 1356Q435 1356 384 1292T333 1037V0H35Z"  />
<glyph unicode="&#xE0;" glyph-name="agrave" horiz-adv-x="909" d="M583 132Q442 23 406 6Q352 -19 291 -19Q196 -19 135 46T73 217Q73 284 103 333Q144 401 245 461T583 607V643Q583 780 540 831T413 882Q350 882 313 848Q275 814 275 770L277 712Q277 666 254 641T192 616Q155 616 132 642T108 713Q108 799 196 871T443 943Q565 943 643 902Q702 871 730 805Q748 762 748 629V318Q748 187 753 158T769 118T796 108Q812 108 824 115Q845 128 905 188V132Q793 -18 691 -18Q642 -18 613 16T583 132ZM583 197V546Q432 486 388 461Q309 417 275 369T241 264Q241 192 284 145T383 97Q459 97 583 197ZM260 1390H483L589 1045H554L260 1390Z"  />
<glyph unicode="&#xE1;" glyph-name="aacute" horiz-adv-x="909" d="M583 132Q442 23 406 6Q352 -19 291 -19Q196 -19 135 46T73 217Q73 284 103 333Q144 401 245 461T583 607V643Q583 780 540 831T413 882Q350 882 313 848Q275 814 275 770L277 712Q277 666 254 641T192 616Q155 616 132 642T108 713Q108 799 196 871T443 943Q565 943 643 902Q702 871 730 805Q748 762 748 629V318Q748 187 753 158T769 118T796 108Q812 108 824 115Q845 128 905 188V132Q793 -18 691 -18Q642 -18 613 16T583 132ZM583 197V546Q432 486 388 461Q309 417 275 369T241 264Q241 192 284 145T383 97Q459 97 583 197ZM682 1390L387 1045H353L458 1390H682Z"  />
<glyph unicode="&#xE2;" glyph-name="acircumflex" horiz-adv-x="909" d="M583 132Q442 23 406 6Q352 -19 291 -19Q196 -19 135 46T73 217Q73 284 103 333Q144 401 245 461T583 607V643Q583 780 540 831T413 882Q350 882 313 848Q275 814 275 770L277 712Q277 666 254 641T192 616Q155 616 132 642T108 713Q108 799 196 871T443 943Q565 943 643 902Q702 871 730 805Q748 762 748 629V318Q748 187 753 158T769 118T796 108Q812 108 824 115Q845 128 905 188V132Q793 -18 691 -18Q642 -18 613 16T583 132ZM583 197V546Q432 486 388 461Q309 417 275 369T241 264Q241 192 284 145T383 97Q459 97 583 197ZM366 1385H550L740 1054H709L436 1267L207 1054H177L366 1385Z"  />
<glyph unicode="&#xE3;" glyph-name="atilde" horiz-adv-x="909" d="M583 132Q442 23 406 6Q352 -19 291 -19Q196 -19 135 46T73 217Q73 284 103 333Q144 401 245 461T583 607V643Q583 780 540 831T413 882Q350 882 313 848Q275 814 275 770L277 712Q277 666 254 641T192 616Q155 616 132 642T108 713Q108 799 196 871T443 943Q565 943 643 902Q702 871 730 805Q748 762 748 629V318Q748 187 753 158T769 118T796 108Q812 108 824 115Q845 128 905 188V132Q793 -18 691 -18Q642 -18 613 16T583 132ZM583 197V546Q432 486 388 461Q309 417 275 369T241 264Q241 192 284 145T383 97Q459 97 583 197ZM171 1097H139Q143 1234 196 1295T327 1356Q368 1356 402 1343Q447 1326 529 1272T652 1217Q684 1217 708 1244T747 1356H778Q779 1263 754 1209T682 1124T588 1093Q509 1093 392 1173Q329 1216 307 1225T264 1234Q223 1234 199 1198Q188 1181 171 1097Z"  />
<glyph unicode="&#xE4;" glyph-name="adieresis" horiz-adv-x="909" d="M583 132Q442 23 406 6Q352 -19 291 -19Q196 -19 135 46T73 217Q73 284 103 333Q144 401 245 461T583 607V643Q583 780 540 831T413 882Q350 882 313 848Q275 814 275 770L277 712Q277 666 254 641T192 616Q155 616 132 642T108 713Q108 799 196 871T443 943Q565 943 643 902Q702 871 730 805Q748 762 748 629V318Q748 187 753 158T769 118T796 108Q812 108 824 115Q845 128 905 188V132Q793 -18 691 -18Q642 -18 613 16T583 132ZM583 197V546Q432 486 388 461Q309 417 275 369T241 264Q241 192 284 145T383 97Q459 97 583 197ZM634 1337Q679 1337 710 1305T742 1228Q742 1183 711 1152T634 1120Q589 1120 557 1151T525 1228Q525 1273 557 1305T634 1337ZM281 1337Q327 1337 358 1305T390 1228Q390 1183 358 1152T282 1120Q237 1120 205 1151T173 1228Q173 1273 204 1305T281 1337Z"  />
<glyph unicode="&#xE5;" glyph-name="aring" horiz-adv-x="909" d="M583 132Q442 23 406 6Q352 -19 291 -19Q196 -19 135 46T73 217Q73 284 103 333Q144 401 245 461T583 607V643Q583 780 540 831T413 882Q350 882 313 848Q275 814 275 770L277 712Q277 666 254 641T192 616Q155 616 132 642T108 713Q108 799 196 871T443 943Q565 943 643 902Q702 871 730 805Q748 762 748 629V318Q748 187 753 158T769 118T796 108Q812 108 824 115Q845 128 905 188V132Q793 -18 691 -18Q642 -18 613 16T583 132ZM583 197V546Q432 486 388 461Q309 417 275 369T241 264Q241 192 284 145T383 97Q459 97 583 197ZM458 1426Q538 1426 594 1370T650 1235Q650 1155 594 1099T458 1043Q379 1043 323 1099T267 1235Q267 1314 322 1370T458 1426ZM458 1357Q407 1357 372 1322T336 1235Q336 1185 371 1149T458 1113Q509 1113 544 1149T580 1235Q580 1286 545 1321T458 1357Z"  />
<glyph unicode="&#xE6;" glyph-name="ae" horiz-adv-x="1366" d="M734 567Q733 516 733 493Q733 292 805 207T989 122Q1086 122 1165 183Q1215 222 1272 342L1304 320Q1268 158 1149 50Q1063 -28 934 -28Q826 -28 749 19Q713 42 638 132Q626 123 583 89Q525 42 505 31Q458 4 405 -12T296 -28Q202 -28 138 38T73 201Q73 288 116 349T287 475Q443 555 563 597V689Q563 797 523 841T416 886Q350 886 313 854Q275 821 275 781Q275 697 267 672T240 634T195 621Q156 621 135 644Q105 676 105 716Q105 768 141 820T256 908T440 944Q564 944 627 909T710 821Q758 881 811 908Q882 944 979 944Q1123 944 1213 847T1304 567H734ZM734 632H1112Q1110 758 1059 815T927 873Q847 873 792 811T734 632ZM610 184Q589 229 576 301T563 443V532Q428 490 315 404Q241 347 241 258Q241 179 288 129T402 79Q441 79 484 99T610 184Z"  />
<glyph unicode="&#xE7;" glyph-name="ccedilla" horiz-adv-x="909" d="M842 348Q805 167 697 70T458 -28Q302 -28 186 103T70 457Q70 673 198 808T507 943Q642 943 729 872T816 723Q816 685 792 662T723 638Q664 638 634 676Q617 697 612 756T571 846Q536 876 474 876Q374 876 313 802Q232 704 232 543Q232 379 312 254T530 128Q628 128 706 195Q761 241 813 362L842 348ZM470 16H530L480 -63Q543 -79 574 -117T605 -209Q605 -281 545 -335T390 -390Q353 -390 296 -383V-340Q324 -344 344 -344Q395 -344 430 -311T465 -234Q465 -204 442 -182T385 -160Q375 -160 359 -162L470 16Z"  />
<glyph unicode="&#xE8;" glyph-name="egrave" horiz-adv-x="909" d="M218 571Q217 367 317 251Q417 135 552 135Q642 135 708 184T820 354L851 334Q830 197 729 85T476 -28Q311 -28 194 100T76 446Q76 681 196 812T499 944Q653 944 752 843T851 571H218ZM218 629H642Q637 717 621 753Q596 809 547 841T443 873Q360 873 295 809T218 629ZM285 1390H508L614 1045H579L285 1390Z"  />
<glyph unicode="&#xE9;" glyph-name="eacute" horiz-adv-x="909" d="M218 571Q217 367 317 251Q417 135 552 135Q642 135 708 184T820 354L851 334Q830 197 729 85T476 -28Q311 -28 194 100T76 446Q76 681 196 812T499 944Q653 944 752 843T851 571H218ZM218 629H642Q637 717 621 753Q596 809 547 841T443 873Q360 873 295 809T218 629ZM695 1390L400 1045H366L471 1390H695Z"  />
<glyph unicode="&#xEA;" glyph-name="ecircumflex" horiz-adv-x="909" d="M218 571Q217 367 317 251Q417 135 552 135Q642 135 708 184T820 354L851 334Q830 197 729 85T476 -28Q311 -28 194 100T76 446Q76 681 196 812T499 944Q653 944 752 843T851 571H218ZM218 629H642Q637 717 621 753Q596 809 547 841T443 873Q360 873 295 809T218 629ZM403 1385H587L777 1054H746L473 1267L244 1054H214L403 1385Z"  />
<glyph unicode="&#xEB;" glyph-name="edieresis" horiz-adv-x="909" d="M218 571Q217 367 317 251Q417 135 552 135Q642 135 708 184T820 354L851 334Q830 197 729 85T476 -28Q311 -28 194 100T76 446Q76 681 196 812T499 944Q653 944 752 843T851 571H218ZM218 629H642Q637 717 621 753Q596 809 547 841T443 873Q360 873 295 809T218 629ZM671 1336Q716 1336 747 1304T779 1227Q779 1182 748 1151T671 1119Q626 1119 594 1150T562 1227Q562 1272 594 1304T671 1336ZM318 1336Q364 1336 395 1304T427 1227Q427 1182 395 1151T319 1119Q274 1119 242 1150T210 1227Q210 1272 241 1304T318 1336Z"  />
<glyph unicode="&#xEC;" glyph-name="igrave" horiz-adv-x="569" d="M379 943V207Q379 121 392 93T429 50T519 36V0H74V36Q141 36 164 49T200 92T214 207V560Q214 709 205 753Q198 785 183 797T142 810Q114 810 74 795L60 831L336 943H379ZM77 1390H300L406 1045H371L77 1390Z"  />
<glyph unicode="&#xED;" glyph-name="iacute" horiz-adv-x="569" d="M379 943V207Q379 121 392 93T429 50T519 36V0H74V36Q141 36 164 49T200 92T214 207V560Q214 709 205 753Q198 785 183 797T142 810Q114 810 74 795L60 831L336 943H379ZM498 1390L203 1045H169L274 1390H498Z"  />
<glyph unicode="&#xEE;" glyph-name="icircumflex" horiz-adv-x="569" d="M379 943V207Q379 121 392 93T429 50T519 36V0H74V36Q141 36 164 49T200 92T214 207V560Q214 709 205 753Q198 785 183 797T142 810Q114 810 74 795L60 831L336 943H379ZM202 1385H386L576 1054H545L272 1267L43 1054H13L202 1385Z"  />
<glyph unicode="&#xEF;" glyph-name="idieresis" horiz-adv-x="569" d="M379 943V207Q379 121 392 93T429 50T519 36V0H74V36Q141 36 164 49T200 92T214 207V560Q214 709 205 753Q198 785 183 797T142 810Q114 810 74 795L60 831L336 943H379ZM463 1336Q508 1336 539 1304T571 1227Q571 1182 540 1151T463 1119Q418 1119 386 1150T354 1227Q354 1272 386 1304T463 1336ZM110 1336Q156 1336 187 1304T219 1227Q219 1182 187 1151T111 1119Q66 1119 34 1150T2 1227Q2 1272 33 1304T110 1336Z"  />
<glyph unicode="&#xF0;" glyph-name="eth" horiz-adv-x="1024" d="M469 1169L222 1034L192 1089L425 1221Q359 1288 326 1315T237 1379L264 1422Q384 1362 511 1267L760 1406L794 1351L565 1221Q755 1056 852 858T949 474Q949 335 892 219T730 37T499 -28Q320 -28 194 105T68 441Q68 652 206 806Q324 935 488 935Q537 935 576 922Q607 912 657 876Q577 1041 469 1169ZM479 874Q383 874 318 793T253 518Q253 382 293 268T403 98T547 42Q638 42 701 121T764 377Q764 602 685 738T479 874Z"  />
<glyph unicode="&#xF1;" glyph-name="ntilde" horiz-adv-x="1024" d="M331 749Q492 943 638 943Q713 943 767 906T853 782Q875 722 875 598V207Q875 120 889 89Q900 64 924 50T1015 36V0H562V36H581Q645 36 670 55T706 113Q710 128 710 207V582Q710 707 678 763T568 820Q449 820 331 690V207Q331 114 342 92Q356 63 380 50T480 36V0H27V36H47Q117 36 141 71T166 207V547Q166 712 159 748T136 797T94 810Q66 810 27 795L12 831L288 943H331V749ZM225 1097H193Q197 1234 250 1295T381 1356Q422 1356 456 1343Q501 1326 583 1272T706 1217Q738 1217 762 1244T801 1356H832Q833 1263 808 1209T736 1124T642 1093Q563 1093 446 1173Q383 1216 361 1225T318 1234Q277 1234 253 1198Q242 1181 225 1097Z"  />
<glyph unicode="&#xF2;" glyph-name="ograve" horiz-adv-x="1024" d="M512 943Q720 943 846 785Q953 650 953 475Q953 352 894 226T732 36T501 -28Q294 -28 172 137Q69 276 69 449Q69 575 131 699T296 883T512 943ZM481 878Q428 878 375 847T288 736T255 533Q255 333 334 188T544 43Q641 43 704 123T767 398Q767 642 662 782Q591 878 481 878ZM301 1390H524L630 1045H595L301 1390Z"  />
<glyph unicode="&#xF3;" glyph-name="oacute" horiz-adv-x="1024" d="M512 943Q720 943 846 785Q953 650 953 475Q953 352 894 226T732 36T501 -28Q294 -28 172 137Q69 276 69 449Q69 575 131 699T296 883T512 943ZM481 878Q428 878 375 847T288 736T255 533Q255 333 334 188T544 43Q641 43 704 123T767 398Q767 642 662 782Q591 878 481 878ZM723 1390L428 1045H394L499 1390H723Z"  />
<glyph unicode="&#xF4;" glyph-name="ocircumflex" horiz-adv-x="1024" d="M512 943Q720 943 846 785Q953 650 953 475Q953 352 894 226T732 36T501 -28Q294 -28 172 137Q69 276 69 449Q69 575 131 699T296 883T512 943ZM481 878Q428 878 375 847T288 736T255 533Q255 333 334 188T544 43Q641 43 704 123T767 398Q767 642 662 782Q591 878 481 878ZM431 1385H615L805 1054H774L501 1267L272 1054H242L431 1385Z"  />
<glyph unicode="&#xF5;" glyph-name="otilde" horiz-adv-x="1024" d="M512 943Q720 943 846 785Q953 650 953 475Q953 352 894 226T732 36T501 -28Q294 -28 172 137Q69 276 69 449Q69 575 131 699T296 883T512 943ZM481 878Q428 878 375 847T288 736T255 533Q255 333 334 188T544 43Q641 43 704 123T767 398Q767 642 662 782Q591 878 481 878ZM224 1097H192Q196 1234 249 1295T380 1356Q421 1356 455 1343Q500 1326 582 1272T705 1217Q737 1217 761 1244T800 1356H831Q832 1263 807 1209T735 1124T641 1093Q562 1093 445 1173Q382 1216 360 1225T317 1234Q276 1234 252 1198Q241 1181 224 1097Z"  />
<glyph unicode="&#xF6;" glyph-name="odieresis" horiz-adv-x="1024" d="M512 943Q720 943 846 785Q953 650 953 475Q953 352 894 226T732 36T501 -28Q294 -28 172 137Q69 276 69 449Q69 575 131 699T296 883T512 943ZM481 878Q428 878 375 847T288 736T255 533Q255 333 334 188T544 43Q641 43 704 123T767 398Q767 642 662 782Q591 878 481 878ZM687 1336Q732 1336 763 1304T795 1227Q795 1182 764 1151T687 1119Q642 1119 610 1150T578 1227Q578 1272 610 1304T687 1336ZM334 1336Q380 1336 411 1304T443 1227Q443 1182 411 1151T335 1119Q290 1119 258 1150T226 1227Q226 1272 257 1304T334 1336Z"  />
<glyph unicode="&#xF7;" glyph-name="divide" horiz-adv-x="1124" d="M562 1075Q598 1075 623 1050T649 988Q649 952 624 927T561 901Q525 901 500 926T474 988Q474 1024 499 1049T562 1075ZM1101 640H23V722H1101V640ZM562 455Q599 455 624 429T650 367Q650 331 624 305T562 279Q526 279 500 305T474 367Q474 403 499 429T562 455Z"  />
<glyph unicode="&#xF8;" glyph-name="oslash" horiz-adv-x="1024" d="M806 832L939 979L985 936L850 784Q956 649 956 472Q956 354 898 228T738 37T507 -28Q424 -28 360 -3T221 86L86 -67L39 -24L180 135Q130 197 102 287T74 455Q74 574 134 695T297 879T521 943Q603 943 669 917T806 832ZM704 719Q653 808 604 842T488 877Q390 877 325 797T260 532Q260 408 299 270L704 719ZM732 654L329 204Q380 112 429 78T547 43Q646 43 708 123T771 402Q771 523 732 654Z"  />
<glyph unicode="&#xF9;" glyph-name="ugrave" horiz-adv-x="1024" d="M867 916V361Q867 202 874 167T898 117T937 103Q968 103 1007 120L1021 85L747 -28H702V166Q584 38 522 5T391 -28Q314 -28 258 16T179 131T157 329V738Q157 803 143 828T102 866T2 879V916H323V303Q323 175 367 135T475 95Q518 95 572 122T702 225V744Q702 822 674 849T555 879V916H867ZM307 1390H530L636 1045H601L307 1390Z"  />
<glyph unicode="&#xFA;" glyph-name="uacute" horiz-adv-x="1024" d="M867 916V361Q867 202 874 167T898 117T937 103Q968 103 1007 120L1021 85L747 -28H702V166Q584 38 522 5T391 -28Q314 -28 258 16T179 131T157 329V738Q157 803 143 828T102 866T2 879V916H323V303Q323 175 367 135T475 95Q518 95 572 122T702 225V744Q702 822 674 849T555 879V916H867ZM699 1390L404 1045H370L475 1390H699Z"  />
<glyph unicode="&#xFB;" glyph-name="ucircumflex" horiz-adv-x="1024" d="M867 916V361Q867 202 874 167T898 117T937 103Q968 103 1007 120L1021 85L747 -28H702V166Q584 38 522 5T391 -28Q314 -28 258 16T179 131T157 329V738Q157 803 143 828T102 866T2 879V916H323V303Q323 175 367 135T475 95Q518 95 572 122T702 225V744Q702 822 674 849T555 879V916H867ZM423 1385H607L797 1054H766L493 1267L264 1054H234L423 1385Z"  />
<glyph unicode="&#xFC;" glyph-name="udieresis" horiz-adv-x="1024" d="M867 916V361Q867 202 874 167T898 117T937 103Q968 103 1007 120L1021 85L747 -28H702V166Q584 38 522 5T391 -28Q314 -28 258 16T179 131T157 329V738Q157 803 143 828T102 866T2 879V916H323V303Q323 175 367 135T475 95Q518 95 572 122T702 225V744Q702 822 674 849T555 879V916H867ZM687 1336Q732 1336 763 1304T795 1227Q795 1182 764 1151T687 1119Q642 1119 610 1150T578 1227Q578 1272 610 1304T687 1336ZM334 1336Q380 1336 411 1304T443 1227Q443 1182 411 1151T335 1119Q290 1119 258 1150T226 1227Q226 1272 257 1304T334 1336Z"  />
<glyph unicode="&#xFD;" glyph-name="yacute" horiz-adv-x="1024" d="M12 916H439V879H418Q373 879 351 860T328 811Q328 772 361 703L584 241L789 747Q806 788 806 828Q806 846 799 855Q791 866 774 872T714 879V916H1012V879Q975 875 955 863T911 818Q902 804 877 741L504 -173Q450 -306 363 -374T194 -442Q135 -442 97 -408T59 -330Q59 -288 86 -263T162 -237Q195 -237 252 -259Q292 -274 302 -274Q332 -274 367 -243T439 -123L504 36L175 727Q160 758 127 804Q102 839 86 851Q63 867 12 879V916ZM732 1390L437 1045H403L508 1390H732Z"  />
<glyph unicode="&#xFE;" glyph-name="thorn" horiz-adv-x="1024" d="M-2 1308L280 1422H318V725Q389 846 460 894T611 943Q749 943 841 835Q954 703 954 491Q954 254 818 99Q706 -28 536 -28Q462 -28 408 -7Q368 8 318 53V-226Q318 -319 329 -344T369 -384T473 -399V-437H-7V-399L18 -400Q73 -401 112 -379Q131 -368 141 -344T152 -220V1129Q152 1218 144 1242T119 1279T71 1291Q47 1291 10 1276L-2 1308ZM318 666V324Q318 213 327 178Q341 120 395 76T533 32Q633 32 695 110Q776 212 776 397Q776 607 684 720Q620 798 532 798Q484 798 437 774Q401 756 318 666Z"  />
<glyph unicode="&#xFF;" glyph-name="ydieresis" horiz-adv-x="1024" d="M12 916H439V879H418Q373 879 351 860T328 811Q328 772 361 703L584 241L789 747Q806 788 806 828Q806 846 799 855Q791 866 774 872T714 879V916H1012V879Q975 875 955 863T911 818Q902 804 877 741L504 -173Q450 -306 363 -374T194 -442Q135 -442 97 -408T59 -330Q59 -288 86 -263T162 -237Q195 -237 252 -259Q292 -274 302 -274Q332 -274 367 -243T439 -123L504 36L175 727Q160 758 127 804Q102 839 86 851Q63 867 12 879V916ZM725 1337Q770 1337 801 1305T833 1228Q833 1183 802 1152T725 1120Q680 1120 648 1151T616 1228Q616 1273 648 1305T725 1337ZM372 1337Q418 1337 449 1305T481 1228Q481 1183 449 1152T373 1120Q328 1120 296 1151T264 1228Q264 1273 295 1305T372 1337Z"  />
<glyph unicode="&#x131;" glyph-name="dotlessi" horiz-adv-x="569" d="M379 943V207Q379 121 392 93T429 50T519 36V0H74V36Q141 36 164 49T200 92T214 207V560Q214 709 205 753Q198 785 183 797T142 810Q114 810 74 795L60 831L336 943H379Z"  />
<glyph unicode="&#x141;" glyph-name="Lslash" horiz-adv-x="1251" d="M1086 0H37V37H79Q126 37 171 60Q204 77 216 109T229 243V542L22 376V468L229 642V1112Q229 1226 218 1252T173 1299T79 1319H37V1356H639V1319H579Q508 1319 475 1297T428 1229Q421 1206 421 1112V801L648 988V893L421 701V248Q421 159 432 136T473 99Q494 88 587 88H739Q884 88 932 103Q1001 123 1062 188T1167 376L1199 368L1086 0Z"  />
<glyph unicode="&#x142;" glyph-name="lslash" horiz-adv-x="569" d="M380 1422V814L551 955V870L380 728V206Q380 110 390 87T425 53Q462 34 526 36V0H64V36L89 35Q141 35 172 53Q194 66 205 92T216 217V596L30 443V527L216 681V1036Q216 1185 207 1222Q202 1248 183 1264T141 1280Q124 1280 74 1263L64 1299L348 1422H380Z"  />
<glyph unicode="&#x152;" glyph-name="OE" horiz-adv-x="1821" d="M1104 1282V747H1287Q1402 747 1450 794T1497 943H1536V471H1497Q1488 594 1446 633T1287 673H1104V225Q1104 145 1114 121T1147 84Q1162 76 1224 76H1328Q1448 76 1495 89T1594 148Q1669 216 1723 340H1763L1655 0H1170Q1029 0 999 -1Q987 -1 832 -10Q724 -16 687 -16Q518 -16 379 69T157 319T75 676Q75 934 216 1131Q385 1368 709 1368Q732 1368 903 1361Q1043 1356 1170 1356H1643L1655 1058H1623Q1599 1176 1580 1207Q1555 1247 1503 1269Q1470 1282 1360 1282H1104ZM912 1042Q912 1172 894 1213T840 1275Q790 1304 713 1304Q589 1304 495 1231T353 1008T305 668Q305 513 347 367T482 138T709 55Q785 55 831 80T894 152T912 340V1042Z"  />
<glyph unicode="&#x153;" glyph-name="oe" horiz-adv-x="1479" d="M863 573Q861 548 861 535Q861 441 894 339T994 187T1139 137Q1219 137 1280 188T1378 355L1411 338Q1375 145 1286 59T1071 -28Q974 -28 906 19T802 133Q740 53 661 13T484 -28Q308 -28 188 100T67 443Q67 672 190 807T490 943Q597 943 676 899T802 785Q861 870 926 907T1085 944Q1232 944 1324 845Q1416 746 1411 573H863ZM453 888Q417 888 368 862T291 771Q254 688 254 539Q254 281 356 133Q418 43 509 43Q598 43 656 117T715 378Q715 611 648 749T453 888ZM863 638H1214Q1215 708 1190 772Q1172 820 1129 848T1039 877Q972 877 921 817T863 638Z"  />
<glyph unicode="&#x160;" glyph-name="Scaron" horiz-adv-x="1139" d="M939 1387V918H902Q884 1053 838 1133T705 1260T527 1307Q423 1307 355 1244T287 1099Q287 1037 330 986Q392 911 625 786Q815 684 884 630T991 501T1029 346Q1029 192 910 81T602 -31Q543 -31 491 -22Q460 -17 363 14T239 46Q214 46 200 31T178 -31H141V434H178Q204 288 248 216T382 95T581 47Q706 47 778 113T851 269Q851 319 824 370T738 465Q699 495 525 592T278 748T166 876T128 1030Q128 1176 240 1281T525 1387Q633 1387 754 1334Q810 1309 833 1309Q859 1309 875 1324T902 1387H939ZM657 1462H473L283 1793H314L587 1581L816 1793H846L657 1462Z"  />
<glyph unicode="&#x161;" glyph-name="scaron" horiz-adv-x="797" d="M656 943V631H623Q585 778 526 831T374 884Q304 884 261 847T218 765Q218 709 250 669Q281 628 376 582L522 511Q725 412 725 250Q725 125 631 49T419 -28Q335 -28 227 2Q194 12 173 12Q150 12 137 -14H104V313H137Q165 173 244 102T421 31Q490 31 533 71T577 169Q577 238 529 285T335 404T145 534Q100 591 100 678Q100 791 177 867T378 943Q432 943 509 920Q560 905 577 905Q593 905 602 912T623 943H656ZM491 1054H307L117 1385H148L421 1173L650 1385H680L491 1054Z"  />
<glyph unicode="&#x178;" glyph-name="Ydieresis" horiz-adv-x="1479" d="M976 1356H1449V1319H1423Q1397 1319 1347 1296T1256 1230T1155 1090L828 575V235Q828 110 856 79Q894 37 976 37H1020V0H444V37H492Q578 37 614 89Q636 121 636 235V556L264 1124Q198 1224 175 1249T77 1309Q57 1319 19 1319V1356H599V1319H569Q522 1319 483 1297T443 1231Q443 1195 504 1101L787 664L1053 1082Q1113 1176 1113 1222Q1113 1250 1099 1272T1057 1306T976 1319V1356ZM936 1708Q981 1708 1012 1676T1044 1599Q1044 1554 1013 1523T936 1491Q891 1491 859 1522T827 1599Q827 1644 859 1676T936 1708ZM583 1708Q629 1708 660 1676T692 1599Q692 1554 660 1523T584 1491Q539 1491 507 1522T475 1599Q475 1644 506 1676T583 1708Z"  />
<glyph unicode="&#x17D;" glyph-name="Zcaron" horiz-adv-x="1251" d="M1178 1356L287 82H843Q971 82 1039 138T1161 365L1194 359L1130 0H26V37L896 1275H462Q354 1275 306 1252T232 1184T185 1017H147L175 1356H1178ZM734 1462H550L360 1793H391L664 1581L893 1793H923L734 1462Z"  />
<glyph unicode="&#x17E;" glyph-name="zcaron" horiz-adv-x="909" d="M860 281L849 0H41V36L649 846H349Q252 846 222 834T173 786Q146 736 142 662H102L108 916H876V879L262 67H596Q701 67 738 84T799 146Q815 178 826 281H860ZM563 1054H379L189 1385H220L493 1173L722 1385H752L563 1054Z"  />
<glyph unicode="&#x192;" glyph-name="florin" horiz-adv-x="1024" d="M687 875H865L848 809H674Q622 540 502 101Q408 -240 297 -348Q213 -431 124 -431Q68 -431 35 -401T2 -326Q2 -287 25 -262T79 -237Q105 -237 124 -255T144 -293Q144 -315 130 -331Q120 -343 120 -350Q120 -358 127 -364T145 -371Q165 -371 182 -361Q212 -344 241 -297T301 -120Q307 -98 387 295Q394 330 510 809H333L348 875Q447 882 472 890T515 922Q541 956 575 1056Q648 1268 715 1328Q781 1387 862 1387Q924 1387 961 1354T999 1275Q999 1240 979 1219T931 1198Q905 1198 887 1215T868 1254Q868 1270 879 1288T890 1315Q890 1326 881 1334Q872 1341 855 1341Q823 1341 797 1317Q762 1284 751 1233Q724 1112 687 875Z"  />
<glyph unicode="&#x2C6;" glyph-name="circumflex" horiz-adv-x="682" d="M249 1385H433L623 1054H592L319 1267L90 1054H60L249 1385Z"  />
<glyph unicode="&#x2C7;" glyph-name="caron" horiz-adv-x="682" d="M434 1054H250L60 1385H91L364 1173L593 1385H623L434 1054Z"  />
<glyph unicode="&#x2C9;" glyph-name="uni02C9" horiz-adv-x="682" d="M23 1353H661V1225H23V1353Z"  />
<glyph unicode="&#x2D8;" glyph-name="breve" horiz-adv-x="682" d="M55 1358H86Q119 1297 162 1272Q234 1229 343 1229Q452 1229 523 1271Q574 1300 594 1358H627Q618 1234 536 1156T341 1078Q230 1078 148 1155T55 1358Z"  />
<glyph unicode="&#x2D9;" glyph-name="dotaccent" horiz-adv-x="682" d="M342 1337Q387 1337 419 1305T451 1228Q451 1183 419 1151T342 1119Q297 1119 265 1151T233 1228Q233 1273 264 1305T342 1337Z"  />
<glyph unicode="&#x2DA;" glyph-name="ring" horiz-adv-x="682" d="M341 1424Q421 1424 477 1368T533 1233Q533 1153 477 1097T341 1041Q262 1041 206 1097T150 1233Q150 1312 205 1368T341 1424ZM341 1355Q290 1355 255 1320T219 1233Q219 1183 254 1147T341 1111Q392 1111 427 1147T463 1233Q463 1284 428 1319T341 1355Z"  />
<glyph unicode="&#x2DB;" glyph-name="ogonek" horiz-adv-x="682" d="M228 16H280Q254 -36 254 -83Q254 -167 306 -215Q375 -278 468 -278Q525 -278 587 -255L608 -287Q520 -336 476 -349T377 -363Q268 -363 208 -309T148 -179Q148 -126 169 -73T228 16Z"  />
<glyph unicode="&#x2DC;" glyph-name="tilde" horiz-adv-x="682" d="M54 1097H22Q26 1234 79 1295T210 1356Q251 1356 285 1343Q330 1326 412 1272T535 1217Q567 1217 591 1244T630 1356H661Q662 1263 637 1209T565 1124T471 1093Q392 1093 275 1173Q212 1216 190 1225T147 1234Q106 1234 82 1198Q71 1181 54 1097Z"  />
<glyph unicode="&#x2DD;" glyph-name="hungarumlaut" horiz-adv-x="682" d="M144 1390H331L111 1044H78L144 1390ZM457 1390H644L426 1044H392L457 1390Z"  />
<glyph unicode="&#x3A9;" glyph-name="uni03A9" horiz-adv-x="1573" d="M645 290L675 0H71V334H105Q125 255 152 233T251 211H554V240Q396 287 306 358T163 549T110 794Q110 946 191 1087T427 1305T787 1382Q991 1382 1146 1306T1382 1089T1463 794Q1463 669 1410 549T1268 358T1019 240V211H1322Q1395 211 1422 233T1469 334H1503V0H898L929 290Q1052 335 1114 421Q1218 566 1218 797Q1218 1053 1103 1183T792 1313Q587 1313 486 1199Q356 1053 356 798Q356 652 396 542T509 366Q557 322 645 290Z"  />
<glyph unicode="&#x3C0;" glyph-name="pi" horiz-adv-x="1034" d="M993 916V770H761L741 466Q735 387 735 329Q735 190 767 160T846 129Q942 129 960 250H996Q963 -28 774 -28Q686 -28 633 26T579 186Q579 256 600 482L627 770H415Q394 406 365 238T300 21T203 -28Q157 -28 126 -1T94 70Q94 112 148 185Q227 291 266 405T325 770H257Q175 770 132 734T49 629H13Q42 736 88 805T182 895T355 916H993Z"  />
<glyph unicode="&#xD82;" glyph-name="uni0D82" horiz-adv-x="678" d="M587 451Q587 354 516 285T349 215Q252 215 183 284T114 451Q114 546 183 617T349 688Q445 688 516 617T587 451ZM189 451Q189 387 236 339T349 290Q419 290 465 338T512 451Q512 519 465 566T349 613Q284 613 237 566T189 451Z"  />
<glyph unicode="&#xD83;" glyph-name="uni0D83" horiz-adv-x="618" d="M502 711Q502 635 449 582T319 528Q242 528 190 581T137 711Q137 787 189 840T319 893Q394 893 448 840T502 711ZM203 711Q203 662 236 628T319 594Q366 594 401 628T436 711Q436 759 400 793T319 827Q272 827 238 794T203 711ZM502 184Q502 110 449 56T319 2Q242 2 190 55T137 184Q137 260 189 313T319 367Q395 367 448 314T502 184ZM203 184Q203 135 236 102T319 68Q366 68 401 102T436 184Q436 233 401 267T319 301Q272 301 238 267T203 184Z"  />
<glyph unicode="&#xD85;" glyph-name="uni0D85" horiz-adv-x="1160" d="M750 -498V14Q658 0 557 0Q344 0 229 95T113 342Q113 477 215 563T520 649H587Q654 649 705 643Q683 728 630 773T539 819Q510 819 486 807T428 752Q390 709 376 700T338 690Q306 690 286 715T266 768Q266 814 316 855T463 897Q566 897 648 838T760 670Q763 761 877 926H926Q924 918 921 910Q915 889 915 883Q915 858 932 834T997 771Q1079 702 1079 629Q1079 561 1028 509T903 457Q860 457 815 473V100Q959 126 1051 186L1085 129Q972 62 815 31V-498H750ZM874 805Q813 703 813 545Q843 522 889 522Q935 522 961 553T987 629Q987 675 939 728Q903 766 893 780L874 805ZM750 578Q684 584 522 584Q429 584 379 556T304 487T279 375Q279 250 364 165T625 80Q678 80 750 92V578Z"  />
<glyph unicode="&#xD86;" glyph-name="uni0D86" horiz-adv-x="1778" d="M750 -498V14Q658 0 557 0Q344 0 229 95T113 342Q113 477 215 563T520 649H587Q654 649 705 643Q683 728 630 773T539 819Q510 819 486 807T428 752Q390 709 376 700T338 690Q306 690 286 715T266 768Q266 814 316 855T463 897Q566 897 648 838T760 670Q763 761 877 926H926Q924 918 921 910Q915 889 915 883Q915 858 932 834T997 771Q1079 702 1079 629Q1079 561 1028 509T903 457Q860 457 815 473V100Q959 126 1051 186L1085 129Q972 62 815 31V-498H750ZM874 805Q813 703 813 545Q843 522 889 522Q935 522 961 553T987 629Q987 675 939 728Q903 766 893 780L874 805ZM750 578Q684 584 522 584Q429 584 379 556T304 487T279 375Q279 250 364 165T625 80Q678 80 750 92V578ZM1172 543Q1172 635 1239 700T1418 766Q1563 766 1636 675T1709 403Q1709 208 1633 104T1418 0Q1299 0 1236 63T1172 244H1238Q1238 176 1275 139T1379 102Q1461 102 1506 162T1551 410Q1551 550 1509 617T1379 684Q1322 684 1280 641T1238 543H1172Z"  />
<glyph unicode="&#xD87;" glyph-name="uni0D87" horiz-adv-x="1739" d="M750 -498V14Q658 0 557 0Q344 0 229 95T113 342Q113 477 215 563T520 649H587Q654 649 705 643Q683 728 630 773T539 819Q510 819 486 807T428 752Q390 709 376 700T338 690Q306 690 286 715T266 768Q266 814 316 855T463 897Q566 897 648 838T760 670Q763 761 877 926H926Q924 918 921 910Q915 889 915 883Q915 858 932 834T997 771Q1079 702 1079 629Q1079 561 1028 509T903 457Q860 457 815 473V100Q959 126 1051 186L1085 129Q972 62 815 31V-498H750ZM874 805Q813 703 813 545Q843 522 889 522Q935 522 961 553T987 629Q987 675 939 728Q903 766 893 780L874 805ZM750 578Q684 584 522 584Q429 584 379 556T304 487T279 375Q279 250 364 165T625 80Q678 80 750 92V578ZM1129 573V639H1547V588Q1393 313 1393 96Q1393 -43 1455 -134T1613 -225Q1657 -225 1696 -201V-266Q1622 -322 1531 -322Q1409 -322 1327 -239T1244 -12Q1244 85 1304 232T1465 573H1129Z"  />
<glyph unicode="&#xD88;" glyph-name="uni0D88" horiz-adv-x="1739" d="M750 -498V14Q658 0 557 0Q344 0 229 95T113 342Q113 477 215 563T520 649H587Q654 649 705 643Q683 728 630 773T539 819Q510 819 486 807T428 752Q390 709 376 700T338 690Q306 690 286 715T266 768Q266 814 316 855T463 897Q566 897 648 838T760 670Q763 761 877 926H926Q924 918 921 910Q915 889 915 883Q915 858 932 834T997 771Q1079 702 1079 629Q1079 561 1028 509T903 457Q860 457 815 473V100Q959 126 1051 186L1085 129Q972 62 815 31V-498H750ZM874 805Q813 703 813 545Q843 522 889 522Q935 522 961 553T987 629Q987 675 939 728Q903 766 893 780L874 805ZM750 578Q684 584 522 584Q429 584 379 556T304 487T279 375Q279 250 364 165T625 80Q678 80 750 92V578ZM1129 639H1502Q1490 591 1461 534Q1431 477 1404 420Q1446 426 1492 426Q1550 426 1608 416Q1564 334 1481 212Q1406 103 1406 31Q1406 -73 1466 -148T1623 -223Q1655 -223 1696 -207L1692 -272Q1614 -324 1524 -324Q1407 -324 1332 -249T1256 -57Q1256 -1 1280 55T1381 203Q1480 321 1500 360H1459Q1425 360 1358 349T1275 332Q1369 490 1406 573H1129V639Z"  />
<glyph unicode="&#xD89;" glyph-name="uni0D89" horiz-adv-x="1237" d="M428 35L451 96Q557 63 664 63Q844 63 946 166T1049 428Q1049 574 925 651T633 729Q457 729 328 651T199 444Q199 338 268 278T467 217Q645 217 688 315Q662 301 627 301Q564 301 523 343T481 451Q481 509 522 552T631 596Q690 596 737 545T784 424Q784 302 706 227T471 152Q296 152 205 241T113 475Q113 668 266 782T635 897Q842 897 987 784T1133 451Q1133 281 1040 163T778 6Q840 -16 875 -57T911 -147Q911 -223 835 -273T629 -324Q504 -324 436 -277T367 -152Q367 -101 393 -72T453 -43Q487 -43 511 -65T535 -121Q535 -146 526 -164Q516 -182 516 -201Q516 -258 627 -258Q689 -258 731 -225T774 -131Q774 -65 737 -33T625 0Q576 0 539 6T428 35ZM547 446Q547 412 569 390T627 367Q662 367 684 389T707 446Q707 481 685 504T627 528Q593 528 570 505T547 446Z"  />
<glyph unicode="&#xD8A;" glyph-name="uni0D8A" horiz-adv-x="1130" d="M535 0Q342 0 228 120T113 418Q113 553 185 665T385 848Q434 874 543 1011T698 1274Q728 1355 740 1374T782 1393Q823 1393 823 1343Q823 1289 736 1158T528 891Q566 897 606 897Q803 897 918 773T1034 469Q1034 266 878 133T535 0ZM197 457Q197 331 278 250T494 168Q648 168 777 266T907 530Q907 664 817 746T592 829Q443 829 320 720T197 457ZM573 1245Q573 1188 531 1144T428 1100Q365 1100 324 1143T283 1243Q283 1301 325 1346T428 1391Q490 1391 531 1348T573 1245ZM348 1243Q348 1211 373 1188T428 1165Q466 1165 487 1189T508 1247Q508 1279 483 1302T428 1325Q393 1325 371 1302T348 1243ZM1085 1057Q1085 1001 1043 956T940 911Q876 911 836 954T795 1055Q795 1114 838 1158T940 1202Q1003 1202 1044 1159T1085 1057ZM860 1055Q860 1023 885 1000T940 977Q978 977 999 1001T1020 1059Q1020 1091 995 1114T940 1137Q905 1137 883 1114T860 1055Z"  />
<glyph unicode="&#xD8B;" glyph-name="uni0D8B" horiz-adv-x="1438" d="M1335 162Q1335 -73 1177 -198T750 -324Q551 -324 400 -251T181 -58T113 180Q113 409 267 524T729 639Q952 639 1100 616Q1089 696 1030 751T897 807Q863 807 841 798T805 777T759 721Q735 688 692 688Q664 688 639 710T614 766Q614 817 672 857T825 897Q980 897 1074 794T1169 541Q933 573 793 573Q536 573 408 483T279 213Q279 13 428 -115T809 -244Q1019 -244 1144 -139T1270 162H1335Z"  />
<glyph unicode="&#xD8C;" glyph-name="uni0D8C" horiz-adv-x="2148" d="M1335 162Q1335 -73 1177 -198T750 -324Q551 -324 400 -251T181 -58T113 180Q113 409 267 524T729 639Q952 639 1100 616Q1089 696 1030 751T897 807Q863 807 841 798T805 777T759 721Q735 688 692 688Q664 688 639 710T614 766Q614 817 672 857T825 897Q980 897 1074 794T1169 541Q933 573 793 573Q536 573 408 483T279 213Q279 13 428 -115T809 -244Q1019 -244 1144 -139T1270 162H1335ZM1538 543Q1538 635 1605 700T1784 766Q1929 766 2002 675T2075 403Q2075 208 1999 104T1784 0Q1665 0 1602 63T1538 244H1604Q1604 176 1641 139T1745 102Q1827 102 1872 162T1917 410Q1917 550 1875 617T1745 684Q1712 684 1671 662Q1731 649 1766 605T1802 510Q1802 440 1747 386T1602 332Q1482 332 1409 404T1335 578Q1335 682 1426 780L1477 737Q1415 681 1415 602Q1415 544 1455 505T1567 465Q1624 465 1658 493T1692 555Q1692 605 1626 618Q1604 583 1604 543H1538Z"  />
<glyph unicode="&#xD8D;" glyph-name="uni0D8D" horiz-adv-x="1962" d="M1333 524Q1333 632 1400 701T1585 770Q1722 770 1796 679T1870 418V0H1552Q1443 0 1386 50T1329 193Q1329 284 1399 338T1714 467Q1713 557 1676 620T1538 684Q1477 684 1440 642T1399 524H1333ZM1718 401Q1590 362 1536 322T1481 229Q1481 163 1511 131T1604 98H1718V401ZM715 578Q721 737 784 817T967 897Q1038 897 1088 857T1139 752Q1139 679 1102 608Q1164 569 1201 504T1239 360Q1239 218 1147 109T911 0Q841 0 786 28T676 145Q625 71 568 36T432 0Q283 0 198 105T113 350Q113 476 190 559T393 643H549Q546 723 512 762T430 801Q397 801 374 767L343 725Q313 684 272 684Q199 684 199 760Q199 808 250 852T377 897Q494 897 555 817T621 578H430Q314 578 257 531T199 389Q199 287 261 228T444 168Q543 168 593 236T643 442H709Q709 305 759 237T911 168Q1022 168 1087 229T1153 389Q1153 483 1096 530T924 578H715ZM786 643Q1008 643 1042 633Q1051 645 1051 670Q1051 703 1019 725T942 748Q870 748 830 720T786 643Z"  />
<glyph unicode="&#xD8E;" glyph-name="uni0D8E" horiz-adv-x="2597" d="M1333 524Q1333 632 1400 701T1585 770Q1722 770 1796 679T1870 418V0H1552Q1443 0 1386 50T1329 193Q1329 284 1399 338T1714 467Q1713 557 1676 620T1538 684Q1477 684 1440 642T1399 524H1333ZM1718 401Q1590 362 1536 322T1481 229Q1481 163 1511 131T1604 98H1718V401ZM715 578Q721 737 784 817T967 897Q1038 897 1088 857T1139 752Q1139 679 1102 608Q1164 569 1201 504T1239 360Q1239 218 1147 109T911 0Q841 0 786 28T676 145Q625 71 568 36T432 0Q283 0 198 105T113 350Q113 476 190 559T393 643H549Q546 723 512 762T430 801Q397 801 374 767L343 725Q313 684 272 684Q199 684 199 760Q199 808 250 852T377 897Q494 897 555 817T621 578H430Q314 578 257 531T199 389Q199 287 261 228T444 168Q543 168 593 236T643 442H709Q709 305 759 237T911 168Q1022 168 1087 229T1153 389Q1153 483 1096 530T924 578H715ZM786 643Q1008 643 1042 633Q1051 645 1051 670Q1051 703 1019 725T942 748Q870 748 830 720T786 643ZM1968 524Q1968 632 2035 701T2220 770Q2357 770 2431 679T2505 418V0H2187Q2078 0 2021 50T1964 193Q1964 284 2034 338T2349 467Q2348 557 2311 620T2173 684Q2112 684 2075 642T2034 524H1968ZM2353 401Q2225 362 2171 322T2116 229Q2116 163 2146 131T2238 98H2353V401Z"  />
<glyph unicode="&#xD8F;" glyph-name="uni0D8F" horiz-adv-x="1524" d="M723 584H508Q422 584 359 527T296 385Q296 263 415 216T762 168Q994 168 1111 215T1228 385Q1228 468 1166 526T1018 584H801Q801 727 873 812T1063 897Q1194 897 1302 784T1411 489Q1411 250 1246 125T762 0Q444 0 279 126T113 489Q113 671 221 784T461 897Q578 897 650 813T723 584ZM1001 649Q1140 649 1226 571T1312 375Q1312 316 1292 268Q1346 362 1346 483Q1346 587 1310 661T1202 778V764Q1202 726 1177 706T1120 686Q1088 686 1071 702T1040 739Q1010 786 973 786Q942 786 911 753T870 649H1001ZM653 649Q643 715 613 750T551 786Q531 786 519 775T489 741Q464 709 448 698T408 686Q374 686 349 706T324 764V778Q251 739 215 666T178 483Q178 368 231 268Q212 312 212 375Q212 492 298 570T526 649H653Z"  />
<glyph unicode="&#xD90;" glyph-name="uni0D90" horiz-adv-x="2308" d="M723 584H508Q422 584 359 527T296 385Q296 263 415 216T762 168Q994 168 1111 215T1228 385Q1228 468 1166 526T1018 584H801Q801 727 873 812T1063 897Q1194 897 1302 784T1411 489Q1411 250 1246 125T762 0Q444 0 279 126T113 489Q113 671 221 784T461 897Q578 897 650 813T723 584ZM1001 649Q1140 649 1226 571T1312 375Q1312 316 1292 268Q1346 362 1346 483Q1346 587 1310 661T1202 778V764Q1202 726 1177 706T1120 686Q1088 686 1071 702T1040 739Q1010 786 973 786Q942 786 911 753T870 649H1001ZM653 649Q643 715 613 750T551 786Q531 786 519 775T489 741Q464 709 448 698T408 686Q374 686 349 706T324 764V778Q251 739 215 666T178 483Q178 368 231 268Q212 312 212 375Q212 492 298 570T526 649H653ZM1697 543Q1697 635 1764 700T1943 766Q2088 766 2161 675T2234 403Q2234 208 2158 104T1943 0Q1824 0 1761 63T1697 244H1763Q1763 176 1800 139T1904 102Q1986 102 2031 162T2076 410Q2076 550 2034 617T1904 684Q1871 684 1830 662Q1890 649 1925 605T1961 510Q1961 440 1906 386T1761 332Q1641 332 1568 404T1494 578Q1494 682 1585 780L1636 737Q1574 681 1574 602Q1574 544 1614 505T1726 465Q1783 465 1817 493T1851 555Q1851 605 1785 618Q1763 583 1763 543H1697Z"  />
<glyph unicode="&#xD91;" glyph-name="uni0D91" horiz-adv-x="1237" d="M979 823Q891 754 793 754Q705 754 655 804T604 932Q604 973 614 1011T672 1148Q688 1182 700 1225H741Q931 1040 1032 858T1133 528Q1133 268 991 134T578 0Q361 0 237 96T113 354Q113 493 209 578H88V643H549Q546 723 512 762T430 801Q397 801 374 767L343 725Q313 684 272 684Q199 684 199 760Q199 808 250 852T377 897Q494 897 555 817T621 578H430Q314 578 257 530T199 387Q199 268 296 218T594 168Q830 168 948 260T1067 539Q1067 604 1040 688T979 823ZM944 881Q827 1058 739 1137Q730 1117 720 1097Q678 1015 678 965Q678 909 721 867T817 825Q892 825 944 881Z"  />
<glyph unicode="&#xD92;" glyph-name="uni0D92" horiz-adv-x="1343" d="M979 823Q891 754 793 754Q705 754 655 804T604 932Q604 973 614 1011T672 1148Q688 1182 700 1225H741Q815 1153 870 1088T963 963V1395H1020Q1057 1363 1139 1319Q1217 1277 1250 1231T1284 1122Q1284 1055 1239 1009T1120 963Q1085 963 1026 981V869Q1079 776 1106 691T1133 528Q1133 268 991 134T578 0Q361 0 237 96T113 354Q113 493 209 578H88V643H549Q546 723 512 762T430 801Q397 801 374 767L343 725Q313 684 272 684Q199 684 199 760Q199 808 250 852T377 897Q494 897 555 817T621 578H430Q314 578 257 530T199 387Q199 268 296 218T594 168Q830 168 948 260T1067 539Q1067 604 1040 688T979 823ZM1026 1051Q1066 1034 1100 1034Q1142 1034 1168 1061T1194 1128Q1194 1175 1169 1211T1026 1313V1051ZM944 881Q827 1058 739 1137Q711 1081 695 1038T678 965Q678 909 721 867T817 825Q892 825 944 881Z"  />
<glyph unicode="&#xD93;" glyph-name="uni0D93" horiz-adv-x="2464" d="M1161 442Q1136 628 991 729T637 831Q462 831 328 732T193 477Q193 346 297 257T586 168Q771 168 868 233T965 412Q965 493 905 543T741 602Q776 569 776 508Q776 449 735 405T631 360Q577 360 530 398T483 502Q483 581 550 626T713 672Q864 672 954 591T1044 375Q1044 223 923 112T598 0Q373 0 243 130T113 442Q113 623 256 760T662 897Q861 897 1029 785T1229 442H1161ZM629 426Q663 426 687 449T711 506Q711 540 687 564T629 588Q595 588 572 564T549 506Q549 472 572 449T629 426ZM2206 823Q2118 754 2019 754Q1932 754 1882 805T1831 932Q1831 973 1841 1011T1899 1148Q1915 1182 1927 1225H1968Q2155 1044 2257 861T2359 528Q2359 269 2218 135T1804 0Q1587 0 1463 96T1339 354Q1339 492 1436 578H1315V643H1776Q1773 723 1738 762T1657 801Q1624 801 1601 767L1570 725Q1540 684 1499 684Q1425 684 1425 760Q1425 809 1476 853T1604 897Q1723 897 1783 817T1847 578H1657Q1541 578 1483 530T1425 387Q1425 267 1523 218T1821 168Q2057 168 2175 260T2294 539Q2294 599 2270 678T2206 823ZM2171 881Q2054 1058 1966 1137L1945 1098Q1905 1025 1905 965Q1905 909 1948 867T2044 825Q2119 825 2171 881Z"  />
<glyph unicode="&#xD94;" glyph-name="uni0D94" horiz-adv-x="1343" d="M430 0Q284 0 199 124T113 436Q113 634 186 740T350 846Q391 846 410 820T444 713Q468 588 521 545T662 502Q753 502 807 556T862 696Q862 722 850 755T817 805Q827 783 827 752Q827 689 785 648T682 606Q616 606 577 650T537 752Q537 811 578 854T682 897Q798 897 863 835T928 682Q928 570 847 503T657 436Q538 436 470 497T381 707Q377 739 371 759T344 780Q290 780 234 695T178 455Q178 337 241 253T430 168Q525 168 584 227T643 393H709Q709 290 762 229T911 168Q1037 168 1106 270T1176 535Q1176 819 1014 988T623 1157Q506 1157 397 1102T211 944L160 981Q330 1223 635 1223Q790 1223 934 1141T1160 900T1241 516Q1241 282 1154 141T911 0Q834 0 775 36T676 145Q629 72 568 36T430 0ZM682 672Q716 672 739 695T762 752Q762 786 739 808T682 831Q648 831 625 809T602 752Q602 718 625 695T682 672Z"  />
<glyph unicode="&#xD95;" glyph-name="uni0D95" horiz-adv-x="1343" d="M430 0Q284 0 199 124T113 436Q113 634 186 740T350 846Q391 846 410 820T444 713Q468 588 521 545T662 502Q753 502 807 556T862 696Q862 722 850 755T817 805Q827 783 827 752Q827 689 785 648T682 606Q616 606 577 650T537 752Q537 811 578 854T682 897Q798 897 863 835T928 682Q928 570 847 503T657 436Q538 436 470 497T381 707Q377 739 371 759T344 780Q290 780 234 695T178 455Q178 337 241 253T430 168Q525 168 584 227T643 393H709Q709 290 762 229T911 168Q1037 168 1106 261T1176 514Q1176 620 1139 695T1027 840T837 950T610 991Q458 991 256 909L223 967Q259 987 348 1018Q289 1084 289 1114Q289 1158 382 1190T590 1223Q799 1223 945 1134T1166 876T1241 514Q1241 280 1154 140T911 0Q834 0 775 36T676 145Q629 72 568 36T430 0ZM418 1036Q539 1057 600 1057Q754 1057 880 1006T1106 854Q1039 975 973 1033T809 1124T590 1157Q513 1157 437 1142T360 1112Q360 1101 379 1076T418 1036ZM682 672Q716 672 739 695T762 752Q762 786 739 808T682 831Q648 831 625 809T602 752Q602 718 625 695T682 672Z"  />
<glyph unicode="&#xD96;" glyph-name="uni0D96" horiz-adv-x="2140" d="M430 0Q284 0 199 124T113 436Q113 634 186 740T350 846Q391 846 410 820T444 713Q468 588 521 545T662 502Q753 502 807 556T862 696Q862 722 850 755T817 805Q827 783 827 752Q827 689 785 648T682 606Q616 606 577 650T537 752Q537 811 578 854T682 897Q798 897 863 835T928 682Q928 570 847 503T657 436Q538 436 470 497T381 707Q377 739 371 759T344 780Q290 780 234 695T178 455Q178 337 241 253T430 168Q525 168 584 227T643 393H709Q709 290 762 229T911 168Q1037 168 1106 270T1176 535Q1176 819 1014 988T623 1157Q506 1157 397 1102T211 944L160 981Q330 1223 635 1223Q790 1223 934 1141T1160 900T1241 516Q1241 282 1154 141T911 0Q834 0 775 36T676 145Q629 72 568 36T430 0ZM682 672Q716 672 739 695T762 752Q762 786 739 808T682 831Q648 831 625 809T602 752Q602 718 625 695T682 672ZM1529 543Q1529 635 1596 700T1775 766Q1920 766 1993 675T2066 403Q2066 208 1990 104T1775 0Q1656 0 1593 63T1529 244H1595Q1595 176 1632 139T1736 102Q1818 102 1863 162T1908 410Q1908 550 1866 617T1736 684Q1703 684 1662 662Q1722 649 1757 605T1793 510Q1793 440 1738 386T1593 332Q1473 332 1400 404T1326 578Q1326 682 1417 780L1468 737Q1406 681 1406 602Q1406 544 1446 505T1558 465Q1615 465 1649 493T1683 555Q1683 605 1617 618Q1595 583 1595 543H1529Z"  />
<glyph unicode="&#xD9A;" glyph-name="uni0D9A" horiz-adv-x="1665" d="M174 27L113 49Q204 312 286 442T485 668Q477 739 447 776T379 813Q322 813 285 719Q267 670 258 655T227 627T182 614Q144 614 123 638T102 705Q102 764 164 830T324 897Q501 897 537 707Q658 802 778 849T1018 897Q1239 897 1391 760T1544 389Q1544 233 1473 117T1303 0Q1240 0 1169 59L1210 111Q1257 66 1300 66Q1361 66 1402 129T1444 295Q1444 399 1373 515T1185 704T944 778Q849 778 731 732T516 608Q564 625 635 637T752 649Q934 649 1033 547T1133 281Q1133 153 1071 77T897 0Q826 0 773 36T682 145Q646 75 587 38T465 0Q408 0 373 17T301 74Q271 106 252 106Q210 106 174 27ZM717 442Q717 315 768 242T899 168Q973 168 1014 216T1055 336Q1055 439 979 511T760 584Q615 584 414 510Q359 445 312 359T223 166Q269 184 295 184Q330 184 370 176Q409 168 451 168Q547 168 597 236T651 442H717Z"  />
<glyph unicode="&#xD9B;" glyph-name="uni0D9B" horiz-adv-x="1343" d="M866 45Q838 45 805 50Q771 55 745 55Q648 55 582 -59L532 -25Q596 77 709 174Q784 239 815 294T846 410Q846 516 772 561T535 606Q358 606 268 535T178 358Q178 305 191 256T231 162Q241 225 279 257T369 289Q427 289 470 250T514 152Q514 90 472 45T369 0Q247 0 180 117T113 389Q113 566 222 670T535 774Q725 774 822 678T920 442Q920 350 886 280T785 159Q746 130 725 109Q739 115 755 120Q931 171 1029 338T1128 682Q1128 911 971 1034T645 1157Q519 1157 402 1103T203 944L152 987Q241 1097 366 1160T639 1223Q887 1223 1064 1041T1241 561Q1241 313 1133 179T866 45ZM449 150Q449 179 428 201T369 223Q337 223 313 200T289 145Q289 107 311 87T369 66Q403 66 426 89T449 150Z"  />
<glyph unicode="&#xD9C;" glyph-name="uni0D9C" horiz-adv-x="1343" d="M748 14L764 78Q813 66 854 66Q985 66 1062 166T1139 412Q1139 574 1054 666T852 758Q765 758 698 692T582 492L591 494Q601 496 610 496Q680 496 721 439T762 299Q762 196 678 98T444 0Q300 0 207 122T113 414Q113 624 226 760T500 897Q568 897 596 889L592 823Q555 831 520 831Q378 831 295 737T211 494Q211 354 297 257T510 160Q581 160 628 202T676 322Q676 379 655 404T606 430Q552 430 530 371L481 389Q562 663 665 780T915 897Q1052 897 1145 790T1239 498Q1239 301 1135 151T854 0Q792 0 748 14Z"  />
<glyph unicode="&#xD9D;" glyph-name="uni0D9D" horiz-adv-x="1343" d="M911 0Q844 0 798 26T752 98Q752 118 774 170Q795 215 795 231Q795 270 762 293T670 317Q609 317 577 292T545 231Q545 202 569 160Q590 123 590 98Q590 52 546 26T430 0Q281 0 197 107T113 354Q113 493 209 578H88V643H549Q546 723 512 762T430 801Q397 801 374 767L343 725Q313 684 272 684Q199 684 199 760Q199 808 250 852T377 897Q494 897 555 817T621 578H430Q315 578 256 529T197 391Q197 297 252 233T412 168Q447 168 487 174Q479 200 479 227Q479 300 526 341T670 383Q749 383 804 340T860 227Q860 200 852 174Q885 168 918 168Q1022 168 1087 229T1153 395Q1153 484 1095 531T924 578H715Q721 737 784 817T967 897Q1038 897 1088 857T1139 752Q1139 679 1102 608Q1164 569 1201 504T1239 360Q1239 223 1147 112T911 0ZM786 643Q1008 643 1042 633Q1051 645 1051 670Q1051 703 1019 725T942 748Q870 748 830 720T786 643Z"  />
<glyph unicode="&#xD9E;" glyph-name="uni0D9E" horiz-adv-x="1343" d="M911 0Q834 0 775 36T676 145Q629 72 568 36T430 0Q291 0 206 106T121 358Q121 428 144 482T215 575Q152 584 116 626T80 719Q80 806 157 851T358 897Q504 897 599 823T694 666Q694 627 668 606T594 584H408Q315 584 258 528T201 397Q201 287 258 228T430 168Q524 168 583 249T643 442H709Q709 330 764 249T911 168Q1037 168 1106 270T1176 535Q1176 819 1014 988T623 1157Q506 1157 397 1102T211 944L160 981Q245 1102 363 1162T635 1223Q790 1223 934 1141T1160 900T1241 516Q1241 282 1154 141T911 0ZM600 649Q614 649 621 652T629 668Q629 722 556 776T365 831Q342 831 324 825Q369 781 369 713Q369 677 342 639Q390 649 453 649H600ZM145 721Q145 689 164 663T225 637Q256 637 279 661T303 721Q303 752 282 775T231 799Q192 799 169 774T145 721Z"  />
<glyph unicode="&#xD9F;" glyph-name="uni0D9F" horiz-adv-x="1479" d="M883 14L899 78Q948 66 989 66Q1120 66 1197 166T1274 412Q1274 573 1189 665T985 758Q898 758 831 692T715 492L724 494Q734 496 743 496Q813 496 853 439T893 299Q893 196 813 98T580 0Q373 0 243 124T113 489Q113 674 203 785T420 897Q528 897 582 820T637 590Q508 590 425 536T342 387Q342 303 423 236T623 168Q700 168 754 208T809 322Q809 379 788 404T739 430Q684 430 664 371L614 389Q695 662 798 779T1049 897Q1185 897 1279 789T1374 498Q1374 301 1270 151T989 0Q929 0 883 14ZM569 649Q567 711 549 755T510 799Q487 799 462 752Q426 686 379 686Q342 686 323 708T303 762Q303 779 307 793Q242 749 210 672T178 483Q178 396 208 307T291 168Q250 254 250 348Q250 477 335 559T569 649Z"  />
<glyph unicode="&#xDA0;" glyph-name="uni0DA0" horiz-adv-x="1237" d="M430 578Q314 578 257 530T199 387Q199 268 296 218T594 168Q826 168 947 279T1069 584Q1069 752 1003 881T820 1082T584 1153Q466 1153 361 1096T180 932L125 967Q203 1087 324 1153T580 1219Q815 1219 975 1036T1135 580Q1135 299 976 150T578 0Q361 0 237 96T113 354Q113 493 209 578H88V643H549Q546 723 512 762T430 801Q397 801 374 767L343 725Q313 684 272 684Q199 684 199 760Q199 808 250 852T377 897Q494 897 555 817T621 578H430Z"  />
<glyph unicode="&#xDA1;" glyph-name="uni0DA1" horiz-adv-x="1237" d="M604 0Q364 0 239 99T113 356Q113 482 211 565T492 649H514Q508 720 483 759T424 799Q393 799 374 784T332 727Q311 684 291 670T244 655Q209 655 189 679T168 739Q168 800 223 848T360 897Q460 897 521 818T582 586Q354 586 281 527T207 385Q207 267 306 218T604 168Q831 168 939 216T1047 379Q1047 417 1032 450T987 512Q954 447 902 408T793 369Q718 369 677 421T635 563Q635 695 723 859T933 1122T1124 1221Q1155 1221 1166 1206T1178 1176Q1178 1145 1162 1132T1114 1108Q1053 1088 1010 1066T914 997T822 898T756 791Q820 848 889 848Q945 848 983 805T1022 676Q1022 641 1012 592Q1067 555 1098 490T1130 354Q1130 189 998 95T604 0ZM711 649Q892 644 950 618Q956 638 956 657Q956 701 930 723T850 745Q800 745 762 719T711 649ZM698 584Q701 471 801 471Q836 471 871 493T924 553Q865 580 754 584H698Z"  />
<glyph unicode="&#xDA2;" glyph-name="uni0DA2" horiz-adv-x="1237" d="M616 0Q375 0 244 95T113 356Q113 482 211 565T492 649H514Q508 720 483 759T424 799Q393 799 374 784T332 727Q311 684 291 670T244 655Q209 655 189 679T168 739Q168 800 223 848T360 897Q460 897 521 818T582 586Q354 586 281 527T207 385Q207 307 241 263T365 193T616 168Q837 168 942 217T1047 379Q1047 472 965 529T745 586H657Q663 695 698 766T799 872Q836 964 971 1098T1151 1233Q1190 1233 1190 1194Q1190 1175 1171 1159T1122 1122Q935 993 889 899H905Q972 899 1019 855T1067 743Q1067 698 1041 661T967 608Q1048 573 1089 510T1130 354Q1130 189 996 95T616 0ZM854 821Q840 797 840 748Q840 709 865 688T924 666Q961 666 981 689T1001 748Q1001 782 976 808T907 834Q882 834 854 821ZM745 649Q779 649 815 645Q774 691 774 752V766Q754 732 743 703T731 649H745Z"  />
<glyph unicode="&#xDA3;" glyph-name="uni0DA3" horiz-adv-x="2308" d="M174 27L113 49Q204 312 286 442T485 668Q477 739 447 776T379 813Q322 813 285 719Q267 670 258 655T227 627T182 614Q144 614 123 638T102 705Q102 764 164 830T324 897Q501 897 537 707Q630 779 799 838T1112 897Q1291 897 1420 828T1550 666Q1550 627 1524 606T1450 584H1364Q1251 584 1192 533T1133 397Q1133 287 1190 228T1362 168Q1462 168 1535 255T1608 442H1673Q1673 333 1728 251T1876 168Q2002 168 2071 270T2140 535Q2140 819 1978 988T1587 1157Q1466 1157 1367 1109T1190 965L1139 1001Q1221 1108 1332 1165T1599 1223Q1756 1223 1900 1141T2125 899T2206 516Q2206 282 2119 141T1876 0Q1721 0 1640 145Q1598 80 1519 40T1362 0Q1279 0 1217 37T1112 150Q1083 75 1030 38T897 0Q826 0 773 36T682 145Q646 75 587 38T465 0Q408 0 373 17T301 74Q271 106 252 106Q210 106 174 27ZM516 608Q564 625 635 637T752 649Q867 649 949 608T1081 483Q1111 566 1188 607T1389 649H1456Q1485 649 1485 668Q1485 679 1456 708T1335 768T1098 799Q947 799 790 750T516 608ZM717 442Q717 315 768 242T899 168Q973 168 1014 216T1055 336Q1055 439 979 511T760 584Q615 584 414 510Q305 380 223 166Q269 184 295 184Q330 184 370 176Q409 168 451 168Q547 168 597 236T651 442H717Z"  />
<glyph unicode="&#xDA4;" glyph-name="uni0DA4" horiz-adv-x="1999" d="M1536 0Q1418 0 1319 43T1174 160Q1147 80 1093 40T956 0Q886 0 833 36T741 145Q703 73 644 37T524 0Q467 0 432 17T360 74Q330 106 305 106Q277 106 258 89T238 37H172Q141 165 127 291T113 500Q113 693 183 795T373 897Q457 897 513 839T578 692Q726 792 942 844T1511 897Q1689 897 1788 811T1888 565Q1692 584 1579 584Q1282 584 1282 379Q1282 253 1356 173T1565 92Q1752 92 1894 186L1923 129L1839 78Q1755 -81 1755 -244Q1755 -412 1937 -436L1915 -496Q1775 -496 1702 -439T1628 -289Q1628 -169 1751 37Q1718 22 1653 11T1536 0ZM573 610Q701 649 811 649Q934 649 1019 603T1151 465Q1199 568 1300 608T1577 649Q1730 649 1819 635Q1809 715 1749 761T1630 807Q1589 807 1561 772Q1516 715 1496 703T1454 690Q1422 690 1402 714T1382 768Q1382 800 1405 829Q1147 829 928 773T573 610ZM520 651Q503 784 463 784Q449 784 428 752Q403 708 381 696T332 684Q297 684 274 707T250 770Q214 730 196 664T178 506Q178 390 217 137Q241 272 322 409T520 651ZM776 442Q776 315 827 242T958 168Q1032 168 1073 216T1114 336Q1114 439 1039 511T819 584Q671 584 473 510Q355 378 283 166Q316 184 354 184Q389 184 429 176Q468 168 510 168Q607 168 657 236T711 442H776Z"  />
<glyph unicode="&#xDA5;" glyph-name="uni0DA5" horiz-adv-x="1706" d="M1247 0Q1124 0 1028 51T887 195Q840 97 764 49T580 0Q362 0 238 128T113 489Q113 674 203 785T420 897Q528 897 582 820T637 590Q508 590 425 536T342 387Q342 303 423 236T623 168Q702 168 765 208T829 322Q829 379 809 404T760 430Q708 430 688 371L629 389Q691 656 841 776T1243 897Q1421 897 1524 809T1642 565Q1458 584 1325 584Q1190 584 1102 518T1014 346Q1014 244 1103 165T1313 86Q1452 86 1608 190L1632 129Q1561 91 1546 85Q1462 -80 1462 -244Q1462 -413 1645 -436L1622 -496Q1482 -496 1409 -439T1335 -289Q1335 -166 1464 45Q1391 13 1348 7T1247 0ZM1561 635Q1552 691 1495 747T1380 803Q1322 803 1283 744Q1245 686 1198 686Q1161 686 1141 708T1120 762Q1120 795 1141 825Q1012 825 892 731T731 494L750 496Q821 503 866 446Q907 544 1015 596T1278 649Q1435 649 1561 635ZM569 649Q567 711 549 755T510 799Q487 799 462 752Q426 686 379 686Q342 686 323 708T303 762Q303 779 307 793Q242 749 210 672T178 483Q178 396 208 307T291 168Q250 254 250 348Q250 477 335 559T569 649Z"  />
<glyph unicode="&#xDA6;" glyph-name="uni0DA6" horiz-adv-x="1368" d="M739 0Q436 0 275 123T113 489Q113 671 219 784T457 897Q575 897 644 817T713 586Q485 586 412 527T338 385Q338 259 440 214T739 168Q959 168 1068 218T1178 379Q1178 472 1096 529T877 586H788Q794 697 829 768T930 872Q967 964 1102 1098T1282 1233Q1321 1233 1321 1194Q1321 1175 1302 1159T1253 1122Q1066 993 1020 899H1036Q1103 899 1150 855T1198 743Q1198 698 1172 661T1098 608Q1180 571 1221 508T1262 354Q1262 190 1126 95T739 0ZM985 821Q971 797 971 748Q971 709 996 688T1055 666Q1092 666 1112 689T1133 748Q1133 779 1109 806T1038 834Q1013 834 985 821ZM326 780Q252 740 215 666T178 483Q178 309 272 217Q244 261 244 356Q244 482 342 565T623 649H643Q637 718 612 758T555 799Q514 799 484 752Q460 716 442 701T399 686Q362 686 343 708T324 762V769Q324 774 326 780ZM877 649Q910 649 946 645Q905 691 905 752V766Q865 699 862 649H877Z"  />
<glyph unicode="&#xDA7;" glyph-name="uni0DA7" horiz-adv-x="1278" d="M662 743L633 684Q537 717 465 717Q347 717 263 648T178 471Q178 329 306 249T621 168Q854 168 981 292T1108 600Q1108 815 959 986T563 1157Q466 1157 363 1103T178 942L125 981Q207 1099 328 1161T584 1223Q733 1223 871 1143T1091 916T1174 594Q1174 413 1099 278T890 71T616 0Q385 0 249 130T113 446Q113 605 209 693T465 782Q538 782 662 743Z"  />
<glyph unicode="&#xDA8;" glyph-name="uni0DA8" horiz-adv-x="1343" d="M911 0Q757 0 676 145Q583 0 430 0Q293 0 203 106T113 383Q113 561 224 677T516 799V733Q385 733 286 643T186 412Q186 313 249 241T430 168Q536 168 589 236T643 442H709Q709 305 759 237T911 168Q1038 168 1106 261T1174 532Q1174 600 1147 685T1087 823Q999 754 901 754Q814 754 764 805T713 932Q713 973 723 1011T781 1148Q797 1182 809 1225H850Q1053 1029 1147 849T1241 477Q1241 271 1155 136T911 0ZM1053 881Q936 1058 848 1137L827 1098Q786 1023 786 965Q786 909 829 867T926 825Q1001 825 1053 881Z"  />
<glyph unicode="&#xDA9;" glyph-name="uni0DA9" horiz-adv-x="1343" d="M676 145Q625 71 568 36T432 0Q283 0 198 105T113 350Q113 493 209 578H88V643H549Q546 723 512 762T430 801Q397 801 374 767L343 725Q313 684 272 684Q199 684 199 760Q199 808 250 852T377 897Q494 897 555 817T621 578H430Q314 578 257 531T199 389Q199 287 261 228T444 168Q543 168 593 236T643 442H709Q709 305 759 237T911 168Q1037 168 1106 270T1176 535Q1176 819 1014 988T623 1157Q502 1157 394 1100T211 944L158 983Q249 1103 368 1163T635 1223Q790 1223 935 1141T1160 898T1241 514Q1241 285 1155 143T911 0Q841 0 786 28T676 145Z"  />
<glyph unicode="&#xDAA;" glyph-name="uni0DAA" horiz-adv-x="1343" d="M1241 494Q1241 268 1155 134T911 0Q841 0 786 28T676 145Q625 71 568 36T432 0Q283 0 198 105T113 350Q113 493 209 578H88V643H549Q546 723 512 762T430 801Q397 801 374 767L343 725Q313 684 272 684Q199 684 199 760Q199 808 250 852T377 897Q494 897 555 817T621 578H430Q314 578 257 531T199 389Q199 287 261 228T444 168Q543 168 593 236T643 442H709Q709 305 759 237T911 168Q1038 168 1107 258T1176 498Q1176 585 1149 677T1087 823Q999 754 901 754Q814 754 764 805T713 932Q713 973 723 1011T781 1148Q797 1182 809 1225H850Q1045 1037 1143 854T1241 494ZM1053 881Q936 1058 848 1137L827 1098Q786 1023 786 965Q786 909 829 867T926 825Q1001 825 1053 881Z"  />
<glyph unicode="&#xDAB;" glyph-name="uni0DAB" horiz-adv-x="2044" d="M1688 0Q1621 0 1561 35T1475 135Q1424 92 1360 92Q1304 92 1257 132T1192 252Q1138 131 1033 66T797 0Q712 0 647 27T537 93T430 216Q360 309 321 344T250 379Q207 379 137 319L102 371Q212 473 389 573Q385 583 385 604Q385 735 493 816T782 897Q884 897 997 850Q1039 868 1085 886Q1130 904 1167 920Q1368 1001 1523 1052T1718 1104Q1780 1104 1780 1063Q1780 1039 1745 1022T1599 973Q1315 893 1081 805Q1148 754 1187 680T1237 510Q1289 580 1368 580Q1446 580 1501 508Q1530 548 1585 574T1698 600Q1800 600 1871 517T1942 285Q1942 150 1872 75T1688 0ZM453 604Q504 632 620 685T918 815Q840 831 780 831Q640 831 549 770T453 604ZM1006 776L778 684Q829 672 858 633T887 545Q887 471 820 410T651 348Q569 348 509 387T408 504L297 438Q328 427 360 400Q427 342 503 283T657 196T811 168Q951 168 1049 265T1147 508Q1147 585 1109 662T1006 776ZM672 551Q672 519 694 498T748 477Q778 477 799 498T821 551Q821 583 800 605T748 627Q716 627 694 605T672 551ZM625 618Q572 593 542 577L465 535Q479 481 529 448T645 414Q674 414 698 420Q654 435 630 473T606 549Q606 590 625 618ZM1538 420Q1544 377 1544 334Q1544 259 1524 209Q1531 152 1565 122T1651 92Q1716 92 1754 145T1792 301Q1792 409 1760 463T1663 518Q1626 518 1586 491T1538 420ZM1364 514Q1316 514 1282 460T1247 326Q1247 252 1277 205T1360 158Q1411 158 1445 206T1479 342Q1479 423 1448 468T1364 514Z"  />
<glyph unicode="&#xDAC;" glyph-name="uni0DAC" horiz-adv-x="1343" d="M735 145Q690 76 622 38T487 0Q314 0 214 133T113 479Q113 676 217 786T459 897Q576 897 663 807T750 578H551Q436 578 373 526T309 387Q309 289 360 229T502 168Q609 168 655 239T702 430H768Q768 327 802 266T881 186T954 168Q1063 168 1119 264T1176 535Q1176 802 1023 979T621 1157Q506 1157 395 1101T211 944L160 981Q236 1097 360 1160T633 1223Q887 1223 1064 1040T1241 516Q1241 269 1157 135T944 0Q881 0 826 38T735 145ZM678 643Q670 698 635 744T565 791Q534 791 517 776T487 741Q473 720 457 703T412 686Q374 686 355 708T336 764Q336 774 340 786Q243 746 207 643H678ZM186 578Q178 554 178 492Q178 335 242 215Q225 280 225 352Q225 506 330 578H186Z"  />
<glyph unicode="&#xDAD;" glyph-name="uni0DAD" horiz-adv-x="1450" d="M186 29L125 51Q177 263 257 425T446 700Q444 744 415 775T346 807Q321 807 308 790T283 723Q267 655 249 632T186 608Q150 608 127 635T104 698Q104 763 157 830T301 897Q450 897 500 748Q600 822 691 859T864 897Q1060 897 1194 760T1329 389Q1329 234 1258 117T1087 0Q1025 0 954 59L995 111Q1042 66 1085 66Q1146 66 1187 129T1229 295Q1229 477 1109 627T807 778Q709 778 631 743T465 625Q547 649 610 649Q770 649 870 553T971 322Q971 178 850 89T569 0Q440 0 338 70Q293 102 264 102Q217 102 186 29ZM379 512Q343 461 295 351T223 156Q269 176 324 176Q362 176 420 173Q495 168 532 168Q727 168 809 218T891 360Q891 442 812 513T610 584Q476 584 379 512Z"  />
<glyph unicode="&#xDAE;" glyph-name="uni0DAE" horiz-adv-x="1343" d="M1081 823Q993 754 895 754Q808 754 758 805T707 932Q707 973 717 1011T775 1148Q791 1182 803 1225H844Q1031 1043 1136 858T1241 524Q1241 357 1154 237T922 59T655 0Q412 0 263 150T113 498Q113 653 214 767T485 881Q546 881 621 854L604 793Q546 815 485 815Q361 815 270 731T178 514Q178 359 318 264T651 168Q885 168 1030 271T1176 545Q1176 608 1148 686T1081 823ZM1049 881Q932 1058 844 1137L823 1098Q782 1023 782 965Q782 909 825 867T922 825Q994 825 1049 881Z"  />
<glyph unicode="&#xDAF;" glyph-name="uni0DAF" horiz-adv-x="883" d="M461 0Q311 0 212 97T113 338Q113 471 200 560T512 649Q617 649 702 635Q693 715 653 761T575 807Q534 807 506 772Q461 715 441 703T399 690Q368 690 348 713T328 768Q328 813 374 855T500 897Q619 897 695 809T772 565Q583 584 506 584Q383 584 329 527T274 379Q274 267 344 180T530 92Q637 92 778 186L807 129L723 78Q639 -81 639 -244Q639 -412 821 -436L799 -496Q659 -496 586 -439T512 -289Q512 -169 635 37Q552 0 461 0Z"  />
<glyph unicode="&#xDB0;" glyph-name="uni0DB0" horiz-adv-x="1343" d="M676 145Q629 72 568 36T430 0Q293 0 203 106T113 383Q113 561 224 677T516 799V733Q385 733 286 643T186 412Q186 313 249 241T430 168Q536 168 589 236T643 442H709Q709 305 759 237T911 168Q1037 168 1106 270T1176 535Q1176 819 1014 988T623 1157Q506 1157 397 1102T211 944L160 981Q330 1223 635 1223Q790 1223 934 1141T1160 900T1241 516Q1241 282 1154 141T911 0Q834 0 775 36T676 145Z"  />
<glyph unicode="&#xDB1;" glyph-name="uni0DB1" horiz-adv-x="1665" d="M549 633Q596 649 657 649Q789 649 886 566T983 344Q983 176 846 88T522 0Q349 0 226 58T43 229L82 256Q120 213 147 213Q172 213 203 256T285 383Q396 572 465 643Q459 727 426 770T354 813Q297 813 260 719Q242 668 234 655T204 628T158 614Q120 614 99 638T78 705Q78 764 140 830T299 897Q470 897 512 690Q630 793 756 845T1018 897Q1243 897 1393 760T1544 389Q1544 233 1473 117T1303 0Q1240 0 1169 59L1210 111Q1257 66 1300 66Q1361 66 1402 129T1444 295Q1444 399 1373 515T1185 704T944 778Q845 778 740 741T549 633ZM469 547Q426 504 342 350Q270 220 236 195Q329 168 487 168Q674 168 747 187T860 249T899 367Q899 453 830 518T653 584Q613 584 556 572T469 547Z"  />
<glyph unicode="&#xDB3;" glyph-name="uni0DB3" horiz-adv-x="1087" d="M588 0Q359 0 236 130T113 451Q113 656 253 776T625 897Q804 897 906 811T1024 565Q830 584 604 584Q469 584 398 520T326 356Q326 250 420 168T653 86Q837 86 989 190L1014 129L928 84Q844 -80 844 -244Q844 -412 1026 -436L1004 -496Q864 -496 791 -439T717 -289Q717 -160 846 45Q730 0 588 0ZM944 635Q927 705 874 754T762 803Q707 803 662 741Q646 720 628 703T580 686Q542 686 522 708T502 762Q502 793 522 825Q357 801 268 700T178 446V426Q178 417 180 406Q204 522 310 585T598 649Q818 649 944 635Z"  />
<glyph unicode="&#xDB4;" glyph-name="uni0DB4" horiz-adv-x="1237" d="M616 0Q377 0 245 96T113 356Q113 482 211 565T492 649H514Q508 720 483 759T424 799Q393 799 374 784T332 727Q311 684 291 670T244 655Q209 655 189 679T168 739Q168 800 223 848T360 897Q460 897 521 818T582 586Q354 586 281 527T207 385Q207 258 310 213T614 168Q837 168 943 219T1049 379Q1049 472 967 529T748 586H659Q666 725 729 811T889 897Q962 897 1011 852T1061 729Q1061 662 1016 584Q1074 548 1103 491T1133 354Q1133 191 996 96T616 0ZM731 649H748Q868 649 956 614Q973 647 973 668Q973 701 942 723T860 745Q803 745 774 723T731 649Z"  />
<glyph unicode="&#xDB5;" glyph-name="uni0DB5" horiz-adv-x="1237" d="M578 0Q359 0 236 98T113 356Q113 482 211 565T492 649H514Q508 720 483 759T424 799Q393 799 374 784T332 727Q311 684 291 670T244 655Q209 655 189 679T168 739Q168 800 223 848T360 897Q460 897 521 818T582 586Q354 586 281 527T207 385Q207 258 307 213T594 168Q829 168 947 260T1065 539Q1065 607 1038 691T979 823Q891 754 793 754Q705 754 655 804T604 932Q604 973 614 1011T672 1148Q688 1182 700 1225H741Q931 1040 1032 858T1133 528Q1133 268 991 134T578 0ZM944 881Q827 1058 739 1137Q678 1026 678 965Q678 909 721 867T817 825Q892 825 944 881Z"  />
<glyph unicode="&#xDB6;" glyph-name="uni0DB6" horiz-adv-x="1343" d="M846 0Q744 0 684 44T623 154Q623 194 646 220T739 279Q795 303 823 336T852 410Q852 506 771 556T535 606Q358 606 268 535T178 358Q178 305 191 256T231 162Q241 225 279 257T369 289Q427 289 470 250T514 152Q514 90 472 45T369 0Q247 0 180 117T113 389Q113 566 222 670T535 774Q720 774 823 680T926 442Q926 367 888 312T774 223Q714 196 701 184T688 154Q688 126 712 108T770 90Q866 90 997 247T1128 682Q1128 911 971 1034T645 1157Q519 1157 402 1103T203 944L152 987Q241 1097 366 1160T639 1223Q887 1223 1064 1041T1241 561Q1241 319 1139 160T846 0ZM289 145Q289 107 311 87T369 66Q403 66 426 89T449 150Q449 179 428 201T369 223Q337 223 313 200T289 145Z"  />
<glyph unicode="&#xDB7;" glyph-name="uni0DB7" horiz-adv-x="1343" d="M748 14L764 78Q813 66 854 66Q985 66 1062 166T1139 412Q1139 573 1054 665T850 758Q763 758 696 692T580 492L589 494Q599 496 608 496Q678 496 719 439T760 299Q760 195 677 98T444 0Q326 0 220 93T113 348Q113 502 236 582H90V649H420Q415 727 381 764T301 801Q268 801 245 767Q212 720 192 702T143 684Q70 684 70 760Q70 808 121 852T248 897Q362 897 425 818T489 588Q370 588 289 532T207 387Q207 303 287 236T487 168Q565 168 619 208T674 322Q674 379 653 404T604 430Q550 430 528 371L479 389Q560 663 663 780T913 897Q1051 897 1145 789T1239 498Q1239 301 1135 151T854 0Q792 0 748 14Z"  />
<glyph unicode="&#xDB8;" glyph-name="uni0DB8" horiz-adv-x="1343" d="M651 0Q403 0 258 150T113 508Q113 665 186 781T344 897Q384 897 405 881T435 837T451 741Q460 632 484 589T560 523T664 500Q753 500 809 553T866 694Q866 720 854 753T821 803Q831 781 831 750Q831 687 789 646T686 604Q620 604 581 648T541 750Q541 809 582 852T686 895Q802 895 867 833T932 680Q932 569 852 502T662 434Q597 434 542 457T449 523T399 615T383 741Q380 798 373 814T344 831Q286 831 232 737T178 530Q178 367 314 268T651 168Q873 168 1024 295T1176 608Q1176 744 1107 876T914 1083T631 1159Q527 1159 410 1103T213 944L162 989Q242 1104 374 1163T651 1223Q800 1223 938 1145T1158 922T1241 602Q1241 425 1156 288T927 75T651 0ZM686 670Q720 670 743 693T766 750Q766 784 743 806T686 829Q652 829 629 807T606 750Q606 716 629 693T686 670Z"  />
<glyph unicode="&#xDB9;" glyph-name="uni0DB9" horiz-adv-x="1343" d="M911 0Q844 0 798 26T752 98Q752 124 774 170Q795 212 795 231Q795 270 762 293T670 317Q609 317 577 292T545 231Q545 202 569 160Q590 123 590 98Q590 52 546 26T430 0Q279 0 196 129T113 436Q113 633 185 739T350 846Q413 846 433 762Q460 641 481 599T545 529T659 502Q749 502 805 555T862 696Q862 722 850 755T817 805Q827 783 827 752Q827 689 785 648T682 606Q616 606 577 650T537 752Q537 811 578 854T682 897Q798 897 863 835T928 682Q928 571 849 504T659 436Q538 436 470 499T381 707Q377 739 371 759T344 780Q286 780 232 696T178 453Q178 346 239 257T412 168Q447 168 487 174Q479 200 479 227Q479 300 526 341T670 383Q749 383 804 340T860 227Q860 200 852 174Q885 168 918 168Q1043 168 1108 273T1174 535Q1174 821 1013 989T623 1157Q506 1157 397 1102T211 944L160 981Q330 1223 635 1223Q883 1223 1061 1038T1239 541Q1239 295 1155 148T911 0ZM682 672Q716 672 739 695T762 752Q762 786 739 808T682 831Q648 831 625 809T602 752Q602 718 625 695T682 672Z"  />
<glyph unicode="&#xDBA;" glyph-name="uni0DBA" horiz-adv-x="1343" d="M676 145Q629 72 568 36T430 0Q293 0 203 106T113 383Q113 561 224 677T516 799V733Q385 733 286 643T186 412Q186 313 249 241T430 168Q536 168 589 236T643 442H709Q709 305 760 237T915 168Q1025 168 1089 229T1153 389Q1153 483 1096 530T924 578H715Q721 737 784 817T967 897Q1038 897 1088 857T1139 752Q1139 679 1102 608Q1164 569 1201 504T1239 360Q1239 217 1148 109T915 0Q836 0 777 36T676 145ZM1042 633Q1051 645 1051 670Q1051 703 1019 725T942 748Q870 748 830 720T786 643Q1008 643 1042 633Z"  />
<glyph unicode="&#xDBB;" glyph-name="uni0DBB" horiz-adv-x="1130" d="M537 0Q343 0 228 120T113 418Q113 562 199 688T554 933Q754 1022 852 1095T1004 1229Q1035 1260 1048 1262Q1079 1262 1089 1245T1100 1219Q1100 1168 960 1071T633 897Q833 880 933 759T1034 471Q1034 266 881 133T537 0ZM496 168Q646 168 776 269T907 535Q907 667 816 748T588 829Q434 829 316 716T197 455Q197 332 279 250T496 168Z"  />
<glyph unicode="&#xDBD;" glyph-name="uni0DBD" horiz-adv-x="1450" d="M764 -324Q560 -324 415 -248T191 -33T113 254Q113 529 308 713T836 897Q1058 897 1187 814T1317 600Q1317 496 1238 429T1034 362Q930 362 870 420T805 582H623V647H1147V582H870Q888 489 1038 489Q1121 489 1173 528T1225 635Q1225 715 1123 773T821 831Q594 831 432 700T270 336Q270 100 432 -72T825 -244Q1032 -244 1155 -138T1278 162H1343Q1343 -58 1199 -191T764 -324Z"  />
<glyph unicode="&#xDC0;" glyph-name="uni0DC0" horiz-adv-x="1237" d="M514 649Q508 720 483 759T424 799Q393 799 374 784T332 727Q311 684 291 670T244 655Q209 655 189 679T168 739Q168 800 223 848T360 897Q460 897 521 818T582 586Q354 586 281 527T207 385Q207 258 307 213T594 168Q826 168 947 279T1069 584Q1069 752 1003 881T820 1082T584 1153Q466 1153 361 1096T180 932L125 967Q203 1087 324 1153T580 1219Q815 1219 975 1036T1135 580Q1135 299 976 150T578 0Q359 0 236 98T113 356Q113 482 211 565T492 649H514Z"  />
<glyph unicode="&#xDC1;" glyph-name="uni0DC1" horiz-adv-x="1343" d="M811 131Q811 182 841 249T938 352T1141 389Q1141 572 1057 665T852 758Q765 758 698 692T582 492L591 494Q601 496 610 496Q680 496 721 439T762 299Q762 196 678 98T444 0Q300 0 207 122T113 414Q113 624 226 760T500 897Q568 897 596 889L592 825Q551 832 520 832Q379 832 295 738T211 494Q211 354 297 257T510 160Q581 160 628 202T676 322Q676 379 655 404T606 430Q552 430 530 371L481 389Q562 663 665 780T915 897Q1052 897 1145 790T1239 498Q1239 325 1225 226T1184 82T1119 19T997 0Q884 0 848 30T811 131ZM1149 324Q1022 313 950 244T877 109Q877 66 993 66Q1065 66 1091 78T1133 130T1149 258V324Z"  />
<glyph unicode="&#xDC2;" glyph-name="uni0DC2" horiz-adv-x="1237" d="M1014 586Q1072 552 1102 490T1133 354Q1133 191 997 96T614 0Q377 0 245 97T113 356Q113 482 211 565T492 649H514Q508 720 483 759T424 799Q393 799 374 784T332 727Q311 684 291 670T244 655Q209 655 189 679T168 739Q168 800 223 848T360 897Q460 897 521 818T582 586Q354 586 281 527T207 385Q207 258 310 213T614 168Q835 168 942 219T1049 379Q1049 423 1029 460T969 526Q920 489 848 477Q883 440 883 399Q883 330 827 295T618 260Q486 260 427 291T367 395Q367 471 435 500T625 530H663Q683 530 698 528Q711 528 727 527Q743 526 756 526Q864 526 911 557Q841 586 748 586H659Q666 725 729 811T889 897Q962 897 1011 852T1061 729Q1061 667 1014 586ZM731 649H748Q868 649 956 614Q973 647 973 668Q973 701 942 723T860 745Q803 745 774 723T731 649ZM432 397Q432 367 478 353T618 338Q717 338 767 353T817 401Q817 436 774 450T633 465Q518 465 475 450T432 397Z"  />
<glyph unicode="&#xDC3;" glyph-name="uni0DC3" horiz-adv-x="1343" d="M715 578Q721 737 784 817T967 897Q1038 897 1088 857T1139 752Q1139 679 1102 608Q1164 569 1201 504T1239 360Q1239 218 1147 109T911 0Q841 0 786 28T676 145Q625 71 568 36T432 0Q283 0 198 105T113 350Q113 493 209 578H88V643H549Q546 723 512 762T430 801Q397 801 374 767L343 725Q313 684 272 684Q199 684 199 760Q199 808 250 852T377 897Q494 897 555 817T621 578H430Q314 578 257 531T199 389Q199 287 261 228T444 168Q543 168 593 236T643 442H709Q709 305 759 237T911 168Q1022 168 1087 229T1153 389Q1153 483 1096 530T924 578H715ZM786 643Q1008 643 1042 633Q1051 645 1051 670Q1051 703 1019 725T942 748Q870 748 830 720T786 643Z"  />
<glyph unicode="&#xDC4;" glyph-name="uni0DC4" horiz-adv-x="1343" d="M748 14L764 78Q813 66 854 66Q985 66 1062 166T1139 412Q1139 573 1054 665T850 758Q764 758 697 692T581 492L590 494Q600 496 609 496Q679 496 720 439T761 299Q761 195 677 98T444 0Q326 0 220 93T113 348Q113 465 196 548T420 649Q415 717 392 758T334 799Q303 799 284 784T242 727Q221 684 201 670T154 655Q119 655 99 679T78 739Q78 800 133 848T270 897Q368 897 428 818T489 588Q370 588 289 532T207 387Q207 303 287 236T487 168Q565 168 620 208T675 322Q675 379 654 404T605 430Q551 430 529 371L480 389Q561 663 663 780T913 897Q1051 897 1145 789T1239 498Q1239 301 1135 151T854 0Q792 0 748 14Z"  />
<glyph unicode="&#xDC5;" glyph-name="uni0DC5" horiz-adv-x="1450" d="M1270 582H612Q502 582 403 541Q413 396 509 311T764 225Q892 225 969 261T1104 379L1159 342Q1084 220 987 159T770 98Q591 98 481 200T344 500Q307 460 289 415T270 317Q270 99 434 -72T825 -244Q1032 -244 1155 -138T1278 162H1343Q1343 -58 1199 -191T764 -324Q562 -324 414 -247T190 -32T113 236Q113 345 172 444T340 596Q345 735 413 816T600 897Q659 897 715 871T809 795Q845 846 900 871T1028 897Q1133 897 1201 824T1270 635V582ZM836 688H784Q771 754 718 792T600 831Q522 831 467 773T403 618Q510 647 633 647H1204Q1200 732 1153 781T1024 831Q958 831 903 791T836 688Z"  />
<glyph unicode="&#xDC6;" glyph-name="uni0DC6" horiz-adv-x="1343" d="M770 0V66Q957 66 1058 157T1159 381Q1159 483 1094 554T915 625Q812 625 759 557T702 354H641Q633 507 585 566T422 625Q311 625 248 556T184 379Q184 242 286 154T573 66V0Q353 0 233 114T113 426Q113 574 201 685T432 797Q506 797 566 757T672 637Q714 717 775 757T915 797Q1050 797 1140 687T1231 424Q1231 229 1112 115T770 0Z"  />
<glyph unicode="&#xDCA;" glyph-name="uni0DCA" horiz-adv-x="0" d="M-254 702V1395H-193Q-151 1360 -74 1319Q8 1275 40 1230T72 1122Q72 1057 27 1010T-92 963Q-129 963 -188 981V702H-254ZM-188 1051Q-150 1034 -113 1034Q-71 1034 -45 1061T-18 1128Q-18 1179 -47 1215T-152 1293Q-170 1302 -188 1313V1051Z"  />
<glyph unicode="&#xDCF;" glyph-name="uni0DCF" horiz-adv-x="618" d="M8 543Q8 635 75 700T254 766Q399 766 472 675T545 403Q545 208 469 104T254 0Q135 0 72 63T8 244H74Q74 176 111 139T215 102Q297 102 342 162T387 410Q387 550 345 617T215 684Q158 684 116 641T74 543H8Z"  />
<glyph unicode="&#xDD0;" glyph-name="uni0DD0" horiz-adv-x="618" d="M8 573V639H426V588Q272 313 272 96Q272 -43 334 -134T492 -225Q536 -225 575 -201V-266Q501 -322 410 -322Q288 -322 206 -239T123 -12Q123 85 183 232T344 573H8Z"  />
<glyph unicode="&#xDD1;" glyph-name="uni0DD1" horiz-adv-x="618" d="M8 639H381Q369 591 340 534Q310 477 283 420Q325 426 371 426Q429 426 487 416Q443 334 360 212Q285 103 285 31Q285 -73 345 -148T502 -223Q534 -223 575 -207L571 -272Q493 -324 403 -324Q286 -324 211 -249T135 -57Q135 -1 159 55T260 203Q359 321 379 360H338Q304 360 237 349T154 332Q248 490 285 573H8V639Z"  />
<glyph unicode="&#xDD2;" glyph-name="uni0DD2" horiz-adv-x="0" d="M-915 864Q-976 896 -1015 956T-1055 1079Q-1055 1220 -932 1303T-565 1386Q-320 1386 -197 1304T-74 1079Q-74 1022 -111 961T-213 864L-244 920Q-150 984 -150 1061Q-150 1144 -244 1181T-565 1219Q-788 1219 -883 1182T-979 1061Q-979 988 -911 940L-885 920L-915 864Z"  />
<glyph unicode="&#xDD3;" glyph-name="uni0DD3" horiz-adv-x="0" d="M-293 1200Q-385 1219 -602 1219Q-782 1219 -872 1180T-963 1061Q-963 989 -894 940L-868 920L-899 864Q-961 897 -999 957T-1038 1079Q-1038 1220 -914 1303T-549 1386Q-304 1386 -178 1303T-51 1092Q-51 995 -110 920T-262 844Q-328 844 -368 886T-408 989Q-408 1045 -375 1106T-293 1200ZM-219 1178Q-272 1149 -307 1096T-342 997Q-342 960 -323 935T-260 909Q-210 909 -175 957T-139 1057Q-139 1097 -158 1131T-219 1178Z"  />
<glyph unicode="&#xDD4;" glyph-name="uni0DD4" horiz-adv-x="0" d="M-180 -406V299H-96V-471H-1006Q-1094 -471 -1147 -421T-1200 -285Q-1200 -201 -1143 -145T-1004 -88Q-935 -88 -879 -124T-793 -231L-850 -258Q-908 -154 -993 -154Q-1054 -154 -1094 -191T-1135 -283Q-1135 -343 -1100 -374T-1006 -406H-180Z"  />
<glyph unicode="&#xDD6;" glyph-name="uni0DD6" horiz-adv-x="0" d="M-180 -362V299H-96V-483H-154Q-255 -358 -397 -358Q-504 -358 -593 -392L-729 -442Q-850 -487 -975 -487Q-1080 -487 -1140 -430T-1200 -287Q-1200 -210 -1145 -150T-1004 -90Q-935 -90 -879 -126T-793 -233L-850 -260Q-903 -156 -995 -156Q-1062 -156 -1098 -195T-1135 -283Q-1135 -343 -1094 -382T-993 -422Q-918 -422 -855 -401T-731 -354Q-556 -272 -434 -272Q-291 -272 -180 -362Z"  />
<glyph unicode="&#xDD8;" glyph-name="uni0DD8" horiz-adv-x="635" d="M6 524Q6 632 73 701T258 770Q395 770 469 679T543 418V0H225Q116 0 59 50T2 193Q2 284 72 338T387 467Q386 557 349 620T211 684Q150 684 113 642T72 524H6ZM391 401Q263 362 209 322T154 229Q154 163 184 131T276 98H391V401Z"  />
<glyph unicode="&#xDD9;" glyph-name="uni0DD9" horiz-adv-x="1249" d="M1161 442Q1136 628 991 729T637 831Q462 831 328 732T193 477Q193 346 297 257T586 168Q771 168 868 233T965 412Q965 493 905 543T741 602Q776 569 776 508Q776 449 735 405T631 360Q577 360 530 398T483 502Q483 581 550 626T713 672Q864 672 954 591T1044 375Q1044 223 923 112T598 0Q373 0 243 130T113 442Q113 623 256 760T662 897Q861 897 1029 785T1229 442H1161ZM629 426Q663 426 687 449T711 506Q711 540 687 564T629 588Q595 588 572 564T549 506Q549 472 572 449T629 426Z"  />
<glyph unicode="&#xDDA;" glyph-name="uni0DDA" horiz-adv-x="1700" d="M1161 442Q1136 628 991 729T637 831Q462 831 328 732T193 477Q193 346 297 257T586 168Q771 168 868 233T965 412Q965 493 905 543T741 602Q776 569 776 508Q776 449 735 405T631 360Q577 360 530 398T483 502Q483 581 550 626T713 672Q864 672 954 591T1044 375Q1044 223 923 112T598 0Q373 0 243 130T113 442Q113 623 256 760T662 897Q861 897 1029 785T1229 442H1161ZM629 426Q663 426 687 449T711 506Q711 540 687 564T629 588Q595 588 572 564T549 506Q549 472 572 449T629 426ZM1446 702V1395H1507Q1549 1360 1626 1319Q1708 1275 1740 1230T1772 1122Q1772 1057 1727 1010T1608 963Q1571 963 1512 981V702H1446ZM1512 1051Q1550 1034 1587 1034Q1629 1034 1655 1061T1682 1128Q1682 1179 1653 1215T1548 1293Q1530 1302 1512 1313V1051Z"  />
<glyph unicode="&#xDDB;" glyph-name="uni0DDB" horiz-adv-x="2486" d="M1161 442Q1136 628 991 729T637 831Q462 831 328 732T193 477Q193 346 297 257T586 168Q771 168 868 233T965 412Q965 493 905 543T741 602Q776 569 776 508Q776 449 735 405T631 360Q577 360 530 398T483 502Q483 581 550 626T713 672Q864 672 954 591T1044 375Q1044 223 923 112T598 0Q373 0 243 130T113 442Q113 623 256 760T662 897Q861 897 1029 785T1229 442H1161ZM629 426Q663 426 687 449T711 506Q711 540 687 564T629 588Q595 588 572 564T549 506Q549 472 572 449T629 426ZM2398 442Q2373 628 2228 729T1874 831Q1699 831 1565 732T1430 477Q1430 346 1534 257T1823 168Q2008 168 2105 233T2202 412Q2202 493 2142 543T1978 602Q2013 569 2013 508Q2013 449 1972 405T1868 360Q1814 360 1767 398T1720 502Q1720 581 1787 626T1950 672Q2101 672 2191 591T2281 375Q2281 223 2160 112T1835 0Q1610 0 1480 130T1350 442Q1350 623 1493 760T1898 897Q2098 897 2266 785T2466 442H2398ZM1866 426Q1900 426 1924 449T1948 506Q1948 540 1924 564T1866 588Q1832 588 1809 564T1786 506Q1786 472 1809 449T1866 426Z"  />
<glyph unicode="&#xDDC;" glyph-name="uni0DDC" horiz-adv-x="1911" d="M1161 442Q1136 628 991 729T637 831Q462 831 328 732T193 477Q193 346 297 257T586 168Q771 168 868 233T965 412Q965 493 905 543T741 602Q776 569 776 508Q776 449 735 405T631 360Q577 360 530 398T483 502Q483 581 550 626T713 672Q864 672 954 591T1044 375Q1044 223 923 112T598 0Q373 0 243 130T113 442Q113 623 256 760T662 897Q861 897 1029 785T1229 442H1161ZM629 426Q663 426 687 449T711 506Q711 540 687 564T629 588Q595 588 572 564T549 506Q549 472 572 449T629 426ZM1300 543Q1300 635 1367 700T1546 766Q1691 766 1764 675T1837 403Q1837 208 1761 104T1546 0Q1427 0 1364 63T1300 244H1366Q1366 176 1403 139T1507 102Q1589 102 1634 162T1679 410Q1679 550 1637 617T1507 684Q1450 684 1408 641T1366 543H1300Z"  />
<glyph unicode="&#xDDD;" glyph-name="uni0DDD" horiz-adv-x="2095" d="M1161 442Q1136 628 991 729T637 831Q462 831 328 732T193 477Q193 346 297 257T586 168Q771 168 868 233T965 412Q965 493 905 543T741 602Q776 569 776 508Q776 449 735 405T631 360Q577 360 530 398T483 502Q483 581 550 626T713 672Q864 672 954 591T1044 375Q1044 223 923 112T598 0Q373 0 243 130T113 442Q113 623 256 760T662 897Q861 897 1029 785T1229 442H1161ZM629 426Q663 426 687 449T711 506Q711 540 687 564T629 588Q595 588 572 564T549 506Q549 472 572 449T629 426ZM1413 543Q1413 635 1480 700T1659 766Q1783 766 1854 698V1395H1915Q1952 1363 2034 1319Q2111 1279 2145 1233T2179 1122Q2179 1055 2134 1009T2015 963Q1978 963 1919 981V600Q1950 516 1950 403Q1950 208 1874 104T1659 0Q1540 0 1477 63T1413 244H1479Q1479 176 1516 139T1620 102Q1702 102 1747 162T1792 410Q1792 550 1750 617T1620 684Q1563 684 1521 641T1479 543H1413ZM1919 1051Q1959 1034 1995 1034Q2037 1034 2063 1061T2089 1128Q2089 1181 2060 1216T1956 1293Q1938 1302 1919 1313V1051Z"  />
<glyph unicode="&#xDDE;" glyph-name="uni0DDE" horiz-adv-x="2173" d="M1161 442Q1136 628 991 729T637 831Q462 831 328 732T193 477Q193 346 297 257T586 168Q771 168 868 233T965 412Q965 493 905 543T741 602Q776 569 776 508Q776 449 735 405T631 360Q577 360 530 398T483 502Q483 581 550 626T713 672Q864 672 954 591T1044 375Q1044 223 923 112T598 0Q373 0 243 130T113 442Q113 623 256 760T662 897Q861 897 1029 785T1229 442H1161ZM629 426Q663 426 687 449T711 506Q711 540 687 564T629 588Q595 588 572 564T549 506Q549 472 572 449T629 426ZM1562 543Q1562 635 1629 700T1808 766Q1953 766 2026 675T2099 403Q2099 208 2023 104T1808 0Q1689 0 1626 63T1562 244H1628Q1628 176 1665 139T1769 102Q1851 102 1896 162T1941 410Q1941 550 1899 617T1769 684Q1736 684 1695 662Q1755 649 1790 605T1826 510Q1826 440 1771 386T1626 332Q1506 332 1433 404T1359 578Q1359 682 1450 780L1501 737Q1439 681 1439 602Q1439 544 1479 505T1591 465Q1648 465 1682 493T1716 555Q1716 605 1650 618Q1628 583 1628 543H1562Z"  />
<glyph unicode="&#xDDF;" glyph-name="uni0DDF" horiz-adv-x="831" d="M221 543Q221 635 288 700T467 766Q612 766 685 675T758 403Q758 208 682 104T467 0Q348 0 285 63T221 244H287Q287 176 324 139T428 102Q510 102 555 162T600 410Q600 550 558 617T428 684Q395 684 354 662Q414 649 449 605T485 510Q485 440 430 386T285 332Q165 332 92 404T18 578Q18 682 109 780L160 737Q98 681 98 602Q98 544 138 505T250 465Q307 465 341 493T375 555Q375 605 309 618Q287 583 287 543H221Z"  />
<glyph unicode="&#xDF2;" glyph-name="uni0DF2" horiz-adv-x="1270" d="M6 524Q6 632 73 701T258 770Q395 770 469 679T543 418V0H225Q116 0 59 50T2 193Q2 284 72 338T387 467Q386 557 349 620T211 684Q150 684 113 642T72 524H6ZM391 401Q263 362 209 322T154 229Q154 163 184 131T276 98H391V401ZM641 524Q641 632 708 701T893 770Q1030 770 1104 679T1178 418V0H860Q751 0 694 50T637 193Q637 284 707 338T1022 467Q1021 557 984 620T846 684Q785 684 748 642T707 524H641ZM1026 401Q898 362 844 322T789 229Q789 163 819 131T911 98H1026V401Z"  />
<glyph unicode="&#xDF3;" glyph-name="uni0DF3" horiz-adv-x="831" d="M221 559Q221 638 289 702T467 766Q612 766 685 675T758 403Q758 208 682 104T467 0Q360 0 294 56T227 201Q227 256 259 295T338 334Q386 334 417 301T449 221Q449 185 426 154T362 113Q384 102 430 102Q512 102 556 167T600 410Q600 550 558 617T428 684Q388 684 354 662Q410 650 442 608T475 510Q475 442 426 402T285 362Q162 362 90 421T18 578Q18 682 109 780L160 737Q98 681 98 602Q98 549 136 523T250 496Q312 496 338 516T365 561Q365 611 313 623Q287 593 287 559H221ZM293 223Q293 205 304 192T338 178Q383 178 383 221Q383 243 370 255T338 268Q318 268 306 254T293 223Z"  />
<glyph unicode="&#xDF4;" glyph-name="uni0DF4" horiz-adv-x="2564" d="M636 129Q631 183 587 319Q526 180 473 110T377 20T282 0Q208 0 162 44T116 137Q116 175 140 204T208 233Q245 233 269 211T294 152Q294 140 283 117Q271 94 271 82Q271 66 296 66Q364 66 434 169T603 532H656Q656 506 675 430T708 317Q744 381 862 667Q887 727 912 782H966Q966 722 1039 453Q1190 749 1300 897H1353Q1349 875 1349 846Q1349 752 1367 552L1373 479Q1635 818 1685 842H1734Q1705 659 1691 406Q1755 472 1930 631H1984Q1938 479 1934 283Q2000 337 2054 363T2131 389Q2135 354 2139 307Q2144 230 2167 172T2237 113Q2293 113 2293 150Q2293 173 2279 200Q2274 209 2274 221Q2274 252 2295 274T2352 297Q2395 297 2421 270T2448 193Q2448 134 2389 91T2233 47Q2138 47 2090 102T2035 279Q1923 210 1875 109H1822Q1816 174 1816 225Q1816 355 1826 446Q1666 285 1599 195H1545L1578 631Q1473 509 1322 283H1269L1228 664Q1177 581 1103 425T1019 217H966L947 299Q905 487 882 553Q765 252 689 129H636Z"  />
<glyph unicode="&#x200B;" glyph-name="uni200B" horiz-adv-x="0" />
<glyph unicode="&#x200C;" glyph-name="uni200C" horiz-adv-x="0" d="M36 1289V-275H-36V1289H36Z"  />
<glyph unicode="&#x200D;" glyph-name="uni200D" horiz-adv-x="0" d="M36 -275H-36V1114L-170 978L-219 1027L-48 1196L-219 1364L-170 1413L0 1242L170 1413L219 1364L48 1196L219 1027L170 978L36 1114V-275Z"  />
<glyph unicode="&#x2013;" glyph-name="endash" horiz-adv-x="1024" d="M1041 453H-18V526H1041V453Z"  />
<glyph unicode="&#x2014;" glyph-name="emdash" horiz-adv-x="2048" d="M2066 453H-19V527H2066V453Z"  />
<glyph unicode="&#x2018;" glyph-name="quoteleft" horiz-adv-x="682" d="M444 1387V1344Q342 1282 305 1229Q278 1190 278 1137Q278 1105 290 1090Q301 1075 316 1075Q326 1075 344 1082Q371 1091 388 1091Q428 1091 459 1061T490 986Q490 935 459 907Q416 869 359 869Q291 869 238 926T185 1067Q185 1185 273 1282Q332 1346 444 1387Z"  />
<glyph unicode="&#x2019;" glyph-name="quoteright" horiz-adv-x="682" d="M238 869V916Q341 977 378 1030Q404 1068 404 1121Q404 1152 393 1167Q381 1182 367 1182Q356 1182 338 1175Q312 1166 295 1166Q255 1166 224 1196T193 1271Q193 1321 224 1349Q266 1387 324 1387Q391 1387 444 1331T498 1190Q498 1072 409 975Q350 911 238 869Z"  />
<glyph unicode="&#x201A;" glyph-name="quotesinglbase" horiz-adv-x="682" d="M203 -341V-297Q306 -263 362 -192T419 -40Q419 -21 410 -8Q403 1 396 1Q385 1 348 -19Q330 -28 310 -28Q261 -28 232 1T203 81Q203 130 240 165T332 200Q398 200 449 143T501 -10Q501 -113 430 -201T203 -341Z"  />
<glyph unicode="&#x201C;" glyph-name="quotedblleft" horiz-adv-x="909" d="M326 1387V1346Q238 1300 200 1250T162 1141Q162 1106 172 1093Q181 1079 194 1079Q207 1079 229 1086T269 1094Q310 1094 340 1064T371 989Q371 941 334 907T242 872Q175 872 121 930T67 1073Q67 1173 133 1259T326 1387ZM803 1384V1346Q702 1288 670 1242T638 1134Q638 1106 649 1092Q660 1078 672 1078Q683 1078 705 1086T749 1094Q790 1094 820 1065T851 992Q851 943 813 907T718 871Q652 871 599 928T546 1070Q546 1175 613 1261T803 1384Z"  />
<glyph unicode="&#x201D;" glyph-name="quotedblright" horiz-adv-x="909" d="M115 871V913Q216 970 247 1016T279 1124Q279 1152 269 1166Q258 1180 245 1180Q235 1180 213 1172Q191 1164 169 1164Q127 1164 97 1194T67 1267Q67 1315 105 1351T199 1387Q265 1387 318 1330T372 1186Q372 1081 305 994T115 871ZM592 871V913Q679 958 717 1008T756 1118Q756 1153 746 1167Q736 1180 724 1180Q711 1180 689 1172Q666 1164 649 1164Q608 1164 578 1195T547 1269Q547 1317 584 1352T675 1387Q743 1387 797 1329T851 1185Q851 1085 785 999T592 871Z"  />
<glyph unicode="&#x201E;" glyph-name="quotedblbase" horiz-adv-x="909" d="M115 -316V-274Q216 -217 247 -171T279 -63Q279 -35 269 -21Q258 -7 245 -7Q235 -7 213 -15Q191 -23 169 -23Q127 -23 97 7T67 80Q67 128 105 164T199 200Q265 200 318 143T372 -1Q372 -106 305 -193T115 -316ZM592 -316V-274Q679 -229 717 -179T756 -69Q756 -34 746 -20Q736 -7 724 -7Q711 -7 689 -15Q666 -23 649 -23Q608 -23 578 8T547 82Q547 130 584 165T675 200Q743 200 797 142T851 -2Q851 -102 785 -188T592 -316Z"  />
<glyph unicode="&#x2020;" glyph-name="dagger" horiz-adv-x="1024" d="M524 -421H487Q483 15 455 281Q434 480 386 659Q437 703 459 752T487 896Q422 889 355 861Q250 817 202 817Q157 817 129 844T101 912Q101 954 130 982T204 1011Q229 1011 250 1005Q261 1002 355 961Q415 935 487 931Q486 972 480 993Q473 1024 450 1079Q396 1207 396 1273Q396 1331 429 1367T508 1403Q550 1403 583 1366T617 1273Q617 1243 609 1213Q599 1174 564 1088T524 931Q595 937 656 961Q755 1000 771 1004Q793 1010 816 1010Q864 1010 893 982T923 912Q923 872 894 844T820 816Q765 816 655 863Q607 883 586 888T524 896Q529 802 551 751T624 659Q576 476 557 296T524 -421Z"  />
<glyph unicode="&#x2021;" glyph-name="daggerdbl" horiz-adv-x="1024" d="M530 976Q538 910 556 878T624 806Q574 733 552 662T530 484Q530 384 551 316T624 170Q576 129 558 97T530 0Q569 6 586 11T658 38Q743 73 792 73Q833 73 859 48T885 -15Q885 -55 859 -81T793 -107Q752 -107 666 -70Q620 -51 592 -44Q571 -39 530 -37Q538 -98 543 -117T564 -173Q614 -283 614 -337Q614 -382 585 -412T513 -442Q471 -442 442 -411T413 -334Q413 -311 419 -285T459 -170Q483 -105 490 -37Q445 -39 420 -45T345 -73Q269 -107 232 -107Q191 -107 166 -83T141 -19Q141 22 167 47T237 73Q277 73 350 41Q399 20 426 14Q447 9 490 7Q481 68 463 99T394 170Q440 231 460 290Q491 381 491 496Q491 614 459 701Q440 755 394 806Q442 842 460 874T490 976Q449 973 432 969T345 937T227 909Q189 909 164 934T139 997Q139 1034 163 1058T226 1083Q272 1083 357 1049Q408 1028 433 1022Q451 1017 490 1014Q488 1057 482 1077Q471 1117 437 1206Q416 1259 414 1266Q410 1284 410 1311Q410 1361 439 1391T511 1422Q554 1422 581 1393T608 1307Q608 1276 603 1256T567 1166T530 1014Q574 1017 593 1021T669 1050Q745 1083 795 1083Q835 1083 860 1059T885 996Q885 957 859 932T791 907Q744 907 665 940Q614 963 594 968T530 976Z"  />
<glyph unicode="&#x2022;" glyph-name="bullet" horiz-adv-x="717" d="M363 928Q467 928 540 855T614 677Q614 573 541 500T363 426Q259 426 186 499T112 677Q112 781 185 854T363 928Z"  />
<glyph unicode="&#x2026;" glyph-name="ellipsis" horiz-adv-x="2048" d="M341 194Q388 194 420 162T452 83Q452 37 420 5T341 -28Q295 -28 263 4T230 83Q230 130 262 162T341 194ZM1024 194Q1070 194 1102 162T1135 83Q1135 37 1103 5T1024 -28Q978 -28 946 4T913 83Q913 130 945 162T1024 194ZM1707 194Q1753 194 1785 162T1818 83Q1818 37 1786 5T1707 -28Q1661 -28 1629 4T1596 83Q1596 130 1628 162T1707 194Z"  />
<glyph unicode="&#x2030;" glyph-name="perthousand" horiz-adv-x="2048" d="M1220 1387L248 -55H159L1131 1387H1220ZM353 1387Q430 1387 498 1342T604 1211T643 1021Q643 852 558 756T357 659Q283 659 214 703T105 831T65 1022Q65 1126 104 1213T210 1344T353 1387ZM349 1334Q319 1334 299 1318Q266 1289 248 1231Q226 1154 226 1017Q226 832 273 759Q306 709 355 709Q401 709 434 761Q483 839 483 1030Q483 1209 435 1282Q400 1334 349 1334ZM1029 673Q1101 673 1169 629T1276 498T1316 312Q1316 203 1277 119T1168 -10T1026 -55Q913 -55 826 42T738 308Q738 413 778 500T888 630T1029 673ZM1025 620Q994 620 971 601Q936 572 917 510T898 300Q898 120 944 49Q976 0 1024 0Q1073 0 1106 50Q1155 125 1155 303Q1155 491 1105 569Q1073 620 1025 620ZM1691 673Q1759 673 1831 630T1942 504T1981 320Q1981 199 1945 118T1838 -9T1693 -55Q1620 -55 1552 -11T1445 116T1406 301Q1406 418 1444 504T1555 631T1691 673ZM1691 620Q1641 620 1611 573Q1566 500 1566 304Q1566 121 1612 50Q1645 0 1695 0Q1725 0 1748 19Q1782 48 1801 113T1821 329Q1821 499 1774 569Q1739 620 1691 620Z"  />
<glyph unicode="&#x2039;" glyph-name="guilsinglleft" horiz-adv-x="682" d="M563 -8H506L119 464L506 934H563L319 464L563 -8Z"  />
<glyph unicode="&#x203A;" glyph-name="guilsinglright" horiz-adv-x="682" d="M115 934H173L567 462L173 -8H115L358 462L115 934Z"  />
<glyph unicode="&#x2044;" glyph-name="fraction" horiz-adv-x="342" d="M683 1384L-252 -54H-341L594 1384H683Z"  />
<glyph unicode="&#x20A8;" glyph-name="uni20A8" horiz-adv-x="2097" d="M1384 0H1022L563 634Q512 632 480 632Q467 632 452 632T421 634V240Q421 112 449 81Q487 37 563 37H616V0H35V37H86Q172 37 209 93Q230 124 230 240V1116Q230 1244 202 1275Q163 1319 86 1319H35V1356H529Q745 1356 847 1325T1021 1209T1093 1007Q1093 882 1012 790T759 660L1039 271Q1135 137 1204 93T1384 37V0ZM421 697Q440 697 454 697T477 696Q671 696 769 780T868 994Q868 1121 789 1200T578 1280Q520 1280 421 1261V697ZM1956 943V631H1923Q1885 778 1826 831T1674 884Q1604 884 1561 847T1518 765Q1518 709 1550 669Q1581 628 1676 582L1822 511Q2025 412 2025 250Q2025 125 1931 49T1719 -28Q1635 -28 1527 2Q1494 12 1473 12Q1450 12 1437 -14H1404V313H1437Q1465 173 1544 102T1721 31Q1790 31 1833 71T1877 169Q1877 238 1829 285T1635 404T1445 534Q1400 591 1400 678Q1400 791 1477 867T1678 943Q1732 943 1809 920Q1860 905 1877 905Q1893 905 1902 912T1923 943H1956Z"  />
<glyph unicode="&#x20AC;" glyph-name="Euro" horiz-adv-x="1024" d="M847 737H273Q270 695 270 654H822L799 576H272Q280 365 356 224Q445 60 596 60Q730 60 820 129Q874 170 957 285L988 265Q902 129 832 71Q717 -24 556 -24Q326 -24 200 167Q97 323 78 576H-23L0 654H74V670Q74 700 76 737H-23L0 815H84Q118 1052 246 1206Q393 1384 622 1384Q793 1384 962 1296V997H923Q897 1318 622 1318Q464 1318 372 1151Q301 1021 279 815H870L847 737Z"  />
<glyph unicode="&#x2122;" glyph-name="trademark" horiz-adv-x="2007" d="M51 1356H779L801 1155H767Q757 1227 715 1261T573 1296H498V717Q498 633 518 611T604 585V549H230V585Q295 591 312 612T330 716V1296H254Q159 1296 119 1265T64 1155H30L51 1356ZM1156 1356L1429 784L1694 1356H1973V1319Q1917 1318 1899 1308T1871 1276T1862 1184V716Q1862 631 1881 610T1973 585V549H1575V585Q1634 586 1654 597T1684 629T1694 715V1207L1387 549H1355L1047 1198V716Q1047 648 1055 628T1082 596T1140 585H1176V549H870V585Q926 585 945 595T974 626T983 716V1182Q983 1258 975 1278T946 1308T870 1319V1356H1156Z"  />
<glyph unicode="&#x2126;" glyph-name="uni2126" horiz-adv-x="1573" d="M645 290L675 0H71V334H105Q125 255 152 233T251 211H554V240Q396 287 306 358T163 549T110 794Q110 946 191 1087T427 1305T787 1382Q991 1382 1146 1306T1382 1089T1463 794Q1463 669 1410 549T1268 358T1019 240V211H1322Q1395 211 1422 233T1469 334H1503V0H898L929 290Q1052 335 1114 421Q1218 566 1218 797Q1218 1053 1103 1183T792 1313Q587 1313 486 1199Q356 1053 356 798Q356 652 396 542T509 366Q557 322 645 290Z"  />
<glyph unicode="&#x2202;" glyph-name="partialdiff" horiz-adv-x="1012" d="M925 717Q937 830 937 903Q937 1083 843 1181T591 1280Q485 1280 415 1240T290 1121H244Q321 1279 410 1350T625 1422Q715 1422 800 1373T938 1215T991 920Q991 566 837 284Q664 -31 399 -31Q243 -31 152 59T60 304Q60 421 106 533T224 724T382 848Q495 908 612 908Q694 908 760 877T870 800Q897 772 925 717ZM908 628Q869 739 792 796T621 853Q531 853 444 791T293 574T229 263Q229 149 284 88T424 26Q547 26 675 156Q838 322 908 628Z"  />
<glyph unicode="&#x2206;" glyph-name="uni2206" horiz-adv-x="1253" d="M1226 0H26L654 1387L1226 0ZM990 82L591 1049L151 82H990Z"  />
<glyph unicode="&#x220F;" glyph-name="product" horiz-adv-x="1686" d="M1240 1342H445V-249Q445 -332 482 -368T607 -404H643V-442H46V-404H81Q169 -404 206 -369T244 -249V1228Q244 1311 207 1347T81 1383H46V1420H1640V1383H1605Q1517 1383 1480 1347T1443 1228V-249Q1443 -332 1480 -368T1605 -404H1640V-442H1043V-404H1078Q1166 -404 1203 -369T1240 -249V1342Z"  />
<glyph unicode="&#x2211;" glyph-name="summation" horiz-adv-x="1460" d="M1356 -442H43V-405L712 496L43 1383V1420H1321L1348 1083H1308Q1292 1221 1231 1280T1059 1339H319L881 582L252 -265H1070Q1140 -265 1223 -238Q1280 -220 1317 -172T1380 -19L1420 -27L1356 -442Z"  />
<glyph unicode="&#x2212;" glyph-name="minus" horiz-adv-x="1155" d="M1115 640H37V722H1115V640Z"  />
<glyph unicode="&#x2219;" glyph-name="middot" horiz-adv-x="682" d="M341 808Q385 808 415 778T446 703Q446 660 415 629T341 598Q298 598 267 629T236 703Q236 747 266 777T341 808Z"  />
<glyph unicode="&#x221A;" glyph-name="radical" horiz-adv-x="1124" d="M1053 1869H1127L815 -78L319 943L121 852L87 916L388 1067L793 244L1053 1869Z"  />
<glyph unicode="&#x221E;" glyph-name="infinity" horiz-adv-x="1460" d="M653 667Q721 823 802 883T1023 944Q1184 944 1295 828T1406 527Q1406 344 1298 226T1057 107Q958 107 873 180Q817 228 720 393Q656 269 580 215T396 160Q252 160 153 263T53 529Q53 694 145 795T360 896Q446 896 512 852T653 667ZM749 464Q824 308 897 255T1061 201Q1184 201 1266 289T1349 527Q1349 674 1262 770T1067 866Q998 866 947 831T853 719Q829 674 749 464ZM624 590Q575 700 512 752T357 804Q251 804 180 730T108 530Q108 397 178 318T338 238Q433 238 506 323Q553 379 624 590Z"  />
<glyph unicode="&#x222B;" glyph-name="integral'" horiz-adv-x="561" d="M200 895L218 1476Q226 1630 268 1731Q295 1798 342 1830T435 1863Q485 1863 522 1830T560 1756Q560 1709 534 1681T468 1652Q433 1652 392 1688Q369 1708 352 1708Q335 1708 324 1694T312 1644Q312 1603 321 1499Q358 1088 358 836Q358 766 342 246Q334 -49 252 -153Q198 -220 118 -220Q66 -220 33 -186T0 -99Q0 -54 25 -27T90 0Q130 0 159 -32T208 -64Q225 -64 236 -50T247 -3Q247 39 238 117Q221 260 212 455Q200 704 200 895Z"  />
<glyph unicode="&#x2248;" glyph-name="approxequal" horiz-adv-x="1124" d="M1052 1038H1095Q1092 912 1023 839T853 765Q807 765 755 780T480 886Q324 950 259 950Q189 950 141 907T73 767H30Q34 856 63 914T149 1006T262 1040Q305 1040 351 1027Q455 997 642 917Q739 875 798 859Q828 851 865 851Q940 851 991 899T1052 1038ZM1052 547H1095Q1092 420 1023 347T853 273Q807 273 703 304L480 395Q324 458 259 458Q189 458 141 415T73 275H30Q34 364 63 422T148 515T261 549Q304 549 350 536Q455 505 642 425Q740 383 798 368Q828 360 865 360Q940 360 991 407T1052 547Z"  />
<glyph unicode="&#x2260;" glyph-name="notequal" horiz-adv-x="1124" d="M25 818H627L837 1351H917L711 818H1099V724H674L530 354H1099V261H494L283 -270H203L412 261H25V354H448L593 724H25V818Z"  />
<glyph unicode="&#x2264;" glyph-name="lessequal" horiz-adv-x="1124" d="M1098 246L25 702V785L1098 1239V1137L148 744L1098 348V246ZM24 -70H1100V-163H24V-70Z"  />
<glyph unicode="&#x2265;" glyph-name="greaterequal" horiz-adv-x="1124" d="M25 1239L1098 783V700L25 246V348L975 741L25 1137V1239ZM24 -70H1100V-163H24V-70Z"  />
<glyph unicode="&#x22C6;" glyph-name="uni22C6" horiz-adv-x="1518" d="M340 -55L495 440L90 739H598L759 1227L920 739H1428L1023 440L1178 -55L759 244L340 -55Z"  />
<glyph unicode="&#x25CA;" glyph-name="lozenge" horiz-adv-x="1012" d="M549 1422L967 709L549 0H438L47 709L438 1422H549ZM495 1325L155 709L495 94L854 709L495 1325Z"  />
<glyph unicode="&#x25CC;" glyph-name="uni25CC" horiz-adv-x="1217" d="M980 918Q980 868 932 868Q880 868 880 918Q880 968 932 968Q980 968 980 918ZM832 1016Q832 967 784 967Q732 967 732 1016Q732 1067 784 1067Q832 1067 832 1016ZM1079 770Q1079 719 1028 719Q979 719 979 770Q979 819 1030 819Q1079 819 1079 770ZM1115 596Q1115 546 1067 546Q1015 546 1015 596Q1015 646 1067 646Q1115 646 1115 596ZM658 1053Q658 1002 608 1002Q558 1002 558 1053Q558 1102 608 1102Q658 1102 658 1053ZM485 1016Q485 967 434 967Q385 967 385 1016Q385 1067 434 1067Q485 1067 485 1016ZM1079 422Q1079 373 1028 373Q979 373 979 422Q979 473 1028 473Q1079 473 1079 422ZM337 918Q337 868 287 868Q237 868 237 915Q237 968 287 968Q337 968 337 918ZM980 272Q980 223 932 223Q880 223 880 272Q880 323 932 323Q980 323 980 272ZM832 174Q832 126 784 126Q732 126 732 174Q732 226 784 226Q832 226 832 174ZM238 770Q238 719 190 719Q138 719 138 770Q138 819 188 819Q238 819 238 770ZM202 596Q203 546 154 546Q102 546 102 596Q102 646 154 646Q203 646 202 596ZM658 141Q658 90 608 90Q558 90 558 141Q558 190 608 190Q658 190 658 141ZM238 422Q238 373 188 373Q138 373 138 422Q138 473 188 473Q238 473 238 422ZM485 178Q485 126 434 126Q385 126 385 174Q385 226 434 226Q485 226 485 178ZM337 272Q337 223 287 223Q237 223 237 272Q237 323 287 323Q337 323 337 272Z"  />
<glyph unicode="&#xFB01;" glyph-name="fi" horiz-adv-x="1139" d="M367 916H750Q862 916 895 922H939V212Q939 101 965 70T1085 36V0H629V36Q727 36 755 79Q775 109 775 212V697Q775 790 765 809Q757 824 735 832T590 841H367V245Q367 137 379 105Q388 81 416 64Q460 36 492 36H534V0H34V36H70Q140 36 171 74T202 245V841H25V916H202Q202 1099 252 1201T402 1363T626 1422Q712 1422 782 1394T885 1321T919 1237Q919 1203 897 1180T843 1157Q809 1157 785 1174T704 1273Q671 1320 634 1341Q606 1356 564 1356Q513 1356 463 1315T393 1221Q367 1149 367 969V916Z"  />
<glyph unicode="&#xFB02;" glyph-name="fl" horiz-adv-x="1139" d="M777 840H366V247Q366 139 381 106T430 53T536 36V0H33V36H73Q130 36 165 68T200 240V840H23V916H200Q207 1117 249 1212T381 1365T561 1422Q663 1422 761 1348L902 1422H942V212Q942 122 952 95T991 52T1087 36V0H632V36Q698 37 733 56Q753 66 765 93T777 212V840ZM777 916V1214Q745 1177 708 1177Q662 1177 604 1261T488 1346Q454 1346 431 1326Q394 1296 378 1240Q366 1198 366 1006V916H777Z"  />

</font>
</defs>
</svg>
