{
	"asset":{
		"generator":"Khronos glTF Blender I/O v4.4.56",
		"version":"2.0"
	},
	"extensionsUsed":[
		"KHR_materials_specular"
	],
	"scene":0,
	"scenes":[
		{
			"name":"Scene",
			"nodes":[
				0
			]
		}
	],
	"nodes":[
		{
			"mesh":0,
			"name":"India_Map",
			"rotation":[
				0.7071068286895752,
				0,
				0,
				0.7071068286895752
			],
			"scale":[
				0.009999999776482582,
				0.009999999776482582,
				0.009999999776482582
			],
			"translation":[
				-1.102766513824463,
				0.9562110900878906,
				0
			]
		}
	],
	"materials":[
		{
			"doubleSided":true,
			"extensions":{
				"KHR_materials_specular":{
					"specularColorFactor":[
						2.0,
						2.0,
						2.0
					]
				}
			},
			"name":"India_Map1",
			"pbrMetallicRoughness":{
				"metallicFactor":0.5,
				"roughnessFactor":0.7487671971321106
			}
		}
	],
	"meshes":[
		{
			"name":"Mesh",
			"primitives":[
				{
					"attributes":{
						"POSITION":0,
						"NORMAL":1,
						"TEXCOORD_0":2
					},
					"indices":3,
					"material":0
				}
			]
		}
	],
	"accessors":[
		{
			"bufferView":0,
			"componentType":5126,
			"count":2286,
			"max":[
				103.91132354736328,
				4.915514945983887,
				93.27544403076172
			],
			"min":[
				-74.30836486816406,
				-4.9155120849609375,
				-101.68610382080078
			],
			"type":"VEC3"
		},
		{
			"bufferView":1,
			"componentType":5126,
			"count":2286,
			"type":"VEC3"
		},
		{
			"bufferView":2,
			"componentType":5126,
			"count":2286,
			"type":"VEC2"
		},
		{
			"bufferView":3,
			"componentType":5123,
			"count":8724,
			"type":"SCALAR"
		}
	],
	"bufferViews":[
		{
			"buffer":0,
			"byteLength":27432,
			"byteOffset":0,
			"target":34962
		},
		{
			"buffer":0,
			"byteLength":27432,
			"byteOffset":27432,
			"target":34962
		},
		{
			"buffer":0,
			"byteLength":18288,
			"byteOffset":54864,
			"target":34962
		},
		{
			"buffer":0,
			"byteLength":17448,
			"byteOffset":73152,
			"target":34963
		}
	],
	"buffers":[
		{
			"byteLength":90600,
			"uri":"India.bin"
		}
	]
}
