<svg xmlns="http://www.w3.org/2000/svg" height="100" viewBox="0 0 240 240" enable-background="new 0 0 240 240"><path d="M120 0c66.3 0 120 53.7 120 120s-53.7 120-120 120S0 186.3 0 120 53.7 0 120 0z" fill="#b80000"/><path d="M63 116.2c-1.1-3.8-2.1-7.5-3.1-11.3-1-3.8-2-7.5-3-11.3-.9 3.8-1.9 7.5-2.9 11.3-1 3.8-2 7.5-3.1 11.3h-7.6c-1.6-5.4-3.1-11-4.6-16.5-1.5-5.6-2.8-11.2-4.2-16.9h7.8c.8 4.3 1.6 8.7 2.5 13 .9 4.3 1.8 8.6 2.8 12.8 2.1-8.1 4.1-16.2 5.9-24.3h7c.9 4 1.9 8 2.9 11.9 1 4 2 7.9 3 11.9.9-4.1 1.8-8.3 2.7-12.5.9-4.2 1.7-8.5 2.4-12.7h7.7c-1.3 5.7-2.7 11.3-4.2 16.9-1.5 5.6-3 11.1-4.6 16.5H63zm33.5-34.1c2.3 0 4.7.4 6.8 1.2 2 .8 3.8 2 5.2 3.5 1.5 1.6 2.6 3.4 3.3 5.5 1.6 4.7 1.6 9.7 0 14.4-.7 2-1.9 3.9-3.3 5.5-1.5 1.5-3.3 2.7-5.2 3.5-4.4 1.6-9.3 1.6-13.7 0-2-.8-3.8-2-5.2-3.5-1.5-1.6-2.6-3.5-3.3-5.5a22.2 22.2 0 0 1 0-14.4c.7-2 1.9-3.9 3.3-5.5 1.5-1.5 3.3-2.7 5.2-3.5 2.3-.8 4.6-1.2 6.9-1.2zm0 28.5c1.7 0 3.4-.4 4.9-1.3 1.4-.9 2.5-2.3 3.1-3.8 1.4-3.9 1.4-8.2 0-12-.6-1.6-1.7-2.9-3.1-3.8-3-1.7-6.8-1.7-9.8 0-1.4.9-2.5 2.2-3.1 3.8-1.4 3.9-1.4 8.2 0 12 .6 1.6 1.7 2.9 3.1 3.8 1.5.9 3.2 1.4 4.9 1.3zm27.6-6.5v12.1H117V82.8h12.2c4.4 0 7.8.9 10.1 2.8 2.4 1.9 3.7 4.8 3.5 7.9.1 2-.5 4-1.6 5.7-1.1 1.6-2.7 2.9-4.5 3.6 1.4 2.2 2.8 4.4 4.2 6.7 1.4 2.2 2.7 4.5 4.1 6.8h-8.3c-2.2-4.1-4.6-8.2-7-12.1h-5.6zm0-5.7h4.7c1.8.1 3.5-.3 5-1.2 1.2-.9 1.8-2.3 1.7-3.8.1-1.5-.5-2.9-1.7-3.8-1.5-.9-3.3-1.3-5-1.2h-4.7v10zm24.6-15.6h7.2v27.1h15.8v6.3h-23V82.8zm27.3 0h12.7c3.1-.1 6.2.6 9 2 2.4 1.3 4.4 3.2 5.7 5.7 2.6 5.7 2.6 12.3 0 18-1.3 2.5-3.3 4.5-5.7 5.7-2.8 1.4-5.9 2.1-9.1 2H176V82.8zm12.3 27.2c3.1 0 5.5-.9 7.2-2.7 1.7-1.8 2.5-4.4 2.5-7.9 0-3.4-.8-6-2.5-7.8-1.6-1.8-4-2.7-7.2-2.7h-5.2V110h5.2zM38.6 157.9c-1.8 0-3.7-.2-5.4-.6-1.8-.4-3.5-1.1-5.2-1.9V149c3.2 2 6.9 3 10.6 3 1.7.1 3.4-.3 4.8-1.1 1.1-.6 1.7-1.8 1.7-3 0-.8-.2-1.7-.8-2.3-.6-.6-1.4-1-2.2-1.3-1-.4-2-.7-3-.9-1.7-.4-3.3-.9-4.9-1.5-1.3-.5-2.5-1.2-3.5-2-.9-.7-1.7-1.7-2.2-2.8-.5-1.2-.8-2.5-.7-3.9-.1-1.9.5-3.9 1.6-5.5 1.2-1.6 2.7-2.8 4.6-3.5 2.2-.9 4.6-1.3 7-1.2 1.8 0 3.5.2 5.2.6 1.6.4 3.2.9 4.6 1.6v6.4c-1.4-.9-3-1.5-4.6-2-1.7-.5-3.4-.7-5.2-.7-1.5-.1-3.1.3-4.4 1-1 .6-1.6 1.7-1.6 2.8 0 .8.2 1.5.7 2.1.6.6 1.3 1 2.1 1.3.9.3 2 .6 3.2 1 1.6.4 3.1.8 4.4 1.3 1.3.4 2.5 1.1 3.6 1.8 1 .7 1.9 1.7 2.4 2.8.6 1.3.9 2.8.9 4.3.1 2-.5 4-1.6 5.7-1.2 1.6-2.8 2.9-4.7 3.6-2.4.9-4.9 1.3-7.4 1.3zm17.1-34.1h23v6H62.9v7.2h14v6h-14v8.2h16.7v6H55.7v-33.4zM90.4 145v12.1h-7.1v-33.4h12.2c4.4 0 7.8.9 10.1 2.8 2.4 1.9 3.7 4.8 3.5 7.9.1 2-.5 4-1.6 5.7-1.1 1.6-2.7 2.9-4.5 3.6 1.4 2.2 2.8 4.4 4.2 6.7 1.4 2.2 2.7 4.5 4.1 6.8H103c-2.2-4.1-4.6-8.2-7-12.1l-5.6-.1zm0-5.6h4.7c1.8.1 3.5-.3 5-1.2 1.2-.9 1.8-2.3 1.7-3.8.1-1.5-.5-2.9-1.7-3.8-1.5-.9-3.3-1.3-5-1.2h-4.7v10zm52.6-15.6c-2 5.6-4.1 11.1-6.2 16.7-2.1 5.6-4.3 11.1-6.5 16.7h-7.8c-2.2-5.5-4.4-11.1-6.5-16.7-2.1-5.6-4.2-11.1-6.2-16.7h7.9c1.4 4.4 2.9 8.7 4.3 13 1.5 4.3 3 8.7 4.5 13 1.5-4.3 3-8.7 4.5-13 1.5-4.3 2.9-8.7 4.3-13h7.7zm3.1 0h7.2v33.4h-7.2v-33.4zm27.9 34.1c-2.4 0-4.9-.4-7.1-1.2-2-.7-3.9-1.9-5.4-3.4-1.5-1.6-2.7-3.4-3.4-5.5-.8-2.4-1.2-4.8-1.2-7.3 0-2.4.4-4.9 1.2-7.2 1.5-4.2 4.8-7.5 9-9 2.3-.8 4.7-1.2 7.2-1.2 1.8 0 3.5.2 5.2.6 1.6.4 3.1.9 4.6 1.7v6.6c-1.3-.9-2.7-1.5-4.2-2s-3.1-.7-4.7-.7c-2-.1-4 .4-5.8 1.3-1.6.9-2.9 2.2-3.7 3.8-.9 1.9-1.3 3.9-1.3 6-.1 2.1.4 4.2 1.2 6 .8 1.6 2 2.9 3.6 3.8 1.8.9 3.7 1.4 5.7 1.3 3.4 0 6.7-.9 9.5-2.8v6.5c-1.5.8-3.1 1.4-4.8 1.8-1.7.7-3.6.9-5.6.9zm14.4-34.1h23v6h-15.8v7.2h14v6h-14v8.2h16.7v6h-23.9v-33.4z" fill="#fff"/></svg>