<svg xmlns="http://www.w3.org/2000/svg" height="800" width="1200" viewBox="-13.455945 -16.889675 116.61819 101.33805"><defs><clipPath clipPathUnits="userSpaceOnUse" id="a"><path d="M28.346 28.346h71.765v54.047H28.346z"/></clipPath></defs><path d="M0 67.5588h89.7063V0H0z" fill="#c0311a"/><g clip-path="url(#a)" transform="matrix(1.25 0 0 -1.25 -35.4325 102.9913)" fill="#fff"><path d="M71.507 72.871h10.982V62.537H71.507zm6.919-1.438c-.048.008-.097.016-.148.024l-.06.008c-.084.012-.169.021-.254.03-.06.005-.118.009-.175.013-.105.006-.208.009-.306.009-.046 0-.071-.001-.116-.002-.082-.001-.162-.005-.244-.009-.044-.003-.089-.008-.133-.011a4.2633 4.2633 0 01-.194-.022l-.052-.007-.06-.008-.072-.011c-.032-.006-.063-.011-.095-.017a2.6343 2.6343 0 01-.128-.026 4.5553 4.5553 0 01-.724-.215 3.6637 3.6637 0 01-.329-.144 3.1665 3.1665 0 01-.253-.134 3.557 3.557 0 01-.225-.139 2.661 2.661 0 01-.123-.084c-.034-.025-.068-.05-.1-.074-.07-.055-.137-.109-.201-.165a4.3046 4.3046 0 01-.169-.158 2.5757 2.5757 0 01-.135-.141 3.811 3.811 0 01-.13-.151c-.044-.056-.09-.114-.133-.173-.032-.045-.062-.09-.092-.136-.021-.03-.041-.062-.062-.094a3.9026 3.9026 0 01-.296-.601 3.7818 3.7818 0 01-.218-.859 3.9823 3.9823 0 01-.028-.293 3.5774 3.5774 0 01-.004-.407c.004-.06.009-.12.016-.178l.004-.042c.009-.069.02-.138.033-.206.006-.027.01-.053.016-.079.013-.057.025-.112.041-.168.019-.07.039-.14.062-.208.029-.085.059-.166.091-.246.054-.126.112-.248.174-.362.038-.067.075-.133.115-.195.031-.05.062-.099.095-.146.043-.062.088-.121.131-.178.046-.06.095-.117.141-.17.059-.068.118-.129.175-.186l.031-.03c.047-.045.098-.095.157-.144.041-.034.081-.07.127-.106.041-.033.086-.067.132-.101.055-.039.114-.079.176-.12.065-.042.135-.084.208-.124a4.23 4.23 0 01.481-.231c.065-.026.133-.051.205-.075.069-.024.14-.046.215-.068.126-.036.258-.068.398-.095.113-.022.23-.04.351-.055.12-.014.243-.025.372-.032.064-.003.127-.005.192-.007h.089c.231 0 .445.008.643.025l.038.003c.079.007.155.015.229.025.113.013.222.03.323.049.066.011.128.024.189.037.094.02.185.042.27.065.064.016.125.034.183.053.071.021.139.043.204.065l.062.022c.031.011.073.027.124.046.066.026.146.057.237.096.054.023.113.049.173.077.054.024.109.052.166.08.024.011.047.023.072.035v1.409c-.015-.011-.033-.021-.049-.031l-.098-.059a6.5184 6.5184 0 00-.282-.163 5.742 5.742 0 00-.804-.363c-.307-.111-.59-.181-.839-.224-.029-.005-.058-.01-.087-.014-.068-.011-.134-.02-.197-.026a3.6373 3.6373 0 00-.272-.02 2.656 2.656 0 00-.149-.004c-.101 0-.204.003-.308.01-.123.01-.247.023-.374.043-.204.035-.409.087-.608.16-.029.01-.06.022-.087.033-.021.008-.04.016-.059.024-.033.014-.066.028-.098.043-.07.032-.138.068-.204.106-.033.019-.066.038-.099.059-.034.021-.068.043-.1.066-.042.029-.082.058-.122.089-.038.031-.077.063-.111.091l-.046.042-.023.022-.014.012-.017.018c-.063.062-.121.126-.174.189-.03.036-.057.072-.084.108-.026.034-.05.07-.073.104a2.6817 2.6817 0 00-.141.248c-.021.042-.041.084-.058.126-.03.071-.056.143-.077.211-.018.053-.032.105-.044.156-.039.147-.057.282-.068.396-.003.044-.006.085-.008.122-.004.057-.004.106-.004.145 0 .026 0 .055.001.089.004.081.01.183.028.299.01.071.024.146.042.226.014.052.028.106.045.161.016.05.034.1.053.152.014.036.028.07.044.105.02.048.043.095.068.144.018.036.039.072.06.109.047.08.098.16.159.239.021.029.043.057.067.085.029.036.06.073.094.108.016.018.033.036.051.054.257.258.548.451.849.588.046.022.094.041.142.059.047.02.094.036.143.053.051.017.105.033.157.048.049.014.099.026.149.038.049.011.1.021.149.031.054.009.109.018.162.025.055.007.11.013.162.017.103.009.204.013.303.013.032 0 .064.001.097 0 .073-.002.145-.004.214-.009.05-.003.096-.006.142-.011.09-.008.175-.018.255-.032.074-.01.143-.023.21-.035.101-.021.194-.044.276-.065.054-.014.104-.029.148-.042.069-.02.128-.038.173-.054.078-.028.121-.043.121-.043.069-.025.137-.052.204-.078.09-.036.175-.076.257-.113.068-.03.133-.062.194-.093.05-.024.097-.048.141-.071.077-.04.142-.076.196-.105l.143-.078v1.384s-.086.035-.235.092c-.066.024-.144.054-.232.085-.05.018-.101.036-.156.056-.044.014-.089.03-.136.045-.053.017-.108.035-.164.052-.04.012-.082.025-.125.037l-.037.011c-.041.011-.083.023-.125.034-.051.014-.102.027-.154.04-.033.008-.065.016-.1.024-.054.012-.109.025-.165.036-.057.012-.116.022-.174.033m-15.3579-4.2608v-2.031h1.319s.026.001.069.002c.045.001.108.004.183.011.144.013.332.039.515.101.166.056.327.139.449.263.048.047.088.096.119.146.104.163.13.329.134.423.005.04.004.064.004.064s.001.018 0 .05a.9182.9182 0 01-.027.197c-.025.096-.071.208-.154.31-.016.019-.033.038-.05.057a1.099 1.099 0 01-.12.103c-.071.053-.154.099-.244.137-.118.052-.25.09-.396.117-.075.014-.154.026-.235.034-.049.004-.1.008-.152.01-.045.003-.093.005-.14.005-.467 0-1.274.001-1.274.001m0 3.0872v-1.925h.639s.042 0 .098.001c.045.003.097.005.144.007.132.01.313.028.494.079.036.01.072.021.107.034.143.05.279.124.385.229.085.083.14.176.177.265.045.111.062.216.068.29.005.067.005.11.005.11s.001.032-.001.082c-.004.083-.021.22-.088.351a.6915.6915 0 01-.135.182c-.072.071-.159.125-.252.166-.18.08-.386.112-.56.123-.074.005-.143.006-.202.006z"/><path d="M58.854 72.871h10.982V62.537H58.854zm2.882-1.449v-7.443h2.801s1.366-.038 2.121.717c.613.613.57 1.324.57 1.324s.043.742-.525 1.31c-.484.485-1.102.614-1.102.614s.278.131.493.345c.101.101.459.424.459 1.208 0 .79-.526 1.244-.526 1.244s-.576.681-1.876.681zm-11.3212-4.2498v-2.031h1.318s.027.001.07.002c.045.001.107.004.183.011.144.013.332.039.515.101.166.056.326.139.45.263.047.047.086.096.118.146.104.163.129.329.135.423.003.04.003.064.003.064v.05c-.002.039-.007.115-.027.197a.8018.8018 0 01-.154.31.5373.5373 0 01-.052.057 1.063 1.063 0 01-.117.103c-.073.053-.156.099-.244.137-.119.052-.253.09-.398.117-.074.014-.154.026-.234.034-.05.004-.101.008-.152.01a2.126 2.126 0 01-.139.005c-.469 0-1.275.001-1.275.001m0 3.0872v-1.925h.638s.043 0 .099.001c.045.003.097.005.144.007.131.01.313.028.495.079.035.01.071.021.105.034.143.05.28.124.386.229.084.083.14.176.178.265.044.111.06.216.067.29.006.067.005.11.005.11s.002.032-.001.082c-.004.083-.022.22-.088.351-.032.063-.076.123-.135.182-.072.071-.159.125-.252.166-.18.08-.386.112-.559.123a3.037 3.037 0 01-.202.006z"/><path d="M46.201 72.871h10.982V62.537H46.201zm2.881-1.449v-7.443h2.801s1.367-.038 2.121.717c.614.613.57 1.324.57 1.324s.044.742-.524 1.31c-.485.485-1.104.614-1.104.614s.28.131.495.345c.1.101.458.424.458 1.208 0 .79-.526 1.244-.526 1.244s-.576.681-1.876.681zm1.0531-21.6548h-.258l-3.038 7.569-3.066-7.569h-.258l-3.744 9.333h1.33l2.55-6.376 2.564 6.376h1.261l2.578-6.376 2.523 6.376h1.316zm8.8063 1.1806c2.075 0 3.608 1.505 3.608 3.527 0 2.034-1.533 3.526-3.608 3.526-2.062 0-3.595-1.492-3.595-3.526 0-2.022 1.533-3.527 3.595-3.527m0 8.274c3.052 0 4.978-2.17 4.978-4.747 0-2.497-1.872-4.748-5.005-4.748-3.025 0-4.938 2.238-4.938 4.748 0 2.563 1.967 4.747 4.965 4.747m7.9625-4.1642h.855c1.424 0 1.831.732 1.818 1.506-.014.868-.53 1.397-1.818 1.397h-.855zm1.004 4.042c1.872 0 3.039-.99 3.039-2.591 0-1.071-.557-1.872-1.547-2.265.841-.556 1.356-1.411 2.062-2.564.393-.637.624-.949 1.262-1.831h-1.588l-1.221 1.899c-1.22 1.899-1.776 2.116-2.455 2.116h-.556v-4.015h-1.329v9.251zm7.1488-8.0572h4.178v-1.194h-5.508v9.252h1.33zm6.6735 0h2.116c3.011 0 3.703 2.292 3.703 3.432 0 1.858-1.18 3.432-3.771 3.432h-2.048zm-1.33 8.058h3.595c3.419 0 4.924-2.442 4.924-4.626 0-2.374-1.858-4.626-4.91-4.626h-3.609zM45.896 45.3173c-.787.746-1.546.963-2.17.963-.855 0-1.465-.447-1.465-1.099 0-1.777 4.001-1.75 4.001-4.693 0-1.452-1.098-2.51-2.591-2.51-1.003 0-1.817.272-2.591.855v1.682c.679-.868 1.533-1.343 2.442-1.343 1.031 0 1.506.651 1.506 1.166 0 1.913-4.002 2.13-4.002 4.667 0 1.506 1.112 2.469 2.808 2.469.705 0 1.411-.217 2.062-.651zm7.0671.8413h-3.92v-2.795h3.784v-1.193h-3.784v-2.876h4.042v-1.194h-5.372v9.252h5.25zm2.8894-2.8486h.855c1.424 0 1.831.732 1.817 1.505-.013.869-.529 1.398-1.817 1.398h-.855zm1.004 4.042c1.872 0 3.038-.99 3.038-2.591 0-1.071-.556-1.872-1.546-2.265.841-.557 1.356-1.411 2.062-2.564.393-.637.624-.95 1.261-1.831h-1.587L58.8635 40c-1.22 1.899-1.777 2.116-2.455 2.116h-.556v-4.015h-1.329v9.251zm8.0054-9.3327h-.272l-4.001 9.333h1.329l2.781-6.498 2.767 6.498h1.316zm6.2801.0817h-1.329v9.252h1.329zm9.9296 7.1889c-1.139.665-2.116.963-3.188.963-2.116 0-3.689-1.505-3.689-3.54 0-2.076 1.519-3.513 3.743-3.513 1.045 0 2.185.366 3.229 1.044v-1.452c-.909-.475-1.899-.813-3.35-.813-3.473 0-4.992 2.672-4.992 4.612 0 2.821 2.129 4.883 5.073 4.883.949 0 1.912-.23 3.174-.759zm6.9723.8687h-3.92v-2.795h3.784v-1.193h-3.784v-2.876h4.042v-1.194h-5.372v9.252h5.25z"/></g></svg>