<?xml version="1.0" encoding="UTF-8"?><svg xmlns="http://www.w3.org/2000/svg" width="100%" height="100%"><defs><font id="web" horiz-adv-x="1541"><!--



NOTICE: This font software is the valuable property 
of Monotype Imaging and/or its suppliers and its use 
by you is covered under the terms of the Web Font license 
agreement between you and Monotype Imaging. You may 
ONLY use this font software with the licensed web site. 
Except as specifically permitted by the license, you 
may not copy this font software. If you have any questions, 
please contact Monotype Imaging. 

For more information, please visit http://www.ascenderfonts.com/info/webfont-eula.aspx

Licensed to: bbc.co.uk

Serial number: SH-169
--><font-face font-family="" units-per-em="2048" panose-1="2 11 7 4 2 2 2 2 2 4" ascent="2048" descent="-1352" alphabetic="0"/><missing-glyph horiz-adv-x="1024" d="M128 0V2048H896V0H128ZM256 128H768V1920H256V128Z"/><glyph unicode=" " horiz-adv-x="1029"/><glyph unicode="!" horiz-adv-x="512" d="M381 0H130V246H381V0ZM364 989L334 303H178L148 989V1320H364V989Z"/><glyph unicode="&quot;" horiz-adv-x="718" d="M661 1084L619 813H458L411 1083V1320H661V1084ZM306 1084L264 813H104L57 1083V1320H306V1084Z"/><glyph unicode="#" horiz-adv-x="1026" d="M1006 786H835L788 548H937V348H747L679 0H472L540 348H358L289 0H82L150 348H20V548H191L238 786H88V985H278L346 1320H553L485 985H668L737 1320H942L874 985H1006V786ZM628 786H445L398 548H579L628 786Z"/><glyph unicode="$" horiz-adv-x="1026" d="M604 761Q706 738 770 707T872 632Q955 538 955 388Q955 314 932 246T864 124T754 32T604 -16V-147H435V-16Q346 -4 280 29T170 117T102 247T70 420H311Q319 328 350 273T435 194V576Q99 656 99 934Q99 1012 123 1075T190 1186T296 1264T435 1307V1438H604V1308Q896 1266 932 934H687Q678 1065 604 1097V761ZM435 1099Q340 1061 340 946Q340 886 365 854T435 802V1099ZM604 192Q714 230 714 378Q714 409 710 433T693 475T660 507T604 533V192Z"/><glyph unicode="%" horiz-adv-x="1640" d="M375 1342Q443 1342 501 1318T601 1247T668 1133T692 982Q692 898 669 832T603 719T503 647T375 622Q305 622 247 646T148 717T83 831T60 982Q60 1067 83 1133T149 1246T248 1317T375 1342ZM375 800Q479 800 479 982Q479 1164 375 1164Q272 1164 272 982Q272 800 375 800ZM1291 1320L572 0H360L1081 1320H1291ZM1264 699Q1333 699 1391 674T1491 602T1556 488T1580 339Q1580 255 1557 188T1491 74T1391 2T1264 -23Q1194 -23 1136 2T1037 73T972 187T949 339Q949 423 972 489T1037 602T1137 674T1264 699ZM1264 155Q1368 155 1368 339Q1368 520 1264 520Q1161 520 1161 339Q1161 155 1264 155Z"/><glyph unicode="&amp;" horiz-adv-x="1230" d="M1148 112L967 -41L862 93Q716 -23 506 -23Q414 -23 337 10T203 98T114 227T82 382Q82 526 160 623Q193 662 239 700T346 776Q289 855 262 917T235 1032Q235 1098 260 1154T332 1253T440 1318T576 1342Q645 1342 703 1319T805 1256T873 1161T898 1045Q898 996 885 954T844 874T776 800T679 729Q704 697 723 673T761 627T799 579T847 519Q855 553 860 592T867 679H1109Q1109 623 1094 515T1018 278L1148 112ZM552 888Q611 923 638 958T666 1041Q666 1063 658 1082T637 1114T605 1135T568 1143Q526 1143 497 1117T467 1048Q467 1022 484 987T533 911L552 888ZM475 612Q444 593 421 578T375 540T339 488T324 393Q324 355 337 319T375 253T434 207T508 189Q639 189 727 265L475 612Z"/><glyph unicode="'" horiz-adv-x="352" d="M301 1084L259 813H99L51 1083V1320H301V1084Z"/><glyph unicode="(" horiz-adv-x="614" d="M366 -388Q287 -286 228 -177T130 45T71 268T51 487Q51 593 71 702T130 919T229 1133T366 1342H562Q423 1119 354 901T285 487Q285 389 302 282T354 64T441 -162T562 -388H366Z"/><glyph unicode=")" horiz-adv-x="614" d="M51 -388Q120 -277 172 -163T258 63T310 282T328 487Q328 682 259 900T51 1342H247Q325 1240 384 1134T482 919T542 702T562 487Q562 380 543 269T484 45T385 -176T247 -388H51Z"/><glyph unicode="*" horiz-adv-x="936" d="M807 408H640L766 282L673 187L547 312V150H386V312L262 187L167 282L294 408H128V565H294L167 692L262 786L386 662V826H547V662L673 786L766 692L640 565H807V408Z"/><glyph unicode="+" horiz-adv-x="1077" d="M980 529H648V197H429V529H97V745H429V1077H648V745H980V529Z"/><glyph unicode="," horiz-adv-x="512" d="M381 38Q381 -25 365 -80T318 -178T239 -244T130 -269V-134Q188 -134 210 -104T233 0H130V246H381V38Z"/><glyph unicode="-" horiz-adv-x="614" d="M575 364H39V592H575V364Z"/><glyph unicode="." horiz-adv-x="512" d="M381 0H131V246H381V0Z"/><glyph unicode="/" horiz-adv-x="512" d="M553 1320L171 0H-32L350 1320H553Z"/><glyph unicode="0" horiz-adv-x="1026" d="M512 1342Q621 1342 702 1297T838 1164T920 948T948 652Q948 320 839 149T512 -23Q294 -23 186 148T77 652Q77 819 104 947T185 1164T321 1297T512 1342ZM512 176Q560 176 596 201T656 282T693 429T706 652Q706 784 694 877T657 1029T596 1115T512 1143Q465 1143 429 1116T368 1030T331 878T318 652Q318 520 330 429T368 282T429 201T512 176Z"/><glyph unicode="1" horiz-adv-x="1026" d="M728 0H491V939Q386 901 200 901V1100Q492 1100 534 1320H728V0Z"/><glyph unicode="2" horiz-adv-x="1026" d="M954 0H70Q70 171 141 278Q180 335 245 403T406 549Q491 618 549 672T643 773T694 867T710 966Q710 1050 664 1096T529 1143Q493 1143 460 1129T402 1085T359 1014T338 914H96Q104 1011 138 1090T228 1225T362 1311T532 1342Q632 1342 710 1313T842 1233T923 1113T951 963Q951 888 931 825T871 705Q833 653 758 575T574 406Q542 379 492 334T394 221H954V0Z"/><glyph unicode="3" horiz-adv-x="1026" d="M890 989Q890 954 883 918T860 847T823 782T770 728Q814 705 848 670T905 590T940 496T952 394Q952 302 918 225T825 93T685 8T511 -23Q417 -23 339 7T204 91T112 223T73 396H318Q318 351 330 311T367 241T428 194T511 176Q556 176 593 192T656 236T696 304T710 391Q710 439 696 479T653 547T583 592T486 608H386V807H462Q556 807 602 856T649 991Q649 1066 610 1104T499 1143Q350 1143 329 951H87Q98 1047 133 1120T222 1242T346 1317T496 1342Q586 1342 658 1316T782 1243T862 1132T890 989Z"/><glyph unicode="4" horiz-adv-x="1026" d="M972 290H808V0H572V290H53V477L623 1330H808V504H972V290ZM572 504V914L312 504H572Z"/><glyph unicode="5" horiz-adv-x="1026" d="M362 877Q436 912 540 912Q622 912 697 882T831 794T923 649T957 449Q957 349 925 263T833 113T690 13T502 -23Q418 -23 344 2T213 80T117 210T69 393H311Q317 338 334 297T376 229T434 189T502 176Q550 176 589 196T656 251T699 334T715 435Q715 501 699 551T655 634T587 685T499 703Q388 703 298 602H113L171 1320H899V1100H379L362 877Z"/><glyph unicode="6" horiz-adv-x="1026" d="M536 1143Q495 1143 461 1119T399 1051T352 944T322 803Q374 840 430 863T550 886Q642 886 716 850T842 752T923 607T951 431Q951 338 921 255T836 111T704 13T531 -23Q422 -23 337 21T194 147T106 349T75 619Q75 795 104 930T192 1156T339 1295T544 1342Q620 1342 685 1318T802 1247T888 1129T937 963H693Q672 1143 536 1143ZM522 678Q418 678 311 571Q314 479 330 406T374 282T441 204T528 176Q570 176 603 195T660 247T696 325T709 421Q709 473 696 519T659 601T600 657T522 678Z"/><glyph unicode="7" horiz-adv-x="1026" d="M946 1166L491 0H231L683 1100H79V1320H946V1166Z"/><glyph unicode="8" horiz-adv-x="1026" d="M905 1003Q905 917 864 839T738 701Q791 671 831 632T899 549T939 456T953 359Q953 273 921 203T831 83T692 5T512 -23Q414 -23 333 4T194 82T104 202T72 359Q72 408 85 456T125 548T192 632T286 701Q205 761 162 839T119 1003Q119 1077 147 1139T227 1247T351 1317T512 1342Q600 1342 672 1317T796 1246T876 1139T905 1003ZM711 359Q711 425 663 482T512 586Q481 571 446 550T382 500T333 436T313 359Q313 272 367 224T512 176Q556 176 592 188T655 224T696 282T711 359ZM361 1003Q361 887 512 814Q664 888 664 1003Q664 1070 624 1106T512 1143Q441 1143 401 1107T361 1003Z"/><glyph unicode="9" horiz-adv-x="1026" d="M491 176Q532 176 566 201T626 272T672 382T702 526Q599 452 476 452Q392 452 319 484T192 573T107 710T75 883Q75 976 105 1059T190 1205T322 1305T495 1342Q602 1342 687 1300T830 1178T920 979T951 709Q951 533 922 397T834 167T687 26T481 -23Q405 -23 339 1T222 72T137 190T90 356H333Q352 176 491 176ZM503 651Q609 651 713 758Q710 850 694 921T650 1042T584 1117T499 1143Q458 1143 425 1124T367 1070T330 990T317 892Q317 839 330 795T367 719T426 669T503 651Z"/><glyph unicode=":" horiz-adv-x="512" d="M381 0H131V246H381V0ZM381 709H131V955H381V709Z"/><glyph unicode=";" horiz-adv-x="512" d="M381 709H131V955H381V709ZM381 38Q381 -25 365 -80T318 -178T239 -244T130 -269V-134Q188 -134 210 -104T233 0H130V246H381V38Z"/><glyph unicode="&lt;" horiz-adv-x="1077" d="M980 167L97 542V732L980 1108V874L405 637L980 399V167Z"/><glyph unicode="=" horiz-adv-x="1077" d="M980 713H97V930H980V713ZM980 345H97V560H980V345Z"/><glyph unicode="&gt;" horiz-adv-x="1077" d="M980 542L97 167V399L673 637L97 874V1108L980 732V542Z"/><glyph unicode="?" horiz-adv-x="1026" d="M79 914Q88 1012 123 1091T216 1226T350 1312T517 1342Q613 1342 692 1315T827 1238T915 1121T947 973Q947 919 933 872T894 782T834 701T757 628Q710 589 682 559T643 507Q623 464 623 318H398Q398 518 437 599Q475 677 579 764Q624 801 649 829T687 880T703 922T706 963Q706 1002 693 1035T654 1092T595 1129T519 1143Q355 1143 319 914H79ZM640 0H391V246H640V0Z"/><glyph unicode="@" horiz-adv-x="1872" d="M1474 -256Q1247 -356 1009 -356Q806 -356 643 -303T363 -148T185 98T122 426Q122 521 138 613T187 789T267 950T375 1090Q618 1342 991 1342Q1096 1342 1192 1320T1373 1256T1527 1154T1646 1016T1723 847T1750 649Q1750 500 1708 380T1591 175T1416 44T1201 -2Q1139 -2 1094 24T1024 93Q926 -2 787 -2Q713 -2 651 24T544 100T473 219T447 376Q447 610 591 790Q664 882 742 924T910 966Q1059 966 1148 899L1157 942H1388L1255 347Q1245 305 1240 274T1235 222Q1235 197 1257 197Q1300 197 1355 230T1453 322T1521 466T1546 652Q1546 757 1505 848T1389 1006T1212 1111T989 1150Q846 1150 729 1101T519 950Q473 900 437 839T375 711T337 571T323 426Q323 285 370 176T506 -9T722 -124T1007 -164Q1200 -164 1371 -87L1474 -256ZM1100 692Q1041 767 922 767Q874 767 830 732T753 641T700 516T680 381Q680 197 818 197Q854 197 889 214T954 262T1009 338T1046 435L1100 692Z"/><glyph unicode="A" horiz-adv-x="1290" d="M789 587L629 1006L478 587H789ZM1285 0H1010L866 378H404L266 0H5L513 1321H747L1285 0Z"/><glyph unicode="B" horiz-adv-x="1272" d="M1172 401Q1172 203 1046 102T667 0H160V1320H643Q749 1320 835 1296T983 1225T1077 1113T1111 964Q1111 880 1080 818T984 708Q1032 685 1067 653T1125 580T1160 495T1172 401ZM406 800H642Q757 800 811 834T866 950Q866 986 854 1013T813 1058T739 1084T626 1093H406V800ZM406 227H666Q919 227 919 401Q919 446 906 479T861 533T776 565T643 576H406V227Z"/><glyph unicode="C" horiz-adv-x="1365" d="M1011 905Q1001 956 975 996T911 1063T824 1105T720 1120Q635 1120 567 1090T451 1002T377 859T351 661Q351 550 377 464T451 319T566 229T717 198Q836 198 914 259T1012 438H1265Q1251 327 1205 242T1087 98T922 9T719 -21Q576 -21 462 27T267 164T144 379T100 661Q100 817 144 943T268 1157T463 1294T719 1342Q821 1342 912 1311T1075 1223T1196 1085T1262 905H1011Z"/><glyph unicode="D" horiz-adv-x="1370" d="M1270 667Q1270 0 595 0H160V1320H595Q1270 1320 1270 667ZM1018 667Q1018 767 999 846T931 980T800 1064T594 1093H407V227H594Q717 227 799 257T929 343T998 481T1018 667Z"/><glyph unicode="E" horiz-adv-x="1269" d="M1169 0H160V1320H1140V1093H406V795H1093V570H406V227H1169V0Z"/><glyph unicode="F" horiz-adv-x="1181" d="M1081 1093H406V789H993V563H406V0H160V1320H1081V1093Z"/><glyph unicode="G" horiz-adv-x="1481" d="M1061 907Q1038 1009 954 1064T738 1119Q652 1119 581 1089T459 1001T380 857T352 661Q352 552 380 466T460 321T582 230T739 198Q863 198 950 234T1098 347V485H771V713H1341V0H1152L1120 95Q1051 38 957 9T741 -21Q597 -21 479 28T277 166T147 381T100 661Q100 817 146 943T277 1157T478 1292T736 1340Q849 1340 947 1310T1121 1223T1248 1086T1315 907H1061Z"/><glyph unicode="H" horiz-adv-x="1378" d="M1218 0H970V585H406V0H160V1320H406V812H970V1320H1218V0Z"/><glyph unicode="I" horiz-adv-x="565" d="M405 0H160V1320H405V0Z"/><glyph unicode="J" horiz-adv-x="1002" d="M842 437Q842 312 818 225T745 83T623 4T453 -21Q367 -21 299 6T181 82T106 202T80 360V433H325Q325 204 453 204Q487 204 513 212T558 246T585 314T595 429V1320H842V437Z"/><glyph unicode="K" horiz-adv-x="1312" d="M1297 0H981L554 599L407 454V0H160V1320H407V765L956 1320H1292L729 769L1297 0Z"/><glyph unicode="L" horiz-adv-x="1092" d="M1012 0H160V1320H406V227H1012V0Z"/><glyph unicode="M" horiz-adv-x="1572" d="M1412 0H1173V846L888 0H681L399 846V0H160V1320H480L786 379L1093 1320H1412V0Z"/><glyph unicode="N" horiz-adv-x="1378" d="M1218 0H986L397 883V0H160V1320H393L979 436V1320H1218V0Z"/><glyph unicode="O" horiz-adv-x="1470" d="M735 1342Q873 1342 989 1293T1190 1155T1322 940T1370 661Q1370 510 1323 385T1192 169T992 29T735 -21Q595 -21 479 28T278 168T147 383T100 661Q100 815 147 941T280 1156T481 1293T735 1342ZM734 198Q818 198 889 229T1011 320T1090 466T1119 661Q1119 771 1090 856T1010 1001T889 1090T737 1121Q653 1121 583 1090T461 1000T380 855T351 661Q351 552 379 466T459 321T580 230T734 198Z"/><glyph unicode="P" horiz-adv-x="1275" d="M160 1320H666Q768 1320 862 1303T1027 1240T1142 1117T1185 919Q1185 708 1057 603T677 497H406V0H160V1320ZM406 723H682Q750 723 797 735T875 772T919 832T933 915Q933 972 913 1006T857 1060T775 1086T677 1093H406V723Z"/><glyph unicode="Q" horiz-adv-x="1470" d="M1408 62L1259 -116L1045 54Q974 15 899 -3T736 -21Q596 -21 479 28T278 168T147 383T100 661Q100 815 148 941T280 1156T481 1293T736 1342Q874 1342 990 1293T1191 1155T1323 940T1371 661Q1371 524 1335 412T1226 207L1408 62ZM1038 352Q1119 472 1119 661Q1119 771 1091 856T1011 1001T890 1090T738 1121Q654 1121 584 1090T462 1000T381 855T352 661Q352 552 380 466T460 321T581 230T735 198Q762 198 789 202T842 213L741 292L890 471L1038 352Z"/><glyph unicode="R" horiz-adv-x="1386" d="M904 359Q891 396 868 427T815 482T749 518T671 531H407V0H160V1320H752Q805 1320 853 1318T945 1306T1029 1279T1106 1230Q1171 1175 1203 1096T1236 934Q1236 813 1178 727T1017 594Q1060 562 1094 513T1154 391L1296 0H1030L904 359ZM407 758H735Q801 758 848 767T925 797T969 851T983 934Q983 1022 929 1063T760 1104H407V758Z"/><glyph unicode="S" horiz-adv-x="1272" d="M341 441Q353 380 382 336T454 262T550 218T662 204Q722 204 771 216T856 250T911 305T930 378Q930 418 912 447T851 498T741 539T574 579Q461 603 379 636T245 715T167 821T142 959Q142 1042 177 1112T275 1234T428 1313T625 1342Q733 1342 823 1314T980 1232T1089 1102T1139 927H899Q857 1115 632 1115Q512 1115 449 1075T385 964Q385 935 399 914T443 875T521 842T637 813Q696 800 758 786T880 750T993 700T1086 627T1149 526T1172 391Q1172 300 1135 225T1030 95T872 10T671 -21Q535 -21 432 12T259 107T149 253T100 441H341Z"/><glyph unicode="T" horiz-adv-x="1187" d="M1127 1093H716V0H469V1093H60V1320H1127V1093Z"/><glyph unicode="U" horiz-adv-x="1378" d="M689 -21Q564 -21 477 4T330 71T237 171T186 294T165 428T160 564V1320H406V566Q406 453 425 383T480 273T568 219T689 204Q758 204 810 218T898 273T952 383T970 566V1320H1218V564Q1218 426 1195 318T1111 134T949 19T689 -21Z"/><glyph unicode="V" horiz-adv-x="1304" d="M1279 1320L765 0H538L25 1320H289L651 335L1016 1320H1279Z"/><glyph unicode="W" horiz-adv-x="1788" d="M1748 1320L1381 0H1161L893 967L626 0H406L40 1320H299L518 432L763 1320H1025L1269 433L1489 1320H1748Z"/><glyph unicode="X" horiz-adv-x="1349" d="M1324 0H1022L676 496L330 0H25L531 694L74 1320H375L674 893L975 1320H1276L818 694L1324 0Z"/><glyph unicode="Y" horiz-adv-x="1342" d="M1317 1320L795 555V0H548V555L25 1320H323L672 786L1019 1320H1317Z"/><glyph unicode="Z" horiz-adv-x="1184" d="M1124 0H60V208L787 1093H130V1320H1101V1111L374 227H1124V0Z"/><glyph unicode="[" horiz-adv-x="512" d="M497 -338H88V1320H497V1120H324V-137H497V-338Z"/><glyph unicode="\" horiz-adv-x="512" d="M534 0H331L-51 1320H153L534 0Z"/><glyph unicode="]" horiz-adv-x="512" d="M424 -338H15V-137H188V1120H15V1320H424V-338Z"/><glyph unicode="^" horiz-adv-x="866" d="M837 734H591L434 1044L277 734H32L351 1320H518L837 734Z"/><glyph unicode="_" horiz-adv-x="1018" d="M1026 -266H-9V-105H1026V-266Z"/><glyph unicode="`" horiz-adv-x="676" d="M490 1092H284L68 1366H352L490 1092Z"/><glyph unicode="a" horiz-adv-x="1058" d="M689 425H620Q320 425 320 279Q320 231 359 204T464 177Q530 177 591 203T689 281V425ZM148 978T526 978Q618 978 691 962T816 903T895 789T923 606V0H689V50Q631 15 564 -4T419 -23Q347 -23 285 -2T178 59T106 152T80 271Q80 618 651 618H689Q688 657 683 686T659 736T607 767T516 778Q445 778 404 756T347 673H106Q148 978 526 978Z"/><glyph unicode="b" horiz-adv-x="1064" d="M370 907Q464 978 582 978Q678 978 753 943T879 843T957 687T984 485Q984 370 953 276T866 116T735 13T572 -23Q512 -23 464 -11T370 29V0H135V1320H370V907ZM370 262Q414 220 462 199T563 177Q645 177 693 255T742 485Q742 631 696 704T569 778Q466 778 370 652V262Z"/><glyph unicode="c" horiz-adv-x="982" d="M932 314Q917 230 881 167T793 62T675 -1T534 -23Q433 -23 350 10T206 107T113 264T80 478Q80 596 112 689T204 846T348 944T534 978Q610 978 675 957T793 895T880 792T931 647H686Q677 716 635 747T534 778Q487 778 448 759T381 703T338 609T322 478Q322 403 337 347T381 253T448 196T534 177Q561 177 586 185T632 211T667 254T686 314H932Z"/><glyph unicode="d" horiz-adv-x="1065" d="M696 693Q605 778 502 778Q420 778 371 702T322 472Q322 326 368 253T496 179Q601 179 696 304V693ZM696 50Q648 15 596 -4T484 -23Q386 -23 311 12T184 113T107 269T80 472Q80 590 111 683T198 842T329 943T492 978Q549 978 600 965T696 927V1320H930V0H696V50Z"/><glyph unicode="e" horiz-adv-x="1066" d="M969 299Q951 221 913 161T820 60T697 -2T550 -23Q445 -23 359 11T210 109T114 267T80 478Q80 594 113 686T206 844T349 943T533 978Q637 978 720 944T863 846T954 689T986 478V403H328Q346 290 405 234T550 177Q577 177 604 185T655 208T696 246T722 299H969ZM732 602Q709 690 657 734T533 778Q462 778 409 734T333 602H732Z"/><glyph unicode="f" horiz-adv-x="581" d="M396 757V0H160V757H30V955H160V1026Q160 1345 445 1345Q487 1345 526 1339T601 1323V1113Q553 1121 523 1124T469 1128Q430 1128 413 1105T396 1024V955H561V757H396Z"/><glyph unicode="g" horiz-adv-x="1065" d="M356 -89Q377 -188 503 -188Q588 -188 636 -131T694 47Q646 12 595 -5T484 -23Q386 -23 311 12T184 113T107 269T80 472Q80 590 111 683T198 842T329 943T492 978Q549 978 600 965T696 927V955H930V75Q930 -388 508 -388Q422 -388 353 -368T232 -309T149 -215T111 -89H356ZM696 693Q605 778 502 778Q420 778 371 702T322 472Q322 326 368 252T496 177Q601 177 696 302V693Z"/><glyph unicode="h" horiz-adv-x="1066" d="M370 899Q472 978 592 978Q931 978 931 613V0H693V606Q693 695 665 733T570 771Q474 771 370 655V0H135V1320H370V899Z"/><glyph unicode="i" horiz-adv-x="504" d="M369 0H135V955H369V0ZM369 1074H135V1320H369V1074Z"/><glyph unicode="j" horiz-adv-x="516" d="M381 -44Q381 -151 363 -218T310 -323T227 -374T117 -388Q80 -388 43 -385T-30 -377V-155Q23 -172 50 -177T96 -182Q111 -182 120 -176T136 -153T144 -109T146 -38V955H381V-44ZM381 1074H146V1320H381V1074Z"/><glyph unicode="k" horiz-adv-x="995" d="M975 0H693L422 423L370 372V0H135V1320H370V662L654 955H963L584 585L975 0Z"/><glyph unicode="l" horiz-adv-x="504" d="M369 0H135V1320H369V0Z"/><glyph unicode="m" horiz-adv-x="1539" d="M1404 0H1166V606Q1166 696 1144 733T1070 771Q982 771 885 656V0H651V606Q651 696 629 733T554 771Q467 771 370 656V0H135V955H370V900Q419 941 470 959T579 978Q672 978 735 946T836 850Q876 892 909 917T973 955T1032 973T1092 978Q1404 978 1404 613V0Z"/><glyph unicode="n" horiz-adv-x="1066" d="M370 899Q472 978 592 978Q931 978 931 613V0H693V606Q693 695 665 733T570 771Q474 771 370 655V0H135V955H370V899Z"/><glyph unicode="o" horiz-adv-x="1066" d="M533 978Q637 978 720 944T863 846T954 689T986 478Q986 360 954 267T862 110T719 11T533 -23Q432 -23 349 10T206 107T113 264T80 478Q80 596 112 689T204 846T347 944T533 978ZM533 177Q579 177 618 196T684 253T727 347T743 478Q743 553 728 609T685 702T618 759T533 778Q486 778 447 759T381 703T338 609T322 478Q322 403 337 347T380 253T447 196T533 177Z"/><glyph unicode="p" horiz-adv-x="1064" d="M370 907Q464 978 582 978Q678 978 753 943T879 843T957 687T984 485Q984 370 953 276T866 116T735 13T572 -23Q512 -23 464 -12T370 27V-368H135V955H370V907ZM370 260Q458 177 563 177Q645 177 693 255T742 485Q742 631 696 704T569 778Q466 778 370 652V260Z"/><glyph unicode="q" horiz-adv-x="1065" d="M930 -368H696V48Q601 -23 484 -23Q386 -23 311 12T184 113T107 269T80 472Q80 590 111 683T198 842T329 943T492 978Q599 978 696 927V955H930V-368ZM696 693Q605 778 502 778Q420 778 371 702T322 472Q322 326 368 252T496 177Q601 177 696 302V693Z"/><glyph unicode="r" horiz-adv-x="686" d="M671 721Q640 734 613 740T537 747Q489 747 449 723T370 647V0H135V955H370V900Q457 978 561 978Q580 978 606 975T671 964V721Z"/><glyph unicode="s" horiz-adv-x="971" d="M625 687Q601 778 480 778Q449 778 423 773T378 758T347 733T336 699Q336 684 341 674T368 653T432 632T546 602Q634 581 698 558T806 501T870 418T891 296Q891 228 863 170T784 69T661 2T498 -23Q122 -23 80 301H320Q339 177 496 177Q574 177 614 207T655 280Q655 300 647 313T613 338T544 362T430 392Q344 413 282 434T180 487T121 566T101 685Q101 747 127 800T201 893T317 955T469 978Q834 978 860 687H625Z"/><glyph unicode="t" horiz-adv-x="554" d="M539 -2Q494 -13 457 -18T387 -23Q304 -23 255 -4T179 54T146 151T138 286V757H30V955H138V1193H376V955H518V757H376V279Q376 246 379 226T387 195T401 181T421 177Q443 177 473 180T539 190V-2Z"/><glyph unicode="u" horiz-adv-x="1068" d="M698 56Q597 -23 474 -23Q135 -23 135 341V955H374V349Q374 260 403 222T497 184Q605 184 698 299V955H933V0H698V56Z"/><glyph unicode="v" horiz-adv-x="979" d="M949 955L588 0H392L30 955H285L489 354L693 955H949Z"/><glyph unicode="w" horiz-adv-x="1375" d="M1345 955L1059 0H849L690 544L530 0H318L30 955H291L425 403L587 955H792L956 403L1090 955H1345Z"/><glyph unicode="x" horiz-adv-x="1017" d="M997 0H704L507 308L311 0H20L370 496L44 955H336L507 684L677 955H970L644 496L997 0Z"/><glyph unicode="y" horiz-adv-x="969" d="M588 25Q556 -59 524 -134T451 -265T358 -355T232 -388Q198 -388 163 -383T89 -365V-141Q136 -160 162 -163T205 -167Q226 -167 248 -152T291 -109T331 -44T367 37L20 955H275L479 354L683 955H939L588 25Z"/><glyph unicode="z" horiz-adv-x="978" d="M918 0H60V185L560 747H92V955H890V772L391 211H918V0Z"/><glyph unicode="{" horiz-adv-x="633" d="M576 -388H510Q460 -388 412 -379T324 -346T256 -277T218 -164Q215 -144 214 -110T211 -35T209 49T207 133T203 205T198 255Q195 279 185 300T156 337T107 362T37 373V582Q78 583 107 593T156 618T185 655T198 699Q200 716 202 748T205 821T207 904T209 989T213 1064T218 1118Q227 1180 251 1222T312 1291T399 1330T510 1342H576V1137H530Q470 1137 461 1114Q457 1105 454 1081T449 1022T446 944T445 852Q445 775 436 716T410 611T367 534T307 478Q341 455 366 424T409 348T436 243T445 104Q445 56 446 12T449 -67T454 -127T461 -160Q470 -183 530 -183H576V-388Z"/><glyph unicode="|" horiz-adv-x="487" d="M348 -368H139V1320H348V-368Z"/><glyph unicode="}" horiz-adv-x="633" d="M37 -183H83Q143 -183 152 -160Q156 -151 159 -127T164 -68T167 12T168 104Q168 183 177 243T203 348T246 424T306 478Q272 501 246 533T203 611T177 715T168 852Q168 900 167 943T164 1021T159 1080T152 1114Q143 1137 83 1137H37V1342H103Q164 1342 213 1330T300 1292T362 1223T395 1118Q398 1098 400 1064T403 989T406 905T408 821T410 749T415 699Q418 676 428 655T457 619T505 593T576 582V373Q535 372 506 363T458 337T428 300T415 255Q412 237 410 205T407 133T405 50T403 -34T400 -109T395 -164Q385 -233 357 -277T289 -345T201 -379T103 -388H37V-183Z"/><glyph unicode="~" horiz-adv-x="1077" d="M999 1137Q905 1028 751 1028Q652 1028 516 1088Q378 1149 311 1149Q194 1149 79 1026V1260Q175 1369 328 1369Q428 1369 562 1308Q631 1277 682 1263T767 1248Q883 1248 999 1371V1137Z"/><glyph unicode="¡" horiz-adv-x="512" d="M381 709H130V955H381V709ZM364 -365H148V-34L178 652H334L364 -34V-365Z"/><glyph unicode="¢" horiz-adv-x="1026" d="M244 -179L296 34Q193 92 135 204T77 478Q77 595 109 687T200 844T342 943T526 978L571 1159L733 1115L693 950Q784 915 845 840T928 647H683Q676 705 641 738L505 178Q511 177 517 177T531 177Q558 177 583 185T629 211T664 254T683 314H929Q914 230 878 167T790 62T672 -1T531 -23Q511 -23 493 -22T457 -18L409 -216L244 -179ZM319 478Q319 418 329 370T357 286L476 770Q404 750 362 678T319 478Z"/><glyph unicode="£" horiz-adv-x="1026" d="M974 30Q861 -21 758 -21Q688 -21 562 18Q503 36 461 45T392 55Q267 55 60 -44V190Q108 215 141 241T194 301T224 379T234 483Q234 500 233 515T230 548H60V746H174Q160 801 153 847T145 927Q145 1017 175 1088T261 1209T393 1285T561 1311Q646 1311 718 1285T844 1209T931 1087T971 920H730Q713 1112 558 1112Q520 1112 488 1099T433 1062T398 1007T385 940Q385 900 393 855T421 746H691V548H470Q471 537 471 529T472 512Q472 394 434 320Q426 303 418 290T397 260Q435 260 486 252T560 239T613 228T667 218T712 209T751 205Q831 205 974 278V30Z"/><glyph unicode="¤" horiz-adv-x="1111" d="M1052 355L892 193L762 324Q661 270 555 270Q498 270 448 283T350 325L217 193L58 355L188 485Q135 586 135 688Q135 798 188 889L58 1023L217 1181L348 1051Q442 1107 555 1107Q669 1107 762 1052L892 1181L1051 1024L923 891Q976 794 976 688Q976 608 965 568T922 485L1052 355ZM555 493Q595 493 630 508T691 550T733 612T749 688Q749 728 734 764T691 826T629 867T555 883Q516 883 481 868T420 826T377 764T361 688Q361 648 376 613T418 551T480 509T555 493Z"/><glyph unicode="¥" horiz-adv-x="1027" d="M1053 1291L736 738H972V545H632V472H972V280H632V0H400V280H56V472H400V545H56V738H293L-25 1291H244L513 799L785 1291H1053Z"/><glyph unicode="¦" horiz-adv-x="519" d="M369 -385H150V378H369V-385ZM369 627H150V1390H369V627Z"/><glyph unicode="§" horiz-adv-x="1026" d="M352 -50Q366 -119 411 -152T521 -186Q552 -186 577 -178T619 -154T645 -120T654 -80Q654 -57 639 -36T590 13T499 75T361 162Q312 192 272 224T202 288T150 346T117 393Q68 476 68 572Q68 609 78 648T109 723T158 791T227 846Q186 892 165 941T144 1042Q144 1098 171 1152T246 1248T361 1316T509 1342Q670 1342 772 1259T903 1024H660Q646 1084 609 1113T517 1143Q489 1143 465 1136T422 1117T392 1088T381 1051Q381 1028 389 1009T424 964T498 905T628 819Q683 783 741 747T848 665T926 562T957 426Q957 388 946 350T914 275T861 206T790 149Q889 60 889 -78Q889 -145 862 -201T785 -299T669 -364T521 -388Q441 -388 373 -366T252 -302T162 -196T109 -50H352ZM362 732Q345 722 333 705T313 669T301 628T297 589Q297 541 340 486T487 362L646 257Q664 268 678 284T703 320T720 358T726 394Q726 439 679 495T526 623L362 732Z"/><glyph unicode="¨" horiz-adv-x="667" d="M643 1112H410V1360H643V1112ZM259 1112H24V1360H259V1112Z"/><glyph unicode="©" horiz-adv-x="1358" d="M681 1333Q772 1333 857 1309T1016 1240T1152 1133T1258 997T1327 837T1352 659Q1352 567 1328 481T1260 320T1155 184T1019 78T859 9T681 -16Q543 -16 421 37T206 181T60 396T6 659Q6 798 59 920T205 1134T420 1279T681 1333ZM680 122Q789 122 886 164T1056 280T1171 450T1214 659Q1214 767 1172 864T1057 1035T887 1151T680 1194Q570 1194 472 1152T301 1036T186 866T143 659Q143 548 185 451T301 280T472 165T680 122ZM1014 534Q948 265 682 265Q600 265 534 293T420 372T347 495T321 656Q321 746 346 817T419 938T535 1014T687 1041Q749 1041 802 1024T897 975T966 897T1005 791H852Q826 917 684 917Q633 917 594 899T527 846T485 763T470 653Q470 596 485 549T528 469T594 416T681 397Q830 397 861 534H1014Z"/><glyph unicode="ª" horiz-adv-x="739" d="M476 985H436Q340 985 288 962T235 896Q235 875 254 857T314 839Q332 839 355 841T401 848T444 862T476 887V985ZM50 1183Q66 1307 146 1361T373 1415Q449 1415 507 1400T604 1352T664 1265T684 1135V685H476V743Q436 711 390 691T289 671Q233 671 186 687T104 732T50 801T30 892Q30 946 56 990T136 1067T269 1116T456 1134H473Q473 1172 464 1194T441 1229T407 1245T368 1249Q278 1249 263 1183H50ZM674 465H64V617H674V465Z"/><glyph unicode="«" horiz-adv-x="1111" d="M1006 64H785L474 512L785 960H1006L731 512L1006 64ZM636 64H416L104 512L416 960H636L360 512L636 64Z"/><glyph unicode="¬" horiz-adv-x="1256" d="M1080 679V234H877V478H175V679H1080Z"/><glyph unicode="­" horiz-adv-x="1249" d="M1042 512H207V711H1042V512Z"/><glyph unicode="®" horiz-adv-x="1358" d="M681 1333Q772 1333 857 1309T1016 1240T1152 1133T1258 997T1327 837T1352 659Q1352 567 1328 481T1260 320T1155 184T1019 78T859 9T681 -16Q543 -16 421 37T206 181T60 396T6 659Q6 798 59 920T205 1134T420 1279T681 1333ZM680 122Q789 122 886 164T1056 280T1171 450T1214 659Q1214 767 1172 864T1057 1035T887 1151T680 1194Q570 1194 472 1152T301 1036T186 866T143 659Q143 548 185 451T301 280T472 165T680 122ZM997 279H835L776 444Q753 507 711 540T601 573H525V279H384V1016H665Q960 1016 960 806Q960 633 814 597Q880 560 915 476L997 279ZM525 700H654Q810 700 810 797Q810 891 651 891H525V700Z"/><glyph unicode="¯" horiz-adv-x="999" d="M1009 1578H-9V1744H1009V1578Z"/><glyph unicode="°" horiz-adv-x="800" d="M401 1408Q461 1408 513 1385T603 1322T664 1230T687 1121Q687 1062 664 1010T602 918T511 856T401 833Q342 833 290 855T198 917T136 1008T113 1121Q113 1180 136 1232T198 1323T289 1385T401 1408ZM401 1007Q424 1007 444 1016T479 1041T503 1077T512 1121Q512 1144 503 1164T479 1200T444 1224T401 1233Q353 1233 322 1201T290 1121Q290 1098 298 1078T322 1041T357 1016T401 1007Z"/><glyph unicode="±" horiz-adv-x="1167" d="M1057 612H698V251H468V612H109V838H468V1199H698V838H1057V612ZM1057 0H109V225H1057V0Z"/><glyph unicode="²" horiz-adv-x="666" d="M636 654H10Q24 750 87 826T264 971Q321 1005 355 1030T408 1074T433 1112T439 1151Q439 1231 336 1231Q234 1231 213 1139H27Q75 1387 337 1387Q406 1387 461 1370T554 1323T613 1251T633 1159Q633 1109 618 1071T577 1002T518 947T448 902T397 872T361 850T309 813H636V654Z"/><glyph unicode="³" horiz-adv-x="666" d="M204 844Q217 817 248 804T320 790Q438 790 438 892Q438 928 413 941T327 955H251V1096Q300 1096 330 1102T378 1118T401 1144T408 1178Q408 1233 318 1233Q302 1233 286 1232T257 1225T233 1211T217 1185H42Q60 1293 131 1340T320 1388Q385 1388 436 1373T522 1332T577 1270T596 1192Q596 1085 515 1036Q629 991 629 865Q629 815 608 773T548 701T452 654T326 637Q197 637 126 687T31 844H204Z"/><glyph unicode="´" horiz-adv-x="676" d="M266 1366H550L334 1092H128L266 1366Z"/><glyph unicode="µ" horiz-adv-x="1027" d="M988 -10H867Q731 -10 680 78Q623 26 564 3T436 -21Q382 -21 334 -5V-338H99V955H334V320Q334 186 469 186Q495 186 517 191T561 210T606 246T656 302V955H892V235Q892 202 912 189T988 176V-10Z"/><glyph unicode="¶" horiz-adv-x="992" d="M992 1122H876V-338H676V1122H530V-338H331V560Q249 570 187 602T82 684T19 796T-3 931Q-3 1024 27 1096T114 1218T250 1294T430 1320H992V1122Z"/><glyph unicode="·" horiz-adv-x="583" d="M95 773Q95 813 110 848T153 910T215 952T291 967Q331 967 366 952T429 910T471 849T487 773Q487 734 472 699T429 636T367 594T291 578Q251 578 216 593T153 635T111 697T95 773Z"/><glyph unicode="¸" horiz-adv-x="666" d="M364 -63Q410 -68 440 -80T487 -110T511 -152T518 -208Q518 -251 502 -285T450 -344T358 -381T224 -394Q214 -394 200 -394T169 -392T138 -390T113 -386V-238Q121 -241 136 -243T168 -247T201 -250T230 -251Q304 -251 304 -198Q304 -149 180 -149V26H364V-63Z"/><glyph unicode="¹" horiz-adv-x="666" d="M450 608H270V1052Q196 1021 63 1021V1169Q305 1169 305 1342H450V608Z"/><glyph unicode="º" horiz-adv-x="729" d="M364 1415Q437 1415 499 1389T605 1313T674 1195T699 1040Q699 951 674 881T605 763T499 689T364 663Q288 663 226 688T121 761T53 880T29 1040Q29 1127 53 1196T122 1314T227 1389T364 1415ZM364 858Q486 858 486 1040Q486 1217 364 1217Q243 1217 243 1040Q243 858 364 858ZM669 465H60V617H669V465Z"/><glyph unicode="»" horiz-adv-x="1111" d="M379 512L104 960H325L636 512L325 64H104L379 512ZM750 512L474 960H694L1006 512L694 64H474L750 512Z"/><glyph unicode="¼" d="M470 661H290V1052Q216 1021 83 1021V1169Q325 1169 325 1342H470V661ZM1319 1320L379 0H176L1116 1320H1319ZM1418 132H1328V0H1160V132H800V268L1190 701H1328V288H1418V132ZM1160 288V480L986 288H1160Z"/><glyph unicode="½" d="M1299 1320L359 0H156L1096 1320H1299ZM1485 0H859Q873 96 936 172T1113 317Q1170 351 1204 376T1257 420T1282 458T1288 497Q1288 577 1185 577Q1083 577 1062 485H876Q924 733 1186 733Q1255 733 1310 716T1403 669T1462 597T1482 505Q1482 455 1467 417T1426 348T1367 293T1297 248T1225 205T1158 159H1485V0ZM450 608H270V1052Q196 1021 63 1021V1169Q305 1169 305 1342H450V608Z"/><glyph unicode="¾" d="M1369 1320L429 0H226L1166 1320H1369ZM1418 132H1328V0H1160V132H800V268L1190 701H1328V288H1418V132ZM1160 288V480L986 288H1160ZM204 798Q217 771 248 758T320 744Q438 744 438 846Q438 882 413 895T327 909H251V1050Q300 1050 330 1056T378 1072T401 1098T408 1132Q408 1187 318 1187Q302 1187 286 1186T257 1179T233 1165T217 1139H42Q60 1247 131 1294T320 1342Q385 1342 436 1327T522 1286T577 1224T596 1146Q596 1039 515 990Q629 945 629 819Q629 769 608 727T548 655T452 608T326 591Q197 591 126 641T31 798H204Z"/><glyph unicode="¿" horiz-adv-x="1026" d="M927 41Q918 -57 883 -136T790 -271T656 -357T489 -387Q393 -387 314 -360T179 -283T91 -166T59 -18Q59 36 73 83T112 173T172 254T249 327Q296 366 324 396T363 448Q383 491 383 637H608Q608 602 608 520T569 356Q531 278 427 191Q382 153 357 125T319 75T303 33T300 -8Q300 -47 313 -80T352 -137T411 -174T487 -188Q651 -188 687 41H927ZM366 955H615V709H366V955Z"/><glyph unicode="À" horiz-adv-x="1290" d="M789 587L629 1006L478 587H789ZM1285 0H1010L866 378H404L266 0H5L513 1321H747L1285 0ZM767 1388H561L345 1662H629L767 1388Z"/><glyph unicode="Á" horiz-adv-x="1290" d="M789 587L629 1006L478 587H789ZM1285 0H1010L866 378H404L266 0H5L513 1321H747L1285 0ZM556 1662H840L624 1388H418L556 1662Z"/><glyph unicode="Â" horiz-adv-x="1290" d="M789 587L629 1006L478 587H789ZM1285 0H1010L866 378H404L266 0H5L513 1321H747L1285 0ZM962 1388H720L629 1515L538 1388H296L530 1678H728L962 1388Z"/><glyph unicode="Ã" horiz-adv-x="1290" d="M789 587L629 1006L478 587H789ZM1285 0H1010L866 378H404L266 0H5L513 1321H747L1285 0ZM987 1654Q987 1605 972 1561T928 1482T861 1428T775 1408Q755 1408 722 1416T655 1435T596 1454T551 1463Q537 1463 525 1461T502 1453T482 1436T472 1405H283Q283 1453 299 1497T343 1576T410 1632T496 1653Q515 1653 547 1644T613 1624T673 1604T720 1595Q734 1595 745 1597T768 1605T788 1622T799 1654H987Z"/><glyph unicode="Ä" horiz-adv-x="1290" d="M789 587L629 1006L478 587H789ZM1285 0H1010L866 378H404L266 0H5L513 1321H747L1285 0ZM943 1408H710V1656H943V1408ZM559 1408H324V1656H559V1408Z"/><glyph unicode="Å" horiz-adv-x="1290" d="M628 1699Q665 1699 697 1685T754 1645T793 1588T807 1520Q807 1484 793 1452T755 1395T698 1357T628 1342Q591 1342 559 1355T502 1393T465 1449T451 1520Q451 1556 464 1588T502 1645T558 1684T628 1699ZM628 1450Q658 1450 678 1470T698 1520Q698 1548 678 1569T628 1590Q600 1590 580 1569T560 1520Q560 1491 580 1471T628 1450ZM789 587L629 1006L478 587H789ZM1285 0H1010L866 378H404L266 0H5L513 1321H747L1285 0Z"/><glyph unicode="Æ" horiz-adv-x="1855" d="M1755 0H862V359H488L289 0H5L768 1320H1727V1094H1107V795H1679V570H1107V227H1755V0ZM862 585V1040L610 585H862Z"/><glyph unicode="Ç" horiz-adv-x="1365" d="M1011 905Q1001 956 975 996T911 1063T824 1105T720 1120Q635 1120 567 1090T451 1002T377 859T351 661Q351 550 377 464T451 319T566 229T717 198Q836 198 914 259T1012 438H1265Q1251 327 1205 242T1087 98T922 9T719 -21Q576 -21 462 27T267 164T144 379T100 661Q100 817 144 943T268 1157T463 1294T719 1342Q821 1342 912 1311T1075 1223T1196 1085T1262 905H1011ZM824 -63Q870 -68 900 -80T947 -110T971 -152T978 -208Q978 -251 962 -285T910 -344T818 -381T684 -394Q674 -394 660 -394T629 -392T598 -390T573 -386V-238Q581 -241 596 -243T628 -247T661 -250T690 -251Q764 -251 764 -198Q764 -149 640 -149V26H824V-63Z"/><glyph unicode="È" horiz-adv-x="1269" d="M1169 0H160V1320H1140V1093H406V795H1093V570H406V227H1169V0ZM790 1388H584L368 1662H652L790 1388Z"/><glyph unicode="É" horiz-adv-x="1269" d="M1169 0H160V1320H1140V1093H406V795H1093V570H406V227H1169V0ZM666 1662H950L734 1388H528L666 1662Z"/><glyph unicode="Ê" horiz-adv-x="1269" d="M1169 0H160V1320H1140V1093H406V795H1093V570H406V227H1169V0ZM1002 1388H760L669 1515L578 1388H336L570 1678H768L1002 1388Z"/><glyph unicode="Ë" horiz-adv-x="1269" d="M1169 0H160V1320H1140V1093H406V795H1093V570H406V227H1169V0ZM975 1408H742V1656H975V1408ZM591 1408H356V1656H591V1408Z"/><glyph unicode="Ì" horiz-adv-x="565" d="M405 0H160V1320H405V0ZM410 1388H204L-12 1662H272L410 1388Z"/><glyph unicode="Í" horiz-adv-x="565" d="M405 0H160V1320H405V0ZM266 1662H550L334 1388H128L266 1662Z"/><glyph unicode="Î" horiz-adv-x="565" d="M405 0H160V1320H405V0ZM622 1388H380L289 1515L198 1388H-44L190 1678H388L622 1388Z"/><glyph unicode="Ï" horiz-adv-x="565" d="M405 0H160V1320H405V0ZM593 1408H360V1656H593V1408ZM209 1408H-26V1656H209V1408Z"/><glyph unicode="Ð" horiz-adv-x="1370" d="M7 775H160V1320H595Q1270 1320 1270 667Q1270 0 595 0H160V548H7V775ZM1018 667Q1018 767 999 846T931 980T800 1064T594 1093H407V775H701V548H407V227H594Q717 227 799 257T929 343T998 481T1018 667Z"/><glyph unicode="Ñ" horiz-adv-x="1378" d="M1218 0H986L397 883V0H160V1320H393L979 436V1320H1218V0ZM1028 1654Q1028 1605 1013 1561T969 1482T902 1428T816 1408Q796 1408 763 1416T696 1435T637 1454T592 1463Q578 1463 566 1461T543 1453T523 1436T513 1405H324Q324 1453 340 1497T384 1576T451 1632T537 1653Q556 1653 588 1644T654 1624T714 1604T761 1595Q775 1595 786 1597T809 1605T829 1622T840 1654H1028Z"/><glyph unicode="Ò" horiz-adv-x="1470" d="M735 1342Q873 1342 989 1293T1190 1155T1322 940T1370 661Q1370 510 1323 385T1192 169T992 29T735 -21Q595 -21 479 28T278 168T147 383T100 661Q100 815 147 941T280 1156T481 1293T735 1342ZM734 198Q818 198 889 229T1011 320T1090 466T1119 661Q1119 771 1090 856T1010 1001T889 1090T737 1121Q653 1121 583 1090T461 1000T380 855T351 661Q351 552 379 466T459 321T580 230T734 198ZM870 1388H664L448 1662H732L870 1388Z"/><glyph unicode="Ó" horiz-adv-x="1470" d="M735 1342Q873 1342 989 1293T1190 1155T1322 940T1370 661Q1370 510 1323 385T1192 169T992 29T735 -21Q595 -21 479 28T278 168T147 383T100 661Q100 815 147 941T280 1156T481 1293T735 1342ZM734 198Q818 198 889 229T1011 320T1090 466T1119 661Q1119 771 1090 856T1010 1001T889 1090T737 1121Q653 1121 583 1090T461 1000T380 855T351 661Q351 552 379 466T459 321T580 230T734 198ZM686 1662H970L754 1388H548L686 1662Z"/><glyph unicode="Ô" horiz-adv-x="1470" d="M735 1342Q873 1342 989 1293T1190 1155T1322 940T1370 661Q1370 510 1323 385T1192 169T992 29T735 -21Q595 -21 479 28T278 168T147 383T100 661Q100 815 147 941T280 1156T481 1293T735 1342ZM734 198Q818 198 889 229T1011 320T1090 466T1119 661Q1119 771 1090 856T1010 1001T889 1090T737 1121Q653 1121 583 1090T461 1000T380 855T351 661Q351 552 379 466T459 321T580 230T734 198ZM1072 1388H830L739 1515L648 1388H406L640 1678H838L1072 1388Z"/><glyph unicode="Õ" horiz-adv-x="1470" d="M735 1342Q873 1342 989 1293T1190 1155T1322 940T1370 661Q1370 510 1323 385T1192 169T992 29T735 -21Q595 -21 479 28T278 168T147 383T100 661Q100 815 147 941T280 1156T481 1293T735 1342ZM734 198Q818 198 889 229T1011 320T1090 466T1119 661Q1119 771 1090 856T1010 1001T889 1090T737 1121Q653 1121 583 1090T461 1000T380 855T351 661Q351 552 379 466T459 321T580 230T734 198ZM1090 1654Q1090 1605 1075 1561T1031 1482T964 1428T878 1408Q858 1408 825 1416T758 1435T699 1454T654 1463Q640 1463 628 1461T605 1453T585 1436T575 1405H386Q386 1453 402 1497T446 1576T513 1632T599 1653Q618 1653 650 1644T716 1624T776 1604T823 1595Q837 1595 848 1597T871 1605T891 1622T902 1654H1090Z"/><glyph unicode="Ö" horiz-adv-x="1470" d="M735 1342Q873 1342 989 1293T1190 1155T1322 940T1370 661Q1370 510 1323 385T1192 169T992 29T735 -21Q595 -21 479 28T278 168T147 383T100 661Q100 815 147 941T280 1156T481 1293T735 1342ZM734 198Q818 198 889 229T1011 320T1090 466T1119 661Q1119 771 1090 856T1010 1001T889 1090T737 1121Q653 1121 583 1090T461 1000T380 855T351 661Q351 552 379 466T459 321T580 230T734 198ZM1043 1408H810V1656H1043V1408ZM659 1408H424V1656H659V1408Z"/><glyph unicode="×" horiz-adv-x="1077" d="M951 378L797 224L538 483L279 224L125 378L385 637L125 896L279 1050L538 791L797 1050L951 896L692 637L951 378Z"/><glyph unicode="Ø" horiz-adv-x="1470" d="M735 1342Q844 1342 938 1312T1111 1225L1253 1384L1401 1261L1246 1087Q1306 1002 1338 895T1370 661Q1370 510 1323 385T1192 169T992 29T735 -21Q626 -21 532 8T359 95L217 -64L75 64L225 232Q165 318 133 425T100 661Q100 815 147 941T280 1156T481 1293T735 1342ZM734 198Q818 198 889 229T1011 320T1090 466T1119 661Q1119 730 1108 788T1075 896L514 269Q560 234 615 216T734 198ZM351 661Q351 592 362 533T396 423L956 1051Q863 1121 737 1121Q653 1121 583 1090T461 1000T380 855T351 661Z"/><glyph unicode="Ù" horiz-adv-x="1378" d="M689 -21Q564 -21 477 4T330 71T237 171T186 294T165 428T160 564V1320H406V566Q406 453 425 383T480 273T568 219T689 204Q758 204 810 218T898 273T952 383T970 566V1320H1218V564Q1218 426 1195 318T1111 134T949 19T689 -21ZM818 1388H612L396 1662H680L818 1388Z"/><glyph unicode="Ú" horiz-adv-x="1378" d="M689 -21Q564 -21 477 4T330 71T237 171T186 294T165 428T160 564V1320H406V566Q406 453 425 383T480 273T568 219T689 204Q758 204 810 218T898 273T952 383T970 566V1320H1218V564Q1218 426 1195 318T1111 134T949 19T689 -21ZM694 1662H978L762 1388H556L694 1662Z"/><glyph unicode="Û" horiz-adv-x="1378" d="M689 -21Q564 -21 477 4T330 71T237 171T186 294T165 428T160 564V1320H406V566Q406 453 425 383T480 273T568 219T689 204Q758 204 810 218T898 273T952 383T970 566V1320H1218V564Q1218 426 1195 318T1111 134T949 19T689 -21ZM1020 1388H778L687 1515L596 1388H354L588 1678H786L1020 1388Z"/><glyph unicode="Ü" horiz-adv-x="1378" d="M689 -21Q564 -21 477 4T330 71T237 171T186 294T165 428T160 564V1320H406V566Q406 453 425 383T480 273T568 219T689 204Q758 204 810 218T898 273T952 383T970 566V1320H1218V564Q1218 426 1195 318T1111 134T949 19T689 -21ZM995 1408H762V1656H995V1408ZM611 1408H376V1656H611V1408Z"/><glyph unicode="Ý" horiz-adv-x="1342" d="M1317 1320L795 555V0H548V555L25 1320H323L672 786L1019 1320H1317ZM666 1662H950L734 1388H528L666 1662Z"/><glyph unicode="Þ" horiz-adv-x="1275" d="M160 1320H406V1076H666Q768 1076 862 1059T1027 996T1142 873T1185 675Q1185 464 1057 359T677 253H406V0H160V1320ZM406 479H682Q750 479 797 491T875 528T919 588T933 671Q933 728 913 762T857 816T775 842T677 849H406V479Z"/><glyph unicode="ß" horiz-adv-x="1155" d="M634 233Q642 203 668 191T728 179Q779 179 808 208T837 284Q837 306 830 323T808 357T766 392T700 435Q651 465 617 492T561 549T529 613T519 694Q519 719 529 747T554 807T586 869T618 930T643 986T653 1035Q653 1055 643 1074T614 1108T565 1132T496 1141Q459 1141 430 1130T379 1091T347 1014T335 890V0H100V897Q100 1342 499 1342Q603 1342 675 1318T793 1254T858 1161T879 1051Q879 1003 860 960T817 877T775 801T755 729Q755 717 759 702T777 668T818 626T890 573Q945 537 981 505T1038 439T1067 371T1075 296Q1075 231 1050 174T980 73T872 5T731 -21Q668 -21 613 -4T515 47T441 126T400 233H634Z"/><glyph unicode="à" horiz-adv-x="1058" d="M689 425H620Q320 425 320 279Q320 231 359 204T464 177Q530 177 591 203T689 281V425ZM148 978T526 978Q618 978 691 962T816 903T895 789T923 606V0H689V50Q631 15 564 -4T419 -23Q347 -23 285 -2T178 59T106 152T80 271Q80 618 651 618H689Q688 657 683 686T659 736T607 767T516 778Q445 778 404 756T347 673H106Q148 978 526 978ZM665 1092H459L243 1366H527L665 1092Z"/><glyph unicode="á" horiz-adv-x="1058" d="M689 425H620Q320 425 320 279Q320 231 359 204T464 177Q530 177 591 203T689 281V425ZM148 978T526 978Q618 978 691 962T816 903T895 789T923 606V0H689V50Q631 15 564 -4T419 -23Q347 -23 285 -2T178 59T106 152T80 271Q80 618 651 618H689Q688 657 683 686T659 736T607 767T516 778Q445 778 404 756T347 673H106Q148 978 526 978ZM486 1366H770L554 1092H348L486 1366Z"/><glyph unicode="â" horiz-adv-x="1058" d="M689 425H620Q320 425 320 279Q320 231 359 204T464 177Q530 177 591 203T689 281V425ZM148 978T526 978Q618 978 691 962T816 903T895 789T923 606V0H689V50Q631 15 564 -4T419 -23Q347 -23 285 -2T178 59T106 152T80 271Q80 618 651 618H689Q688 657 683 686T659 736T607 767T516 778Q445 778 404 756T347 673H106Q148 978 526 978ZM857 1092H615L524 1219L433 1092H191L425 1382H623L857 1092Z"/><glyph unicode="ã" horiz-adv-x="1058" d="M689 425H620Q320 425 320 279Q320 231 359 204T464 177Q530 177 591 203T689 281V425ZM148 978T526 978Q618 978 691 962T816 903T895 789T923 606V0H689V50Q631 15 564 -4T419 -23Q347 -23 285 -2T178 59T106 152T80 271Q80 618 651 618H689Q688 657 683 686T659 736T607 767T516 778Q445 778 404 756T347 673H106Q148 978 526 978ZM865 1358Q865 1309 850 1265T806 1186T739 1132T653 1112Q633 1112 600 1120T533 1139T474 1158T429 1167Q415 1167 403 1165T380 1157T360 1140T350 1109H161Q161 1157 177 1201T221 1280T288 1336T374 1357Q393 1357 425 1348T491 1328T551 1308T598 1299Q612 1299 623 1301T646 1309T666 1326T677 1358H865Z"/><glyph unicode="ä" horiz-adv-x="1058" d="M689 425H620Q320 425 320 279Q320 231 359 204T464 177Q530 177 591 203T689 281V425ZM148 978T526 978Q618 978 691 962T816 903T895 789T923 606V0H689V50Q631 15 564 -4T419 -23Q347 -23 285 -2T178 59T106 152T80 271Q80 618 651 618H689Q688 657 683 686T659 736T607 767T516 778Q445 778 404 756T347 673H106Q148 978 526 978ZM822 1112H589V1360H822V1112ZM438 1112H203V1360H438V1112Z"/><glyph unicode="å" horiz-adv-x="1058" d="M521 1355Q558 1355 590 1341T647 1301T686 1244T700 1176Q700 1140 686 1108T648 1051T591 1013T521 998Q484 998 452 1011T395 1049T358 1105T344 1176Q344 1212 357 1244T395 1301T451 1340T521 1355ZM521 1106Q551 1106 571 1126T591 1176Q591 1204 571 1225T521 1246Q493 1246 473 1225T453 1176Q453 1147 473 1127T521 1106ZM689 425H620Q320 425 320 279Q320 231 359 204T464 177Q530 177 591 203T689 281V425ZM106 673Q148 978 526 978Q618 978 691 962T816 903T895 789T923 606V0H689V50Q631 15 564 -4T419 -23Q347 -23 285 -2T178 59T106 152T80 271Q80 618 651 618H689Q688 657 683 686T659 736T607 767T516 778Q445 778 404 756T347 673H106Z"/><glyph unicode="æ" horiz-adv-x="1642" d="M1513 299Q1495 221 1457 161T1364 60T1241 -2T1094 -23Q985 -23 900 13T755 119Q718 75 674 47T584 4T497 -17T423 -23Q351 -23 289 -2T182 59T110 152T84 271Q84 358 113 423T207 531T371 596T615 618H653Q652 657 647 686T628 736T588 767T520 778Q449 778 408 756T351 673H110Q152 978 530 978Q627 978 696 960T810 893Q863 935 929 956T1077 978Q1181 978 1264 944T1407 846T1498 689T1530 478V403H892Q928 177 1094 177Q1121 177 1148 185T1199 208T1240 246T1266 299H1513ZM653 425H584Q509 425 459 416T379 389T337 344T324 279Q324 231 363 204T468 177Q501 177 527 183T575 203T616 236T653 281V425ZM1276 602Q1253 690 1201 734T1077 778Q1006 778 963 734T897 602H1276Z"/><glyph unicode="ç" horiz-adv-x="982" d="M932 314Q917 230 881 167T793 62T675 -1T534 -23Q433 -23 350 10T206 107T113 264T80 478Q80 596 112 689T204 846T348 944T534 978Q610 978 675 957T793 895T880 792T931 647H686Q677 716 635 747T534 778Q487 778 448 759T381 703T338 609T322 478Q322 403 337 347T381 253T448 196T534 177Q561 177 586 185T632 211T667 254T686 314H932ZM615 -63Q661 -68 691 -80T738 -110T762 -152T769 -208Q769 -251 753 -285T701 -344T609 -381T475 -394Q465 -394 451 -394T420 -392T389 -390T364 -386V-238Q372 -241 387 -243T419 -247T452 -250T481 -251Q555 -251 555 -198Q555 -149 431 -149V26H615V-63Z"/><glyph unicode="è" horiz-adv-x="1066" d="M969 299Q951 221 913 161T820 60T697 -2T550 -23Q445 -23 359 11T210 109T114 267T80 478Q80 594 113 686T206 844T349 943T533 978Q637 978 720 944T863 846T954 689T986 478V403H328Q346 290 405 234T550 177Q577 177 604 185T655 208T696 246T722 299H969ZM732 602Q709 690 657 734T533 778Q462 778 409 734T333 602H732ZM665 1092H459L243 1366H527L665 1092Z"/><glyph unicode="é" horiz-adv-x="1066" d="M969 299Q951 221 913 161T820 60T697 -2T550 -23Q445 -23 359 11T210 109T114 267T80 478Q80 594 113 686T206 844T349 943T533 978Q637 978 720 944T863 846T954 689T986 478V403H328Q346 290 405 234T550 177Q577 177 604 185T655 208T696 246T722 299H969ZM732 602Q709 690 657 734T533 778Q462 778 409 734T333 602H732ZM526 1366H810L594 1092H388L526 1366Z"/><glyph unicode="ê" horiz-adv-x="1066" d="M969 299Q951 221 913 161T820 60T697 -2T550 -23Q445 -23 359 11T210 109T114 267T80 478Q80 594 113 686T206 844T349 943T533 978Q637 978 720 944T863 846T954 689T986 478V403H328Q346 290 405 234T550 177Q577 177 604 185T655 208T696 246T722 299H969ZM732 602Q709 690 657 734T533 778Q462 778 409 734T333 602H732ZM857 1092H615L524 1219L433 1092H191L425 1382H623L857 1092Z"/><glyph unicode="ë" horiz-adv-x="1066" d="M969 299Q951 221 913 161T820 60T697 -2T550 -23Q445 -23 359 11T210 109T114 267T80 478Q80 594 113 686T206 844T349 943T533 978Q637 978 720 944T863 846T954 689T986 478V403H328Q346 290 405 234T550 177Q577 177 604 185T655 208T696 246T722 299H969ZM732 602Q709 690 657 734T533 778Q462 778 409 734T333 602H732ZM837 1112H604V1360H837V1112ZM453 1112H218V1360H453V1112Z"/><glyph unicode="ì" horiz-adv-x="504" d="M369 0H135V955H369V0ZM408 1092H202L-14 1366H270L408 1092Z"/><glyph unicode="í" horiz-adv-x="504" d="M369 0H135V955H369V0ZM236 1366H520L304 1092H98L236 1366Z"/><glyph unicode="î" horiz-adv-x="504" d="M369 0H135V955H369V0ZM583 1092H341L250 1219L159 1092H-83L151 1382H349L583 1092Z"/><glyph unicode="ï" horiz-adv-x="504" d="M369 0H135V955H369V0ZM566 1112H333V1360H566V1112ZM161 1112H-74V1360H161V1112Z"/><glyph unicode="ð" horiz-adv-x="1066" d="M709 1161Q801 1050 856 953T940 771T977 613T986 478Q986 360 954 267T862 110T719 11T533 -23Q432 -23 349 10T206 107T113 264T80 478Q80 596 112 689T204 846T347 944T533 978Q550 978 566 977T598 974Q590 989 579 1005T555 1036T533 1062T518 1076L329 988L261 1097L424 1178L246 1320H525L604 1261L752 1325L818 1217L709 1161ZM533 177Q579 177 618 196T684 253T727 347T743 478Q743 553 728 609T685 702T618 759T533 778Q486 778 447 759T381 703T338 609T322 478Q322 403 337 347T380 253T447 196T533 177Z"/><glyph unicode="ñ" horiz-adv-x="1066" d="M370 899Q472 978 592 978Q931 978 931 613V0H693V606Q693 695 665 733T570 771Q474 771 370 655V0H135V955H370V899ZM875 1358Q875 1309 860 1265T816 1186T749 1132T663 1112Q643 1112 610 1120T543 1139T484 1158T439 1167Q425 1167 413 1165T390 1157T370 1140T360 1109H171Q171 1157 187 1201T231 1280T298 1336T384 1357Q403 1357 435 1348T501 1328T561 1308T608 1299Q622 1299 633 1301T656 1309T676 1326T687 1358H875Z"/><glyph unicode="ò" horiz-adv-x="1066" d="M533 978Q637 978 720 944T863 846T954 689T986 478Q986 360 954 267T862 110T719 11T533 -23Q432 -23 349 10T206 107T113 264T80 478Q80 596 112 689T204 846T347 944T533 978ZM533 177Q579 177 618 196T684 253T727 347T743 478Q743 553 728 609T685 702T618 759T533 778Q486 778 447 759T381 703T338 609T322 478Q322 403 337 347T380 253T447 196T533 177ZM665 1092H459L243 1366H527L665 1092Z"/><glyph unicode="ó" horiz-adv-x="1066" d="M533 978Q637 978 720 944T863 846T954 689T986 478Q986 360 954 267T862 110T719 11T533 -23Q432 -23 349 10T206 107T113 264T80 478Q80 596 112 689T204 846T347 944T533 978ZM533 177Q579 177 618 196T684 253T727 347T743 478Q743 553 728 609T685 702T618 759T533 778Q486 778 447 759T381 703T338 609T322 478Q322 403 337 347T380 253T447 196T533 177ZM516 1366H800L584 1092H378L516 1366Z"/><glyph unicode="ô" horiz-adv-x="1066" d="M533 978Q637 978 720 944T863 846T954 689T986 478Q986 360 954 267T862 110T719 11T533 -23Q432 -23 349 10T206 107T113 264T80 478Q80 596 112 689T204 846T347 944T533 978ZM533 177Q579 177 618 196T684 253T727 347T743 478Q743 553 728 609T685 702T618 759T533 778Q486 778 447 759T381 703T338 609T322 478Q322 403 337 347T380 253T447 196T533 177ZM862 1092H620L529 1219L438 1092H196L430 1382H628L862 1092Z"/><glyph unicode="õ" horiz-adv-x="1066" d="M533 978Q637 978 720 944T863 846T954 689T986 478Q986 360 954 267T862 110T719 11T533 -23Q432 -23 349 10T206 107T113 264T80 478Q80 596 112 689T204 846T347 944T533 978ZM533 177Q579 177 618 196T684 253T727 347T743 478Q743 553 728 609T685 702T618 759T533 778Q486 778 447 759T381 703T338 609T322 478Q322 403 337 347T380 253T447 196T533 177ZM875 1358Q875 1309 860 1265T816 1186T749 1132T663 1112Q643 1112 610 1120T543 1139T484 1158T439 1167Q425 1167 413 1165T390 1157T370 1140T360 1109H171Q171 1157 187 1201T231 1280T298 1336T384 1357Q403 1357 435 1348T501 1328T561 1308T608 1299Q622 1299 633 1301T656 1309T676 1326T687 1358H875Z"/><glyph unicode="ö" horiz-adv-x="1066" d="M533 978Q637 978 720 944T863 846T954 689T986 478Q986 360 954 267T862 110T719 11T533 -23Q432 -23 349 10T206 107T113 264T80 478Q80 596 112 689T204 846T347 944T533 978ZM533 177Q579 177 618 196T684 253T727 347T743 478Q743 553 728 609T685 702T618 759T533 778Q486 778 447 759T381 703T338 609T322 478Q322 403 337 347T380 253T447 196T533 177ZM832 1112H599V1360H832V1112ZM448 1112H213V1360H448V1112Z"/><glyph unicode="÷" horiz-adv-x="1077" d="M662 820H413V1067H662V820ZM980 539H96V735H980V539ZM662 207H413V454H662V207Z"/><glyph unicode="ø" horiz-adv-x="1066" d="M533 978Q599 978 656 964T762 924L846 1033L978 936L887 818Q935 755 960 670T986 478Q986 360 954 267T862 110T719 11T533 -23Q391 -23 286 41L205 -65L72 30L168 154Q126 216 103 297T80 478Q80 596 112 689T204 846T347 944T533 978ZM533 177Q579 177 618 196T684 253T727 347T743 478Q743 516 739 549T727 611L419 213Q467 177 533 177ZM322 478Q322 414 332 367L629 752Q586 778 533 778Q486 778 447 759T381 703T338 609T322 478Z"/><glyph unicode="ù" horiz-adv-x="1068" d="M698 56Q597 -23 474 -23Q135 -23 135 341V955H374V349Q374 260 403 222T497 184Q605 184 698 299V955H933V0H698V56ZM665 1092H459L243 1366H527L665 1092Z"/><glyph unicode="ú" horiz-adv-x="1068" d="M698 56Q597 -23 474 -23Q135 -23 135 341V955H374V349Q374 260 403 222T497 184Q605 184 698 299V955H933V0H698V56ZM556 1366H840L624 1092H418L556 1366Z"/><glyph unicode="û" horiz-adv-x="1068" d="M698 56Q597 -23 474 -23Q135 -23 135 341V955H374V349Q374 260 403 222T497 184Q605 184 698 299V955H933V0H698V56ZM857 1092H615L524 1219L433 1092H191L425 1382H623L857 1092Z"/><glyph unicode="ü" horiz-adv-x="1068" d="M698 56Q597 -23 474 -23Q135 -23 135 341V955H374V349Q374 260 403 222T497 184Q605 184 698 299V955H933V0H698V56ZM842 1112H609V1360H842V1112ZM458 1112H223V1360H458V1112Z"/><glyph unicode="ý" horiz-adv-x="969" d="M588 25Q556 -59 524 -134T451 -265T358 -355T232 -388Q198 -388 163 -383T89 -365V-141Q136 -160 162 -163T205 -167Q226 -167 248 -152T291 -109T331 -44T367 37L20 955H275L479 354L683 955H939L588 25ZM486 1366H770L554 1092H348L486 1366Z"/><glyph unicode="þ" horiz-adv-x="1064" d="M370 907Q464 978 582 978Q678 978 753 943T879 843T957 687T984 485Q984 370 953 276T866 116T735 13T572 -23Q512 -23 464 -12T370 27V-368H135V1320H370V907ZM370 260Q458 177 563 177Q645 177 693 255T742 485Q742 631 696 704T569 778Q466 778 370 652V260Z"/><glyph unicode="ÿ" horiz-adv-x="969" d="M588 25Q556 -59 524 -134T451 -265T358 -355T232 -388Q198 -388 163 -383T89 -365V-141Q136 -160 162 -163T205 -167Q226 -167 248 -152T291 -109T331 -44T367 37L20 955H275L479 354L683 955H939L588 25ZM791 1112H558V1360H791V1112ZM407 1112H172V1360H407V1112Z"/><glyph unicode="Œ" horiz-adv-x="1845" d="M1712 0H934V97Q871 41 792 10T627 -21Q498 -21 395 25T219 159T107 373T68 661Q68 821 107 947T218 1161T394 1295T627 1342Q693 1342 730 1334T799 1314T855 1284T934 1223V1321H1684V1094H1181V795H1636V570H1181V227H1712V0ZM626 198Q934 198 934 661Q934 1121 631 1121Q558 1121 500 1091T402 1003T341 859T320 661Q320 550 341 464T401 318T497 229T626 198Z"/><glyph unicode="œ" horiz-adv-x="1743" d="M1600 298Q1584 220 1546 160T1452 60T1328 -2T1181 -23Q969 -23 839 113Q779 41 698 9T507 -23Q406 -23 323 10T180 107T87 264T54 478Q54 596 86 689T178 846T321 944T507 978Q714 978 837 843Q899 915 979 946T1165 978Q1270 978 1354 944T1497 846T1587 689T1619 478V403H960Q968 345 988 303T1037 232T1103 191T1181 177Q1210 177 1238 185T1290 208T1331 246T1358 299L1600 298ZM1365 602Q1342 689 1290 733T1165 778Q1096 778 1042 735T967 602H1365ZM507 177Q553 177 592 196T659 253T702 347T718 478Q718 553 703 609T659 702T592 759T507 778Q460 778 421 759T355 703T312 609T296 478Q296 403 311 347T354 253T421 196T507 177Z"/><glyph unicode="Š" horiz-adv-x="1272" d="M674 -21Q532 -21 426 16T249 119T141 276T100 478H339Q346 407 374 356T445 271T545 221T665 204Q725 204 774 216T859 250T914 305T933 378Q933 418 915 447T854 498T744 539T577 579Q464 603 382 636T248 715T170 821T145 959Q145 1042 180 1112T278 1234T431 1313T628 1342Q741 1342 834 1311T996 1222T1102 1080T1144 890H908Q881 1115 635 1115Q515 1115 452 1075T388 964Q388 935 402 914T446 875T524 842T640 813Q699 800 761 786T883 750T996 700T1089 627T1152 526T1175 391Q1175 300 1138 225T1033 95T875 10T674 -21ZM306 1678H548L639 1551L730 1678H972L738 1388H540L306 1678Z"/><glyph unicode="š" horiz-adv-x="971" d="M144 1382H386L477 1255L568 1382H810L576 1092H378L144 1382ZM625 687Q601 778 480 778Q449 778 423 773T378 758T347 733T336 699Q336 684 341 674T368 653T432 632T546 602Q634 581 698 558T806 501T870 418T891 296Q891 228 863 170T784 69T661 2T498 -23Q122 -23 80 301H320Q339 177 496 177Q574 177 614 207T655 280Q655 300 647 313T613 338T544 362T430 392Q344 413 282 434T180 487T121 566T101 685Q101 747 127 800T201 893T317 955T469 978Q834 978 860 687H625Z"/><glyph unicode="Ÿ" horiz-adv-x="1342" d="M1317 1320L795 555V0H548V555L25 1320H323L672 786L1019 1320H1317ZM983 1495H750V1743H983V1495ZM599 1495H364V1743H599V1495Z"/><glyph unicode="Ž" horiz-adv-x="1184" d="M720 1388H522L288 1678H530L621 1551L712 1678H954L720 1388ZM1124 0H60V208L787 1093H130V1320H1101V1111L374 227H1124V0Z"/><glyph unicode="ž" horiz-adv-x="978" d="M600 1092H402L168 1382H410L501 1255L592 1382H834L600 1092ZM918 0H60V185L560 747H92V955H890V772L391 211H918V0Z"/><glyph unicode="ƒ" horiz-adv-x="1026" d="M941 1095Q831 1125 774 1125Q764 1125 755 1122T738 1108T723 1078T709 1025L693 938H860L827 746H657L500 -142Q477 -272 415 -330T238 -388Q216 -388 192 -387T143 -383T98 -376T59 -364V-154Q77 -158 98 -162T140 -171T178 -178T208 -181Q225 -181 235 -175T253 -158T264 -128T273 -86L419 746H255L284 938H452L473 1063Q486 1149 511 1203T572 1288T651 1330T748 1342Q793 1342 840 1337T941 1322V1095Z"/><glyph unicode="ˆ" horiz-adv-x="700" d="M682 1092H440L349 1219L258 1092H16L250 1382H448L682 1092Z"/><glyph unicode="˜" horiz-adv-x="731" d="M717 1358Q717 1309 702 1265T658 1186T591 1132T505 1112Q485 1112 452 1120T385 1139T326 1158T281 1167Q267 1167 255 1165T232 1157T212 1140T202 1109H13Q13 1157 29 1201T73 1280T140 1336T226 1357Q245 1357 277 1348T343 1328T403 1308T450 1299Q464 1299 475 1301T498 1309T518 1326T529 1358H717Z"/><glyph unicode="॑" horiz-adv-x="0" d="M-240 1480H-446V2168H-240V1480Z"/><glyph unicode="॒" horiz-adv-x="0" d="M10 -627H-950V-388H10V-627Z"/><glyph unicode="।" horiz-adv-x="854" d="M635 -107H346V1389H635V-107Z"/><glyph unicode="॥" horiz-adv-x="1254" d="M635 -107H346V1389H635V-107ZM1074 -107H785V1389H1074V-107Z"/><glyph unicode="ஂ" horiz-adv-x="1400" d="M920 1099Q920 1053 902 1013T854 944T783 897T699 880Q653 880 613 898T544 946T497 1015T480 1099Q480 1146 498 1186T546 1256T615 1303T699 1320Q745 1320 785 1303T856 1255T903 1184T920 1099ZM787 1102Q787 1120 780 1135T761 1162T733 1181T699 1188Q681 1188 666 1181T639 1163T620 1136T613 1102Q613 1084 620 1068T638 1040T665 1020T699 1013Q717 1013 733 1020T761 1039T780 1068T787 1102Z"/><glyph unicode="ஃ" horiz-adv-x="1396" d="M920 1099Q920 1053 902 1013T854 944T783 897T699 880Q653 880 613 898T544 946T497 1015T480 1099Q480 1146 498 1186T546 1256T615 1303T699 1320Q745 1320 785 1303T856 1255T903 1184T920 1099ZM787 1102Q787 1120 780 1135T761 1162T733 1181T699 1188Q681 1188 666 1181T639 1163T620 1136T613 1102Q613 1084 620 1068T638 1040T665 1020T699 1013Q717 1013 733 1020T761 1039T780 1068T787 1102ZM520 279Q520 233 502 193T454 124T383 77T299 60Q253 60 213 78T144 126T97 195T80 279Q80 326 98 366T146 436T215 483T299 500Q345 500 385 483T456 435T503 364T520 279ZM387 282Q387 300 380 315T361 342T333 361T299 368Q281 368 266 361T239 343T220 316T213 282Q213 264 220 248T238 220T265 200T299 193Q317 193 333 200T361 219T380 248T387 282ZM1316 279Q1316 233 1298 193T1250 124T1179 77T1095 60Q1049 60 1009 78T940 126T893 195T876 279Q876 326 894 366T942 436T1011 483T1095 500Q1141 500 1181 483T1252 435T1299 364T1316 279ZM1183 282Q1183 300 1176 315T1157 342T1129 361T1095 368Q1077 368 1062 361T1035 343T1016 316T1009 282Q1009 264 1016 248T1034 220T1061 200T1095 193Q1113 193 1129 200T1157 219T1176 248T1183 282Z"/><glyph unicode="அ" horiz-adv-x="2432" d="M2272 1320V-220H1983V197H1700Q1655 78 1575 -10T1382 -155T1126 -241T811 -270Q745 -270 667 -261T509 -232T357 -180T226 -102T135 7T100 149Q100 214 127 265T203 352T319 406T468 425H1446Q1448 439 1450 457T1454 493T1457 526T1458 549Q1458 600 1454 657T1439 767T1412 862T1371 928Q1372 921 1372 912T1373 894T1374 869Q1374 806 1350 743T1278 628T1159 545T995 512Q925 512 871 531T776 580T707 651T661 732T635 815T627 889Q627 956 652 1027T737 1157T891 1252T1126 1290Q1258 1290 1373 1248T1573 1116T1708 885T1758 543Q1758 506 1756 478T1752 425H1983V1320H2272ZM1362 197H480Q450 197 433 192T405 177T392 156T389 130Q389 92 422 62T516 9T659 -24T843 -36Q1040 -36 1168 20T1362 197ZM1109 902Q1109 927 1103 952T1083 998T1051 1031T1006 1044Q975 1044 954 1032T919 999T899 954T892 902Q892 860 900 830T923 782T958 755T1001 746Q1019 746 1038 753T1073 777T1099 825T1109 902Z"/><glyph unicode="ஆ" horiz-adv-x="2882" d="M2272 1320V330Q2318 340 2340 342T2381 345T2411 346Q2508 346 2578 312T2693 219T2760 82T2782 -83Q2782 -144 2768 -213T2720 -353T2630 -487T2491 -601T2295 -680T2034 -710Q1918 -710 1824 -687T1662 -622T1558 -517T1521 -377Q1521 -334 1539 -293T1590 -217T1669 -152T1771 -102L1867 -320Q1821 -340 1821 -383Q1821 -404 1839 -421T1888 -451T1964 -470T2061 -477Q2162 -477 2243 -445T2380 -359T2467 -232T2498 -80Q2498 -48 2491 -14T2467 49T2427 96T2369 115Q2351 115 2336 114T2307 111T2272 102V-220H1983V197H1700Q1655 78 1575 -10T1382 -155T1126 -241T811 -270Q745 -270 667 -261T509 -232T357 -180T226 -102T135 7T100 149Q100 214 127 265T203 352T319 406T468 425H1446Q1448 439 1450 457T1454 493T1457 526T1458 549Q1458 600 1454 657T1439 767T1412 862T1371 928Q1372 921 1373 903T1374 869Q1374 806 1350 743T1278 628T1159 545T995 512Q925 512 871 531T776 580T707 651T661 732T635 815T627 889Q627 956 652 1027T737 1157T891 1252T1126 1290Q1258 1290 1373 1248T1573 1116T1708 885T1758 543Q1758 506 1756 478T1752 425H1983V1320H2272ZM1362 197H480Q450 197 433 192T405 177T392 156T389 130Q389 92 422 62T516 9T659 -24T843 -36Q1040 -36 1168 20T1362 197ZM1109 902Q1109 927 1103 952T1083 998T1051 1031T1006 1044Q975 1044 954 1032T919 999T899 954T892 902Q892 860 900 830T923 782T958 755T1001 746Q1019 746 1038 753T1073 777T1099 825T1109 902Z"/><glyph unicode="இ" horiz-adv-x="2334" d="M2174 0H1885V730Q1885 883 1855 1005T1771 1221T1645 1381T1488 1491T1311 1554T1127 1574Q1015 1574 921 1545T750 1465T616 1343T519 1189T461 1012T441 822Q441 702 456 599T498 405Q607 457 727 483T967 509Q1028 509 1082 506T1187 493T1288 470T1393 433Q1425 558 1425 669Q1425 774 1407 858T1357 1002T1282 1097T1190 1138Q1203 1122 1212 1100T1228 1053T1238 1002T1241 951Q1241 890 1219 834T1156 735T1057 667T927 641Q855 641 798 667T701 737T640 839T618 963Q618 1053 657 1130T767 1263T932 1350T1137 1382Q1259 1382 1364 1334T1547 1197T1669 980T1714 696Q1714 586 1696 480T1643 273Q1685 233 1720 186T1781 84T1820 -34T1834 -167Q1834 -239 1816 -296T1764 -397T1687 -472T1590 -522T1481 -551T1367 -560Q1266 -560 1167 -539T970 -476Q874 -517 771 -538T558 -560Q472 -560 390 -540T243 -474T139 -353T100 -167Q100 -41 144 60T266 242Q212 369 182 508T152 798Q152 934 183 1062T275 1303T421 1510T616 1672T856 1777T1135 1815Q1312 1815 1458 1773T1719 1656T1920 1478T2062 1254T2146 999T2174 726V0ZM1313 214Q1275 231 1231 242T1141 259T1051 268T967 271Q855 271 761 247T593 181Q669 47 767 -46T968 -199Q1083 -123 1169 -15T1313 214ZM1518 6Q1406 -176 1244 -309Q1323 -326 1376 -326Q1411 -326 1444 -316T1504 -286T1545 -235T1561 -165Q1561 -80 1518 6ZM551 -326Q588 -326 623 -323T693 -312Q612 -249 540 -174T407 -11Q373 -82 373 -165Q373 -211 390 -242T433 -291T490 -318T551 -326ZM1020 952Q1020 979 1014 1003T995 1046T967 1076T931 1087Q911 1087 894 1076T865 1045T845 1002T838 952Q838 903 864 877T931 851Q969 851 994 876T1020 952Z"/><glyph unicode="ஈ" horiz-adv-x="1804" d="M1620 1092H1235V0H946V1092H449V0H160V1320H1620V1092ZM1644 643Q1644 609 1632 580T1597 528T1546 494T1482 481Q1448 481 1419 493T1367 528T1333 579T1320 643Q1320 677 1332 706T1367 758T1418 792T1482 805Q1516 805 1545 793T1597 758T1631 707T1644 643ZM859 643Q859 609 847 580T812 528T761 494T697 481Q663 481 634 493T582 528T548 579T535 643Q535 677 547 706T582 758T633 792T697 805Q731 805 760 793T812 758T846 707T859 643Z"/><glyph unicode="உ" horiz-adv-x="2239" d="M2139 0H484Q305 0 224 67T143 266Q143 322 164 374T233 466T355 530T536 554H702Q776 554 822 580T893 645T927 732T936 822Q936 884 919 939T870 1037T793 1103T692 1128Q718 1096 730 1048T743 951Q743 890 721 834T658 735T559 667T429 641Q357 641 300 667T203 737T142 839T120 963Q120 1053 159 1123T269 1242T434 1316T639 1342Q761 1342 869 1308T1059 1210T1188 1052T1236 838Q1236 731 1214 652T1154 516T1065 422T955 364T833 335T707 326H477Q444 326 423 314T402 269Q402 257 409 249T427 237T451 230T477 228H2139V0ZM522 952Q522 979 516 1003T497 1046T469 1076T433 1087Q413 1087 396 1076T367 1045T347 1002T340 952Q340 903 366 877T433 851Q471 851 496 876T522 952Z"/><glyph unicode="ஊ" horiz-adv-x="3043" d="M2943 1092H2789V330H2523V1092Q2492 1092 2462 1086T2409 1061T2372 1010T2357 923V326H2091V859Q2091 921 2069 968T2011 1046T1928 1092T1829 1108Q1786 1108 1745 1095T1669 1052T1611 972T1581 848Q1613 863 1651 870T1718 877Q1794 877 1847 851T1934 782T1983 686T1998 580Q1998 522 1981 471T1927 381T1835 320T1702 297Q1624 297 1568 320T1472 384T1408 477T1370 588T1352 705T1347 819Q1347 922 1378 1013T1470 1172T1622 1280T1832 1320Q1872 1320 1920 1316T2019 1297T2119 1257T2207 1189Q2230 1210 2258 1233T2330 1275T2437 1307T2596 1320H2943V1092ZM1797 575Q1797 627 1773 653T1709 680Q1683 680 1666 669T1639 643T1626 609T1622 575Q1622 533 1646 507T1709 481Q1748 481 1772 507T1797 575ZM2868 0H484Q305 0 224 67T143 266Q143 322 164 374T233 466T355 530T536 554H702Q776 554 822 580T893 645T927 732T936 822Q936 884 919 939T870 1037T793 1103T692 1128Q718 1096 730 1048T743 951Q743 890 721 834T658 735T559 667T429 641Q357 641 300 667T203 737T142 839T120 963Q120 1053 159 1123T269 1242T434 1316T639 1342Q761 1342 869 1308T1059 1210T1188 1052T1236 838Q1236 731 1214 652T1154 516T1065 422T955 364T833 335T707 326H477Q444 326 423 314T402 269Q402 257 409 249T427 237T451 230T477 228H2868V0ZM522 952Q522 979 516 1003T497 1046T469 1076T433 1087Q413 1087 396 1076T367 1045T347 1002T340 952Q340 903 366 877T433 851Q471 851 496 876T522 952Z"/><glyph unicode="எ" horiz-adv-x="1926" d="M1190 0V1092H968Q861 1092 774 1067T620 996T508 889T438 752Q446 753 464 754T501 757T539 759T567 760Q673 760 748 723T870 629T940 501T962 366Q962 292 937 223T862 98T737 10T562 -23Q462 -23 381 18T241 130T152 298T120 506Q120 674 178 822T344 1081T605 1256T950 1320H1826V1092H1479V0H1190ZM432 502Q426 482 423 460T420 416Q420 371 430 333T461 268T510 226T575 211Q607 211 630 224T668 260T690 308T697 362Q697 384 692 412T672 466T631 508T561 526Q530 526 492 521T432 502Z"/><glyph unicode="ஏ" horiz-adv-x="1926" d="M1826 1320V1092H1479V0L906 -515L745 -354L1190 44V1092H968Q861 1092 774 1067T620 996T508 889T438 752Q446 753 464 754T501 757T539 759T567 760Q673 760 748 723T870 629T940 501T962 366Q962 292 937 223T862 98T737 10T562 -23Q462 -23 381 18T241 130T152 298T120 506Q120 674 178 822T344 1081T605 1256T950 1320H1826ZM432 502Q426 482 423 460T420 416Q420 371 430 333T461 268T510 226T575 211Q607 211 630 224T668 260T690 308T697 362Q697 384 692 412T672 466T631 508T561 526Q530 526 492 521T432 502Z"/><glyph unicode="ஐ" horiz-adv-x="2079" d="M1269 634H980V795Q980 882 961 942T908 1039T826 1094T719 1111Q707 1111 693 1108T672 1100Q690 1093 714 1077T761 1032T800 956T816 844Q816 771 789 710T716 605T606 537T470 512Q396 512 332 535T221 606T147 723T120 889Q120 994 167 1077T291 1220T468 1310T674 1342Q764 1342 834 1331T957 1302T1048 1262T1111 1219Q1142 1253 1179 1277T1258 1315T1342 1335T1426 1342Q1564 1342 1664 1304T1830 1200T1927 1045T1959 851Q1959 740 1938 654T1881 502T1795 391T1690 313T1574 263T1457 235T1346 222T1250 219H866Q786 219 711 206T578 159T486 64T451 -90Q451 -153 472 -197T531 -270T616 -312T717 -326Q795 -326 846 -296T926 -215T968 -102T980 28H1269Q1269 -54 1273 -119T1296 -231T1357 -301T1472 -326Q1520 -326 1554 -314T1610 -281T1643 -232T1654 -170Q1654 -59 1512 -30L1558 196Q1664 184 1736 148T1853 62T1916 -47T1935 -163Q1935 -251 1912 -324T1833 -449T1689 -531T1469 -560Q1426 -560 1373 -553T1268 -528T1173 -482T1107 -410Q1065 -454 1015 -483T912 -529T805 -553T703 -560Q598 -560 499 -535T323 -453T198 -308T151 -90Q151 14 180 94T261 235T381 335T531 401T700 436T875 447H1246Q1354 447 1432 467T1560 535T1635 658T1659 846Q1659 917 1639 967T1588 1050T1518 1096T1444 1111Q1393 1111 1360 1096T1306 1046T1277 956T1269 822V634ZM576 855Q576 881 568 905T546 947T514 977T473 988Q449 988 430 977T397 946T376 903T368 855Q368 830 376 806T398 764T431 734T473 722Q495 722 514 733T546 762T568 805T576 855Z"/><glyph unicode="ஒ" horiz-adv-x="2430" d="M882 -84Q845 -116 824 -153T802 -226Q802 -301 836 -334T938 -367Q979 -367 1017 -347T1092 -294T1164 -222T1235 -145T1304 -78T1374 -32Q1294 -16 1230 22T1120 115T1050 240T1025 390Q1025 502 1075 586T1208 726T1396 809T1611 837H1747V613Q1725 612 1712 606T1693 591T1684 568T1682 537Q1682 501 1713 481T1807 461Q1867 461 1906 485T1968 544T2001 619T2010 691Q2010 771 1969 833T1860 941T1702 1020T1516 1071T1324 1099T1146 1108Q1039 1108 952 1099T793 1072T663 1025T557 959Q584 959 618 949T690 918T762 867T825 795T870 701T887 586Q887 521 862 455T788 336T670 248T512 214Q422 214 350 251T226 351T148 492T120 655Q120 775 166 872T292 1046T475 1178T694 1270T927 1324T1154 1342Q1317 1342 1466 1322T1743 1264T1976 1170T2155 1042T2269 883T2310 694Q2310 594 2274 509T2173 361T2016 264T1811 228Q1741 228 1671 245T1544 300T1451 400T1413 555Q1388 546 1370 529T1339 492T1321 450T1315 409Q1315 243 1478 181Q1594 138 1859 138V-96Q1779 -96 1716 -117T1598 -174T1497 -255T1403 -348T1309 -440T1204 -521T1081 -578T929 -600Q839 -600 765 -577T638 -509T556 -398T527 -246Q527 -73 703 74L882 -84ZM620 591Q620 621 612 647T589 693T552 724T501 736Q474 736 453 725T416 695T392 649T384 591Q384 562 391 536T414 491T450 460T501 448Q528 448 550 459T587 489T611 535T620 591Z"/><glyph unicode="ஓ" horiz-adv-x="2430" d="M1859 -96Q1789 -96 1734 -122T1633 -192T1546 -290T1462 -403T1370 -516T1260 -614T1123 -683T946 -710Q847 -710 763 -680T617 -596T521 -467T486 -302Q486 -222 511 -155T584 -40T700 36T854 63Q913 63 965 44T1057 -11T1120 -93T1143 -198Q1143 -255 1121 -301T1058 -381T965 -433T848 -451Q837 -451 822 -449T797 -446Q833 -470 872 -476T941 -483Q1005 -483 1056 -460T1149 -399T1227 -313T1296 -215T1362 -118T1432 -33Q1343 -26 1269 8T1140 96T1056 221T1025 372Q1025 483 1067 569T1191 715T1390 806T1661 837H1747V613Q1711 611 1697 596T1682 548Q1682 499 1713 480T1807 461Q1867 461 1906 485T1968 544T2001 619T2010 691Q2010 771 1969 833T1860 941T1702 1020T1516 1071T1324 1099T1146 1108Q1039 1108 952 1099T793 1072T663 1025T557 959Q584 959 618 949T690 918T762 867T825 795T870 701T887 586Q887 521 862 455T788 336T670 248T512 214Q422 214 350 251T226 351T148 492T120 655Q120 775 166 872T292 1046T475 1178T694 1270T927 1324T1154 1342Q1317 1342 1466 1322T1743 1264T1976 1170T2155 1042T2269 883T2310 694Q2310 594 2274 509T2173 361T2016 264T1811 228Q1741 228 1670 245T1542 301T1449 402T1413 555Q1388 546 1370 529T1339 492T1321 450T1315 409Q1315 243 1478 181Q1594 138 1859 138V-96ZM620 591Q620 621 612 647T589 693T552 724T501 736Q474 736 453 725T416 695T392 649T384 591Q384 562 391 536T414 491T450 460T501 448Q528 448 550 459T587 489T611 535T620 591ZM721 -208Q744 -237 774 -251T850 -266Q889 -266 911 -244T933 -185Q933 -151 909 -132T842 -113Q807 -113 776 -138T721 -208Z"/><glyph unicode="ஔ" horiz-adv-x="4651" d="M882 -84Q845 -116 824 -153T802 -226Q802 -301 836 -334T938 -367Q979 -367 1017 -347T1092 -294T1164 -222T1235 -145T1304 -78T1374 -32Q1294 -16 1230 22T1120 115T1050 240T1025 390Q1025 502 1075 586T1208 726T1396 809T1611 837H1747V613Q1725 612 1712 606T1693 591T1684 568T1682 537Q1682 501 1713 481T1807 461Q1867 461 1906 485T1968 544T2001 619T2010 691Q2010 771 1969 833T1860 941T1702 1020T1516 1071T1324 1099T1146 1108Q1039 1108 952 1099T793 1072T663 1025T557 959Q584 959 618 949T690 918T762 867T825 795T870 701T887 586Q887 521 862 455T788 336T670 248T512 214Q422 214 350 251T226 351T148 492T120 655Q120 775 166 872T292 1046T475 1178T694 1270T927 1324T1154 1342Q1317 1342 1466 1322T1743 1264T1976 1170T2155 1042T2269 883T2310 694Q2310 594 2274 509T2173 361T2016 264T1811 228Q1741 228 1671 245T1544 300T1451 400T1413 555Q1388 546 1370 529T1339 492T1321 450T1315 409Q1315 243 1478 181Q1594 138 1859 138V-96Q1779 -96 1716 -117T1598 -174T1497 -255T1403 -348T1309 -440T1204 -521T1081 -578T929 -600Q839 -600 765 -577T638 -509T556 -398T527 -246Q527 -73 703 74L882 -84ZM620 591Q620 621 612 647T589 693T552 724T501 736Q474 736 453 725T416 695T392 649T384 591Q384 562 391 536T414 491T450 460T501 448Q528 448 550 459T587 489T611 535T620 591ZM4551 1320V1092H4329V0H4045V1092H4012Q3879 1092 3812 1000T3745 723V0H3456V741Q3456 833 3431 902T3359 1016T3245 1085T3095 1108Q3016 1108 2954 1080T2848 1003T2776 891T2737 754Q2745 755 2760 756T2793 758T2826 759T2851 760Q2957 760 3032 723T3154 629T3224 501T3246 366Q3246 292 3220 223T3144 98T3024 10T2866 -23Q2765 -23 2685 21T2549 143T2463 327T2433 559Q2433 653 2449 747T2501 929T2590 1091T2719 1222T2892 1310T3111 1342Q3206 1342 3280 1328T3414 1290T3521 1236T3610 1174Q3677 1245 3779 1282T4009 1320H4551ZM2733 502Q2734 453 2739 402T2760 308T2801 238T2869 211Q2897 211 2918 224T2953 260T2974 308T2981 362Q2981 384 2976 412T2956 466T2915 508T2845 526Q2814 526 2785 521T2733 502Z"/><glyph unicode="க" horiz-adv-x="1816" d="M1436 1320V1092H1171V830H1228Q1318 830 1402 804T1551 730T1656 611T1696 452Q1696 352 1663 269T1567 124T1416 25T1219 -21V212Q1307 225 1351 287T1396 437Q1396 521 1338 560T1171 600V540Q1171 484 1165 421T1140 295T1087 175T994 73T852 3T651 -23Q578 -23 511 -1T384 59T277 147T193 253T139 367T120 481Q120 536 133 588T174 682T249 754T362 798V1320H1436ZM882 830V1092H651V830H882ZM882 602H544Q520 602 498 597T458 577T431 540T420 481Q420 437 441 390T497 302T574 237T660 211Q723 211 765 234T834 298T871 393T882 510V602Z"/><glyph unicode="ங" horiz-adv-x="2388" d="M2228 0H1188V228Q1240 229 1281 245T1350 289T1393 357T1408 444Q1408 490 1395 532T1356 606T1295 657T1216 676Q1147 676 1100 654T1018 595V0H729V1092H449V0H160V1320H1387V1092H1018V873Q1060 894 1116 902T1223 910Q1340 910 1430 874T1582 776T1676 637T1708 475Q1708 407 1692 345T1643 228H1939V1320H2228V0Z"/><glyph unicode="ச" horiz-adv-x="1585" d="M1436 1320V1092H1171V830H1485V602H1171V540Q1171 484 1165 421T1140 295T1087 175T994 73T852 3T651 -23Q578 -23 511 -1T384 59T277 147T193 253T139 367T120 481Q120 536 133 588T174 682T249 754T362 798V1320H1436ZM882 830V1092H651V830H882ZM882 602H544Q520 602 498 597T458 577T431 540T420 481Q420 437 441 390T497 302T574 237T660 211Q723 211 765 234T834 298T871 393T882 510V602Z"/><glyph unicode="ஜ" horiz-adv-x="2079" d="M1269 634H980V795Q980 882 961 942T908 1039T826 1094T719 1111Q707 1111 693 1108T672 1100Q690 1093 714 1077T761 1032T800 956T816 844Q816 771 789 710T716 605T606 537T470 512Q396 512 332 535T221 606T147 723T120 889Q120 994 167 1077T291 1220T468 1310T674 1342Q764 1342 834 1331T957 1302T1048 1262T1111 1219Q1142 1253 1179 1277T1258 1315T1342 1335T1426 1342Q1564 1342 1664 1304T1830 1200T1927 1045T1959 851Q1959 740 1938 654T1881 502T1795 391T1690 313T1574 263T1457 235T1346 222T1250 219H866Q786 219 711 206T578 159T486 64T451 -90Q451 -153 472 -197T531 -270T616 -312T717 -326Q778 -326 833 -303T936 -246T1022 -174T1089 -106Q1147 -45 1199 5T1305 92T1417 148T1545 168Q1641 168 1714 144T1836 74T1910 -33T1935 -172Q1935 -246 1912 -316T1842 -440T1722 -527T1550 -560Q1499 -560 1448 -548T1349 -507T1263 -434T1198 -324Q1145 -382 1085 -426T960 -500T830 -545T703 -560Q598 -560 499 -535T323 -453T198 -308T151 -90Q151 14 180 94T261 235T381 335T531 401T700 436T875 447H1246Q1354 447 1432 467T1560 535T1635 658T1659 846Q1659 917 1639 967T1588 1050T1518 1096T1444 1111Q1393 1111 1360 1096T1306 1046T1277 956T1269 822V634ZM1694 -187Q1694 -147 1680 -122T1645 -83T1599 -65T1550 -60Q1522 -60 1499 -66T1456 -83T1421 -106T1393 -132Q1421 -234 1463 -280T1570 -326Q1594 -326 1616 -317T1655 -290T1683 -246T1694 -187ZM576 855Q576 881 568 905T546 947T514 977T473 988Q449 988 430 977T397 946T376 903T368 855Q368 830 376 806T398 764T431 734T473 722Q495 722 514 733T546 762T568 805T576 855Z"/><glyph unicode="ஞ" horiz-adv-x="2681" d="M1672 0V1092H1510Q1403 1092 1316 1067T1162 996T1050 889T980 752Q988 753 1006 754T1043 757T1081 759T1109 760Q1215 760 1290 723T1412 629T1482 501T1504 366Q1504 292 1479 223T1404 98T1279 10T1104 -23Q1004 -23 923 18T783 130T694 298T662 506Q662 674 720 822T886 1081T1147 1256T1492 1320H2308V1092H1961V728Q2003 743 2046 751T2132 760Q2242 760 2323 722T2457 619T2535 468T2561 288Q2561 138 2517 18T2395 -197T2211 -360T1981 -473T1721 -538T1446 -560Q1256 -560 1084 -528T765 -431T499 -271T295 -48T166 237T120 584Q120 675 136 774T187 970T277 1160T413 1332L630 1181Q589 1140 551 1079T484 940T438 767T420 566Q420 420 456 297T560 75T720 -99T928 -224T1173 -300T1446 -326Q1550 -326 1651 -312T1842 -266T2009 -185T2142 -66T2229 95T2261 301Q2261 362 2250 405T2220 475T2174 514T2116 526Q2074 526 2033 510Q1994 496 1961 477V0H1672ZM974 502Q968 482 965 460T962 416Q962 371 972 333T1003 268T1052 226T1117 211Q1149 211 1172 224T1210 260T1232 308T1239 362Q1239 384 1234 412T1214 466T1173 508T1103 526Q1072 526 1034 521T974 502Z"/><glyph unicode="ட" horiz-adv-x="1909" d="M1809 0H160V1320H449V228H1809V0Z"/><glyph unicode="ண" horiz-adv-x="3460" d="M3360 1320V1092H3140V0H2851V1092H2713Q2693 1092 2666 1090T2612 1084T2560 1073T2517 1060Q2603 951 2649 823T2696 555Q2696 433 2673 328T2602 144T2481 22T2309 -23Q2207 -23 2134 23T2015 146T1946 326T1924 543Q1924 617 1937 690T1975 831T2034 958T2112 1063Q2088 1079 2050 1088T1970 1101T1890 1107T1828 1108Q1765 1108 1706 1098T1605 1068Q1645 1019 1678 962T1736 841T1773 705T1787 555Q1787 420 1758 313T1677 131T1554 17T1399 -23Q1291 -23 1218 25T1099 152T1035 333T1015 543Q1015 626 1028 696T1065 829T1123 950T1199 1068Q1142 1091 1076 1099T919 1108Q851 1108 783 1091T656 1043T551 969T481 874Q495 876 512 877T544 879Q630 879 693 842T798 742T860 597T880 426Q880 339 857 258T789 115T678 15T523 -23Q451 -23 394 4T291 76T214 181T161 305T130 434T120 555Q120 670 148 773T229 963T354 1121T515 1240T704 1315T913 1342Q977 1342 1043 1337T1173 1319T1297 1284T1412 1226Q1440 1248 1484 1269T1586 1306T1711 1332T1854 1342Q1910 1342 1974 1334T2100 1310T2219 1275T2318 1230Q2349 1245 2391 1261T2482 1290T2587 1311T2701 1320H3360ZM2309 900Q2289 868 2270 829T2237 745T2213 649T2204 540Q2204 467 2209 407T2227 303T2260 235T2309 211Q2340 211 2360 242T2393 321T2411 427T2416 538Q2416 611 2406 668T2379 769T2344 845T2309 900ZM1507 513Q1507 585 1501 638T1481 734T1448 817T1399 900Q1344 810 1320 717T1295 518Q1295 456 1301 401T1321 303T1354 236T1399 211Q1424 211 1444 236T1478 303T1499 399T1507 513ZM400 621Q398 610 397 597T396 566Q396 518 404 457T428 341T467 249T522 211Q547 211 562 231T586 282T597 351T600 428Q600 439 599 459T593 503T581 552T561 598T532 632T490 645Q473 645 451 642T400 621Z"/><glyph unicode="த" horiz-adv-x="1797" d="M1436 1320V1092H1171V830H1197Q1291 830 1377 805T1530 727T1637 594T1677 404V246Q1677 117 1651 5T1564 -190T1400 -320T1145 -368H478Q416 -368 379 -389T322 -445T296 -520T289 -600H0Q0 -485 27 -399T115 -255T270 -169T503 -140H1162Q1230 -140 1273 -112T1342 -32T1378 92T1388 251V395Q1388 440 1378 477T1343 541T1280 584T1184 602H1171V540Q1171 484 1165 421T1140 295T1087 175T994 73T852 3T651 -23Q578 -23 511 -1T384 59T277 147T193 253T139 367T120 481Q120 536 133 588T174 682T249 754T362 798V1320H1436ZM882 602H544Q520 602 498 597T458 577T431 540T420 481Q420 437 441 390T497 302T574 237T660 211Q723 211 765 234T834 298T871 393T882 510V602ZM882 830V1092H651V830H882Z"/><glyph unicode="ந" horiz-adv-x="1728" d="M1296 1092H1018V825Q1047 836 1085 845T1165 855Q1278 855 1361 820T1499 723T1581 574T1608 384Q1608 299 1597 211T1560 39T1491 -119T1385 -248T1235 -336T1036 -368H518Q456 -368 419 -389T362 -445T336 -520T329 -600H40Q40 -485 67 -399T155 -255T310 -169T543 -140H1036Q1126 -140 1179 -98T1261 13T1299 170T1308 353Q1308 411 1299 460T1271 545T1222 601T1149 621Q1131 621 1109 615T1066 593T1032 551T1018 484V0H729V1092H449V0H160V1320H1296V1092Z"/><glyph unicode="ன" horiz-adv-x="2551" d="M2451 1092H2231V0H1942V1092H1844Q1819 1092 1785 1091T1717 1088T1652 1081T1605 1068Q1645 1019 1678 962T1736 841T1773 705T1787 555Q1787 420 1758 313T1677 131T1554 17T1399 -23Q1291 -23 1218 25T1099 152T1035 333T1015 543Q1015 626 1028 696T1065 829T1123 950T1199 1068Q1142 1091 1076 1099T919 1108Q851 1108 783 1091T656 1043T551 969T481 874Q495 876 512 877T544 879Q630 879 693 842T798 742T860 597T880 426Q880 339 857 258T789 115T678 15T523 -23Q451 -23 394 4T291 76T214 181T161 305T130 434T120 555Q120 670 148 773T229 963T354 1121T515 1240T704 1315T913 1342Q977 1342 1043 1337T1173 1319T1297 1284T1412 1226Q1477 1261 1544 1280T1681 1308T1823 1318T1969 1320H2451V1092ZM1507 513Q1507 585 1501 638T1481 734T1448 817T1399 900Q1344 810 1320 717T1295 518Q1295 456 1301 401T1321 303T1354 236T1399 211Q1424 211 1444 236T1478 303T1499 399T1507 513ZM400 621Q398 610 397 597T396 566Q396 518 404 457T428 341T467 249T522 211Q547 211 562 231T586 282T597 351T600 428Q600 439 599 459T593 503T581 552T561 598T532 632T490 645Q473 645 451 642T400 621Z"/><glyph unicode="ப" horiz-adv-x="1629" d="M160 1320H449V228H1180V1320H1469V0H160V1320Z"/><glyph unicode="ம" horiz-adv-x="2065" d="M160 0V1320H449V228H889V877Q889 977 912 1062T986 1210T1119 1307T1320 1342Q1436 1342 1524 1307T1678 1211T1786 1070T1856 900T1894 716T1905 535V320Q1905 218 1878 156T1800 59T1674 12T1504 0H160ZM1178 228H1505Q1521 228 1540 231T1577 243T1605 271T1616 320V532Q1616 587 1610 651T1590 780T1554 903T1499 1008T1424 1080T1326 1108Q1257 1108 1218 1047T1178 877V228Z"/><glyph unicode="ய" horiz-adv-x="2120" d="M1960 0H758V104Q731 80 701 58T633 17T546 -12T429 -23Q362 -23 312 -2T228 60T177 157T160 285V1320H449V378Q449 345 451 315T461 261T488 225T538 211Q577 211 616 240T686 311T738 398T758 477V1320H1047V228H1671V1320H1960V0Z"/><glyph unicode="ர" horiz-adv-x="1398" d="M347 -354L792 44V1092H449V0H160V1320H1298V1092H1081V0L508 -515L347 -354Z"/><glyph unicode="ற" horiz-adv-x="1967" d="M1073 0H792V933Q792 967 782 998T749 1054T692 1094T608 1109Q564 1109 534 1095T484 1056T457 1002T449 939V0H160V970Q160 1046 195 1113T288 1232T423 1312T582 1342Q710 1342 804 1308T957 1203Q1087 1342 1291 1342Q1427 1342 1531 1300T1705 1169T1811 944T1847 621Q1847 426 1814 277T1724 18T1590 -166T1425 -285T1242 -349T1054 -368H518Q456 -368 419 -389T362 -445T336 -520T329 -600H40Q40 -485 67 -399T155 -255T310 -169T543 -140H1054Q1158 -140 1248 -102T1404 25T1509 258T1547 614Q1547 669 1544 727T1532 840T1506 944T1460 1029T1389 1087T1289 1109Q1241 1109 1202 1096T1134 1058T1089 998T1073 918V0Z"/><glyph unicode="ல" horiz-adv-x="2392" d="M1649 1323Q1806 1322 1921 1270T2112 1128T2225 920T2262 667Q2262 524 2224 398T2110 179T1924 31T1667 -23Q1404 -23 1274 128T1127 593Q1123 661 1119 725T1104 847T1072 952T1015 1034T925 1088T792 1108Q713 1108 651 1080T545 1003T473 891T434 754Q442 755 457 756T490 758T523 759T548 760Q654 760 729 723T851 629T921 501T943 366Q943 292 917 223T841 98T721 10T563 -23Q462 -23 382 21T246 143T160 327T130 559Q130 653 146 747T198 929T287 1091T416 1222T589 1310T808 1342Q959 1342 1071 1300T1258 1171T1372 953T1416 644Q1419 527 1436 445T1486 310T1565 235T1675 211Q1731 211 1774 228T1849 276T1902 349T1937 439T1956 539T1962 643Q1962 719 1946 798T1894 941T1797 1046T1649 1089V1323ZM430 502Q431 453 436 402T457 308T498 238T566 211Q594 211 615 224T650 260T671 308T678 362Q678 384 673 412T653 466T612 508T542 526Q511 526 482 521T430 502Z"/><glyph unicode="ள" horiz-adv-x="2338" d="M2238 1320V1092H2016V0H1732V1092H1699Q1566 1092 1499 1000T1432 723V0H1143V741Q1143 833 1118 902T1046 1016T932 1085T782 1108Q703 1108 641 1080T535 1003T463 891T424 754Q432 755 447 756T480 758T513 759T538 760Q644 760 719 723T841 629T911 501T933 366Q933 292 907 223T831 98T711 10T553 -23Q452 -23 372 21T236 143T150 327T120 559Q120 653 136 747T188 929T277 1091T406 1222T579 1310T798 1342Q893 1342 967 1328T1101 1290T1208 1236T1297 1174Q1364 1245 1466 1282T1696 1320H2238ZM420 502Q421 453 426 402T447 308T488 238T556 211Q584 211 605 224T640 260T661 308T668 362Q668 384 663 412T643 466T602 508T532 526Q501 526 472 521T420 502Z"/><glyph unicode="ழ" horiz-adv-x="2065" d="M160 0V1320H449V228H889V877Q889 977 912 1062T986 1210T1119 1307T1320 1342Q1436 1342 1524 1307T1678 1211T1786 1070T1856 900T1894 716T1905 535V320Q1905 218 1878 156T1800 59T1674 12T1504 0H1186Q1202 -59 1228 -86T1298 -125T1403 -137H1639V-371H1412Q1367 -371 1329 -382T1258 -412T1193 -458T1129 -515Q1085 -556 1036 -599T920 -678T765 -737T557 -760Q476 -760 408 -736T289 -669T211 -571T183 -449Q183 -383 209 -327T282 -228T392 -162T527 -138H619V-373Q572 -373 543 -378T498 -393T477 -420T472 -458Q472 -473 482 -485T507 -507T543 -521T583 -526Q637 -526 681 -516T765 -487T844 -439T928 -372Q957 -348 986 -322T1052 -275Q1025 -262 996 -235T944 -165T904 -61Q897 -33 893 0H160ZM1178 228H1505Q1521 228 1540 231T1577 243T1605 271T1616 320V532Q1616 587 1610 651T1590 780T1554 903T1499 1008T1424 1080T1326 1108Q1257 1108 1218 1047T1178 877V228Z"/><glyph unicode="வ" horiz-adv-x="2410" d="M1125 233Q1177 253 1213 297T1271 396T1303 510T1313 620Q1313 732 1278 822T1181 976T1037 1074T862 1108Q780 1108 705 1079T571 999T473 880T424 734Q440 742 464 747T512 755T558 759T588 760Q694 760 769 723T891 629T961 501T983 366Q983 292 957 223T881 98T761 10T603 -23Q491 -23 402 29T250 168T154 371T120 611Q120 706 143 797T211 970T320 1119T464 1237T639 1314T841 1342Q1019 1342 1161 1286T1404 1133T1559 905T1613 622Q1613 575 1606 520T1585 412T1548 310T1496 228H1961V1320H2250V0H1125V233ZM420 502Q421 453 434 402T472 308T530 238T606 211Q634 211 655 224T690 260T711 308T718 362Q718 384 712 414T689 471T644 517T572 536Q509 536 476 526T420 502Z"/><glyph unicode="ஶ" horiz-adv-x="2438" d="M449 1320V348Q449 304 455 278T475 236T506 216T549 211Q612 211 654 241T721 318T757 418T768 518V1320H2278V515Q2278 455 2268 393T2235 270T2174 157T2078 64T1943 1T1764 -23Q1680 -23 1619 -10T1516 28T1447 87T1406 162T1386 251T1381 348V1092H1057V515Q1057 455 1047 393T1014 270T953 157T857 64T722 1T543 -23Q459 -23 398 -10T295 28T226 87T185 162T165 251T160 348V1320H449ZM1989 1092H1670V348Q1670 304 1676 278T1696 236T1727 216T1770 211Q1833 211 1875 241T1942 318T1978 418T1989 518V1092Z"/><glyph unicode="ஷ" horiz-adv-x="2962" d="M2813 0H2344L1680 -543L1511 -371L1946 0H1125V233Q1177 253 1213 297T1271 396T1303 510T1313 620Q1313 732 1278 822T1181 976T1037 1074T862 1108Q780 1108 705 1079T571 999T473 880T424 734Q440 742 464 747T512 755T558 759T588 760Q694 760 769 723T891 629T961 501T983 366Q983 292 957 223T881 98T761 10T603 -23Q491 -23 402 29T250 168T154 371T120 611Q120 706 143 797T211 970T320 1119T464 1237T639 1314T841 1342Q1019 1342 1161 1286T1404 1133T1559 905T1613 622Q1613 575 1606 520T1585 412T1548 310T1496 228H2117Q2071 281 2024 335Q1956 413 1901 494T1810 661T1775 843Q1775 945 1813 1036T1920 1195T2082 1302T2287 1342Q2428 1342 2534 1302T2710 1190T2816 1020T2852 808Q2852 767 2846 718T2821 609T2768 482T2676 338Q2637 285 2586 228H2813V0ZM2358 372Q2424 442 2464 502T2526 618T2555 726T2563 831Q2563 891 2543 942T2487 1029T2406 1087T2307 1108Q2262 1108 2219 1088T2141 1032T2085 950T2064 851Q2064 766 2139 643T2358 372ZM420 502Q421 453 434 402T472 308T530 238T606 211Q634 211 655 224T690 260T711 308T718 362Q718 384 712 414T689 471T644 517T572 536Q509 536 476 526T420 502Z"/><glyph unicode="ஸ" horiz-adv-x="3221" d="M2479 1323Q2636 1322 2752 1270T2946 1128T3062 920T3101 667Q3101 524 3064 398T2952 179T2764 31T2497 -23Q2365 -23 2268 14T2106 128T2006 320T1962 593Q1957 692 1946 785T1904 950T1817 1065T1666 1108Q1613 1108 1570 1084T1496 1015T1449 906T1432 760V0H1143V741Q1143 833 1118 902T1046 1016T932 1085T782 1108Q703 1108 641 1080T535 1003T463 891T424 754Q432 755 447 756T480 758T513 759T538 760Q644 760 719 723T841 629T911 501T933 366Q933 292 907 223T831 98T711 10T553 -23Q452 -23 372 21T236 143T150 327T120 559Q120 653 136 747T188 929T277 1091T406 1222T579 1310T798 1342Q893 1342 967 1328T1101 1290T1208 1236T1297 1174Q1328 1207 1368 1237T1457 1291T1559 1327T1669 1341Q1813 1341 1919 1297T2096 1166T2204 948T2246 644Q2249 527 2266 445T2316 310T2395 235T2505 211Q2589 211 2646 247T2737 342T2786 477T2801 630Q2801 706 2788 783T2740 925T2642 1034T2479 1089V1323ZM420 502Q421 453 426 402T447 308T488 238T556 211Q584 211 605 224T640 260T661 308T668 362Q668 384 663 412T643 466T602 508T532 526Q501 526 472 521T420 502Z"/><glyph unicode="ஹ" horiz-adv-x="3722" d="M2204 0H1125V233Q1177 253 1213 297T1271 396T1303 510T1313 620Q1313 732 1278 822T1181 976T1037 1074T862 1108Q780 1108 705 1079T571 999T473 880T424 734Q440 742 464 747T512 755T558 759T588 760Q694 760 769 723T891 629T961 501T983 366Q983 292 957 223T881 98T761 10T603 -23Q491 -23 402 29T250 168T154 371T120 611Q120 706 143 797T211 970T320 1119T464 1237T639 1314T841 1342Q1019 1342 1161 1286T1404 1133T1559 905T1613 622Q1613 575 1606 520T1585 412T1548 310T1496 228H1915V970Q1915 1046 1950 1113T2043 1232T2178 1312T2337 1342Q2465 1342 2559 1308T2712 1203Q2842 1342 3046 1342Q3182 1342 3286 1300T3460 1169T3566 944T3602 621Q3602 426 3569 277T3479 18T3345 -166T3180 -285T2997 -349T2809 -368H543Q481 -368 444 -389T387 -445T361 -520T354 -600H65Q65 -485 92 -399T180 -255T335 -169T568 -140H2809Q2913 -140 3003 -102T3159 25T3264 258T3302 614Q3302 669 3299 727T3287 840T3261 944T3215 1029T3144 1087T3044 1109Q2996 1109 2957 1096T2889 1058T2844 998T2828 918V0H2547V933Q2547 967 2537 998T2504 1054T2447 1094T2363 1109Q2319 1109 2289 1095T2239 1056T2212 1002T2204 939V0ZM420 502Q421 453 434 402T472 308T530 238T606 211Q634 211 655 224T690 260T711 308T718 362Q718 384 712 414T689 471T644 517T572 536Q509 536 476 526T420 502Z"/><glyph unicode="ா" horiz-adv-x="1423" d="M1323 1092H1049V0H760V1092H449V0H160V1320H1323V1092Z"/><glyph unicode="ி" horiz-adv-x="467" d="M319 0H30V1109Q30 1245 13 1341T-52 1499T-181 1588T-394 1616Q-438 1616 -481 1605T-559 1573T-615 1519T-636 1444Q-636 1426 -629 1405T-609 1365T-577 1333T-534 1320V1087Q-639 1087 -713 1116T-834 1195T-903 1308T-925 1441Q-925 1537 -880 1613T-759 1741T-585 1822T-382 1850Q-245 1850 -140 1826T44 1758T174 1653T259 1518T305 1359T319 1184V0Z"/><glyph unicode="ீ" horiz-adv-x="0" d="M141 1550Q141 1492 117 1444T54 1362T-35 1309T-139 1290Q-192 1290 -241 1308T-329 1358T-391 1434T-415 1532Q-415 1577 -396 1615T-342 1689Q-354 1691 -366 1692T-391 1693Q-438 1693 -488 1681T-579 1643T-648 1579T-675 1488Q-675 1450 -665 1420T-635 1367T-590 1333T-532 1321V1100Q-627 1110 -700 1141T-824 1223T-899 1339T-925 1485Q-925 1550 -901 1605T-835 1706T-741 1785T-628 1842T-510 1878T-398 1890Q-333 1890 -268 1884T-142 1863T-31 1823T59 1761T119 1671T141 1550ZM-63 1544Q-63 1573 -85 1595T-136 1617Q-165 1617 -186 1595T-208 1544Q-208 1515 -187 1493T-136 1470Q-121 1470 -108 1476T-85 1492T-69 1516T-63 1544Z"/><glyph unicode="ு" horiz-adv-x="1016" d="M863 973Q863 901 835 839T760 730T649 657T517 630Q444 630 382 657T273 732T200 842T173 973Q173 1036 194 1092H-692V1320H517Q590 1320 653 1292T762 1217T836 1106T863 973ZM624 966Q624 992 616 1015T593 1055T560 1082T518 1092Q497 1092 478 1083T445 1056T422 1016T413 966Q413 942 421 919T443 879T477 851T518 840Q539 840 558 850T592 878T615 918T624 966Z"/><glyph unicode="ூ" horiz-adv-x="1736" d="M655 511Q715 479 781 468T915 457Q1014 457 1092 494T1224 595T1307 739T1336 909Q1336 994 1314 1071T1241 1205T1107 1297T901 1331Q833 1331 790 1322T713 1290Q757 1269 793 1236T856 1162T897 1072T912 973Q912 901 884 839T809 730T698 657T566 630Q493 630 431 657T322 732T249 842T222 973Q222 1036 243 1092H-643V1320H383Q424 1384 486 1430T618 1506T759 1550T893 1565Q1084 1565 1224 1512T1455 1369T1591 1164T1636 926Q1636 776 1586 647T1443 424T1216 277T915 223Q863 223 810 228T704 244T601 275T506 324L655 511ZM673 966Q673 992 665 1015T642 1055T609 1082T567 1092Q546 1092 527 1083T494 1056T471 1016T462 966Q462 942 470 919T492 879T526 851T567 840Q588 840 607 850T641 878T664 918T673 966Z"/><glyph unicode="ெ" horiz-adv-x="1829" d="M1669 0H1380V1062Q1380 1194 1344 1291T1243 1453T1093 1549T906 1581Q792 1581 702 1532T549 1397T453 1194T419 941Q419 872 427 801T449 667T481 553T521 472Q538 524 573 569T654 648T756 701T870 720Q965 720 1035 687T1152 600T1222 475T1245 332Q1245 273 1221 210T1149 95T1027 10T857 -23Q721 -23 614 19T425 133T285 301T191 507T137 732T120 959Q120 1059 141 1161T205 1359T313 1537T465 1682T663 1779T907 1815Q1287 1815 1478 1626T1669 1068V0ZM980 347Q980 375 971 400T945 445T906 475T858 486Q834 486 813 476T774 446T747 402T737 347Q737 320 746 296T772 252T810 222T858 211Q882 211 904 221T943 250T970 294T980 347Z"/><glyph unicode="ே" horiz-adv-x="1678" d="M850 1559Q748 1524 668 1458T533 1305T449 1116T420 906Q420 799 445 697T523 507T657 350T850 238Q830 296 830 359Q830 439 860 508T941 627T1060 706T1203 735Q1282 735 1350 707T1469 630T1549 519T1578 384Q1578 294 1550 219T1462 91T1313 7T1099 -23Q957 -23 829 11T592 108T396 256T247 445T153 665T120 906Q120 1026 153 1141T247 1357T395 1544T592 1690T828 1786T1099 1820Q1223 1820 1313 1790T1462 1707T1549 1578T1578 1413Q1578 1342 1549 1279T1470 1167T1351 1091T1203 1062Q1128 1062 1061 1090T942 1169T860 1289T830 1438Q830 1501 850 1559ZM1313 1440Q1313 1468 1305 1493T1281 1536T1246 1565T1201 1576Q1175 1576 1155 1565T1120 1535T1098 1492T1090 1440Q1090 1410 1098 1384T1122 1339T1157 1308T1201 1296Q1226 1296 1247 1308T1282 1340T1305 1386T1313 1440ZM1313 357Q1313 385 1305 411T1283 457T1247 489T1201 501Q1177 501 1157 490T1122 459T1099 413T1090 357Q1090 330 1098 306T1120 262T1154 232T1201 221Q1225 221 1245 231T1281 260T1304 304T1313 357Z"/><glyph unicode="ை" horiz-adv-x="2610" d="M2196 -37L1999 88Q2043 153 2078 215T2138 344T2176 486T2190 655Q2190 750 2158 833T2070 977T1940 1073T1782 1108Q1762 1108 1745 1108T1710 1104T1674 1095T1632 1077Q1672 1028 1705 970T1764 845T1803 706T1817 555Q1817 420 1788 313T1707 131T1584 17T1429 -23Q1321 -23 1248 25T1129 152T1065 333T1045 543Q1045 711 1089 844T1221 1065Q1164 1083 1087 1095T919 1108Q851 1108 783 1091T656 1043T551 969T481 874Q495 876 512 877T544 879Q630 879 693 842T798 742T860 597T880 426Q880 339 857 258T789 115T678 15T523 -23Q451 -23 394 4T291 76T214 181T161 305T130 434T120 555Q120 670 148 773T229 963T354 1121T515 1240T704 1315T913 1342Q977 1342 1042 1338T1171 1321T1296 1289T1415 1238Q1451 1260 1491 1279T1579 1312T1687 1334T1822 1342Q1918 1342 2005 1317T2166 1247T2300 1138T2402 999T2467 835T2490 655Q2490 541 2466 443T2401 261T2307 103T2196 -37ZM1537 513Q1537 585 1531 638T1511 734T1478 817T1429 900Q1374 810 1350 717T1325 518Q1325 456 1331 401T1351 303T1384 236T1429 211Q1454 211 1474 236T1508 303T1529 399T1537 513ZM400 621Q398 610 397 597T396 566Q396 518 404 457T428 341T467 249T522 211Q547 211 562 231T586 282T597 351T600 428Q600 439 599 459T593 503T581 552T561 598T532 632T490 645Q473 645 451 642T400 621Z"/><glyph unicode="ொ" horiz-adv-x="3204" d="M1669 0H1380V1062Q1380 1194 1344 1291T1243 1453T1093 1549T906 1581Q792 1581 702 1532T549 1397T453 1194T419 941Q419 872 427 801T449 667T481 553T521 472Q538 524 573 569T654 648T756 701T870 720Q965 720 1035 687T1152 600T1222 475T1245 332Q1245 273 1221 210T1149 95T1027 10T857 -23Q721 -23 614 19T425 133T285 301T191 507T137 732T120 959Q120 1059 141 1161T205 1359T313 1537T465 1682T663 1779T907 1815Q1287 1815 1478 1626T1669 1068V0ZM980 347Q980 375 971 400T945 445T906 475T858 486Q834 486 813 476T774 446T747 402T737 347Q737 320 746 296T772 252T810 222T858 211Q882 211 904 221T943 250T970 294T980 347ZM3104 1092H2830V0H2541V1092H2230V0H1941V1320H3104V1092Z"/><glyph unicode="ோ" horiz-adv-x="3101" d="M850 1559Q748 1524 668 1458T533 1305T449 1116T420 906Q420 799 445 697T523 507T657 350T850 238Q830 296 830 359Q830 439 860 508T941 627T1060 706T1203 735Q1282 735 1350 707T1469 630T1549 519T1578 384Q1578 294 1550 219T1462 91T1313 7T1099 -23Q957 -23 829 11T592 108T396 256T247 445T153 665T120 906Q120 1026 153 1141T247 1357T395 1544T592 1690T828 1786T1099 1820Q1223 1820 1313 1790T1462 1707T1549 1578T1578 1413Q1578 1342 1549 1279T1470 1167T1351 1091T1203 1062Q1128 1062 1061 1090T942 1169T860 1289T830 1438Q830 1501 850 1559ZM1313 1440Q1313 1468 1305 1493T1281 1536T1246 1565T1201 1576Q1175 1576 1155 1565T1120 1535T1098 1492T1090 1440Q1090 1410 1098 1384T1122 1339T1157 1308T1201 1296Q1226 1296 1247 1308T1282 1340T1305 1386T1313 1440ZM1313 357Q1313 385 1305 411T1283 457T1247 489T1201 501Q1177 501 1157 490T1122 459T1099 413T1090 357Q1090 330 1098 306T1120 262T1154 232T1201 221Q1225 221 1245 231T1281 260T1304 304T1313 357ZM3001 1092H2727V0H2438V1092H2127V0H1838V1320H3001V1092Z"/><glyph unicode="ௌ" horiz-adv-x="4104" d="M1669 0H1380V1062Q1380 1194 1344 1291T1243 1453T1093 1549T906 1581Q792 1581 702 1532T549 1397T453 1194T419 941Q419 872 427 801T449 667T481 553T521 472Q538 524 573 569T654 648T756 701T870 720Q965 720 1035 687T1152 600T1222 475T1245 332Q1245 273 1221 210T1149 95T1027 10T857 -23Q721 -23 614 19T425 133T285 301T191 507T137 732T120 959Q120 1059 141 1161T205 1359T313 1537T465 1682T663 1779T907 1815Q1287 1815 1478 1626T1669 1068V0ZM980 347Q980 375 971 400T945 445T906 475T858 486Q834 486 813 476T774 446T747 402T737 347Q737 320 746 296T772 252T810 222T858 211Q882 211 904 221T943 250T970 294T980 347ZM4004 1320V1092H3782V0H3498V1092H3465Q3332 1092 3265 1000T3198 723V0H2909V741Q2909 833 2884 902T2812 1016T2698 1085T2548 1108Q2469 1108 2407 1080T2301 1003T2229 891T2190 754Q2198 755 2213 756T2246 758T2279 759T2304 760Q2410 760 2485 723T2607 629T2677 501T2699 366Q2699 292 2673 223T2597 98T2477 10T2319 -23Q2218 -23 2138 21T2002 143T1916 327T1886 559Q1886 653 1902 747T1954 929T2043 1091T2172 1222T2345 1310T2564 1342Q2659 1342 2733 1328T2867 1290T2974 1236T3063 1174Q3130 1245 3232 1282T3462 1320H4004ZM2186 502Q2187 453 2192 402T2213 308T2254 238T2322 211Q2350 211 2371 224T2406 260T2427 308T2434 362Q2434 384 2429 412T2409 466T2368 508T2298 526Q2267 526 2238 521T2186 502Z"/><glyph unicode="்" horiz-adv-x="0" d="M-519 1653Q-519 1686 -506 1715T-471 1767T-420 1802T-357 1815Q-324 1815 -295 1802T-243 1767T-208 1716T-195 1653Q-195 1619 -207 1590T-242 1538T-293 1504T-357 1491Q-391 1491 -420 1504T-472 1539T-506 1590T-519 1653Z"/><glyph unicode="ௐ" horiz-adv-x="2423" d="M679 -197V63Q679 95 660 111T612 127Q594 127 580 115T555 83T540 34T535 -27Q535 -96 558 -150T619 -246T709 -315T816 -362T932 -388T1044 -396Q1125 -396 1194 -390T1321 -366T1429 -317T1522 -235Q1566 -184 1598 -128T1657 -21T1710 73T1768 142Q1605 153 1495 198T1318 310T1221 459T1192 624Q1192 709 1223 794T1318 949T1482 1061T1718 1104H1781V884Q1757 878 1742 861T1727 819Q1727 789 1739 770T1770 739T1815 723T1868 718Q1904 718 1929 738T1971 793T1996 872T2004 967Q2004 1053 1967 1120T1867 1239T1720 1325T1540 1383T1345 1416T1150 1426Q1075 1426 997 1420T844 1399T698 1363T570 1308T466 1234T395 1138Q418 1145 447 1150T502 1155Q575 1155 635 1128T739 1056T807 952T831 826Q831 761 807 703T740 601T636 531T502 505Q405 505 333 538T214 631T144 772T120 951Q120 1072 160 1171T271 1350T439 1487T650 1583T892 1641T1150 1660Q1304 1660 1449 1638T1723 1575T1958 1475T2141 1341T2260 1179T2303 992Q2303 932 2295 872T2268 755T2216 649T2133 563T2013 505T1851 484Q1781 484 1721 504T1614 562T1537 650T1498 762Q1470 736 1461 702T1452 628Q1452 548 1489 496T1587 412T1724 369T1881 357H2061V129H2020Q1990 99 1965 45T1909 -77T1838 -219T1739 -361Q1684 -425 1615 -475T1461 -559T1271 -612T1040 -630Q938 -630 842 -611T661 -555T505 -466T383 -350T304 -209T275 -46Q275 50 300 122T371 241T480 313T622 337Q673 337 718 321T797 272T851 190T871 73V-47H934V27Q934 70 944 114T982 193T1059 251T1186 274Q1258 274 1303 252T1375 193T1410 112T1420 20V-197H679ZM802 469Q802 497 813 522T843 567T887 597T942 608Q971 608 996 597T1040 568T1070 524T1081 469Q1081 440 1070 415T1041 370T997 340T942 329Q913 329 888 340T843 370T813 414T802 469ZM611 829Q611 857 601 878T573 915T535 937T491 945Q468 945 446 937T407 914T378 878T367 829Q367 805 378 784T408 748T448 724T491 715Q513 715 535 722T573 745T600 781T611 829ZM1124 -47H1230V13Q1230 61 1223 88T1186 115Q1166 115 1154 109T1135 90T1126 59T1124 17V-47Z"/><glyph unicode="ௗ" horiz-adv-x="2338" d="M2238 1320V1092H2016V0H1732V1092H1699Q1566 1092 1499 1000T1432 723V0H1143V741Q1143 833 1118 902T1046 1016T932 1085T782 1108Q703 1108 641 1080T535 1003T463 891T424 754Q432 755 447 756T480 758T513 759T538 760Q644 760 719 723T841 629T911 501T933 366Q933 292 907 223T831 98T711 10T553 -23Q452 -23 372 21T236 143T150 327T120 559Q120 653 136 747T188 929T277 1091T406 1222T579 1310T798 1342Q893 1342 967 1328T1101 1290T1208 1236T1297 1174Q1364 1245 1466 1282T1696 1320H2238ZM420 502Q421 453 426 402T447 308T488 238T556 211Q584 211 605 224T640 260T661 308T668 362Q668 384 663 412T643 466T602 508T532 526Q501 526 472 521T420 502Z"/><glyph unicode="௦" horiz-adv-x="1358" d="M1238 665Q1238 498 1202 370T1094 154T919 22T678 -23Q543 -23 439 22T264 154T157 369T120 665Q120 824 156 950T263 1163T438 1296T678 1342Q814 1342 918 1296T1094 1163T1201 950T1238 665ZM938 665Q938 889 876 998T678 1108Q544 1108 482 999T420 665Q420 547 434 461T480 320T561 238T678 211Q814 211 876 320T938 665Z"/><glyph unicode="௧" horiz-adv-x="1816" d="M1436 1320V1092H1171V830H1228Q1318 830 1402 804T1551 730T1656 611T1696 452Q1696 352 1663 269T1567 124T1416 25T1219 -21V212Q1307 225 1351 287T1396 437Q1396 521 1338 560T1171 600V540Q1171 484 1165 421T1140 295T1087 175T994 73T852 3T651 -23Q578 -23 511 -1T384 59T277 147T193 253T139 367T120 481Q120 536 133 588T174 682T249 754T362 798V1320H1436ZM882 830V1092H651V830H882ZM882 602H544Q520 602 498 597T458 577T431 540T420 481Q420 437 441 390T497 302T574 237T660 211Q723 211 765 234T834 298T871 393T882 510V602Z"/><glyph unicode="௨" horiz-adv-x="1999" d="M1899 0H536Q430 0 356 14T236 58T169 131T148 234Q148 276 165 312T215 380T292 435T391 478L736 588Q796 607 834 636T895 701T927 778T936 863Q936 930 906 976T830 1052T733 1094T637 1107Q629 1107 614 1107T581 1107T549 1106T527 1104Q559 1093 588 1071T639 1016T674 943T687 851Q687 798 666 752T607 670T516 615T396 595Q336 595 285 617T198 678T141 767T120 872Q120 967 160 1052T269 1202T433 1304T634 1342Q776 1342 887 1304T1076 1201T1195 1048T1236 863Q1236 779 1213 705T1141 569T1020 462T847 390L613 328Q576 318 544 311T488 297T451 282T437 262Q437 252 439 246T450 235T474 230T517 228H1899V0ZM467 879Q467 896 461 910T445 933T424 948T403 954Q393 954 382 949T362 934T346 911T340 879Q340 861 346 847T361 824T382 810T403 805Q413 805 424 810T445 824T461 847T467 879Z"/><glyph unicode="௩" horiz-adv-x="2030" d="M1930 0H1188V228Q1240 229 1281 245T1350 289T1393 357T1408 444Q1408 490 1395 532T1356 606T1295 657T1216 676Q1147 676 1100 654T1018 595V0H729V1092H449V0H160V1320H1387V1092H1018V873Q1060 894 1116 902T1223 910Q1340 910 1430 874T1582 776T1676 637T1708 475Q1708 407 1692 345T1643 228H1930V0Z"/><glyph unicode="௪" horiz-adv-x="1883" d="M1472 1320H1761V662H1171V504Q1171 448 1162 387T1131 268T1070 157T974 64T837 1T651 -23Q581 -23 515 -1T389 59T281 147T196 253T140 367T120 481Q120 530 132 584T172 689T246 786T362 862V1320H1316V1092H1171V890H1472V1320ZM882 662H661Q595 662 550 647T475 607T433 550T420 481Q420 437 441 390T497 302T574 237T660 211Q723 211 765 234T834 298T871 393T882 510V662ZM882 890V1092H651V890H882Z"/><glyph unicode="௫" horiz-adv-x="2555" d="M1768 1320V1092H1654V727Q1695 742 1743 751T1836 760Q1946 760 2030 722T2171 619T2257 468T2286 288Q2286 172 2258 64T2174 -138T2032 -310T1833 -443T1574 -529T1256 -560Q1113 -560 973 -525T707 -421T474 -253T288 -24T165 263T120 604Q120 769 159 923T271 1211T446 1457T675 1647T948 1771T1256 1815Q1430 1815 1580 1779T1854 1678T2078 1525T2249 1332T2369 1112T2435 875H2135Q2116 991 2071 1088T1962 1264T1817 1402T1645 1501T1455 1561T1256 1581Q1129 1581 1018 1546T814 1447T648 1292T525 1091T447 853T420 586Q420 440 454 316T548 90T688 -89T862 -219T1055 -299T1256 -326Q1412 -326 1545 -293T1777 -185T1930 9T1986 301Q1986 362 1970 405T1929 475T1873 514T1811 526Q1769 526 1729 511T1654 476V0H1365V1092H1115V0H826V1320H1768Z"/><glyph unicode="௬" horiz-adv-x="2632" d="M2560 0H1885V228Q1937 229 1978 245T2047 289T2090 357T2105 444Q2105 490 2092 532T2054 606T1993 657T1908 676Q1873 676 1835 668T1762 636T1704 572T1675 467V0H1386V395Q1386 441 1375 488T1339 574T1273 637T1171 662V518Q1171 462 1163 400T1135 278T1078 164T984 68T845 2T654 -23Q585 -23 519 -1T393 59T283 147T197 253T141 367T120 481Q120 536 135 593T180 702T255 795T362 861V1320H1436V1092H1171V890H1195Q1291 890 1378 854T1533 752Q1610 836 1707 873T1920 910Q2037 910 2127 874T2279 776T2373 637T2405 475Q2405 407 2389 345T2340 228H2560V0ZM882 662H679Q607 662 558 647T478 607T434 550T420 481Q420 437 441 390T497 302T574 237T660 211Q723 211 765 234T834 298T871 394T882 511V662ZM882 890V1092H651V890H882Z"/><glyph unicode="௭" horiz-adv-x="1727" d="M1130 0V1092H968Q861 1092 774 1067T620 996T508 889T438 752Q446 753 464 754T501 757T539 759T567 760Q673 760 748 723T870 629T940 501T962 366Q962 292 937 223T862 98T737 10T562 -23Q462 -23 381 18T241 130T152 298T120 506Q120 674 178 822T344 1081T605 1256T950 1320H1627V1092H1419V0H1130ZM432 502Q426 482 423 460T420 416Q420 371 430 333T461 268T510 226T575 211Q607 211 630 224T668 260T690 308T697 362Q697 384 692 412T672 466T631 508T561 526Q530 526 492 521T432 502Z"/><glyph unicode="௮" horiz-adv-x="2432" d="M2272 1320V-220H1983V197H1700Q1655 78 1575 -10T1382 -155T1126 -241T811 -270Q745 -270 667 -261T509 -232T357 -180T226 -102T135 7T100 149Q100 214 127 265T203 352T319 406T468 425H1446Q1448 439 1450 457T1454 493T1457 526T1458 549Q1458 600 1454 657T1439 767T1412 862T1371 928Q1372 921 1372 912T1373 894T1374 869Q1374 806 1350 743T1278 628T1159 545T995 512Q925 512 871 531T776 580T707 651T661 732T635 815T627 889Q627 956 652 1027T737 1157T891 1252T1126 1290Q1258 1290 1373 1248T1573 1116T1708 885T1758 543Q1758 506 1756 478T1752 425H1983V1320H2272ZM1362 197H480Q450 197 433 192T405 177T392 156T389 130Q389 92 422 62T516 9T659 -24T843 -36Q1040 -36 1168 20T1362 197ZM1109 902Q1109 927 1103 952T1083 998T1051 1031T1006 1044Q975 1044 954 1032T919 999T899 954T892 902Q892 860 900 830T923 782T958 755T1001 746Q1019 746 1038 753T1073 777T1099 825T1109 902Z"/><glyph unicode="௯" horiz-adv-x="2721" d="M1436 1320V1092H1171V890H1531Q1571 925 1625 950T1738 992T1856 1017T1969 1025Q2107 1025 2223 985T2423 871T2554 695T2601 470Q2601 210 2370 -24L2192 171Q2301 317 2301 496Q2301 546 2278 598T2212 693T2113 763T1986 791Q1981 791 1966 791T1933 789T1898 784T1873 776Q1946 728 1991 674T2062 565T2095 459T2104 367Q2104 295 2079 225T2004 100T1881 11T1712 -23Q1618 -23 1544 18T1419 123T1340 263T1312 410Q1312 453 1315 487T1324 551T1338 607T1357 662H1171V504Q1171 448 1162 387T1131 268T1070 157T974 64T837 1T651 -23Q581 -23 515 -1T389 59T281 147T196 253T140 367T120 481Q120 530 132 584T172 689T246 786T362 862V1320H1436ZM882 662H661Q595 662 550 647T475 607T433 550T420 481Q420 437 441 390T497 302T574 237T660 211Q723 211 765 234T834 298T871 393T882 510V662ZM1650 630Q1621 592 1599 540T1577 420Q1577 381 1588 344T1620 277T1668 229T1726 211Q1753 211 1774 225T1809 265T1831 325T1839 399Q1839 442 1821 481T1774 552T1713 604T1650 630ZM882 890V1092H651V890H882Z"/><glyph unicode="௰" horiz-adv-x="2100" d="M1142 1281Q1217 1319 1287 1330T1422 1342Q1548 1342 1650 1294T1826 1163T1940 973T1980 744Q1980 644 1969 549T1933 368T1865 211T1760 87T1612 6T1414 -23Q1348 -23 1298 -17T1206 3T1129 37T1059 85Q987 25 901 1T726 -23Q619 -23 533 3T379 78T263 191T182 335T135 501T120 680Q120 792 151 894T242 1084T391 1240T596 1351L708 1143Q630 1107 576 1057T487 945T436 815T420 673Q420 589 439 506T496 358T590 252T721 211Q742 211 766 215T813 229T856 253T891 285Q814 421 814 630H1103Q1103 534 1127 457T1192 325T1286 241T1397 211Q1458 211 1503 236T1579 301T1630 392T1661 495T1676 595T1680 680Q1680 763 1662 840T1609 977T1528 1073T1423 1109Q1392 1109 1351 1103T1256 1068L1142 1281Z"/><glyph unicode="௱" horiz-adv-x="1987" d="M1887 1092H1703V0H1414V1092H1134V0H844V940Q844 977 826 1008T777 1062T709 1096T630 1109Q586 1109 552 1095T495 1056T461 1002T449 939V0H160V910Q160 1011 198 1091T298 1227T440 1312T602 1342Q674 1342 734 1326T844 1273V1320H1887V1092Z"/><glyph unicode="௲" horiz-adv-x="2477" d="M1436 1092H1171V830H2185V602H2052V504Q2132 487 2189 450T2284 361T2339 248T2357 124Q2357 29 2327 -49T2235 -182T2076 -269T1845 -300Q1764 -300 1692 -310T1567 -345T1482 -410T1450 -511H1161Q1161 -399 1209 -320T1342 -191T1546 -118T1806 -94Q1878 -94 1932 -78T2023 -31T2078 39T2097 128Q2097 140 2095 157T2086 192T2071 227T2049 258Q2020 176 1973 122T1869 36T1747 -10T1620 -23Q1543 -23 1478 -2T1365 57T1292 150T1265 273Q1265 343 1297 393T1380 475T1496 523T1624 538H1763V602H1171V540Q1171 484 1165 421T1140 295T1087 175T994 73T852 3T651 -23Q578 -23 511 -1T384 59T277 147T193 253T139 367T120 481Q120 536 133 588T174 682T249 754T362 798V1320H1436V1092ZM882 602H544Q520 602 498 597T458 577T431 540T420 481Q420 437 441 390T497 302T574 237T660 211Q723 211 765 234T834 298T871 393T882 510V602ZM882 830V1092H651V830H882ZM1763 310H1624Q1580 310 1555 303T1530 271Q1530 246 1555 229T1624 211Q1650 211 1675 216T1719 234T1751 264T1763 310Z"/><glyph unicode="௳" horiz-adv-x="2035" d="M1955 0H1125V233Q1177 253 1213 297T1271 396T1303 510T1313 620Q1313 732 1278 822T1181 976T1037 1074T862 1108Q780 1108 705 1079T571 999T473 880T424 734Q440 742 464 747T512 755T558 759T588 760Q694 760 769 723T891 629T961 501T983 366Q983 292 957 223T881 98T761 10T603 -23Q491 -23 402 29T250 168T154 371T120 611Q120 706 143 797T211 970T320 1119T464 1237T639 1314T841 1342Q1019 1342 1161 1286T1404 1133T1559 905T1613 622Q1613 575 1606 520T1585 412T1548 310T1496 228H1955V0ZM420 502Q421 453 434 402T472 308T530 238T606 211Q634 211 655 224T690 260T711 308T718 362Q718 384 712 414T689 471T644 517T572 536Q509 536 476 526T420 502Z"/><glyph unicode="௴" horiz-adv-x="2871" d="M449 1320V229H889V835Q889 966 923 1061T1021 1219T1176 1311T1383 1341Q1467 1341 1540 1325Q1553 1362 1569 1396T1604 1462T1646 1521T1692 1565Q1691 1582 1691 1606Q1691 1694 1722 1774T1812 1916T1957 2013T2153 2049Q2265 2049 2352 2013T2499 1915T2590 1768T2621 1588Q2621 1534 2608 1482T2566 1375H2821V1199H2302V1361Q2330 1378 2351 1405T2387 1462T2409 1525T2417 1587Q2417 1651 2399 1703T2346 1791T2263 1848T2155 1868Q2095 1868 2050 1853T1974 1811T1923 1747T1896 1665Q1938 1683 1982 1683Q2105 1683 2172 1621T2239 1443Q2239 1390 2221 1347T2170 1274T2092 1226T1993 1209Q1914 1209 1855 1247T1758 1351Q1720 1305 1706 1259Q1779 1216 1833 1154Q1909 1068 1946 951T1984 701Q1984 613 1971 527T1933 363T1868 219T1777 104T1660 28T1515 0H160V1320H449ZM1178 229H1419Q1494 229 1545 270T1627 378T1671 527T1684 690Q1684 904 1615 1006T1399 1108Q1338 1108 1296 1092T1228 1048T1190 980T1178 894V229ZM2051 1439Q2051 1481 2035 1499T1985 1518Q1956 1518 1936 1507T1899 1472Q1906 1430 1932 1403T1993 1375Q2016 1375 2033 1395T2051 1439Z"/><glyph unicode="௵" horiz-adv-x="4459" d="M1494 233Q1535 253 1564 297T1613 396T1642 510T1652 620Q1652 732 1623 822T1540 976T1410 1074T1241 1108Q1159 1108 1091 1079T970 999T886 880T843 734Q859 742 883 747T931 755T977 759T1007 760Q1113 760 1188 723T1310 629T1380 501T1402 366Q1402 292 1376 223T1300 98T1180 10T1022 -23Q910 -23 821 29T669 168T573 371T539 611Q539 754 585 886T719 1119T933 1281T1220 1342Q1398 1342 1534 1286T1764 1133T1904 905T1952 622Q1952 575 1945 520T1924 412T1887 310T1835 228H2110V1320H3068V1092H2939V674Q2975 686 3014 693T3091 700Q3201 700 3285 668T3425 580T3511 446T3540 276Q3540 87 3483 -77T3318 -379T3056 -625T2708 -807T2285 -921T1798 -960Q1541 -960 1314 -908T895 -757T553 -516T297 -194T136 200T80 657Q80 887 147 1090T333 1464T619 1769T982 1998T1402 2141T1857 2191Q2122 2191 2332 2155T2708 2057T3000 1911T3224 1733T3394 1538T3526 1341Q3589 1238 3637 1145T3728 982T3809 871T3892 830Q3937 830 3974 852T4037 915T4079 1016T4094 1151Q4094 1241 4073 1314T4008 1440T3899 1526T3744 1567V1815Q3895 1804 4013 1756T4213 1622T4336 1413T4379 1130Q4379 1016 4343 916T4244 742T4095 625T3907 582Q3825 582 3760 607T3641 678T3542 786T3452 921T3364 1075T3267 1240Q3212 1328 3146 1415T2994 1582T2802 1730T2558 1849T2251 1928T1871 1957Q1659 1957 1467 1917T1109 1801T809 1612T579 1356T432 1036T380 657Q380 442 431 257T575 -83T797 -356T1084 -558T1422 -683T1795 -726Q1923 -726 2053 -714T2309 -676T2552 -610T2773 -512T2963 -379T3110 -208T3206 4T3240 260Q3240 321 3226 361T3188 424T3136 457T3075 466Q3039 466 3005 455T2939 428V0H2650V1092H2399V0H1494V233ZM839 502Q840 453 853 402T891 308T949 238T1025 211Q1053 211 1074 224T1109 260T1130 308T1137 362Q1137 384 1131 414T1108 471T1063 517T991 536Q928 536 895 526T839 502Z"/><glyph unicode="௶" horiz-adv-x="1984" d="M1824 1320V-368H1187Q1163 -455 1112 -538T980 -686T788 -790T532 -830Q430 -830 347 -801T204 -724T113 -611T80 -474Q80 -374 126 -310T245 -208T411 -155T596 -140H905V39Q877 12 831 -5T732 -23Q628 -23 544 4T400 86T308 219T275 404V1320H564V401Q564 348 581 313T624 256T679 225T735 215Q762 215 791 223T846 249T888 291T905 350V1320H1194V-140H1535V1320H1824ZM894 -368H548Q487 -368 452 -377T398 -402T374 -438T369 -483Q369 -502 381 -522T416 -558T470 -585T541 -596Q618 -596 677 -576T779 -522T850 -449T894 -368Z"/><glyph unicode="௷" horiz-adv-x="2809" d="M2209 158Q2241 170 2263 196T2298 255T2318 322T2324 386Q2324 452 2303 505T2246 595T2162 653T2059 673Q2013 673 1971 658T1896 615T1839 550T1806 470Q1818 473 1831 475T1856 479T1879 480T1894 481Q1961 481 2008 458T2085 398T2128 317T2142 232Q2142 185 2126 141T2078 63T2002 7T1902 -14Q1831 -14 1775 18T1680 105T1620 231Q1615 246 1612 262Q1574 251 1541 239T1479 211V0H1190V1092H968Q861 1092 774 1067T620 996T508 889T438 752Q482 756 501 757T539 759T567 760Q673 760 748 723T870 629T940 501T962 366Q962 292 937 223T862 98T737 10T562 -23Q462 -23 381 18T241 130T152 298T120 506Q120 674 178 822T344 1081T605 1256T950 1320H1826V1092H1479V377Q1513 394 1556 409Q1577 416 1601 423Q1607 489 1631 551Q1664 633 1723 696T1864 797T2046 835Q2156 835 2244 801T2395 706T2491 564T2525 388Q2525 361 2522 330T2511 268T2492 209T2466 158H2667V821H2862V0H2209V158ZM432 502Q426 482 423 460T420 416Q420 371 430 333T461 268T510 226T575 211Q607 211 630 224T668 260T690 308T697 362Q697 384 692 412T672 466T631 508T561 526Q530 526 492 521T432 502ZM1884 325Q1851 325 1832 320T1800 309Q1801 281 1809 253T1830 201T1862 163T1904 148Q1918 148 1929 155T1947 174T1958 200T1962 229Q1962 242 1959 258T1946 290T1922 315T1884 325Z"/><glyph unicode="௸" horiz-adv-x="4154" d="M4015 0H3546L2882 -543L2713 -371L3148 0H2327V233Q2379 253 2415 297T2473 396T2505 510T2515 620Q2515 711 2488 794T2408 943T2279 1052T2105 1106Q2148 987 2171 849T2195 549Q2195 500 2189 439T2167 314T2123 190T2049 82T1938 6T1785 -23Q1673 -23 1587 29T1442 168T1353 371T1322 611Q1322 718 1345 806T1405 964T1488 1088T1579 1180T1665 1241T1732 1273Q1619 1428 1457 1504T1099 1581Q952 1581 827 1535T612 1402T470 1189T419 901Q419 837 425 778T442 667T467 576T500 508Q521 554 555 593T633 660T727 704T830 720Q925 720 995 687T1112 600T1182 475T1205 332Q1205 273 1181 210T1109 95T987 10T817 -23Q693 -23 593 15T415 120T282 277T190 471T137 687T120 909Q120 1023 146 1134T226 1346T360 1532T548 1681T790 1779T1087 1815Q1219 1815 1347 1786T1593 1699T1811 1551T1990 1340Q2003 1341 2016 1341T2043 1342Q2146 1342 2243 1319T2426 1253T2583 1147T2706 1004T2786 828T2815 622Q2815 575 2808 520T2787 412T2750 310T2698 228H3319Q3257 299 3196 371T3086 518T3007 674T2977 843Q2977 945 3015 1036T3122 1195T3284 1302T3489 1342Q3630 1342 3736 1302T3912 1190T4018 1020T4054 808Q4054 760 4045 700T4008 567T3927 409T3788 228H4015V0ZM3560 372Q3626 442 3666 502T3728 618T3757 726T3765 831Q3765 891 3745 942T3689 1029T3608 1087T3509 1108Q3464 1108 3421 1088T3343 1032T3287 950T3266 851Q3266 766 3341 643T3560 372ZM1845 1061Q1784 1028 1740 978T1667 866T1625 736T1611 598Q1611 515 1623 444T1657 322T1713 241T1788 211Q1814 211 1835 231T1871 282T1898 351T1916 427T1927 495T1930 545Q1930 697 1909 825T1845 1061ZM940 347Q940 375 931 400T905 445T866 475T818 486Q794 486 773 476T734 446T707 402T697 347Q697 320 706 296T732 252T770 222T818 211Q842 211 864 221T903 250T930 294T940 347Z"/><glyph unicode="௹" horiz-adv-x="2444" d="M1752 1436H1322V1594Q1354 1606 1376 1632T1411 1691T1431 1758T1437 1822Q1437 1888 1416 1941T1359 2031T1275 2089T1172 2109Q1126 2109 1084 2094T1009 2051T952 1986T919 1906Q931 1909 944 1911T969 1915T992 1916T1007 1917Q1074 1917 1121 1894T1198 1834T1241 1753T1255 1668Q1255 1621 1239 1577T1191 1499T1115 1443T1015 1422Q944 1422 888 1454T793 1541Q762 1584 743 1637Q665 1583 609 1508Q538 1413 496 1290T437 1019T420 709Q420 457 478 264T647 -60T922 -258T1296 -325Q1438 -325 1547 -300T1738 -228T1873 -116T1961 30T2009 202T2024 395Q2024 456 2010 502T1972 578T1920 623T1859 638Q1823 638 1789 627T1723 600V0H1434V1092H1183V0H894V1320H1997V1092H1723V846Q1759 858 1798 865T1875 872Q1985 872 2069 835T2209 734T2295 587T2324 411Q2324 182 2256 2T2058 -303T1736 -494T1299 -560Q1082 -560 910 -513T607 -380T384 -176T233 83T147 383T120 709Q120 822 136 937T185 1162T269 1377T392 1572T554 1740Q626 1801 713 1848Q718 1919 744 1987Q777 2069 836 2132T977 2233T1159 2271Q1269 2271 1357 2237T1508 2142T1604 2000T1638 1824Q1638 1797 1635 1766T1624 1704T1605 1645T1579 1594H1752V1436ZM997 1761Q964 1761 945 1756T913 1745Q914 1717 922 1689T943 1637T975 1599T1017 1584Q1031 1584 1042 1591T1060 1610T1071 1636T1075 1665Q1075 1678 1072 1694T1059 1726T1035 1751T997 1761Z"/><glyph unicode="௺" horiz-adv-x="2170" d="M2150 1209H1720V1367Q1752 1379 1774 1405T1809 1464T1829 1531T1835 1595Q1835 1661 1814 1714T1757 1804T1673 1862T1570 1882Q1524 1882 1482 1867T1407 1824T1350 1759T1317 1679Q1329 1682 1342 1684T1367 1688T1390 1689T1405 1690Q1472 1690 1519 1667T1596 1607T1639 1526T1653 1441Q1653 1394 1637 1350T1589 1272T1513 1216T1413 1195Q1342 1195 1286 1227T1191 1314Q1156 1363 1135 1426Q1112 1403 1094 1376T1064 1320H1130V1092H1018V825Q1046 839 1084 847T1165 855Q1278 855 1361 820T1499 723T1581 574T1608 384Q1608 299 1597 211T1560 39T1491 -119T1385 -248T1235 -336T1036 -368H518Q456 -368 419 -389T362 -445T336 -520T329 -600H40Q40 -485 67 -399T155 -255T310 -169T543 -140H1036Q1126 -140 1179 -98T1261 13T1299 170T1308 353Q1308 411 1299 460T1271 545T1222 601T1149 621Q1131 621 1109 615T1066 593T1032 551T1018 484V0H729V1092H449V0H160V1320H905Q913 1343 925 1368Q945 1412 978 1457T1059 1548Q1082 1570 1110 1590Q1110 1678 1142 1760T1234 1905T1375 2006T1557 2044Q1667 2044 1755 2010T1906 1915T2002 1773T2036 1597Q2036 1570 2033 1539T2022 1477T2003 1418T1977 1367H2150V1209ZM1395 1534Q1362 1534 1343 1529T1311 1518Q1312 1490 1320 1462T1341 1410T1373 1372T1415 1357Q1429 1357 1440 1364T1458 1383T1469 1409T1473 1438Q1473 1451 1470 1467T1457 1499T1433 1524T1395 1534Z"/><glyph unicode="​" horiz-adv-x="0"/><glyph unicode="‌" horiz-adv-x="0" d="M36 -275H-36V1584H36V-275Z"/><glyph unicode="‍" horiz-adv-x="0" d="M219 1369L170 1320L36 1456V-275H-36V1456L-170 1320L-219 1369L-48 1538L-219 1706L-170 1755L0 1584L170 1755L219 1706L48 1538L219 1369Z"/><glyph unicode="–" horiz-adv-x="540" d="M569 378H-28V577H569V378Z"/><glyph unicode="—" horiz-adv-x="1081" d="M1109 378H-28V577H1109V378Z"/><glyph unicode="‘" horiz-adv-x="410" d="M71 1035Q71 1098 87 1153T134 1251T213 1317T322 1342V1207Q264 1207 242 1177T219 1073H322V827H71V1035Z"/><glyph unicode="’" horiz-adv-x="410" d="M322 1112Q322 1049 306 994T259 896T180 830T71 805V940Q129 940 151 970T174 1074H71V1320H322V1112Z"/><glyph unicode="‚" horiz-adv-x="554" d="M395 36Q395 -32 379 -91T329 -196T247 -267T131 -293V-151Q241 -151 241 0H131V260H395V36Z"/><glyph unicode="“" horiz-adv-x="706" d="M384 1035Q384 1098 400 1153T447 1251T526 1317T635 1342V1207Q577 1207 555 1177T532 1073H635V827H384V1035ZM71 1035Q71 1098 87 1153T134 1251T213 1317T322 1342V1207Q264 1207 242 1177T219 1073H322V827H71V1035Z"/><glyph unicode="”" horiz-adv-x="706" d="M322 1112Q322 1049 306 994T259 896T180 830T71 805V940Q129 940 151 970T174 1074H71V1320H322V1112ZM635 1112Q635 1049 619 994T572 896T493 830T384 805V940Q442 940 464 970T487 1074H384V1320H635V1112Z"/><glyph unicode="„" horiz-adv-x="781" d="M705 36Q705 -32 689 -91T639 -196T557 -267T441 -293V-151Q551 -151 551 0H441V260H705V36ZM365 36Q365 -32 349 -91T299 -196T217 -267T101 -293V-151Q161 -151 186 -110T211 0H101V260H365V36Z"/><glyph unicode="†" horiz-adv-x="1026" d="M958 717H631V-356H393V717H67V926H393V1290H631V926H958V717Z"/><glyph unicode="‡" horiz-adv-x="1026" d="M958 8H631V-356H393V8H67V217H393V717H67V926H393V1290H631V926H956V717H631V217H958V8Z"/><glyph unicode="•" horiz-adv-x="800" d="M687 757Q687 698 664 646T600 554T509 491T401 468Q341 468 289 491T197 553T136 645T113 757Q113 815 135 867T197 958T288 1021T401 1044Q461 1044 513 1021T603 959T664 867T687 757Z"/><glyph unicode="…" horiz-adv-x="1043" d="M964 0H715V245H964V0ZM645 0H396V245H645V0ZM326 0H78V245H326V0Z"/><glyph unicode="‰" horiz-adv-x="2006" d="M325 1342Q389 1342 443 1318T536 1247T597 1133T619 982Q619 898 598 832T538 719T445 647T325 622Q259 622 205 646T113 717T54 831T33 982Q33 1067 54 1133T114 1246T206 1317T325 1342ZM325 800Q370 800 388 845T406 982Q406 1073 388 1118T325 1164Q280 1164 263 1119T245 982Q245 891 262 846T325 800ZM1151 1320L432 0H220L941 1320H1151ZM1041 697Q1105 697 1159 673T1252 602T1313 488T1335 337Q1335 253 1314 187T1254 74T1161 2T1041 -23Q975 -23 921 1T829 72T770 186T749 337Q749 422 770 488T830 601T922 672T1041 697ZM1041 155Q1086 155 1104 200T1122 337Q1122 428 1104 473T1041 519Q996 519 979 474T961 337Q961 246 978 201T1041 155ZM1679 697Q1743 697 1797 673T1890 602T1951 488T1973 337Q1973 253 1952 187T1892 74T1799 2T1679 -23Q1613 -23 1559 1T1467 72T1408 186T1387 337Q1387 422 1408 488T1468 601T1560 672T1679 697ZM1679 155Q1724 155 1742 200T1760 337Q1760 428 1742 473T1679 519Q1634 519 1617 474T1599 337Q1599 246 1616 201T1679 155Z"/><glyph unicode="‹" horiz-adv-x="666" d="M579 64H357L44 512L357 960H579L324 512L579 64Z"/><glyph unicode="›" horiz-adv-x="666" d="M592 512L279 64H59L316 512L59 960H279L592 512Z"/><glyph unicode="₨" horiz-adv-x="2244" d="M904 359Q891 396 868 427T815 482T749 518T671 531H407V0H160V1320H752Q805 1320 853 1318T945 1306T1029 1279T1106 1230Q1171 1175 1203 1096T1236 934Q1236 813 1178 727T1017 594Q1060 562 1094 513T1154 391L1296 0H1030L904 359ZM407 758H735Q801 758 848 767T925 797T969 851T983 934Q983 1022 929 1063T760 1104H407V758ZM1898 687Q1874 778 1753 778Q1722 778 1696 773T1651 758T1620 733T1609 699Q1609 684 1614 674T1641 653T1705 632T1819 602Q1907 581 1971 558T2079 501T2143 418T2164 296Q2164 228 2136 170T2057 69T1934 2T1771 -23Q1395 -23 1353 301H1593Q1612 177 1769 177Q1847 177 1887 207T1928 280Q1928 300 1920 313T1886 338T1817 362T1703 392Q1617 413 1555 434T1453 487T1394 566T1374 685Q1374 747 1400 800T1474 893T1590 955T1742 978Q2107 978 2133 687H1898Z"/><glyph unicode="€" horiz-adv-x="1026" d="M718 936Q700 1034 654 1088T541 1143Q505 1143 477 1122T426 1062T387 970T361 851H618L574 685H348V599H545L498 434H361Q400 177 541 177Q688 177 721 429H963Q910 -23 541 -23Q182 -23 120 434H30V599H107Q106 624 106 644Q106 663 107 685H30V851H119Q134 966 168 1057T254 1211T378 1308T541 1342Q709 1342 816 1237T959 936H718Z"/><glyph unicode="™" horiz-adv-x="1261" d="M1166 676H1055V1201L934 676H823L702 1201V676H590V1319H767L878 823L990 1319H1166V676ZM516 1211H341V676H220V1211H45V1319H516V1211Z"/><glyph unicode="∙" horiz-adv-x="583" d="M95 773Q95 813 110 848T153 910T215 952T291 967Q331 967 366 952T429 910T471 849T487 773Q487 734 472 699T429 636T367 594T291 578Q251 578 216 593T153 635T111 697T95 773Z"/><glyph unicode="◌" horiz-adv-x="1559" d="M1366 1029L1232 935Q1167 1042 1060 1107L1154 1240Q1285 1157 1366 1029ZM928 1340L900 1179Q842 1193 780 1193Q716 1193 658 1179L630 1340Q706 1357 779 1357Q852 1357 928 1340ZM1459 677Q1459 604 1442 528L1281 556Q1295 614 1295 676Q1295 740 1281 798L1442 826Q1459 750 1459 677ZM1366 325Q1284 195 1154 113L1060 247Q1167 312 1232 419L1366 325ZM499 1107Q392 1042 327 935L193 1029Q274 1157 405 1240L499 1107ZM278 556L116 528Q100 599 100 677Q100 755 116 826L278 798Q264 740 264 676Q264 614 278 556ZM928 14Q852 -3 779 -3Q706 -3 630 14L658 175Q716 161 780 161Q842 161 900 175L928 14ZM499 247L405 113Q275 195 193 325L327 419Q392 312 499 247Z"/></font>
</defs>
</svg>
