<?xml version="1.0" encoding="UTF-8"?><svg xmlns="http://www.w3.org/2000/svg" width="100%" height="100%"><defs><font id="web" horiz-adv-x="1481"><!--



NOTICE: This font software is the valuable property 
of Monotype Imaging and/or its suppliers and its use 
by you is covered under the terms of the Web Font license 
agreement between you and Monotype Imaging. You may 
ONLY use this font software with the licensed web site. 
Except as specifically permitted by the license, you 
may not copy this font software. If you have any questions, 
please contact Monotype Imaging. 

For more information, please visit http://www.ascenderfonts.com/info/webfont-eula.aspx

Licensed to: bbc.co.uk

Serial number: SH-168
--><font-face font-family="" units-per-em="2048" panose-1="2 11 6 4 2 2 2 2 2 4" ascent="2048" descent="-1352" alphabetic="0"/><missing-glyph horiz-adv-x="1024" d="M128 0V2048H896V0H128ZM256 128H768V1920H256V128Z"/><glyph unicode=" " horiz-adv-x="1183"/><glyph unicode="!" horiz-adv-x="512" d="M348 0H164V184H348V0ZM348 1034L313 328H199L164 1034V1319H348V1034Z"/><glyph unicode="&quot;" horiz-adv-x="654" d="M577 1104L536 851H436L392 1104V1319H577V1104ZM260 1104L220 851H120L76 1104V1319H260V1104Z"/><glyph unicode="#" horiz-adv-x="1025" d="M1004 822H826L760 494H931V361H732L658 0H522L596 361H308L234 0H98L171 361H21V494H199L265 822H94V955H293L367 1319H503L429 955H717L791 1319H927L853 955H1004V822ZM689 822H401L336 494H623L689 822Z"/><glyph unicode="$" horiz-adv-x="1025" d="M559 752Q784 705 862 618Q942 530 942 380Q942 222 840 105Q740 -10 559 -21V-160H463V-23Q95 17 70 373H245Q264 149 463 114V617Q98 691 98 973Q98 1131 196 1229Q296 1327 463 1342V1480H559V1342Q880 1318 911 1015H735Q722 1182 559 1205V752ZM463 772V1207Q273 1174 273 986Q273 886 325 840Q376 795 463 772ZM559 114Q767 139 767 369Q767 464 724 513Q681 563 559 596V114Z"/><glyph unicode="%" horiz-adv-x="1639" d="M415 1342Q547 1342 631 1249T715 992Q715 829 631 736T415 642Q283 642 200 735T116 992Q116 1155 199 1248T415 1342ZM415 752Q571 752 571 992Q571 1231 415 1231Q260 1231 260 992Q260 752 415 752ZM1244 1319L524 0H392L1113 1319H1244ZM1222 679Q1354 679 1438 585T1523 328Q1523 166 1439 72T1222 -23Q1090 -23 1007 71T923 328Q923 491 1006 585T1222 679ZM1222 88Q1379 88 1379 328Q1379 568 1222 568Q1067 568 1067 328Q1067 88 1222 88Z"/><glyph unicode="&amp;" horiz-adv-x="1229" d="M1136 88L1004 -23L890 121Q733 -23 498 -23Q316 -23 198 89T79 363Q79 485 154 577T385 756Q245 936 245 1047Q245 1173 338 1257T573 1342Q706 1342 792 1260T879 1060Q879 956 815 880T621 728L886 398Q925 497 931 621H1106Q1094 413 1001 256L1136 88ZM535 835Q627 886 670 935T714 1057Q714 1125 670 1167T564 1209Q499 1209 455 1169T411 1064Q411 991 492 888L535 835ZM795 243L473 645Q359 578 307 518T255 374Q255 274 324 198T499 121Q681 121 795 243Z"/><glyph unicode="'" horiz-adv-x="352" d="M267 1104L227 851H127L83 1104V1319H267V1104Z"/><glyph unicode="(" horiz-adv-x="614" d="M547 -387H431Q111 29 111 477Q111 926 431 1342H547Q278 911 278 477Q278 44 547 -387Z"/><glyph unicode=")" horiz-adv-x="614" d="M183 1342Q503 926 503 477Q503 29 183 -387H67Q336 44 336 477Q336 911 67 1342H183Z"/><glyph unicode="*" horiz-adv-x="717" d="M656 1076L435 1027L584 855L473 774L357 971L241 774L130 855L280 1027L59 1076L102 1205L310 1115L290 1342H426L406 1115L614 1205L656 1076Z"/><glyph unicode="+" horiz-adv-x="1076" d="M975 575H614V214H463V575H102V726H463V1087H614V726H975V575Z"/><glyph unicode="," horiz-adv-x="512" d="M348 0Q348 -118 302 -189T164 -260V-174Q255 -174 255 0H164V184H348V0Z"/><glyph unicode="-" horiz-adv-x="614" d="M554 396H59V559H554V396Z"/><glyph unicode="." horiz-adv-x="512" d="M348 0H164V184H348V0Z"/><glyph unicode="/" horiz-adv-x="512" d="M512 1319L130 0H0L382 1319H512Z"/><glyph unicode="0" horiz-adv-x="1025" d="M512 1342Q942 1342 942 658Q942 -23 512 -23Q83 -23 83 658Q83 1342 512 1342ZM512 111Q637 111 702 231T767 658Q767 965 702 1087T512 1209Q388 1209 323 1087T258 658Q258 352 323 232T512 111Z"/><glyph unicode="1" horiz-adv-x="1025" d="M691 0H522V1038Q419 969 204 969V1102Q515 1102 561 1342H691V0Z"/><glyph unicode="2" horiz-adv-x="1025" d="M931 0H57Q57 121 131 230T500 592Q605 661 678 757T752 975Q752 1084 689 1146T512 1209Q413 1209 343 1146T264 960H88Q103 1134 216 1238T516 1342Q713 1342 820 1236T927 971Q927 827 848 717T628 492Q298 214 293 157H931V0Z"/><glyph unicode="3" horiz-adv-x="1025" d="M695 724Q815 693 880 602T946 389Q946 206 821 92T510 -23Q324 -23 207 79T81 348H256Q256 251 322 181T510 111Q629 111 699 187T770 385Q770 509 697 576T483 643H418V776H457Q704 776 704 1003Q704 1102 650 1155T498 1209Q296 1209 273 999H98Q117 1166 226 1254T494 1342Q670 1342 774 1246T879 999Q879 914 834 839T695 724Z"/><glyph unicode="4" horiz-adv-x="1025" d="M940 315H761V0H591V315H28V464L628 1336H761V464H940V315ZM591 464V1069L186 464H591Z"/><glyph unicode="5" horiz-adv-x="1025" d="M297 796Q395 876 542 876Q706 876 828 760T951 448Q951 245 829 111T501 -23Q334 -23 215 70T77 346H253Q267 227 336 169T501 111Q624 111 700 203T776 433Q776 571 699 651T498 732Q356 732 258 623H125L181 1319H888V1163H326L297 796Z"/><glyph unicode="6" horiz-adv-x="1025" d="M255 712Q385 855 554 855Q720 855 834 735T948 429Q948 241 835 109T535 -23Q320 -23 202 142T83 617Q83 1342 549 1342Q697 1342 800 1259T925 1013H751Q728 1209 540 1209Q418 1209 343 1081T255 712ZM253 580Q256 354 331 233T531 111Q641 111 706 199T772 418Q772 552 705 637T526 723Q386 723 253 580Z"/><glyph unicode="7" horiz-adv-x="1025" d="M942 1200L463 0H273L765 1163H88V1319H942V1200Z"/><glyph unicode="8" horiz-adv-x="1025" d="M673 693Q948 566 948 350Q948 184 828 81T512 -23Q318 -23 198 80T77 350Q77 566 352 693Q129 822 129 1015Q129 1158 234 1250T512 1342Q685 1342 790 1250T895 1015Q895 822 673 693ZM512 763Q721 857 721 1015Q721 1106 666 1157T512 1209Q415 1209 360 1158T304 1015Q304 857 512 763ZM772 350Q772 436 710 497T512 619Q377 559 315 498T253 350Q253 238 324 175T512 111Q629 111 700 174T772 350Z"/><glyph unicode="9" horiz-adv-x="1025" d="M770 608Q640 464 470 464Q305 464 191 584T77 890Q77 1078 190 1210T490 1342Q705 1342 823 1177T942 702Q942 -23 475 -23Q328 -23 225 60T100 306H274Q296 111 485 111Q607 111 681 239T770 608ZM772 739Q769 967 694 1088T494 1209Q384 1209 319 1121T253 901Q253 768 320 683T499 598Q639 598 772 739Z"/><glyph unicode=":" horiz-adv-x="512" d="M348 0H164V184H348V0ZM348 770H164V955H348V770Z"/><glyph unicode=";" horiz-adv-x="512" d="M348 0Q348 -118 302 -189T164 -260V-174Q255 -174 255 0H164V184H348V0ZM348 770H164V955H348V770Z"/><glyph unicode="&lt;" horiz-adv-x="1076" d="M975 204L102 575V726L975 1097V936L282 651L975 365V204Z"/><glyph unicode="=" horiz-adv-x="1076" d="M975 776H102V927H975V776ZM975 374H102V526H975V374Z"/><glyph unicode="&gt;" horiz-adv-x="1076" d="M975 575L102 204V365L795 651L102 936V1097L975 726V575Z"/><glyph unicode="?" horiz-adv-x="1025" d="M85 960Q100 1136 216 1239T512 1342Q702 1342 819 1241T936 983Q936 895 896 819T745 652T609 506T584 324H426Q426 491 464 569T607 735T736 870T761 971Q761 1075 693 1142T514 1209Q298 1209 260 960H85ZM603 0H418V184H603V0Z"/><glyph unicode="@" horiz-adv-x="1871" d="M1456 -301Q1260 -387 1013 -387Q589 -387 346 -171T103 422Q103 819 355 1081T994 1344Q1345 1344 1554 1144T1764 642Q1764 337 1610 168T1222 -2Q1146 -2 1100 41T1048 148Q941 -2 772 -2Q631 -2 539 96T446 367Q446 607 593 791T913 975Q1107 975 1196 860L1217 949H1377L1238 345Q1215 246 1215 195Q1215 130 1264 130Q1415 130 1523 266T1631 645Q1631 895 1453 1057T992 1219Q661 1219 449 988T236 422Q236 97 439 -82T1012 -262Q1234 -262 1390 -192L1456 -301ZM1165 728Q1090 842 925 842Q804 842 708 694T612 373Q612 130 805 130Q900 130 982 209T1095 422L1165 728Z"/><glyph unicode="A" horiz-adv-x="1231" d="M831 541L598 1152L377 541H831ZM1233 0H1035L882 401H329L183 0H-1L505 1320H695L1233 0Z"/><glyph unicode="B" horiz-adv-x="1231" d="M1136 384Q1136 197 1011 99T643 0H147V1320H617Q720 1320 804 1297T947 1230T1038 1124T1070 983Q1070 886 1023 817T880 702Q944 687 992 656T1072 582T1120 490T1136 384ZM322 767H616Q761 767 829 813T898 968Q898 1017 883 1053T832 1114T739 1151T599 1163H322V767ZM322 157H642Q954 157 954 384Q954 443 938 486T883 557T779 598T617 612H322V157Z"/><glyph unicode="C" horiz-adv-x="1332" d="M1237 920H1058Q1054 983 1025 1033T949 1119T839 1174T703 1193Q603 1193 523 1158T386 1056T299 889T268 661Q268 533 298 434T385 266T521 163T699 127Q776 127 839 146T949 202T1024 294T1058 419H1237Q1228 314 1185 232T1071 93T906 7T702 -23Q561 -23 447 25T253 162T130 378T87 661Q87 817 130 943T254 1159T448 1296T702 1345Q807 1345 900 1315T1065 1229T1182 1095T1237 920Z"/><glyph unicode="D" horiz-adv-x="1332" d="M1239 667Q1239 0 566 0H147V1320H566Q1239 1320 1239 667ZM1059 667Q1059 783 1036 875T957 1031T805 1129T564 1163H322V157H564Q708 157 803 191T956 292T1036 452T1059 667Z"/><glyph unicode="E" horiz-adv-x="1231" d="M1133 0H147V1320H1103V1163H322V762H1052V605H322V157H1133V0Z"/><glyph unicode="F" horiz-adv-x="1127" d="M1039 1163H322V755H945V598H322V0H147V1320H1039V1163Z"/><glyph unicode="G" horiz-adv-x="1436" d="M725 -23Q582 -23 465 26T263 165T133 381T87 661Q87 817 133 943T262 1158T462 1295T719 1343Q837 1343 938 1313T1115 1228T1238 1094T1294 919H1112Q1107 983 1078 1034T998 1120T877 1173T722 1192Q621 1192 538 1157T394 1054T301 887T268 661Q268 535 301 436T394 269T538 164T723 127Q868 127 973 173T1148 314V516H800V674H1319V0H1193L1148 139Q1013 -23 725 -23Z"/><glyph unicode="H" horiz-adv-x="1332" d="M1185 0H1009V622H322V0H147V1320H322V779H1009V1320H1185V0Z"/><glyph unicode="I" horiz-adv-x="513" d="M345 0H171V1320H345V0Z"/><glyph unicode="J" horiz-adv-x="923" d="M775 423Q775 302 752 217T683 79T567 2T405 -23Q324 -23 259 2T147 75T76 190T51 341V377H225Q225 134 405 134Q451 134 487 145T548 186T586 271T599 414V1320H775V423Z"/><glyph unicode="K" horiz-adv-x="1231" d="M1227 0H998L528 659L322 459V0H147V1320H322V666L968 1320H1203L650 779L1227 0Z"/><glyph unicode="L" horiz-adv-x="1026" d="M965 0H147V1320H322V157H965V0Z"/><glyph unicode="M" horiz-adv-x="1538" d="M1390 0H1223V1122L846 0H689L313 1122V0H147V1320H411L767 220L1127 1320H1390V0Z"/><glyph unicode="N" horiz-adv-x="1332" d="M1185 0H1006L313 1041V0H147V1320H328L1018 277V1320H1185V0Z"/><glyph unicode="O" horiz-adv-x="1436" d="M719 1343Q856 1343 972 1294T1172 1156T1303 940T1350 661Q1350 509 1304 384T1174 168T974 27T719 -23Q580 -23 464 26T264 166T134 382T87 661Q87 815 134 941T266 1156T466 1294T719 1343ZM718 127Q817 127 900 163T1043 268T1136 436T1170 661Q1170 787 1136 886T1042 1053T900 1156T722 1192Q623 1192 540 1156T397 1052T302 885T268 661Q268 535 301 436T395 269T537 164T718 127Z"/><glyph unicode="P" horiz-adv-x="1231" d="M147 1320H642Q742 1320 833 1303T995 1243T1107 1125T1149 935Q1149 734 1023 631T654 528H322V0H147V1320ZM322 685H658Q742 685 801 701T897 748T952 825T969 931Q969 1004 944 1049T875 1120T774 1154T652 1163H322V685Z"/><glyph unicode="Q" horiz-adv-x="1436" d="M1373 18L1269 -105L1052 67Q977 22 895 0T719 -23Q580 -23 464 26T264 166T134 382T87 661Q87 815 134 941T266 1156T466 1294T719 1343Q856 1343 972 1294T1172 1156T1303 940T1350 661Q1350 512 1308 390T1179 171L1373 18ZM1048 273Q1170 416 1170 661Q1170 787 1136 886T1042 1053T900 1156T722 1192Q623 1192 540 1156T397 1052T302 885T268 661Q268 535 301 436T395 269T537 164T718 127Q771 127 820 138T917 172L785 276L889 399L1048 273Z"/><glyph unicode="R" horiz-adv-x="1332" d="M1249 0H1059L935 354Q918 400 890 438T825 505T743 548T646 564H322V0H147V1320H732Q785 1320 833 1318T924 1307T1007 1281T1081 1234Q1141 1181 1172 1106T1203 951Q1203 882 1183 824T1124 721T1030 645T906 601V598Q1044 555 1118 359L1249 0ZM322 722H714Q795 722 853 734T949 773T1004 844T1022 951Q1022 1065 952 1119T740 1174H322V722Z"/><glyph unicode="S" horiz-adv-x="1231" d="M646 -23Q506 -23 402 10T228 102T122 244T83 425H251Q258 350 291 295T375 204T494 151T637 134Q711 134 771 149T875 194T941 265T965 359Q965 413 944 451T874 517T747 567T553 614Q442 639 362 671T230 747T153 847T128 977Q128 1056 162 1123T258 1239T406 1315T598 1343Q709 1343 800 1316T958 1238T1062 1113T1103 946H934Q907 1185 606 1185Q459 1185 380 1131T300 983Q300 941 314 912T364 860T458 819T603 782Q662 770 724 756T846 722T958 672T1050 602T1113 505T1136 374Q1136 287 1100 214T998 89T842 7T646 -23Z"/><glyph unicode="T" horiz-adv-x="1127" d="M1087 1163H650V0H475V1163H41V1320H1087V1163Z"/><glyph unicode="U" horiz-adv-x="1332" d="M666 -23Q544 -23 458 1T314 68T223 168T173 289T152 422T147 557V1320H322V560Q322 427 345 344T411 215T519 151T666 134Q750 134 814 151T921 215T987 345T1009 560V1320H1185V557Q1185 420 1162 313T1080 131T921 17T666 -23Z"/><glyph unicode="V" horiz-adv-x="1231" d="M1219 1320L704 0H524L10 1320H198L614 188L1032 1320H1219Z"/><glyph unicode="W" horiz-adv-x="1742" d="M1724 1320L1357 0H1190L872 1148L556 0H388L23 1320H207L470 244L767 1320H979L1275 244L1540 1320H1724Z"/><glyph unicode="X" horiz-adv-x="1231" d="M1222 0H1007L616 560L224 0H8L516 696L59 1320H273L614 833L957 1320H1171L714 696L1222 0Z"/><glyph unicode="Y" horiz-adv-x="1231" d="M1222 1320L703 560V0H528V560L8 1320H221L616 714L1009 1320H1222Z"/><glyph unicode="Z" horiz-adv-x="1127" d="M1078 0H34V164L853 1163H109V1320H1054V1155L235 157H1078V0Z"/><glyph unicode="[" horiz-adv-x="512" d="M483 -367H125V1319H483V1185H295V-232H483V-367Z"/><glyph unicode="\" horiz-adv-x="512" d="M512 0H382L0 1319H130L512 0Z"/><glyph unicode="]" horiz-adv-x="512" d="M387 -367H30V-232H218V1185H30V1319H387V-367Z"/><glyph unicode="^" horiz-adv-x="865" d="M796 765H630L431 1156L232 765H67L367 1319H496L796 765Z"/><glyph unicode="_" horiz-adv-x="1017" d="M1028 -290H-11V-198H1028V-290Z"/><glyph unicode="`" horiz-adv-x="676" d="M505 1092H370L171 1346H384L505 1092Z"/><glyph unicode="a" horiz-adv-x="1026" d="M732 251V463H614Q244 463 244 262Q244 189 299 150T445 111Q487 111 528 120T607 148T677 192T732 251ZM732 97Q598 -23 396 -23Q327 -23 268 -3T165 53T96 140T71 253Q71 588 648 588H732Q732 650 728 698T703 778T634 828T502 845Q276 845 268 682H97Q115 979 512 979Q602 979 674 963T796 907T874 796T901 617V0H732V97Z"/><glyph unicode="b" horiz-adv-x="1026" d="M295 842Q408 979 568 979Q662 979 735 944T859 844T936 688T962 486Q962 370 931 276T846 116T718 13T557 -23Q479 -23 414 0T295 74V0H126V1320H295V842ZM295 227Q406 111 547 111Q656 111 720 205T785 486Q785 662 724 753T554 845Q412 845 295 681V227Z"/><glyph unicode="c" horiz-adv-x="923" d="M513 -23Q413 -23 331 10T189 107T97 264T64 478Q64 596 96 689T187 847T329 945T513 979Q590 979 656 959T772 900T855 802T898 669H723Q721 712 704 745T659 800T594 833T513 845Q452 845 402 822T316 753T260 638T240 478Q240 387 260 318T316 203T402 134T513 111Q553 111 590 122T656 154T703 208T723 285H898Q888 209 855 152T772 55T655 -3T513 -23Z"/><glyph unicode="d" horiz-adv-x="1026" d="M732 276V729Q618 845 479 845Q370 845 305 752T240 470Q240 293 301 202T472 111Q543 111 608 151T732 276ZM732 113Q616 -23 459 -23Q363 -23 290 12T166 112T90 268T64 470Q64 588 95 682T180 843T308 944T468 979Q546 979 611 955T732 882V1320H901V0H732V113Z"/><glyph unicode="e" horiz-adv-x="1026" d="M531 -23Q427 -23 341 10T194 108T98 266T64 478Q64 595 97 687T189 845T331 944T513 979Q616 979 699 945T840 847T930 689T962 478V437H242Q248 354 271 293T333 192T422 131T531 111Q573 111 615 122T690 156T745 210T767 285H945Q934 211 899 154T809 57T683 -2T531 -23ZM782 571Q762 707 690 776T513 845Q462 845 417 828T337 777T278 692T244 571H782Z"/><glyph unicode="f" horiz-adv-x="513" d="M325 823V0H156V823H15V955H156V1041Q156 1345 423 1345Q465 1345 496 1342T549 1332V1185Q523 1189 499 1191T448 1193Q383 1193 354 1159T325 1039V955H505V823H325Z"/><glyph unicode="g" horiz-adv-x="1026" d="M901 74Q901 -388 485 -388Q395 -388 323 -368T201 -311T123 -219T96 -97H272Q272 -255 480 -255Q541 -255 588 -241T667 -189T715 -90T732 67V113Q616 -23 459 -23Q363 -23 290 12T166 112T90 268T64 470Q64 588 95 682T180 843T308 944T468 979Q546 979 611 955T732 882V955H901V74ZM732 276V729Q618 845 479 845Q370 845 305 752T240 470Q240 293 301 202T472 111Q543 111 608 151T732 276Z"/><glyph unicode="h" horiz-adv-x="1026" d="M295 834Q358 907 430 943T580 979Q904 979 904 625V0H733V617Q733 676 723 718T692 786T637 825T556 837Q426 837 295 685V0H126V1320H295V834Z"/><glyph unicode="i" horiz-adv-x="420" d="M295 0H126V955H295V0ZM295 1136H126V1320H295V1136Z"/><glyph unicode="j" horiz-adv-x="420" d="M295 -52Q295 -156 278 -221T230 -322T153 -372T51 -385Q16 -385 -12 -383T-64 -377V-232Q-41 -240 -18 -242T29 -244Q58 -244 76 -236T106 -205T121 -144T126 -46V955H295V-52ZM295 1136H126V1320H295V1136Z"/><glyph unicode="k" horiz-adv-x="923" d="M916 0H714L401 486L295 379V0H126V1320H295V572L665 955H879L516 599L916 0Z"/><glyph unicode="l" horiz-adv-x="420" d="M295 0H126V1320H295V0Z"/><glyph unicode="m" horiz-adv-x="1538" d="M1418 0H1246V617Q1246 677 1238 719T1213 787T1167 825T1099 837Q974 837 854 685V0H687V617Q687 677 679 719T652 787T606 825T538 837Q415 837 295 685V0H126V955H295V834Q418 979 564 979Q772 979 831 805Q880 862 919 896T993 949T1058 973T1123 979Q1418 979 1418 625V0Z"/><glyph unicode="n" horiz-adv-x="1026" d="M295 834Q358 907 430 943T580 979Q904 979 904 625V0H733V617Q733 676 723 718T692 786T637 825T556 837Q426 837 295 685V0H126V955H295V834Z"/><glyph unicode="o" horiz-adv-x="1026" d="M513 979Q616 979 699 945T840 847T930 689T962 478Q962 359 930 266T839 109T698 11T513 -23Q413 -23 331 10T189 107T97 264T64 478Q64 596 96 689T187 847T329 945T513 979ZM513 111Q573 111 623 134T709 203T765 318T785 478Q785 569 765 638T709 753T623 822T513 845Q452 845 402 822T316 753T260 638T240 478Q240 387 260 318T316 203T402 134T513 111Z"/><glyph unicode="p" horiz-adv-x="1026" d="M295 842Q408 979 568 979Q662 979 735 944T859 844T936 688T962 486Q962 370 931 276T846 116T718 13T557 -23Q479 -23 414 0T295 74V-367H126V955H295V842ZM295 227Q406 111 547 111Q656 111 720 205T785 486Q785 662 724 753T554 845Q412 845 295 681V227Z"/><glyph unicode="q" horiz-adv-x="1026" d="M901 -367H732V113Q616 -23 459 -23Q363 -23 290 12T166 112T90 268T64 470Q64 588 95 682T180 843T308 944T468 979Q546 979 611 955T732 882V955H901V-367ZM732 276V729Q618 845 479 845Q370 845 305 752T240 470Q240 293 301 202T472 111Q543 111 608 151T732 276Z"/><glyph unicode="r" horiz-adv-x="614" d="M622 800Q586 812 519 812Q453 812 398 778T295 676V0H126V955H295V823Q403 979 545 979Q579 979 622 971V800Z"/><glyph unicode="s" horiz-adv-x="923" d="M467 -23Q77 -23 56 285H227Q228 111 465 111Q518 111 558 122T626 154T667 202T681 263Q681 297 671 318T630 355T545 386T404 425Q319 446 258 467T157 518T98 592T79 703Q79 762 104 812T175 900T288 958T435 979Q812 979 818 711H650Q641 845 448 845Q405 845 369 837T305 812T263 773T248 718Q248 690 255 672T288 639T367 608T509 571Q596 550 660 528T766 473T829 395T850 280Q850 215 823 160T747 64T626 0T467 -23Z"/><glyph unicode="t" horiz-adv-x="513" d="M497 -1Q469 -8 439 -11T375 -14Q299 -14 255 4T187 60T156 152T149 280V823H31V955H149V1193H319V955H475V823H319V272Q319 222 325 192T344 146T373 125T412 120Q435 120 456 122T497 127V-1Z"/><glyph unicode="u" horiz-adv-x="1026" d="M732 121Q604 -23 445 -23Q121 -23 121 330V955H293V339Q293 279 303 238T334 170T389 131T470 119Q613 119 732 272V955H901V0H732V121Z"/><glyph unicode="v" horiz-adv-x="923" d="M898 955L538 0H385L25 955H209L461 209L715 955H898Z"/><glyph unicode="w" horiz-adv-x="1332" d="M1321 955L1035 0H872L666 703L460 0H296L8 955H198L374 227L588 955H744L960 227L1136 955H1321Z"/><glyph unicode="x" horiz-adv-x="923" d="M910 0H699L461 374L224 0H14L366 497L41 955H251L461 622L670 955H882L557 497L910 0Z"/><glyph unicode="y" horiz-adv-x="923" d="M179 -231Q305 -231 385 0L25 955H209L461 209L715 955H898L538 0Q506 -86 476 -157T409 -279T324 -359T209 -388Q177 -388 149 -385T97 -375V-218Q117 -226 138 -228T179 -231Z"/><glyph unicode="z" horiz-adv-x="923" d="M883 0H37V145L632 812H72V955H853V812L259 145H883V0Z"/><glyph unicode="{" horiz-adv-x="616" d="M571 -387H522Q473 -387 428 -380T346 -351T284 -288T248 -179Q245 -159 243 -125T240 -50T238 35T236 119T233 191T228 242Q223 275 211 304T178 355T126 390T51 404V551Q95 552 126 564T178 599T211 650T228 712Q231 731 233 764T236 837T238 921T240 1005T243 1080T248 1134Q257 1199 282 1240T343 1303T425 1334T522 1342H571V1201H544Q450 1201 429 1151Q408 1101 408 885Q408 786 395 716T356 598T292 522T201 477Q253 461 291 433T356 356T395 238T408 70Q408 -148 429 -197Q450 -247 544 -247H571V-387Z"/><glyph unicode="|" horiz-adv-x="479" d="M310 -387H169V1319H310V-387Z"/><glyph unicode="}" horiz-adv-x="616" d="M44 1342H94Q144 1342 189 1334T271 1304T333 1241T367 1134Q370 1114 371 1080T374 1006T377 921T379 837T383 764T388 712Q393 679 405 650T438 599T490 565T564 551V404Q495 403 458 376T402 301T381 185T378 34Q378 -36 375 -89T367 -179Q358 -244 333 -285T272 -348T191 -379T94 -387H44V-247H72Q166 -247 187 -197Q208 -148 208 70Q208 168 220 238T259 356T323 432T415 477Q362 493 324 521T259 598T221 716T208 885Q208 1101 187 1151Q166 1201 72 1201H44V1342Z"/><glyph unicode="~" horiz-adv-x="1076" d="M999 1137Q905 1028 751 1028Q652 1028 516 1088Q377 1149 311 1149Q194 1149 79 1026V1210Q175 1319 328 1319Q427 1319 562 1258Q631 1227 682 1213T767 1198Q883 1198 999 1321V1137Z"/><glyph unicode="¡" horiz-adv-x="512" d="M348 770H164V955H348V770ZM348 -365H164V-79L199 626H313L348 -79V-365Z"/><glyph unicode="¢" horiz-adv-x="1025" d="M934 285Q915 136 811 57T549 -23Q502 -23 450 -13L391 -225L297 -199L355 14Q102 129 102 477Q102 715 223 845T549 976Q587 976 623 971L680 1180L774 1154L717 949Q911 875 934 669H760Q757 763 679 811L487 118Q517 111 549 111Q634 111 695 156T760 285H934ZM586 842Q576 844 549 844Q427 844 352 752T276 477Q276 247 396 160L586 842Z"/><glyph unicode="£" horiz-adv-x="1025" d="M951 18Q863 -23 760 -23Q692 -23 561 18T363 59Q218 59 44 -23V140Q137 189 185 267T234 483Q234 540 220 596H44V728H183Q137 883 137 966Q137 1142 250 1242T545 1342Q715 1342 823 1254T944 1001H769Q751 1209 542 1209Q438 1209 375 1142T311 981Q311 879 361 728H643V596H391Q406 554 406 516Q406 400 369 324T243 179Q307 199 374 199Q452 199 576 170T752 140Q855 140 951 190V18Z"/><glyph unicode="¤" horiz-adv-x="1110" d="M1035 344L921 229L786 364Q679 293 554 293Q427 293 325 366L188 229L74 344L209 479Q141 586 141 706Q141 825 209 932Q212 932 74 1070L188 1183Q325 1052 325 1048Q424 1119 554 1119Q684 1119 786 1048L921 1183L1035 1070L901 932Q968 826 968 706Q968 583 898 479L1035 344ZM554 453Q606 453 652 473T732 527T787 608T808 706Q808 758 788 804T733 885T652 940T554 960Q503 960 457 940T376 886T321 805T300 706Q300 654 320 608T375 528T456 473T554 453Z"/><glyph unicode="¥" horiz-adv-x="1026" d="M1026 1320L681 718H968V592H598V429H968V304H598V0H433V304H59V429H433V592H59V718H347L1 1320H194L513 736L834 1320H1026Z"/><glyph unicode="¦" horiz-adv-x="519" d="M336 -419H184V328H336V-419ZM336 682H184V1428H336V682Z"/><glyph unicode="§" horiz-adv-x="1025" d="M693 1030Q677 1209 501 1209Q420 1209 375 1169T330 1066Q330 1005 386 953T642 781T894 583T946 418Q946 256 741 158Q883 68 883 -92Q883 -219 783 -303T526 -387Q362 -387 258 -304T132 -63H308Q327 -251 526 -251Q616 -251 665 -205T714 -94Q714 -31 647 24T376 203T125 407T77 579Q77 742 280 835Q160 938 160 1058Q160 1168 249 1255T492 1342Q659 1342 755 1259T868 1030H693ZM661 221Q783 283 783 387Q783 448 734 504T555 639T359 772Q239 715 239 598Q239 532 283 480T467 343T661 221Z"/><glyph unicode="¨" horiz-adv-x="667" d="M591 1133H426V1319H591V1133ZM244 1133H76V1319H244V1133Z"/><glyph unicode="©" horiz-adv-x="1358" d="M681 1345Q773 1345 858 1321T1019 1251T1157 1144T1264 1006T1333 844T1358 665Q1358 572 1334 486T1266 323T1160 185T1023 78T861 9T681 -16Q588 -16 502 8T340 77T202 183T94 321T25 484T0 665Q0 758 24 845T94 1007T201 1145T339 1251T501 1320T681 1345ZM680 96Q757 96 828 116T963 174T1078 263T1167 378T1225 514T1246 665Q1246 741 1226 813T1168 948T1080 1063T965 1152T830 1210T680 1231Q602 1231 530 1211T395 1153T279 1064T190 949T133 814T112 665Q112 548 157 444T279 263T460 141T680 96ZM1005 521Q943 273 682 273Q601 273 536 300T423 379T351 502T325 662Q325 751 350 822T423 942T537 1018T688 1044Q749 1044 801 1029T893 984T961 913T998 816H871Q844 946 685 946Q629 946 585 926T511 869T465 778T449 659Q449 597 465 546T512 457T585 400T681 379Q846 379 879 521H1005Z"/><glyph unicode="ª" horiz-adv-x="738" d="M526 946V1065H438Q188 1065 188 932Q188 844 317 844Q342 844 372 852T431 874T486 906T526 946ZM526 744V815Q431 729 280 729Q228 729 185 743T109 783T59 846T41 928Q41 1171 461 1171H526Q526 1228 514 1261T481 1310T430 1331T364 1336Q210 1336 206 1239H64Q82 1454 370 1454Q442 1454 497 1440T589 1395T646 1314T665 1192V744H526ZM654 505H78V620H654V505Z"/><glyph unicode="«" horiz-adv-x="1110" d="M971 70H827L519 515L827 960H971L718 515L971 70ZM591 70H448L138 515L448 960H591L337 515L591 70Z"/><glyph unicode="¬" horiz-adv-x="1256" d="M1088 654V254H955V520H191V654H1088Z"/><glyph unicode="­" horiz-adv-x="1249" d="M1035 557H214V689H1035V557Z"/><glyph unicode="®" horiz-adv-x="1358" d="M681 1345Q773 1345 858 1321T1019 1251T1157 1144T1264 1006T1333 844T1358 665Q1358 572 1334 486T1266 323T1160 185T1023 78T861 9T681 -16Q588 -16 502 8T340 77T202 183T94 321T25 484T0 665Q0 758 24 845T94 1007T201 1145T339 1251T501 1320T681 1345ZM680 96Q757 96 828 116T963 174T1078 263T1167 378T1225 514T1246 665Q1246 741 1226 813T1168 948T1080 1063T965 1152T830 1210T680 1231Q602 1231 530 1211T395 1153T279 1064T190 949T133 814T112 665Q112 548 157 444T279 263T460 141T680 96ZM984 288H850L793 448Q767 520 721 555T599 591H506V288H390V1018H665Q954 1018 954 816Q954 622 764 609Q862 580 909 470L984 288ZM506 692H654Q829 692 829 807Q829 919 650 919H506V692Z"/><glyph unicode="¯" horiz-adv-x="998" d="M1009 1578H-11V1676H1009V1578Z"/><glyph unicode="°" horiz-adv-x="799" d="M399 1447Q454 1447 503 1425T588 1366T646 1280T667 1177Q667 1121 646 1072T588 985T503 927T399 905Q344 905 295 926T210 984T152 1070T130 1177Q130 1232 151 1281T209 1367T295 1425T399 1447ZM399 1011Q433 1011 463 1024T516 1060T551 1113T564 1177Q564 1211 551 1240T516 1292T463 1327T399 1340Q365 1340 335 1328T283 1293T249 1241T236 1177Q236 1144 248 1114T283 1061T334 1025T399 1011Z"/><glyph unicode="±" horiz-adv-x="1166" d="M1055 665H665V273H501V665H111V827H501V1219H665V827H1055V665ZM1055 0H111V162H1055V0Z"/><glyph unicode="²" horiz-adv-x="665" d="M631 714H25Q47 876 276 1013Q340 1052 378 1080T437 1131T465 1175T472 1223Q472 1331 339 1331Q214 1331 191 1234H44Q84 1447 340 1447Q407 1447 460 1431T551 1387T607 1318T627 1231Q627 1189 617 1155T582 1090T519 1029T422 964Q365 929 322 897T250 833H631V714Z"/><glyph unicode="³" horiz-adv-x="665" d="M461 1097Q628 1065 628 921Q628 873 608 832T549 761T457 714T334 696Q61 696 31 905H184Q194 809 328 809Q476 809 476 940Q476 1040 325 1040H269V1148Q444 1148 444 1250Q444 1332 326 1332Q216 1332 199 1252H48Q87 1447 328 1447Q391 1447 440 1433T523 1395T576 1337T594 1265Q594 1133 461 1097Z"/><glyph unicode="´" horiz-adv-x="676" d="M505 1346L306 1092H171L292 1346H505Z"/><glyph unicode="µ" horiz-adv-x="1026" d="M1006 -10H917Q761 -10 732 121Q604 -23 449 -23Q369 -23 295 20V-367H126V955H295V306Q295 119 485 119Q521 119 550 125T608 149T666 196T732 272V955H901V214Q901 155 924 132T1006 108V-10Z"/><glyph unicode="¶" horiz-adv-x="991" d="M994 1189H867V-367H715V1189H513V-367H362V575Q273 579 205 609T91 688T22 802T-1 940Q-1 1031 29 1102T114 1221T248 1295T425 1321H994V1189Z"/><glyph unicode="·" horiz-adv-x="583" d="M116 799Q116 834 129 865T166 919T220 955T285 968Q320 968 351 955T405 918T441 864T455 799Q455 764 442 733T405 679T351 642T285 628Q251 628 221 641T167 678T130 733T116 799Z"/><glyph unicode="¸" horiz-adv-x="665" d="M360 -67Q402 -72 429 -82T474 -109T498 -150T505 -209Q505 -257 490 -291T441 -349T356 -383T229 -394Q208 -394 183 -393T130 -390V-276Q158 -279 184 -281T236 -283Q360 -283 360 -206Q360 -132 225 -132V0H360V-67Z"/><glyph unicode="¹" horiz-adv-x="665" d="M463 714H321V1192Q253 1144 104 1144V1265Q358 1265 358 1447H463V714Z"/><glyph unicode="º" horiz-adv-x="729" d="M366 1454Q436 1454 495 1429T597 1355T663 1240T687 1088Q687 1001 664 933T597 818T495 746T366 721Q293 721 234 745T132 817T67 932T44 1088Q44 1173 67 1240T133 1355T235 1428T366 1454ZM366 849Q542 849 542 1088Q542 1323 366 1323Q190 1323 190 1088Q190 849 366 849ZM654 505H78V620H654V505Z"/><glyph unicode="»" horiz-adv-x="1110" d="M971 515L663 70H519L773 515L519 960H663L971 515ZM591 515L281 70H138L392 515L138 960H281L591 515Z"/><glyph unicode="¼" horiz-adv-x="1540" d="M448 661H315V1103Q253 1058 113 1058V1170Q349 1170 349 1338H448V661ZM1324 1321L448 0H244L1182 1321H1324ZM1456 139H1362V0H1233V139H887V248L1252 676H1362V255H1456V139ZM1233 255V512L1016 255H1233Z"/><glyph unicode="½" horiz-adv-x="1540" d="M448 661H315V1103Q253 1058 113 1058V1170Q349 1170 349 1338H448V661ZM1291 1321L354 0H210L1149 1321H1291ZM1486 0H927Q945 148 1158 277Q1220 314 1256 340T1311 386T1335 426T1340 470Q1340 571 1218 571Q1102 571 1081 480H945Q981 678 1219 678Q1281 678 1330 663T1414 622T1466 559T1484 479Q1484 440 1475 409T1444 349T1386 292T1294 229Q1188 165 1136 109H1486V0Z"/><glyph unicode="¾" horiz-adv-x="1540" d="M445 1016Q599 984 599 852Q599 808 580 771T526 705T441 660T328 644Q73 644 46 837H188Q197 749 321 749Q459 749 459 870Q459 962 318 962H268V1062Q429 1062 429 1156Q429 1233 319 1233Q217 1233 202 1158H61Q99 1338 321 1338Q379 1338 424 1325T501 1290T549 1237T566 1170Q566 1046 445 1016ZM1340 1321L403 0H261L1200 1321H1340ZM1456 139H1362V0H1233V139H887V248L1252 676H1362V255H1456V139ZM1233 255V512L1016 255H1233Z"/><glyph unicode="¿" horiz-adv-x="1026" d="M940 -7Q932 -95 898 -165T807 -285T676 -361T513 -388Q419 -388 341 -361T207 -286T120 -172T89 -27Q89 19 98 59T130 138T189 217T280 303Q336 350 368 383T417 450T437 525T441 631H599Q599 462 561 386Q541 347 506 306T418 220Q365 174 334 142T287 83T267 34T263 -16Q263 -69 281 -113T333 -188T412 -237T512 -255Q728 -255 766 -7H940ZM607 771H423V955H607V771Z"/><glyph unicode="À" horiz-adv-x="1231" d="M831 541L598 1152L377 541H831ZM1233 0H1035L882 401H329L183 0H-1L505 1320H695L1233 0ZM782 1388H647L448 1642H661L782 1388Z"/><glyph unicode="Á" horiz-adv-x="1231" d="M831 541L598 1152L377 541H831ZM1233 0H1035L882 401H329L183 0H-1L505 1320H695L1233 0ZM782 1642L583 1388H448L569 1642H782Z"/><glyph unicode="Â" horiz-adv-x="1231" d="M831 541L598 1152L377 541H831ZM1233 0H1035L882 401H329L183 0H-1L505 1320H695L1233 0ZM900 1388H716L614 1540L513 1388H330L529 1641H701L900 1388Z"/><glyph unicode="Ã" horiz-adv-x="1231" d="M831 541L598 1152L377 541H831ZM1233 0H1035L882 401H329L183 0H-1L505 1320H695L1233 0ZM917 1624Q917 1575 904 1537T866 1473T808 1432T735 1418Q715 1418 679 1429T605 1455T536 1481T496 1493Q439 1493 432 1415H313Q313 1463 327 1501T365 1567T423 1608T496 1623Q515 1623 550 1611T623 1584T692 1557T735 1545Q790 1545 799 1624H917Z"/><glyph unicode="Ä" horiz-adv-x="1231" d="M831 541L598 1152L377 541H831ZM1233 0H1035L882 401H329L183 0H-1L505 1320H695L1233 0ZM873 1429H708V1615H873V1429ZM526 1429H358V1615H526V1429Z"/><glyph unicode="Å" horiz-adv-x="1231" d="M831 541L598 1152L377 541H831ZM1233 0H1035L882 401H329L183 0H-1L505 1320H695L1233 0ZM601 1648Q635 1648 664 1635T716 1599T751 1546T764 1484Q764 1451 752 1421T717 1369T665 1334T601 1321Q566 1321 537 1333T485 1367T451 1419T438 1484Q438 1517 451 1546T486 1598T537 1634T601 1648ZM601 1386Q642 1386 670 1414T698 1484Q698 1503 691 1521T670 1552T639 1573T601 1581Q581 1581 564 1573T534 1552T513 1521T505 1484Q505 1463 512 1445T533 1414T564 1393T601 1386Z"/><glyph unicode="Æ" horiz-adv-x="1844" d="M1743 0H880V382H414L202 0H0L762 1320H1713V1163H1054V762H1661V605H1054V157H1743V0ZM880 538V1163H842L497 538H880Z"/><glyph unicode="Ç" horiz-adv-x="1332" d="M1237 920H1058Q1054 983 1025 1033T949 1119T839 1174T703 1193Q603 1193 523 1158T386 1056T299 889T268 661Q268 533 298 434T385 266T521 163T699 127Q776 127 839 146T949 202T1024 294T1058 419H1237Q1228 314 1185 232T1071 93T906 7T702 -23Q561 -23 447 25T253 162T130 378T87 661Q87 817 130 943T254 1159T448 1296T702 1345Q807 1345 900 1315T1065 1229T1182 1095T1237 920ZM708 -67Q750 -72 777 -82T822 -109T846 -150T853 -209Q853 -257 838 -291T789 -349T704 -383T577 -394Q556 -394 531 -393T478 -390V-276Q506 -279 532 -281T584 -283Q708 -283 708 -206Q708 -132 573 -132V0H708V-67Z"/><glyph unicode="È" horiz-adv-x="1231" d="M1133 0H147V1320H1103V1163H322V762H1052V605H322V157H1133V0ZM782 1388H647L448 1642H661L782 1388Z"/><glyph unicode="É" horiz-adv-x="1231" d="M1133 0H147V1320H1103V1163H322V762H1052V605H322V157H1133V0ZM782 1642L583 1388H448L569 1642H782Z"/><glyph unicode="Ê" horiz-adv-x="1231" d="M1133 0H147V1320H1103V1163H322V762H1052V605H322V157H1133V0ZM900 1388H716L614 1540L513 1388H330L529 1641H701L900 1388Z"/><glyph unicode="Ë" horiz-adv-x="1231" d="M1133 0H147V1320H1103V1163H322V762H1052V605H322V157H1133V0ZM873 1429H708V1615H873V1429ZM526 1429H358V1615H526V1429Z"/><glyph unicode="Ì" horiz-adv-x="513" d="M345 0H171V1320H345V0ZM424 1388H289L90 1642H303L424 1388Z"/><glyph unicode="Í" horiz-adv-x="513" d="M345 0H171V1320H345V0ZM424 1642L225 1388H90L211 1642H424Z"/><glyph unicode="Î" horiz-adv-x="513" d="M345 0H171V1320H345V0ZM542 1388H358L256 1540L155 1388H-28L171 1641H343L542 1388Z"/><glyph unicode="Ï" horiz-adv-x="513" d="M345 0H171V1320H345V0ZM514 1429H349V1615H514V1429ZM167 1429H-1V1615H167V1429Z"/><glyph unicode="Ð" horiz-adv-x="1332" d="M1239 667Q1239 0 566 0H147V583H1V740H147V1320H566Q1239 1320 1239 667ZM1059 667Q1059 783 1036 875T957 1031T805 1129T564 1163H322V740H682V583H322V157H564Q708 157 803 191T956 292T1036 452T1059 667Z"/><glyph unicode="Ñ" horiz-adv-x="1332" d="M1185 0H1006L313 1041V0H147V1320H328L1018 277V1320H1185V0ZM968 1624Q968 1575 955 1537T917 1473T859 1432T786 1418Q766 1418 730 1429T656 1455T587 1481T547 1493Q490 1493 483 1415H364Q364 1463 378 1501T416 1567T474 1608T547 1623Q566 1623 601 1611T674 1584T743 1557T786 1545Q841 1545 850 1624H968Z"/><glyph unicode="Ò" horiz-adv-x="1436" d="M719 1343Q856 1343 972 1294T1172 1156T1303 940T1350 661Q1350 509 1304 384T1174 168T974 27T719 -23Q580 -23 464 26T264 166T134 382T87 661Q87 815 134 941T266 1156T466 1294T719 1343ZM718 127Q817 127 900 163T1043 268T1136 436T1170 661Q1170 787 1136 886T1042 1053T900 1156T722 1192Q623 1192 540 1156T397 1052T302 885T268 661Q268 535 301 436T395 269T537 164T718 127ZM885 1388H750L551 1642H764L885 1388Z"/><glyph unicode="Ó" horiz-adv-x="1436" d="M719 1343Q856 1343 972 1294T1172 1156T1303 940T1350 661Q1350 509 1304 384T1174 168T974 27T719 -23Q580 -23 464 26T264 166T134 382T87 661Q87 815 134 941T266 1156T466 1294T719 1343ZM718 127Q817 127 900 163T1043 268T1136 436T1170 661Q1170 787 1136 886T1042 1053T900 1156T722 1192Q623 1192 540 1156T397 1052T302 885T268 661Q268 535 301 436T395 269T537 164T718 127ZM885 1642L686 1388H551L672 1642H885Z"/><glyph unicode="Ô" horiz-adv-x="1436" d="M719 1343Q856 1343 972 1294T1172 1156T1303 940T1350 661Q1350 509 1304 384T1174 168T974 27T719 -23Q580 -23 464 26T264 166T134 382T87 661Q87 815 134 941T266 1156T466 1294T719 1343ZM718 127Q817 127 900 163T1043 268T1136 436T1170 661Q1170 787 1136 886T1042 1053T900 1156T722 1192Q623 1192 540 1156T397 1052T302 885T268 661Q268 535 301 436T395 269T537 164T718 127ZM1003 1388H819L717 1540L616 1388H433L632 1641H804L1003 1388Z"/><glyph unicode="Õ" horiz-adv-x="1436" d="M719 1343Q856 1343 972 1294T1172 1156T1303 940T1350 661Q1350 509 1304 384T1174 168T974 27T719 -23Q580 -23 464 26T264 166T134 382T87 661Q87 815 134 941T266 1156T466 1294T719 1343ZM718 127Q817 127 900 163T1043 268T1136 436T1170 661Q1170 787 1136 886T1042 1053T900 1156T722 1192Q623 1192 540 1156T397 1052T302 885T268 661Q268 535 301 436T395 269T537 164T718 127ZM1020 1624Q1020 1575 1007 1537T969 1473T911 1432T838 1418Q818 1418 782 1429T708 1455T639 1481T599 1493Q542 1493 535 1415H416Q416 1463 430 1501T468 1567T526 1608T599 1623Q618 1623 653 1611T726 1584T795 1557T838 1545Q893 1545 902 1624H1020Z"/><glyph unicode="Ö" horiz-adv-x="1436" d="M719 1343Q856 1343 972 1294T1172 1156T1303 940T1350 661Q1350 509 1304 384T1174 168T974 27T719 -23Q580 -23 464 26T264 166T134 382T87 661Q87 815 134 941T266 1156T466 1294T719 1343ZM718 127Q817 127 900 163T1043 268T1136 436T1170 661Q1170 787 1136 886T1042 1053T900 1156T722 1192Q623 1192 540 1156T397 1052T302 885T268 661Q268 535 301 436T395 269T537 164T718 127ZM971 1429H806V1615H971V1429ZM624 1429H456V1615H624V1429Z"/><glyph unicode="×" horiz-adv-x="1076" d="M927 369L820 262L538 544L256 262L149 369L431 651L149 932L256 1039L538 758L820 1039L927 932L645 651L927 369Z"/><glyph unicode="Ø" horiz-adv-x="1436" d="M1366 1294L1207 1118Q1350 933 1350 661Q1350 509 1304 384T1174 168T974 27T719 -23Q488 -23 313 119L162 -51L72 26L231 202Q159 297 123 410T87 661Q87 815 134 941T266 1156T466 1294T719 1343Q839 1343 938 1308T1123 1201L1275 1370L1366 1294ZM1016 1080Q955 1135 882 1163T722 1192Q623 1192 540 1156T397 1052T302 885T268 661Q268 562 288 481T347 332L1016 1080ZM423 240Q542 127 718 127Q817 127 900 163T1043 268T1136 436T1170 661Q1170 858 1089 988L423 240Z"/><glyph unicode="Ù" horiz-adv-x="1332" d="M666 -23Q544 -23 458 1T314 68T223 168T173 289T152 422T147 557V1320H322V560Q322 427 345 344T411 215T519 151T666 134Q750 134 814 151T921 215T987 345T1009 560V1320H1185V557Q1185 420 1162 313T1080 131T921 17T666 -23ZM833 1388H698L499 1642H712L833 1388Z"/><glyph unicode="Ú" horiz-adv-x="1332" d="M666 -23Q544 -23 458 1T314 68T223 168T173 289T152 422T147 557V1320H322V560Q322 427 345 344T411 215T519 151T666 134Q750 134 814 151T921 215T987 345T1009 560V1320H1185V557Q1185 420 1162 313T1080 131T921 17T666 -23ZM833 1642L634 1388H499L620 1642H833Z"/><glyph unicode="Û" horiz-adv-x="1332" d="M666 -23Q544 -23 458 1T314 68T223 168T173 289T152 422T147 557V1320H322V560Q322 427 345 344T411 215T519 151T666 134Q750 134 814 151T921 215T987 345T1009 560V1320H1185V557Q1185 420 1162 313T1080 131T921 17T666 -23ZM951 1388H767L665 1540L564 1388H381L580 1641H752L951 1388Z"/><glyph unicode="Ü" horiz-adv-x="1332" d="M666 -23Q544 -23 458 1T314 68T223 168T173 289T152 422T147 557V1320H322V560Q322 427 345 344T411 215T519 151T666 134Q750 134 814 151T921 215T987 345T1009 560V1320H1185V557Q1185 420 1162 313T1080 131T921 17T666 -23ZM923 1429H758V1615H923V1429ZM576 1429H408V1615H576V1429Z"/><glyph unicode="Ý" horiz-adv-x="1231" d="M1222 1320L703 560V0H528V560L8 1320H221L616 714L1009 1320H1222ZM782 1642L583 1388H448L569 1642H782Z"/><glyph unicode="Þ" horiz-adv-x="1231" d="M322 1062H642Q721 1062 788 1056T911 1033T1010 984T1085 901Q1149 797 1149 676Q1149 474 1023 371T654 268H322V0H147V1320H322V1062ZM322 425H658Q742 425 801 441T897 488T952 564T969 669Q969 709 958 744T929 809T885 858T829 887Q798 897 755 900T652 904H322V425Z"/><glyph unicode="ß" horiz-adv-x="1127" d="M126 0V901Q126 1343 516 1343Q593 1343 655 1323T761 1267T829 1185T853 1084Q853 1039 831 976T762 831Q718 758 718 718Q718 697 723 682T746 648T797 607T885 547Q939 511 974 480T1029 417T1058 352T1066 280Q1066 218 1042 163T975 67T870 2T736 -23Q669 -23 612 -6T512 44T444 122T415 224H577Q592 111 732 111Q769 111 799 122T850 155T883 204T895 268Q895 299 889 320T866 361T819 401T740 453Q645 512 596 566T547 692Q547 723 564 768T614 872Q654 944 674 992T695 1067Q695 1098 682 1123T644 1168T586 1197T513 1208Q463 1208 423 1194T355 1145T311 1049T295 894V0H126Z"/><glyph unicode="à" horiz-adv-x="1026" d="M732 251V463H614Q244 463 244 262Q244 189 299 150T445 111Q487 111 528 120T607 148T677 192T732 251ZM732 97Q598 -23 396 -23Q327 -23 268 -3T165 53T96 140T71 253Q71 588 648 588H732Q732 650 728 698T703 778T634 828T502 845Q276 845 268 682H97Q115 979 512 979Q602 979 674 963T796 907T874 796T901 617V0H732V97ZM680 1092H545L346 1346H559L680 1092Z"/><glyph unicode="á" horiz-adv-x="1026" d="M732 251V463H614Q244 463 244 262Q244 189 299 150T445 111Q487 111 528 120T607 148T677 192T732 251ZM732 97Q598 -23 396 -23Q327 -23 268 -3T165 53T96 140T71 253Q71 588 648 588H732Q732 650 728 698T703 778T634 828T502 845Q276 845 268 682H97Q115 979 512 979Q602 979 674 963T796 907T874 796T901 617V0H732V97ZM680 1346L481 1092H346L467 1346H680Z"/><glyph unicode="â" horiz-adv-x="1026" d="M732 251V463H614Q244 463 244 262Q244 189 299 150T445 111Q487 111 528 120T607 148T677 192T732 251ZM732 97Q598 -23 396 -23Q327 -23 268 -3T165 53T96 140T71 253Q71 588 648 588H732Q732 650 728 698T703 778T634 828T502 845Q276 845 268 682H97Q115 979 512 979Q602 979 674 963T796 907T874 796T901 617V0H732V97ZM798 1092H614L512 1244L411 1092H228L427 1345H599L798 1092Z"/><glyph unicode="ã" horiz-adv-x="1026" d="M732 251V463H614Q244 463 244 262Q244 189 299 150T445 111Q487 111 528 120T607 148T677 192T732 251ZM732 97Q598 -23 396 -23Q327 -23 268 -3T165 53T96 140T71 253Q71 588 648 588H732Q732 650 728 698T703 778T634 828T502 845Q276 845 268 682H97Q115 979 512 979Q602 979 674 963T796 907T874 796T901 617V0H732V97ZM815 1328Q815 1279 802 1241T764 1177T706 1136T633 1122Q613 1122 577 1133T503 1159T434 1185T394 1197Q337 1197 330 1119H211Q211 1167 225 1205T263 1271T321 1312T394 1327Q413 1327 448 1315T521 1288T590 1261T633 1249Q688 1249 697 1328H815Z"/><glyph unicode="ä" horiz-adv-x="1026" d="M732 251V463H614Q244 463 244 262Q244 189 299 150T445 111Q487 111 528 120T607 148T677 192T732 251ZM732 97Q598 -23 396 -23Q327 -23 268 -3T165 53T96 140T71 253Q71 588 648 588H732Q732 650 728 698T703 778T634 828T502 845Q276 845 268 682H97Q115 979 512 979Q602 979 674 963T796 907T874 796T901 617V0H732V97ZM770 1133H605V1319H770V1133ZM423 1133H255V1319H423V1133Z"/><glyph unicode="å" horiz-adv-x="1026" d="M732 251V463H614Q244 463 244 262Q244 189 299 150T445 111Q487 111 528 120T607 148T677 192T732 251ZM732 97Q598 -23 396 -23Q327 -23 268 -3T165 53T96 140T71 253Q71 588 648 588H732Q732 650 728 698T703 778T634 828T502 845Q276 845 268 682H97Q115 979 512 979Q602 979 674 963T796 907T874 796T901 617V0H732V97ZM513 1388Q547 1388 576 1375T628 1339T664 1286T677 1224Q677 1191 665 1162T630 1110T577 1074T513 1061Q479 1061 450 1073T398 1108T364 1160T351 1224Q351 1257 363 1287T398 1339T449 1375T513 1388ZM513 1126Q555 1126 582 1154T610 1224Q610 1243 603 1261T582 1292T552 1313T513 1321Q493 1321 476 1313T446 1292T426 1261T418 1224Q418 1204 425 1186T446 1155T476 1134T513 1126Z"/><glyph unicode="æ" horiz-adv-x="1641" d="M714 394V463H598Q244 463 244 262Q244 111 435 111Q498 111 549 129T637 183T694 272T714 394ZM785 162Q760 122 729 88T651 30T541 -9T388 -23Q317 -23 259 -3T159 53T94 141T71 253Q71 588 629 588H714Q714 646 708 693T680 774T614 826T494 845Q282 845 268 682H97Q119 979 502 979Q746 979 831 854Q950 979 1137 979Q1239 979 1320 945T1458 847T1545 689T1575 478V437H882Q888 354 910 293T967 192T1050 131T1155 111Q1197 111 1237 122T1308 156T1360 210T1383 285H1557Q1547 211 1514 154T1428 58T1306 -2T1155 -23Q909 -23 785 162ZM1396 571Q1355 845 1137 845Q922 845 886 571H1396Z"/><glyph unicode="ç" horiz-adv-x="923" d="M513 -23Q413 -23 331 10T189 107T97 264T64 478Q64 596 96 689T187 847T329 945T513 979Q590 979 656 959T772 900T855 802T898 669H723Q721 712 704 745T659 800T594 833T513 845Q452 845 402 822T316 753T260 638T240 478Q240 387 260 318T316 203T402 134T513 111Q553 111 590 122T656 154T703 208T723 285H898Q888 209 855 152T772 55T655 -3T513 -23ZM504 -67Q546 -72 573 -82T618 -109T642 -150T649 -209Q649 -257 634 -291T585 -349T500 -383T373 -394Q352 -394 327 -393T274 -390V-276Q302 -279 328 -281T380 -283Q504 -283 504 -206Q504 -132 369 -132V0H504V-67Z"/><glyph unicode="è" horiz-adv-x="1026" d="M531 -23Q427 -23 341 10T194 108T98 266T64 478Q64 595 97 687T189 845T331 944T513 979Q616 979 699 945T840 847T930 689T962 478V437H242Q248 354 271 293T333 192T422 131T531 111Q573 111 615 122T690 156T745 210T767 285H945Q934 211 899 154T809 57T683 -2T531 -23ZM782 571Q762 707 690 776T513 845Q462 845 417 828T337 777T278 692T244 571H782ZM680 1092H545L346 1346H559L680 1092Z"/><glyph unicode="é" horiz-adv-x="1026" d="M531 -23Q427 -23 341 10T194 108T98 266T64 478Q64 595 97 687T189 845T331 944T513 979Q616 979 699 945T840 847T930 689T962 478V437H242Q248 354 271 293T333 192T422 131T531 111Q573 111 615 122T690 156T745 210T767 285H945Q934 211 899 154T809 57T683 -2T531 -23ZM782 571Q762 707 690 776T513 845Q462 845 417 828T337 777T278 692T244 571H782ZM680 1346L481 1092H346L467 1346H680Z"/><glyph unicode="ê" horiz-adv-x="1026" d="M531 -23Q427 -23 341 10T194 108T98 266T64 478Q64 595 97 687T189 845T331 944T513 979Q616 979 699 945T840 847T930 689T962 478V437H242Q248 354 271 293T333 192T422 131T531 111Q573 111 615 122T690 156T745 210T767 285H945Q934 211 899 154T809 57T683 -2T531 -23ZM782 571Q762 707 690 776T513 845Q462 845 417 828T337 777T278 692T244 571H782ZM798 1092H614L512 1244L411 1092H228L427 1345H599L798 1092Z"/><glyph unicode="ë" horiz-adv-x="1026" d="M531 -23Q427 -23 341 10T194 108T98 266T64 478Q64 595 97 687T189 845T331 944T513 979Q616 979 699 945T840 847T930 689T962 478V437H242Q248 354 271 293T333 192T422 131T531 111Q573 111 615 122T690 156T745 210T767 285H945Q934 211 899 154T809 57T683 -2T531 -23ZM782 571Q762 707 690 776T513 845Q462 845 417 828T337 777T278 692T244 571H782ZM770 1133H605V1319H770V1133ZM423 1133H255V1319H423V1133Z"/><glyph unicode="ì" horiz-adv-x="420" d="M295 0H126V955H295V0ZM198 1346L319 1092H184L-15 1346H198Z"/><glyph unicode="í" horiz-adv-x="420" d="M295 0H126V955H295V0ZM442 1346L243 1092H108L229 1346H442Z"/><glyph unicode="î" horiz-adv-x="420" d="M295 0H126V955H295V0ZM497 1092H313L210 1244L109 1092H-74L126 1345H298L497 1092Z"/><glyph unicode="ï" horiz-adv-x="420" d="M295 0H126V955H295V0ZM461 1133H296V1319H461V1133ZM115 1133H-53V1319H115V1133Z"/><glyph unicode="ð" horiz-adv-x="1026" d="M666 1156Q745 1065 802 980T893 815Q962 653 962 467Q962 352 930 261T840 107T698 11T513 -23Q413 -23 331 10T189 106T97 260T64 467Q64 582 96 673T187 826T329 922T513 955Q594 955 658 923Q612 1019 539 1102L319 999L273 1085L467 1174Q430 1210 385 1246T283 1320H479Q521 1288 548 1267T588 1231L782 1321L829 1235L666 1156ZM513 111Q573 111 623 133T709 199T765 311T785 467Q785 555 765 622T709 733T623 800T513 823Q452 823 402 801T316 734T260 622T240 467Q240 378 260 311T316 200T402 133T513 111Z"/><glyph unicode="ñ" horiz-adv-x="1026" d="M295 834Q358 907 430 943T580 979Q904 979 904 625V0H733V617Q733 676 723 718T692 786T637 825T556 837Q426 837 295 685V0H126V955H295V834ZM815 1328Q815 1279 802 1241T764 1177T706 1136T633 1122Q613 1122 577 1133T503 1159T434 1185T394 1197Q337 1197 330 1119H211Q211 1167 225 1205T263 1271T321 1312T394 1327Q413 1327 448 1315T521 1288T590 1261T633 1249Q688 1249 697 1328H815Z"/><glyph unicode="ò" horiz-adv-x="1026" d="M513 979Q616 979 699 945T840 847T930 689T962 478Q962 359 930 266T839 109T698 11T513 -23Q413 -23 331 10T189 107T97 264T64 478Q64 596 96 689T187 847T329 945T513 979ZM513 111Q573 111 623 134T709 203T765 318T785 478Q785 569 765 638T709 753T623 822T513 845Q452 845 402 822T316 753T260 638T240 478Q240 387 260 318T316 203T402 134T513 111ZM680 1092H545L346 1346H559L680 1092Z"/><glyph unicode="ó" horiz-adv-x="1026" d="M513 979Q616 979 699 945T840 847T930 689T962 478Q962 359 930 266T839 109T698 11T513 -23Q413 -23 331 10T189 107T97 264T64 478Q64 596 96 689T187 847T329 945T513 979ZM513 111Q573 111 623 134T709 203T765 318T785 478Q785 569 765 638T709 753T623 822T513 845Q452 845 402 822T316 753T260 638T240 478Q240 387 260 318T316 203T402 134T513 111ZM680 1346L481 1092H346L467 1346H680Z"/><glyph unicode="ô" horiz-adv-x="1026" d="M513 979Q616 979 699 945T840 847T930 689T962 478Q962 359 930 266T839 109T698 11T513 -23Q413 -23 331 10T189 107T97 264T64 478Q64 596 96 689T187 847T329 945T513 979ZM513 111Q573 111 623 134T709 203T765 318T785 478Q785 569 765 638T709 753T623 822T513 845Q452 845 402 822T316 753T260 638T240 478Q240 387 260 318T316 203T402 134T513 111ZM808 1092H624L522 1244L421 1092H238L437 1345H609L808 1092Z"/><glyph unicode="õ" horiz-adv-x="1026" d="M513 979Q616 979 699 945T840 847T930 689T962 478Q962 359 930 266T839 109T698 11T513 -23Q413 -23 331 10T189 107T97 264T64 478Q64 596 96 689T187 847T329 945T513 979ZM513 111Q573 111 623 134T709 203T765 318T785 478Q785 569 765 638T709 753T623 822T513 845Q452 845 402 822T316 753T260 638T240 478Q240 387 260 318T316 203T402 134T513 111ZM815 1328Q815 1279 802 1241T764 1177T706 1136T633 1122Q613 1122 577 1133T503 1159T434 1185T394 1197Q337 1197 330 1119H211Q211 1167 225 1205T263 1271T321 1312T394 1327Q413 1327 448 1315T521 1288T590 1261T633 1249Q688 1249 697 1328H815Z"/><glyph unicode="ö" horiz-adv-x="1026" d="M513 979Q616 979 699 945T840 847T930 689T962 478Q962 359 930 266T839 109T698 11T513 -23Q413 -23 331 10T189 107T97 264T64 478Q64 596 96 689T187 847T329 945T513 979ZM513 111Q573 111 623 134T709 203T765 318T785 478Q785 569 765 638T709 753T623 822T513 845Q452 845 402 822T316 753T260 638T240 478Q240 387 260 318T316 203T402 134T513 111ZM770 1133H605V1319H770V1133ZM423 1133H255V1319H423V1133Z"/><glyph unicode="÷" horiz-adv-x="1076" d="M630 848H446V1032H630V848ZM975 575H102V726H975V575ZM630 269H446V454H630V269Z"/><glyph unicode="ø" horiz-adv-x="1026" d="M852 833Q962 699 962 478Q962 359 930 266T839 109T698 11T513 -23Q437 -23 374 -4T253 52L162 -64L76 0Q176 124 172 124Q64 257 64 478Q64 596 96 689T187 847T329 945T513 979Q588 979 652 960T773 904L863 1022L949 957L852 833ZM681 784Q608 845 513 845Q452 845 402 822T316 753T260 638T240 478Q240 350 277 262L681 784ZM343 172Q413 111 513 111Q573 111 623 134T709 203T765 318T785 478Q785 609 745 695Q348 172 343 172Z"/><glyph unicode="ù" horiz-adv-x="1026" d="M732 121Q604 -23 445 -23Q121 -23 121 330V955H293V339Q293 279 303 238T334 170T389 131T470 119Q613 119 732 272V955H901V0H732V121ZM680 1092H545L346 1346H559L680 1092Z"/><glyph unicode="ú" horiz-adv-x="1026" d="M732 121Q604 -23 445 -23Q121 -23 121 330V955H293V339Q293 279 303 238T334 170T389 131T470 119Q613 119 732 272V955H901V0H732V121ZM680 1346L481 1092H346L467 1346H680Z"/><glyph unicode="û" horiz-adv-x="1026" d="M732 121Q604 -23 445 -23Q121 -23 121 330V955H293V339Q293 279 303 238T334 170T389 131T470 119Q613 119 732 272V955H901V0H732V121ZM798 1092H614L512 1244L411 1092H228L427 1345H599L798 1092Z"/><glyph unicode="ü" horiz-adv-x="1026" d="M732 121Q604 -23 445 -23Q121 -23 121 330V955H293V339Q293 279 303 238T334 170T389 131T470 119Q613 119 732 272V955H901V0H732V121ZM770 1133H605V1319H770V1133ZM423 1133H255V1319H423V1133Z"/><glyph unicode="ý" horiz-adv-x="923" d="M179 -231Q305 -231 385 0L25 955H209L461 209L715 955H898L538 0Q506 -86 476 -157T409 -279T324 -359T209 -388Q177 -388 149 -385T97 -375V-218Q117 -226 138 -228T179 -231ZM628 1346L429 1092H294L415 1346H628Z"/><glyph unicode="þ" horiz-adv-x="1026" d="M295 842Q408 979 568 979Q662 979 735 944T859 844T936 688T962 486Q962 370 931 276T846 116T718 13T557 -23Q479 -23 414 0T295 74V-367H126V1320H295V842ZM295 227Q406 111 547 111Q656 111 720 205T785 486Q785 662 724 753T554 845Q412 845 295 681V227Z"/><glyph unicode="ÿ" horiz-adv-x="923" d="M179 -231Q305 -231 385 0L25 955H209L461 209L715 955H898L538 0Q506 -86 476 -157T409 -279T324 -359T209 -388Q177 -388 149 -385T97 -375V-218Q117 -226 138 -228T179 -231ZM719 1133H554V1319H719V1133ZM372 1133H204V1319H372V1133Z"/><glyph unicode="Œ" horiz-adv-x="1844" d="M1747 0H1007V175Q977 130 936 94T847 31T745 -9T637 -23Q510 -23 409 23T236 158T126 373T87 661Q87 821 125 947T235 1162T408 1296T637 1343Q690 1343 743 1329T845 1289T935 1227T1007 1147V1320H1717V1163H1183V762H1667V605H1183V157H1747V0ZM636 127Q1007 127 1007 661Q1007 1192 642 1192Q554 1192 485 1158T367 1056T294 889T268 661Q268 532 293 433T365 265T481 162T636 127Z"/><glyph unicode="œ" horiz-adv-x="1742" d="M1678 437H957Q962 353 986 292T1049 191T1138 131T1246 111Q1290 111 1332 122T1407 156T1461 211T1485 285H1658Q1649 211 1614 154T1524 58T1398 -2T1246 -23Q1004 -23 872 150Q753 -23 513 -23Q413 -23 331 10T189 107T97 264T64 478Q64 596 96 689T187 847T329 945T513 979Q748 979 872 807Q997 979 1228 979Q1331 979 1414 945T1556 847T1646 689T1678 478V437ZM1497 571Q1487 639 1464 690T1405 775T1325 827T1228 845Q1177 845 1133 828T1054 777T995 692T962 571H1497ZM513 111Q573 111 623 134T709 203T765 318T785 478Q785 569 765 638T709 753T623 822T513 845Q452 845 402 822T316 753T260 638T240 478Q240 387 260 318T316 203T402 134T513 111Z"/><glyph unicode="Š" horiz-adv-x="1224" d="M646 -23Q506 -23 402 10T228 102T122 244T83 425H251Q258 350 291 295T375 204T494 151T637 134Q711 134 771 149T875 194T941 265T965 359Q965 413 944 451T874 517T747 567T553 614Q442 639 362 671T230 747T153 847T128 977Q128 1056 162 1123T258 1239T406 1315T598 1343Q709 1343 800 1316T958 1238T1062 1113T1103 946H934Q907 1185 606 1185Q459 1185 380 1131T300 983Q300 941 314 912T364 860T458 819T603 782Q692 764 762 744T883 704Q933 686 979 657T1060 588T1115 494T1136 374Q1136 287 1100 214T998 89T842 7T646 -23ZM882 1658L682 1406H511L311 1658H494L597 1506L698 1658H882Z"/><glyph unicode="š" horiz-adv-x="923" d="M467 -23Q77 -23 56 285H227Q228 111 465 111Q518 111 558 122T626 154T667 202T681 263Q681 297 671 318T630 355T545 386T404 425Q319 446 258 467T157 518T98 592T79 703Q79 762 104 812T175 900T288 958T435 979Q812 979 818 711H650Q641 845 448 845Q405 845 369 837T305 812T263 773T248 718Q248 690 255 672T288 639T367 608T509 571Q596 550 660 528T766 473T829 395T850 280Q850 215 823 160T747 64T626 0T467 -23ZM711 1345L512 1089H339L139 1345H322L425 1190L527 1345H711Z"/><glyph unicode="Ÿ" horiz-adv-x="1231" d="M1222 1320L703 560V0H528V560L8 1320H221L616 714L1009 1320H1222ZM873 1429H708V1615H873V1429ZM526 1429H358V1615H526V1429Z"/><glyph unicode="Ž" horiz-adv-x="1127" d="M1078 0H34V164L853 1163H109V1320H1054V1155L235 157H1078V0ZM862 1658L662 1406H491L291 1658H474L577 1506L678 1658H862Z"/><glyph unicode="ž" horiz-adv-x="923" d="M883 0H37V145L632 812H72V955H853V812L259 145H883V0ZM721 1345L522 1089H349L149 1345H332L435 1190L537 1345H721Z"/><glyph unicode="ƒ" horiz-adv-x="1025" d="M948 1154Q877 1174 811 1174Q769 1174 742 1152T697 1030L679 936H862L841 811H656L485 -153Q463 -277 406 -332T243 -387Q152 -387 59 -369V-225Q156 -245 210 -245Q272 -245 291 -212T324 -107L485 811H304L324 936H507L527 1058Q553 1219 618 1272T783 1326Q875 1326 948 1312V1154Z"/><glyph unicode="ˆ" horiz-adv-x="696" d="M633 1092H449L347 1244L246 1092H63L262 1345H434L633 1092Z"/><glyph unicode="˜" horiz-adv-x="730" d="M667 1328Q667 1279 654 1241T616 1177T558 1136T485 1122Q465 1122 429 1133T355 1159T286 1185T246 1197Q189 1197 182 1119H63Q63 1167 77 1205T115 1271T173 1312T246 1327Q265 1327 300 1315T373 1288T442 1261T485 1249Q540 1249 549 1328H667Z"/><glyph unicode="॑" horiz-adv-x="0" d="M-290 1480H-386V2168H-290V1480Z"/><glyph unicode="॒" horiz-adv-x="0" d="M10 -448H-950V-360H10V-448Z"/><glyph unicode="।" horiz-adv-x="854" d="M592 -107H416V1389H592V-107Z"/><glyph unicode="॥" horiz-adv-x="1254" d="M992 -107H816V1389H992V-107ZM592 -107H416V1389H592V-107Z"/><glyph unicode="ஂ" horiz-adv-x="1396" d="M867 1152Q867 1082 819 1033T699 984Q629 984 580 1033T531 1152Q531 1222 580 1271T699 1320Q769 1320 818 1271T867 1152ZM788 1153Q788 1190 762 1215T699 1241Q662 1241 637 1216T611 1153Q611 1116 636 1090T699 1064Q736 1064 762 1090T788 1153Z"/><glyph unicode="ஃ" horiz-adv-x="1396" d="M867 1152Q867 1082 819 1033T699 984Q629 984 580 1033T531 1152Q531 1222 580 1271T699 1320Q769 1320 818 1271T867 1152ZM1294 262Q1294 192 1246 143T1126 94Q1056 94 1007 143T958 262Q958 332 1007 381T1126 430Q1196 430 1245 381T1294 262ZM440 261Q440 191 392 142T272 93Q202 93 153 142T104 261Q104 331 153 380T272 429Q342 429 391 380T440 261ZM788 1153Q788 1190 762 1215T699 1241Q662 1241 637 1216T611 1153Q611 1116 636 1090T699 1064Q736 1064 762 1090T788 1153ZM1214 262Q1214 299 1189 325T1126 351Q1089 351 1063 325T1037 262Q1037 225 1063 200T1126 174Q1163 174 1188 199T1214 262ZM360 262Q360 299 335 325T272 351Q235 351 209 325T183 262Q183 225 209 200T272 174Q309 174 334 199T360 262Z"/><glyph unicode="அ" horiz-adv-x="2320" d="M2186 1320V-207H1970V254H1684Q1504 -248 795 -248Q547 -248 351 -162Q96 -50 96 166Q96 227 122 276T194 359T305 412T446 430H1519Q1525 508 1525 555Q1525 647 1512 730T1470 880T1397 995T1291 1068Q1309 1050 1322 1019T1343 955T1355 897T1359 862Q1359 773 1332 705T1259 592T1153 523T1028 500Q952 500 887 518T773 579T698 691T671 862Q671 906 681 953T714 1046T772 1132T855 1203T964 1251T1103 1269Q1231 1269 1345 1231T1546 1105T1684 876T1736 530Q1736 507 1735 482T1731 430H1970V1320H2186ZM1465 254H410Q388 254 370 246T339 222T319 187T312 145Q312 27 533 -32Q683 -72 851 -72Q1076 -72 1212 -7Q1369 69 1465 254ZM1168 862Q1168 883 1159 913T1132 971T1087 1019T1025 1039Q983 1039 954 1024T907 984T881 927T873 862Q873 809 887 773T923 714T975 683T1035 673Q1062 673 1086 680T1128 709T1157 766T1168 862Z"/><glyph unicode="ஆ" horiz-adv-x="2768" d="M2186 1320V296Q2219 313 2257 321T2332 329Q2407 329 2467 300T2571 220T2637 96T2661 -62Q2661 -322 2436 -506Q2224 -681 1958 -681Q1843 -681 1745 -659T1574 -596T1460 -495T1419 -360Q1419 -309 1441 -264T1504 -181T1599 -118T1719 -79L1758 -247Q1707 -247 1679 -281T1650 -366Q1650 -398 1672 -423T1735 -467T1831 -494T1954 -504Q2052 -504 2141 -467T2297 -366T2405 -218T2445 -39Q2445 4 2435 40T2406 101T2360 141T2298 155Q2264 155 2235 148T2186 124V-207H1970V254H1684Q1504 -248 795 -248Q547 -248 351 -162Q96 -50 96 166Q96 227 122 276T194 359T305 412T446 430H1519Q1525 508 1525 555Q1525 647 1512 730T1470 880T1397 995T1291 1068Q1309 1050 1322 1019T1343 955T1355 897T1359 862Q1359 773 1332 705T1259 592T1153 523T1028 500Q952 500 887 518T773 579T698 691T671 862Q671 906 681 953T714 1046T772 1132T855 1203T964 1251T1103 1269Q1231 1269 1345 1231T1546 1105T1684 876T1736 530Q1736 507 1735 482T1731 430H1970V1320H2186ZM1465 254H410Q388 254 370 246T339 222T319 187T312 145Q312 27 533 -32Q683 -72 851 -72Q1076 -72 1212 -7Q1369 69 1465 254ZM1168 862Q1168 883 1159 913T1132 971T1087 1019T1025 1039Q983 1039 954 1024T907 984T881 927T873 862Q873 809 887 773T923 714T975 683T1035 673Q1062 673 1086 680T1128 709T1157 766T1168 862Z"/><glyph unicode="இ" horiz-adv-x="2224" d="M2079 0H1863V773Q1863 1118 1671 1356Q1464 1612 1127 1612Q805 1612 597 1390Q392 1173 392 849Q392 728 423 586Q457 425 512 339Q725 483 955 483Q1175 483 1370 352Q1420 507 1420 684Q1420 1306 1105 1306Q995 1306 929 1256Q1042 1255 1122 1171T1202 972Q1202 838 1116 758T894 677Q769 677 677 759Q581 845 581 968Q581 1164 742 1309Q897 1449 1096 1449Q1386 1449 1525 1215Q1637 1025 1637 714Q1637 403 1553 220Q1784 -11 1784 -196Q1784 -390 1672 -494T1364 -599Q1272 -599 1153 -568Q1024 -534 960 -485Q748 -597 550 -597Q370 -597 252 -509Q120 -411 120 -237Q120 -10 323 193Q176 562 176 824Q176 1224 456 1510T1135 1796Q1562 1796 1826 1499Q2079 1215 2079 782V0ZM990 979Q990 1036 970 1080Q944 1138 894 1138Q841 1138 814 1075Q793 1027 793 966Q793 914 817 874Q846 827 894 827Q990 827 990 979ZM1603 -213Q1603 -84 1476 54Q1378 -146 1164 -345Q1278 -389 1374 -389Q1466 -389 1529 -348Q1603 -300 1603 -213ZM1312 193Q1144 303 976 303Q788 303 586 157Q694 -59 973 -248Q1201 -59 1312 193ZM751 -360Q523 -192 412 11Q319 -100 319 -216Q319 -305 382 -359T535 -413Q631 -413 751 -360Z"/><glyph unicode="ஈ" horiz-adv-x="1720" d="M1547 640Q1547 595 1516 564T1439 532Q1394 532 1363 563T1331 640Q1331 685 1362 716T1439 748Q1484 748 1515 717T1547 640ZM1550 1142H1155V0H940V1142H372V0H157V1320H1550V1142ZM764 640Q764 595 733 564T656 532Q611 532 580 563T548 640Q548 685 579 716T656 748Q701 748 732 717T764 640Z"/><glyph unicode="உ" horiz-adv-x="2192" d="M2084 0H513Q405 0 332 12T215 52T152 122T133 226Q133 266 149 311T203 394T302 458T455 483H635Q731 483 787 512T873 587T910 688T919 796Q919 880 896 945T832 1055T739 1123T626 1146Q589 1146 546 1134Q713 1057 713 875Q713 807 692 753T631 661T536 603T414 582Q352 582 295 605T193 667T123 758T97 868Q97 964 140 1046T257 1190T428 1285T635 1320Q726 1320 816 1289T976 1194T1091 1037T1135 816Q1135 709 1115 630T1059 494T975 401T870 344T752 315T629 307H451Q425 307 406 301T374 286T355 265T349 244Q349 176 451 176H2084V0ZM505 884Q505 915 498 943T477 992T445 1027T406 1040Q384 1040 366 1027T334 991T313 941T305 884Q305 855 312 828T333 778T365 743T406 730Q427 730 445 743T477 777T497 826T505 884Z"/><glyph unicode="ஊ" horiz-adv-x="2792" d="M2724 1170H2558V302H2366V1170Q2316 1170 2279 1159T2217 1121T2180 1047T2167 929V298H1976V933Q1976 975 1956 1017T1902 1093T1819 1148T1716 1170Q1661 1170 1609 1144T1515 1072T1448 962T1423 824Q1423 810 1424 800T1426 781T1430 764T1436 745Q1449 765 1470 779T1516 802T1565 815T1611 820Q1681 820 1731 795T1813 730T1861 639T1877 537Q1877 483 1861 435T1812 350T1729 292T1608 270Q1523 269 1449 318T1329 464Q1259 614 1259 806Q1259 909 1294 1002T1391 1166T1540 1278T1731 1320Q1776 1320 1818 1316T1902 1298T1985 1258T2067 1189Q2085 1215 2118 1238T2199 1280T2304 1309T2431 1320H2724V1170ZM1711 533Q1711 600 1682 633T1606 667Q1583 667 1564 654T1531 620T1509 576T1501 533Q1501 477 1530 443T1606 409Q1652 409 1681 443T1711 533ZM2664 0H513Q405 0 332 12T215 52T152 122T133 226Q133 266 149 311T203 394T302 458T455 483H635Q731 483 787 512T873 587T910 688T919 796Q919 880 896 945T832 1055T739 1123T626 1146Q589 1146 546 1134Q713 1057 713 875Q713 807 692 753T631 661T536 603T414 582Q352 582 295 605T193 667T123 758T97 868Q97 964 140 1046T257 1190T428 1285T635 1320Q726 1320 816 1289T976 1194T1091 1037T1135 816Q1135 709 1115 630T1059 494T975 401T870 344T752 315T629 307H451Q425 307 406 301T374 286T355 265T349 244Q349 176 451 176H2664V0ZM505 884Q505 915 498 943T477 992T445 1027T406 1040Q384 1040 366 1027T334 991T313 941T305 884Q305 855 312 828T333 778T365 743T406 730Q427 730 445 743T477 777T497 826T505 884Z"/><glyph unicode="எ" horiz-adv-x="1688" d="M1638 1144H1398V0H1188V1144H958Q742 1144 569 1021Q385 890 347 684Q405 720 488 720Q622 720 725 608T828 360Q828 211 728 107Q626 0 478 0Q286 0 187 178Q108 321 108 530Q108 859 355 1091Q597 1320 928 1320H1638V1144ZM608 350Q608 421 579 479Q542 550 478 550Q390 550 337 505Q332 465 332 434Q332 343 365 272Q408 180 488 180Q538 180 575 242Q608 296 608 350Z"/><glyph unicode="ஏ" horiz-adv-x="1688" d="M1638 1144H1398V0L850 -460L740 -314L1188 43V1144H958Q742 1144 569 1021Q385 890 347 684Q397 720 488 720Q622 720 725 608T828 360Q828 211 727 106T478 0Q286 0 187 178Q108 321 108 530Q108 859 355 1091Q597 1320 928 1320H1638V1144ZM608 350Q608 421 579 479Q542 550 478 550Q412 550 372 485Q338 430 338 360Q338 287 376 236Q418 180 488 180Q538 180 575 242Q608 297 608 350Z"/><glyph unicode="ஐ" horiz-adv-x="1976" d="M1829 -158Q1829 -245 1799 -316T1707 -439T1554 -519T1339 -548Q1291 -548 1239 -539T1138 -510T1047 -462T974 -393Q914 -472 823 -510T617 -548Q515 -548 429 -519T281 -435T185 -306T150 -137Q150 -31 174 51T243 193T348 295T483 362T640 399T813 410H1149Q1279 410 1367 439T1508 530T1583 686T1604 911Q1604 962 1585 1005T1532 1079T1456 1128T1363 1146Q1094 1146 1094 767V610H878V767Q878 856 859 926T804 1045T716 1120T595 1146Q556 1146 518 1134T447 1101T388 1049T349 983Q386 991 403 991Q474 991 532 971T631 914T695 823T718 704Q718 641 696 590T633 501T538 443T416 422Q348 422 290 453T190 539T124 664T100 815Q100 920 139 1012T246 1172T405 1280T601 1320Q652 1320 706 1308T810 1274T903 1218T978 1144Q1104 1320 1344 1320Q1434 1320 1503 1301T1625 1247T1713 1169T1771 1074T1802 972T1812 871Q1812 725 1777 608T1663 407T1459 279T1153 234H809Q712 234 631 220T491 165T399 53T366 -131Q366 -185 385 -229T437 -305T515 -354T614 -372Q688 -372 738 -351T820 -284T864 -166T878 10H1094Q1092 -80 1099 -151T1134 -271T1218 -346T1370 -372Q1419 -372 1463 -356T1540 -313T1593 -247T1613 -165Q1613 -78 1549 -37T1370 4V181Q1470 181 1554 158T1700 91T1795 -16T1829 -158ZM525 706Q525 730 517 752T495 792T463 819T422 829Q398 829 379 818T347 790T326 751T318 706Q318 682 326 660T347 621T380 593T422 582Q444 582 463 592T495 619T517 659T525 706Z"/><glyph unicode="ஒ" horiz-adv-x="2248" d="M2112 662Q2112 466 2005 356T1703 246Q1559 246 1463 330Q1363 418 1363 560Q1363 571 1374 612Q1333 592 1297 536T1261 434Q1261 230 1468 152Q1599 103 1848 103V-73Q1648 -73 1501 -205Q1389 -327 1278 -450Q1146 -582 924 -582Q718 -582 629 -479T539 -238Q540 -29 759 116L880 0Q756 -73 739 -211Q739 -406 934 -406Q1100 -406 1222 -238Q1365 -41 1446 0Q1283 0 1162 130Q1044 257 1044 422Q1044 585 1170 706T1461 828H1706V628Q1656 626 1613 604Q1559 575 1559 531Q1559 422 1723 422Q1823 422 1876 492Q1923 555 1923 658Q1923 912 1616 1046Q1382 1147 1088 1147Q855 1147 664 1072Q431 981 341 803Q419 834 505 834Q631 834 726 736T821 511Q821 379 721 286T487 192Q315 192 202 322Q93 446 93 620Q93 969 435 1163Q718 1323 1096 1323Q1503 1323 1765 1195Q2112 1026 2112 662ZM605 501Q605 565 571 609Q535 658 473 658Q415 658 380 615T344 513Q344 453 384 411T485 368Q535 368 570 409T605 501Z"/><glyph unicode="ஓ" horiz-adv-x="2248" d="M2112 662Q2112 578 2080 503T1993 370T1863 280T1703 246Q1631 246 1569 269T1461 333T1389 432T1363 560Q1363 574 1374 612Q1354 601 1334 581T1297 535T1271 484T1261 434Q1261 349 1294 287T1398 184T1581 123T1848 103V-73Q1779 -64 1718 -90T1601 -162T1496 -264T1404 -373Q1350 -438 1301 -496T1200 -598T1091 -667T964 -693Q867 -693 785 -664T643 -581T549 -454T515 -291Q515 -213 544 -148T624 -35T745 38T897 65Q951 65 997 47T1077 -3T1130 -80T1150 -178Q1150 -231 1131 -274T1078 -349T996 -397T891 -414Q840 -414 804 -402T741 -371Q762 -442 819 -483T959 -524Q1014 -524 1053 -504T1124 -450T1182 -369T1238 -271Q1260 -231 1284 -187T1335 -105T1389 -38T1446 0Q1366 0 1293 35T1165 128T1078 263T1045 422Q1045 503 1078 576T1171 705T1311 793T1485 826H1706V650Q1675 650 1648 642T1602 618T1571 580T1559 531Q1559 422 1723 422Q1765 422 1801 441T1865 494T1907 569T1923 658Q1923 752 1884 825T1780 952T1629 1044T1451 1104T1264 1137T1088 1147Q982 1147 870 1129T657 1070T472 963T341 803Q401 830 475 830Q543 830 601 806T701 738T767 637T791 511Q791 446 764 388T690 287T583 218T457 192Q376 192 309 224T194 314T120 449T93 620Q93 744 136 844T254 1022T428 1157T638 1251T867 1305T1096 1323Q1205 1323 1322 1308T1553 1261T1767 1177T1945 1052T2067 882T2112 662ZM575 501Q575 534 566 562T539 612T497 645T443 658Q414 658 390 646T349 614T323 568T314 513Q314 483 325 457T354 411T399 380T455 368Q480 368 502 379T540 409T565 452T575 501ZM891 -262Q909 -262 925 -256T953 -238T973 -212T981 -180Q981 -111 885 -111Q841 -111 807 -135T752 -201Q772 -226 805 -244T891 -262Z"/><glyph unicode="ஔ" horiz-adv-x="4320" d="M2112 662Q2112 466 2005 356T1703 246Q1559 246 1463 330Q1363 418 1363 560Q1363 571 1374 612Q1333 592 1297 536T1261 434Q1261 230 1468 152Q1599 103 1848 103V-73Q1648 -73 1501 -205Q1389 -327 1278 -450Q1146 -582 924 -582Q718 -582 629 -479T539 -238Q540 -29 759 116L880 0Q756 -73 739 -211Q739 -406 934 -406Q1100 -406 1222 -238Q1365 -41 1446 0Q1283 0 1162 130Q1044 257 1044 422Q1044 585 1170 706T1461 828H1706V628Q1656 626 1613 604Q1559 575 1559 531Q1559 422 1723 422Q1823 422 1876 492Q1923 555 1923 658Q1923 912 1616 1046Q1382 1147 1088 1147Q855 1147 664 1072Q431 981 341 803Q419 834 505 834Q631 834 726 736T821 511Q821 379 721 286T487 192Q315 192 202 322Q93 446 93 620Q93 969 435 1163Q718 1323 1096 1323Q1503 1323 1765 1195Q2112 1026 2112 662ZM605 501Q605 565 571 609Q535 658 473 658Q415 658 380 615T344 513Q344 453 384 411T485 368Q535 368 570 409T605 501ZM4268 1144H4074V0H3858V1144Q3638 1144 3562 1041Q3461 965 3461 691V0H3245V684Q3245 929 3154 1037Q3049 1144 2860 1144Q2694 1144 2586 981Q2492 839 2491 663Q2579 732 2704 732Q2844 732 2942 625T3040 377Q3040 216 2944 110Q2844 0 2685 0Q2482 0 2370 221Q2280 398 2280 623Q2280 902 2410 1096Q2559 1320 2875 1320Q3190 1320 3362 1129Q3559 1320 3836 1320H4268V1144ZM2824 370Q2824 436 2792 491Q2754 556 2693 556Q2567 556 2500 476Q2500 380 2548 287Q2606 176 2693 176Q2754 176 2792 245Q2824 304 2824 370Z"/><glyph unicode="க" horiz-adv-x="1632" d="M1546 450Q1546 343 1514 260T1422 118T1274 30T1074 0V176Q1330 176 1330 434Q1330 497 1308 537T1247 601T1155 634T1040 644V480Q1040 384 1018 297T944 144T804 39T584 0Q522 0 463 20T351 76T253 158T176 259T125 369T107 481Q107 539 121 591T165 685T243 755T360 794V1320H1326V1144H1040V820H1110Q1197 820 1276 795T1415 722T1510 606T1546 450ZM824 820V1144H576V820H824ZM824 644H503Q467 644 435 638T377 613T336 563T321 481Q321 427 348 373T415 275T503 204T590 176Q651 176 695 200T768 268T810 374T824 512V644Z"/><glyph unicode="ங" horiz-adv-x="2120" d="M1966 0H1058V176Q1164 171 1234 264Q1295 345 1295 441Q1295 547 1233 629Q1164 720 1057 720Q902 720 832 593V0H616V1144H361V0H145V1320H1176V1144H832V850Q921 896 1072 896Q1247 896 1379 772T1511 475Q1511 300 1407 176H1750V1320H1966V0Z"/><glyph unicode="ச" horiz-adv-x="1520" d="M1372 644H1040V480Q1040 384 1018 297T944 144T804 39T584 0Q522 0 463 20T351 76T253 158T176 259T125 369T107 481Q107 539 121 591T165 685T243 755T360 794V1320H1326V1144H1040V820H1372V644ZM824 820V1144H576V820H824ZM824 644H503Q467 644 435 638T377 613T336 563T321 481Q321 427 348 373T415 275T503 204T590 176Q651 176 695 200T768 268T810 374T824 512V644Z"/><glyph unicode="ஜ" horiz-adv-x="1992" d="M1856 -163Q1856 -235 1834 -304T1767 -426T1652 -511T1489 -544Q1433 -544 1377 -524T1272 -464T1184 -361T1126 -215Q1065 -288 1003 -349T874 -455T738 -524T591 -549Q497 -549 417 -518T277 -433T184 -303T150 -137Q150 -31 174 51T243 193T348 295T483 362T640 399T813 410H1149Q1279 410 1367 439T1508 530T1583 686T1604 911Q1604 962 1585 1005T1532 1079T1456 1128T1363 1146Q1094 1146 1094 767V610H878V767Q878 856 859 926T804 1045T716 1120T595 1146Q556 1146 518 1134T447 1101T388 1049T349 983Q386 991 403 991Q474 991 532 971T631 914T695 823T718 704Q718 641 696 590T633 501T538 443T416 422Q348 422 290 453T190 539T124 664T100 815Q100 920 139 1012T246 1172T405 1280T601 1320Q652 1320 706 1308T810 1274T903 1218T978 1144Q1104 1320 1344 1320Q1434 1320 1503 1301T1625 1247T1713 1169T1771 1074T1802 972T1812 871Q1812 725 1777 608T1663 407T1459 279T1153 234H809Q712 234 631 220T491 165T399 53T366 -131Q366 -183 382 -226T429 -299T503 -347T599 -365Q666 -365 726 -335T839 -261T940 -165T1032 -71Q1089 -16 1138 31T1239 114T1347 169T1477 190Q1569 190 1640 163T1759 88T1831 -24T1856 -163ZM1661 -177Q1661 -121 1645 -84T1602 -26T1543 5T1478 14Q1439 14 1407 4T1348 -23T1303 -59T1271 -97Q1303 -228 1356 -297T1498 -366Q1531 -366 1561 -350T1613 -308T1648 -248T1661 -177ZM525 706Q525 730 517 752T495 792T463 819T422 829Q398 829 379 818T347 790T326 751T318 706Q318 682 326 660T347 621T380 593T422 582Q444 582 463 592T495 619T517 659T525 706Z"/><glyph unicode="ஞ" horiz-adv-x="2528" d="M2395 273Q2395 -112 2073 -336Q1789 -534 1387 -534Q864 -534 498 -238Q106 80 106 592Q106 788 186 993Q268 1205 401 1340L539 1235Q411 1108 362 947Q322 816 322 609Q322 184 634 -92Q934 -358 1364 -358Q1682 -358 1915 -198Q2179 -17 2179 287Q2179 395 2135 467Q2082 554 1980 554Q1841 554 1755 456L1756 0H1540V1144H1366Q1137 1144 968 1018Q791 888 747 668Q849 771 1018 771Q1173 771 1277 663T1382 399Q1382 226 1273 113T991 0Q782 0 650 190Q532 359 532 577Q532 927 774 1130Q1001 1320 1357 1320H2115V1144H1756V680Q1846 730 1956 730Q2145 730 2272 595Q2395 464 2395 273ZM1166 382Q1166 595 999 595Q936 595 872 561Q805 527 774 474Q755 442 755 429Q755 329 833 253T1011 176Q1083 176 1127 246Q1166 306 1166 382Z"/><glyph unicode="ட" horiz-adv-x="1904" d="M1735 0H148V1359H364V176H1735V0Z"/><glyph unicode="ண" horiz-adv-x="3144" d="M3109 1144H2925V0H2709V1144H2534Q2404 1144 2293 1108Q2488 879 2488 566Q2488 341 2423 197Q2334 0 2137 0Q1977 0 1878 163Q1793 303 1793 474Q1793 867 1987 1109Q1853 1176 1717 1176Q1530 1176 1426 1109Q1626 901 1626 537Q1626 316 1555 179Q1463 0 1263 0Q1109 0 1013 175Q933 321 933 489Q933 864 1133 1119Q1030 1176 805 1176Q638 1176 513 1090Q383 1000 341 842Q405 873 473 873Q628 873 715 732Q788 613 788 448Q788 271 709 147Q617 1 450 1Q265 1 164 202Q85 362 85 569Q85 897 280 1119Q484 1352 807 1352Q1099 1352 1271 1233Q1373 1306 1485 1332Q1571 1352 1717 1352Q1962 1352 2143 1235Q2295 1320 2553 1320H3109V1144ZM2272 554Q2272 888 2157 1010Q2081 930 2042 774Q2009 646 2009 509Q2009 408 2034 313Q2070 176 2140 176Q2212 176 2248 330Q2272 436 2272 554ZM1410 487Q1410 882 1298 1007Q1224 930 1183 764Q1149 627 1149 492Q1149 406 1179 307Q1218 176 1282 176Q1343 176 1381 305Q1410 404 1410 487ZM572 450Q572 533 548 605Q514 704 449 704Q373 704 311 646Q287 594 287 499Q287 392 319 301Q363 176 449 176Q513 176 547 286Q572 366 572 450Z"/><glyph unicode="த" horiz-adv-x="1712" d="M1326 1320V1144H1040V820H1110Q1197 820 1276 795T1415 720T1510 592T1546 412Q1546 310 1543 217T1524 43T1476 -104T1385 -217T1237 -289T1018 -315H528Q461 -315 413 -331T332 -374T278 -436T246 -507T231 -579T227 -644H11Q11 -597 20 -541T51 -429T113 -321T214 -228T362 -163T564 -139H1005Q1085 -139 1140 -124T1231 -79T1287 -1T1316 109T1328 254T1330 434Q1330 497 1308 537T1247 601T1155 634T1040 644V480Q1040 384 1018 297T944 144T804 39T584 0Q522 0 463 20T351 76T253 158T176 259T125 369T107 481Q107 539 121 591T165 685T243 755T360 794V1320H1326ZM824 644H503Q467 644 435 638T377 613T336 563T321 481Q321 427 348 373T415 275T503 204T590 176Q651 176 695 200T768 268T810 374T824 512V644ZM824 820V1144H576V820H824Z"/><glyph unicode="ந" horiz-adv-x="1528" d="M1409 377Q1409 290 1392 202T1341 34T1255 -117T1135 -239T981 -321T792 -351H486Q403 -351 354 -371T277 -423T242 -496T233 -580H17Q17 -475 44 -399T130 -273T284 -199T512 -175H792Q902 -175 978 -135T1102 -25T1171 139T1193 343Q1193 414 1181 474T1147 577T1092 645T1019 670Q990 670 963 654T916 610T883 550T870 484V0H654V1144H357V0H141V1320H1154V1144H870V785Q934 847 1061 847Q1141 847 1205 812T1315 715T1384 567T1409 377Z"/><glyph unicode="ன" horiz-adv-x="2424" d="M2366 1144H2133V0H1917V1144Q1638 1144 1501 1060Q1701 835 1701 527Q1701 340 1620 187Q1521 0 1350 0Q1191 0 1086 154Q994 291 994 458Q994 851 1204 1061Q1057 1144 926 1144Q715 1144 568 1063Q393 966 364 774Q418 792 473 792Q621 792 717 672Q806 560 806 408Q806 254 720 133Q624 0 475 0Q291 0 188 160Q101 297 101 492Q101 858 309 1085Q524 1320 887 1320Q1120 1320 1356 1186Q1539 1320 1969 1320H2366V1144ZM1485 536Q1485 634 1448 746Q1409 866 1349 934Q1210 784 1210 541Q1210 431 1236 328Q1273 178 1348 178Q1422 178 1460 326Q1485 428 1485 536ZM590 417Q590 491 560 550Q524 624 457 624Q318 624 318 443Q318 358 348 279Q387 176 457 176Q523 176 561 268Q590 339 590 417Z"/><glyph unicode="ப" horiz-adv-x="1512" d="M144 1320H360V176H1159V1320H1375V0H144V1320Z"/><glyph unicode="ம" horiz-adv-x="1976" d="M160 0V1320H376V176H882V940Q882 1014 899 1087T960 1220T1081 1315T1278 1352Q1372 1352 1448 1314T1585 1211T1689 1063T1761 889T1804 709T1818 540V308Q1818 210 1792 150T1717 56T1596 12T1433 0H160ZM1098 176H1434Q1459 176 1488 179T1543 195T1585 235T1602 308V536Q1602 600 1593 672T1565 815T1519 951T1457 1067T1378 1146T1284 1176Q1228 1176 1192 1156T1135 1102T1106 1026T1098 940V176Z"/><glyph unicode="ய" horiz-adv-x="2080" d="M1927 0H693V194Q636 110 556 55T362 0Q145 0 145 270V1320H361V273Q361 212 415 208T581 314T693 533V1320H909V176H1711V1320H1927V0Z"/><glyph unicode="ர" horiz-adv-x="1272" d="M1225 1145H990V0L440 -562L328 -449L774 0V1145H362V0H146V1320H1225V1145Z"/><glyph unicode="ற" horiz-adv-x="1864" d="M1759 580Q1759 428 1737 308T1676 93T1585 -70T1473 -189T1347 -269T1217 -319T1091 -344T977 -351H511Q429 -351 376 -365T291 -407T246 -478T233 -580L17 -579Q17 -468 47 -391T138 -266T292 -197T512 -175H977Q1041 -175 1108 -166T1240 -130T1360 -51T1459 83T1526 286T1552 572Q1552 637 1550 704T1538 835T1509 955T1456 1053T1372 1119T1251 1144Q1190 1144 1136 1123T1040 1066T974 982T950 877V0H742V938Q742 983 727 1020T686 1085T623 1128T545 1144Q504 1144 469 1129T407 1087T367 1024T352 944V0H136V956Q136 1030 170 1096T260 1212T389 1291T543 1320Q751 1320 871 1136Q1004 1320 1233 1320Q1368 1320 1467 1276T1631 1142T1727 912T1759 580Z"/><glyph unicode="ல" horiz-adv-x="2264" d="M2102 682Q2102 413 1968 219Q1816 0 1559 0Q1302 0 1170 178Q1054 336 1054 602Q1054 881 1019 983Q952 1176 728 1176Q546 1176 428 1032Q318 898 318 712Q318 671 325 630Q427 732 563 732Q711 732 813 624T915 367Q915 214 812 107T556 -1Q321 -1 202 241Q109 430 109 692Q109 995 264 1170Q426 1352 726 1352Q1271 1352 1271 611Q1271 408 1322 311Q1393 176 1577 176Q1739 176 1821 331Q1886 454 1886 631Q1886 820 1813 977Q1720 1176 1553 1176V1352Q1815 1352 1966 1142Q2102 954 2102 682ZM697 369Q697 435 666 490Q630 556 569 556Q454 556 350 451Q359 347 411 269Q473 176 569 176Q630 176 667 245Q697 302 697 369Z"/><glyph unicode="ள" horiz-adv-x="2152" d="M2110 1144H1916V0H1700V1144Q1480 1144 1404 1041Q1303 965 1303 691V0H1087V684Q1087 929 996 1037Q891 1144 702 1144Q536 1144 428 981Q334 839 333 663Q421 732 546 732Q686 732 784 625T882 377Q882 216 786 110Q686 0 527 0Q324 0 212 221Q122 398 122 623Q122 902 252 1096Q401 1320 717 1320Q1032 1320 1204 1129Q1401 1320 1678 1320H2110V1144ZM666 370Q666 436 634 491Q596 556 535 556Q409 556 342 476Q342 380 390 287Q448 176 535 176Q596 176 634 245Q666 304 666 370Z"/><glyph unicode="ழ" horiz-adv-x="1967" d="M160 0V1320H376V176H882V940Q882 1014 899 1087T960 1220T1081 1315T1278 1352Q1372 1352 1448 1314T1585 1211T1689 1063T1761 889T1804 709T1818 540V308Q1818 210 1792 150T1717 56T1596 12T1433 0H1098Q1106 -30 1124 -59T1167 -111T1222 -148T1283 -162H1614V-338H1417Q1350 -338 1298 -357T1201 -408T1113 -480T1023 -561Q978 -600 926 -637T808 -704T659 -750T469 -768Q393 -768 332 -744T228 -677T162 -579T139 -461Q139 -398 164 -344T232 -249T335 -186T462 -163H556V-341Q455 -341 405 -372T355 -471Q355 -495 370 -517T408 -555T462 -582T522 -592Q588 -592 640 -580T735 -548T814 -500T884 -444Q913 -419 941 -393T1000 -342T1065 -297T1141 -260Q1095 -260 1055 -241T981 -188T922 -106T882 0H160ZM1098 176H1434Q1459 176 1488 179T1543 195T1585 235T1602 308V536Q1602 600 1593 672T1565 815T1519 951T1457 1067T1378 1146T1284 1176Q1228 1176 1192 1156T1135 1102T1106 1026T1098 940V176Z"/><glyph unicode="வ" horiz-adv-x="2288" d="M2146 0H1035V176Q1204 176 1284 367Q1338 484 1338 611Q1338 858 1206 1012Q1066 1176 823 1176Q613 1176 468 1010Q329 850 328 636Q395 720 549 720Q694 720 793 611Q889 506 889 360Q889 212 788 106T539 0Q319 0 204 223Q112 401 112 644Q112 936 319 1144T819 1352Q1137 1352 1345 1142T1554 613Q1554 389 1417 176H1930V1320H2146V0ZM673 350Q673 426 645 480Q610 547 541 547Q478 547 424 522Q362 492 341 440Q341 346 390 267Q447 176 536 176Q595 176 636 235Q673 289 673 350Z"/><glyph unicode="ஶ" horiz-adv-x="2394" d="M361 1320V330Q361 271 371 235T401 178T450 151T517 144Q599 144 651 181T733 273T774 393T785 514V1320H2249V510Q2249 450 2241 387T2211 264T2154 150T2064 56T1934 -8T1759 -32Q1639 -32 1567 -3T1456 75T1405 190T1393 330V1144H1001V510Q1001 450 993 387T963 264T906 150T816 56T686 -8T511 -32Q391 -32 319 -3T208 75T157 190T145 330V1320H361ZM2033 1144H1609V330Q1609 271 1619 235T1649 178T1698 151T1765 144Q1847 144 1899 181T1981 273T2022 393T2033 514V1144Z"/><glyph unicode="ஷ" horiz-adv-x="2896" d="M2798 781Q2798 504 2468 176H2712V0H2297L1585 -567L1462 -441L1997 0H1118V176Q1219 240 1278 366Q1333 484 1333 611Q1333 835 1187 988Q1038 1144 815 1144Q619 1144 474 1000T328 660Q328 646 333 607Q445 727 620 727Q770 727 868 610Q961 499 961 347Q961 206 853 103T604 -1Q383 -1 237 218Q107 412 107 644Q107 920 322 1122Q533 1320 811 1320Q1125 1320 1335 1125Q1549 925 1549 613Q1549 388 1412 176H2134Q1917 392 1865 460Q1732 637 1732 819Q1732 1014 1886 1167T2236 1320Q2480 1320 2637 1173Q2798 1023 2798 781ZM2582 806Q2582 947 2490 1045T2258 1144Q2135 1144 2042 1048T1948 828Q1948 622 2302 269Q2582 548 2582 806ZM745 365Q745 431 713 486Q676 552 615 552Q528 552 474 522Q426 495 367 423Q387 319 447 253Q515 178 615 178Q676 178 713 244Q745 299 745 365Z"/><glyph unicode="ஸ" horiz-adv-x="3200" d="M3063 660Q3063 414 2921 217Q2764 0 2527 0Q2278 0 2131 196Q1997 373 1997 630Q1997 827 1934 961Q1851 1140 1677 1140Q1516 1140 1429 994Q1357 872 1357 700V0H1137V700Q1137 879 1037 1006Q928 1144 754 1144Q538 1144 422 986Q319 846 319 622Q319 590 330 560Q373 637 452 683T620 730Q771 730 863 624Q950 524 950 370Q950 227 858 117Q760 0 620 0Q389 0 235 237Q100 445 100 690Q100 947 282 1133T720 1320Q1062 1320 1237 1040Q1342 1320 1697 1320Q1926 1320 2074 1114Q2207 928 2207 690Q2207 180 2537 180Q2676 180 2769 368Q2847 525 2847 680Q2847 841 2769 978Q2677 1140 2527 1140V1320Q2758 1320 2917 1102Q3063 902 3063 660ZM760 370Q760 444 728 497Q689 560 620 560Q535 560 471 516Q404 470 380 390Q410 309 476 248Q550 180 630 180Q691 180 729 247Q760 303 760 370Z"/><glyph unicode="ஹ" horiz-adv-x="3635" d="M3511 580Q3511 428 3489 308T3428 93T3337 -70T3225 -189T3099 -269T2969 -319T2843 -344T2729 -351H509Q427 -351 374 -365T289 -407T244 -479T231 -581L15 -580Q15 -469 45 -392T136 -267T290 -197T510 -175H2729Q2793 -175 2860 -166T2992 -130T3112 -51T3211 83T3278 286T3304 572Q3304 637 3302 704T3290 835T3261 955T3208 1053T3124 1119T3003 1144Q2942 1144 2888 1123T2792 1066T2726 982T2702 877V0H2494V938Q2494 983 2479 1020T2438 1085T2375 1128T2297 1144Q2256 1144 2221 1129T2159 1087T2119 1024T2104 944V0H1125V176Q1178 209 1218 256T1285 360T1325 478T1339 602Q1339 718 1301 817T1193 989T1029 1103T822 1144Q719 1144 631 1105T478 997T376 838T339 641Q339 633 339 624Q339 615 340 607Q405 729 565 729Q638 729 699 701T805 624T875 509T900 364Q900 286 875 220T803 105T692 29T549 1Q342 1 221 208Q120 380 120 604Q120 762 169 893T310 1120T530 1267T818 1320Q971 1320 1105 1269T1339 1126T1496 905T1554 620Q1554 386 1419 176H1888V956Q1888 1030 1922 1096T2012 1212T2141 1291T2295 1320Q2503 1320 2623 1136Q2756 1320 2985 1320Q3120 1320 3219 1276T3383 1142T3479 912T3511 580ZM688 367Q688 403 679 437T652 497T612 538T560 554Q407 554 365 433Q407 180 560 180Q588 180 611 195T652 237T678 296T688 367Z"/><glyph unicode="ா" horiz-adv-x="1264" d="M1226 1146H930V0H714V1146H357V0H140V1320H1226V1146Z"/><glyph unicode="ி" horiz-adv-x="384" d="M238 0H22V1028Q22 1342 -60 1478Q-169 1657 -462 1657Q-570 1657 -662 1607Q-772 1546 -772 1447Q-772 1394 -743 1357T-661 1320V1144Q-806 1143 -895 1220Q-988 1301 -988 1444Q-988 1625 -802 1738Q-643 1834 -449 1834Q-151 1834 40 1661Q238 1481 238 1187V0Z"/><glyph unicode="ீ" horiz-adv-x="0" d="M191 1534Q191 1425 110 1354T-82 1282Q-190 1282 -267 1344Q-351 1411 -351 1516Q-351 1643 -223 1697Q-282 1719 -343 1719Q-459 1719 -548 1664Q-652 1600 -652 1491Q-652 1319 -422 1320V1144Q-604 1144 -729 1237Q-868 1340 -868 1515Q-868 1692 -690 1799Q-539 1890 -350 1890Q-138 1890 6 1818Q191 1725 191 1534ZM12 1528Q12 1565 -15 1592T-79 1620Q-116 1620 -143 1593T-170 1528Q-170 1491 -143 1464T-79 1436Q-42 1436 -15 1463T12 1528Z"/><glyph unicode="ு" horiz-adv-x="1016" d="M902 976Q902 846 801 755Q703 668 571 668Q441 668 343 761Q242 855 242 984Q242 1082 280 1144H-672V1320H563Q713 1320 807 1224T902 976ZM681 995Q681 1050 653 1094Q622 1145 570 1145Q518 1145 486 1094Q458 1050 458 995Q458 940 486 895Q518 844 570 844Q622 844 654 896Q681 940 681 995Z"/><glyph unicode="ூ" horiz-adv-x="1704" d="M1582 889Q1582 619 1390 420T927 221Q648 221 431 438L535 538Q687 397 926 397Q1117 397 1245 552Q1366 698 1366 893Q1366 1085 1244 1234Q1114 1391 926 1391Q778 1391 682 1309Q922 1246 922 973Q922 843 821 754Q724 668 593 668Q459 668 364 762T268 991Q268 1064 303 1144H-672V1320H412Q611 1567 896 1567Q1192 1567 1387 1376T1582 889ZM707 998Q707 1051 678 1095Q645 1145 595 1145Q542 1145 511 1096Q484 1054 484 998Q484 940 511 896Q542 844 597 844Q650 844 681 897Q707 941 707 998Z"/><glyph unicode="ெ" horiz-adv-x="1696" d="M1550 0H1335V1136Q1335 1345 1195 1492T847 1640Q563 1640 411 1446Q274 1270 274 978Q274 792 328 615Q390 412 504 297Q497 317 497 335Q497 466 595 562T824 658Q965 658 1060 560T1155 320Q1155 187 1048 92Q945 0 810 0Q444 0 246 330Q81 606 81 997Q81 1343 290 1575Q507 1816 849 1816Q1168 1816 1362 1606Q1550 1402 1550 1080V0ZM936 331Q936 385 908 430Q876 482 826 482Q773 482 741 431Q712 386 712 331Q712 276 740 230Q772 176 824 176Q876 176 908 229Q936 275 936 331Z"/><glyph unicode="ே" horiz-adv-x="1608" d="M1497 420Q1497 236 1340 113Q1195 0 1005 0Q627 0 348 268T69 914Q69 1300 352 1563Q628 1819 1017 1819Q1209 1819 1349 1698Q1495 1572 1495 1382Q1495 1269 1396 1175T1183 1081Q1050 1081 953 1175T855 1403Q855 1573 949 1640Q677 1640 478 1414Q285 1197 285 921Q285 628 468 414Q658 192 946 176Q856 268 856 418Q856 556 953 646T1189 736Q1309 736 1403 638T1497 420ZM1278 1393Q1278 1557 1181 1557Q1072 1557 1072 1388Q1072 1337 1098 1299Q1128 1255 1176 1255Q1224 1255 1253 1302Q1278 1342 1278 1393ZM1281 413Q1281 466 1255 512Q1224 566 1175 566Q1127 566 1097 511Q1072 466 1072 413Q1072 360 1097 315Q1127 260 1175 260Q1224 260 1255 314Q1281 360 1281 413Z"/><glyph unicode="ை" horiz-adv-x="2461" d="M2344 660Q2344 234 2110 0L1966 92Q2128 326 2128 577Q2128 798 2014 961Q1886 1145 1674 1145Q1571 1145 1472 1103Q1675 907 1675 587Q1675 370 1599 209Q1501 0 1309 0Q1137 0 1038 192Q958 348 958 539Q958 870 1152 1073Q1026 1146 892 1146Q702 1146 551 1046Q389 939 345 761Q400 798 464 798Q616 798 716 685Q812 577 812 423Q812 262 725 138Q628 0 474 0Q296 0 189 156Q94 294 94 481Q94 871 296 1092Q505 1320 892 1320Q1090 1320 1313 1216Q1448 1320 1682 1320Q1953 1320 2148 1126T2344 660ZM1451 514Q1451 812 1322 950Q1182 758 1182 503Q1182 410 1209 312Q1246 176 1312 176Q1386 176 1424 314Q1451 411 1451 514ZM587 428Q587 496 559 550Q524 617 463 617Q397 617 330 570Q313 486 313 428Q313 339 344 268Q385 176 463 176Q530 176 563 273Q587 342 587 428Z"/><glyph unicode="ொ" horiz-adv-x="3028" d="M1550 0H1335V1136Q1335 1345 1195 1492T847 1640Q563 1640 411 1446Q274 1270 274 978Q274 792 328 615Q390 412 504 297Q497 317 497 335Q497 466 595 562T824 658Q965 658 1060 560T1155 320Q1155 187 1048 92Q945 0 810 0Q444 0 246 330Q81 606 81 997Q81 1343 290 1575Q507 1816 849 1816Q1168 1816 1362 1606Q1550 1402 1550 1080V0ZM936 331Q936 385 908 430Q876 482 826 482Q773 482 741 431Q712 386 712 331Q712 276 740 230Q772 176 824 176Q876 176 908 229Q936 275 936 331ZM2927 1146H2631V0H2415V1146H2058V0H1841V1320H2927V1146Z"/><glyph unicode="ோ" horiz-adv-x="2985" d="M1497 420Q1497 236 1340 113Q1195 0 1005 0Q627 0 348 268T69 914Q69 1300 352 1563Q628 1819 1017 1819Q1209 1819 1349 1698Q1495 1572 1495 1382Q1495 1269 1396 1175T1183 1081Q1050 1081 953 1175T855 1403Q855 1573 949 1640Q677 1640 478 1414Q285 1197 285 921Q285 628 468 414Q658 192 946 176Q856 268 856 418Q856 556 953 646T1189 736Q1309 736 1403 638T1497 420ZM1278 1393Q1278 1557 1181 1557Q1072 1557 1072 1388Q1072 1337 1098 1299Q1128 1255 1176 1255Q1224 1255 1253 1302Q1278 1342 1278 1393ZM1281 413Q1281 466 1255 512Q1224 566 1175 566Q1127 566 1097 511Q1072 466 1072 413Q1072 360 1097 315Q1127 260 1175 260Q1224 260 1255 314Q1281 360 1281 413ZM2883 1146H2587V0H2371V1146H2014V0H1797V1320H2883V1146Z"/><glyph unicode="ௌ" horiz-adv-x="3904" d="M1550 0H1335V1136Q1335 1345 1195 1492T847 1640Q563 1640 411 1446Q274 1270 274 978Q274 792 328 615Q390 412 504 297Q497 317 497 335Q497 466 595 562T824 658Q965 658 1060 560T1155 320Q1155 187 1048 92Q945 0 810 0Q444 0 246 330Q81 606 81 997Q81 1343 290 1575Q507 1816 849 1816Q1168 1816 1362 1606Q1550 1402 1550 1080V0ZM936 331Q936 385 908 430Q876 482 826 482Q773 482 741 431Q712 386 712 331Q712 276 740 230Q772 176 824 176Q876 176 908 229Q936 275 936 331ZM3802 1144H3608V0H3392V1144Q3172 1144 3096 1041Q2995 965 2995 691V0H2779V684Q2779 929 2688 1037Q2583 1144 2394 1144Q2228 1144 2120 981Q2026 839 2025 663Q2113 732 2238 732Q2378 732 2476 625T2574 377Q2574 216 2478 110Q2378 0 2219 0Q2016 0 1904 221Q1814 398 1814 623Q1814 902 1944 1096Q2093 1320 2409 1320Q2724 1320 2896 1129Q3093 1320 3370 1320H3802V1144ZM2358 370Q2358 436 2326 491Q2288 556 2227 556Q2101 556 2034 476Q2034 380 2082 287Q2140 176 2227 176Q2288 176 2326 245Q2358 304 2358 370Z"/><glyph unicode="்" horiz-adv-x="0" d="M-519 1662Q-519 1729 -472 1776T-357 1824Q-289 1824 -242 1777T-195 1662Q-195 1594 -242 1547T-357 1500Q-424 1500 -471 1547T-519 1662Z"/><glyph unicode="ௐ" horiz-adv-x="2288" d="M2132 879Q2132 711 2020 585Q1904 454 1738 454Q1598 454 1503 545T1408 775Q1408 850 1443 911Q1313 851 1313 676Q1313 455 1518 385Q1631 346 1908 346V172H1807Q1751 172 1686 -20Q1603 -266 1507 -377Q1340 -569 1035 -569Q752 -569 579 -400T406 52Q406 178 473 280Q549 397 669 397Q871 397 871 34Q871 20 869 -100H960Q959 67 978 122Q1017 228 1154 228Q1232 228 1284 171T1336 35V-231H737V157Q737 252 672 252Q608 252 576 179Q551 123 551 50Q551 -159 692 -288Q829 -414 1039 -414Q1243 -414 1351 -328Q1450 -249 1519 -50Q1558 61 1560 68Q1586 134 1619 177Q1422 197 1284 327Q1138 465 1138 658Q1138 834 1273 953Q1403 1066 1582 1066H1755V908Q1544 910 1544 760Q1544 684 1606 637Q1662 595 1741 595Q1849 595 1919 706Q1980 803 1980 917Q1980 1178 1690 1343Q1445 1483 1162 1483Q881 1483 665 1370Q408 1236 354 988Q430 1068 550 1068Q680 1068 765 983T850 768Q850 639 765 553T550 466Q398 466 291 610Q194 742 194 900Q194 1252 512 1468Q794 1659 1162 1659Q1543 1659 1820 1464Q2132 1245 2132 879ZM1100 386Q1100 352 1075 327T1016 302Q982 302 957 327T932 386Q932 420 957 445T1016 470Q1050 470 1075 445T1100 386ZM713 766Q713 836 667 883T550 931Q481 931 433 883T385 766Q385 701 435 652T550 602Q620 602 666 649T713 766ZM1202 -100V53Q1202 70 1186 87T1152 105Q1092 105 1092 53V-100H1202Z"/><glyph unicode="ௗ" horiz-adv-x="2152" d="M2110 1144H1916V0H1700V1144Q1480 1144 1404 1041Q1303 965 1303 691V0H1087V684Q1087 929 996 1037Q891 1144 702 1144Q536 1144 428 981Q334 839 333 663Q421 732 546 732Q686 732 784 625T882 377Q882 216 786 110Q686 0 527 0Q324 0 212 221Q122 398 122 623Q122 902 252 1096Q401 1320 717 1320Q1032 1320 1204 1129Q1401 1320 1678 1320H2110V1144ZM666 370Q666 436 634 491Q596 556 535 556Q409 556 342 476Q342 380 390 287Q448 176 535 176Q596 176 634 245Q666 304 666 370Z"/><glyph unicode="௦" horiz-adv-x="1189" d="M1084 658Q1084 317 958 147T594 -23Q357 -23 231 147T105 658Q105 1000 231 1171T594 1342Q832 1342 958 1171T1084 658ZM879 658Q879 798 860 895T805 1052T715 1139T594 1166Q526 1166 473 1139T384 1052T329 895T310 658Q310 520 328 424T383 268T472 181T594 154Q663 154 716 181T805 268T860 424T879 658Z"/><glyph unicode="௧" horiz-adv-x="1632" d="M1546 450Q1546 343 1514 260T1422 118T1274 30T1074 0V176Q1330 176 1330 434Q1330 497 1308 537T1247 601T1155 634T1040 644V480Q1040 384 1018 297T944 144T804 39T584 0Q522 0 463 20T351 76T253 158T176 259T125 369T107 481Q107 539 121 591T165 685T243 755T360 794V1320H1326V1144H1040V820H1110Q1197 820 1276 795T1415 722T1510 606T1546 450ZM824 820V1144H576V820H824ZM824 644H503Q467 644 435 638T377 613T336 563T321 481Q321 427 348 373T415 275T503 204T590 176Q651 176 695 200T768 268T810 374T824 512V644Z"/><glyph unicode="௨" horiz-adv-x="1904" d="M1777 0H494Q330 0 251 30Q123 79 123 215Q123 368 321 442Q505 503 690 564Q888 661 888 871Q888 1007 790 1080Q702 1144 561 1144Q423 1144 360 1082Q621 1082 621 828Q621 719 541 652Q466 589 355 589Q247 589 175 667Q104 742 104 851Q104 1051 250 1187Q393 1320 595 1320Q812 1320 952 1208Q1104 1087 1104 875Q1104 619 906 492Q797 422 537 362Q339 317 339 260Q339 176 548 176H1777V0ZM477 835Q477 883 444 918T362 954Q314 954 281 919T248 835Q248 787 281 752T362 717Q410 717 443 752T477 835Z"/><glyph unicode="௩" horiz-adv-x="1880" d="M1749 0H1072V176Q1185 176 1250 256Q1309 330 1309 446Q1309 562 1249 643Q1183 734 1071 734Q948 734 846 646V0H630V1144H375V0H159V1320H953V1144H846V850Q962 910 1086 910Q1259 910 1392 779T1525 475Q1525 300 1421 176H1749V0Z"/><glyph unicode="௪" horiz-adv-x="1744" d="M1598 704H1056V547Q1056 312 969 171Q864 0 643 0Q121 0 121 506Q121 625 210 746Q306 876 420 880V1320H1161V1144H1056V880H1382V1320H1598V704ZM840 880V1144H636V880H840ZM840 588V704H741Q337 704 337 468Q337 356 416 268Q498 176 608 176Q752 176 806 321Q840 413 840 588Z"/><glyph unicode="௫" horiz-adv-x="2360" d="M2215 772H1999Q1994 1138 1783 1375Q1562 1624 1202 1624Q807 1624 570 1315Q354 1032 354 625Q354 227 536 -57Q749 -389 1125 -389Q1399 -389 1607 -203Q1823 -10 1823 261Q1823 356 1767 422Q1708 491 1614 491Q1477 491 1418 400V0H1202V1144H910V0H694V1320H1559V1144H1418V597Q1494 665 1616 665Q1817 665 1930 541Q2039 422 2039 219Q2039 -101 1767 -337Q1506 -565 1182 -565Q678 -565 397 -214Q138 109 138 625Q138 1129 422 1456Q720 1800 1216 1800Q1663 1800 1941 1508Q2215 1221 2215 772Z"/><glyph unicode="௬" horiz-adv-x="2632" d="M2476 0H1904V176Q2090 295 2090 473Q2090 568 2030 636T1875 704Q1763 704 1687 620T1610 422V0H1394V367Q1394 493 1300 592T1081 693Q1085 0 636 0Q388 0 247 121Q98 251 98 495Q98 629 201 740T440 869V1320H1185V1144H1078V869Q1372 869 1521 669Q1575 769 1678 825Q1778 880 1894 880Q2075 880 2190 764T2306 466Q2306 299 2213 176H2476V0ZM862 869V1144H656V869H862ZM862 604V693H529Q432 693 372 638T312 486Q312 359 403 268T622 176Q862 176 862 604Z"/><glyph unicode="௭" horiz-adv-x="1688" d="M1541 1144H1388V0H1172V1144H865Q644 1144 507 997Q380 860 359 634Q464 716 590 716Q741 716 836 616T931 364Q931 209 838 107Q742 1 588 1Q371 1 243 208Q134 384 134 615Q134 926 341 1125Q545 1320 858 1320H1541V1144ZM738 350Q738 417 695 479Q647 547 583 547Q455 547 366 465Q375 352 425 273Q487 176 590 176Q654 176 697 232Q738 285 738 350Z"/><glyph unicode="௮" horiz-adv-x="2320" d="M2186 1320V-207H1970V254H1684Q1504 -248 795 -248Q547 -248 351 -162Q96 -50 96 166Q96 227 122 276T194 359T305 412T446 430H1519Q1525 508 1525 555Q1525 647 1512 730T1470 880T1397 995T1291 1068Q1309 1050 1322 1019T1343 955T1355 897T1359 862Q1359 773 1332 705T1259 592T1153 523T1028 500Q952 500 887 518T773 579T698 691T671 862Q671 906 681 953T714 1046T772 1132T855 1203T964 1251T1103 1269Q1231 1269 1345 1231T1546 1105T1684 876T1736 530Q1736 507 1735 482T1731 430H1970V1320H2186ZM1465 254H410Q388 254 370 246T339 222T319 187T312 145Q312 27 533 -32Q683 -72 851 -72Q1076 -72 1212 -7Q1369 69 1465 254ZM1168 862Q1168 883 1159 913T1132 971T1087 1019T1025 1039Q983 1039 954 1024T907 984T881 927T873 862Q873 809 887 773T923 714T975 683T1035 673Q1062 673 1086 680T1128 709T1157 766T1168 862Z"/><glyph unicode="௯" horiz-adv-x="2576" d="M2406 469Q2406 199 2208 0L2081 148Q2190 295 2190 498Q2190 614 2109 732Q2020 862 1909 862Q1845 862 1753 823Q1819 820 1892 718Q1950 636 1977 553T2004 396Q2004 248 1908 128Q1806 0 1662 0Q1519 0 1396 117T1273 376Q1273 581 1336 706H1059Q1059 357 1003 223Q908 0 609 0Q399 0 259 151Q123 298 123 509Q123 645 208 750T426 884V1320H1167V1144H1060V881H1486Q1652 1031 1863 1031Q2117 1031 2263 876Q2406 725 2406 469ZM1788 393Q1788 503 1736 583Q1677 676 1572 676Q1489 580 1489 415Q1489 342 1530 265Q1577 176 1644 176Q1705 176 1749 257Q1788 327 1788 393ZM845 887V1144H642V887H845ZM845 595V706H716Q339 706 339 456Q339 346 421 261T614 176Q758 176 812 325Q845 418 845 595Z"/><glyph unicode="௰" horiz-adv-x="1992" d="M1875 661Q1875 384 1753 206Q1612 0 1347 0Q1155 0 1000 135Q850 0 673 0Q410 0 256 202Q116 385 116 657Q116 864 227 1058Q351 1274 538 1320L625 1153Q487 1107 406 956Q332 821 332 664Q332 486 410 346Q504 176 668 176Q797 176 873 291Q784 433 784 629H1000Q1000 460 1085 328Q1183 176 1343 176Q1488 176 1581 343Q1659 484 1659 642Q1659 815 1586 962Q1495 1144 1339 1144Q1259 1144 1182 1104L1097 1263Q1212 1320 1338 1320Q1571 1320 1730 1101Q1875 902 1875 661Z"/><glyph unicode="௱" horiz-adv-x="1896" d="M1784 1144H1633V0H1417V1144H1060V0H844V846Q844 1144 585 1144Q460 1144 397 1054Q342 977 342 846V0H126V846Q126 1061 229 1185Q340 1320 550 1320Q736 1320 843 1218V1320H1784V1144Z"/><glyph unicode="௲" horiz-adv-x="2256" d="M1618 644H1040V480Q1040 384 1018 297T944 144T804 39T584 0Q522 0 463 20T351 76T253 158T176 259T125 369T107 481Q107 539 121 591T165 685T243 755T360 794V1320H1326V1144H1040V820H1978V644H1834V499Q2136 398 2136 129Q2136 -291 1605 -291Q1213 -291 1213 -552H997Q997 -145 1563 -145Q1920 -145 1920 100Q1920 173 1899 220T1835 280Q1835 221 1806 170T1726 81T1608 22T1466 0Q1393 0 1327 21T1212 80T1133 169T1104 279Q1104 345 1138 395T1226 478T1344 527T1470 544H1618V644ZM824 644H503Q467 644 435 638T377 613T336 563T321 481Q321 427 348 373T415 275T503 204T590 176Q651 176 695 200T768 268T810 374T824 512V644ZM824 820V1144H576V820H824ZM1618 276V368H1471Q1402 368 1362 345T1321 276Q1321 233 1361 205T1471 176Q1618 176 1618 276Z"/><glyph unicode="௳" horiz-adv-x="2025" d="M1940 0H1134V176Q1185 206 1225 256T1292 365T1333 488T1348 611Q1348 738 1312 842T1208 1020T1046 1135T833 1176Q725 1176 635 1131T480 1010T377 838T338 636Q352 652 377 667T434 694T499 713T563 720Q656 720 730 696T855 626T934 512T961 356Q961 276 933 211T855 99T735 26T583 0Q474 0 389 46T244 176T153 380T122 644Q122 741 147 831T219 999T330 1143T473 1254T642 1326T829 1352Q934 1352 1029 1327T1207 1254T1355 1141T1467 992T1539 814T1564 613Q1564 390 1427 176H1940V0ZM745 350Q745 549 568 549Q426 549 354 417Q358 365 377 321T427 245T497 194T583 176Q616 176 645 191T696 231T732 287T745 350Z"/><glyph unicode="௴" horiz-adv-x="2760" d="M1899 690Q1899 600 1885 514T1844 352T1778 211T1690 99T1580 26T1452 0H160V1320H376V176H882V807Q882 1071 997 1211T1343 1352Q1410 1352 1472 1338Q1486 1402 1523 1456T1618 1548Q1617 1561 1617 1574T1616 1601Q1616 1689 1650 1767T1742 1904T1879 1997T2046 2032Q2142 2032 2224 1998T2365 1903T2459 1761T2493 1582Q2493 1522 2476 1461T2423 1341H2712V1208H2211V1335Q2240 1353 2263 1381T2303 1444T2327 1513T2336 1581Q2336 1653 2316 1711T2259 1811T2168 1876T2048 1899Q1990 1899 1942 1878T1857 1820T1800 1734T1774 1629Q1798 1643 1829 1652T1889 1661Q2007 1661 2072 1601T2137 1431Q2137 1381 2120 1340T2071 1270T1996 1224T1901 1208Q1814 1208 1752 1253T1655 1380Q1624 1338 1626 1276Q1698 1232 1749 1167T1834 1025T1883 861T1899 690ZM1349 176Q1444 176 1508 219T1611 332T1666 493T1683 678Q1683 803 1659 896T1591 1052T1486 1145T1349 1176Q1290 1176 1243 1154T1164 1095T1115 1007T1098 898V176H1349ZM1981 1427Q1981 1481 1960 1505T1892 1529Q1854 1529 1828 1514T1782 1466Q1785 1439 1795 1417T1822 1377T1858 1351T1901 1341Q1917 1341 1931 1348T1957 1368T1974 1395T1981 1427Z"/><glyph unicode="௵" horiz-adv-x="4522" d="M4347 1157Q4347 942 4247 791Q4131 616 3927 616Q3744 616 3600 786Q3509 892 3380 1150T3183 1490Q2982 1732 2610 1891Q2251 2046 1923 2046Q1290 2046 832 1653Q350 1239 350 616Q350 48 864 -342Q1337 -702 1923 -702Q2464 -702 2903 -507Q3470 -255 3470 215Q3470 337 3397 418T3202 500Q3061 500 2985 322Q2928 184 2928 0H2753V1147H2352V0H1508V193Q1743 401 1743 683Q1743 895 1609 1029T1263 1164Q1053 1164 919 969Q799 789 799 571Q896 668 1045 668Q1192 668 1285 575T1379 334Q1379 186 1287 93T1046 0Q825 0 711 199Q617 362 617 601Q617 893 800 1103Q989 1322 1273 1322Q1545 1322 1727 1167Q1918 1004 1918 737Q1918 413 1683 174H2168V1322H3074V1147H2928V586Q3047 675 3207 675Q3402 675 3523 548T3645 226Q3645 -325 3047 -631Q2565 -876 1953 -876Q1250 -876 736 -482Q175 -52 175 630Q175 1380 716 1817Q1216 2220 1985 2220Q2503 2220 2936 1930Q3351 1651 3590 1176Q3783 791 3911 791Q4048 791 4117 924Q4173 1028 4173 1179Q4173 1406 4053 1533Q3929 1664 3704 1663V1837Q4347 1841 4347 1157ZM1204 336Q1204 404 1160 448T1048 493Q981 493 938 448T894 336Q894 268 937 221T1048 174Q1115 174 1159 220T1204 336Z"/><glyph unicode="௶" horiz-adv-x="1807" d="M1727 1320V-379H1132Q1109 -472 1066 -552T951 -692T773 -785T518 -819Q419 -819 338 -798T199 -738T110 -644T78 -519Q78 -313 303 -242Q334 -232 370 -225T450 -213T547 -206T668 -203H915V36Q870 10 822 -5T725 -20Q632 -20 550 5T406 82T313 212T289 395V1320H505V330Q505 295 522 264T568 208T633 170T705 156Q742 156 779 171T847 211T896 270T915 340V1320H1131V-203H1511V1320H1727ZM919 -379H578Q500 -379 446 -388T358 -414T309 -458T294 -519Q294 -548 310 -572T358 -613T432 -639T528 -649Q636 -649 703 -629T811 -572T875 -486T919 -379Z"/><glyph unicode="௷" horiz-adv-x="2809" d="M1698 1144H1398V386Q1421 391 1444 395T1490 402Q1493 486 1527 561T1619 691T1752 779T1914 812Q2009 812 2089 779T2229 686T2321 545T2355 368Q2355 233 2273 106H2581V792H2710V0H2098V106Q2126 124 2149 152T2190 214T2216 288T2225 367Q2225 443 2204 505T2142 612T2044 681T1916 706Q1854 706 1801 686T1709 629T1647 540T1623 422Q1640 422 1673 427T1752 432Q1795 432 1832 415T1896 368T1940 299T1956 216Q1956 172 1940 133T1896 65T1829 18T1746 0Q1696 0 1655 21T1582 79T1529 170T1497 286Q1471 282 1446 278T1398 269V0H1188V1144H958Q741 1144 569 1021Q384 890 347 684Q405 720 488 720Q554 720 615 689T724 606T800 491T828 360Q828 285 801 220T726 106T615 29T478 0Q392 0 324 38T207 146T134 313T108 530Q108 859 355 1091Q596 1320 928 1320H1698V1144ZM608 350Q608 390 599 426T572 489T531 533T478 550Q389 550 337 505Q335 485 334 468T332 434Q332 380 343 334T375 254T424 200T488 180Q511 180 532 196T571 236T598 291T608 350ZM1826 210Q1826 264 1805 296T1747 329Q1704 329 1670 325T1623 312Q1623 282 1633 246T1659 179T1698 127T1744 106Q1762 106 1777 115T1803 140T1820 173T1826 210Z"/><glyph unicode="௸" horiz-adv-x="4075" d="M2100 419Q2100 309 2069 230T1987 100T1869 24T1733 -1Q1649 -1 1584 25T1469 95T1385 200T1329 328T1297 471T1287 617Q1287 716 1314 809T1392 985T1513 1133T1673 1245Q1621 1326 1554 1397T1401 1521T1210 1604T976 1635Q830 1635 702 1590T479 1460T329 1253T274 978Q274 892 283 797T313 611T368 437T454 297Q447 315 447 335Q447 400 474 458T546 561T650 632T774 658Q844 658 904 632T1009 559T1079 452T1105 320Q1105 255 1077 197T1000 95T890 26T760 0Q631 0 531 41T355 154T227 322T143 529T96 760T81 997Q81 1166 140 1315T315 1575T597 1751T979 1816Q1152 1816 1291 1776T1540 1668T1733 1507T1877 1311Q1931 1320 1990 1320Q2157 1320 2293 1269T2526 1124T2675 900T2728 613Q2728 388 2591 176H3313Q3265 228 3217 275T3124 368T3041 461T2973 563T2928 680T2911 819Q2911 883 2930 945T2984 1063T3066 1166T3170 1247T3288 1301T3415 1320Q3538 1320 3641 1281T3818 1170T3935 999T3977 781Q3977 504 3647 176H3891V0H3476L2764 -567L2641 -441L3176 0H2297V176Q2349 207 2389 256T2456 365T2498 487T2512 611Q2512 723 2473 820T2363 990T2199 1103T1994 1144Q1986 1144 1977 1144T1960 1143Q2003 1040 2030 937T2072 739T2094 562T2100 419ZM3762 806Q3762 876 3738 937T3670 1045T3567 1117T3438 1144Q3378 1144 3322 1118T3223 1047T3154 946T3128 828Q3128 621 3482 269Q3762 548 3762 806ZM1487 602Q1487 531 1503 456T1551 319T1631 218T1744 178Q1772 178 1799 193T1849 241T1885 328T1899 459Q1899 494 1894 560T1872 710T1829 892T1758 1086Q1699 1056 1650 1010T1564 903T1508 767T1487 602ZM886 331Q886 360 878 387T854 435T819 469T776 482Q751 482 730 469T694 435T671 387T662 331Q662 302 670 274T694 224T729 189T774 176Q799 176 819 189T855 224T878 274T886 331Z"/><glyph unicode="௹" horiz-adv-x="2305" d="M1765 1448H1264V1575Q1293 1593 1316 1621T1356 1684T1380 1753T1389 1821Q1389 1893 1369 1951T1312 2051T1221 2116T1101 2139Q1043 2139 995 2119T912 2063T855 1980T830 1876Q838 1880 851 1884T880 1892T912 1898T942 1901Q1060 1901 1125 1841T1190 1671Q1190 1621 1173 1580T1124 1510T1049 1464T954 1448Q898 1448 855 1467T780 1519T727 1592T693 1677Q623 1632 550 1561T416 1383T318 1134T280 801Q280 583 352 407T554 106T867 -86T1272 -154Q1367 -154 1454 -150T1617 -131T1753 -84T1858 3T1926 141T1950 343Q1950 414 1938 474T1904 577T1849 645T1776 670Q1747 670 1720 654T1673 610T1640 550T1627 484V0H1411V1144H1114V0H898V1320H1871V1144H1627V785Q1691 847 1818 847Q1898 847 1962 812T2072 715T2141 567T2166 377Q2166 198 2115 61T1956 -169T1678 -309T1272 -357Q1094 -357 937 -320T648 -212T411 -40T234 188T123 465T84 784Q84 926 108 1049T174 1276T272 1465T394 1617T529 1735T669 1818V1841Q669 1929 703 2007T795 2144T932 2237T1099 2272Q1195 2272 1277 2238T1418 2143T1512 2001T1546 1822Q1546 1762 1529 1701T1476 1581H1765V1448ZM1034 1667Q1034 1721 1013 1745T945 1769Q907 1769 878 1759T831 1734Q833 1704 844 1677T872 1628T910 1594T954 1581Q970 1581 984 1588T1010 1608T1027 1635T1034 1667Z"/><glyph unicode="௺" horiz-adv-x="2114" d="M1409 377Q1409 290 1392 202T1341 34T1255 -117T1135 -239T981 -321T792 -351H486Q403 -351 354 -371T277 -423T242 -496T233 -580H17Q17 -475 44 -399T130 -273T284 -199T512 -175H792Q902 -175 978 -135T1102 -25T1171 139T1193 343Q1193 414 1181 474T1147 577T1092 645T1019 670Q990 670 963 654T916 610T883 550T870 484V0H654V1144H357V0H141V1320H792Q807 1392 843 1454T942 1560Q941 1573 941 1586T940 1613Q940 1701 974 1779T1066 1916T1203 2009T1370 2044Q1466 2044 1548 2010T1689 1915T1783 1773T1817 1594Q1817 1534 1800 1474T1747 1353H2036V1220H1535V1347Q1564 1365 1587 1393T1627 1455T1651 1525T1660 1593Q1660 1665 1640 1723T1583 1823T1492 1888T1372 1911Q1314 1911 1266 1890T1181 1832T1124 1746T1098 1641Q1122 1655 1153 1664T1213 1673Q1331 1673 1396 1614T1461 1443Q1461 1393 1444 1352T1395 1282T1320 1236T1225 1220Q1137 1220 1076 1265T979 1392Q966 1375 957 1356T940 1320H974V1144H870V785Q934 847 1061 847Q1141 847 1205 812T1315 715T1384 567T1409 377ZM1305 1439Q1305 1493 1284 1517T1216 1541Q1178 1541 1152 1526T1106 1478Q1109 1451 1119 1429T1146 1389T1182 1363T1225 1353Q1241 1353 1255 1360T1281 1380T1298 1407T1305 1439Z"/><glyph unicode="​" horiz-adv-x="0"/><glyph unicode="‌" horiz-adv-x="0" d="M36 -275H-36V1584H36V-275Z"/><glyph unicode="‍" horiz-adv-x="0" d="M219 1369L170 1320L36 1456V-275H-36V1456L-170 1320L-219 1369L-48 1538L-219 1706L-170 1755L0 1584L170 1755L219 1706L48 1538L219 1369Z"/><glyph unicode="–" horiz-adv-x="540" d="M551 411H-11V544H551V411Z"/><glyph unicode="—" horiz-adv-x="1080" d="M1091 411H-11V544H1091V411Z"/><glyph unicode="‘" horiz-adv-x="409" d="M297 897H112V1082Q112 1141 124 1189T159 1271T217 1323T297 1342V1255Q206 1255 206 1082H297V897Z"/><glyph unicode="’" horiz-adv-x="409" d="M296 1137Q296 1077 284 1029T249 948T192 896T112 877V963Q202 963 202 1137H112V1320H296V1137Z"/><glyph unicode="‚" horiz-adv-x="554" d="M377 0Q377 -64 364 -116T326 -204T264 -261T177 -281V-188Q274 -188 274 0H177V199H377V0Z"/><glyph unicode="“" horiz-adv-x="614" d="M538 897H354V1082Q354 1200 400 1271T538 1342V1255Q448 1255 448 1082H538V897ZM260 897H76V1082Q76 1200 122 1271T260 1342V1255Q169 1255 169 1082H260V897Z"/><glyph unicode="”" horiz-adv-x="614" d="M538 1136Q538 1017 492 947T354 876V962Q445 962 445 1136H354V1319H538V1136ZM260 1136Q260 1017 213 947T76 876V962Q166 962 166 1136H76V1319H260V1136Z"/><glyph unicode="„" horiz-adv-x="781" d="M640 0Q640 -64 628 -116T590 -204T528 -261T441 -281V-188Q539 -188 539 0H441V199H640V0ZM340 0Q340 -64 327 -116T289 -204T227 -261T141 -281V-188Q238 -188 238 0H141V199H340V0Z"/><glyph unicode="†" horiz-adv-x="1025" d="M953 779H598V-387H427V779H72V923H427V1319H598V923H953V779Z"/><glyph unicode="‡" horiz-adv-x="1025" d="M953 9H598V-387H427V9H72V153H427V779H72V923H427V1319H598V923H951V779H598V153H953V9Z"/><glyph unicode="•" horiz-adv-x="799" d="M667 781Q667 725 645 676T586 590T501 531T399 509Q343 509 295 530T209 589T151 676T130 781Q130 836 151 885T209 971T294 1029T399 1051Q454 1051 503 1030T588 971T646 885T667 781Z"/><glyph unicode="…" horiz-adv-x="1042" d="M960 0H777V184H960V0ZM613 0H429V184H613V0ZM265 0H82V184H265V0Z"/><glyph unicode="‰" horiz-adv-x="1843" d="M299 1342Q427 1342 502 1250T577 992Q577 825 502 734T299 642Q170 642 96 733T22 992Q22 1158 96 1250T299 1342ZM299 752Q433 752 433 992Q433 1231 299 1231Q166 1231 166 992Q166 752 299 752ZM1021 1319L319 0H188L890 1319H1021ZM1543 679Q1671 679 1746 587T1821 328Q1821 162 1746 70T1543 -23Q1415 -23 1341 69T1266 328Q1266 495 1340 587T1543 679ZM1543 88Q1678 88 1678 328Q1678 568 1543 568Q1410 568 1410 328Q1410 88 1543 88ZM911 679Q1039 679 1114 587T1189 328Q1189 162 1114 70T911 -23Q782 -23 708 69T634 328Q634 495 708 587T911 679ZM911 88Q1045 88 1045 328Q1045 568 911 568Q778 568 778 328Q778 88 911 88Z"/><glyph unicode="‹" horiz-adv-x="665" d="M542 70H397L87 515L397 960H542L288 515L542 70Z"/><glyph unicode="›" horiz-adv-x="665" d="M576 515L266 70H123L377 515L123 960H266L576 515Z"/><glyph unicode="₨" horiz-adv-x="2123" d="M1249 0H1059L935 354Q918 400 890 438T825 505T743 548T646 564H322V0H147V1320H732Q785 1320 833 1318T924 1307T1007 1281T1081 1234Q1141 1181 1172 1106T1203 951Q1203 882 1183 824T1124 721T1030 645T906 601V598Q1044 555 1118 359L1249 0ZM322 722H714Q795 722 853 734T949 773T1004 844T1022 951Q1022 1065 952 1119T740 1174H322V722ZM1667 -23Q1277 -23 1256 285H1427Q1428 111 1665 111Q1718 111 1758 122T1826 154T1867 202T1881 263Q1881 297 1871 318T1830 355T1745 386T1604 425Q1519 446 1458 467T1357 518T1298 592T1279 703Q1279 762 1304 812T1375 900T1488 958T1635 979Q2012 979 2018 711H1850Q1841 845 1648 845Q1605 845 1569 837T1505 812T1463 773T1448 718Q1448 690 1455 672T1488 639T1567 608T1709 571Q1796 550 1860 528T1966 473T2029 395T2050 280Q2050 215 2023 160T1947 64T1826 0T1667 -23Z"/><glyph unicode="€" horiz-adv-x="1025" d="M927 420Q886 -23 512 -23Q147 -23 92 472H0V568H85Q83 595 83 658Q83 719 85 744H0V841H92Q144 1342 512 1342Q688 1342 795 1233T927 923H752Q740 1057 677 1133T512 1209Q306 1209 267 841H541L514 744H260Q258 719 258 658Q258 595 260 568H460L433 472H267Q306 111 512 111Q723 111 752 420H927Z"/><glyph unicode="™" horiz-adv-x="1260" d="M1166 676H1055V1201L934 676H823L702 1201V676H590V1319H767L878 823L990 1319H1166V676ZM516 1211H341V676H220V1211H45V1319H516V1211Z"/><glyph unicode="∙" horiz-adv-x="583" d="M116 799Q116 834 129 865T166 919T220 955T285 968Q320 968 351 955T405 918T441 864T455 799Q455 764 442 733T405 679T351 642T285 628Q251 628 221 641T167 678T130 733T116 799Z"/><glyph unicode="◌" horiz-adv-x="1559" d="M1366 1029L1232 935Q1167 1042 1060 1107L1154 1240Q1285 1157 1366 1029ZM928 1340L900 1179Q842 1193 780 1193Q716 1193 658 1179L630 1340Q706 1357 779 1357Q852 1357 928 1340ZM1459 677Q1459 604 1442 528L1281 556Q1295 614 1295 676Q1295 740 1281 798L1442 826Q1459 750 1459 677ZM1366 325Q1284 195 1154 113L1060 247Q1167 312 1232 419L1366 325ZM499 1107Q392 1042 327 935L193 1029Q274 1157 405 1240L499 1107ZM278 556L116 528Q100 599 100 677Q100 755 116 826L278 798Q264 740 264 676Q264 614 278 556ZM928 14Q852 -3 779 -3Q706 -3 630 14L658 175Q716 161 780 161Q842 161 900 175L928 14ZM499 247L405 113Q275 195 193 325L327 419Q392 312 499 247Z"/></font>
</defs>
</svg>
